M48
;Layer_Color=9474304
;FILE_FORMAT=2:5
INCH,LZ
;TYPE=PLATED
T1F00S00C0.00787
T2F00S00C0.01299
T3F00S00C0.01575
T4F00S00C0.01968
T5F00S00C0.02756
T6F00S00C0.06000
T7F00S00C0.12598
%
T01
X0602602Y0409873
Y0414204
Y0418535
Y0422865
Y0427196
Y0431527
X0606932
X0611263
X0615594
Y0427196
X0611263
X0606932
Y0422865
Y0418535
X0611263
Y0422865
X0615594
Y0418535
Y0414204
X0611263
X0606932
Y0409873
X0611263
X0615594
T02
X0680614Y031145
X0689276
X0535398
X0526736
X0520634Y0317552
Y0326213
X0526736Y0332316
X0535398
X05415Y0326213
Y0317552
X0674512
Y0326213
X0680614Y0332316
X0689276
X0695378Y0326213
Y0317552
Y047693
Y0485591
X0689276Y0491694
X0680614
X0674512Y0485591
Y047693
X0680614Y0470828
X0689276
X0535398
X0526736
X0520634Y047693
Y0485591
X0526736Y0491694
X0535398
X05415Y0485591
Y047693
T03
X0545Y0315
X055Y032
Y033
Y034
X0545Y0345
X0535
X0525
X0555
Y0335
Y0325
Y0315
X057
Y0325
X0575Y033
X0565
X0585
X0595
X059Y0335
X058Y0325
X0585Y032
X0575
X058Y0315
X06
X061
X06Y0325
X0595Y0375
X059
Y038
X0595
X06
X061
X0615
X062
Y0375
X0615
Y037
X057Y04206
Y04256
X0565
Y04206
X052Y045
X0645Y0425
X065
X0655
Y043
X065
X0654019Y0466919
X065Y038
X0645
Y0375
Y037
Y0365
X064
Y037
Y0375
Y038
X0695Y0375
Y0365
Y0355
Y0345
X0658Y0472
Y0477
Y0482
Y0487
X0642Y0491
X064Y048
X0645
Y0475
X064
X0635
X063
X0628Y04803
X0623Y049
Y0495
X0618
X0613
Y049
X0618
X0605
X06
X0595
Y0495
X06
X0605
X059Y048
Y0475
X0585
X058
X0575
Y048
X057Y04797
Y0475
X05677Y04905
X0574118Y04909
X0563Y0487
T04
X05231Y03865
X05549Y03872
X05551Y03756
X05531Y0368
X05448Y03755
X05497Y04099
X05801Y04082
X05798Y03888
X05805Y03638
X05797Y04282
X0579Y04469
X05791Y04564
X05573Y04485
X05552Y04372
X05308Y04466
X06206Y04511
X06362Y04522
X0637Y04383
X06366Y04286
X06617Y04187
X06646Y04074
X06865Y04291
X0667Y04532
X06662Y04636
X0658925Y04475
X06765Y03681
X0684Y03519
T05
X0605Y0364
Y0374
X06345Y0480737
Y0490737
X05827
Y0480737
T06
X0615Y03278
X0635
X06192Y04813
X05992
T07
X0531067Y0321883
X0684945
Y0481261
X0531067
M30
