G04*
G04 #@! TF.GenerationSoftware,Altium Limited,Altium Designer,21.3.2 (30)*
G04*
G04 Layer_Color=8388736*
%FSTAX25Y25*%
%MOIN*%
G70*
G04*
G04 #@! TF.SameCoordinates,EB2CAA8E-72F9-4FA4-A601-E6806EDF6347*
G04*
G04*
G04 #@! TF.FilePolarity,Positive*
G04*
G01*
G75*
%ADD113C,0.00197*%
D113*
X0253946Y0414708D02*
Y0440692D01*
X0234654Y0414708D02*
X0253946D01*
X0234654D02*
Y0440692D01*
X0253946D01*
X02443Y0425732D02*
Y0429669D01*
X0242332Y04277D02*
X0246269D01*
X0219932Y0429939D02*
X0223868D01*
X02219Y042797D02*
Y0431907D01*
X0210286Y0445293D02*
X0233514D01*
X0210286Y0414584D02*
Y0445293D01*
Y0414584D02*
X0233514D01*
Y0445293D01*
X0318831Y04258D02*
X0322768D01*
X03208Y0423832D02*
Y0427769D01*
X0309186Y0441154D02*
X0332414D01*
X0309186Y0410446D02*
Y0441154D01*
Y0410446D02*
X0332414D01*
Y0441154D01*
X0524432Y0414291D02*
X0528369D01*
X05264Y0412323D02*
Y041626D01*
X0516754Y0427283D02*
X0536046D01*
X0516754Y0401299D02*
Y0427283D01*
Y0401299D02*
X0536046D01*
Y0427283D01*
X04959Y0419431D02*
Y0423369D01*
X0493931Y04214D02*
X0497868D01*
X0514601Y0407227D02*
Y0435573D01*
X0477199D02*
X0514601D01*
X0477199Y0407227D02*
Y0435573D01*
Y0407227D02*
X0514601D01*
X0459213Y044519D02*
X0500787D01*
X0459213D02*
Y0494009D01*
X0500787D01*
Y044519D02*
Y0494009D01*
X040087Y0470961D02*
X043713D01*
Y0441039D02*
Y0470961D01*
X040087Y0441039D02*
X043713D01*
X040087D02*
Y0470961D01*
X0309398Y0451339D02*
X0350973D01*
X0309398D02*
Y0500157D01*
X0350973D01*
Y0451339D02*
Y0500157D01*
X0356914Y0410384D02*
Y0441093D01*
X0333686Y0410384D02*
X0356914D01*
X0333686D02*
Y0441093D01*
X0356914D01*
X03453Y042377D02*
Y0427707D01*
X0343332Y0425739D02*
X0347269D01*
X0196313Y0451339D02*
X0237887D01*
X0196313D02*
Y0500157D01*
X0237887D01*
Y0451339D02*
Y0500157D01*
M02*
