G04*
G04 #@! TF.GenerationSoftware,Altium Limited,Altium Designer,21.3.2 (30)*
G04*
G04 Layer_Color=16711935*
%FSTAX25Y25*%
%MOIN*%
G70*
G04*
G04 #@! TF.SameCoordinates,EB2CAA8E-72F9-4FA4-A601-E6806EDF6347*
G04*
G04*
G04 #@! TF.FilePolarity,Positive*
G04*
G01*
G75*
%ADD14C,0.00787*%
D14*
X0205811Y0081457D02*
Y0105079D01*
X0174315D02*
X0205811D01*
X0174315Y0081457D02*
X0205811D01*
X0174315D02*
Y0105079D01*
X0282604Y0081657D02*
Y0105279D01*
Y0081657D02*
X03141D01*
X0282604Y0105279D02*
X03141D01*
Y0081657D02*
Y0105279D01*
X0246469Y0081994D02*
Y0105616D01*
Y0081994D02*
X0277965D01*
X0246469Y0105616D02*
X0277965D01*
Y0081994D02*
Y0105616D01*
X0209891Y0081631D02*
Y0105253D01*
Y0081631D02*
X0241387D01*
X0209891Y0105253D02*
X0241387D01*
Y0081631D02*
Y0105253D01*
X0132931Y0373987D02*
X0156553D01*
Y0342491D02*
Y0373987D01*
X0132931Y0342491D02*
Y0373987D01*
Y0342491D02*
X0156553D01*
X0132931Y0303585D02*
X0156553D01*
Y0272089D02*
Y0303585D01*
X0132931Y0272089D02*
Y0303585D01*
Y0272089D02*
X0156553D01*
X0132931Y0307569D02*
X0156553D01*
X0132931D02*
Y0339065D01*
X0156553Y0307569D02*
Y0339065D01*
X0132931D02*
X0156553D01*
X0513824Y0344529D02*
X0537446D01*
X0513824Y0313033D02*
Y0344529D01*
X0537446Y0313033D02*
Y0344529D01*
X0513824Y0313033D02*
X0537446D01*
X0513824Y0389487D02*
X0537446D01*
X0513824Y0357991D02*
Y0389487D01*
X0537446Y0357991D02*
Y0389487D01*
X0513824Y0357991D02*
X0537446D01*
M02*
