G04*
G04 #@! TF.GenerationSoftware,Altium Limited,Altium Designer,21.3.2 (30)*
G04*
G04 Layer_Color=8388736*
%FSTAX25Y25*%
%MOIN*%
G70*
G04*
G04 #@! TF.SameCoordinates,EB2CAA8E-72F9-4FA4-A601-E6806EDF6347*
G04*
G04*
G04 #@! TF.FilePolarity,Negative*
G04*
G01*
G75*
%ADD42R,0.14186X0.06706*%
%ADD43R,0.13005X0.06312*%
G04:AMPARAMS|DCode=44|XSize=67.06mil|YSize=141.86mil|CornerRadius=11.38mil|HoleSize=0mil|Usage=FLASHONLY|Rotation=180.000|XOffset=0mil|YOffset=0mil|HoleType=Round|Shape=RoundedRectangle|*
%AMROUNDEDRECTD44*
21,1,0.06706,0.11909,0,0,180.0*
21,1,0.04429,0.14186,0,0,180.0*
1,1,0.02276,-0.02215,0.05955*
1,1,0.02276,0.02215,0.05955*
1,1,0.02276,0.02215,-0.05955*
1,1,0.02276,-0.02215,-0.05955*
%
%ADD44ROUNDEDRECTD44*%
G04:AMPARAMS|DCode=45|XSize=47.37mil|YSize=145.8mil|CornerRadius=13.84mil|HoleSize=0mil|Usage=FLASHONLY|Rotation=180.000|XOffset=0mil|YOffset=0mil|HoleType=Round|Shape=RoundedRectangle|*
%AMROUNDEDRECTD45*
21,1,0.04737,0.11811,0,0,180.0*
21,1,0.01968,0.14580,0,0,180.0*
1,1,0.02769,-0.00984,0.05906*
1,1,0.02769,0.00984,0.05906*
1,1,0.02769,0.00984,-0.05906*
1,1,0.02769,-0.00984,-0.05906*
%
%ADD45ROUNDEDRECTD45*%
%ADD46R,0.08280X0.05131*%
%ADD47R,0.11036X0.03556*%
%ADD48R,0.06312X0.13005*%
%ADD49R,0.06706X0.14186*%
%ADD50R,0.03950X0.03950*%
%ADD51R,0.07099X0.11036*%
%ADD52R,0.07099X0.12611*%
%ADD53R,0.10642X0.13202*%
%ADD54C,0.06706*%
G04:AMPARAMS|DCode=55|XSize=47.37mil|YSize=145.8mil|CornerRadius=13.84mil|HoleSize=0mil|Usage=FLASHONLY|Rotation=270.000|XOffset=0mil|YOffset=0mil|HoleType=Round|Shape=RoundedRectangle|*
%AMROUNDEDRECTD55*
21,1,0.04737,0.11811,0,0,270.0*
21,1,0.01968,0.14580,0,0,270.0*
1,1,0.02769,-0.05906,-0.00984*
1,1,0.02769,-0.05906,0.00984*
1,1,0.02769,0.05906,0.00984*
1,1,0.02769,0.05906,-0.00984*
%
%ADD55ROUNDEDRECTD55*%
%ADD56R,0.06902X0.10052*%
%ADD57R,0.14580X0.07099*%
%ADD58R,0.04343X0.02965*%
%ADD59R,0.17493X0.15800*%
%ADD60R,0.02965X0.04343*%
%ADD61R,0.03950X0.03950*%
G04:AMPARAMS|DCode=62|XSize=67.06mil|YSize=141.86mil|CornerRadius=11.38mil|HoleSize=0mil|Usage=FLASHONLY|Rotation=270.000|XOffset=0mil|YOffset=0mil|HoleType=Round|Shape=RoundedRectangle|*
%AMROUNDEDRECTD62*
21,1,0.06706,0.11909,0,0,270.0*
21,1,0.04429,0.14186,0,0,270.0*
1,1,0.02276,-0.05955,-0.02215*
1,1,0.02276,-0.05955,0.02215*
1,1,0.02276,0.05955,0.02215*
1,1,0.02276,0.05955,-0.02215*
%
%ADD62ROUNDEDRECTD62*%
%ADD63R,0.14800X0.06800*%
%ADD64R,0.06800X0.14800*%
G04:AMPARAMS|DCode=65|XSize=102.49mil|YSize=102.49mil|CornerRadius=27.62mil|HoleSize=0mil|Usage=FLASHONLY|Rotation=180.000|XOffset=0mil|YOffset=0mil|HoleType=Round|Shape=RoundedRectangle|*
%AMROUNDEDRECTD65*
21,1,0.10249,0.04724,0,0,180.0*
21,1,0.04724,0.10249,0,0,180.0*
1,1,0.05524,-0.02362,0.02362*
1,1,0.05524,0.02362,0.02362*
1,1,0.05524,0.02362,-0.02362*
1,1,0.05524,-0.02362,-0.02362*
%
%ADD65ROUNDEDRECTD65*%
%ADD66C,0.09068*%
%ADD67R,0.07099X0.07099*%
%ADD68C,0.07099*%
%ADD69C,0.06784*%
%ADD70R,0.06784X0.06784*%
%ADD71C,0.16548*%
%ADD72R,0.05950X0.05950*%
%ADD73C,0.05950*%
%ADD74C,0.06824*%
%ADD75R,0.06824X0.06824*%
%ADD76C,0.10249*%
G04:AMPARAMS|DCode=77|XSize=90.68mil|YSize=90.68mil|CornerRadius=24.67mil|HoleSize=0mil|Usage=FLASHONLY|Rotation=0.000|XOffset=0mil|YOffset=0mil|HoleType=Round|Shape=RoundedRectangle|*
%AMROUNDEDRECTD77*
21,1,0.09068,0.04134,0,0,0.0*
21,1,0.04134,0.09068,0,0,0.0*
1,1,0.04934,0.02067,-0.02067*
1,1,0.04934,-0.02067,-0.02067*
1,1,0.04934,-0.02067,0.02067*
1,1,0.04934,0.02067,0.02067*
%
%ADD77ROUNDEDRECTD77*%
%ADD78C,0.03950*%
%ADD79C,0.04737*%
%ADD80C,0.03398*%
G36*
X0159174Y0097159D02*
X0159174Y0096234D01*
X0158932Y0094401D01*
X0158454Y0092615D01*
X0157746Y0090906D01*
X0156821Y0089305D01*
X0155696Y0087838D01*
X0154388Y008653D01*
X0152921Y0085404D01*
X0151319Y008448D01*
X0149611Y0083772D01*
X0147825Y0083293D01*
X0145991Y0083052D01*
X0145067D01*
X0144133Y0083052D01*
X0142283Y0083295D01*
X014048Y0083778D01*
X0138756Y0084492D01*
X0137139Y0085425D01*
X0135658Y0086561D01*
X0134338Y008788D01*
X0133202Y0089361D01*
X0132269Y0090977D01*
X0131554Y0092702D01*
X0131071Y0094504D01*
X0130827Y0096355D01*
X0130827Y0097288D01*
X0130827Y0098216D01*
X013107Y0100055D01*
X0131551Y0101847D01*
X0132263Y010356D01*
X0133193Y0105165D01*
X0134326Y0106635D01*
X0135641Y0107943D01*
X0137116Y0109069D01*
X0138725Y0109991D01*
X0140442Y0110695D01*
X0142236Y0111168D01*
X0144076Y0111403D01*
X0145004Y0111398D01*
X0145934Y0111394D01*
X0147778Y0111142D01*
X0149573Y0110653D01*
X015129Y0109935D01*
X0152898Y0108999D01*
X0154371Y0107862D01*
X0155684Y0106544D01*
X0156813Y0105065D01*
X0157741Y0103452D01*
X0158451Y0101732D01*
X0158931Y0099934D01*
X0159174Y0098089D01*
X0159174Y0097159D01*
D01*
D02*
G37*
G36*
Y0452713D02*
X0159174Y0451789D01*
X0158932Y0449955D01*
X0158454Y0448169D01*
X0157746Y044646D01*
X0156821Y0444859D01*
X0155696Y0443392D01*
X0154388Y0442084D01*
X0152921Y0440959D01*
X0151319Y0440034D01*
X0149611Y0439326D01*
X0147825Y0438848D01*
X0145991Y0438606D01*
X0145067D01*
X0144133Y0438606D01*
X0142283Y0438849D01*
X014048Y0439332D01*
X0138756Y0440046D01*
X0137139Y0440979D01*
X0135658Y0442115D01*
X0134338Y0443435D01*
X0133202Y0444915D01*
X0132269Y0446532D01*
X0131554Y0448256D01*
X0131071Y0450059D01*
X0130827Y0451909D01*
X0130827Y0452842D01*
X0130827Y045377D01*
X013107Y0455609D01*
X0131551Y0457401D01*
X0132263Y0459114D01*
X0133193Y0460719D01*
X0134326Y0462189D01*
X0135641Y0463498D01*
X0137116Y0464623D01*
X0138725Y0465546D01*
X0140442Y046625D01*
X0142236Y0466723D01*
X0144076Y0466957D01*
X0145004Y0466953D01*
X0145934Y0466948D01*
X0147778Y0466697D01*
X0149573Y0466208D01*
X015129Y0465489D01*
X0152898Y0464554D01*
X0154371Y0463417D01*
X0155684Y0462098D01*
X0156813Y0460619D01*
X0157741Y0459006D01*
X0158451Y0457286D01*
X0158931Y0455488D01*
X0159174Y0453644D01*
X0159174Y0452713D01*
D01*
D02*
G37*
G36*
X0391493Y0097159D02*
X0391493Y0096234D01*
X0391251Y0094401D01*
X0390773Y0092615D01*
X0390065Y0090906D01*
X038914Y0089305D01*
X0388015Y0087838D01*
X0386707Y008653D01*
X038524Y0085404D01*
X0383638Y008448D01*
X038193Y0083772D01*
X0380144Y0083293D01*
X037831Y0083052D01*
X0377386D01*
X0376452Y0083052D01*
X0374602Y0083295D01*
X0372799Y0083778D01*
X0371075Y0084492D01*
X0369458Y0085425D01*
X0367977Y0086561D01*
X0366657Y008788D01*
X0365521Y0089361D01*
X0364587Y0090977D01*
X0363873Y0092702D01*
X036339Y0094504D01*
X0363146Y0096355D01*
X0363145Y0097288D01*
X0363145Y0098216D01*
X0363388Y0100055D01*
X036387Y0101847D01*
X0364582Y010356D01*
X0365512Y0105165D01*
X0366644Y0106635D01*
X0367959Y0107943D01*
X0369434Y0109069D01*
X0371044Y0109991D01*
X0372761Y0110695D01*
X0374554Y0111168D01*
X0376395Y0111403D01*
X0377323Y0111398D01*
X0378253Y0111394D01*
X0380097Y0111142D01*
X0381892Y0110653D01*
X0383609Y0109935D01*
X0385217Y0108999D01*
X038669Y0107862D01*
X0388003Y0106544D01*
X0389132Y0105065D01*
X039006Y0103452D01*
X039077Y0101732D01*
X039125Y0099934D01*
X0391492Y0098089D01*
X0391493Y0097159D01*
D01*
D02*
G37*
G36*
Y0440723D02*
X0391493Y0439798D01*
X0391251Y0437965D01*
X0390773Y0436178D01*
X0390065Y043447D01*
X038914Y0432868D01*
X0388015Y0431401D01*
X0386707Y0430094D01*
X038524Y0428968D01*
X0383638Y0428043D01*
X038193Y0427336D01*
X0380144Y0426857D01*
X037831Y0426616D01*
X0377386D01*
X0376452Y0426616D01*
X0374602Y0426859D01*
X0372799Y0427342D01*
X0371075Y0428056D01*
X0369458Y0428989D01*
X0367977Y0430125D01*
X0366657Y0431444D01*
X0365521Y0432925D01*
X0364587Y0434541D01*
X0363873Y0436265D01*
X036339Y0438068D01*
X0363146Y0439918D01*
X0363145Y0440852D01*
X0363145Y0441779D01*
X0363388Y0443619D01*
X036387Y044541D01*
X0364582Y0447123D01*
X0365512Y0448729D01*
X0366644Y0450198D01*
X0367959Y0451507D01*
X0369434Y0452633D01*
X0371044Y0453555D01*
X0372761Y0454259D01*
X0374554Y0454732D01*
X0376395Y0454966D01*
X0377323Y0454962D01*
X0378253Y0454957D01*
X0380097Y0454706D01*
X0381892Y0454217D01*
X0383609Y0453499D01*
X0385217Y0452563D01*
X038669Y0451426D01*
X0388003Y0450107D01*
X0389132Y0448629D01*
X039006Y0447016D01*
X039077Y0445296D01*
X039125Y0443498D01*
X0391492Y0441653D01*
X0391493Y0440723D01*
D01*
D02*
G37*
G36*
X0535772Y0452713D02*
X0535772Y0451789D01*
X0535531Y0449955D01*
X0535052Y0448169D01*
X0534344Y044646D01*
X053342Y0444859D01*
X0532294Y0443392D01*
X0530986Y0442084D01*
X0529519Y0440959D01*
X0527918Y0440034D01*
X0526209Y0439326D01*
X0524423Y0438848D01*
X052259Y0438606D01*
X0521665D01*
X0520732Y0438606D01*
X0518882Y0438849D01*
X0517079Y0439332D01*
X0515354Y0440046D01*
X0513738Y0440979D01*
X0512257Y0442115D01*
X0510937Y0443435D01*
X05098Y0444915D01*
X0508867Y0446532D01*
X0508152Y0448256D01*
X0507669Y0450059D01*
X0507425Y0451909D01*
X0507425Y0452842D01*
X0507425Y045377D01*
X0507668Y0455609D01*
X0508149Y0457401D01*
X0508861Y0459114D01*
X0509792Y0460719D01*
X0510924Y0462189D01*
X0512239Y0463498D01*
X0513714Y0464623D01*
X0515323Y0465546D01*
X051704Y046625D01*
X0518834Y0466723D01*
X0520675Y0466957D01*
X0521602Y0466953D01*
X0522533Y0466948D01*
X0524376Y0466697D01*
X0526172Y0466208D01*
X0527888Y0465489D01*
X0529496Y0464554D01*
X0530969Y0463417D01*
X0532282Y0462098D01*
X0533412Y0460619D01*
X053434Y0459006D01*
X053505Y0457286D01*
X053553Y0455488D01*
X0535772Y0453644D01*
X0535772Y0452713D01*
D01*
D02*
G37*
D42*
X0161198Y0200289D02*
D03*
Y0216037D02*
D03*
Y0223911D02*
D03*
Y0208163D02*
D03*
X0161298Y0160137D02*
D03*
Y0168011D02*
D03*
Y0152263D02*
D03*
Y0144389D02*
D03*
X0509887Y0276584D02*
D03*
X0508Y0187748D02*
D03*
Y0179874D02*
D03*
Y0172D02*
D03*
X05094Y02251D02*
D03*
Y0232974D02*
D03*
Y0240848D02*
D03*
X0509887Y0292332D02*
D03*
Y0284457D02*
D03*
D43*
X0138954Y0191234D02*
D03*
Y0232966D02*
D03*
X0139054Y0135334D02*
D03*
Y0177066D02*
D03*
X0530244Y0162945D02*
D03*
Y0196803D02*
D03*
X0531644Y0249903D02*
D03*
Y0216045D02*
D03*
X0532131Y0267528D02*
D03*
Y0301387D02*
D03*
D44*
X0203646Y0087362D02*
D03*
X017648D02*
D03*
X0284769Y0087562D02*
D03*
X0311934D02*
D03*
X0248635Y00879D02*
D03*
X02758D02*
D03*
X0212056Y0087536D02*
D03*
X0239221D02*
D03*
D45*
X0186126Y011D02*
D03*
X0194D02*
D03*
X0302289Y01102D02*
D03*
X0294415D02*
D03*
X0266154Y0110538D02*
D03*
X025828D02*
D03*
X0229576Y0110174D02*
D03*
X0221702D02*
D03*
D46*
X014113Y0244712D02*
D03*
Y0313216D02*
D03*
D47*
X01555Y0270106D02*
D03*
Y0276011D02*
D03*
Y0293728D02*
D03*
Y0299633D02*
D03*
Y0305539D02*
D03*
Y0287822D02*
D03*
Y0281916D02*
D03*
Y02642D02*
D03*
Y0258295D02*
D03*
Y0252389D02*
D03*
D48*
X03548Y00876D02*
D03*
X0320942D02*
D03*
X0399268Y0089173D02*
D03*
X0433126D02*
D03*
D49*
X0329997Y0109844D02*
D03*
X0337871D02*
D03*
X0345745D02*
D03*
X0424071Y0111417D02*
D03*
X0416197D02*
D03*
X0408323D02*
D03*
D50*
X0401088Y0392818D02*
D03*
X0416938D02*
D03*
X0432788D02*
D03*
X0407387D02*
D03*
X0423237D02*
D03*
X0439087D02*
D03*
D51*
X02443Y0434787D02*
D03*
X05264Y0421378D02*
D03*
X02443Y0420613D02*
D03*
X05264Y0407205D02*
D03*
D52*
X02219Y04386D02*
D03*
X03208Y0434461D02*
D03*
X03453Y04344D02*
D03*
X02219Y0421277D02*
D03*
X03208Y0417139D02*
D03*
X03453Y0417077D02*
D03*
D53*
X0202054Y0435424D02*
D03*
X0299Y04325D02*
D03*
X0173708Y0435424D02*
D03*
X0270654Y04325D02*
D03*
D54*
X0252Y04519D02*
D03*
X02518Y04632D02*
D03*
X047Y03928D02*
D03*
X0155092Y042506D02*
D03*
X04215Y04362D02*
D03*
Y04274D02*
D03*
X04115Y04362D02*
D03*
Y04274D02*
D03*
D55*
X0508902Y0332718D02*
D03*
Y0377676D02*
D03*
Y0324844D02*
D03*
Y0369801D02*
D03*
D56*
X04677Y0435098D02*
D03*
Y04225D02*
D03*
D57*
X0506924Y04214D02*
D03*
X0484876D02*
D03*
D58*
X0496Y0117D02*
D03*
Y0111291D02*
D03*
X0517172Y0107D02*
D03*
Y0101291D02*
D03*
X05266Y0131417D02*
D03*
Y0137126D02*
D03*
D59*
X0272426Y046D02*
D03*
X02983D02*
D03*
D60*
X0417529Y0399418D02*
D03*
X0423237D02*
D03*
X0433379D02*
D03*
X0439087D02*
D03*
X0401679D02*
D03*
X0407387D02*
D03*
X05065Y00841D02*
D03*
X0500791D02*
D03*
D61*
X05339Y0131417D02*
D03*
Y0137716D02*
D03*
D62*
X053154Y0342364D02*
D03*
Y0315198D02*
D03*
Y0387321D02*
D03*
Y0360156D02*
D03*
D63*
X04507Y0437641D02*
D03*
Y04211D02*
D03*
D64*
X0174Y04587D02*
D03*
X0190541D02*
D03*
D65*
X049Y0453852D02*
D03*
X0340186Y046D02*
D03*
X02271D02*
D03*
D66*
X04265Y045285D02*
D03*
D67*
X04763Y01023D02*
D03*
Y01147D02*
D03*
Y00899D02*
D03*
D68*
X04663Y01023D02*
D03*
X04563D02*
D03*
X04663Y01147D02*
D03*
X04563D02*
D03*
X04663Y00899D02*
D03*
X04563D02*
D03*
D69*
X05065Y0117D02*
D03*
Y0107D02*
D03*
Y0127D02*
D03*
Y0137D02*
D03*
Y0147D02*
D03*
D70*
Y0097D02*
D03*
D71*
X0377319Y0097225D02*
D03*
Y0440789D02*
D03*
X0145Y0452779D02*
D03*
Y0097225D02*
D03*
X0521598Y0452779D02*
D03*
D72*
X04362Y0259826D02*
D03*
D73*
Y0275574D02*
D03*
D74*
X0221069Y0140437D02*
D03*
X0191068D02*
D03*
X0201068D02*
D03*
Y0150437D02*
D03*
X0211069Y0140437D02*
D03*
Y0150437D02*
D03*
X0221069D02*
D03*
X0231068Y0140437D02*
D03*
Y0150437D02*
D03*
X0241069Y0140437D02*
D03*
Y0150437D02*
D03*
X0251068Y0140437D02*
D03*
Y0150437D02*
D03*
X0261069Y0140437D02*
D03*
Y0150437D02*
D03*
X0271069Y0140437D02*
D03*
Y0150437D02*
D03*
X0281068Y0140437D02*
D03*
Y0150437D02*
D03*
X0291069Y0140437D02*
D03*
Y0150437D02*
D03*
X0301068Y0140437D02*
D03*
Y0150437D02*
D03*
X0311069Y0140437D02*
D03*
Y0150437D02*
D03*
X0321069Y0140437D02*
D03*
Y0150437D02*
D03*
X0331068Y0140437D02*
D03*
Y0150437D02*
D03*
X0341069Y0140437D02*
D03*
Y0150437D02*
D03*
X0351068Y0140437D02*
D03*
Y0150437D02*
D03*
X0361069Y0140437D02*
D03*
Y0150437D02*
D03*
X0371069Y0140437D02*
D03*
X0191068Y0150437D02*
D03*
Y0380437D02*
D03*
X0201068D02*
D03*
Y0390437D02*
D03*
X0211069Y0380437D02*
D03*
Y0390437D02*
D03*
X0221069Y0380437D02*
D03*
Y0390437D02*
D03*
X0231068Y0380437D02*
D03*
Y0390437D02*
D03*
X0241069Y0380437D02*
D03*
Y0390437D02*
D03*
X0251068Y0380437D02*
D03*
Y0390437D02*
D03*
X0261069Y0380437D02*
D03*
Y0390437D02*
D03*
X0271069Y0380437D02*
D03*
Y0390437D02*
D03*
X0281068Y0380437D02*
D03*
Y0390437D02*
D03*
X0291069Y0380437D02*
D03*
Y0390437D02*
D03*
X0301068Y0380437D02*
D03*
Y0390437D02*
D03*
X0311069Y0380437D02*
D03*
Y0390437D02*
D03*
X0321069Y0380437D02*
D03*
Y0390437D02*
D03*
X0331068Y0380437D02*
D03*
Y0390437D02*
D03*
X0341069Y0380437D02*
D03*
Y0390437D02*
D03*
X0351068Y0380437D02*
D03*
Y0390437D02*
D03*
X0361069Y0380437D02*
D03*
Y0390437D02*
D03*
X0371069Y0380437D02*
D03*
X0191068Y0390437D02*
D03*
D75*
X0371069Y0150437D02*
D03*
Y0390437D02*
D03*
D76*
X047Y0453852D02*
D03*
X0320186Y046D02*
D03*
X02071D02*
D03*
D77*
X04115Y045285D02*
D03*
D78*
X029126Y0356773D02*
D03*
X03014Y03587D02*
D03*
X01508Y02403D02*
D03*
X02008Y02005D02*
D03*
X0132088Y03543D02*
D03*
X0205Y01894D02*
D03*
X02093Y01933D02*
D03*
X02219Y01005D02*
D03*
X03025Y00986D02*
D03*
X0186013Y0099013D02*
D03*
X01939Y00991D02*
D03*
X02785Y0121562D02*
D03*
X02844Y01003D02*
D03*
X02363Y0107D02*
D03*
X0235Y045D02*
D03*
X025Y044D02*
D03*
X0255Y043D02*
D03*
Y0445D02*
D03*
X0305D02*
D03*
X0315D02*
D03*
X0325D02*
D03*
X0335D02*
D03*
X0355Y043D02*
D03*
Y044D02*
D03*
X042Y046D02*
D03*
X043D02*
D03*
X0425Y0465D02*
D03*
X0435Y0425D02*
D03*
Y0435D02*
D03*
Y0445D02*
D03*
Y0455D02*
D03*
X044Y045D02*
D03*
X0445Y0455D02*
D03*
X02005Y02294D02*
D03*
X0210097Y0221203D02*
D03*
X02171Y0225D02*
D03*
X02091Y02084D02*
D03*
X02136Y02131D02*
D03*
X02179Y02173D02*
D03*
X01901Y02292D02*
D03*
X02048Y02043D02*
D03*
X02181Y02024D02*
D03*
X0214Y01974D02*
D03*
X0174Y01243D02*
D03*
X02007Y01858D02*
D03*
X01854Y02449D02*
D03*
X02119Y03714D02*
D03*
X02255Y03757D02*
D03*
X01509Y01876D02*
D03*
X0173Y02026D02*
D03*
X01407Y02274D02*
D03*
X01329Y03796D02*
D03*
X024265Y044395D02*
D03*
X018Y02043D02*
D03*
X018Y01947D02*
D03*
X01902Y02207D02*
D03*
X03092Y01188D02*
D03*
X03202Y0124188D02*
D03*
X03432Y01294D02*
D03*
X03462Y01351D02*
D03*
X0414763Y0357763D02*
D03*
X04539Y02511D02*
D03*
X04147Y03489D02*
D03*
X04458Y02996D02*
D03*
X04529Y02931D02*
D03*
X0275Y03712D02*
D03*
X03209Y0365D02*
D03*
X04501Y03231D02*
D03*
X03459Y00998D02*
D03*
X04943Y00886D02*
D03*
X01733Y022D02*
D03*
X0148Y02347D02*
D03*
X01963Y01247D02*
D03*
X0206Y01221D02*
D03*
X01821Y01185D02*
D03*
X01822Y01245D02*
D03*
X01442Y02003D02*
D03*
X01478Y02158D02*
D03*
X0148Y02081D02*
D03*
X03162Y01208D02*
D03*
X02608Y01332D02*
D03*
X02475Y01243D02*
D03*
X0310984Y0170016D02*
D03*
X01509Y01825D02*
D03*
X03812Y01376D02*
D03*
X03813Y01845D02*
D03*
X03855Y0181D02*
D03*
X03508Y01206D02*
D03*
X03629Y0124D02*
D03*
X02945Y01665D02*
D03*
X02752Y01692D02*
D03*
X027Y0162D02*
D03*
X02635Y01575D02*
D03*
X03214Y0169937D02*
D03*
X03639Y04045D02*
D03*
X0481Y0247D02*
D03*
X0486Y0243D02*
D03*
X04915Y0225D02*
D03*
Y02325D02*
D03*
X05Y046D02*
D03*
X045D02*
D03*
X044D02*
D03*
X035Y0465D02*
D03*
X039D02*
D03*
X038D02*
D03*
X037D02*
D03*
X036D02*
D03*
X0155Y0435D02*
D03*
X0435Y0465D02*
D03*
X0445D02*
D03*
X0455D02*
D03*
X0465D02*
D03*
X0475D02*
D03*
X0485D02*
D03*
X0495D02*
D03*
X0505D02*
D03*
X0515Y043D02*
D03*
X0495D02*
D03*
X0505D02*
D03*
Y044D02*
D03*
X0495D02*
D03*
X0485D02*
D03*
X0505Y039D02*
D03*
X0495D02*
D03*
X0485D02*
D03*
X0475D02*
D03*
X048Y0395D02*
D03*
Y0385D02*
D03*
X049D02*
D03*
X05203Y03327D02*
D03*
X0155Y0415D02*
D03*
X0495Y034D02*
D03*
X0505D02*
D03*
X0515D02*
D03*
Y035D02*
D03*
X0505D02*
D03*
X0495D02*
D03*
Y036D02*
D03*
X0505D02*
D03*
X0515D02*
D03*
X05Y0385D02*
D03*
Y0395D02*
D03*
X049D02*
D03*
X052Y0435D02*
D03*
X051D02*
D03*
X05Y0445D02*
D03*
Y0435D02*
D03*
X049D02*
D03*
X048D02*
D03*
Y0445D02*
D03*
X049D02*
D03*
X0535Y033D02*
D03*
Y035D02*
D03*
Y0375D02*
D03*
Y0395D02*
D03*
Y0405D02*
D03*
Y0415D02*
D03*
Y0425D02*
D03*
Y0435D02*
D03*
X0145Y043D02*
D03*
Y042D02*
D03*
Y041D02*
D03*
X0135Y0395D02*
D03*
Y0405D02*
D03*
Y0415D02*
D03*
Y0425D02*
D03*
Y0435D02*
D03*
X052635Y043195D02*
D03*
X05207Y03775D02*
D03*
X04765Y02539D02*
D03*
X05098Y02679D02*
D03*
X04979Y0172D02*
D03*
X04777Y01258D02*
D03*
X023Y042D02*
D03*
X05262Y0118D02*
D03*
X05264Y01427D02*
D03*
X05228Y01014D02*
D03*
X05217Y01717D02*
D03*
X0496Y01056D02*
D03*
X04241Y01006D02*
D03*
X04162Y01007D02*
D03*
X02761Y04045D02*
D03*
X027Y042D02*
D03*
X0275Y0415D02*
D03*
X028Y042D02*
D03*
X0285Y0415D02*
D03*
X029Y042D02*
D03*
X0295Y0415D02*
D03*
X03Y042D02*
D03*
X0305Y0415D02*
D03*
X031Y042D02*
D03*
X0315Y0415D02*
D03*
X033Y042D02*
D03*
X0335Y0415D02*
D03*
X034Y042D02*
D03*
X0355D02*
D03*
X036Y0415D02*
D03*
X0365Y042D02*
D03*
X037Y0415D02*
D03*
X0375Y042D02*
D03*
X038Y0415D02*
D03*
X0385Y042D02*
D03*
X039Y0415D02*
D03*
X0395Y042D02*
D03*
X0175Y0425D02*
D03*
X0205D02*
D03*
X02Y042D02*
D03*
X018D02*
D03*
X0185Y0425D02*
D03*
X025Y042D02*
D03*
Y0425D02*
D03*
X0235D02*
D03*
Y042D02*
D03*
X023Y0425D02*
D03*
X0215D02*
D03*
X021Y042D02*
D03*
X0195Y0425D02*
D03*
X019Y042D02*
D03*
X04815Y03134D02*
D03*
X0497149Y0369851D02*
D03*
X04765Y03378D02*
D03*
X05225Y02842D02*
D03*
X0522534Y0292266D02*
D03*
X02973Y01578D02*
D03*
X046Y0415D02*
D03*
X047D02*
D03*
X05Y0405D02*
D03*
X049D02*
D03*
X046D02*
D03*
X047D02*
D03*
X048Y0415D02*
D03*
Y0405D02*
D03*
D79*
X04875Y01973D02*
D03*
X0497528Y0324872D02*
D03*
X04313Y04146D02*
D03*
D80*
X038165Y0086792D02*
D03*
X0366886Y0092895D02*
D03*
X0372988Y0107658D02*
D03*
X0387752Y0101556D02*
D03*
X0366886D02*
D03*
X038165Y0107658D02*
D03*
X0387752Y0092895D02*
D03*
X0372988Y0086792D02*
D03*
Y0430356D02*
D03*
X0387752Y0436458D02*
D03*
X038165Y0451222D02*
D03*
X0366886Y044512D02*
D03*
X0387752D02*
D03*
X0372988Y0451222D02*
D03*
X0366886Y0436458D02*
D03*
X038165Y0430356D02*
D03*
X0140669Y0442346D02*
D03*
X0155433Y0448449D02*
D03*
X0149331Y0463213D02*
D03*
X0134567Y045711D02*
D03*
X0155433D02*
D03*
X0140669Y0463213D02*
D03*
X0134567Y0448449D02*
D03*
X0149331Y0442346D02*
D03*
X0140669Y0086792D02*
D03*
X0155433Y0092895D02*
D03*
X0149331Y0107658D02*
D03*
X0134567Y0101556D02*
D03*
X0155433D02*
D03*
X0140669Y0107658D02*
D03*
X0134567Y0092895D02*
D03*
X0149331Y0086792D02*
D03*
X0517268Y0442346D02*
D03*
X0532031Y0448449D02*
D03*
X0525929Y0463213D02*
D03*
X0511165Y045711D02*
D03*
X0532031D02*
D03*
X0517268Y0463213D02*
D03*
X0511165Y0448449D02*
D03*
X0525929Y0442346D02*
D03*
M02*
