G04*
G04 #@! TF.GenerationSoftware,Altium Limited,Altium Designer,21.3.2 (30)*
G04*
G04 Layer_Color=128*
%FSTAX25Y25*%
%MOIN*%
G70*
G04*
G04 #@! TF.SameCoordinates,EB2CAA8E-72F9-4FA4-A601-E6806EDF6347*
G04*
G04*
G04 #@! TF.FilePolarity,Positive*
G04*
G01*
G75*
%ADD118C,0.00200*%
D118*
X0420122Y04362D02*
X0422878D01*
X04215Y0434822D02*
Y0437578D01*
X0420122Y04274D02*
X0422878D01*
X04215Y0426022D02*
Y0428778D01*
X048685Y0453852D02*
X049315D01*
X049Y0450702D02*
Y0457002D01*
X0423744Y045285D02*
X0429256D01*
X04265Y0450094D02*
Y0455606D01*
X0337036Y046D02*
X0343335D01*
X0340186Y045685D02*
Y046315D01*
X022395Y046D02*
X023025D01*
X02271Y045685D02*
Y046315D01*
X0474135Y01023D02*
X0478465D01*
X04763Y0100135D02*
Y0104465D01*
X0464135Y01023D02*
X0468465D01*
X04663Y0100135D02*
Y0104465D01*
X0454135Y01023D02*
X0458465D01*
X04563Y0100135D02*
Y0104465D01*
X0474135Y01147D02*
X0478465D01*
X04763Y0112535D02*
Y0116865D01*
X0464135Y01147D02*
X0468465D01*
X04663Y0112535D02*
Y0116865D01*
X0454135Y01147D02*
X0458465D01*
X04563Y0112535D02*
Y0116865D01*
X0474135Y00899D02*
X0478465D01*
X04763Y0087735D02*
Y0092065D01*
X0464135Y00899D02*
X0468465D01*
X04663Y0087735D02*
Y0092065D01*
X0454135Y00899D02*
X0458465D01*
X04563Y0087735D02*
Y0092065D01*
X0504492Y0117D02*
X0508508D01*
X05065Y0114992D02*
Y0119008D01*
X0504492Y0097D02*
X0508508D01*
X05065Y0094992D02*
Y0099008D01*
X0504492Y0107D02*
X0508508D01*
X05065Y0104992D02*
Y0109008D01*
X0504492Y0127D02*
X0508508D01*
X05065Y0124992D02*
Y0129008D01*
X0504492Y0137D02*
X0508508D01*
X05065Y0134992D02*
Y0139008D01*
X0504492Y0147D02*
X0508508D01*
X05065Y0144992D02*
Y0149008D01*
X0410122Y04362D02*
X0412878D01*
X04115Y0434822D02*
Y0437578D01*
X0410122Y04274D02*
X0412878D01*
X04115Y0426022D02*
Y0428778D01*
X037102Y0097225D02*
X0383618D01*
X0377319Y0090926D02*
Y0103524D01*
X037102Y0440789D02*
X0383618D01*
X0377319Y043449D02*
Y0447088D01*
X0138701Y0452779D02*
X0151299D01*
X0145Y044648D02*
Y0459079D01*
X0434625Y0259826D02*
X0437775D01*
X04362Y0258251D02*
Y0261401D01*
X0434625Y0275574D02*
X0437775D01*
X04362Y0273999D02*
Y0277149D01*
X0219061Y0140437D02*
X0223076D01*
X0221069Y0138429D02*
Y0142445D01*
X0189061Y0140437D02*
X0193076D01*
X0191068Y0138429D02*
Y0142445D01*
X0199061Y0140437D02*
X0203076D01*
X0201068Y0138429D02*
Y0142445D01*
X0199061Y0150437D02*
X0203076D01*
X0201068Y0148429D02*
Y0152445D01*
X0209061Y0140437D02*
X0213076D01*
X0211069Y0138429D02*
Y0142445D01*
X0209061Y0150437D02*
X0213076D01*
X0211069Y0148429D02*
Y0152445D01*
X0219061Y0150437D02*
X0223076D01*
X0221069Y0148429D02*
Y0152445D01*
X0229061Y0140437D02*
X0233076D01*
X0231068Y0138429D02*
Y0142445D01*
X0229061Y0150437D02*
X0233076D01*
X0231068Y0148429D02*
Y0152445D01*
X0239061Y0140437D02*
X0243076D01*
X0241069Y0138429D02*
Y0142445D01*
X0239061Y0150437D02*
X0243076D01*
X0241069Y0148429D02*
Y0152445D01*
X0249061Y0140437D02*
X0253076D01*
X0251068Y0138429D02*
Y0142445D01*
X0249061Y0150437D02*
X0253076D01*
X0251068Y0148429D02*
Y0152445D01*
X0259061Y0140437D02*
X0263076D01*
X0261069Y0138429D02*
Y0142445D01*
X0259061Y0150437D02*
X0263076D01*
X0261069Y0148429D02*
Y0152445D01*
X0269061Y0140437D02*
X0273076D01*
X0271069Y0138429D02*
Y0142445D01*
X0269061Y0150437D02*
X0273076D01*
X0271069Y0148429D02*
Y0152445D01*
X0279061Y0140437D02*
X0283076D01*
X0281068Y0138429D02*
Y0142445D01*
X0279061Y0150437D02*
X0283076D01*
X0281068Y0148429D02*
Y0152445D01*
X0289061Y0140437D02*
X0293076D01*
X0291069Y0138429D02*
Y0142445D01*
X0289061Y0150437D02*
X0293076D01*
X0291069Y0148429D02*
Y0152445D01*
X0299061Y0140437D02*
X0303076D01*
X0301068Y0138429D02*
Y0142445D01*
X0299061Y0150437D02*
X0303076D01*
X0301068Y0148429D02*
Y0152445D01*
X0309061Y0140437D02*
X0313076D01*
X0311069Y0138429D02*
Y0142445D01*
X0309061Y0150437D02*
X0313076D01*
X0311069Y0148429D02*
Y0152445D01*
X0319061Y0140437D02*
X0323076D01*
X0321069Y0138429D02*
Y0142445D01*
X0319061Y0150437D02*
X0323076D01*
X0321069Y0148429D02*
Y0152445D01*
X0329061Y0140437D02*
X0333076D01*
X0331068Y0138429D02*
Y0142445D01*
X0329061Y0150437D02*
X0333076D01*
X0331068Y0148429D02*
Y0152445D01*
X0339061Y0140437D02*
X0343076D01*
X0341069Y0138429D02*
Y0142445D01*
X0339061Y0150437D02*
X0343076D01*
X0341069Y0148429D02*
Y0152445D01*
X0349061Y0140437D02*
X0353076D01*
X0351068Y0138429D02*
Y0142445D01*
X0349061Y0150437D02*
X0353076D01*
X0351068Y0148429D02*
Y0152445D01*
X0359061Y0140437D02*
X0363076D01*
X0361069Y0138429D02*
Y0142445D01*
X0359061Y0150437D02*
X0363076D01*
X0361069Y0148429D02*
Y0152445D01*
X0369061Y0140437D02*
X0373076D01*
X0371069Y0138429D02*
Y0142445D01*
X0189061Y0150437D02*
X0193076D01*
X0191068Y0148429D02*
Y0152445D01*
X0369061Y0150437D02*
X0373076D01*
X0371069Y0148429D02*
Y0152445D01*
X0189061Y0380437D02*
X0193076D01*
X0191068Y0378429D02*
Y0382445D01*
X0199061Y0380437D02*
X0203076D01*
X0201068Y0378429D02*
Y0382445D01*
X0199061Y0390437D02*
X0203076D01*
X0201068Y0388429D02*
Y0392445D01*
X0209061Y0380437D02*
X0213076D01*
X0211069Y0378429D02*
Y0382445D01*
X0209061Y0390437D02*
X0213076D01*
X0211069Y0388429D02*
Y0392445D01*
X0219061Y0380437D02*
X0223076D01*
X0221069Y0378429D02*
Y0382445D01*
X0219061Y0390437D02*
X0223076D01*
X0221069Y0388429D02*
Y0392445D01*
X0229061Y0380437D02*
X0233076D01*
X0231068Y0378429D02*
Y0382445D01*
X0229061Y0390437D02*
X0233076D01*
X0231068Y0388429D02*
Y0392445D01*
X0239061Y0380437D02*
X0243076D01*
X0241069Y0378429D02*
Y0382445D01*
X0239061Y0390437D02*
X0243076D01*
X0241069Y0388429D02*
Y0392445D01*
X0249061Y0380437D02*
X0253076D01*
X0251068Y0378429D02*
Y0382445D01*
X0249061Y0390437D02*
X0253076D01*
X0251068Y0388429D02*
Y0392445D01*
X0259061Y0380437D02*
X0263076D01*
X0261069Y0378429D02*
Y0382445D01*
X0259061Y0390437D02*
X0263076D01*
X0261069Y0388429D02*
Y0392445D01*
X0269061Y0380437D02*
X0273076D01*
X0271069Y0378429D02*
Y0382445D01*
X0269061Y0390437D02*
X0273076D01*
X0271069Y0388429D02*
Y0392445D01*
X0279061Y0380437D02*
X0283076D01*
X0281068Y0378429D02*
Y0382445D01*
X0279061Y0390437D02*
X0283076D01*
X0281068Y0388429D02*
Y0392445D01*
X0289061Y0380437D02*
X0293076D01*
X0291069Y0378429D02*
Y0382445D01*
X0289061Y0390437D02*
X0293076D01*
X0291069Y0388429D02*
Y0392445D01*
X0299061Y0380437D02*
X0303076D01*
X0301068Y0378429D02*
Y0382445D01*
X0299061Y0390437D02*
X0303076D01*
X0301068Y0388429D02*
Y0392445D01*
X0309061Y0380437D02*
X0313076D01*
X0311069Y0378429D02*
Y0382445D01*
X0309061Y0390437D02*
X0313076D01*
X0311069Y0388429D02*
Y0392445D01*
X0319061Y0380437D02*
X0323076D01*
X0321069Y0378429D02*
Y0382445D01*
X0319061Y0390437D02*
X0323076D01*
X0321069Y0388429D02*
Y0392445D01*
X0329061Y0380437D02*
X0333076D01*
X0331068Y0378429D02*
Y0382445D01*
X0329061Y0390437D02*
X0333076D01*
X0331068Y0388429D02*
Y0392445D01*
X0339061Y0380437D02*
X0343076D01*
X0341069Y0378429D02*
Y0382445D01*
X0339061Y0390437D02*
X0343076D01*
X0341069Y0388429D02*
Y0392445D01*
X0349061Y0380437D02*
X0353076D01*
X0351068Y0378429D02*
Y0382445D01*
X0349061Y0390437D02*
X0353076D01*
X0351068Y0388429D02*
Y0392445D01*
X0359061Y0380437D02*
X0363076D01*
X0361069Y0378429D02*
Y0382445D01*
X0359061Y0390437D02*
X0363076D01*
X0361069Y0388429D02*
Y0392445D01*
X0369061Y0380437D02*
X0373076D01*
X0371069Y0378429D02*
Y0382445D01*
X0189061Y0390437D02*
X0193076D01*
X0191068Y0388429D02*
Y0392445D01*
X0369061Y0390437D02*
X0373076D01*
X0371069Y0388429D02*
Y0392445D01*
X046685Y0453852D02*
X047315D01*
X047Y0450702D02*
Y0457002D01*
X0408744Y045285D02*
X0414256D01*
X04115Y0450094D02*
Y0455606D01*
X0317036Y046D02*
X0323335D01*
X0320186Y045685D02*
Y046315D01*
X020395Y046D02*
X021025D01*
X02071Y045685D02*
Y046315D01*
X0138701Y0097225D02*
X0151299D01*
X0145Y0090926D02*
Y0103524D01*
X0515299Y0452779D02*
X0527898D01*
X0521598Y044648D02*
Y0459079D01*
X0290472Y0356773D02*
X0292047D01*
X029126Y0355985D02*
Y035756D01*
X0300613Y03587D02*
X0302187D01*
X03014Y0357913D02*
Y0359487D01*
X0150013Y02403D02*
X0151587D01*
X01508Y0239513D02*
Y0241087D01*
X0200013Y02005D02*
X0201587D01*
X02008Y0199713D02*
Y0201287D01*
X01313Y03543D02*
X0132875D01*
X0132088Y0353513D02*
Y0355087D01*
X0204213Y01894D02*
X0205787D01*
X0205Y0188613D02*
Y0190187D01*
X0208513Y01933D02*
X0210087D01*
X02093Y0192513D02*
Y0194087D01*
X0221113Y01005D02*
X0222687D01*
X02219Y0099713D02*
Y0101287D01*
X0301713Y00986D02*
X0303287D01*
X03025Y0097813D02*
Y0099387D01*
X0185226Y0099013D02*
X01868D01*
X0186013Y0098226D02*
Y00998D01*
X0193113Y00991D02*
X0194687D01*
X01939Y0098313D02*
Y0099887D01*
X0277713Y0121562D02*
X0279287D01*
X02785Y0120775D02*
Y012235D01*
X0283613Y01003D02*
X0285187D01*
X02844Y0099513D02*
Y0101087D01*
X0235513Y0107D02*
X0237087D01*
X02363Y0106213D02*
Y0107787D01*
X0234213Y045D02*
X0235787D01*
X0235Y0449213D02*
Y0450787D01*
X0249213Y044D02*
X0250787D01*
X025Y0439213D02*
Y0440787D01*
X0254213Y043D02*
X0255787D01*
X0255Y0429213D02*
Y0430787D01*
X0254213Y0445D02*
X0255787D01*
X0255Y0444213D02*
Y0445787D01*
X0304213Y0445D02*
X0305787D01*
X0305Y0444213D02*
Y0445787D01*
X0314213Y0445D02*
X0315787D01*
X0315Y0444213D02*
Y0445787D01*
X0324213Y0445D02*
X0325787D01*
X0325Y0444213D02*
Y0445787D01*
X0334213Y0445D02*
X0335787D01*
X0335Y0444213D02*
Y0445787D01*
X0354213Y043D02*
X0355787D01*
X0355Y0429213D02*
Y0430787D01*
X0354213Y044D02*
X0355787D01*
X0355Y0439213D02*
Y0440787D01*
X0419213Y046D02*
X0420787D01*
X042Y0459213D02*
Y0460787D01*
X0429213Y046D02*
X0430787D01*
X043Y0459213D02*
Y0460787D01*
X0424213Y0465D02*
X0425787D01*
X0425Y0464213D02*
Y0465787D01*
X0434213Y0425D02*
X0435787D01*
X0435Y0424213D02*
Y0425787D01*
X0434213Y0435D02*
X0435787D01*
X0435Y0434213D02*
Y0435787D01*
X0434213Y0445D02*
X0435787D01*
X0435Y0444213D02*
Y0445787D01*
X0434213Y0455D02*
X0435787D01*
X0435Y0454213D02*
Y0455787D01*
X0439213Y045D02*
X0440787D01*
X044Y0449213D02*
Y0450787D01*
X0444213Y0455D02*
X0445787D01*
X0445Y0454213D02*
Y0455787D01*
X0199713Y02294D02*
X0201287D01*
X02005Y0228613D02*
Y0230187D01*
X0209309Y0221203D02*
X0210884D01*
X0210097Y0220416D02*
Y0221991D01*
X0216313Y0225D02*
X0217887D01*
X02171Y0224213D02*
Y0225787D01*
X0208313Y02084D02*
X0209887D01*
X02091Y0207613D02*
Y0209187D01*
X0212813Y02131D02*
X0214387D01*
X02136Y0212313D02*
Y0213887D01*
X0217113Y02173D02*
X0218687D01*
X02179Y0216513D02*
Y0218087D01*
X0189313Y02292D02*
X0190887D01*
X01901Y0228413D02*
Y0229987D01*
X0204013Y02043D02*
X0205587D01*
X02048Y0203513D02*
Y0205087D01*
X0217313Y02024D02*
X0218887D01*
X02181Y0201613D02*
Y0203187D01*
X0213213Y01974D02*
X0214787D01*
X0214Y0196613D02*
Y0198187D01*
X0173213Y01243D02*
X0174787D01*
X0174Y0123513D02*
Y0125087D01*
X0199913Y01858D02*
X0201487D01*
X02007Y0185013D02*
Y0186587D01*
X0184613Y02449D02*
X0186187D01*
X01854Y0244113D02*
Y0245687D01*
X0211113Y03714D02*
X0212687D01*
X02119Y0370613D02*
Y0372187D01*
X0224713Y03757D02*
X0226287D01*
X02255Y0374913D02*
Y0376487D01*
X0150113Y01876D02*
X0151687D01*
X01509Y0186813D02*
Y0188387D01*
X0172213Y02026D02*
X0173787D01*
X0173Y0201813D02*
Y0203387D01*
X0139913Y02274D02*
X0141487D01*
X01407Y0226613D02*
Y0228187D01*
X0132113Y03796D02*
X0133687D01*
X01329Y0378813D02*
Y0380387D01*
X0241863Y044395D02*
X0243438D01*
X024265Y0443162D02*
Y0444737D01*
X0179213Y02043D02*
X0180787D01*
X018Y0203513D02*
Y0205087D01*
X0179213Y01947D02*
X0180787D01*
X018Y0193913D02*
Y0195487D01*
X0189413Y02207D02*
X0190987D01*
X01902Y0219913D02*
Y0221487D01*
X0308413Y01188D02*
X0309987D01*
X03092Y0118013D02*
Y0119587D01*
X0319413Y0124188D02*
X0320987D01*
X03202Y01234D02*
Y0124975D01*
X0342413Y01294D02*
X0343987D01*
X03432Y0128613D02*
Y0130187D01*
X0345413Y01351D02*
X0346987D01*
X03462Y0134313D02*
Y0135887D01*
X0413976Y0357763D02*
X041555D01*
X0414763Y0356976D02*
Y035855D01*
X0453113Y02511D02*
X0454687D01*
X04539Y0250313D02*
Y0251887D01*
X0413913Y03489D02*
X0415487D01*
X04147Y0348113D02*
Y0349687D01*
X0445013Y02996D02*
X0446587D01*
X04458Y0298813D02*
Y0300387D01*
X0452113Y02931D02*
X0453687D01*
X04529Y0292313D02*
Y0293887D01*
X0274213Y03712D02*
X0275787D01*
X0275Y0370413D02*
Y0371987D01*
X0320113Y0365D02*
X0321687D01*
X03209Y0364213D02*
Y0365787D01*
X0449313Y03231D02*
X0450887D01*
X04501Y0322313D02*
Y0323887D01*
X0345113Y00998D02*
X0346687D01*
X03459Y0099013D02*
Y0100587D01*
X0493513Y00886D02*
X0495087D01*
X04943Y0087813D02*
Y0089387D01*
X0172513Y022D02*
X0174087D01*
X01733Y0219213D02*
Y0220787D01*
X0147213Y02347D02*
X0148787D01*
X0148Y0233913D02*
Y0235487D01*
X0195513Y01247D02*
X0197087D01*
X01963Y0123913D02*
Y0125487D01*
X0205213Y01221D02*
X0206787D01*
X0206Y0121313D02*
Y0122887D01*
X0181313Y01185D02*
X0182887D01*
X01821Y0117713D02*
Y0119287D01*
X0181413Y01245D02*
X0182987D01*
X01822Y0123713D02*
Y0125287D01*
X0143413Y02003D02*
X0144987D01*
X01442Y0199513D02*
Y0201087D01*
X0147013Y02158D02*
X0148587D01*
X01478Y0215013D02*
Y0216587D01*
X0147213Y02081D02*
X0148787D01*
X0148Y0207313D02*
Y0208887D01*
X0315413Y01208D02*
X0316987D01*
X03162Y0120013D02*
Y0121587D01*
X0260013Y01332D02*
X0261587D01*
X02608Y0132413D02*
Y0133987D01*
X0246713Y01243D02*
X0248287D01*
X02475Y0123513D02*
Y0125087D01*
X0310197Y0170016D02*
X0311772D01*
X0310984Y0169228D02*
Y0170803D01*
X0150113Y01825D02*
X0151687D01*
X01509Y0181713D02*
Y0183287D01*
X0380413Y01376D02*
X0381987D01*
X03812Y0136813D02*
Y0138387D01*
X0380513Y01845D02*
X0382087D01*
X03813Y0183713D02*
Y0185287D01*
X0384713Y0181D02*
X0386287D01*
X03855Y0180213D02*
Y0181787D01*
X0350013Y01206D02*
X0351587D01*
X03508Y0119813D02*
Y0121387D01*
X0362113Y0124D02*
X0363687D01*
X03629Y0123213D02*
Y0124787D01*
X0293713Y01665D02*
X0295287D01*
X02945Y0165713D02*
Y0167287D01*
X0274413Y01692D02*
X0275987D01*
X02752Y0168413D02*
Y0169987D01*
X0269213Y0162D02*
X0270787D01*
X027Y0161213D02*
Y0162787D01*
X0262713Y01575D02*
X0264287D01*
X02635Y0156713D02*
Y0158287D01*
X0320613Y0169937D02*
X0322187D01*
X03214Y016915D02*
Y0170725D01*
X0363113Y04045D02*
X0364687D01*
X03639Y0403713D02*
Y0405287D01*
X0480213Y0247D02*
X0481787D01*
X0481Y0246213D02*
Y0247787D01*
X0485213Y0243D02*
X0486787D01*
X0486Y0242213D02*
Y0243787D01*
X0490713Y0225D02*
X0492287D01*
X04915Y0224213D02*
Y0225787D01*
X0490713Y02325D02*
X0492287D01*
X04915Y0231713D02*
Y0233287D01*
X0499213Y046D02*
X0500787D01*
X05Y0459213D02*
Y0460787D01*
X0449213Y046D02*
X0450787D01*
X045Y0459213D02*
Y0460787D01*
X0439213Y046D02*
X0440787D01*
X044Y0459213D02*
Y0460787D01*
X0349213Y0465D02*
X0350787D01*
X035Y0464213D02*
Y0465787D01*
X0389213Y0465D02*
X0390787D01*
X039Y0464213D02*
Y0465787D01*
X0379213Y0465D02*
X0380787D01*
X038Y0464213D02*
Y0465787D01*
X0369213Y0465D02*
X0370787D01*
X037Y0464213D02*
Y0465787D01*
X0359213Y0465D02*
X0360787D01*
X036Y0464213D02*
Y0465787D01*
X0154213Y0435D02*
X0155787D01*
X0155Y0434213D02*
Y0435787D01*
X0434213Y0465D02*
X0435787D01*
X0435Y0464213D02*
Y0465787D01*
X0444213Y0465D02*
X0445787D01*
X0445Y0464213D02*
Y0465787D01*
X0454213Y0465D02*
X0455787D01*
X0455Y0464213D02*
Y0465787D01*
X0464213Y0465D02*
X0465787D01*
X0465Y0464213D02*
Y0465787D01*
X0474213Y0465D02*
X0475787D01*
X0475Y0464213D02*
Y0465787D01*
X0484213Y0465D02*
X0485787D01*
X0485Y0464213D02*
Y0465787D01*
X0494213Y0465D02*
X0495787D01*
X0495Y0464213D02*
Y0465787D01*
X0504213Y0465D02*
X0505787D01*
X0505Y0464213D02*
Y0465787D01*
X0514213Y043D02*
X0515787D01*
X0515Y0429213D02*
Y0430787D01*
X0494213Y043D02*
X0495787D01*
X0495Y0429213D02*
Y0430787D01*
X0504213Y043D02*
X0505787D01*
X0505Y0429213D02*
Y0430787D01*
X0504213Y044D02*
X0505787D01*
X0505Y0439213D02*
Y0440787D01*
X0494213Y044D02*
X0495787D01*
X0495Y0439213D02*
Y0440787D01*
X0484213Y044D02*
X0485787D01*
X0485Y0439213D02*
Y0440787D01*
X0504213Y039D02*
X0505787D01*
X0505Y0389213D02*
Y0390787D01*
X0494213Y039D02*
X0495787D01*
X0495Y0389213D02*
Y0390787D01*
X0484213Y039D02*
X0485787D01*
X0485Y0389213D02*
Y0390787D01*
X0474213Y039D02*
X0475787D01*
X0475Y0389213D02*
Y0390787D01*
X0479213Y0395D02*
X0480787D01*
X048Y0394213D02*
Y0395787D01*
X0479213Y0385D02*
X0480787D01*
X048Y0384213D02*
Y0385787D01*
X0489213Y0385D02*
X0490787D01*
X049Y0384213D02*
Y0385787D01*
X0519513Y03327D02*
X0521087D01*
X05203Y0331913D02*
Y0333487D01*
X0154213Y0415D02*
X0155787D01*
X0155Y0414213D02*
Y0415787D01*
X0494213Y034D02*
X0495787D01*
X0495Y0339213D02*
Y0340787D01*
X0504213Y034D02*
X0505787D01*
X0505Y0339213D02*
Y0340787D01*
X0514213Y034D02*
X0515787D01*
X0515Y0339213D02*
Y0340787D01*
X0514213Y035D02*
X0515787D01*
X0515Y0349213D02*
Y0350787D01*
X0504213Y035D02*
X0505787D01*
X0505Y0349213D02*
Y0350787D01*
X0494213Y035D02*
X0495787D01*
X0495Y0349213D02*
Y0350787D01*
X0494213Y036D02*
X0495787D01*
X0495Y0359213D02*
Y0360787D01*
X0504213Y036D02*
X0505787D01*
X0505Y0359213D02*
Y0360787D01*
X0514213Y036D02*
X0515787D01*
X0515Y0359213D02*
Y0360787D01*
X0499213Y0385D02*
X0500787D01*
X05Y0384213D02*
Y0385787D01*
X0499213Y0395D02*
X0500787D01*
X05Y0394213D02*
Y0395787D01*
X0489213Y0395D02*
X0490787D01*
X049Y0394213D02*
Y0395787D01*
X0519213Y0435D02*
X0520787D01*
X052Y0434213D02*
Y0435787D01*
X0509213Y0435D02*
X0510787D01*
X051Y0434213D02*
Y0435787D01*
X0499213Y0445D02*
X0500787D01*
X05Y0444213D02*
Y0445787D01*
X0499213Y0435D02*
X0500787D01*
X05Y0434213D02*
Y0435787D01*
X0489213Y0435D02*
X0490787D01*
X049Y0434213D02*
Y0435787D01*
X0479213Y0435D02*
X0480787D01*
X048Y0434213D02*
Y0435787D01*
X0479213Y0445D02*
X0480787D01*
X048Y0444213D02*
Y0445787D01*
X0489213Y0445D02*
X0490787D01*
X049Y0444213D02*
Y0445787D01*
X0534213Y033D02*
X0535787D01*
X0535Y0329213D02*
Y0330787D01*
X0534213Y035D02*
X0535787D01*
X0535Y0349213D02*
Y0350787D01*
X0534213Y0375D02*
X0535787D01*
X0535Y0374213D02*
Y0375787D01*
X0534213Y0395D02*
X0535787D01*
X0535Y0394213D02*
Y0395787D01*
X0534213Y0405D02*
X0535787D01*
X0535Y0404213D02*
Y0405787D01*
X0534213Y0415D02*
X0535787D01*
X0535Y0414213D02*
Y0415787D01*
X0534213Y0425D02*
X0535787D01*
X0535Y0424213D02*
Y0425787D01*
X0534213Y0435D02*
X0535787D01*
X0535Y0434213D02*
Y0435787D01*
X0144213Y043D02*
X0145787D01*
X0145Y0429213D02*
Y0430787D01*
X0144213Y042D02*
X0145787D01*
X0145Y0419213D02*
Y0420787D01*
X0144213Y041D02*
X0145787D01*
X0145Y0409213D02*
Y0410787D01*
X0134213Y0395D02*
X0135787D01*
X0135Y0394213D02*
Y0395787D01*
X0134213Y0405D02*
X0135787D01*
X0135Y0404213D02*
Y0405787D01*
X0134213Y0415D02*
X0135787D01*
X0135Y0414213D02*
Y0415787D01*
X0134213Y0425D02*
X0135787D01*
X0135Y0424213D02*
Y0425787D01*
X0134213Y0435D02*
X0135787D01*
X0135Y0434213D02*
Y0435787D01*
X0525563Y043195D02*
X0527137D01*
X052635Y0431163D02*
Y0432737D01*
X0519913Y03775D02*
X0521487D01*
X05207Y0376713D02*
Y0378287D01*
X0475713Y02539D02*
X0477287D01*
X04765Y0253113D02*
Y0254687D01*
X0509013Y02679D02*
X0510587D01*
X05098Y0267113D02*
Y0268687D01*
X0497113Y0172D02*
X0498687D01*
X04979Y0171213D02*
Y0172787D01*
X0476913Y01258D02*
X0478487D01*
X04777Y0125013D02*
Y0126587D01*
X0229213Y042D02*
X0230787D01*
X023Y0419213D02*
Y0420787D01*
X0525413Y0118D02*
X0526987D01*
X05262Y0117213D02*
Y0118787D01*
X0525613Y01427D02*
X0527187D01*
X05264Y0141913D02*
Y0143487D01*
X0522013Y01014D02*
X0523587D01*
X05228Y0100613D02*
Y0102187D01*
X0520913Y01717D02*
X0522487D01*
X05217Y0170913D02*
Y0172487D01*
X0495213Y01056D02*
X0496787D01*
X0496Y0104813D02*
Y0106387D01*
X0486516Y01973D02*
X0488484D01*
X04875Y0196316D02*
Y0198284D01*
X0423313Y01006D02*
X0424887D01*
X04241Y0099813D02*
Y0101387D01*
X0415413Y01007D02*
X0416987D01*
X04162Y0099913D02*
Y0101487D01*
X0496544Y0324872D02*
X0498512D01*
X0497528Y0323888D02*
Y0325856D01*
X0430316Y04146D02*
X0432284D01*
X04313Y0413616D02*
Y0415584D01*
X0275313Y04045D02*
X0276887D01*
X02761Y0403713D02*
Y0405287D01*
X0269213Y042D02*
X0270787D01*
X027Y0419213D02*
Y0420787D01*
X0274213Y0415D02*
X0275787D01*
X0275Y0414213D02*
Y0415787D01*
X0279213Y042D02*
X0280787D01*
X028Y0419213D02*
Y0420787D01*
X0284213Y0415D02*
X0285787D01*
X0285Y0414213D02*
Y0415787D01*
X0289213Y042D02*
X0290787D01*
X029Y0419213D02*
Y0420787D01*
X0294213Y0415D02*
X0295787D01*
X0295Y0414213D02*
Y0415787D01*
X0299213Y042D02*
X0300787D01*
X03Y0419213D02*
Y0420787D01*
X0304213Y0415D02*
X0305787D01*
X0305Y0414213D02*
Y0415787D01*
X0309213Y042D02*
X0310787D01*
X031Y0419213D02*
Y0420787D01*
X0314213Y0415D02*
X0315787D01*
X0315Y0414213D02*
Y0415787D01*
X0329213Y042D02*
X0330787D01*
X033Y0419213D02*
Y0420787D01*
X0334213Y0415D02*
X0335787D01*
X0335Y0414213D02*
Y0415787D01*
X0339213Y042D02*
X0340787D01*
X034Y0419213D02*
Y0420787D01*
X0354213Y042D02*
X0355787D01*
X0355Y0419213D02*
Y0420787D01*
X0359213Y0415D02*
X0360787D01*
X036Y0414213D02*
Y0415787D01*
X0364213Y042D02*
X0365787D01*
X0365Y0419213D02*
Y0420787D01*
X0369213Y0415D02*
X0370787D01*
X037Y0414213D02*
Y0415787D01*
X0374213Y042D02*
X0375787D01*
X0375Y0419213D02*
Y0420787D01*
X0379213Y0415D02*
X0380787D01*
X038Y0414213D02*
Y0415787D01*
X0384213Y042D02*
X0385787D01*
X0385Y0419213D02*
Y0420787D01*
X0389213Y0415D02*
X0390787D01*
X039Y0414213D02*
Y0415787D01*
X0394213Y042D02*
X0395787D01*
X0395Y0419213D02*
Y0420787D01*
X0174213Y0425D02*
X0175787D01*
X0175Y0424213D02*
Y0425787D01*
X0204213Y0425D02*
X0205787D01*
X0205Y0424213D02*
Y0425787D01*
X0199213Y042D02*
X0200787D01*
X02Y0419213D02*
Y0420787D01*
X0179213Y042D02*
X0180787D01*
X018Y0419213D02*
Y0420787D01*
X0184213Y0425D02*
X0185787D01*
X0185Y0424213D02*
Y0425787D01*
X0249213Y042D02*
X0250787D01*
X025Y0419213D02*
Y0420787D01*
X0249213Y0425D02*
X0250787D01*
X025Y0424213D02*
Y0425787D01*
X0234213Y0425D02*
X0235787D01*
X0235Y0424213D02*
Y0425787D01*
X0234213Y042D02*
X0235787D01*
X0235Y0419213D02*
Y0420787D01*
X0229213Y0425D02*
X0230787D01*
X023Y0424213D02*
Y0425787D01*
X0214213Y0425D02*
X0215787D01*
X0215Y0424213D02*
Y0425787D01*
X0209213Y042D02*
X0210787D01*
X021Y0419213D02*
Y0420787D01*
X0194213Y0425D02*
X0195787D01*
X0195Y0424213D02*
Y0425787D01*
X0189213Y042D02*
X0190787D01*
X019Y0419213D02*
Y0420787D01*
X0480713Y03134D02*
X0482287D01*
X04815Y0312613D02*
Y0314187D01*
X0381Y0086792D02*
X0382299D01*
X038165Y0086142D02*
Y0087442D01*
X0366236Y0092895D02*
X0367535D01*
X0366886Y0092245D02*
Y0093544D01*
X0372339Y0107658D02*
X0373638D01*
X0372988Y0107009D02*
Y0108308D01*
X0387102Y0101556D02*
X0388402D01*
X0387752Y0100906D02*
Y0102206D01*
X0366236Y0101556D02*
X0367535D01*
X0366886Y0100906D02*
Y0102206D01*
X0381Y0107658D02*
X0382299D01*
X038165Y0107009D02*
Y0108308D01*
X0387102Y0092895D02*
X0388402D01*
X0387752Y0092245D02*
Y0093544D01*
X0372339Y0086792D02*
X0373638D01*
X0372988Y0086142D02*
Y0087442D01*
X0372339Y0430356D02*
X0373638D01*
X0372988Y0429706D02*
Y0431005D01*
X0387102Y0436458D02*
X0388402D01*
X0387752Y0435809D02*
Y0437108D01*
X0381Y0451222D02*
X0382299D01*
X038165Y0450572D02*
Y0451872D01*
X0366236Y044512D02*
X0367535D01*
X0366886Y044447D02*
Y0445769D01*
X0387102Y044512D02*
X0388402D01*
X0387752Y044447D02*
Y0445769D01*
X0372339Y0451222D02*
X0373638D01*
X0372988Y0450572D02*
Y0451872D01*
X0366236Y0436458D02*
X0367535D01*
X0366886Y0435809D02*
Y0437108D01*
X0381Y0430356D02*
X0382299D01*
X038165Y0429706D02*
Y0431005D01*
X014002Y0442346D02*
X0141319D01*
X0140669Y0441697D02*
Y0442996D01*
X0154783Y0448449D02*
X0156083D01*
X0155433Y0447799D02*
Y0449098D01*
X0148681Y0463213D02*
X014998D01*
X0149331Y0462563D02*
Y0463862D01*
X0133917Y045711D02*
X0135216D01*
X0134567Y0456461D02*
Y045776D01*
X0154783Y045711D02*
X0156083D01*
X0155433Y0456461D02*
Y045776D01*
X014002Y0463213D02*
X0141319D01*
X0140669Y0462563D02*
Y0463862D01*
X0133917Y0448449D02*
X0135216D01*
X0134567Y0447799D02*
Y0449098D01*
X0148681Y0442346D02*
X014998D01*
X0149331Y0441697D02*
Y0442996D01*
X0496362Y0369851D02*
X0497937D01*
X0497149Y0369063D02*
Y0370638D01*
X0475713Y03378D02*
X0477287D01*
X04765Y0337013D02*
Y0338587D01*
X0521713Y02842D02*
X0523287D01*
X05225Y0283413D02*
Y0284987D01*
X0521747Y0292266D02*
X0523322D01*
X0522534Y0291478D02*
Y0293053D01*
X0296513Y01578D02*
X0298087D01*
X02973Y0157013D02*
Y0158587D01*
X0459213Y0415D02*
X0460787D01*
X046Y0414213D02*
Y0415787D01*
X0469213Y0415D02*
X0470787D01*
X047Y0414213D02*
Y0415787D01*
X0499213Y0405D02*
X0500787D01*
X05Y0404213D02*
Y0405787D01*
X0489213Y0405D02*
X0490787D01*
X049Y0404213D02*
Y0405787D01*
X0459213Y0405D02*
X0460787D01*
X046Y0404213D02*
Y0405787D01*
X0469213Y0405D02*
X0470787D01*
X047Y0404213D02*
Y0405787D01*
X0479213Y0415D02*
X0480787D01*
X048Y0414213D02*
Y0415787D01*
X0479213Y0405D02*
X0480787D01*
X048Y0404213D02*
Y0405787D01*
X014002Y0086792D02*
X0141319D01*
X0140669Y0086142D02*
Y0087442D01*
X0154783Y0092895D02*
X0156083D01*
X0155433Y0092245D02*
Y0093544D01*
X0148681Y0107658D02*
X014998D01*
X0149331Y0107009D02*
Y0108308D01*
X0133917Y0101556D02*
X0135216D01*
X0134567Y0100906D02*
Y0102206D01*
X0154783Y0101556D02*
X0156083D01*
X0155433Y0100906D02*
Y0102206D01*
X014002Y0107658D02*
X0141319D01*
X0140669Y0107009D02*
Y0108308D01*
X0133917Y0092895D02*
X0135216D01*
X0134567Y0092245D02*
Y0093544D01*
X0148681Y0086792D02*
X014998D01*
X0149331Y0086142D02*
Y0087442D01*
X0516618Y0442346D02*
X0517917D01*
X0517268Y0441697D02*
Y0442996D01*
X0531382Y0448449D02*
X0532681D01*
X0532031Y0447799D02*
Y0449098D01*
X052528Y0463213D02*
X0526579D01*
X0525929Y0462563D02*
Y0463862D01*
X0510516Y045711D02*
X0511815D01*
X0511165Y0456461D02*
Y045776D01*
X0531382Y045711D02*
X0532681D01*
X0532031Y0456461D02*
Y045776D01*
X0516618Y0463213D02*
X0517917D01*
X0517268Y0462563D02*
Y0463862D01*
X0510516Y0448449D02*
X0511815D01*
X0511165Y0447799D02*
Y0449098D01*
X052528Y0442346D02*
X0526579D01*
X0525929Y0441697D02*
Y0442996D01*
M02*
