G04*
G04 #@! TF.GenerationSoftware,Altium Limited,Altium Designer,21.3.2 (30)*
G04*
G04 Layer_Color=8421504*
%FSTAX25Y25*%
%MOIN*%
G70*
G04*
G04 #@! TF.SameCoordinates,EB2CAA8E-72F9-4FA4-A601-E6806EDF6347*
G04*
G04*
G04 #@! TF.FilePolarity,Positive*
G04*
G01*
G75*
%ADD16R,0.13386X0.05906*%
%ADD17R,0.12205X0.05512*%
G04:AMPARAMS|DCode=18|XSize=59.06mil|YSize=133.86mil|CornerRadius=7.38mil|HoleSize=0mil|Usage=FLASHONLY|Rotation=180.000|XOffset=0mil|YOffset=0mil|HoleType=Round|Shape=RoundedRectangle|*
%AMROUNDEDRECTD18*
21,1,0.05906,0.11909,0,0,180.0*
21,1,0.04429,0.13386,0,0,180.0*
1,1,0.01476,-0.02215,0.05955*
1,1,0.01476,0.02215,0.05955*
1,1,0.01476,0.02215,-0.05955*
1,1,0.01476,-0.02215,-0.05955*
%
%ADD18ROUNDEDRECTD18*%
G04:AMPARAMS|DCode=19|XSize=39.37mil|YSize=137.8mil|CornerRadius=9.84mil|HoleSize=0mil|Usage=FLASHONLY|Rotation=180.000|XOffset=0mil|YOffset=0mil|HoleType=Round|Shape=RoundedRectangle|*
%AMROUNDEDRECTD19*
21,1,0.03937,0.11811,0,0,180.0*
21,1,0.01968,0.13780,0,0,180.0*
1,1,0.01968,-0.00984,0.05906*
1,1,0.01968,0.00984,0.05906*
1,1,0.01968,0.00984,-0.05906*
1,1,0.01968,-0.00984,-0.05906*
%
%ADD19ROUNDEDRECTD19*%
%ADD20R,0.03937X0.03937*%
%ADD21R,0.03937X0.03937*%
%ADD22R,0.07480X0.04331*%
%ADD23R,0.10236X0.02756*%
%ADD24R,0.05512X0.12205*%
%ADD25R,0.05906X0.13386*%
%ADD26R,0.03150X0.03150*%
%ADD27R,0.09843X0.09843*%
%ADD28R,0.06299X0.10236*%
%ADD29R,0.06299X0.11811*%
%ADD30R,0.09843X0.12402*%
%ADD31C,0.05906*%
G04:AMPARAMS|DCode=32|XSize=39.37mil|YSize=137.8mil|CornerRadius=9.84mil|HoleSize=0mil|Usage=FLASHONLY|Rotation=270.000|XOffset=0mil|YOffset=0mil|HoleType=Round|Shape=RoundedRectangle|*
%AMROUNDEDRECTD32*
21,1,0.03937,0.11811,0,0,270.0*
21,1,0.01968,0.13780,0,0,270.0*
1,1,0.01968,-0.05906,-0.00984*
1,1,0.01968,-0.05906,0.00984*
1,1,0.01968,0.05906,0.00984*
1,1,0.01968,0.05906,-0.00984*
%
%ADD32ROUNDEDRECTD32*%
%ADD33R,0.06102X0.09252*%
%ADD34R,0.13780X0.06299*%
%ADD35R,0.03543X0.02165*%
%ADD36R,0.16693X0.15000*%
%ADD37R,0.02165X0.03543*%
%ADD38R,0.03150X0.03150*%
G04:AMPARAMS|DCode=39|XSize=59.06mil|YSize=133.86mil|CornerRadius=7.38mil|HoleSize=0mil|Usage=FLASHONLY|Rotation=270.000|XOffset=0mil|YOffset=0mil|HoleType=Round|Shape=RoundedRectangle|*
%AMROUNDEDRECTD39*
21,1,0.05906,0.11909,0,0,270.0*
21,1,0.04429,0.13386,0,0,270.0*
1,1,0.01476,-0.05955,-0.02215*
1,1,0.01476,-0.05955,0.02215*
1,1,0.01476,0.05955,0.02215*
1,1,0.01476,0.05955,-0.02215*
%
%ADD39ROUNDEDRECTD39*%
%ADD40R,0.14000X0.06000*%
%ADD41R,0.06000X0.14000*%
D16*
X0161198Y0200289D02*
D03*
Y0216037D02*
D03*
Y0223911D02*
D03*
Y0208163D02*
D03*
X0161298Y0160137D02*
D03*
Y0168011D02*
D03*
Y0152263D02*
D03*
Y0144389D02*
D03*
X0509887Y0276584D02*
D03*
X0508Y0187748D02*
D03*
Y0179874D02*
D03*
Y0172D02*
D03*
X05094Y02251D02*
D03*
Y0232974D02*
D03*
Y0240848D02*
D03*
X0509887Y0292332D02*
D03*
Y0284457D02*
D03*
D17*
X0138954Y0191234D02*
D03*
Y0232966D02*
D03*
X0139054Y0135334D02*
D03*
Y0177066D02*
D03*
X0530244Y0162945D02*
D03*
Y0196803D02*
D03*
X0531644Y0249903D02*
D03*
Y0216045D02*
D03*
X0532131Y0267528D02*
D03*
Y0301387D02*
D03*
D18*
X0203646Y0087362D02*
D03*
X017648D02*
D03*
X0284769Y0087562D02*
D03*
X0311934D02*
D03*
X0248635Y00879D02*
D03*
X02758D02*
D03*
X0212056Y0087536D02*
D03*
X0239221D02*
D03*
D19*
X0186126Y011D02*
D03*
X0194D02*
D03*
X0302289Y01102D02*
D03*
X0294415D02*
D03*
X0266154Y0110538D02*
D03*
X025828D02*
D03*
X0229576Y0110174D02*
D03*
X0221702D02*
D03*
D20*
X02759Y01104D02*
D03*
X02844D02*
D03*
D21*
X02364Y01133D02*
D03*
Y01218D02*
D03*
D22*
X014113Y0244712D02*
D03*
Y0313216D02*
D03*
D23*
X01555Y0270106D02*
D03*
Y0276011D02*
D03*
Y0293728D02*
D03*
Y0299633D02*
D03*
Y0305539D02*
D03*
Y0287822D02*
D03*
Y0281916D02*
D03*
Y02642D02*
D03*
Y0258295D02*
D03*
Y0252389D02*
D03*
D24*
X03548Y00876D02*
D03*
X0320942D02*
D03*
X0399268Y0089173D02*
D03*
X0433126D02*
D03*
D25*
X0329997Y0109844D02*
D03*
X0337871D02*
D03*
X0345745D02*
D03*
X0424071Y0111417D02*
D03*
X0416197D02*
D03*
X0408323D02*
D03*
D26*
X0401088Y0392818D02*
D03*
X0416938D02*
D03*
X0432788D02*
D03*
X0407387D02*
D03*
X0423237D02*
D03*
X0439087D02*
D03*
D27*
X0430511Y03668D02*
D03*
X0414763D02*
D03*
D28*
X02443Y0434787D02*
D03*
X05264Y0421378D02*
D03*
X02443Y0420613D02*
D03*
X05264Y0407205D02*
D03*
D29*
X02219Y04386D02*
D03*
X03208Y0434461D02*
D03*
X03453Y04344D02*
D03*
X02219Y0421277D02*
D03*
X03208Y0417139D02*
D03*
X03453Y0417077D02*
D03*
D30*
X0202054Y0435424D02*
D03*
X0299Y04325D02*
D03*
X0173708Y0435424D02*
D03*
X0270654Y04325D02*
D03*
D31*
X0252Y04519D02*
D03*
X02518Y04632D02*
D03*
X047Y03928D02*
D03*
X0155092Y042506D02*
D03*
D32*
X0508902Y0332718D02*
D03*
Y0377676D02*
D03*
Y0324844D02*
D03*
Y0369801D02*
D03*
D33*
X04677Y0435098D02*
D03*
Y04225D02*
D03*
D34*
X0506924Y04214D02*
D03*
X0484876D02*
D03*
D35*
X0496Y0117D02*
D03*
Y0111291D02*
D03*
X0517172Y0107D02*
D03*
Y0101291D02*
D03*
X05266Y0131417D02*
D03*
Y0137126D02*
D03*
D36*
X0272426Y046D02*
D03*
X02983D02*
D03*
D37*
X0417529Y0399418D02*
D03*
X0423237D02*
D03*
X0433379D02*
D03*
X0439087D02*
D03*
X0401679D02*
D03*
X0407387D02*
D03*
X05065Y00841D02*
D03*
X0500791D02*
D03*
D38*
X05339Y0131417D02*
D03*
Y0137716D02*
D03*
D39*
X053154Y0342364D02*
D03*
Y0315198D02*
D03*
Y0387321D02*
D03*
Y0360156D02*
D03*
D40*
X04507Y0437641D02*
D03*
Y04211D02*
D03*
D41*
X0174Y04587D02*
D03*
X0190541D02*
D03*
M02*
