G04*
G04 #@! TF.GenerationSoftware,Altium Limited,Altium Designer,21.3.2 (30)*
G04*
G04 Layer_Color=2752767*
%FSTAX25Y25*%
%MOIN*%
G70*
G04*
G04 #@! TF.SameCoordinates,EB2CAA8E-72F9-4FA4-A601-E6806EDF6347*
G04*
G04*
G04 #@! TF.FilePolarity,Positive*
G04*
G01*
G75*
%ADD118C,0.00200*%
%ADD119C,0.00267*%
%ADD120C,0.00133*%
D118*
X04207Y04354D02*
Y0437D01*
X04223D01*
Y04354D01*
X04207D01*
Y04266D02*
Y04282D01*
X04223D01*
Y04266D01*
X04207D01*
X04265Y045205D02*
X04257Y045365D01*
X04273D01*
X04265Y045205D01*
X04763Y01015D02*
X04767Y01019D01*
X04771D01*
X04767Y01023D01*
X04771Y01027D01*
X04767D01*
X04763Y01031D01*
X04759Y01027D01*
X04755D01*
X04759Y01023D01*
X04755Y01019D01*
X04759D01*
X04763Y01015D01*
X04663D02*
X04667Y01019D01*
X04671D01*
X04667Y01023D01*
X04671Y01027D01*
X04667D01*
X04663Y01031D01*
X04659Y01027D01*
X04655D01*
X04659Y01023D01*
X04655Y01019D01*
X04659D01*
X04663Y01015D01*
X04563D02*
X04567Y01019D01*
X04571D01*
X04567Y01023D01*
X04571Y01027D01*
X04567D01*
X04563Y01031D01*
X04559Y01027D01*
X04555D01*
X04559Y01023D01*
X04555Y01019D01*
X04559D01*
X04563Y01015D01*
X04763Y01139D02*
X04767Y01143D01*
X04771D01*
X04767Y01147D01*
X04771Y01151D01*
X04767D01*
X04763Y01155D01*
X04759Y01151D01*
X04755D01*
X04759Y01147D01*
X04755Y01143D01*
X04759D01*
X04763Y01139D01*
X04663D02*
X04667Y01143D01*
X04671D01*
X04667Y01147D01*
X04671Y01151D01*
X04667D01*
X04663Y01155D01*
X04659Y01151D01*
X04655D01*
X04659Y01147D01*
X04655Y01143D01*
X04659D01*
X04663Y01139D01*
X04563D02*
X04567Y01143D01*
X04571D01*
X04567Y01147D01*
X04571Y01151D01*
X04567D01*
X04563Y01155D01*
X04559Y01151D01*
X04555D01*
X04559Y01147D01*
X04555Y01143D01*
X04559D01*
X04563Y01139D01*
X04763Y00891D02*
X04767Y00895D01*
X04771D01*
X04767Y00899D01*
X04771Y00903D01*
X04767D01*
X04763Y00907D01*
X04759Y00903D01*
X04755D01*
X04759Y00899D01*
X04755Y00895D01*
X04759D01*
X04763Y00891D01*
X04663D02*
X04667Y00895D01*
X04671D01*
X04667Y00899D01*
X04671Y00903D01*
X04667D01*
X04663Y00907D01*
X04659Y00903D01*
X04655D01*
X04659Y00899D01*
X04655Y00895D01*
X04659D01*
X04663Y00891D01*
X04563D02*
X04567Y00895D01*
X04571D01*
X04567Y00899D01*
X04571Y00903D01*
X04567D01*
X04563Y00907D01*
X04559Y00903D01*
X04555D01*
X04559Y00899D01*
X04555Y00895D01*
X04559D01*
X04563Y00891D01*
X05057Y01162D02*
X05061Y0117D01*
X05057Y01178D01*
X05065Y01174D01*
X05073Y01178D01*
X05069Y0117D01*
X05073Y01162D01*
X05065Y01166D01*
X05057Y01162D01*
Y00962D02*
X05061Y0097D01*
X05057Y00978D01*
X05065Y00974D01*
X05073Y00978D01*
X05069Y0097D01*
X05073Y00962D01*
X05065Y00966D01*
X05057Y00962D01*
Y01062D02*
X05061Y0107D01*
X05057Y01078D01*
X05065Y01074D01*
X05073Y01078D01*
X05069Y0107D01*
X05073Y01062D01*
X05065Y01066D01*
X05057Y01062D01*
Y01262D02*
X05061Y0127D01*
X05057Y01278D01*
X05065Y01274D01*
X05073Y01278D01*
X05069Y0127D01*
X05073Y01262D01*
X05065Y01266D01*
X05057Y01262D01*
Y01362D02*
X05061Y0137D01*
X05057Y01378D01*
X05065Y01374D01*
X05073Y01378D01*
X05069Y0137D01*
X05073Y01362D01*
X05065Y01366D01*
X05057Y01362D01*
Y01462D02*
X05061Y0147D01*
X05057Y01478D01*
X05065Y01474D01*
X05073Y01478D01*
X05069Y0147D01*
X05073Y01462D01*
X05065Y01466D01*
X05057Y01462D01*
X04107Y04354D02*
Y0437D01*
X04123D01*
Y04354D01*
X04107D01*
Y04266D02*
Y04282D01*
X04123D01*
Y04266D01*
X04107D01*
X0376919Y0096825D02*
Y0096425D01*
X0377719D01*
Y0096825D01*
X0378119D01*
Y0097625D01*
X0377719D01*
Y0098025D01*
X0376919D01*
Y0097625D01*
X0376519D01*
Y0096825D01*
X0376919D01*
Y0440389D02*
Y0439989D01*
X0377719D01*
Y0440389D01*
X0378119D01*
Y0441189D01*
X0377719D01*
Y0441589D01*
X0376919D01*
Y0441189D01*
X0376519D01*
Y0440389D01*
X0376919D01*
X01446Y045238D02*
Y0451979D01*
X01454D01*
Y045238D01*
X01458D01*
Y045318D01*
X01454D01*
Y045358D01*
X01446D01*
Y045318D01*
X01442D01*
Y045238D01*
X01446D01*
X04354Y0259026D02*
X04358D01*
X04362Y0259426D01*
X04366Y0259026D01*
X0437D01*
Y0259426D01*
X04366Y0259826D01*
X0437Y0260226D01*
Y0260626D01*
X04366D01*
X04362Y0260226D01*
X04358Y0260626D01*
X04354D01*
Y0260226D01*
X04358Y0259826D01*
X04354Y0259426D01*
Y0259026D01*
Y0274774D02*
X04358D01*
X04362Y0275174D01*
X04366Y0274774D01*
X0437D01*
Y0275174D01*
X04366Y0275574D01*
X0437Y0275974D01*
Y0276374D01*
X04366D01*
X04362Y0275974D01*
X04358Y0276374D01*
X04354D01*
Y0275974D01*
X04358Y0275574D01*
X04354Y0275174D01*
Y0274774D01*
X0220269Y0139637D02*
X0220669Y0140437D01*
X0220269Y0141237D01*
X0221069Y0140837D01*
X0221868Y0141237D01*
X0221468Y0140437D01*
X0221868Y0139637D01*
X0221069Y0140037D01*
X0220269Y0139637D01*
X0190269D02*
X0190668Y0140437D01*
X0190269Y0141237D01*
X0191068Y0140837D01*
X0191868Y0141237D01*
X0191469Y0140437D01*
X0191868Y0139637D01*
X0191068Y0140037D01*
X0190269Y0139637D01*
X0200269D02*
X0200669Y0140437D01*
X0200269Y0141237D01*
X0201068Y0140837D01*
X0201869Y0141237D01*
X0201468Y0140437D01*
X0201869Y0139637D01*
X0201068Y0140037D01*
X0200269Y0139637D01*
Y0149637D02*
X0200669Y0150437D01*
X0200269Y0151237D01*
X0201068Y0150837D01*
X0201869Y0151237D01*
X0201468Y0150437D01*
X0201869Y0149637D01*
X0201068Y0150037D01*
X0200269Y0149637D01*
X0210268Y0139637D02*
X0210668Y0140437D01*
X0210268Y0141237D01*
X0211069Y0140837D01*
X0211869Y0141237D01*
X0211469Y0140437D01*
X0211869Y0139637D01*
X0211069Y0140037D01*
X0210268Y0139637D01*
Y0149637D02*
X0210668Y0150437D01*
X0210268Y0151237D01*
X0211069Y0150837D01*
X0211869Y0151237D01*
X0211469Y0150437D01*
X0211869Y0149637D01*
X0211069Y0150037D01*
X0210268Y0149637D01*
X0220269D02*
X0220669Y0150437D01*
X0220269Y0151237D01*
X0221069Y0150837D01*
X0221868Y0151237D01*
X0221468Y0150437D01*
X0221868Y0149637D01*
X0221069Y0150037D01*
X0220269Y0149637D01*
X0230269Y0139637D02*
X0230668Y0140437D01*
X0230269Y0141237D01*
X0231068Y0140837D01*
X0231869Y0141237D01*
X0231469Y0140437D01*
X0231869Y0139637D01*
X0231068Y0140037D01*
X0230269Y0139637D01*
Y0149637D02*
X0230668Y0150437D01*
X0230269Y0151237D01*
X0231068Y0150837D01*
X0231869Y0151237D01*
X0231469Y0150437D01*
X0231869Y0149637D01*
X0231068Y0150037D01*
X0230269Y0149637D01*
X0240268Y0139637D02*
X0240669Y0140437D01*
X0240268Y0141237D01*
X0241069Y0140837D01*
X0241868Y0141237D01*
X0241469Y0140437D01*
X0241868Y0139637D01*
X0241069Y0140037D01*
X0240268Y0139637D01*
Y0149637D02*
X0240669Y0150437D01*
X0240268Y0151237D01*
X0241069Y0150837D01*
X0241868Y0151237D01*
X0241469Y0150437D01*
X0241868Y0149637D01*
X0241069Y0150037D01*
X0240268Y0149637D01*
X0250269Y0139637D02*
X0250669Y0140437D01*
X0250269Y0141237D01*
X0251068Y0140837D01*
X0251869Y0141237D01*
X0251468Y0140437D01*
X0251869Y0139637D01*
X0251068Y0140037D01*
X0250269Y0139637D01*
Y0149637D02*
X0250669Y0150437D01*
X0250269Y0151237D01*
X0251068Y0150837D01*
X0251869Y0151237D01*
X0251468Y0150437D01*
X0251869Y0149637D01*
X0251068Y0150037D01*
X0250269Y0149637D01*
X0260268Y0139637D02*
X0260668Y0140437D01*
X0260268Y0141237D01*
X0261069Y0140837D01*
X0261869Y0141237D01*
X0261469Y0140437D01*
X0261869Y0139637D01*
X0261069Y0140037D01*
X0260268Y0139637D01*
Y0149637D02*
X0260668Y0150437D01*
X0260268Y0151237D01*
X0261069Y0150837D01*
X0261869Y0151237D01*
X0261469Y0150437D01*
X0261869Y0149637D01*
X0261069Y0150037D01*
X0260268Y0149637D01*
X0270269Y0139637D02*
X0270669Y0140437D01*
X0270269Y0141237D01*
X0271069Y0140837D01*
X0271868Y0141237D01*
X0271468Y0140437D01*
X0271868Y0139637D01*
X0271069Y0140037D01*
X0270269Y0139637D01*
Y0149637D02*
X0270669Y0150437D01*
X0270269Y0151237D01*
X0271069Y0150837D01*
X0271868Y0151237D01*
X0271468Y0150437D01*
X0271868Y0149637D01*
X0271069Y0150037D01*
X0270269Y0149637D01*
X0280269Y0139637D02*
X0280668Y0140437D01*
X0280269Y0141237D01*
X0281068Y0140837D01*
X0281869Y0141237D01*
X0281469Y0140437D01*
X0281869Y0139637D01*
X0281068Y0140037D01*
X0280269Y0139637D01*
Y0149637D02*
X0280668Y0150437D01*
X0280269Y0151237D01*
X0281068Y0150837D01*
X0281869Y0151237D01*
X0281469Y0150437D01*
X0281869Y0149637D01*
X0281068Y0150037D01*
X0280269Y0149637D01*
X0290268Y0139637D02*
X0290669Y0140437D01*
X0290268Y0141237D01*
X0291069Y0140837D01*
X0291868Y0141237D01*
X0291469Y0140437D01*
X0291868Y0139637D01*
X0291069Y0140037D01*
X0290268Y0139637D01*
Y0149637D02*
X0290669Y0150437D01*
X0290268Y0151237D01*
X0291069Y0150837D01*
X0291868Y0151237D01*
X0291469Y0150437D01*
X0291868Y0149637D01*
X0291069Y0150037D01*
X0290268Y0149637D01*
X0300269Y0139637D02*
X0300669Y0140437D01*
X0300269Y0141237D01*
X0301068Y0140837D01*
X0301869Y0141237D01*
X0301468Y0140437D01*
X0301869Y0139637D01*
X0301068Y0140037D01*
X0300269Y0139637D01*
Y0149637D02*
X0300669Y0150437D01*
X0300269Y0151237D01*
X0301068Y0150837D01*
X0301869Y0151237D01*
X0301468Y0150437D01*
X0301869Y0149637D01*
X0301068Y0150037D01*
X0300269Y0149637D01*
X0310268Y0139637D02*
X0310668Y0140437D01*
X0310268Y0141237D01*
X0311069Y0140837D01*
X0311869Y0141237D01*
X0311469Y0140437D01*
X0311869Y0139637D01*
X0311069Y0140037D01*
X0310268Y0139637D01*
Y0149637D02*
X0310668Y0150437D01*
X0310268Y0151237D01*
X0311069Y0150837D01*
X0311869Y0151237D01*
X0311469Y0150437D01*
X0311869Y0149637D01*
X0311069Y0150037D01*
X0310268Y0149637D01*
X0320269Y0139637D02*
X0320669Y0140437D01*
X0320269Y0141237D01*
X0321069Y0140837D01*
X0321868Y0141237D01*
X0321468Y0140437D01*
X0321868Y0139637D01*
X0321069Y0140037D01*
X0320269Y0139637D01*
Y0149637D02*
X0320669Y0150437D01*
X0320269Y0151237D01*
X0321069Y0150837D01*
X0321868Y0151237D01*
X0321468Y0150437D01*
X0321868Y0149637D01*
X0321069Y0150037D01*
X0320269Y0149637D01*
X0330269Y0139637D02*
X0330668Y0140437D01*
X0330269Y0141237D01*
X0331068Y0140837D01*
X0331869Y0141237D01*
X0331469Y0140437D01*
X0331869Y0139637D01*
X0331068Y0140037D01*
X0330269Y0139637D01*
Y0149637D02*
X0330668Y0150437D01*
X0330269Y0151237D01*
X0331068Y0150837D01*
X0331869Y0151237D01*
X0331469Y0150437D01*
X0331869Y0149637D01*
X0331068Y0150037D01*
X0330269Y0149637D01*
X0340268Y0139637D02*
X0340669Y0140437D01*
X0340268Y0141237D01*
X0341069Y0140837D01*
X0341868Y0141237D01*
X0341469Y0140437D01*
X0341868Y0139637D01*
X0341069Y0140037D01*
X0340268Y0139637D01*
Y0149637D02*
X0340669Y0150437D01*
X0340268Y0151237D01*
X0341069Y0150837D01*
X0341868Y0151237D01*
X0341469Y0150437D01*
X0341868Y0149637D01*
X0341069Y0150037D01*
X0340268Y0149637D01*
X0350269Y0139637D02*
X0350669Y0140437D01*
X0350269Y0141237D01*
X0351068Y0140837D01*
X0351869Y0141237D01*
X0351468Y0140437D01*
X0351869Y0139637D01*
X0351068Y0140037D01*
X0350269Y0139637D01*
Y0149637D02*
X0350669Y0150437D01*
X0350269Y0151237D01*
X0351068Y0150837D01*
X0351869Y0151237D01*
X0351468Y0150437D01*
X0351869Y0149637D01*
X0351068Y0150037D01*
X0350269Y0149637D01*
X0360268Y0139637D02*
X0360668Y0140437D01*
X0360268Y0141237D01*
X0361069Y0140837D01*
X0361869Y0141237D01*
X0361469Y0140437D01*
X0361869Y0139637D01*
X0361069Y0140037D01*
X0360268Y0139637D01*
Y0149637D02*
X0360668Y0150437D01*
X0360268Y0151237D01*
X0361069Y0150837D01*
X0361869Y0151237D01*
X0361469Y0150437D01*
X0361869Y0149637D01*
X0361069Y0150037D01*
X0360268Y0149637D01*
X0370269Y0139637D02*
X0370669Y0140437D01*
X0370269Y0141237D01*
X0371069Y0140837D01*
X0371868Y0141237D01*
X0371468Y0140437D01*
X0371868Y0139637D01*
X0371069Y0140037D01*
X0370269Y0139637D01*
X0190269Y0149637D02*
X0190668Y0150437D01*
X0190269Y0151237D01*
X0191068Y0150837D01*
X0191868Y0151237D01*
X0191469Y0150437D01*
X0191868Y0149637D01*
X0191068Y0150037D01*
X0190269Y0149637D01*
X0370269D02*
X0370669Y0150437D01*
X0370269Y0151237D01*
X0371069Y0150837D01*
X0371868Y0151237D01*
X0371468Y0150437D01*
X0371868Y0149637D01*
X0371069Y0150037D01*
X0370269Y0149637D01*
X0190269Y0379637D02*
X0190668Y0380437D01*
X0190269Y0381237D01*
X0191068Y0380837D01*
X0191868Y0381237D01*
X0191469Y0380437D01*
X0191868Y0379637D01*
X0191068Y0380037D01*
X0190269Y0379637D01*
X0200269D02*
X0200669Y0380437D01*
X0200269Y0381237D01*
X0201068Y0380837D01*
X0201869Y0381237D01*
X0201468Y0380437D01*
X0201869Y0379637D01*
X0201068Y0380037D01*
X0200269Y0379637D01*
Y0389637D02*
X0200669Y0390437D01*
X0200269Y0391237D01*
X0201068Y0390837D01*
X0201869Y0391237D01*
X0201468Y0390437D01*
X0201869Y0389637D01*
X0201068Y0390037D01*
X0200269Y0389637D01*
X0210268Y0379637D02*
X0210668Y0380437D01*
X0210268Y0381237D01*
X0211069Y0380837D01*
X0211869Y0381237D01*
X0211469Y0380437D01*
X0211869Y0379637D01*
X0211069Y0380037D01*
X0210268Y0379637D01*
Y0389637D02*
X0210668Y0390437D01*
X0210268Y0391237D01*
X0211069Y0390837D01*
X0211869Y0391237D01*
X0211469Y0390437D01*
X0211869Y0389637D01*
X0211069Y0390037D01*
X0210268Y0389637D01*
X0220269Y0379637D02*
X0220669Y0380437D01*
X0220269Y0381237D01*
X0221069Y0380837D01*
X0221868Y0381237D01*
X0221468Y0380437D01*
X0221868Y0379637D01*
X0221069Y0380037D01*
X0220269Y0379637D01*
Y0389637D02*
X0220669Y0390437D01*
X0220269Y0391237D01*
X0221069Y0390837D01*
X0221868Y0391237D01*
X0221468Y0390437D01*
X0221868Y0389637D01*
X0221069Y0390037D01*
X0220269Y0389637D01*
X0230269Y0379637D02*
X0230668Y0380437D01*
X0230269Y0381237D01*
X0231068Y0380837D01*
X0231869Y0381237D01*
X0231469Y0380437D01*
X0231869Y0379637D01*
X0231068Y0380037D01*
X0230269Y0379637D01*
Y0389637D02*
X0230668Y0390437D01*
X0230269Y0391237D01*
X0231068Y0390837D01*
X0231869Y0391237D01*
X0231469Y0390437D01*
X0231869Y0389637D01*
X0231068Y0390037D01*
X0230269Y0389637D01*
X0240268Y0379637D02*
X0240669Y0380437D01*
X0240268Y0381237D01*
X0241069Y0380837D01*
X0241868Y0381237D01*
X0241469Y0380437D01*
X0241868Y0379637D01*
X0241069Y0380037D01*
X0240268Y0379637D01*
Y0389637D02*
X0240669Y0390437D01*
X0240268Y0391237D01*
X0241069Y0390837D01*
X0241868Y0391237D01*
X0241469Y0390437D01*
X0241868Y0389637D01*
X0241069Y0390037D01*
X0240268Y0389637D01*
X0250269Y0379637D02*
X0250669Y0380437D01*
X0250269Y0381237D01*
X0251068Y0380837D01*
X0251869Y0381237D01*
X0251468Y0380437D01*
X0251869Y0379637D01*
X0251068Y0380037D01*
X0250269Y0379637D01*
Y0389637D02*
X0250669Y0390437D01*
X0250269Y0391237D01*
X0251068Y0390837D01*
X0251869Y0391237D01*
X0251468Y0390437D01*
X0251869Y0389637D01*
X0251068Y0390037D01*
X0250269Y0389637D01*
X0260268Y0379637D02*
X0260668Y0380437D01*
X0260268Y0381237D01*
X0261069Y0380837D01*
X0261869Y0381237D01*
X0261469Y0380437D01*
X0261869Y0379637D01*
X0261069Y0380037D01*
X0260268Y0379637D01*
Y0389637D02*
X0260668Y0390437D01*
X0260268Y0391237D01*
X0261069Y0390837D01*
X0261869Y0391237D01*
X0261469Y0390437D01*
X0261869Y0389637D01*
X0261069Y0390037D01*
X0260268Y0389637D01*
X0270269Y0379637D02*
X0270669Y0380437D01*
X0270269Y0381237D01*
X0271069Y0380837D01*
X0271868Y0381237D01*
X0271468Y0380437D01*
X0271868Y0379637D01*
X0271069Y0380037D01*
X0270269Y0379637D01*
Y0389637D02*
X0270669Y0390437D01*
X0270269Y0391237D01*
X0271069Y0390837D01*
X0271868Y0391237D01*
X0271468Y0390437D01*
X0271868Y0389637D01*
X0271069Y0390037D01*
X0270269Y0389637D01*
X0280269Y0379637D02*
X0280668Y0380437D01*
X0280269Y0381237D01*
X0281068Y0380837D01*
X0281869Y0381237D01*
X0281469Y0380437D01*
X0281869Y0379637D01*
X0281068Y0380037D01*
X0280269Y0379637D01*
Y0389637D02*
X0280668Y0390437D01*
X0280269Y0391237D01*
X0281068Y0390837D01*
X0281869Y0391237D01*
X0281469Y0390437D01*
X0281869Y0389637D01*
X0281068Y0390037D01*
X0280269Y0389637D01*
X0290268Y0379637D02*
X0290669Y0380437D01*
X0290268Y0381237D01*
X0291069Y0380837D01*
X0291868Y0381237D01*
X0291469Y0380437D01*
X0291868Y0379637D01*
X0291069Y0380037D01*
X0290268Y0379637D01*
Y0389637D02*
X0290669Y0390437D01*
X0290268Y0391237D01*
X0291069Y0390837D01*
X0291868Y0391237D01*
X0291469Y0390437D01*
X0291868Y0389637D01*
X0291069Y0390037D01*
X0290268Y0389637D01*
X0300269Y0379637D02*
X0300669Y0380437D01*
X0300269Y0381237D01*
X0301068Y0380837D01*
X0301869Y0381237D01*
X0301468Y0380437D01*
X0301869Y0379637D01*
X0301068Y0380037D01*
X0300269Y0379637D01*
Y0389637D02*
X0300669Y0390437D01*
X0300269Y0391237D01*
X0301068Y0390837D01*
X0301869Y0391237D01*
X0301468Y0390437D01*
X0301869Y0389637D01*
X0301068Y0390037D01*
X0300269Y0389637D01*
X0310268Y0379637D02*
X0310668Y0380437D01*
X0310268Y0381237D01*
X0311069Y0380837D01*
X0311869Y0381237D01*
X0311469Y0380437D01*
X0311869Y0379637D01*
X0311069Y0380037D01*
X0310268Y0379637D01*
Y0389637D02*
X0310668Y0390437D01*
X0310268Y0391237D01*
X0311069Y0390837D01*
X0311869Y0391237D01*
X0311469Y0390437D01*
X0311869Y0389637D01*
X0311069Y0390037D01*
X0310268Y0389637D01*
X0320269Y0379637D02*
X0320669Y0380437D01*
X0320269Y0381237D01*
X0321069Y0380837D01*
X0321868Y0381237D01*
X0321468Y0380437D01*
X0321868Y0379637D01*
X0321069Y0380037D01*
X0320269Y0379637D01*
Y0389637D02*
X0320669Y0390437D01*
X0320269Y0391237D01*
X0321069Y0390837D01*
X0321868Y0391237D01*
X0321468Y0390437D01*
X0321868Y0389637D01*
X0321069Y0390037D01*
X0320269Y0389637D01*
X0330269Y0379637D02*
X0330668Y0380437D01*
X0330269Y0381237D01*
X0331068Y0380837D01*
X0331869Y0381237D01*
X0331469Y0380437D01*
X0331869Y0379637D01*
X0331068Y0380037D01*
X0330269Y0379637D01*
Y0389637D02*
X0330668Y0390437D01*
X0330269Y0391237D01*
X0331068Y0390837D01*
X0331869Y0391237D01*
X0331469Y0390437D01*
X0331869Y0389637D01*
X0331068Y0390037D01*
X0330269Y0389637D01*
X0340268Y0379637D02*
X0340669Y0380437D01*
X0340268Y0381237D01*
X0341069Y0380837D01*
X0341868Y0381237D01*
X0341469Y0380437D01*
X0341868Y0379637D01*
X0341069Y0380037D01*
X0340268Y0379637D01*
Y0389637D02*
X0340669Y0390437D01*
X0340268Y0391237D01*
X0341069Y0390837D01*
X0341868Y0391237D01*
X0341469Y0390437D01*
X0341868Y0389637D01*
X0341069Y0390037D01*
X0340268Y0389637D01*
X0350269Y0379637D02*
X0350669Y0380437D01*
X0350269Y0381237D01*
X0351068Y0380837D01*
X0351869Y0381237D01*
X0351468Y0380437D01*
X0351869Y0379637D01*
X0351068Y0380037D01*
X0350269Y0379637D01*
Y0389637D02*
X0350669Y0390437D01*
X0350269Y0391237D01*
X0351068Y0390837D01*
X0351869Y0391237D01*
X0351468Y0390437D01*
X0351869Y0389637D01*
X0351068Y0390037D01*
X0350269Y0389637D01*
X0360268Y0379637D02*
X0360668Y0380437D01*
X0360268Y0381237D01*
X0361069Y0380837D01*
X0361869Y0381237D01*
X0361469Y0380437D01*
X0361869Y0379637D01*
X0361069Y0380037D01*
X0360268Y0379637D01*
Y0389637D02*
X0360668Y0390437D01*
X0360268Y0391237D01*
X0361069Y0390837D01*
X0361869Y0391237D01*
X0361469Y0390437D01*
X0361869Y0389637D01*
X0361069Y0390037D01*
X0360268Y0389637D01*
X0370269Y0379637D02*
X0370669Y0380437D01*
X0370269Y0381237D01*
X0371069Y0380837D01*
X0371868Y0381237D01*
X0371468Y0380437D01*
X0371868Y0379637D01*
X0371069Y0380037D01*
X0370269Y0379637D01*
X0190269Y0389637D02*
X0190668Y0390437D01*
X0190269Y0391237D01*
X0191068Y0390837D01*
X0191868Y0391237D01*
X0191469Y0390437D01*
X0191868Y0389637D01*
X0191068Y0390037D01*
X0190269Y0389637D01*
X0370269D02*
X0370669Y0390437D01*
X0370269Y0391237D01*
X0371069Y0390837D01*
X0371868Y0391237D01*
X0371468Y0390437D01*
X0371868Y0389637D01*
X0371069Y0390037D01*
X0370269Y0389637D01*
X04115Y045205D02*
X04107Y045365D01*
X04123D01*
X04115Y045205D01*
X01446Y0096825D02*
Y0096425D01*
X01454D01*
Y0096825D01*
X01458D01*
Y0097625D01*
X01454D01*
Y0098025D01*
X01446D01*
Y0097625D01*
X01442D01*
Y0096825D01*
X01446D01*
X0521198Y045238D02*
Y0451979D01*
X0521998D01*
Y045238D01*
X0522398D01*
Y045318D01*
X0521998D01*
Y045358D01*
X0521198D01*
Y045318D01*
X0520798D01*
Y045238D01*
X0521198D01*
X029046Y0356773D02*
X029126Y0357573D01*
X029206Y0356773D01*
X029126Y0355973D01*
X029046Y0356773D01*
X03006Y03587D02*
X03014Y03595D01*
X03022Y03587D01*
X03014Y03579D01*
X03006Y03587D01*
X015Y02403D02*
X01508Y02411D01*
X01516Y02403D01*
X01508Y02395D01*
X015Y02403D01*
X02Y02005D02*
X02008Y02013D01*
X02016Y02005D01*
X02008Y01997D01*
X02Y02005D01*
X0131288Y03543D02*
X0132088Y03551D01*
X0132888Y03543D01*
X0132088Y03535D01*
X0131288Y03543D01*
X02042Y01894D02*
X0205Y01902D01*
X02058Y01894D01*
X0205Y01886D01*
X02042Y01894D01*
X02085Y01933D02*
X02093Y01941D01*
X02101Y01933D01*
X02093Y01925D01*
X02085Y01933D01*
X02211Y01005D02*
X02219Y01013D01*
X02227Y01005D01*
X02219Y00997D01*
X02211Y01005D01*
X03017Y00986D02*
X03025Y00994D01*
X03033Y00986D01*
X03025Y00978D01*
X03017Y00986D01*
X0185213Y0099013D02*
X0186013Y0099813D01*
X0186813Y0099013D01*
X0186013Y0098213D01*
X0185213Y0099013D01*
X01931Y00991D02*
X01939Y00999D01*
X01947Y00991D01*
X01939Y00983D01*
X01931Y00991D01*
X02777Y0121562D02*
X02785Y0122362D01*
X02793Y0121562D01*
X02785Y0120762D01*
X02777Y0121562D01*
X02836Y01003D02*
X02844Y01011D01*
X02852Y01003D01*
X02844Y00995D01*
X02836Y01003D01*
X02355Y0107D02*
X02363Y01078D01*
X02371Y0107D01*
X02363Y01062D01*
X02355Y0107D01*
X02342Y045D02*
X0235Y04508D01*
X02358Y045D01*
X0235Y04492D01*
X02342Y045D01*
X02492Y044D02*
X025Y04408D01*
X02508Y044D01*
X025Y04392D01*
X02492Y044D01*
X02542Y043D02*
X0255Y04308D01*
X02558Y043D01*
X0255Y04292D01*
X02542Y043D01*
Y0445D02*
X0255Y04458D01*
X02558Y0445D01*
X0255Y04442D01*
X02542Y0445D01*
X03042D02*
X0305Y04458D01*
X03058Y0445D01*
X0305Y04442D01*
X03042Y0445D01*
X03142D02*
X0315Y04458D01*
X03158Y0445D01*
X0315Y04442D01*
X03142Y0445D01*
X03242D02*
X0325Y04458D01*
X03258Y0445D01*
X0325Y04442D01*
X03242Y0445D01*
X03342D02*
X0335Y04458D01*
X03358Y0445D01*
X0335Y04442D01*
X03342Y0445D01*
X03542Y043D02*
X0355Y04308D01*
X03558Y043D01*
X0355Y04292D01*
X03542Y043D01*
Y044D02*
X0355Y04408D01*
X03558Y044D01*
X0355Y04392D01*
X03542Y044D01*
X04192Y046D02*
X042Y04608D01*
X04208Y046D01*
X042Y04592D01*
X04192Y046D01*
X04292D02*
X043Y04608D01*
X04308Y046D01*
X043Y04592D01*
X04292Y046D01*
X04242Y0465D02*
X0425Y04658D01*
X04258Y0465D01*
X0425Y04642D01*
X04242Y0465D01*
X04342Y0425D02*
X0435Y04258D01*
X04358Y0425D01*
X0435Y04242D01*
X04342Y0425D01*
Y0435D02*
X0435Y04358D01*
X04358Y0435D01*
X0435Y04342D01*
X04342Y0435D01*
Y0445D02*
X0435Y04458D01*
X04358Y0445D01*
X0435Y04442D01*
X04342Y0445D01*
Y0455D02*
X0435Y04558D01*
X04358Y0455D01*
X0435Y04542D01*
X04342Y0455D01*
X04392Y045D02*
X044Y04508D01*
X04408Y045D01*
X044Y04492D01*
X04392Y045D01*
X04442Y0455D02*
X0445Y04558D01*
X04458Y0455D01*
X0445Y04542D01*
X04442Y0455D01*
X01997Y02294D02*
X02005Y02302D01*
X02013Y02294D01*
X02005Y02286D01*
X01997Y02294D01*
X0209297Y0221203D02*
X0210097Y0222003D01*
X0210897Y0221203D01*
X0210097Y0220403D01*
X0209297Y0221203D01*
X02163Y0225D02*
X02171Y02258D01*
X02179Y0225D01*
X02171Y02242D01*
X02163Y0225D01*
X02083Y02084D02*
X02091Y02092D01*
X02099Y02084D01*
X02091Y02076D01*
X02083Y02084D01*
X02128Y02131D02*
X02136Y02139D01*
X02144Y02131D01*
X02136Y02123D01*
X02128Y02131D01*
X02171Y02173D02*
X02179Y02181D01*
X02187Y02173D01*
X02179Y02165D01*
X02171Y02173D01*
X01893Y02292D02*
X01901Y023D01*
X01909Y02292D01*
X01901Y02284D01*
X01893Y02292D01*
X0204Y02043D02*
X02048Y02051D01*
X02056Y02043D01*
X02048Y02035D01*
X0204Y02043D01*
X02173Y02024D02*
X02181Y02032D01*
X02189Y02024D01*
X02181Y02016D01*
X02173Y02024D01*
X02132Y01974D02*
X0214Y01982D01*
X02148Y01974D01*
X0214Y01966D01*
X02132Y01974D01*
X01732Y01243D02*
X0174Y01251D01*
X01748Y01243D01*
X0174Y01235D01*
X01732Y01243D01*
X01999Y01858D02*
X02007Y01866D01*
X02015Y01858D01*
X02007Y0185D01*
X01999Y01858D01*
X01846Y02449D02*
X01854Y02457D01*
X01862Y02449D01*
X01854Y02441D01*
X01846Y02449D01*
X02111Y03714D02*
X02119Y03722D01*
X02127Y03714D01*
X02119Y03706D01*
X02111Y03714D01*
X02247Y03757D02*
X02255Y03765D01*
X02263Y03757D01*
X02255Y03749D01*
X02247Y03757D01*
X01501Y01876D02*
X01509Y01884D01*
X01517Y01876D01*
X01509Y01868D01*
X01501Y01876D01*
X01722Y02026D02*
X0173Y02034D01*
X01738Y02026D01*
X0173Y02018D01*
X01722Y02026D01*
X01399Y02274D02*
X01407Y02282D01*
X01415Y02274D01*
X01407Y02266D01*
X01399Y02274D01*
X01321Y03796D02*
X01329Y03804D01*
X01337Y03796D01*
X01329Y03788D01*
X01321Y03796D01*
X024185Y044395D02*
X024265Y044475D01*
X024345Y044395D01*
X024265Y044315D01*
X024185Y044395D01*
X01792Y02043D02*
X018Y02051D01*
X01808Y02043D01*
X018Y02035D01*
X01792Y02043D01*
X01792Y01947D02*
X018Y01955D01*
X01808Y01947D01*
X018Y01939D01*
X01792Y01947D01*
X01894Y02207D02*
X01902Y02215D01*
X0191Y02207D01*
X01902Y02199D01*
X01894Y02207D01*
X03084Y01188D02*
X03092Y01196D01*
X031Y01188D01*
X03092Y0118D01*
X03084Y01188D01*
X03194Y0124188D02*
X03202Y0124988D01*
X0321Y0124188D01*
X03202Y0123388D01*
X03194Y0124188D01*
X03424Y01294D02*
X03432Y01302D01*
X0344Y01294D01*
X03432Y01286D01*
X03424Y01294D01*
X03454Y01351D02*
X03462Y01359D01*
X0347Y01351D01*
X03462Y01343D01*
X03454Y01351D01*
X0413963Y0357763D02*
X0414763Y0358563D01*
X0415563Y0357763D01*
X0414763Y0356963D01*
X0413963Y0357763D01*
X04531Y02511D02*
X04539Y02519D01*
X04547Y02511D01*
X04539Y02503D01*
X04531Y02511D01*
X04139Y03489D02*
X04147Y03497D01*
X04155Y03489D01*
X04147Y03481D01*
X04139Y03489D01*
X0445Y02996D02*
X04458Y03004D01*
X04466Y02996D01*
X04458Y02988D01*
X0445Y02996D01*
X04521Y02931D02*
X04529Y02939D01*
X04537Y02931D01*
X04529Y02923D01*
X04521Y02931D01*
X02742Y03712D02*
X0275Y0372D01*
X02758Y03712D01*
X0275Y03704D01*
X02742Y03712D01*
X03201Y0365D02*
X03209Y03658D01*
X03217Y0365D01*
X03209Y03642D01*
X03201Y0365D01*
X04493Y03231D02*
X04501Y03239D01*
X04509Y03231D01*
X04501Y03223D01*
X04493Y03231D01*
X03451Y00998D02*
X03459Y01006D01*
X03467Y00998D01*
X03459Y0099D01*
X03451Y00998D01*
X04935Y00886D02*
X04943Y00894D01*
X04951Y00886D01*
X04943Y00878D01*
X04935Y00886D01*
X01725Y022D02*
X01733Y02208D01*
X01741Y022D01*
X01733Y02192D01*
X01725Y022D01*
X01472Y02347D02*
X0148Y02355D01*
X01488Y02347D01*
X0148Y02339D01*
X01472Y02347D01*
X01955Y01247D02*
X01963Y01255D01*
X01971Y01247D01*
X01963Y01239D01*
X01955Y01247D01*
X02052Y01221D02*
X0206Y01229D01*
X02068Y01221D01*
X0206Y01213D01*
X02052Y01221D01*
X01813Y01185D02*
X01821Y01193D01*
X01829Y01185D01*
X01821Y01177D01*
X01813Y01185D01*
X01814Y01245D02*
X01822Y01253D01*
X0183Y01245D01*
X01822Y01237D01*
X01814Y01245D01*
X01434Y02003D02*
X01442Y02011D01*
X0145Y02003D01*
X01442Y01995D01*
X01434Y02003D01*
X0147Y02158D02*
X01478Y02166D01*
X01486Y02158D01*
X01478Y0215D01*
X0147Y02158D01*
X01472Y02081D02*
X0148Y02089D01*
X01488Y02081D01*
X0148Y02073D01*
X01472Y02081D01*
X03154Y01208D02*
X03162Y01216D01*
X0317Y01208D01*
X03162Y012D01*
X03154Y01208D01*
X026Y01332D02*
X02608Y0134D01*
X02616Y01332D01*
X02608Y01324D01*
X026Y01332D01*
X02467Y01243D02*
X02475Y01251D01*
X02483Y01243D01*
X02475Y01235D01*
X02467Y01243D01*
X0310184Y0170016D02*
X0310984Y0170816D01*
X0311784Y0170016D01*
X0310984Y0169216D01*
X0310184Y0170016D01*
X01501Y01825D02*
X01509Y01833D01*
X01517Y01825D01*
X01509Y01817D01*
X01501Y01825D01*
X03804Y01376D02*
X03812Y01384D01*
X0382Y01376D01*
X03812Y01368D01*
X03804Y01376D01*
X03805Y01845D02*
X03813Y01853D01*
X03821Y01845D01*
X03813Y01837D01*
X03805Y01845D01*
X03847Y0181D02*
X03855Y01818D01*
X03863Y0181D01*
X03855Y01802D01*
X03847Y0181D01*
X035Y01206D02*
X03508Y01214D01*
X03516Y01206D01*
X03508Y01198D01*
X035Y01206D01*
X03621Y0124D02*
X03629Y01248D01*
X03637Y0124D01*
X03629Y01232D01*
X03621Y0124D01*
X02937Y01665D02*
X02945Y01673D01*
X02953Y01665D01*
X02945Y01657D01*
X02937Y01665D01*
X02744Y01692D02*
X02752Y017D01*
X0276Y01692D01*
X02752Y01684D01*
X02744Y01692D01*
X02692Y0162D02*
X027Y01628D01*
X02708Y0162D01*
X027Y01612D01*
X02692Y0162D01*
X02627Y01575D02*
X02635Y01583D01*
X02643Y01575D01*
X02635Y01567D01*
X02627Y01575D01*
X03206Y0169937D02*
X03214Y0170737D01*
X03222Y0169937D01*
X03214Y0169137D01*
X03206Y0169937D01*
X03631Y04045D02*
X03639Y04053D01*
X03647Y04045D01*
X03639Y04037D01*
X03631Y04045D01*
X04802Y0247D02*
X0481Y02478D01*
X04818Y0247D01*
X0481Y02462D01*
X04802Y0247D01*
X04852Y0243D02*
X0486Y02438D01*
X04868Y0243D01*
X0486Y02422D01*
X04852Y0243D01*
X04907Y0225D02*
X04915Y02258D01*
X04923Y0225D01*
X04915Y02242D01*
X04907Y0225D01*
Y02325D02*
X04915Y02333D01*
X04923Y02325D01*
X04915Y02317D01*
X04907Y02325D01*
X04992Y046D02*
X05Y04608D01*
X05008Y046D01*
X05Y04592D01*
X04992Y046D01*
X04492D02*
X045Y04608D01*
X04508Y046D01*
X045Y04592D01*
X04492Y046D01*
X04392D02*
X044Y04608D01*
X04408Y046D01*
X044Y04592D01*
X04392Y046D01*
X03492Y0465D02*
X035Y04658D01*
X03508Y0465D01*
X035Y04642D01*
X03492Y0465D01*
X03892D02*
X039Y04658D01*
X03908Y0465D01*
X039Y04642D01*
X03892Y0465D01*
X03792D02*
X038Y04658D01*
X03808Y0465D01*
X038Y04642D01*
X03792Y0465D01*
X03692D02*
X037Y04658D01*
X03708Y0465D01*
X037Y04642D01*
X03692Y0465D01*
X03592D02*
X036Y04658D01*
X03608Y0465D01*
X036Y04642D01*
X03592Y0465D01*
X01542Y0435D02*
X0155Y04358D01*
X01558Y0435D01*
X0155Y04342D01*
X01542Y0435D01*
X04342Y0465D02*
X0435Y04658D01*
X04358Y0465D01*
X0435Y04642D01*
X04342Y0465D01*
X04442D02*
X0445Y04658D01*
X04458Y0465D01*
X0445Y04642D01*
X04442Y0465D01*
X04542D02*
X0455Y04658D01*
X04558Y0465D01*
X0455Y04642D01*
X04542Y0465D01*
X04642D02*
X0465Y04658D01*
X04658Y0465D01*
X0465Y04642D01*
X04642Y0465D01*
X04742D02*
X0475Y04658D01*
X04758Y0465D01*
X0475Y04642D01*
X04742Y0465D01*
X04842D02*
X0485Y04658D01*
X04858Y0465D01*
X0485Y04642D01*
X04842Y0465D01*
X04942D02*
X0495Y04658D01*
X04958Y0465D01*
X0495Y04642D01*
X04942Y0465D01*
X05042D02*
X0505Y04658D01*
X05058Y0465D01*
X0505Y04642D01*
X05042Y0465D01*
X05142Y043D02*
X0515Y04308D01*
X05158Y043D01*
X0515Y04292D01*
X05142Y043D01*
X04942D02*
X0495Y04308D01*
X04958Y043D01*
X0495Y04292D01*
X04942Y043D01*
X05042D02*
X0505Y04308D01*
X05058Y043D01*
X0505Y04292D01*
X05042Y043D01*
Y044D02*
X0505Y04408D01*
X05058Y044D01*
X0505Y04392D01*
X05042Y044D01*
X04942D02*
X0495Y04408D01*
X04958Y044D01*
X0495Y04392D01*
X04942Y044D01*
X04842D02*
X0485Y04408D01*
X04858Y044D01*
X0485Y04392D01*
X04842Y044D01*
X05042Y039D02*
X0505Y03908D01*
X05058Y039D01*
X0505Y03892D01*
X05042Y039D01*
X04942D02*
X0495Y03908D01*
X04958Y039D01*
X0495Y03892D01*
X04942Y039D01*
X04842D02*
X0485Y03908D01*
X04858Y039D01*
X0485Y03892D01*
X04842Y039D01*
X04742D02*
X0475Y03908D01*
X04758Y039D01*
X0475Y03892D01*
X04742Y039D01*
X04792Y0395D02*
X048Y03958D01*
X04808Y0395D01*
X048Y03942D01*
X04792Y0395D01*
Y0385D02*
X048Y03858D01*
X04808Y0385D01*
X048Y03842D01*
X04792Y0385D01*
X04892D02*
X049Y03858D01*
X04908Y0385D01*
X049Y03842D01*
X04892Y0385D01*
X05195Y03327D02*
X05203Y03335D01*
X05211Y03327D01*
X05203Y03319D01*
X05195Y03327D01*
X01542Y0415D02*
X0155Y04158D01*
X01558Y0415D01*
X0155Y04142D01*
X01542Y0415D01*
X04942Y034D02*
X0495Y03408D01*
X04958Y034D01*
X0495Y03392D01*
X04942Y034D01*
X05042D02*
X0505Y03408D01*
X05058Y034D01*
X0505Y03392D01*
X05042Y034D01*
X05142D02*
X0515Y03408D01*
X05158Y034D01*
X0515Y03392D01*
X05142Y034D01*
Y035D02*
X0515Y03508D01*
X05158Y035D01*
X0515Y03492D01*
X05142Y035D01*
X05042D02*
X0505Y03508D01*
X05058Y035D01*
X0505Y03492D01*
X05042Y035D01*
X04942D02*
X0495Y03508D01*
X04958Y035D01*
X0495Y03492D01*
X04942Y035D01*
Y036D02*
X0495Y03608D01*
X04958Y036D01*
X0495Y03592D01*
X04942Y036D01*
X05042D02*
X0505Y03608D01*
X05058Y036D01*
X0505Y03592D01*
X05042Y036D01*
X05142D02*
X0515Y03608D01*
X05158Y036D01*
X0515Y03592D01*
X05142Y036D01*
X04992Y0385D02*
X05Y03858D01*
X05008Y0385D01*
X05Y03842D01*
X04992Y0385D01*
Y0395D02*
X05Y03958D01*
X05008Y0395D01*
X05Y03942D01*
X04992Y0395D01*
X04892D02*
X049Y03958D01*
X04908Y0395D01*
X049Y03942D01*
X04892Y0395D01*
X05192Y0435D02*
X052Y04358D01*
X05208Y0435D01*
X052Y04342D01*
X05192Y0435D01*
X05092D02*
X051Y04358D01*
X05108Y0435D01*
X051Y04342D01*
X05092Y0435D01*
X04992Y0445D02*
X05Y04458D01*
X05008Y0445D01*
X05Y04442D01*
X04992Y0445D01*
Y0435D02*
X05Y04358D01*
X05008Y0435D01*
X05Y04342D01*
X04992Y0435D01*
X04892D02*
X049Y04358D01*
X04908Y0435D01*
X049Y04342D01*
X04892Y0435D01*
X04792D02*
X048Y04358D01*
X04808Y0435D01*
X048Y04342D01*
X04792Y0435D01*
Y0445D02*
X048Y04458D01*
X04808Y0445D01*
X048Y04442D01*
X04792Y0445D01*
X04892D02*
X049Y04458D01*
X04908Y0445D01*
X049Y04442D01*
X04892Y0445D01*
X05342Y033D02*
X0535Y03308D01*
X05358Y033D01*
X0535Y03292D01*
X05342Y033D01*
Y035D02*
X0535Y03508D01*
X05358Y035D01*
X0535Y03492D01*
X05342Y035D01*
Y0375D02*
X0535Y03758D01*
X05358Y0375D01*
X0535Y03742D01*
X05342Y0375D01*
Y0395D02*
X0535Y03958D01*
X05358Y0395D01*
X0535Y03942D01*
X05342Y0395D01*
Y0405D02*
X0535Y04058D01*
X05358Y0405D01*
X0535Y04042D01*
X05342Y0405D01*
Y0415D02*
X0535Y04158D01*
X05358Y0415D01*
X0535Y04142D01*
X05342Y0415D01*
Y0425D02*
X0535Y04258D01*
X05358Y0425D01*
X0535Y04242D01*
X05342Y0425D01*
Y0435D02*
X0535Y04358D01*
X05358Y0435D01*
X0535Y04342D01*
X05342Y0435D01*
X01442Y043D02*
X0145Y04308D01*
X01458Y043D01*
X0145Y04292D01*
X01442Y043D01*
Y042D02*
X0145Y04208D01*
X01458Y042D01*
X0145Y04192D01*
X01442Y042D01*
Y041D02*
X0145Y04108D01*
X01458Y041D01*
X0145Y04092D01*
X01442Y041D01*
X01342Y0395D02*
X0135Y03958D01*
X01358Y0395D01*
X0135Y03942D01*
X01342Y0395D01*
Y0405D02*
X0135Y04058D01*
X01358Y0405D01*
X0135Y04042D01*
X01342Y0405D01*
Y0415D02*
X0135Y04158D01*
X01358Y0415D01*
X0135Y04142D01*
X01342Y0415D01*
Y0425D02*
X0135Y04258D01*
X01358Y0425D01*
X0135Y04242D01*
X01342Y0425D01*
Y0435D02*
X0135Y04358D01*
X01358Y0435D01*
X0135Y04342D01*
X01342Y0435D01*
X052555Y043195D02*
X052635Y043275D01*
X052715Y043195D01*
X052635Y043115D01*
X052555Y043195D01*
X05199Y03775D02*
X05207Y03783D01*
X05215Y03775D01*
X05207Y03767D01*
X05199Y03775D01*
X04757Y02539D02*
X04765Y02547D01*
X04773Y02539D01*
X04765Y02531D01*
X04757Y02539D01*
X0509Y02679D02*
X05098Y02687D01*
X05106Y02679D01*
X05098Y02671D01*
X0509Y02679D01*
X04971Y0172D02*
X04979Y01728D01*
X04987Y0172D01*
X04979Y01712D01*
X04971Y0172D01*
X04769Y01258D02*
X04777Y01266D01*
X04785Y01258D01*
X04777Y0125D01*
X04769Y01258D01*
X02292Y042D02*
X023Y04208D01*
X02308Y042D01*
X023Y04192D01*
X02292Y042D01*
X05254Y0118D02*
X05262Y01188D01*
X0527Y0118D01*
X05262Y01172D01*
X05254Y0118D01*
X05256Y01427D02*
X05264Y01435D01*
X05272Y01427D01*
X05264Y01419D01*
X05256Y01427D01*
X0522Y01014D02*
X05228Y01022D01*
X05236Y01014D01*
X05228Y01006D01*
X0522Y01014D01*
X05209Y01717D02*
X05217Y01725D01*
X05225Y01717D01*
X05217Y01709D01*
X05209Y01717D01*
X04952Y01056D02*
X0496Y01064D01*
X04968Y01056D01*
X0496Y01048D01*
X04952Y01056D01*
X04867Y01965D02*
Y01981D01*
X04883D01*
Y01965D01*
X04867D01*
X04871Y01969D02*
Y01977D01*
X04879D01*
Y01969D01*
X04871D01*
X04233Y01006D02*
X04241Y01014D01*
X04249Y01006D01*
X04241Y00998D01*
X04233Y01006D01*
X04154Y01007D02*
X04162Y01015D01*
X0417Y01007D01*
X04162Y00999D01*
X04154Y01007D01*
X0496728Y0324072D02*
Y0325672D01*
X0498328D01*
Y0324072D01*
X0496728D01*
X0497128Y0324472D02*
Y0325272D01*
X0497928D01*
Y0324472D01*
X0497128D01*
X04305Y04138D02*
Y04154D01*
X04321D01*
Y04138D01*
X04305D01*
X04309Y04142D02*
Y0415D01*
X04317D01*
Y04142D01*
X04309D01*
X02753Y04045D02*
X02761Y04053D01*
X02769Y04045D01*
X02761Y04037D01*
X02753Y04045D01*
X02692Y042D02*
X027Y04208D01*
X02708Y042D01*
X027Y04192D01*
X02692Y042D01*
X02742Y0415D02*
X0275Y04158D01*
X02758Y0415D01*
X0275Y04142D01*
X02742Y0415D01*
X02792Y042D02*
X028Y04208D01*
X02808Y042D01*
X028Y04192D01*
X02792Y042D01*
X02842Y0415D02*
X0285Y04158D01*
X02858Y0415D01*
X0285Y04142D01*
X02842Y0415D01*
X02892Y042D02*
X029Y04208D01*
X02908Y042D01*
X029Y04192D01*
X02892Y042D01*
X02942Y0415D02*
X0295Y04158D01*
X02958Y0415D01*
X0295Y04142D01*
X02942Y0415D01*
X02992Y042D02*
X03Y04208D01*
X03008Y042D01*
X03Y04192D01*
X02992Y042D01*
X03042Y0415D02*
X0305Y04158D01*
X03058Y0415D01*
X0305Y04142D01*
X03042Y0415D01*
X03092Y042D02*
X031Y04208D01*
X03108Y042D01*
X031Y04192D01*
X03092Y042D01*
X03142Y0415D02*
X0315Y04158D01*
X03158Y0415D01*
X0315Y04142D01*
X03142Y0415D01*
X03292Y042D02*
X033Y04208D01*
X03308Y042D01*
X033Y04192D01*
X03292Y042D01*
X03342Y0415D02*
X0335Y04158D01*
X03358Y0415D01*
X0335Y04142D01*
X03342Y0415D01*
X03392Y042D02*
X034Y04208D01*
X03408Y042D01*
X034Y04192D01*
X03392Y042D01*
X03542D02*
X0355Y04208D01*
X03558Y042D01*
X0355Y04192D01*
X03542Y042D01*
X03592Y0415D02*
X036Y04158D01*
X03608Y0415D01*
X036Y04142D01*
X03592Y0415D01*
X03642Y042D02*
X0365Y04208D01*
X03658Y042D01*
X0365Y04192D01*
X03642Y042D01*
X03692Y0415D02*
X037Y04158D01*
X03708Y0415D01*
X037Y04142D01*
X03692Y0415D01*
X03742Y042D02*
X0375Y04208D01*
X03758Y042D01*
X0375Y04192D01*
X03742Y042D01*
X03792Y0415D02*
X038Y04158D01*
X03808Y0415D01*
X038Y04142D01*
X03792Y0415D01*
X03842Y042D02*
X0385Y04208D01*
X03858Y042D01*
X0385Y04192D01*
X03842Y042D01*
X03892Y0415D02*
X039Y04158D01*
X03908Y0415D01*
X039Y04142D01*
X03892Y0415D01*
X03942Y042D02*
X0395Y04208D01*
X03958Y042D01*
X0395Y04192D01*
X03942Y042D01*
X01742Y0425D02*
X0175Y04258D01*
X01758Y0425D01*
X0175Y04242D01*
X01742Y0425D01*
X02042D02*
X0205Y04258D01*
X02058Y0425D01*
X0205Y04242D01*
X02042Y0425D01*
X01992Y042D02*
X02Y04208D01*
X02008Y042D01*
X02Y04192D01*
X01992Y042D01*
X01792D02*
X018Y04208D01*
X01808Y042D01*
X018Y04192D01*
X01792Y042D01*
X01842Y0425D02*
X0185Y04258D01*
X01858Y0425D01*
X0185Y04242D01*
X01842Y0425D01*
X02492Y042D02*
X025Y04208D01*
X02508Y042D01*
X025Y04192D01*
X02492Y042D01*
Y0425D02*
X025Y04258D01*
X02508Y0425D01*
X025Y04242D01*
X02492Y0425D01*
X02342D02*
X0235Y04258D01*
X02358Y0425D01*
X0235Y04242D01*
X02342Y0425D01*
Y042D02*
X0235Y04208D01*
X02358Y042D01*
X0235Y04192D01*
X02342Y042D01*
X02292Y0425D02*
X023Y04258D01*
X02308Y0425D01*
X023Y04242D01*
X02292Y0425D01*
X02142D02*
X0215Y04258D01*
X02158Y0425D01*
X0215Y04242D01*
X02142Y0425D01*
X02092Y042D02*
X021Y04208D01*
X02108Y042D01*
X021Y04192D01*
X02092Y042D01*
X01942Y0425D02*
X0195Y04258D01*
X01958Y0425D01*
X0195Y04242D01*
X01942Y0425D01*
X01892Y042D02*
X019Y04208D01*
X01908Y042D01*
X019Y04192D01*
X01892Y042D01*
X04807Y03134D02*
X04815Y03142D01*
X04823Y03134D01*
X04815Y03126D01*
X04807Y03134D01*
X0496349Y0369851D02*
X0497149Y0370651D01*
X0497949Y0369851D01*
X0497149Y0369051D01*
X0496349Y0369851D01*
X04757Y03378D02*
X04765Y03386D01*
X04773Y03378D01*
X04765Y0337D01*
X04757Y03378D01*
X05217Y02842D02*
X05225Y0285D01*
X05233Y02842D01*
X05225Y02834D01*
X05217Y02842D01*
X0521734Y0292266D02*
X0522534Y0293066D01*
X0523334Y0292266D01*
X0522534Y0291466D01*
X0521734Y0292266D01*
X02965Y01578D02*
X02973Y01586D01*
X02981Y01578D01*
X02973Y0157D01*
X02965Y01578D01*
X04592Y0415D02*
X046Y04158D01*
X04608Y0415D01*
X046Y04142D01*
X04592Y0415D01*
X04692D02*
X047Y04158D01*
X04708Y0415D01*
X047Y04142D01*
X04692Y0415D01*
X04992Y0405D02*
X05Y04058D01*
X05008Y0405D01*
X05Y04042D01*
X04992Y0405D01*
X04892D02*
X049Y04058D01*
X04908Y0405D01*
X049Y04042D01*
X04892Y0405D01*
X04592D02*
X046Y04058D01*
X04608Y0405D01*
X046Y04042D01*
X04592Y0405D01*
X04692D02*
X047Y04058D01*
X04708Y0405D01*
X047Y04042D01*
X04692Y0405D01*
X04792Y0415D02*
X048Y04158D01*
X04808Y0415D01*
X048Y04142D01*
X04792Y0415D01*
Y0405D02*
X048Y04058D01*
X04808Y0405D01*
X048Y04042D01*
X04792Y0405D01*
D119*
X04908Y0453852D02*
G03*
X04908Y0453852I-00008J0D01*
G01*
X0340986Y046D02*
G03*
X0340986Y046I-00008J0D01*
G01*
X02279D02*
G03*
X02279Y046I-00008J0D01*
G01*
X04708Y0453852D02*
G03*
X04708Y0453852I-00008J0D01*
G01*
X0320986Y046D02*
G03*
X0320986Y046I-00008J0D01*
G01*
X02079D02*
G03*
X02079Y046I-00008J0D01*
G01*
X038245Y0086792D02*
G03*
X038245Y0086792I-00008J0D01*
G01*
X0367686Y0092895D02*
G03*
X0367686Y0092895I-00008J0D01*
G01*
X0373788Y0107658D02*
G03*
X0373788Y0107658I-00008J0D01*
G01*
X0388552Y0101556D02*
G03*
X0388552Y0101556I-00008J0D01*
G01*
X0367686D02*
G03*
X0367686Y0101556I-00008J0D01*
G01*
X038245Y0107658D02*
G03*
X038245Y0107658I-00008J0D01*
G01*
X0388552Y0092895D02*
G03*
X0388552Y0092895I-00008J0D01*
G01*
X0373788Y0086792D02*
G03*
X0373788Y0086792I-00008J0D01*
G01*
Y0430356D02*
G03*
X0373788Y0430356I-00008J0D01*
G01*
X0388552Y0436458D02*
G03*
X0388552Y0436458I-00008J0D01*
G01*
X038245Y0451222D02*
G03*
X038245Y0451222I-00008J0D01*
G01*
X0367686Y044512D02*
G03*
X0367686Y044512I-00008J0D01*
G01*
X0388552D02*
G03*
X0388552Y044512I-00008J0D01*
G01*
X0373788Y0451222D02*
G03*
X0373788Y0451222I-00008J0D01*
G01*
X0367686Y0436458D02*
G03*
X0367686Y0436458I-00008J0D01*
G01*
X038245Y0430356D02*
G03*
X038245Y0430356I-00008J0D01*
G01*
X0141469Y0442346D02*
G03*
X0141469Y0442346I-00008J0D01*
G01*
X0156233Y0448449D02*
G03*
X0156233Y0448449I-00008J0D01*
G01*
X0150131Y0463213D02*
G03*
X0150131Y0463213I-00008J0D01*
G01*
X0135367Y045711D02*
G03*
X0135367Y045711I-00008J0D01*
G01*
X0156233D02*
G03*
X0156233Y045711I-00008J0D01*
G01*
X0141469Y0463213D02*
G03*
X0141469Y0463213I-00008J0D01*
G01*
X0135367Y0448449D02*
G03*
X0135367Y0448449I-00008J0D01*
G01*
X0150131Y0442346D02*
G03*
X0150131Y0442346I-00008J0D01*
G01*
X0141469Y0086792D02*
G03*
X0141469Y0086792I-00008J0D01*
G01*
X0156233Y0092895D02*
G03*
X0156233Y0092895I-00008J0D01*
G01*
X0150131Y0107658D02*
G03*
X0150131Y0107658I-00008J0D01*
G01*
X0135367Y0101556D02*
G03*
X0135367Y0101556I-00008J0D01*
G01*
X0156233D02*
G03*
X0156233Y0101556I-00008J0D01*
G01*
X0141469Y0107658D02*
G03*
X0141469Y0107658I-00008J0D01*
G01*
X0135367Y0092895D02*
G03*
X0135367Y0092895I-00008J0D01*
G01*
X0150131Y0086792D02*
G03*
X0150131Y0086792I-00008J0D01*
G01*
X0518068Y0442346D02*
G03*
X0518068Y0442346I-00008J0D01*
G01*
X0532831Y0448449D02*
G03*
X0532831Y0448449I-00008J0D01*
G01*
X0526729Y0463213D02*
G03*
X0526729Y0463213I-00008J0D01*
G01*
X0511965Y045711D02*
G03*
X0511965Y045711I-00008J0D01*
G01*
X0532831D02*
G03*
X0532831Y045711I-00008J0D01*
G01*
X0518068Y0463213D02*
G03*
X0518068Y0463213I-00008J0D01*
G01*
X0511965Y0448449D02*
G03*
X0511965Y0448449I-00008J0D01*
G01*
X0526729Y0442346D02*
G03*
X0526729Y0442346I-00008J0D01*
G01*
D120*
X038205Y0086792D02*
G03*
X038205Y0086792I-00004J0D01*
G01*
X0367286Y0092895D02*
G03*
X0367286Y0092895I-00004J0D01*
G01*
X0373388Y0107658D02*
G03*
X0373388Y0107658I-00004J0D01*
G01*
X0388152Y0101556D02*
G03*
X0388152Y0101556I-00004J0D01*
G01*
X0367286D02*
G03*
X0367286Y0101556I-00004J0D01*
G01*
X038205Y0107658D02*
G03*
X038205Y0107658I-00004J0D01*
G01*
X0388152Y0092895D02*
G03*
X0388152Y0092895I-00004J0D01*
G01*
X0373388Y0086792D02*
G03*
X0373388Y0086792I-00004J0D01*
G01*
Y0430356D02*
G03*
X0373388Y0430356I-00004J0D01*
G01*
X0388152Y0436458D02*
G03*
X0388152Y0436458I-00004J0D01*
G01*
X038205Y0451222D02*
G03*
X038205Y0451222I-00004J0D01*
G01*
X0367286Y044512D02*
G03*
X0367286Y044512I-00004J0D01*
G01*
X0388152D02*
G03*
X0388152Y044512I-00004J0D01*
G01*
X0373388Y0451222D02*
G03*
X0373388Y0451222I-00004J0D01*
G01*
X0367286Y0436458D02*
G03*
X0367286Y0436458I-00004J0D01*
G01*
X038205Y0430356D02*
G03*
X038205Y0430356I-00004J0D01*
G01*
X0141069Y0442346D02*
G03*
X0141069Y0442346I-00004J0D01*
G01*
X0155833Y0448449D02*
G03*
X0155833Y0448449I-00004J0D01*
G01*
X0149731Y0463213D02*
G03*
X0149731Y0463213I-00004J0D01*
G01*
X0134967Y045711D02*
G03*
X0134967Y045711I-00004J0D01*
G01*
X0155833D02*
G03*
X0155833Y045711I-00004J0D01*
G01*
X0141069Y0463213D02*
G03*
X0141069Y0463213I-00004J0D01*
G01*
X0134967Y0448449D02*
G03*
X0134967Y0448449I-00004J0D01*
G01*
X0149731Y0442346D02*
G03*
X0149731Y0442346I-00004J0D01*
G01*
X0141069Y0086792D02*
G03*
X0141069Y0086792I-00004J0D01*
G01*
X0155833Y0092895D02*
G03*
X0155833Y0092895I-00004J0D01*
G01*
X0149731Y0107658D02*
G03*
X0149731Y0107658I-00004J0D01*
G01*
X0134967Y0101556D02*
G03*
X0134967Y0101556I-00004J0D01*
G01*
X0155833D02*
G03*
X0155833Y0101556I-00004J0D01*
G01*
X0141069Y0107658D02*
G03*
X0141069Y0107658I-00004J0D01*
G01*
X0134967Y0092895D02*
G03*
X0134967Y0092895I-00004J0D01*
G01*
X0149731Y0086792D02*
G03*
X0149731Y0086792I-00004J0D01*
G01*
X0517668Y0442346D02*
G03*
X0517668Y0442346I-00004J0D01*
G01*
X0532432Y0448449D02*
G03*
X0532432Y0448449I-00004J0D01*
G01*
X0526329Y0463213D02*
G03*
X0526329Y0463213I-00004J0D01*
G01*
X0511565Y045711D02*
G03*
X0511565Y045711I-00004J0D01*
G01*
X0532432D02*
G03*
X0532432Y045711I-00004J0D01*
G01*
X0517668Y0463213D02*
G03*
X0517668Y0463213I-00004J0D01*
G01*
X0511565Y0448449D02*
G03*
X0511565Y0448449I-00004J0D01*
G01*
X0526329Y0442346D02*
G03*
X0526329Y0442346I-00004J0D01*
G01*
M02*
