G04*
G04 #@! TF.GenerationSoftware,Altium Limited,Altium Designer,21.3.2 (30)*
G04*
G04 Layer_Color=32768*
%FSTAX25Y25*%
%MOIN*%
G70*
G04*
G04 #@! TF.SameCoordinates,EB2CAA8E-72F9-4FA4-A601-E6806EDF6347*
G04*
G04*
G04 #@! TF.FilePolarity,Positive*
G04*
G01*
G75*
%ADD12C,0.00394*%
D12*
X0238985Y0419235D02*
X0249615D01*
X0252765Y0422385D01*
X0235835D02*
X0238985Y0419235D01*
X0252765Y0422385D02*
Y0436165D01*
X0235835Y0422385D02*
Y0436165D01*
X0252765D01*
X0211467Y0423443D02*
Y0440372D01*
Y0423443D02*
X0215404Y0419506D01*
X0228396D02*
X0232333Y0423443D01*
X0215404Y0419506D02*
X0228396D01*
X0211467Y0440372D02*
X0232333D01*
Y0423443D02*
Y0440372D01*
X0310367Y0419304D02*
Y0436233D01*
Y0419304D02*
X0314304Y0415367D01*
X0327296D02*
X0331233Y0419304D01*
X0314304Y0415367D02*
X0327296D01*
X0310367Y0436233D02*
X0331233D01*
Y0419304D02*
Y0436233D01*
X0517935Y0422756D02*
X0534865D01*
X0517935Y0408976D02*
Y0422756D01*
X0534865Y0408976D02*
Y0422756D01*
X0517935Y0408976D02*
X0521085Y0405827D01*
X0531715D02*
X0534865Y0408976D01*
X0521085Y0405827D02*
X0531715D01*
X0489011Y0434392D02*
X0508893D01*
X0482908Y042829D02*
X0489011Y0434392D01*
X0482908Y041451D02*
X0489011Y0408408D01*
X0482908Y041451D02*
Y042829D01*
X0489011Y0408408D02*
X0508893D01*
Y0434392D01*
X046Y0445978D02*
X05D01*
Y0493222D01*
X046D02*
X05D01*
X046Y0445978D02*
Y0493222D01*
X0401658Y0441827D02*
X0436343D01*
X0401658D02*
Y0470173D01*
X0436343D01*
Y0441827D02*
Y0470173D01*
X0310186Y0452126D02*
X0350186D01*
Y049937D01*
X0310186D02*
X0350186D01*
X0310186Y0452126D02*
Y049937D01*
X0355733Y0419242D02*
Y0436172D01*
X0334867D02*
X0355733D01*
X0338804Y0415306D02*
X0351796D01*
X0355733Y0419242D01*
X0334867D02*
X0338804Y0415306D01*
X0334867Y0419242D02*
Y0436172D01*
X01971Y0452126D02*
X02371D01*
Y049937D01*
X01971D02*
X02371D01*
X01971Y0452126D02*
Y049937D01*
M02*
