G04*
G04 #@! TF.GenerationSoftware,Altium Limited,Altium Designer,21.3.2 (30)*
G04*
G04 Layer_Color=16711935*
%FSTAX25Y25*%
%MOIN*%
G70*
G04*
G04 #@! TF.SameCoordinates,0E01897F-8C14-442C-AEF0-FA0E372BD8E1*
G04*
G04*
G04 #@! TF.FilePolarity,Negative*
G04*
G01*
G75*
%ADD42R,0.14186X0.06706*%
%ADD43R,0.13005X0.06312*%
%ADD50R,0.03950X0.03950*%
%ADD54C,0.06706*%
G04:AMPARAMS|DCode=55|XSize=47.37mil|YSize=145.8mil|CornerRadius=13.84mil|HoleSize=0mil|Usage=FLASHONLY|Rotation=270.000|XOffset=0mil|YOffset=0mil|HoleType=Round|Shape=RoundedRectangle|*
%AMROUNDEDRECTD55*
21,1,0.04737,0.11811,0,0,270.0*
21,1,0.01968,0.14580,0,0,270.0*
1,1,0.02769,-0.05906,-0.00984*
1,1,0.02769,-0.05906,0.00984*
1,1,0.02769,0.05906,0.00984*
1,1,0.02769,0.05906,-0.00984*
%
%ADD55ROUNDEDRECTD55*%
%ADD56R,0.06902X0.10052*%
%ADD58R,0.04343X0.02965*%
%ADD60R,0.02965X0.04343*%
%ADD61R,0.03950X0.03950*%
G04:AMPARAMS|DCode=62|XSize=67.06mil|YSize=141.86mil|CornerRadius=11.38mil|HoleSize=0mil|Usage=FLASHONLY|Rotation=270.000|XOffset=0mil|YOffset=0mil|HoleType=Round|Shape=RoundedRectangle|*
%AMROUNDEDRECTD62*
21,1,0.06706,0.11909,0,0,270.0*
21,1,0.04429,0.14186,0,0,270.0*
1,1,0.02276,-0.05955,-0.02215*
1,1,0.02276,-0.05955,0.02215*
1,1,0.02276,0.05955,0.02215*
1,1,0.02276,0.05955,-0.02215*
%
%ADD62ROUNDEDRECTD62*%
G04:AMPARAMS|DCode=65|XSize=102.49mil|YSize=102.49mil|CornerRadius=27.62mil|HoleSize=0mil|Usage=FLASHONLY|Rotation=180.000|XOffset=0mil|YOffset=0mil|HoleType=Round|Shape=RoundedRectangle|*
%AMROUNDEDRECTD65*
21,1,0.10249,0.04724,0,0,180.0*
21,1,0.04724,0.10249,0,0,180.0*
1,1,0.05524,-0.02362,0.02362*
1,1,0.05524,0.02362,0.02362*
1,1,0.05524,0.02362,-0.02362*
1,1,0.05524,-0.02362,-0.02362*
%
%ADD65ROUNDEDRECTD65*%
%ADD66C,0.09068*%
%ADD67R,0.07099X0.07099*%
%ADD68C,0.07099*%
%ADD69C,0.06784*%
%ADD70R,0.06784X0.06784*%
%ADD72R,0.05950X0.05950*%
%ADD73C,0.05950*%
%ADD74C,0.06824*%
%ADD75R,0.06824X0.06824*%
%ADD76C,0.10249*%
G04:AMPARAMS|DCode=77|XSize=90.68mil|YSize=90.68mil|CornerRadius=24.67mil|HoleSize=0mil|Usage=FLASHONLY|Rotation=0.000|XOffset=0mil|YOffset=0mil|HoleType=Round|Shape=RoundedRectangle|*
%AMROUNDEDRECTD77*
21,1,0.09068,0.04134,0,0,0.0*
21,1,0.04134,0.09068,0,0,0.0*
1,1,0.04934,0.02067,-0.02067*
1,1,0.04934,-0.02067,-0.02067*
1,1,0.04934,-0.02067,0.02067*
1,1,0.04934,0.02067,0.02067*
%
%ADD77ROUNDEDRECTD77*%
%ADD78C,0.03950*%
%ADD79C,0.04737*%
%ADD80C,0.03398*%
%ADD108R,0.04737X0.06312*%
%ADD109R,0.03162X0.04737*%
%ADD110R,0.06312X0.04737*%
%ADD111C,0.28359*%
D42*
X0161198Y0253811D02*
D03*
Y0238063D02*
D03*
Y0230189D02*
D03*
Y0245937D02*
D03*
X0509402Y0240937D02*
D03*
Y0248811D02*
D03*
Y0233063D02*
D03*
Y0225189D02*
D03*
X0161244Y0198345D02*
D03*
Y0182597D02*
D03*
Y0174723D02*
D03*
Y0190471D02*
D03*
D43*
X0138954Y0262866D02*
D03*
Y0221134D02*
D03*
X0531646Y0216134D02*
D03*
Y0257866D02*
D03*
X0139Y02074D02*
D03*
Y0165668D02*
D03*
D50*
X0496753Y02492D02*
D03*
X0490847D02*
D03*
X0496753Y02557D02*
D03*
X0490847D02*
D03*
X0472205Y01326D02*
D03*
X04663D02*
D03*
X0289107Y0372D02*
D03*
X0283202D02*
D03*
X0289107Y03652D02*
D03*
X0283202D02*
D03*
X030114Y0372D02*
D03*
X0307045D02*
D03*
X030114Y03652D02*
D03*
X0307045D02*
D03*
X04663Y01258D02*
D03*
X0472205D02*
D03*
D54*
X04215Y04362D02*
D03*
Y04274D02*
D03*
X04115Y04362D02*
D03*
Y04274D02*
D03*
D55*
X0161474Y0354302D02*
D03*
Y0362176D02*
D03*
Y0291774D02*
D03*
Y0327254D02*
D03*
Y02839D02*
D03*
Y031938D02*
D03*
D56*
X04076Y0259502D02*
D03*
Y02721D02*
D03*
D58*
X04837Y0280554D02*
D03*
Y0274846D02*
D03*
D60*
X0177379Y032704D02*
D03*
X0183087D02*
D03*
X0480746Y03039D02*
D03*
X0486454D02*
D03*
X0177379Y031956D02*
D03*
X0183087D02*
D03*
X0177591Y03622D02*
D03*
X01833D02*
D03*
X0177591Y03547D02*
D03*
X01833D02*
D03*
X0177046Y02839D02*
D03*
X0182754D02*
D03*
X0177191Y02917D02*
D03*
X01829D02*
D03*
X0409654Y02996D02*
D03*
X0403946D02*
D03*
D61*
X01732Y0244956D02*
D03*
Y0239051D02*
D03*
X018Y0244956D02*
D03*
Y0239051D02*
D03*
X01732Y0215049D02*
D03*
Y0209143D02*
D03*
X018D02*
D03*
Y0215049D02*
D03*
X01732Y018949D02*
D03*
Y0183585D02*
D03*
X018Y018949D02*
D03*
Y0183585D02*
D03*
X05123Y0330953D02*
D03*
X05055D02*
D03*
X05058Y0375853D02*
D03*
X05127D02*
D03*
X04962Y0141047D02*
D03*
Y0146953D02*
D03*
X04892Y0141047D02*
D03*
Y0146953D02*
D03*
X05123Y0325047D02*
D03*
X05055D02*
D03*
X05058Y0369947D02*
D03*
X05127D02*
D03*
D62*
X0138836Y0371821D02*
D03*
Y0344656D02*
D03*
Y030142D02*
D03*
Y0274254D02*
D03*
Y0309735D02*
D03*
Y03369D02*
D03*
D65*
X049Y0453852D02*
D03*
X0340186Y046D02*
D03*
X02271D02*
D03*
D66*
X04265Y045285D02*
D03*
D67*
X04763Y01023D02*
D03*
Y01147D02*
D03*
Y00899D02*
D03*
D68*
X04663Y01023D02*
D03*
X04563D02*
D03*
X04663Y01147D02*
D03*
X04563D02*
D03*
X04663Y00899D02*
D03*
X04563D02*
D03*
D69*
X05065Y0117D02*
D03*
Y0107D02*
D03*
Y0127D02*
D03*
Y0137D02*
D03*
Y0147D02*
D03*
D70*
Y0097D02*
D03*
D72*
X04362Y0259826D02*
D03*
D73*
Y0275574D02*
D03*
D74*
X0221069Y0140437D02*
D03*
X0191068D02*
D03*
X0201068D02*
D03*
Y0150437D02*
D03*
X0211069Y0140437D02*
D03*
Y0150437D02*
D03*
X0221069D02*
D03*
X0231068Y0140437D02*
D03*
Y0150437D02*
D03*
X0241069Y0140437D02*
D03*
Y0150437D02*
D03*
X0251068Y0140437D02*
D03*
Y0150437D02*
D03*
X0261069Y0140437D02*
D03*
Y0150437D02*
D03*
X0271069Y0140437D02*
D03*
Y0150437D02*
D03*
X0281068Y0140437D02*
D03*
Y0150437D02*
D03*
X0291069Y0140437D02*
D03*
Y0150437D02*
D03*
X0301068Y0140437D02*
D03*
Y0150437D02*
D03*
X0311069Y0140437D02*
D03*
Y0150437D02*
D03*
X0321069Y0140437D02*
D03*
Y0150437D02*
D03*
X0331068Y0140437D02*
D03*
Y0150437D02*
D03*
X0341069Y0140437D02*
D03*
Y0150437D02*
D03*
X0351068Y0140437D02*
D03*
Y0150437D02*
D03*
X0361069Y0140437D02*
D03*
Y0150437D02*
D03*
X0371069Y0140437D02*
D03*
X0191068Y0150437D02*
D03*
Y0380437D02*
D03*
X0201068D02*
D03*
Y0390437D02*
D03*
X0211069Y0380437D02*
D03*
Y0390437D02*
D03*
X0221069Y0380437D02*
D03*
Y0390437D02*
D03*
X0231068Y0380437D02*
D03*
Y0390437D02*
D03*
X0241069Y0380437D02*
D03*
Y0390437D02*
D03*
X0251068Y0380437D02*
D03*
Y0390437D02*
D03*
X0261069Y0380437D02*
D03*
Y0390437D02*
D03*
X0271069Y0380437D02*
D03*
Y0390437D02*
D03*
X0281068Y0380437D02*
D03*
Y0390437D02*
D03*
X0291069Y0380437D02*
D03*
Y0390437D02*
D03*
X0301068Y0380437D02*
D03*
Y0390437D02*
D03*
X0311069Y0380437D02*
D03*
Y0390437D02*
D03*
X0321069Y0380437D02*
D03*
Y0390437D02*
D03*
X0331068Y0380437D02*
D03*
Y0390437D02*
D03*
X0341069Y0380437D02*
D03*
Y0390437D02*
D03*
X0351068Y0380437D02*
D03*
Y0390437D02*
D03*
X0361069Y0380437D02*
D03*
Y0390437D02*
D03*
X0371069Y0380437D02*
D03*
X0191068Y0390437D02*
D03*
D75*
X0371069Y0150437D02*
D03*
Y0390437D02*
D03*
D76*
X047Y0453852D02*
D03*
X0320186Y046D02*
D03*
X02071D02*
D03*
D77*
X04115Y045285D02*
D03*
D78*
X029126Y0356773D02*
D03*
X03014Y03587D02*
D03*
X01508Y02403D02*
D03*
X02008Y02005D02*
D03*
X0132088Y03543D02*
D03*
X0205Y01894D02*
D03*
X02093Y01933D02*
D03*
X02219Y01005D02*
D03*
X03025Y00986D02*
D03*
X0186013Y0099013D02*
D03*
X01939Y00991D02*
D03*
X02785Y0121562D02*
D03*
X02844Y01003D02*
D03*
X02363Y0107D02*
D03*
X0235Y045D02*
D03*
X025Y044D02*
D03*
X0255Y043D02*
D03*
Y0445D02*
D03*
X0305D02*
D03*
X0315D02*
D03*
X0325D02*
D03*
X0335D02*
D03*
X0355Y043D02*
D03*
Y044D02*
D03*
X042Y046D02*
D03*
X043D02*
D03*
X0425Y0465D02*
D03*
X0435Y0425D02*
D03*
Y0435D02*
D03*
Y0445D02*
D03*
Y0455D02*
D03*
X044Y045D02*
D03*
X0445Y0455D02*
D03*
X02005Y02294D02*
D03*
X0210097Y0221203D02*
D03*
X02171Y0225D02*
D03*
X02091Y02084D02*
D03*
X02136Y02131D02*
D03*
X02179Y02173D02*
D03*
X01901Y02292D02*
D03*
X02048Y02043D02*
D03*
X02181Y02024D02*
D03*
X0214Y01974D02*
D03*
X0174Y01243D02*
D03*
X02007Y01858D02*
D03*
X01854Y02449D02*
D03*
X02119Y03714D02*
D03*
X02255Y03757D02*
D03*
X01509Y01876D02*
D03*
X0173Y02026D02*
D03*
X01407Y02274D02*
D03*
X01329Y03796D02*
D03*
X024265Y044395D02*
D03*
X018Y02043D02*
D03*
X018Y01947D02*
D03*
X01902Y02207D02*
D03*
X03092Y01188D02*
D03*
X03202Y0124188D02*
D03*
X03432Y01294D02*
D03*
X03462Y01351D02*
D03*
X0414763Y0357763D02*
D03*
X04539Y02511D02*
D03*
X04147Y03489D02*
D03*
X04458Y02996D02*
D03*
X04529Y02931D02*
D03*
X0275Y03712D02*
D03*
X03209Y0365D02*
D03*
X04501Y03231D02*
D03*
X03459Y00998D02*
D03*
X04943Y00886D02*
D03*
X01733Y022D02*
D03*
X0148Y02347D02*
D03*
X01963Y01247D02*
D03*
X0206Y01221D02*
D03*
X01821Y01185D02*
D03*
X01822Y01245D02*
D03*
X01442Y02003D02*
D03*
X01478Y02158D02*
D03*
X0148Y02081D02*
D03*
X03162Y01208D02*
D03*
X02608Y01332D02*
D03*
X02475Y01243D02*
D03*
X0310984Y0170016D02*
D03*
X01509Y01825D02*
D03*
X03812Y01376D02*
D03*
X03813Y01845D02*
D03*
X03855Y0181D02*
D03*
X03508Y01206D02*
D03*
X03629Y0124D02*
D03*
X02945Y01665D02*
D03*
X02752Y01692D02*
D03*
X027Y0162D02*
D03*
X02635Y01575D02*
D03*
X03214Y0169937D02*
D03*
X03639Y04045D02*
D03*
X0481Y0247D02*
D03*
X0486Y0243D02*
D03*
X04915Y0225D02*
D03*
Y02325D02*
D03*
X05Y046D02*
D03*
X045D02*
D03*
X044D02*
D03*
X035Y0465D02*
D03*
X039D02*
D03*
X038D02*
D03*
X037D02*
D03*
X036D02*
D03*
X0155Y0435D02*
D03*
X0435Y0465D02*
D03*
X0445D02*
D03*
X0455D02*
D03*
X0465D02*
D03*
X0475D02*
D03*
X0485D02*
D03*
X0495D02*
D03*
X0505D02*
D03*
X0515Y043D02*
D03*
X0495D02*
D03*
X0505D02*
D03*
Y044D02*
D03*
X0495D02*
D03*
X0485D02*
D03*
X0505Y039D02*
D03*
X0495D02*
D03*
X0485D02*
D03*
X0475D02*
D03*
X048Y0395D02*
D03*
Y0385D02*
D03*
X049D02*
D03*
X05203Y03327D02*
D03*
X0155Y0415D02*
D03*
X0495Y034D02*
D03*
X0505D02*
D03*
X0515D02*
D03*
Y035D02*
D03*
X0505D02*
D03*
X0495D02*
D03*
Y036D02*
D03*
X0505D02*
D03*
X0515D02*
D03*
X05Y0385D02*
D03*
Y0395D02*
D03*
X049D02*
D03*
X052Y0435D02*
D03*
X051D02*
D03*
X05Y0445D02*
D03*
Y0435D02*
D03*
X049D02*
D03*
X048D02*
D03*
Y0445D02*
D03*
X049D02*
D03*
X0535Y033D02*
D03*
Y035D02*
D03*
Y0375D02*
D03*
Y0395D02*
D03*
Y0405D02*
D03*
Y0415D02*
D03*
Y0425D02*
D03*
Y0435D02*
D03*
X0145Y043D02*
D03*
Y042D02*
D03*
Y041D02*
D03*
X0135Y0395D02*
D03*
Y0405D02*
D03*
Y0415D02*
D03*
Y0425D02*
D03*
Y0435D02*
D03*
X052635Y043195D02*
D03*
X05207Y03775D02*
D03*
X04765Y02539D02*
D03*
X05098Y02679D02*
D03*
X04979Y0172D02*
D03*
X04777Y01258D02*
D03*
X023Y042D02*
D03*
X05262Y0118D02*
D03*
X05264Y01427D02*
D03*
X05228Y01014D02*
D03*
X05217Y01717D02*
D03*
X0496Y01056D02*
D03*
X04241Y01006D02*
D03*
X04162Y01007D02*
D03*
X02761Y04045D02*
D03*
X027Y042D02*
D03*
X0275Y0415D02*
D03*
X028Y042D02*
D03*
X0285Y0415D02*
D03*
X029Y042D02*
D03*
X0295Y0415D02*
D03*
X03Y042D02*
D03*
X0305Y0415D02*
D03*
X031Y042D02*
D03*
X0315Y0415D02*
D03*
X033Y042D02*
D03*
X0335Y0415D02*
D03*
X034Y042D02*
D03*
X0355D02*
D03*
X036Y0415D02*
D03*
X0365Y042D02*
D03*
X037Y0415D02*
D03*
X0375Y042D02*
D03*
X038Y0415D02*
D03*
X0385Y042D02*
D03*
X039Y0415D02*
D03*
X0395Y042D02*
D03*
X0175Y0425D02*
D03*
X0205D02*
D03*
X02Y042D02*
D03*
X018D02*
D03*
X0185Y0425D02*
D03*
X025Y042D02*
D03*
Y0425D02*
D03*
X0235D02*
D03*
Y042D02*
D03*
X023Y0425D02*
D03*
X0215D02*
D03*
X021Y042D02*
D03*
X0195Y0425D02*
D03*
X019Y042D02*
D03*
X04815Y03134D02*
D03*
X0497149Y0369851D02*
D03*
X04765Y03378D02*
D03*
X05225Y02842D02*
D03*
X0522534Y0292266D02*
D03*
X02973Y01578D02*
D03*
X046Y0415D02*
D03*
X047D02*
D03*
X05Y0405D02*
D03*
X049D02*
D03*
X046D02*
D03*
X047D02*
D03*
X048Y0415D02*
D03*
Y0405D02*
D03*
D79*
X04875Y01973D02*
D03*
X0497528Y0324872D02*
D03*
X04313Y04146D02*
D03*
D80*
X038165Y0086792D02*
D03*
X0366886Y0092895D02*
D03*
X0372988Y0107658D02*
D03*
X0387752Y0101556D02*
D03*
X0366886D02*
D03*
X038165Y0107658D02*
D03*
X0387752Y0092895D02*
D03*
X0372988Y0086792D02*
D03*
Y0430356D02*
D03*
X0387752Y0436458D02*
D03*
X038165Y0451222D02*
D03*
X0366886Y044512D02*
D03*
X0387752D02*
D03*
X0372988Y0451222D02*
D03*
X0366886Y0436458D02*
D03*
X038165Y0430356D02*
D03*
X0140669Y0442346D02*
D03*
X0155433Y0448449D02*
D03*
X0149331Y0463213D02*
D03*
X0134567Y045711D02*
D03*
X0155433D02*
D03*
X0140669Y0463213D02*
D03*
X0134567Y0448449D02*
D03*
X0149331Y0442346D02*
D03*
X0140669Y0086792D02*
D03*
X0155433Y0092895D02*
D03*
X0149331Y0107658D02*
D03*
X0134567Y0101556D02*
D03*
X0155433D02*
D03*
X0140669Y0107658D02*
D03*
X0134567Y0092895D02*
D03*
X0149331Y0086792D02*
D03*
X0517268Y0442346D02*
D03*
X0532031Y0448449D02*
D03*
X0525929Y0463213D02*
D03*
X0511165Y045711D02*
D03*
X0532031D02*
D03*
X0517268Y0463213D02*
D03*
X0511165Y0448449D02*
D03*
X0525929Y0442346D02*
D03*
D108*
X041134Y0292261D02*
D03*
X04076Y02836D02*
D03*
X040386Y0292261D02*
D03*
D109*
X0483601Y0287858D02*
D03*
X0487341Y0295731D02*
D03*
X0479861D02*
D03*
D110*
X0191139Y028416D02*
D03*
Y029164D02*
D03*
X01998Y02879D02*
D03*
X0191239Y031956D02*
D03*
Y032704D02*
D03*
X01999Y03233D02*
D03*
X01914Y035472D02*
D03*
Y03622D02*
D03*
X0200061Y035846D02*
D03*
D111*
X0377319Y0097225D02*
D03*
Y0440789D02*
D03*
X0145Y0452779D02*
D03*
Y0097225D02*
D03*
X0521598Y0452779D02*
D03*
M02*
