G04*
G04 #@! TF.GenerationSoftware,Altium Limited,Altium Designer,21.3.2 (30)*
G04*
G04 Layer_Color=16711935*
%FSTAX25Y25*%
%MOIN*%
G70*
G04*
G04 #@! TF.SameCoordinates,0E01897F-8C14-442C-AEF0-FA0E372BD8E1*
G04*
G04*
G04 #@! TF.FilePolarity,Positive*
G04*
G01*
G75*
%ADD12C,0.00394*%
%ADD13C,0.00500*%
%ADD14C,0.00787*%
%ADD116R,0.04305X0.24016*%
%ADD117R,0.11417X0.02436*%
G36*
X0436922Y0391637D02*
X043502Y0392818D01*
X0436922Y0393999D01*
Y0391637D01*
D02*
G37*
G36*
X0421072D02*
X041917Y0392818D01*
X0421072Y0393999D01*
Y0391637D01*
D02*
G37*
G36*
X0405222D02*
X040332Y0392818D01*
X0405222Y0393999D01*
Y0391637D01*
D02*
G37*
G36*
X0192931Y0361261D02*
X0190629D01*
Y036306D01*
X0192931D01*
Y0361261D01*
D02*
G37*
G36*
X0200831Y035756D02*
X0198531D01*
Y035936D01*
X0200831D01*
Y035756D01*
D02*
G37*
G36*
X0192931Y0353851D02*
X0190621D01*
Y035566D01*
X0192931D01*
Y0353851D01*
D02*
G37*
G36*
X0192769Y0326101D02*
X0190467D01*
Y03279D01*
X0192769D01*
Y0326101D01*
D02*
G37*
G36*
X0200669Y03224D02*
X019837D01*
Y03242D01*
X0200669D01*
Y03224D01*
D02*
G37*
G36*
X0192769Y0318691D02*
X019046D01*
Y03205D01*
X0192769D01*
Y0318691D01*
D02*
G37*
G36*
X04122Y0290731D02*
X0410401D01*
Y0293033D01*
X04122D01*
Y0290731D01*
D02*
G37*
G36*
X04048D02*
X0402991D01*
Y029304D01*
X04048D01*
Y0290731D01*
D02*
G37*
G36*
X0192669Y0290701D02*
X0190367D01*
Y02925D01*
X0192669D01*
Y0290701D01*
D02*
G37*
G36*
X0200569Y0287D02*
X019827D01*
Y02888D01*
X0200569D01*
Y0287D01*
D02*
G37*
G36*
X0192669Y0283291D02*
X019036D01*
Y02851D01*
X0192669D01*
Y0283291D01*
D02*
G37*
G36*
X04085Y0282831D02*
X04067D01*
Y028513D01*
X04085D01*
Y0282831D01*
D02*
G37*
G36*
X0535081Y0133583D02*
X0532719D01*
X05339Y0135484D01*
X0535081Y0133583D01*
D02*
G37*
D12*
X0163561Y0261685D02*
Y0265622D01*
X0157261Y0261685D02*
X0163561D01*
X0133639Y0265622D02*
X0163561D01*
X0157261Y0222315D02*
Y0261685D01*
X0133639Y0218378D02*
X0163561D01*
X0157261Y0222315D02*
X0163561D01*
Y0218378D02*
Y0222315D01*
X0133639Y0218378D02*
Y0265622D01*
X049065Y0250775D02*
X049695D01*
X049065Y0247625D02*
X049695D01*
Y0250775D01*
X049065Y0247625D02*
Y0250775D01*
Y0257275D02*
X049695D01*
X049065Y0254125D02*
X049695D01*
Y0257275D01*
X049065Y0254125D02*
Y0257275D01*
X0507039Y0213378D02*
Y0217315D01*
X0513339D01*
X0507039Y0213378D02*
X0536961D01*
X0513339Y0217315D02*
Y0256685D01*
X0507039Y0260622D02*
X0536961D01*
X0507039Y0256685D02*
X0513339D01*
X0507039D02*
Y0260622D01*
X0536961Y0213378D02*
Y0260622D01*
X0177083Y0325269D02*
Y0328812D01*
X0183383Y0325269D02*
Y0328812D01*
X0177083Y0325269D02*
X0183383D01*
X0177083Y0328812D02*
X0183383D01*
X0174775Y0238854D02*
Y0245153D01*
X0171625Y0238854D02*
Y0245153D01*
Y0238854D02*
X0174775D01*
X0171625Y0245153D02*
X0174775D01*
X0181575Y0238854D02*
Y0245153D01*
X0178425Y0238854D02*
Y0245153D01*
Y0238854D02*
X0181575D01*
X0178425Y0245153D02*
X0181575D01*
X0163606Y0206219D02*
Y0210156D01*
X0157307Y0206219D02*
X0163606D01*
X0133685Y0210156D02*
X0163606D01*
X0157307Y0166849D02*
Y0206219D01*
X0133685Y0162912D02*
X0163606D01*
X0157307Y0166849D02*
X0163606D01*
Y0162912D02*
Y0166849D01*
X0133685Y0162912D02*
Y0210156D01*
X0171625Y0208947D02*
X0174775D01*
X0171625Y0215246D02*
X0174775D01*
Y0208947D02*
Y0215246D01*
X0171625Y0208947D02*
Y0215246D01*
X0178425Y0208947D02*
Y0215246D01*
X0181575Y0208947D02*
Y0215246D01*
X0178425D02*
X0181575D01*
X0178425Y0208947D02*
X0181575D01*
X0174775Y0183388D02*
Y0189687D01*
X0171625Y0183388D02*
Y0189687D01*
Y0183388D02*
X0174775D01*
X0171625Y0189687D02*
X0174775D01*
X0181575Y0183388D02*
Y0189687D01*
X0178425Y0183388D02*
Y0189687D01*
Y0183388D02*
X0181575D01*
X0178425Y0189687D02*
X0181575D01*
X0163561Y0188478D02*
Y0192415D01*
X0157261D02*
X0163561D01*
X0133639Y0188478D02*
X0163561D01*
X0157261Y0192415D02*
Y0231785D01*
X0133639Y0235722D02*
X0163561D01*
X0157261Y0231785D02*
X0163561D01*
Y0235722D01*
X0133639Y0188478D02*
Y0235722D01*
X0163661Y0132578D02*
Y0136515D01*
X0157361D02*
X0163661D01*
X0133739Y0132578D02*
X0163661D01*
X0157361Y0136515D02*
Y0175885D01*
X0133739Y0179822D02*
X0163661D01*
X0157361Y0175885D02*
X0163661D01*
Y0179822D01*
X0133739Y0132578D02*
Y0179822D01*
X0133256Y0243531D02*
Y0314397D01*
X0156878D01*
Y0312428D02*
Y0314397D01*
X0152941Y0312428D02*
X0156878D01*
X0152941Y0245499D02*
Y0312428D01*
Y0245499D02*
X0156878D01*
Y0243531D02*
Y0245499D01*
X0133256Y0243531D02*
X0156878D01*
X0318186Y0082285D02*
X0357556D01*
X0318186Y0112206D02*
X0322123D01*
Y0105907D02*
Y0112206D01*
X0318186Y0082285D02*
Y0112206D01*
X0322123Y0105907D02*
X0353619D01*
X0357556Y0082285D02*
Y0112206D01*
X0353619Y0105907D02*
Y0112206D01*
X0357556D01*
X0505638Y0195622D02*
Y0199559D01*
Y0195622D02*
X0511937D01*
X0505638Y0199559D02*
X0535559D01*
X0511937Y0164126D02*
Y0195622D01*
X0505638Y0160189D02*
X0535559D01*
X0505638Y0164126D02*
X0511937D01*
X0505638Y0160189D02*
Y0164126D01*
X0535559Y0160189D02*
Y0199559D01*
X0494625Y014085D02*
X0497775D01*
X0494625Y014715D02*
X0497775D01*
Y014085D02*
Y014715D01*
X0494625Y014085D02*
Y014715D01*
X0487625Y014085D02*
X0490775D01*
X0487625Y014715D02*
X0490775D01*
Y014085D02*
Y014715D01*
X0487625Y014085D02*
Y014715D01*
X0494228Y0117295D02*
X0497772D01*
X0494228Y0110996D02*
X0497772D01*
Y0117295D01*
X0494228Y0110996D02*
Y0117295D01*
X05154Y0107295D02*
X0518944D01*
X05154Y0100996D02*
X0518944D01*
Y0107295D01*
X05154Y0100996D02*
Y0107295D01*
X0431945Y0113779D02*
X0435882D01*
X0431945Y010748D02*
Y0113779D01*
X0435882Y0083858D02*
Y0113779D01*
X0400449Y010748D02*
X0431945D01*
X0396512Y0083858D02*
Y0113779D01*
X0400449Y010748D02*
Y0113779D01*
X0396512D02*
X0400449D01*
X0396512Y0083858D02*
X0435882D01*
X04513Y00973D02*
X04813D01*
X04513Y01073D02*
X04813D01*
Y00973D02*
Y01073D01*
X04513Y00973D02*
Y01073D01*
Y01097D02*
X04813D01*
X04513Y01197D02*
X04813D01*
Y01097D02*
Y01197D01*
X04513Y01097D02*
Y01197D01*
Y00849D02*
X04813D01*
X04513Y00949D02*
X04813D01*
Y00849D02*
Y00949D01*
X04513Y00849D02*
Y00949D01*
X0501579Y0091016D02*
X0511421D01*
Y0152984D01*
X0501579D02*
X0511421D01*
X0501579Y0091016D02*
Y0152984D01*
X0306675Y04523D02*
Y04677D01*
X0264075Y04523D02*
Y04677D01*
Y04523D02*
X0306675D01*
X0264075Y04677D02*
X0306675D01*
X0417233Y0397646D02*
Y040119D01*
X0423533Y0397646D02*
Y040119D01*
X0417233D02*
X0423533D01*
X0417233Y0397646D02*
X0423533D01*
X0433083D02*
Y040119D01*
X0439383Y0397646D02*
Y040119D01*
X0433083D02*
X0439383D01*
X0433083Y0397646D02*
X0439383D01*
X0401088Y0394393D02*
X0407387D01*
Y0391243D02*
Y0394393D01*
X0401088Y0391243D02*
X0407387D01*
X0401088D02*
Y0394393D01*
X0401383Y0397646D02*
Y040119D01*
X0407683Y0397646D02*
Y040119D01*
X0401383D02*
X0407683D01*
X0401383Y0397646D02*
X0407683D01*
X0416938Y0394393D02*
X0423237D01*
Y0391243D02*
Y0394393D01*
X0416938Y0391243D02*
X0423237D01*
X0416938D02*
Y0394393D01*
X0472402Y0131025D02*
Y0134175D01*
X0466103Y0131025D02*
Y0134175D01*
X0472402D01*
X0466103Y0131025D02*
X0472402D01*
X048045Y0302128D02*
X048675D01*
X048045Y0305672D02*
X048675D01*
X048045Y0302128D02*
Y0305672D01*
X048675Y0302128D02*
Y0305672D01*
X0510725Y033115D02*
X0513875D01*
X0510725Y032485D02*
X0513875D01*
X0510725D02*
Y033115D01*
X0513875Y032485D02*
Y033115D01*
X0203885Y0423416D02*
Y0447432D01*
X0171877Y0423416D02*
Y0447432D01*
Y0423416D02*
X0203885D01*
X0171877Y0447432D02*
X0203885D01*
X0300831Y0420492D02*
Y0444508D01*
X0268823Y0420492D02*
Y0444508D01*
Y0420492D02*
X0300831D01*
X0268823Y0444508D02*
X0300831D01*
X0413309Y0256746D02*
Y0274856D01*
X0401891Y0256746D02*
Y0274856D01*
Y0256746D02*
X0413309D01*
X0401891Y0274856D02*
X0413309D01*
X0283005Y0373575D02*
X0289304D01*
X0283005Y0370425D02*
X0289304D01*
Y0373575D01*
X0283005Y0370425D02*
Y0373575D01*
Y0366775D02*
X0289304D01*
X0283005Y0363625D02*
X0289304D01*
Y0366775D01*
X0283005Y0363625D02*
Y0366775D01*
X0300943Y0370425D02*
X0307242D01*
X0300943Y0373575D02*
X0307242D01*
X0300943Y0370425D02*
Y0373575D01*
X0307242Y0370425D02*
Y0373575D01*
X0300943Y0363625D02*
X0307242D01*
X0300943Y0366775D02*
X0307242D01*
X0300943Y0363625D02*
Y0366775D01*
X0307242Y0363625D02*
Y0366775D01*
X0177083Y0317788D02*
Y0321332D01*
X0183383Y0317788D02*
Y0321332D01*
X0177083Y0317788D02*
X0183383D01*
X0177083Y0321332D02*
X0183383D01*
X0177296Y0360428D02*
Y0363972D01*
X0183595Y0360428D02*
Y0363972D01*
X0177296Y0360428D02*
X0183595D01*
X0177296Y0363972D02*
X0183595D01*
X0177296Y0352928D02*
Y0356472D01*
X0183595Y0352928D02*
Y0356472D01*
X0177296Y0352928D02*
X0183595D01*
X0177296Y0356472D02*
X0183595D01*
X017675Y0282128D02*
Y0285672D01*
X018305Y0282128D02*
Y0285672D01*
X017675Y0282128D02*
X018305D01*
X017675Y0285672D02*
X018305D01*
X0176896Y0289928D02*
Y0293472D01*
X0183195Y0289928D02*
Y0293472D01*
X0176896Y0289928D02*
X0183195D01*
X0176896Y0293472D02*
X0183195D01*
X040995Y0297828D02*
Y0301372D01*
X040365Y0297828D02*
Y0301372D01*
X040995D01*
X040365Y0297828D02*
X040995D01*
X0466103Y0124225D02*
X0472402D01*
X0466103Y0127375D02*
X0472402D01*
X0466103Y0124225D02*
Y0127375D01*
X0472402Y0124225D02*
Y0127375D01*
X0481928Y028085D02*
X0485472D01*
X0481928Y027455D02*
X0485472D01*
X0481928D02*
Y028085D01*
X0485472Y027455D02*
Y028085D01*
X0489506Y0289039D02*
Y029455D01*
X0477695Y0289039D02*
Y029455D01*
Y0289039D02*
X0489506D01*
X0477695Y029455D02*
X0489506D01*
X0507075Y032485D02*
Y033115D01*
X0503925Y032485D02*
Y033115D01*
Y032485D02*
X0507075D01*
X0503925Y033115D02*
X0507075D01*
X0507375Y036975D02*
Y037605D01*
X0504225Y036975D02*
Y037605D01*
Y036975D02*
X0507375D01*
X0504225Y037605D02*
X0507375D01*
X0514275Y036975D02*
Y037605D01*
X0511125Y036975D02*
Y037605D01*
Y036975D02*
X0514275D01*
X0511125Y037605D02*
X0514275D01*
X0506795Y0082328D02*
Y0085872D01*
X0500496Y0082328D02*
Y0085872D01*
Y0082328D02*
X0506795D01*
X0500496Y0085872D02*
X0506795D01*
X0535475Y0131417D02*
Y0137716D01*
X0532325Y0131417D02*
X0535475D01*
X0532325D02*
Y0137716D01*
X0535475D01*
X0524828Y0131122D02*
X0528372D01*
X0524828Y0137421D02*
X0528372D01*
X0524828Y0131122D02*
Y0137421D01*
X0528372Y0131122D02*
Y0137421D01*
X0536959Y0213289D02*
Y0252659D01*
X0507038Y0213289D02*
Y0217226D01*
X0513337D01*
X0507038Y0213289D02*
X0536959D01*
X0513337Y0217226D02*
Y0248722D01*
X0507038Y0252659D02*
X0536959D01*
X0507038Y0248722D02*
X0513337D01*
X0507038D02*
Y0252659D01*
X0507524Y0300205D02*
Y0304142D01*
Y0300205D02*
X0513824D01*
X0507524Y0304142D02*
X0537446D01*
X0513824Y0268709D02*
Y0300205D01*
X0507524Y0264772D02*
X0537446D01*
X0507524Y0268709D02*
X0513824D01*
X0507524Y0264772D02*
Y0268709D01*
X0537446Y0264772D02*
Y0304142D01*
X0461991Y0437854D02*
X0473409D01*
X0461991Y0419744D02*
X0473409D01*
Y0437854D01*
X0461991Y0419744D02*
Y0437854D01*
X0432788Y0391243D02*
Y0394393D01*
Y0391243D02*
X0439087D01*
Y0394393D01*
X0432788D02*
X0439087D01*
D13*
X0453917Y02677D02*
G03*
X0453917Y02677I-0017717J0D01*
G01*
X0185005Y0403232D02*
G03*
X01791Y0397327I0J-0005906D01*
G01*
Y0133547D02*
G03*
X0185005Y0127642I0005906J0D01*
G01*
X0490124D02*
G03*
X0496029Y0133547I0J0005906D01*
G01*
Y0397327D02*
G03*
X0490124Y0403232I-0005906J0D01*
G01*
X0404647Y0285372D02*
X0410553D01*
X0401891Y0288521D02*
Y029049D01*
X0406616D01*
X0408584D02*
X0413309D01*
Y0288521D02*
Y029049D01*
X01791Y0359925D02*
Y0397327D01*
X0171226Y0352051D02*
X01791Y0359925D01*
X0171226Y022213D02*
Y0352051D01*
Y022213D02*
X01791Y0214256D01*
Y0133547D02*
Y0214256D01*
X0185005Y0127642D02*
X0490124D01*
X0496029Y0133547D02*
Y0397327D01*
X0185005Y0403232D02*
X0490124D01*
X0376068Y0375594D02*
Y039528D01*
X0186068Y0375594D02*
X0376068D01*
X0186068D02*
Y039528D01*
X0376068D01*
Y0135594D02*
Y015528D01*
X0186068Y0135594D02*
X0376068D01*
X0186068D02*
Y015528D01*
X0376068D01*
X019291Y0293609D02*
X0194879D01*
X019291Y0288884D02*
Y0293609D01*
Y0282191D02*
Y0286916D01*
Y0282191D02*
X0194879D01*
X0198028Y0284947D02*
Y0290853D01*
X019301Y0329009D02*
X0194979D01*
X019301Y0324284D02*
Y0329009D01*
Y0317591D02*
Y0322316D01*
Y0317591D02*
X0194979D01*
X0198128Y0320347D02*
Y0326253D01*
X0193172Y0364169D02*
X019514D01*
X0193172Y0359444D02*
Y0364169D01*
Y0352751D02*
Y0357476D01*
Y0352751D02*
X019514D01*
X019829Y0355507D02*
Y0361413D01*
D14*
X0371462Y0157327D02*
G03*
X0371462Y0157327I-0000394J0D01*
G01*
Y0397327D02*
G03*
X0371462Y0397327I-0000394J0D01*
G01*
D116*
X0174232Y0435424D02*
D03*
X0271178Y04325D02*
D03*
D117*
X04076Y0258138D02*
D03*
X04677Y0421136D02*
D03*
M02*
