G04*
G04 #@! TF.GenerationSoftware,Altium Limited,Altium Designer,21.3.2 (30)*
G04*
G04 Layer_Color=128*
%FSTAX25Y25*%
%MOIN*%
G70*
G04*
G04 #@! TF.SameCoordinates,0E01897F-8C14-442C-AEF0-FA0E372BD8E1*
G04*
G04*
G04 #@! TF.FilePolarity,Positive*
G04*
G01*
G75*
%ADD16R,0.13386X0.05906*%
%ADD17R,0.12205X0.05512*%
%ADD26R,0.03150X0.03150*%
%ADD27R,0.09843X0.09843*%
G04:AMPARAMS|DCode=32|XSize=39.37mil|YSize=137.8mil|CornerRadius=9.84mil|HoleSize=0mil|Usage=FLASHONLY|Rotation=270.000|XOffset=0mil|YOffset=0mil|HoleType=Round|Shape=RoundedRectangle|*
%AMROUNDEDRECTD32*
21,1,0.03937,0.11811,0,0,270.0*
21,1,0.01968,0.13780,0,0,270.0*
1,1,0.01968,-0.05906,-0.00984*
1,1,0.01968,-0.05906,0.00984*
1,1,0.01968,0.05906,0.00984*
1,1,0.01968,0.05906,-0.00984*
%
%ADD32ROUNDEDRECTD32*%
%ADD33R,0.06102X0.09252*%
%ADD35R,0.03543X0.02165*%
%ADD37R,0.02165X0.03543*%
%ADD38R,0.03150X0.03150*%
G04:AMPARAMS|DCode=39|XSize=59.06mil|YSize=133.86mil|CornerRadius=7.38mil|HoleSize=0mil|Usage=FLASHONLY|Rotation=270.000|XOffset=0mil|YOffset=0mil|HoleType=Round|Shape=RoundedRectangle|*
%AMROUNDEDRECTD39*
21,1,0.05906,0.11909,0,0,270.0*
21,1,0.04429,0.13386,0,0,270.0*
1,1,0.01476,-0.05955,-0.02215*
1,1,0.01476,-0.05955,0.02215*
1,1,0.01476,0.05955,0.02215*
1,1,0.01476,0.05955,-0.02215*
%
%ADD39ROUNDEDRECTD39*%
%ADD104R,0.03937X0.05512*%
%ADD105R,0.02362X0.03937*%
%ADD106R,0.05512X0.03937*%
D16*
X0161198Y0253811D02*
D03*
Y0238063D02*
D03*
Y0230189D02*
D03*
Y0245937D02*
D03*
X0509402Y0240937D02*
D03*
Y0248811D02*
D03*
Y0233063D02*
D03*
Y0225189D02*
D03*
X0161244Y0198345D02*
D03*
Y0182597D02*
D03*
Y0174723D02*
D03*
Y0190471D02*
D03*
D17*
X0138954Y0262866D02*
D03*
Y0221134D02*
D03*
X0531646Y0216134D02*
D03*
Y0257866D02*
D03*
X0139Y02074D02*
D03*
Y0165668D02*
D03*
D26*
X0496753Y02492D02*
D03*
X0490847D02*
D03*
X0496753Y02557D02*
D03*
X0490847D02*
D03*
X0472205Y01326D02*
D03*
X04663D02*
D03*
X0289107Y0372D02*
D03*
X0283202D02*
D03*
X0289107Y03652D02*
D03*
X0283202D02*
D03*
X030114Y0372D02*
D03*
X0307045D02*
D03*
X030114Y03652D02*
D03*
X0307045D02*
D03*
X04663Y01258D02*
D03*
X0472205D02*
D03*
D27*
X0428839Y0338976D02*
D03*
X0413091D02*
D03*
D32*
X0161474Y0354302D02*
D03*
Y0362176D02*
D03*
Y0291774D02*
D03*
Y0327254D02*
D03*
Y02839D02*
D03*
Y031938D02*
D03*
D33*
X04076Y0259502D02*
D03*
Y02721D02*
D03*
D35*
X04837Y0280554D02*
D03*
Y0274846D02*
D03*
D37*
X0177379Y032704D02*
D03*
X0183087D02*
D03*
X0480746Y03039D02*
D03*
X0486454D02*
D03*
X0177379Y031956D02*
D03*
X0183087D02*
D03*
X0177591Y03622D02*
D03*
X01833D02*
D03*
X0177591Y03547D02*
D03*
X01833D02*
D03*
X0177046Y02839D02*
D03*
X0182754D02*
D03*
X0177191Y02917D02*
D03*
X01829D02*
D03*
X0409654Y02996D02*
D03*
X0403946D02*
D03*
D38*
X01732Y0244956D02*
D03*
Y0239051D02*
D03*
X018Y0244956D02*
D03*
Y0239051D02*
D03*
X01732Y0215049D02*
D03*
Y0209143D02*
D03*
X018D02*
D03*
Y0215049D02*
D03*
X01732Y018949D02*
D03*
Y0183585D02*
D03*
X018Y018949D02*
D03*
Y0183585D02*
D03*
X05123Y0330953D02*
D03*
X05055D02*
D03*
X05058Y0375853D02*
D03*
X05127D02*
D03*
X04962Y0141047D02*
D03*
Y0146953D02*
D03*
X04892Y0141047D02*
D03*
Y0146953D02*
D03*
X05123Y0325047D02*
D03*
X05055D02*
D03*
X05058Y0369947D02*
D03*
X05127D02*
D03*
D39*
X0138836Y0371821D02*
D03*
Y0344656D02*
D03*
Y030142D02*
D03*
Y0274254D02*
D03*
Y0309735D02*
D03*
Y03369D02*
D03*
D104*
X041134Y0292261D02*
D03*
X04076Y02836D02*
D03*
X040386Y0292261D02*
D03*
D105*
X0483601Y0287858D02*
D03*
X0487341Y0295731D02*
D03*
X0479861D02*
D03*
D106*
X0191139Y028416D02*
D03*
Y029164D02*
D03*
X01998Y02879D02*
D03*
X0191239Y031956D02*
D03*
Y032704D02*
D03*
X01999Y03233D02*
D03*
X01914Y035472D02*
D03*
Y03622D02*
D03*
X0200061Y035846D02*
D03*
M02*
