G04*
G04 #@! TF.GenerationSoftware,Altium Limited,Altium Designer,21.3.2 (30)*
G04*
G04 Layer_Color=32896*
%FSTAX25Y25*%
%MOIN*%
G70*
G04*
G04 #@! TF.SameCoordinates,0E01897F-8C14-442C-AEF0-FA0E372BD8E1*
G04*
G04*
G04 #@! TF.FilePolarity,Positive*
G04*
G01*
G75*
%ADD114C,0.00472*%
%ADD115C,0.00591*%
D114*
X0245874Y0428487D02*
X0246661Y0429274D01*
Y0430849D01*
X0245874Y0431636D01*
X0242726D01*
X0241939Y0430849D01*
Y0429274D01*
X0242726Y0428487D01*
X0245874Y0426913D02*
X0246661Y0426126D01*
Y0424551D01*
X0245874Y0423764D01*
X0245087D01*
X02443Y0424551D01*
X0243513Y0423764D01*
X0242726D01*
X0241939Y0424551D01*
Y0426126D01*
X0242726Y0426913D01*
X0243513D01*
X02443Y0426126D01*
X0245087Y0426913D01*
X0245874D01*
X02443Y0426126D02*
Y0424551D01*
X0527974Y0417046D02*
X0528761Y0417834D01*
Y0419408D01*
X0527974Y0420195D01*
X0524826D01*
X0524039Y0419408D01*
Y0417834D01*
X0524826Y0417046D01*
X0524039Y0415472D02*
Y0413898D01*
Y0414685D01*
X0528761D01*
X0527974Y0415472D01*
X0524039Y0408388D02*
Y0411536D01*
X0527187Y0408388D01*
X0527974D01*
X0528761Y0409175D01*
Y0410749D01*
X0527974Y0411536D01*
D115*
X0223868Y0430923D02*
X0224852Y0431907D01*
Y0433874D01*
X0223868Y0434858D01*
X0219932D01*
X0218948Y0433874D01*
Y0431907D01*
X0219932Y0430923D01*
X0224852Y0428955D02*
Y0425019D01*
X0223868D01*
X0219932Y0428955D01*
X0218948D01*
X0322768Y0426784D02*
X0323752Y0427768D01*
Y0429736D01*
X0322768Y043072D01*
X0318832D01*
X0317848Y0429736D01*
Y0427768D01*
X0318832Y0426784D01*
X0323752Y042088D02*
Y0424816D01*
X03208D01*
X0321784Y0422848D01*
Y0421864D01*
X03208Y042088D01*
X0318832D01*
X0317848Y0421864D01*
Y0423832D01*
X0318832Y0424816D01*
X049836Y0419432D02*
X0499344Y0418448D01*
X0501312D01*
X0502296Y0419432D01*
Y0423368D01*
X0501312Y0424352D01*
X0499344D01*
X049836Y0423368D01*
X0496392Y0424352D02*
X0494424D01*
X0495408D01*
Y0418448D01*
X0496392Y0419432D01*
X0491472Y0424352D02*
X0489504D01*
X0490488D01*
Y0418448D01*
X0491472Y0419432D01*
X048492Y0472552D02*
Y0466648D01*
X0481968D01*
X0480984Y0467632D01*
Y04696D01*
X0481968Y0470584D01*
X048492D01*
X0479016Y0466648D02*
X047508D01*
Y0467632D01*
X0479016Y0471568D01*
Y0472552D01*
X0411129Y0453048D02*
Y0458952D01*
X041408D01*
X0415064Y0457968D01*
Y0456D01*
X041408Y0455016D01*
X0411129D01*
X0420968Y0453048D02*
X0417032D01*
X0420968Y0456984D01*
Y0457968D01*
X0419984Y0458952D01*
X0418016D01*
X0417032Y0457968D01*
X0426871Y0458952D02*
X0422936D01*
Y0456D01*
X0424904Y0456984D01*
X0425887D01*
X0426871Y0456D01*
Y0454032D01*
X0425887Y0453048D01*
X042392D01*
X0422936Y0454032D01*
X0334122Y04787D02*
Y0472796D01*
X033117D01*
X0330186Y047378D01*
Y0475748D01*
X033117Y0476732D01*
X0334122D01*
X0328218Y04787D02*
X032625D01*
X0327234D01*
Y0472796D01*
X0328218Y047378D01*
X0347268Y0426722D02*
X0348252Y0427706D01*
Y0429674D01*
X0347268Y0430658D01*
X0343332D01*
X0342348Y0429674D01*
Y0427706D01*
X0343332Y0426722D01*
X0348252Y0420819D02*
X0347268Y0422787D01*
X03453Y0424755D01*
X0343332D01*
X0342348Y0423771D01*
Y0421803D01*
X0343332Y0420819D01*
X0344316D01*
X03453Y0421803D01*
Y0424755D01*
X022202Y04787D02*
Y0472796D01*
X0219068D01*
X0218084Y047378D01*
Y0475748D01*
X0219068Y0476732D01*
X022202D01*
X021218Y04787D02*
X0216116D01*
X021218Y0474764D01*
Y047378D01*
X0213164Y0472796D01*
X0215132D01*
X0216116Y047378D01*
M02*
