M48
;Layer_Color=9474304
;FILE_FORMAT=2:5
INCH,LZ
;TYPE=PLATED
T1F00S00C0.01299
T2F00S00C0.01575
T3F00S00C0.03937
T4F00S00C0.04331
T5F00S00C0.05512
T6F00S00C0.12598
%
T01
X0369982Y0283778
Y0292439
X0376085Y0298541
X0384746
X0390848Y0292439
Y0283778
X0384746Y0277675
X0376085
X0237683Y0283778
Y0292439
X0231581Y0298541
X0222919
X0216817Y0292439
Y0283778
X0222919Y0277675
X0231581
Y0391841
X0222919
X0216817Y0397943
Y0406604
X0222919Y0412707
X0231581
X0237683Y0406604
Y0397943
X0369982
Y0406604
X0376085Y0412707
X0384746
X0390848Y0406604
Y0397943
X0384746Y0391841
X0376085
T02
X0314Y0283
X0325Y03039
X03249Y03088
X03549Y03017
X03501Y02962
X03537Y02835
X0285Y0285
X0275
X02665Y02844
X02666Y02779
X0265Y031
X027
X02857
X0265Y0315
Y032
X02606Y03316
X0269Y03399
X0271Y03764
X0295Y0375
Y0365
Y0355
X02889Y03595
X0305Y0375
Y0385
X03Y039
Y04
Y041
X0305Y0405
Y0395
Y0415
X0255
X0245
X02588Y03994
X02436Y0363
X02132Y03732
X0305489Y0326111
X03053Y03171
X03137Y03433
X0315Y0355
Y0365
Y0375
X03525Y03629
X03578Y03631
X03698Y03626
X03701Y03546
X0369Y03488
X0377938Y03521
X03808Y03575
X03797Y03333
X03703Y03329
X03767Y03257
X03708Y03126
X03496Y03325
X03538Y03402
X036Y0385
X0365Y039
X037Y0385
X0385Y038
X039Y0385
X0395Y038
Y039
X036Y0395
Y0405
Y0415
T03
X03345Y02811
X03445
X02233Y03165
Y03265
X03875Y03645
Y03745
T04
X03912Y03162
Y03262
Y03362
Y03462
T05
X02709Y0404414
X02859
X03237
X03387
T06
X0380415Y0288108
X022725
Y0402274
X0380415
M30
