M48
;Layer_Color=9474304
;FILE_FORMAT=2:5
INCH,LZ
;TYPE=PLATED
T1F00S00C0.01299
T2F00S00C0.01575
T3F00S00C0.01968
T4F00S00C0.02756
T5F00S00C0.03150
T6F00S00C0.04016
T7F00S00C0.04331
T8F00S00C0.05512
T9F00S00C0.06299
T10F00S00C0.12598
%
T01
X0140669Y0086792
X0149331
X0155433Y0092895
Y0101556
X0149331Y0107658
X0140669
X0134567Y0101556
Y0092895
X0366886
Y0101556
X0372988Y0107658
X038165
X0387752Y0101556
Y0092895
X038165Y0086792
X0372988
X0155433Y0448449
Y045711
X0149331Y0463213
X0140669
X0134567Y045711
Y0448449
X0140669Y0442346
X0149331
X0366886Y044512
Y0436458
X0372988Y0430356
X038165
X0387752Y0436458
Y044512
X038165Y0451222
X0372988
X0511165Y0448449
Y045711
X0517268Y0463213
X0525929
X0532031Y045711
Y0448449
X0525929Y0442346
X0517268
T02
X0186013Y0099013
X01939Y00991
X01963Y01247
X0206Y01221
X01822Y01245
X01821Y01185
X0174Y01243
X02219Y01005
X02363Y0107
X02475Y01243
X02608Y01332
X02785Y0121562
X02844Y01003
X03025Y00986
X03092Y01188
X03162Y01208
X03202Y0124188
X03432Y01294
X03462Y01351
X03508Y01206
X03629Y0124
X03812Y01376
X04162Y01007
X04241Y01006
X03459Y00998
X0496Y01056
X04943Y00886
X05228Y01014
X05262Y0118
X05264Y01427
X04777Y01258
X04979Y0172
X05217Y01717
X04915Y0225
Y02325
X0486Y0243
X0481Y0247
X04765Y02539
X05098Y02679
X05225Y02842
X0522534Y0292266
X04529Y02931
X04458Y02996
X04539Y02511
X03855Y0181
X03813Y01845
X03214Y0169937
X0310984Y0170016
X02945Y01665
X02973Y01578
X027Y0162
X02635Y01575
X02752Y01692
X0214Y01974
X02093Y01933
X0205Y01894
X02007Y01858
X02008Y02005
X02048Y02043
X02091Y02084
X02136Y02131
X02179Y02173
X02171Y0225
X0210097Y0221203
X02005Y02294
X01901Y02292
X01902Y02207
X01733Y022
X0173Y02026
X018Y02043
X018Y01947
X02181Y02024
X01854Y02449
X01508Y02403
X0148Y02347
X01407Y02274
X01478Y02158
X0148Y02081
X01442Y02003
X01509Y01876
Y01825
X0132088Y03543
X01329Y03796
X0135Y0395
Y0405
Y0415
Y0425
Y0435
X0145Y043
Y042
Y041
X0155Y0415
Y0435
X0175Y0425
X018Y042
X0185Y0425
X0195
X0205
X02Y042
X021
X0215Y0425
X023
Y042
X0235
Y0425
X025
Y042
X0255Y043
X025Y044
X0255Y0445
X024265Y044395
X0235Y045
X027Y042
X0275Y0415
X028Y042
X0285Y0415
X029Y042
X0295Y0415
X03Y042
X0305Y0415
X031Y042
X0305Y0445
X02761Y04045
X0275Y03712
X029126Y0356773
X03014Y03587
X02255Y03757
X02119Y03714
X019Y042
X0315Y0415
X033Y042
X0335Y0415
X034Y042
X0355
Y043
Y044
X0335Y0445
X0325
X0315
X035Y0465
X036
X037
X038
X039
X042Y046
X043
X0425Y0465
X0435
Y0455
Y0445
Y0435
Y0425
X044Y045
X0445Y0455
X045Y046
X044
X0445Y0465
X0455
X0465
X046Y0415
Y0405
X039Y0415
X038
X037
X036
X0365Y042
X0375
X0385
X0395
X03639Y04045
X03209Y0365
X0414763Y0357763
X04147Y03489
X04501Y03231
X04815Y03134
X04765Y03378
X0495Y034
X0505
X0515
Y035
X0505
X0495
Y036
X0505
X0515
X05207Y03775
X0535Y0375
Y0395
Y0405
Y0415
Y0425
Y0435
X052635Y043195
X052Y0435
X0515Y043
X0505
X0495
Y044
X0505
X051Y0435
X05
Y0445
X049
X0485Y044
X049Y0435
X048
Y0445
X0475Y0465
X0485
X0495
X05Y046
X0505Y0465
X05Y0405
Y0395
X0505Y039
X0495
X0485
X0475
X048Y0395
Y0385
X049
X05
X0497149Y0369851
X049Y0395
Y0405
X048
X047
Y0415
X048
X0535Y035
Y033
X05203Y03327
T03
X04875Y01973
X04313Y04146
X0497528Y0324872
T04
X04115Y04274
Y04362
X04215
Y04274
T05
X04362Y0259826
Y0275574
T06
X0191068Y0140437
X0201068
Y0150437
X0211069
Y0140437
X0221069
Y0150437
X0231068
Y0140437
X0241069
Y0150437
X0251068
Y0140437
X0261069
Y0150437
X0271069
Y0140437
X0281068
Y0150437
X0291069
Y0140437
X0301068
Y0150437
X0311069
Y0140437
X0191068Y0150437
X0321069
Y0140437
X0331068
Y0150437
X0341069
Y0140437
X0351068
Y0150437
X0361069
Y0140437
X0371069
Y0150437
X05065Y0147
Y0137
Y0127
Y0117
Y0107
Y0097
X0311069Y0380437
X0301068
X0291069
X0281068
X0271069
X0261069
X0251068
X0241069
X0231068
X0221069
X0211069
X0201068
X0191068
Y0390437
X0201068
X0211069
X0221069
X0231068
X0241069
X0251068
X0261069
X0271069
X0281068
X0291069
X0301068
X0311069
X0321069
Y0380437
X0331068
Y0390437
X0341069
Y0380437
X0351068
Y0390437
X0361069
Y0380437
X0371069
Y0390437
T07
X04563Y00899
X04663
Y01023
X04563
Y01147
X04663
X04763
Y01023
Y00899
T08
X04115Y045285
X04265
T09
X02071Y046
X02271
X0320186
X0340186
X047Y0453852
X049
T10
X0145Y0097225
X0377319
X0145Y0452779
X0377319Y0440789
X0521598Y0452779
M30
