G04*
G04 #@! TF.GenerationSoftware,Altium Limited,Altium Designer,21.3.2 (30)*
G04*
G04 Layer_Color=16711935*
%FSTAX25Y25*%
%MOIN*%
G70*
G04*
G04 #@! TF.SameCoordinates,B4C271EC-4B27-40F8-A0F4-B21306F732D5*
G04*
G04*
G04 #@! TF.FilePolarity,Positive*
G04*
G01*
G75*
%ADD11C,0.00394*%
%ADD79R,0.04305X0.24016*%
G36*
X0534942Y0358658D02*
X0533761Y0356757D01*
X0536124D01*
X0534942Y0358658D01*
D02*
G37*
G36*
X0546842D02*
X0545661Y0356757D01*
X0548024D01*
X0546842Y0358658D01*
D02*
G37*
D11*
X0622483Y0399046D02*
G03*
X0622483Y0399046I-0001969J0D01*
G01*
X06661Y0307925D02*
Y0350525D01*
X06507Y0307925D02*
Y0350525D01*
X06661D01*
X06507Y0307925D02*
X06661D01*
X0687777Y0354692D02*
Y0378708D01*
X0655769Y0354692D02*
Y0378708D01*
Y0354692D02*
X0687777D01*
X0655769Y0378708D02*
X0687777D01*
X0526628Y0354013D02*
X0530172D01*
X0526628Y0360312D02*
X0530172D01*
X0526628Y0354013D02*
Y0360312D01*
X0530172Y0354013D02*
Y0360312D01*
X0536517Y0354591D02*
Y0360891D01*
X0533368Y0354591D02*
X0536517D01*
X0533368D02*
Y0360891D01*
X0536517D01*
X0548417Y0354591D02*
Y0360891D01*
X0545268Y0354591D02*
X0548417D01*
X0545268D02*
Y0360891D01*
X0548417D01*
X0551628Y0354013D02*
X0555172D01*
X0551628Y0360312D02*
X0555172D01*
X0551628Y0354013D02*
Y0360312D01*
X0555172Y0354013D02*
Y0360312D01*
X0580792Y0350425D02*
Y0353575D01*
X0574493Y0350425D02*
Y0353575D01*
Y0350425D02*
X0580792D01*
X0574493Y0353575D02*
X0580792D01*
Y0356925D02*
Y0360075D01*
X0574493Y0356925D02*
Y0360075D01*
Y0356925D02*
X0580792D01*
X0574493Y0360075D02*
X0580792D01*
X0644339Y0343881D02*
Y0369472D01*
X0637252Y0376558D02*
X0644339Y0369472D01*
X0611661D02*
X0618748Y0376558D01*
X0637252D01*
X0611661Y0343881D02*
X0644339D01*
X0611661D02*
Y0369472D01*
X0655625Y0395408D02*
X0658775D01*
X0655625Y0401707D02*
X0658775D01*
X0655625Y0395408D02*
Y0401707D01*
X0658775Y0395408D02*
Y0401707D01*
X0649125Y0395408D02*
X0652275D01*
X0649125Y0401707D02*
X0652275D01*
X0649125Y0395408D02*
Y0401707D01*
X0652275Y0395408D02*
Y0401707D01*
X0641503Y0420761D02*
X0649377D01*
X0641503Y0415839D02*
X0649377D01*
X0641503D02*
Y0420761D01*
X0649377Y0415839D02*
Y0420761D01*
X0696861Y0420215D02*
Y0459585D01*
X0666939Y0420215D02*
Y0424152D01*
X0673239D01*
X0666939Y0420215D02*
X0696861D01*
X0673239Y0424152D02*
Y0455648D01*
X0666939Y0459585D02*
X0696861D01*
X0666939Y0455648D02*
X0673239D01*
X0666939D02*
Y0459585D01*
X0594137Y0445897D02*
X0624058D01*
X0594137Y0395503D02*
X0624058D01*
X0594137D02*
Y0445897D01*
X0624058Y0395503D02*
Y0445897D01*
X0545462Y0371389D02*
Y0375326D01*
X0539163D02*
X0545462D01*
X0515541Y0371389D02*
X0545462D01*
X0539163Y0375326D02*
Y0406822D01*
X0515541Y0410759D02*
X0545462D01*
X0539163Y0406822D02*
X0545462D01*
Y0410759D01*
X0515541Y0371389D02*
Y0410759D01*
X0545462Y0419441D02*
Y0423378D01*
X0539163D02*
X0545462D01*
X0515541Y0419441D02*
X0545462D01*
X0539163Y0423378D02*
Y0454874D01*
X0515541Y0458811D02*
X0545462D01*
X0539163Y0454874D02*
X0545462D01*
Y0458811D01*
X0515541Y0419441D02*
Y0458811D01*
D79*
X0658125Y03667D02*
D03*
M02*
