G04*
G04 #@! TF.GenerationSoftware,Altium Limited,Altium Designer,21.3.2 (30)*
G04*
G04 Layer_Color=32768*
%FSTAX25Y25*%
%MOIN*%
G70*
G04*
G04 #@! TF.SameCoordinates,B4C271EC-4B27-40F8-A0F4-B21306F732D5*
G04*
G04*
G04 #@! TF.FilePolarity,Positive*
G04*
G01*
G75*
%ADD11C,0.00394*%
%ADD80C,0.00197*%
D11*
X0658333Y0327281D02*
Y0331218D01*
X0667Y0306825D02*
Y0351825D01*
X06497Y0306825D02*
Y0351825D01*
X0667D01*
X06497Y0306825D02*
X0667D01*
X0656365Y032925D02*
X0660302D01*
X0692935Y0352724D02*
Y0380676D01*
X0650612Y0352724D02*
Y0380676D01*
Y0352724D02*
X0692935D01*
X0650612Y0380676D02*
X0692935D01*
X0669805Y03667D02*
X0673742D01*
X0671773Y0364732D02*
Y0368669D01*
X05284Y0355391D02*
Y0358934D01*
X0526628Y0357162D02*
X0530172D01*
X05534Y0355391D02*
Y0358934D01*
X0551628Y0357162D02*
X0555172D01*
X0609098Y0418731D02*
Y0422669D01*
X0607129Y04207D02*
X0611066D01*
D80*
X0525644Y0352241D02*
X0531156D01*
X0525644Y0362084D02*
X0531156D01*
X0525644Y0352241D02*
Y0362084D01*
X0531156Y0352241D02*
Y0362084D01*
X0534942Y0355772D02*
Y0359709D01*
X0532974Y0357741D02*
X0536911D01*
X0537502Y0352229D02*
Y0363253D01*
X0532383Y0352229D02*
X0537502D01*
X0532383D02*
Y0363253D01*
X0537502D01*
X0546842Y0355772D02*
Y0359709D01*
X0544874Y0357741D02*
X0548811D01*
X0549402Y0352229D02*
Y0363253D01*
X0544283Y0352229D02*
X0549402D01*
X0544283D02*
Y0363253D01*
X0549402D01*
X0550644Y0352241D02*
X0556156D01*
X0550644Y0362084D02*
X0556156D01*
X0550644Y0352241D02*
Y0362084D01*
X0556156Y0352241D02*
Y0362084D01*
X0582957Y0349441D02*
Y0354559D01*
X0572327D02*
X0582957D01*
X0572327Y0349441D02*
Y0354559D01*
Y0349441D02*
X0582957D01*
X0577642Y0350031D02*
Y0353969D01*
X0575674Y0352D02*
X0579611D01*
X0582957Y0355941D02*
Y0361059D01*
X0572327D02*
X0582957D01*
X0572327Y0355941D02*
Y0361059D01*
Y0355941D02*
X0582957D01*
X0577642Y0356532D02*
Y0360469D01*
X0575674Y03585D02*
X0579611D01*
X0626031Y0360221D02*
X0629969D01*
X0628Y0358252D02*
Y0362189D01*
X061048Y0337386D02*
X064552D01*
Y0383055D01*
X061048D02*
X064552D01*
X061048Y0337386D02*
Y0383055D01*
X0654641Y0393243D02*
X0659759D01*
Y0403873D01*
X0654641D02*
X0659759D01*
X0654641Y0393243D02*
Y0403873D01*
X0655232Y0398558D02*
X0659168D01*
X06572Y0396589D02*
Y0400526D01*
X0648141Y0393243D02*
X0653259D01*
Y0403873D01*
X0648141D02*
X0653259D01*
X0648141Y0393243D02*
Y0403873D01*
X0648732Y0398558D02*
X0652669D01*
X06507Y0396589D02*
Y0400526D01*
X064544Y0416331D02*
Y0420268D01*
X0643472Y04183D02*
X0647409D01*
X0651739Y0414855D02*
Y0421745D01*
X0639141D02*
X0651739D01*
X0639141Y0414855D02*
Y0421745D01*
Y0414855D02*
X0651739D01*
X0661821Y0418837D02*
Y0460963D01*
X0698435D01*
Y0418837D02*
Y0460963D01*
X0661821Y0418837D02*
X0698435D01*
X0679931Y04399D02*
X0683869D01*
X06819Y0437931D02*
Y0441868D01*
X0585869Y0446881D02*
X0632326D01*
X0585869Y0394519D02*
X0632326D01*
X0585869D02*
Y0446881D01*
X0632326Y0394519D02*
Y0446881D01*
X0530502Y0389106D02*
Y0393042D01*
X0528533Y0391074D02*
X053247D01*
X0513966Y0412137D02*
X055058D01*
X0513966Y0370011D02*
Y0412137D01*
Y0370011D02*
X055058D01*
Y0412137D01*
X0530502Y0437157D02*
Y0441094D01*
X0528533Y0439126D02*
X053247D01*
X0513966Y0460189D02*
X055058D01*
X0513966Y0418063D02*
Y0460189D01*
Y0418063D02*
X055058D01*
Y0460189D01*
M02*
