G04*
G04 #@! TF.GenerationSoftware,Altium Limited,Altium Designer,21.3.2 (30)*
G04*
G04 Layer_Color=2752767*
%FSTAX25Y25*%
%MOIN*%
G70*
G04*
G04 #@! TF.SameCoordinates,B4C271EC-4B27-40F8-A0F4-B21306F732D5*
G04*
G04*
G04 #@! TF.FilePolarity,Positive*
G04*
G01*
G75*
%ADD81C,0.00200*%
%ADD82C,0.00267*%
D81*
X06142Y0327D02*
Y03286D01*
X06158D01*
Y0327D01*
X06142D01*
X06342D02*
Y03286D01*
X06358D01*
Y0327D01*
X06342D01*
X0605Y03632D02*
X06042Y03648D01*
X06058D01*
X0605Y03632D01*
Y03732D02*
X06042Y03748D01*
X06058D01*
X0605Y03732D01*
X05827Y0479937D02*
X05819Y0481537D01*
X05835D01*
X05827Y0479937D01*
Y0489937D02*
X05819Y0491537D01*
X05835D01*
X05827Y0489937D01*
X06184Y04805D02*
Y04821D01*
X062D01*
Y04805D01*
X06184D01*
X05984D02*
Y04821D01*
X06D01*
Y04805D01*
X05984D01*
X06345Y0479937D02*
X06337Y0481537D01*
X06353D01*
X06345Y0479937D01*
Y0489937D02*
X06337Y0491537D01*
X06353D01*
X06345Y0489937D01*
X0645Y03642D02*
X06454Y03646D01*
X06458D01*
X06454Y0365D01*
X06458Y03654D01*
X06454D01*
X0645Y03658D01*
X06446Y03654D01*
X06442D01*
X06446Y0365D01*
X06442Y03646D01*
X06446D01*
X0645Y03642D01*
X06757Y03673D02*
X06761Y03681D01*
X06757Y03689D01*
X06765Y03685D01*
X06773Y03689D01*
X06769Y03681D01*
X06773Y03673D01*
X06765Y03677D01*
X06757Y03673D01*
X0680214Y0470428D02*
Y0470028D01*
X0681014D01*
Y0470428D01*
X0681414D01*
Y0471228D01*
X0681014D01*
Y0471628D01*
X0680214D01*
Y0471228D01*
X0679814D01*
Y0470428D01*
X0680214D01*
X0694978Y047653D02*
Y047613D01*
X0695778D01*
Y047653D01*
X0696178D01*
Y047733D01*
X0695778D01*
Y047773D01*
X0694978D01*
Y047733D01*
X0694578D01*
Y047653D01*
X0694978D01*
X0688876Y0491294D02*
Y0490894D01*
X0689676D01*
Y0491294D01*
X0690076D01*
Y0492094D01*
X0689676D01*
Y0492494D01*
X0688876D01*
Y0492094D01*
X0688476D01*
Y0491294D01*
X0688876D01*
X0674112Y0485191D02*
Y0484791D01*
X0674912D01*
Y0485191D01*
X0675312D01*
Y0485991D01*
X0674912D01*
Y0486391D01*
X0674112D01*
Y0485991D01*
X0673712D01*
Y0485191D01*
X0674112D01*
X0694978D02*
Y0484791D01*
X0695778D01*
Y0485191D01*
X0696178D01*
Y0485991D01*
X0695778D01*
Y0486391D01*
X0694978D01*
Y0485991D01*
X0694578D01*
Y0485191D01*
X0694978D01*
X0680214Y0491294D02*
Y0490894D01*
X0681014D01*
Y0491294D01*
X0681414D01*
Y0492094D01*
X0681014D01*
Y0492494D01*
X0680214D01*
Y0492094D01*
X0679814D01*
Y0491294D01*
X0680214D01*
X0674112Y047653D02*
Y047613D01*
X0674912D01*
Y047653D01*
X0675312D01*
Y047733D01*
X0674912D01*
Y047773D01*
X0674112D01*
Y047733D01*
X0673712D01*
Y047653D01*
X0674112D01*
X0688876Y0470428D02*
Y0470028D01*
X0689676D01*
Y0470428D01*
X0690076D01*
Y0471228D01*
X0689676D01*
Y0471628D01*
X0688876D01*
Y0471228D01*
X0688476D01*
Y0470428D01*
X0688876D01*
Y031105D02*
Y031065D01*
X0689676D01*
Y031105D01*
X0690076D01*
Y031185D01*
X0689676D01*
Y031225D01*
X0688876D01*
Y031185D01*
X0688476D01*
Y031105D01*
X0688876D01*
X0674112Y0317152D02*
Y0316752D01*
X0674912D01*
Y0317152D01*
X0675312D01*
Y0317952D01*
X0674912D01*
Y0318352D01*
X0674112D01*
Y0317952D01*
X0673712D01*
Y0317152D01*
X0674112D01*
X0680214Y0331916D02*
Y0331516D01*
X0681014D01*
Y0331916D01*
X0681414D01*
Y0332716D01*
X0681014D01*
Y0333116D01*
X0680214D01*
Y0332716D01*
X0679814D01*
Y0331916D01*
X0680214D01*
X0694978Y0325813D02*
Y0325413D01*
X0695778D01*
Y0325813D01*
X0696178D01*
Y0326613D01*
X0695778D01*
Y0327013D01*
X0694978D01*
Y0326613D01*
X0694578D01*
Y0325813D01*
X0694978D01*
X0674112D02*
Y0325413D01*
X0674912D01*
Y0325813D01*
X0675312D01*
Y0326613D01*
X0674912D01*
Y0327013D01*
X0674112D01*
Y0326613D01*
X0673712D01*
Y0325813D01*
X0674112D01*
X0688876Y0331916D02*
Y0331516D01*
X0689676D01*
Y0331916D01*
X0690076D01*
Y0332716D01*
X0689676D01*
Y0333116D01*
X0688876D01*
Y0332716D01*
X0688476D01*
Y0331916D01*
X0688876D01*
X0694978Y0317152D02*
Y0316752D01*
X0695778D01*
Y0317152D01*
X0696178D01*
Y0317952D01*
X0695778D01*
Y0318352D01*
X0694978D01*
Y0317952D01*
X0694578D01*
Y0317152D01*
X0694978D01*
X0680214Y031105D02*
Y031065D01*
X0681014D01*
Y031105D01*
X0681414D01*
Y031185D01*
X0681014D01*
Y031225D01*
X0680214D01*
Y031185D01*
X0679814D01*
Y031105D01*
X0680214D01*
X0595Y03292D02*
X05954Y03296D01*
X05958D01*
X05954Y033D01*
X05958Y03304D01*
X05954D01*
X0595Y03308D01*
X05946Y03304D01*
X05942D01*
X05946Y033D01*
X05942Y03296D01*
X05946D01*
X0595Y03292D01*
X059Y03342D02*
X05904Y03346D01*
X05908D01*
X05904Y0335D01*
X05908Y03354D01*
X05904D01*
X059Y03358D01*
X05896Y03354D01*
X05892D01*
X05896Y0335D01*
X05892Y03346D01*
X05896D01*
X059Y03342D01*
X0575Y03292D02*
X05754Y03296D01*
X05758D01*
X05754Y033D01*
X05758Y03304D01*
X05754D01*
X0575Y03308D01*
X05746Y03304D01*
X05742D01*
X05746Y033D01*
X05742Y03296D01*
X05746D01*
X0575Y03292D01*
X0565D02*
X05654Y03296D01*
X05658D01*
X05654Y033D01*
X05658Y03304D01*
X05654D01*
X0565Y03308D01*
X05646Y03304D01*
X05642D01*
X05646Y033D01*
X05642Y03296D01*
X05646D01*
X0565Y03292D01*
X057Y03242D02*
X05704Y03246D01*
X05708D01*
X05704Y0325D01*
X05708Y03254D01*
X05704D01*
X057Y03258D01*
X05696Y03254D01*
X05692D01*
X05696Y0325D01*
X05692Y03246D01*
X05696D01*
X057Y03242D01*
X0585Y03292D02*
X05854Y03296D01*
X05858D01*
X05854Y033D01*
X05858Y03304D01*
X05854D01*
X0585Y03308D01*
X05846Y03304D01*
X05842D01*
X05846Y033D01*
X05842Y03296D01*
X05846D01*
X0585Y03292D01*
X058Y03242D02*
X05804Y03246D01*
X05808D01*
X05804Y0325D01*
X05808Y03254D01*
X05804D01*
X058Y03258D01*
X05796Y03254D01*
X05792D01*
X05796Y0325D01*
X05792Y03246D01*
X05796D01*
X058Y03242D01*
X0585Y03192D02*
X05854Y03196D01*
X05858D01*
X05854Y032D01*
X05858Y03204D01*
X05854D01*
X0585Y03208D01*
X05846Y03204D01*
X05842D01*
X05846Y032D01*
X05842Y03196D01*
X05846D01*
X0585Y03192D01*
X0575D02*
X05754Y03196D01*
X05758D01*
X05754Y032D01*
X05758Y03204D01*
X05754D01*
X0575Y03208D01*
X05746Y03204D01*
X05742D01*
X05746Y032D01*
X05742Y03196D01*
X05746D01*
X0575Y03192D01*
X058Y03142D02*
X05804Y03146D01*
X05808D01*
X05804Y0315D01*
X05808Y03154D01*
X05804D01*
X058Y03158D01*
X05796Y03154D01*
X05792D01*
X05796Y0315D01*
X05792Y03146D01*
X05796D01*
X058Y03142D01*
X057D02*
X05704Y03146D01*
X05708D01*
X05704Y0315D01*
X05708Y03154D01*
X05704D01*
X057Y03158D01*
X05696Y03154D01*
X05692D01*
X05696Y0315D01*
X05692Y03146D01*
X05696D01*
X057Y03142D01*
X061D02*
X06104Y03146D01*
X06108D01*
X06104Y0315D01*
X06108Y03154D01*
X06104D01*
X061Y03158D01*
X06096Y03154D01*
X06092D01*
X06096Y0315D01*
X06092Y03146D01*
X06096D01*
X061Y03142D01*
X052Y04492D02*
X05204Y04496D01*
X05208D01*
X05204Y045D01*
X05208Y04504D01*
X05204D01*
X052Y04508D01*
X05196Y04504D01*
X05192D01*
X05196Y045D01*
X05192Y04496D01*
X05196D01*
X052Y04492D01*
X05789Y04274D02*
X05793Y04282D01*
X05789Y0429D01*
X05797Y04286D01*
X05805Y0429D01*
X05801Y04282D01*
X05805Y04274D01*
X05797Y04278D01*
X05789Y04274D01*
X05793Y04074D02*
X05797Y04082D01*
X05793Y0409D01*
X05801Y04086D01*
X05809Y0409D01*
X05805Y04082D01*
X05809Y04074D01*
X05801Y04078D01*
X05793Y04074D01*
X0601802Y0430727D02*
X0602202D01*
X0602602Y0431127D01*
X0603002Y0430727D01*
X0603402D01*
Y0431127D01*
X0603002Y0431527D01*
X0603402Y0431927D01*
Y0432327D01*
X0603002D01*
X0602602Y0431927D01*
X0602202Y0432327D01*
X0601802D01*
Y0431927D01*
X0602202Y0431527D01*
X0601802Y0431127D01*
Y0430727D01*
X0606132D02*
X0606532D01*
X0606932Y0431127D01*
X0607332Y0430727D01*
X0607732D01*
Y0431127D01*
X0607332Y0431527D01*
X0607732Y0431927D01*
Y0432327D01*
X0607332D01*
X0606932Y0431927D01*
X0606532Y0432327D01*
X0606132D01*
Y0431927D01*
X0606532Y0431527D01*
X0606132Y0431127D01*
Y0430727D01*
X0610463D02*
X0610863D01*
X0611263Y0431127D01*
X0611663Y0430727D01*
X0612063D01*
Y0431127D01*
X0611663Y0431527D01*
X0612063Y0431927D01*
Y0432327D01*
X0611663D01*
X0611263Y0431927D01*
X0610863Y0432327D01*
X0610463D01*
Y0431927D01*
X0610863Y0431527D01*
X0610463Y0431127D01*
Y0430727D01*
X0614794D02*
X0615194D01*
X0615594Y0431127D01*
X0615994Y0430727D01*
X0616394D01*
Y0431127D01*
X0615994Y0431527D01*
X0616394Y0431927D01*
Y0432327D01*
X0615994D01*
X0615594Y0431927D01*
X0615194Y0432327D01*
X0614794D01*
Y0431927D01*
X0615194Y0431527D01*
X0614794Y0431127D01*
Y0430727D01*
X0601802Y0426396D02*
X0602202D01*
X0602602Y0426796D01*
X0603002Y0426396D01*
X0603402D01*
Y0426796D01*
X0603002Y0427196D01*
X0603402Y0427596D01*
Y0427996D01*
X0603002D01*
X0602602Y0427596D01*
X0602202Y0427996D01*
X0601802D01*
Y0427596D01*
X0602202Y0427196D01*
X0601802Y0426796D01*
Y0426396D01*
X0606132D02*
X0606532D01*
X0606932Y0426796D01*
X0607332Y0426396D01*
X0607732D01*
Y0426796D01*
X0607332Y0427196D01*
X0607732Y0427596D01*
Y0427996D01*
X0607332D01*
X0606932Y0427596D01*
X0606532Y0427996D01*
X0606132D01*
Y0427596D01*
X0606532Y0427196D01*
X0606132Y0426796D01*
Y0426396D01*
X0610463D02*
X0610863D01*
X0611263Y0426796D01*
X0611663Y0426396D01*
X0612063D01*
Y0426796D01*
X0611663Y0427196D01*
X0612063Y0427596D01*
Y0427996D01*
X0611663D01*
X0611263Y0427596D01*
X0610863Y0427996D01*
X0610463D01*
Y0427596D01*
X0610863Y0427196D01*
X0610463Y0426796D01*
Y0426396D01*
X0614794D02*
X0615194D01*
X0615594Y0426796D01*
X0615994Y0426396D01*
X0616394D01*
Y0426796D01*
X0615994Y0427196D01*
X0616394Y0427596D01*
Y0427996D01*
X0615994D01*
X0615594Y0427596D01*
X0615194Y0427996D01*
X0614794D01*
Y0427596D01*
X0615194Y0427196D01*
X0614794Y0426796D01*
Y0426396D01*
X0601802Y0422065D02*
X0602202D01*
X0602602Y0422465D01*
X0603002Y0422065D01*
X0603402D01*
Y0422465D01*
X0603002Y0422865D01*
X0603402Y0423265D01*
Y0423665D01*
X0603002D01*
X0602602Y0423265D01*
X0602202Y0423665D01*
X0601802D01*
Y0423265D01*
X0602202Y0422865D01*
X0601802Y0422465D01*
Y0422065D01*
X0606132D02*
X0606532D01*
X0606932Y0422465D01*
X0607332Y0422065D01*
X0607732D01*
Y0422465D01*
X0607332Y0422865D01*
X0607732Y0423265D01*
Y0423665D01*
X0607332D01*
X0606932Y0423265D01*
X0606532Y0423665D01*
X0606132D01*
Y0423265D01*
X0606532Y0422865D01*
X0606132Y0422465D01*
Y0422065D01*
X0610463D02*
X0610863D01*
X0611263Y0422465D01*
X0611663Y0422065D01*
X0612063D01*
Y0422465D01*
X0611663Y0422865D01*
X0612063Y0423265D01*
Y0423665D01*
X0611663D01*
X0611263Y0423265D01*
X0610863Y0423665D01*
X0610463D01*
Y0423265D01*
X0610863Y0422865D01*
X0610463Y0422465D01*
Y0422065D01*
X0614794D02*
X0615194D01*
X0615594Y0422465D01*
X0615994Y0422065D01*
X0616394D01*
Y0422465D01*
X0615994Y0422865D01*
X0616394Y0423265D01*
Y0423665D01*
X0615994D01*
X0615594Y0423265D01*
X0615194Y0423665D01*
X0614794D01*
Y0423265D01*
X0615194Y0422865D01*
X0614794Y0422465D01*
Y0422065D01*
X0601802Y0417735D02*
X0602202D01*
X0602602Y0418135D01*
X0603002Y0417735D01*
X0603402D01*
Y0418135D01*
X0603002Y0418535D01*
X0603402Y0418935D01*
Y0419335D01*
X0603002D01*
X0602602Y0418935D01*
X0602202Y0419335D01*
X0601802D01*
Y0418935D01*
X0602202Y0418535D01*
X0601802Y0418135D01*
Y0417735D01*
X0606132D02*
X0606532D01*
X0606932Y0418135D01*
X0607332Y0417735D01*
X0607732D01*
Y0418135D01*
X0607332Y0418535D01*
X0607732Y0418935D01*
Y0419335D01*
X0607332D01*
X0606932Y0418935D01*
X0606532Y0419335D01*
X0606132D01*
Y0418935D01*
X0606532Y0418535D01*
X0606132Y0418135D01*
Y0417735D01*
X0610463D02*
X0610863D01*
X0611263Y0418135D01*
X0611663Y0417735D01*
X0612063D01*
Y0418135D01*
X0611663Y0418535D01*
X0612063Y0418935D01*
Y0419335D01*
X0611663D01*
X0611263Y0418935D01*
X0610863Y0419335D01*
X0610463D01*
Y0418935D01*
X0610863Y0418535D01*
X0610463Y0418135D01*
Y0417735D01*
X0614794D02*
X0615194D01*
X0615594Y0418135D01*
X0615994Y0417735D01*
X0616394D01*
Y0418135D01*
X0615994Y0418535D01*
X0616394Y0418935D01*
Y0419335D01*
X0615994D01*
X0615594Y0418935D01*
X0615194Y0419335D01*
X0614794D01*
Y0418935D01*
X0615194Y0418535D01*
X0614794Y0418135D01*
Y0417735D01*
X0601802Y0413404D02*
X0602202D01*
X0602602Y0413804D01*
X0603002Y0413404D01*
X0603402D01*
Y0413804D01*
X0603002Y0414204D01*
X0603402Y0414604D01*
Y0415004D01*
X0603002D01*
X0602602Y0414604D01*
X0602202Y0415004D01*
X0601802D01*
Y0414604D01*
X0602202Y0414204D01*
X0601802Y0413804D01*
Y0413404D01*
X0606132D02*
X0606532D01*
X0606932Y0413804D01*
X0607332Y0413404D01*
X0607732D01*
Y0413804D01*
X0607332Y0414204D01*
X0607732Y0414604D01*
Y0415004D01*
X0607332D01*
X0606932Y0414604D01*
X0606532Y0415004D01*
X0606132D01*
Y0414604D01*
X0606532Y0414204D01*
X0606132Y0413804D01*
Y0413404D01*
X0610463D02*
X0610863D01*
X0611263Y0413804D01*
X0611663Y0413404D01*
X0612063D01*
Y0413804D01*
X0611663Y0414204D01*
X0612063Y0414604D01*
Y0415004D01*
X0611663D01*
X0611263Y0414604D01*
X0610863Y0415004D01*
X0610463D01*
Y0414604D01*
X0610863Y0414204D01*
X0610463Y0413804D01*
Y0413404D01*
X0614794D02*
X0615194D01*
X0615594Y0413804D01*
X0615994Y0413404D01*
X0616394D01*
Y0413804D01*
X0615994Y0414204D01*
X0616394Y0414604D01*
Y0415004D01*
X0615994D01*
X0615594Y0414604D01*
X0615194Y0415004D01*
X0614794D01*
Y0414604D01*
X0615194Y0414204D01*
X0614794Y0413804D01*
Y0413404D01*
X0601802Y0409073D02*
X0602202D01*
X0602602Y0409473D01*
X0603002Y0409073D01*
X0603402D01*
Y0409473D01*
X0603002Y0409873D01*
X0603402Y0410273D01*
Y0410673D01*
X0603002D01*
X0602602Y0410273D01*
X0602202Y0410673D01*
X0601802D01*
Y0410273D01*
X0602202Y0409873D01*
X0601802Y0409473D01*
Y0409073D01*
X0606132D02*
X0606532D01*
X0606932Y0409473D01*
X0607332Y0409073D01*
X0607732D01*
Y0409473D01*
X0607332Y0409873D01*
X0607732Y0410273D01*
Y0410673D01*
X0607332D01*
X0606932Y0410273D01*
X0606532Y0410673D01*
X0606132D01*
Y0410273D01*
X0606532Y0409873D01*
X0606132Y0409473D01*
Y0409073D01*
X0610463D02*
X0610863D01*
X0611263Y0409473D01*
X0611663Y0409073D01*
X0612063D01*
Y0409473D01*
X0611663Y0409873D01*
X0612063Y0410273D01*
Y0410673D01*
X0611663D01*
X0611263Y0410273D01*
X0610863Y0410673D01*
X0610463D01*
Y0410273D01*
X0610863Y0409873D01*
X0610463Y0409473D01*
Y0409073D01*
X0614794D02*
X0615194D01*
X0615594Y0409473D01*
X0615994Y0409073D01*
X0616394D01*
Y0409473D01*
X0615994Y0409873D01*
X0616394Y0410273D01*
Y0410673D01*
X0615994D01*
X0615594Y0410273D01*
X0615194Y0410673D01*
X0614794D01*
Y0410273D01*
X0615194Y0409873D01*
X0614794Y0409473D01*
Y0409073D01*
X05565Y04477D02*
X05569Y04485D01*
X05565Y04493D01*
X05573Y04489D01*
X05581Y04493D01*
X05577Y04485D01*
X05581Y04477D01*
X05573Y04481D01*
X05565Y04477D01*
X05677Y04897D02*
X05681Y04901D01*
X05685D01*
X05681Y04905D01*
X05685Y04909D01*
X05681D01*
X05677Y04913D01*
X05673Y04909D01*
X05669D01*
X05673Y04905D01*
X05669Y04901D01*
X05673D01*
X05677Y04897D01*
X0563Y04862D02*
X05634Y04866D01*
X05638D01*
X05634Y0487D01*
X05638Y04874D01*
X05634D01*
X0563Y04878D01*
X05626Y04874D01*
X05622D01*
X05626Y0487D01*
X05622Y04866D01*
X05626D01*
X0563Y04862D01*
X0642Y04902D02*
X06424Y04906D01*
X06428D01*
X06424Y0491D01*
X06428Y04914D01*
X06424D01*
X0642Y04918D01*
X06416Y04914D01*
X06412D01*
X06416Y0491D01*
X06412Y04906D01*
X06416D01*
X0642Y04902D01*
X0658Y04812D02*
X06584Y04816D01*
X06588D01*
X06584Y0482D01*
X06588Y04824D01*
X06584D01*
X0658Y04828D01*
X06576Y04824D01*
X06572D01*
X06576Y0482D01*
X06572Y04816D01*
X06576D01*
X0658Y04812D01*
Y04712D02*
X06584Y04716D01*
X06588D01*
X06584Y0472D01*
X06588Y04724D01*
X06584D01*
X0658Y04728D01*
X06576Y04724D01*
X06572D01*
X06576Y0472D01*
X06572Y04716D01*
X06576D01*
X0658Y04712D01*
Y04762D02*
X06584Y04766D01*
X06588D01*
X06584Y0477D01*
X06588Y04774D01*
X06584D01*
X0658Y04778D01*
X06576Y04774D01*
X06572D01*
X06576Y0477D01*
X06572Y04766D01*
X06576D01*
X0658Y04762D01*
Y04862D02*
X06584Y04866D01*
X06588D01*
X06584Y0487D01*
X06588Y04874D01*
X06584D01*
X0658Y04878D01*
X06576Y04874D01*
X06572D01*
X06576Y0487D01*
X06572Y04866D01*
X06576D01*
X0658Y04862D01*
X0654019Y0466119D02*
X0654419Y0466519D01*
X0654819D01*
X0654419Y0466919D01*
X0654819Y0467319D01*
X0654419D01*
X0654019Y0467719D01*
X0653619Y0467319D01*
X0653219D01*
X0653619Y0466919D01*
X0653219Y0466519D01*
X0653619D01*
X0654019Y0466119D01*
X0574118Y04901D02*
X0574518Y04905D01*
X0574918D01*
X0574518Y04909D01*
X0574918Y04913D01*
X0574518D01*
X0574118Y04917D01*
X0573718Y04913D01*
X0573318D01*
X0573718Y04909D01*
X0573318Y04905D01*
X0573718D01*
X0574118Y04901D01*
X06Y03242D02*
X06004Y03246D01*
X06008D01*
X06004Y0325D01*
X06008Y03254D01*
X06004D01*
X06Y03258D01*
X05996Y03254D01*
X05992D01*
X05996Y0325D01*
X05992Y03246D01*
X05996D01*
X06Y03242D01*
Y03142D02*
X06004Y03146D01*
X06008D01*
X06004Y0315D01*
X06008Y03154D01*
X06004D01*
X06Y03158D01*
X05996Y03154D01*
X05992D01*
X05996Y0315D01*
X05992Y03146D01*
X05996D01*
X06Y03142D01*
X0695Y03742D02*
X06954Y03746D01*
X06958D01*
X06954Y0375D01*
X06958Y03754D01*
X06954D01*
X0695Y03758D01*
X06946Y03754D01*
X06942D01*
X06946Y0375D01*
X06942Y03746D01*
X06946D01*
X0695Y03742D01*
Y03642D02*
X06954Y03646D01*
X06958D01*
X06954Y0365D01*
X06958Y03654D01*
X06954D01*
X0695Y03658D01*
X06946Y03654D01*
X06942D01*
X06946Y0365D01*
X06942Y03646D01*
X06946D01*
X0695Y03642D01*
Y03542D02*
X06954Y03546D01*
X06958D01*
X06954Y0355D01*
X06958Y03554D01*
X06954D01*
X0695Y03558D01*
X06946Y03554D01*
X06942D01*
X06946Y0355D01*
X06942Y03546D01*
X06946D01*
X0695Y03542D01*
Y03442D02*
X06954Y03446D01*
X06958D01*
X06954Y0345D01*
X06958Y03454D01*
X06954D01*
X0695Y03458D01*
X06946Y03454D01*
X06942D01*
X06946Y0345D01*
X06942Y03446D01*
X06946D01*
X0695Y03442D01*
X0525D02*
X05254Y03446D01*
X05258D01*
X05254Y0345D01*
X05258Y03454D01*
X05254D01*
X0525Y03458D01*
X05246Y03454D01*
X05242D01*
X05246Y0345D01*
X05242Y03446D01*
X05246D01*
X0525Y03442D01*
X0535D02*
X05354Y03446D01*
X05358D01*
X05354Y0345D01*
X05358Y03454D01*
X05354D01*
X0535Y03458D01*
X05346Y03454D01*
X05342D01*
X05346Y0345D01*
X05342Y03446D01*
X05346D01*
X0535Y03442D01*
X055Y03192D02*
X05504Y03196D01*
X05508D01*
X05504Y032D01*
X05508Y03204D01*
X05504D01*
X055Y03208D01*
X05496Y03204D01*
X05492D01*
X05496Y032D01*
X05492Y03196D01*
X05496D01*
X055Y03192D01*
Y03292D02*
X05504Y03296D01*
X05508D01*
X05504Y033D01*
X05508Y03304D01*
X05504D01*
X055Y03308D01*
X05496Y03304D01*
X05492D01*
X05496Y033D01*
X05492Y03296D01*
X05496D01*
X055Y03292D01*
Y03392D02*
X05504Y03396D01*
X05508D01*
X05504Y034D01*
X05508Y03404D01*
X05504D01*
X055Y03408D01*
X05496Y03404D01*
X05492D01*
X05496Y034D01*
X05492Y03396D01*
X05496D01*
X055Y03392D01*
X0545Y03442D02*
X05454Y03446D01*
X05458D01*
X05454Y0345D01*
X05458Y03454D01*
X05454D01*
X0545Y03458D01*
X05446Y03454D01*
X05442D01*
X05446Y0345D01*
X05442Y03446D01*
X05446D01*
X0545Y03442D01*
X0555D02*
X05554Y03446D01*
X05558D01*
X05554Y0345D01*
X05558Y03454D01*
X05554D01*
X0555Y03458D01*
X05546Y03454D01*
X05542D01*
X05546Y0345D01*
X05542Y03446D01*
X05546D01*
X0555Y03442D01*
Y03342D02*
X05554Y03346D01*
X05558D01*
X05554Y0335D01*
X05558Y03354D01*
X05554D01*
X0555Y03358D01*
X05546Y03354D01*
X05542D01*
X05546Y0335D01*
X05542Y03346D01*
X05546D01*
X0555Y03342D01*
X0545Y03142D02*
X05454Y03146D01*
X05458D01*
X05454Y0315D01*
X05458Y03154D01*
X05454D01*
X0545Y03158D01*
X05446Y03154D01*
X05442D01*
X05446Y0315D01*
X05442Y03146D01*
X05446D01*
X0545Y03142D01*
X0555Y03242D02*
X05554Y03246D01*
X05558D01*
X05554Y0325D01*
X05558Y03254D01*
X05554D01*
X0555Y03258D01*
X05546Y03254D01*
X05542D01*
X05546Y0325D01*
X05542Y03246D01*
X05546D01*
X0555Y03242D01*
Y03142D02*
X05554Y03146D01*
X05558D01*
X05554Y0315D01*
X05558Y03154D01*
X05554D01*
X0555Y03158D01*
X05546Y03154D01*
X05542D01*
X05546Y0315D01*
X05542Y03146D01*
X05546D01*
X0555Y03142D01*
X05543Y03748D02*
X05547Y03756D01*
X05543Y03764D01*
X05551Y0376D01*
X05559Y03764D01*
X05555Y03756D01*
X05559Y03748D01*
X05551Y03752D01*
X05543Y03748D01*
X06362Y04375D02*
X06366Y04383D01*
X06362Y04391D01*
X0637Y04387D01*
X06378Y04391D01*
X06374Y04383D01*
X06378Y04375D01*
X0637Y04379D01*
X06362Y04375D01*
X06358Y04278D02*
X06362Y04286D01*
X06358Y04294D01*
X06366Y0429D01*
X06374Y04294D01*
X0637Y04286D01*
X06374Y04278D01*
X06366Y04282D01*
X06358Y04278D01*
X06198Y04503D02*
X06202Y04511D01*
X06198Y04519D01*
X06206Y04515D01*
X06214Y04519D01*
X0621Y04511D01*
X06214Y04503D01*
X06206Y04507D01*
X06198Y04503D01*
X06609Y04179D02*
X06613Y04187D01*
X06609Y04195D01*
X06617Y04191D01*
X06625Y04195D01*
X06621Y04187D01*
X06625Y04179D01*
X06617Y04183D01*
X06609Y04179D01*
X0658125Y04467D02*
X0658525Y04475D01*
X0658125Y04483D01*
X0658925Y04479D01*
X0659725Y04483D01*
X0659325Y04475D01*
X0659725Y04467D01*
X0658925Y04471D01*
X0658125Y04467D01*
X0655Y04242D02*
X06554Y04246D01*
X06558D01*
X06554Y0425D01*
X06558Y04254D01*
X06554D01*
X0655Y04258D01*
X06546Y04254D01*
X06542D01*
X06546Y0425D01*
X06542Y04246D01*
X06546D01*
X0655Y04242D01*
Y04292D02*
X06554Y04296D01*
X06558D01*
X06554Y043D01*
X06558Y04304D01*
X06554D01*
X0655Y04308D01*
X06546Y04304D01*
X06542D01*
X06546Y043D01*
X06542Y04296D01*
X06546D01*
X0655Y04292D01*
X05783Y04556D02*
X05787Y04564D01*
X05783Y04572D01*
X05791Y04568D01*
X05799Y04572D01*
X05795Y04564D01*
X05799Y04556D01*
X05791Y0456D01*
X05783Y04556D01*
X057Y04789D02*
X05704Y04793D01*
X05708D01*
X05704Y04797D01*
X05708Y04801D01*
X05704D01*
X057Y04805D01*
X05696Y04801D01*
X05692D01*
X05696Y04797D01*
X05692Y04793D01*
X05696D01*
X057Y04789D01*
X0628Y04795D02*
X06284Y04799D01*
X06288D01*
X06284Y04803D01*
X06288Y04807D01*
X06284D01*
X0628Y04811D01*
X06276Y04807D01*
X06272D01*
X06276Y04803D01*
X06272Y04799D01*
X06276D01*
X0628Y04795D01*
X0575Y04792D02*
X05754Y04796D01*
X05758D01*
X05754Y048D01*
X05758Y04804D01*
X05754D01*
X0575Y04808D01*
X05746Y04804D01*
X05742D01*
X05746Y048D01*
X05742Y04796D01*
X05746D01*
X0575Y04792D01*
X057Y04742D02*
X05704Y04746D01*
X05708D01*
X05704Y0475D01*
X05708Y04754D01*
X05704D01*
X057Y04758D01*
X05696Y04754D01*
X05692D01*
X05696Y0475D01*
X05692Y04746D01*
X05696D01*
X057Y04742D01*
X0575D02*
X05754Y04746D01*
X05758D01*
X05754Y0475D01*
X05758Y04754D01*
X05754D01*
X0575Y04758D01*
X05746Y04754D01*
X05742D01*
X05746Y0475D01*
X05742Y04746D01*
X05746D01*
X0575Y04742D01*
X058D02*
X05804Y04746D01*
X05808D01*
X05804Y0475D01*
X05808Y04754D01*
X05804D01*
X058Y04758D01*
X05796Y04754D01*
X05792D01*
X05796Y0475D01*
X05792Y04746D01*
X05796D01*
X058Y04742D01*
X0585D02*
X05854Y04746D01*
X05858D01*
X05854Y0475D01*
X05858Y04754D01*
X05854D01*
X0585Y04758D01*
X05846Y04754D01*
X05842D01*
X05846Y0475D01*
X05842Y04746D01*
X05846D01*
X0585Y04742D01*
X059D02*
X05904Y04746D01*
X05908D01*
X05904Y0475D01*
X05908Y04754D01*
X05904D01*
X059Y04758D01*
X05896Y04754D01*
X05892D01*
X05896Y0475D01*
X05892Y04746D01*
X05896D01*
X059Y04742D01*
X0645D02*
X06454Y04746D01*
X06458D01*
X06454Y0475D01*
X06458Y04754D01*
X06454D01*
X0645Y04758D01*
X06446Y04754D01*
X06442D01*
X06446Y0475D01*
X06442Y04746D01*
X06446D01*
X0645Y04742D01*
Y04792D02*
X06454Y04796D01*
X06458D01*
X06454Y048D01*
X06458Y04804D01*
X06454D01*
X0645Y04808D01*
X06446Y04804D01*
X06442D01*
X06446Y048D01*
X06442Y04796D01*
X06446D01*
X0645Y04792D01*
X063Y04742D02*
X06304Y04746D01*
X06308D01*
X06304Y0475D01*
X06308Y04754D01*
X06304D01*
X063Y04758D01*
X06296Y04754D01*
X06292D01*
X06296Y0475D01*
X06292Y04746D01*
X06296D01*
X063Y04742D01*
X0635D02*
X06354Y04746D01*
X06358D01*
X06354Y0475D01*
X06358Y04754D01*
X06354D01*
X0635Y04758D01*
X06346Y04754D01*
X06342D01*
X06346Y0475D01*
X06342Y04746D01*
X06346D01*
X0635Y04742D01*
X064D02*
X06404Y04746D01*
X06408D01*
X06404Y0475D01*
X06408Y04754D01*
X06404D01*
X064Y04758D01*
X06396Y04754D01*
X06392D01*
X06396Y0475D01*
X06392Y04746D01*
X06396D01*
X064Y04742D01*
Y04792D02*
X06404Y04796D01*
X06408D01*
X06404Y048D01*
X06408Y04804D01*
X06404D01*
X064Y04808D01*
X06396Y04804D01*
X06392D01*
X06396Y048D01*
X06392Y04796D01*
X06396D01*
X064Y04792D01*
X0613Y04942D02*
X06134Y04946D01*
X06138D01*
X06134Y0495D01*
X06138Y04954D01*
X06134D01*
X0613Y04958D01*
X06126Y04954D01*
X06122D01*
X06126Y0495D01*
X06122Y04946D01*
X06126D01*
X0613Y04942D01*
X0618D02*
X06184Y04946D01*
X06188D01*
X06184Y0495D01*
X06188Y04954D01*
X06184D01*
X0618Y04958D01*
X06176Y04954D01*
X06172D01*
X06176Y0495D01*
X06172Y04946D01*
X06176D01*
X0618Y04942D01*
X0623D02*
X06234Y04946D01*
X06238D01*
X06234Y0495D01*
X06238Y04954D01*
X06234D01*
X0623Y04958D01*
X06226Y04954D01*
X06222D01*
X06226Y0495D01*
X06222Y04946D01*
X06226D01*
X0623Y04942D01*
Y04892D02*
X06234Y04896D01*
X06238D01*
X06234Y049D01*
X06238Y04904D01*
X06234D01*
X0623Y04908D01*
X06226Y04904D01*
X06222D01*
X06226Y049D01*
X06222Y04896D01*
X06226D01*
X0623Y04892D01*
X0618D02*
X06184Y04896D01*
X06188D01*
X06184Y049D01*
X06188Y04904D01*
X06184D01*
X0618Y04908D01*
X06176Y04904D01*
X06172D01*
X06176Y049D01*
X06172Y04896D01*
X06176D01*
X0618Y04892D01*
X0613D02*
X06134Y04896D01*
X06138D01*
X06134Y049D01*
X06138Y04904D01*
X06134D01*
X0613Y04908D01*
X06126Y04904D01*
X06122D01*
X06126Y049D01*
X06122Y04896D01*
X06126D01*
X0613Y04892D01*
X059Y04792D02*
X05904Y04796D01*
X05908D01*
X05904Y048D01*
X05908Y04804D01*
X05904D01*
X059Y04808D01*
X05896Y04804D01*
X05892D01*
X05896Y048D01*
X05892Y04796D01*
X05896D01*
X059Y04792D01*
X0595Y04942D02*
X05954Y04946D01*
X05958D01*
X05954Y0495D01*
X05958Y04954D01*
X05954D01*
X0595Y04958D01*
X05946Y04954D01*
X05942D01*
X05946Y0495D01*
X05942Y04946D01*
X05946D01*
X0595Y04942D01*
Y04892D02*
X05954Y04896D01*
X05958D01*
X05954Y049D01*
X05958Y04904D01*
X05954D01*
X0595Y04908D01*
X05946Y04904D01*
X05942D01*
X05946Y049D01*
X05942Y04896D01*
X05946D01*
X0595Y04892D01*
X06D02*
X06004Y04896D01*
X06008D01*
X06004Y049D01*
X06008Y04904D01*
X06004D01*
X06Y04908D01*
X05996Y04904D01*
X05992D01*
X05996Y049D01*
X05992Y04896D01*
X05996D01*
X06Y04892D01*
Y04942D02*
X06004Y04946D01*
X06008D01*
X06004Y0495D01*
X06008Y04954D01*
X06004D01*
X06Y04958D01*
X05996Y04954D01*
X05992D01*
X05996Y0495D01*
X05992Y04946D01*
X05996D01*
X06Y04942D01*
X0605D02*
X06054Y04946D01*
X06058D01*
X06054Y0495D01*
X06058Y04954D01*
X06054D01*
X0605Y04958D01*
X06046Y04954D01*
X06042D01*
X06046Y0495D01*
X06042Y04946D01*
X06046D01*
X0605Y04942D01*
Y04892D02*
X06054Y04896D01*
X06058D01*
X06054Y049D01*
X06058Y04904D01*
X06054D01*
X0605Y04908D01*
X06046Y04904D01*
X06042D01*
X06046Y049D01*
X06042Y04896D01*
X06046D01*
X0605Y04892D01*
X06354Y04514D02*
X06358Y04522D01*
X06354Y0453D01*
X06362Y04526D01*
X0637Y0453D01*
X06366Y04522D01*
X0637Y04514D01*
X06362Y04518D01*
X06354Y04514D01*
X05541Y03864D02*
X05545Y03872D01*
X05541Y0388D01*
X05549Y03876D01*
X05557Y0388D01*
X05553Y03872D01*
X05557Y03864D01*
X05549Y03868D01*
X05541Y03864D01*
X0579Y0388D02*
X05794Y03888D01*
X0579Y03896D01*
X05798Y03892D01*
X05806Y03896D01*
X05802Y03888D01*
X05806Y0388D01*
X05798Y03884D01*
X0579Y0388D01*
X05544Y04364D02*
X05548Y04372D01*
X05544Y0438D01*
X05552Y04376D01*
X0556Y0438D01*
X05556Y04372D01*
X0556Y04364D01*
X05552Y04368D01*
X05544Y04364D01*
X05523Y03672D02*
X05527Y0368D01*
X05523Y03688D01*
X05531Y03684D01*
X05539Y03688D01*
X05535Y0368D01*
X05539Y03672D01*
X05531Y03676D01*
X05523Y03672D01*
X053Y04458D02*
X05304Y04466D01*
X053Y04474D01*
X05308Y0447D01*
X05316Y04474D01*
X05312Y04466D01*
X05316Y04458D01*
X05308Y04462D01*
X053Y04458D01*
X0544Y03747D02*
X05444Y03755D01*
X0544Y03763D01*
X05448Y03759D01*
X05456Y03763D01*
X05452Y03755D01*
X05456Y03747D01*
X05448Y03751D01*
X0544Y03747D01*
X05797Y0363D02*
X05801Y03638D01*
X05797Y03646D01*
X05805Y03642D01*
X05813Y03646D01*
X05809Y03638D01*
X05813Y0363D01*
X05805Y03634D01*
X05797Y0363D01*
X06832Y03511D02*
X06836Y03519D01*
X06832Y03527D01*
X0684Y03523D01*
X06848Y03527D01*
X06844Y03519D01*
X06848Y03511D01*
X0684Y03515D01*
X06832Y03511D01*
X05223Y03857D02*
X05227Y03865D01*
X05223Y03873D01*
X05231Y03869D01*
X05239Y03873D01*
X05235Y03865D01*
X05239Y03857D01*
X05231Y03861D01*
X05223Y03857D01*
X06857Y04283D02*
X06861Y04291D01*
X06857Y04299D01*
X06865Y04295D01*
X06873Y04299D01*
X06869Y04291D01*
X06873Y04283D01*
X06865Y04287D01*
X06857Y04283D01*
X05489Y04091D02*
X05493Y04099D01*
X05489Y04107D01*
X05497Y04103D01*
X05505Y04107D01*
X05501Y04099D01*
X05505Y04091D01*
X05497Y04095D01*
X05489Y04091D01*
X06654Y04628D02*
X06658Y04636D01*
X06654Y04644D01*
X06662Y0464D01*
X0667Y04644D01*
X06666Y04636D01*
X0667Y04628D01*
X06662Y04632D01*
X06654Y04628D01*
X064Y03642D02*
X06404Y03646D01*
X06408D01*
X06404Y0365D01*
X06408Y03654D01*
X06404D01*
X064Y03658D01*
X06396Y03654D01*
X06392D01*
X06396Y0365D01*
X06392Y03646D01*
X06396D01*
X064Y03642D01*
X0645Y03692D02*
X06454Y03696D01*
X06458D01*
X06454Y037D01*
X06458Y03704D01*
X06454D01*
X0645Y03708D01*
X06446Y03704D01*
X06442D01*
X06446Y037D01*
X06442Y03696D01*
X06446D01*
X0645Y03692D01*
X06662Y04524D02*
X06666Y04532D01*
X06662Y0454D01*
X0667Y04536D01*
X06678Y0454D01*
X06674Y04532D01*
X06678Y04524D01*
X0667Y04528D01*
X06662Y04524D01*
X05782Y04461D02*
X05786Y04469D01*
X05782Y04477D01*
X0579Y04473D01*
X05798Y04477D01*
X05794Y04469D01*
X05798Y04461D01*
X0579Y04465D01*
X05782Y04461D01*
X0645Y04242D02*
X06454Y04246D01*
X06458D01*
X06454Y0425D01*
X06458Y04254D01*
X06454D01*
X0645Y04258D01*
X06446Y04254D01*
X06442D01*
X06446Y0425D01*
X06442Y04246D01*
X06446D01*
X0645Y04242D01*
X065Y04292D02*
X06504Y04296D01*
X06508D01*
X06504Y043D01*
X06508Y04304D01*
X06504D01*
X065Y04308D01*
X06496Y04304D01*
X06492D01*
X06496Y043D01*
X06492Y04296D01*
X06496D01*
X065Y04292D01*
X06638Y04066D02*
X06642Y04074D01*
X06638Y04082D01*
X06646Y04078D01*
X06654Y04082D01*
X0665Y04074D01*
X06654Y04066D01*
X06646Y0407D01*
X06638Y04066D01*
X057Y04248D02*
X05704Y04252D01*
X05708D01*
X05704Y04256D01*
X05708Y0426D01*
X05704D01*
X057Y04264D01*
X05696Y0426D01*
X05692D01*
X05696Y04256D01*
X05692Y04252D01*
X05696D01*
X057Y04248D01*
Y04198D02*
X05704Y04202D01*
X05708D01*
X05704Y04206D01*
X05708Y0421D01*
X05704D01*
X057Y04214D01*
X05696Y0421D01*
X05692D01*
X05696Y04206D01*
X05692Y04202D01*
X05696D01*
X057Y04198D01*
X0565D02*
X05654Y04202D01*
X05658D01*
X05654Y04206D01*
X05658Y0421D01*
X05654D01*
X0565Y04214D01*
X05646Y0421D01*
X05642D01*
X05646Y04206D01*
X05642Y04202D01*
X05646D01*
X0565Y04198D01*
Y04248D02*
X05654Y04252D01*
X05658D01*
X05654Y04256D01*
X05658Y0426D01*
X05654D01*
X0565Y04264D01*
X05646Y0426D01*
X05642D01*
X05646Y04256D01*
X05642Y04252D01*
X05646D01*
X0565Y04248D01*
X065Y04242D02*
X06504Y04246D01*
X06508D01*
X06504Y0425D01*
X06508Y04254D01*
X06504D01*
X065Y04258D01*
X06496Y04254D01*
X06492D01*
X06496Y0425D01*
X06492Y04246D01*
X06496D01*
X065Y04242D01*
X062Y03742D02*
X06204Y03746D01*
X06208D01*
X06204Y0375D01*
X06208Y03754D01*
X06204D01*
X062Y03758D01*
X06196Y03754D01*
X06192D01*
X06196Y0375D01*
X06192Y03746D01*
X06196D01*
X062Y03742D01*
Y03792D02*
X06204Y03796D01*
X06208D01*
X06204Y038D01*
X06208Y03804D01*
X06204D01*
X062Y03808D01*
X06196Y03804D01*
X06192D01*
X06196Y038D01*
X06192Y03796D01*
X06196D01*
X062Y03792D01*
X0645Y03742D02*
X06454Y03746D01*
X06458D01*
X06454Y0375D01*
X06458Y03754D01*
X06454D01*
X0645Y03758D01*
X06446Y03754D01*
X06442D01*
X06446Y0375D01*
X06442Y03746D01*
X06446D01*
X0645Y03742D01*
X065Y03792D02*
X06504Y03796D01*
X06508D01*
X06504Y038D01*
X06508Y03804D01*
X06504D01*
X065Y03808D01*
X06496Y03804D01*
X06492D01*
X06496Y038D01*
X06492Y03796D01*
X06496D01*
X065Y03792D01*
X0645D02*
X06454Y03796D01*
X06458D01*
X06454Y038D01*
X06458Y03804D01*
X06454D01*
X0645Y03808D01*
X06446Y03804D01*
X06442D01*
X06446Y038D01*
X06442Y03796D01*
X06446D01*
X0645Y03792D01*
X064D02*
X06404Y03796D01*
X06408D01*
X06404Y038D01*
X06408Y03804D01*
X06404D01*
X064Y03808D01*
X06396Y03804D01*
X06392D01*
X06396Y038D01*
X06392Y03796D01*
X06396D01*
X064Y03792D01*
Y03742D02*
X06404Y03746D01*
X06408D01*
X06404Y0375D01*
X06408Y03754D01*
X06404D01*
X064Y03758D01*
X06396Y03754D01*
X06392D01*
X06396Y0375D01*
X06392Y03746D01*
X06396D01*
X064Y03742D01*
Y03692D02*
X06404Y03696D01*
X06408D01*
X06404Y037D01*
X06408Y03704D01*
X06404D01*
X064Y03708D01*
X06396Y03704D01*
X06392D01*
X06396Y037D01*
X06392Y03696D01*
X06396D01*
X064Y03692D01*
X0615D02*
X06154Y03696D01*
X06158D01*
X06154Y037D01*
X06158Y03704D01*
X06154D01*
X0615Y03708D01*
X06146Y03704D01*
X06142D01*
X06146Y037D01*
X06142Y03696D01*
X06146D01*
X0615Y03692D01*
Y03742D02*
X06154Y03746D01*
X06158D01*
X06154Y0375D01*
X06158Y03754D01*
X06154D01*
X0615Y03758D01*
X06146Y03754D01*
X06142D01*
X06146Y0375D01*
X06142Y03746D01*
X06146D01*
X0615Y03742D01*
Y03792D02*
X06154Y03796D01*
X06158D01*
X06154Y038D01*
X06158Y03804D01*
X06154D01*
X0615Y03808D01*
X06146Y03804D01*
X06142D01*
X06146Y038D01*
X06142Y03796D01*
X06146D01*
X0615Y03792D01*
X061D02*
X06104Y03796D01*
X06108D01*
X06104Y038D01*
X06108Y03804D01*
X06104D01*
X061Y03808D01*
X06096Y03804D01*
X06092D01*
X06096Y038D01*
X06092Y03796D01*
X06096D01*
X061Y03792D01*
X0595Y03742D02*
X05954Y03746D01*
X05958D01*
X05954Y0375D01*
X05958Y03754D01*
X05954D01*
X0595Y03758D01*
X05946Y03754D01*
X05942D01*
X05946Y0375D01*
X05942Y03746D01*
X05946D01*
X0595Y03742D01*
X059D02*
X05904Y03746D01*
X05908D01*
X05904Y0375D01*
X05908Y03754D01*
X05904D01*
X059Y03758D01*
X05896Y03754D01*
X05892D01*
X05896Y0375D01*
X05892Y03746D01*
X05896D01*
X059Y03742D01*
X0595Y03792D02*
X05954Y03796D01*
X05958D01*
X05954Y038D01*
X05958Y03804D01*
X05954D01*
X0595Y03808D01*
X05946Y03804D01*
X05942D01*
X05946Y038D01*
X05942Y03796D01*
X05946D01*
X0595Y03792D01*
X059D02*
X05904Y03796D01*
X05908D01*
X05904Y038D01*
X05908Y03804D01*
X05904D01*
X059Y03808D01*
X05896Y03804D01*
X05892D01*
X05896Y038D01*
X05892Y03796D01*
X05896D01*
X059Y03792D01*
X06D02*
X06004Y03796D01*
X06008D01*
X06004Y038D01*
X06008Y03804D01*
X06004D01*
X06Y03808D01*
X05996Y03804D01*
X05992D01*
X05996Y038D01*
X05992Y03796D01*
X05996D01*
X06Y03792D01*
X0534998Y0470428D02*
Y0470028D01*
X0535798D01*
Y0470428D01*
X0536198D01*
Y0471228D01*
X0535798D01*
Y0471628D01*
X0534998D01*
Y0471228D01*
X0534598D01*
Y0470428D01*
X0534998D01*
X0520234Y047653D02*
Y047613D01*
X0521034D01*
Y047653D01*
X0521434D01*
Y047733D01*
X0521034D01*
Y047773D01*
X0520234D01*
Y047733D01*
X0519834D01*
Y047653D01*
X0520234D01*
X0526336Y0491294D02*
Y0490894D01*
X0527136D01*
Y0491294D01*
X0527536D01*
Y0492094D01*
X0527136D01*
Y0492494D01*
X0526336D01*
Y0492094D01*
X0525936D01*
Y0491294D01*
X0526336D01*
X05411Y0485191D02*
Y0484791D01*
X05419D01*
Y0485191D01*
X05423D01*
Y0485991D01*
X05419D01*
Y0486391D01*
X05411D01*
Y0485991D01*
X05407D01*
Y0485191D01*
X05411D01*
X0520234D02*
Y0484791D01*
X0521034D01*
Y0485191D01*
X0521434D01*
Y0485991D01*
X0521034D01*
Y0486391D01*
X0520234D01*
Y0485991D01*
X0519834D01*
Y0485191D01*
X0520234D01*
X0534998Y0491294D02*
Y0490894D01*
X0535798D01*
Y0491294D01*
X0536198D01*
Y0492094D01*
X0535798D01*
Y0492494D01*
X0534998D01*
Y0492094D01*
X0534598D01*
Y0491294D01*
X0534998D01*
X05411Y047653D02*
Y047613D01*
X05419D01*
Y047653D01*
X05423D01*
Y047733D01*
X05419D01*
Y047773D01*
X05411D01*
Y047733D01*
X05407D01*
Y047653D01*
X05411D01*
X0526336Y0470428D02*
Y0470028D01*
X0527136D01*
Y0470428D01*
X0527536D01*
Y0471228D01*
X0527136D01*
Y0471628D01*
X0526336D01*
Y0471228D01*
X0525936D01*
Y0470428D01*
X0526336D01*
Y031105D02*
Y031065D01*
X0527136D01*
Y031105D01*
X0527536D01*
Y031185D01*
X0527136D01*
Y031225D01*
X0526336D01*
Y031185D01*
X0525936D01*
Y031105D01*
X0526336D01*
X05411Y0317152D02*
Y0316752D01*
X05419D01*
Y0317152D01*
X05423D01*
Y0317952D01*
X05419D01*
Y0318352D01*
X05411D01*
Y0317952D01*
X05407D01*
Y0317152D01*
X05411D01*
X0534998Y0331916D02*
Y0331516D01*
X0535798D01*
Y0331916D01*
X0536198D01*
Y0332716D01*
X0535798D01*
Y0333116D01*
X0534998D01*
Y0332716D01*
X0534598D01*
Y0331916D01*
X0534998D01*
X0520234Y0325813D02*
Y0325413D01*
X0521034D01*
Y0325813D01*
X0521434D01*
Y0326613D01*
X0521034D01*
Y0327013D01*
X0520234D01*
Y0326613D01*
X0519834D01*
Y0325813D01*
X0520234D01*
X05411D02*
Y0325413D01*
X05419D01*
Y0325813D01*
X05423D01*
Y0326613D01*
X05419D01*
Y0327013D01*
X05411D01*
Y0326613D01*
X05407D01*
Y0325813D01*
X05411D01*
X0526336Y0331916D02*
Y0331516D01*
X0527136D01*
Y0331916D01*
X0527536D01*
Y0332716D01*
X0527136D01*
Y0333116D01*
X0526336D01*
Y0332716D01*
X0525936D01*
Y0331916D01*
X0526336D01*
X0520234Y0317152D02*
Y0316752D01*
X0521034D01*
Y0317152D01*
X0521434D01*
Y0317952D01*
X0521034D01*
Y0318352D01*
X0520234D01*
Y0317952D01*
X0519834D01*
Y0317152D01*
X0520234D01*
X0534998Y031105D02*
Y031065D01*
X0535798D01*
Y031105D01*
X0536198D01*
Y031185D01*
X0535798D01*
Y031225D01*
X0534998D01*
Y031185D01*
X0534598D01*
Y031105D01*
X0534998D01*
D82*
X0685745Y0481261D02*
G03*
X0685745Y0481261I-00008J0D01*
G01*
Y0321883D02*
G03*
X0685745Y0321883I-00008J0D01*
G01*
X0531867Y0481261D02*
G03*
X0531867Y0481261I-00008J0D01*
G01*
Y0321883D02*
G03*
X0531867Y0321883I-00008J0D01*
G01*
M02*
