G04*
G04 #@! TF.GenerationSoftware,Altium Limited,Altium Designer,21.3.2 (30)*
G04*
G04 Layer_Color=255*
%FSTAX25Y25*%
%MOIN*%
G70*
G04*
G04 #@! TF.SameCoordinates,B4C271EC-4B27-40F8-A0F4-B21306F732D5*
G04*
G04*
G04 #@! TF.FilePolarity,Positive*
G04*
G01*
G75*
%ADD20C,0.05906*%
%ADD21R,0.03543X0.02165*%
%ADD64R,0.11000X0.12000*%
%ADD65O,0.11000X0.12000*%
%ADD70R,0.02165X0.03543*%
%ADD71R,0.09843X0.09843*%
%ADD72R,0.02362X0.03937*%
%ADD74C,0.27559*%
D20*
X0605Y0364D02*
D03*
Y0374D02*
D03*
X05827Y0480737D02*
D03*
Y0490737D02*
D03*
X06345Y0480737D02*
D03*
Y0490737D02*
D03*
D21*
X0678Y0382054D02*
D03*
Y0376346D02*
D03*
X05454Y0415472D02*
D03*
Y0421181D02*
D03*
X067807Y0416791D02*
D03*
Y04225D02*
D03*
D64*
X0615Y03278D02*
D03*
X06192Y04813D02*
D03*
D65*
X0635Y03278D02*
D03*
X05992Y04813D02*
D03*
D70*
X0680954Y0406D02*
D03*
X0675246D02*
D03*
X0542535Y0443281D02*
D03*
X0548243D02*
D03*
X0675177Y04448D02*
D03*
X0680885D02*
D03*
D71*
X0580689Y04182D02*
D03*
X0596437D02*
D03*
D72*
X0678058Y0389381D02*
D03*
X0681798Y0397255D02*
D03*
X0674318D02*
D03*
X05454Y042802D02*
D03*
X054914Y0435894D02*
D03*
X0541659D02*
D03*
X0678042Y0429445D02*
D03*
X0681782Y0437319D02*
D03*
X0674302D02*
D03*
D74*
X0684945Y0481261D02*
D03*
Y0321883D02*
D03*
X0531067Y0481261D02*
D03*
Y0321883D02*
D03*
M02*
