G04*
G04 #@! TF.GenerationSoftware,Altium Limited,Altium Designer,21.3.2 (30)*
G04*
G04 Layer_Physical_Order=2*
G04 Layer_Color=16711680*
%FSTAX25Y25*%
%MOIN*%
G70*
G04*
G04 #@! TF.SameCoordinates,B4C271EC-4B27-40F8-A0F4-B21306F732D5*
G04*
G04*
G04 #@! TF.FilePolarity,Positive*
G04*
G01*
G75*
%ADD20C,0.05906*%
%ADD21R,0.03543X0.02165*%
%ADD57C,0.13000*%
%ADD58C,0.06000*%
%ADD59C,0.01500*%
%ADD60C,0.04000*%
%ADD61C,0.02500*%
%ADD63C,0.07874*%
%ADD64R,0.11000X0.12000*%
%ADD65O,0.11000X0.12000*%
%ADD67C,0.03150*%
%ADD68C,0.02598*%
%ADD69C,0.01968*%
%ADD70R,0.02165X0.03543*%
%ADD71R,0.09843X0.09843*%
%ADD72R,0.02362X0.03937*%
%ADD73C,0.03000*%
%ADD74C,0.27559*%
G36*
X0605304Y0498481D02*
X0605868Y0498247D01*
X0606376Y0497908D01*
X0606808Y0497476D01*
X0607147Y0496968D01*
X0607381Y0496404D01*
X06075Y0495805D01*
Y04955D01*
X06075Y04751D01*
X06075Y04751D01*
X06075Y047476D01*
X0607367Y0474094D01*
X0607107Y0473466D01*
X060673Y0472901D01*
X0606249Y047242D01*
X0605684Y0472043D01*
X0605056Y0471783D01*
X060439Y047165D01*
X060405Y047165D01*
X0571554D01*
X0570385Y0471882D01*
X0569284Y0472339D01*
X0568293Y0473001D01*
X0567451Y0473843D01*
X0566789Y0474834D01*
X0566332Y0475935D01*
X05661Y0477104D01*
Y04777D01*
Y04791D01*
Y047977D01*
X0566361Y0481083D01*
X0566874Y0482321D01*
X0567618Y0483435D01*
X0568565Y0484382D01*
X0569679Y0485126D01*
X0570917Y0485639D01*
X057223Y04859D01*
X05872D01*
X0587523Y0485916D01*
X0588158Y0486042D01*
X0588756Y048629D01*
X0589293Y0486649D01*
X0589751Y0487107D01*
X059011Y0487644D01*
X0590358Y0488242D01*
X0590484Y0488876D01*
X05905Y04892D01*
Y04958D01*
X05905Y0496076D01*
X0590608Y0496617D01*
X0590819Y0497126D01*
X0591125Y0497585D01*
X0591515Y0497975D01*
X0591974Y0498281D01*
X0592483Y0498492D01*
X0593024Y04986D01*
X05933Y04986D01*
X06044Y04986D01*
X0604705D01*
X0605304Y0498481D01*
D02*
G37*
G36*
X0686564Y0498799D02*
X0688834Y0498348D01*
X0691026Y0497603D01*
X0693102Y049658D01*
X0695027Y0495294D01*
X0696767Y0493767D01*
X0698294Y0492027D01*
X069958Y0490102D01*
X0700603Y0488026D01*
X0701347Y0485834D01*
X0701799Y0483564D01*
X0701948Y0481285D01*
X0701942Y0481254D01*
Y0480042D01*
Y0321349D01*
X0701947Y0321325D01*
X0701805Y0319169D01*
X0701379Y0317027D01*
X0700677Y0314959D01*
X0699711Y0313D01*
X0698498Y0311184D01*
X0697058Y0309542D01*
X0695416Y0308102D01*
X06936Y0306889D01*
X0691641Y0305923D01*
X0689573Y0305221D01*
X0687431Y0304795D01*
X0685275Y0304653D01*
X0685252Y0304658D01*
X0530495D01*
X0530424Y0304644D01*
X0527983Y0304836D01*
X0525533Y0305424D01*
X0523205Y0306388D01*
X0521057Y0307705D01*
X0519141Y0309341D01*
X0517505Y0311257D01*
X0516188Y0313405D01*
X0515224Y0315733D01*
X0514636Y0318183D01*
X0514443Y0320624D01*
X0514458Y0320695D01*
Y0326695D01*
Y0482258D01*
X0514453Y0482281D01*
X0514595Y0484437D01*
X051502Y0486578D01*
X0515722Y0488645D01*
X0516688Y0490603D01*
X0517901Y0492419D01*
X051934Y049406D01*
X0520981Y0495499D01*
X0522797Y0496712D01*
X0524755Y0497678D01*
X0526822Y049838D01*
X0528963Y0498806D01*
X0531119Y0498947D01*
X0531142Y0498942D01*
X0590659D01*
X0590735Y0498837D01*
X0590847Y0498442D01*
X0590557Y0498153D01*
X0590513Y0498087D01*
X0590457Y0498031D01*
X0590151Y0497572D01*
X0590121Y0497499D01*
X0590077Y0497434D01*
X0589866Y0496924D01*
X058985Y0496846D01*
X058982Y0496773D01*
X0589713Y0496232D01*
Y0496153D01*
X0589697Y0496076D01*
X0589697Y04958D01*
Y048922D01*
X0589685Y0488975D01*
X0589586Y0488476D01*
X0589399Y0488025D01*
X0589127Y0487618D01*
X0588782Y0487273D01*
X0588375Y0487001D01*
X0587924Y0486814D01*
X0587425Y0486715D01*
X058718Y0486703D01*
X0584165D01*
X0584066Y0487203D01*
X058461Y0487428D01*
X0585401Y0488035D01*
X0586008Y0488827D01*
X058639Y0489748D01*
X058652Y0490737D01*
X058639Y0491725D01*
X0586008Y0492647D01*
X0585401Y0493438D01*
X0585238Y0493601D01*
X0584447Y0494208D01*
X0583525Y049459D01*
X0583031Y0494655D01*
X0582537Y049472D01*
X05679D01*
X0566911Y049459D01*
X0566743Y049452D01*
X05667D01*
X0566206Y0494455D01*
X0565711Y049439D01*
X056479Y0494008D01*
X0563999Y0493401D01*
X0560299Y0489701D01*
X0557399Y0486801D01*
X0556792Y048601D01*
X055641Y0485089D01*
X0556345Y0484594D01*
X055628Y04841D01*
Y0473D01*
X0556345Y0472506D01*
X055641Y0472011D01*
X0556792Y047109D01*
X0557399Y0470299D01*
X056348Y0464218D01*
X0564271Y0463611D01*
X0565192Y0463229D01*
X0566181Y0463099D01*
X0654019D01*
X0654514Y0463164D01*
X0655008Y0463229D01*
X0655929Y0463611D01*
X065672Y0464218D01*
X0660701Y0468199D01*
X0661308Y046899D01*
X066169Y0469911D01*
X066182Y04709D01*
Y0477D01*
Y0482D01*
Y0487D01*
X066169Y0487989D01*
X0661308Y048891D01*
X0660701Y0489701D01*
X0656701Y0493701D01*
X065591Y0494308D01*
X0654989Y049469D01*
X0654494Y0494755D01*
X0654Y049482D01*
X0634763D01*
X0634269Y0494755D01*
X0633775Y049469D01*
X0632853Y0494308D01*
X0632062Y0493701D01*
X0631799Y0493438D01*
X0631192Y0492647D01*
X063081Y0491725D01*
X063068Y0490737D01*
X063081Y0489748D01*
X0631192Y0488827D01*
X0631799Y0488035D01*
X063259Y0487428D01*
X0633511Y0487047D01*
X06345Y0486916D01*
X0635489Y0487047D01*
X0635811Y048718D01*
X0652418D01*
X065418Y0485418D01*
Y0482D01*
Y0477D01*
Y0472482D01*
X0652437Y0470739D01*
X064792D01*
X064779Y0471239D01*
X0648529Y0471651D01*
X0648589Y0471702D01*
X0648658Y047174D01*
X0649494Y0472451D01*
X0649543Y0472513D01*
X0649603Y0472564D01*
X0650284Y0473424D01*
X065032Y0473494D01*
X065037Y0473556D01*
X065087Y0474532D01*
X0650892Y0474608D01*
X0650928Y0474679D01*
X0651228Y0475734D01*
X0651234Y0475812D01*
X0651256Y0475888D01*
X06513Y0476435D01*
X0651296Y0476468D01*
X0651303Y04765D01*
X0651303Y048D01*
X0651301Y0480011D01*
X0651302Y0480021D01*
X0651288Y0480578D01*
X065127Y0480655D01*
X0651268Y0480734D01*
X0651022Y048182D01*
X065099Y0481892D01*
X0650972Y0481969D01*
X0650519Y0482986D01*
X0650473Y0483051D01*
X0650441Y0483123D01*
X0649798Y0484032D01*
X0649741Y0484086D01*
X0649695Y0484151D01*
X0648888Y0484917D01*
X0648821Y0484959D01*
X0648763Y0485013D01*
X0647822Y0485607D01*
X0647748Y0485636D01*
X0647681Y0485678D01*
X0646641Y0486076D01*
X0646563Y048609D01*
X0646489Y0486118D01*
X0645392Y0486306D01*
X0645313Y0486304D01*
X0645235Y0486317D01*
X064469Y0486303D01*
X063172Y0486303D01*
X0631309Y0486323D01*
X0630483Y0486487D01*
X0629723Y0486802D01*
X062904Y0487258D01*
X0628458Y048784D01*
X0628002Y0488523D01*
X0627687Y0489283D01*
X0627523Y0490108D01*
X0627503Y049052D01*
Y0496105D01*
X0627487Y0496183D01*
Y0496262D01*
X0627368Y0496861D01*
X0627338Y0496934D01*
X0627323Y0497011D01*
X0627089Y0497576D01*
X0627045Y0497641D01*
X0627015Y0497714D01*
X0626676Y0498222D01*
X0626619Y0498278D01*
X0626576Y0498344D01*
X0626477Y0498442D01*
X0626684Y0498942D01*
X0684254D01*
X0684285Y0498948D01*
X0686564Y0498799D01*
D02*
G37*
G36*
X06128Y04989D02*
X0613Y04989D01*
X0623905D01*
X0624504Y0498781D01*
X0625068Y0498547D01*
X0625576Y0498208D01*
X0626008Y0497776D01*
X0626347Y0497268D01*
X0626581Y0496704D01*
X06267Y0496105D01*
Y04905D01*
X0626724Y049001D01*
X0626915Y0489049D01*
X062729Y0488143D01*
X0627835Y0487328D01*
X0628528Y0486635D01*
X0629343Y048609D01*
X0630249Y0485715D01*
X063121Y0485524D01*
X06317Y04855D01*
X06447Y04855D01*
X06447Y04855D01*
X06447Y04855D01*
X0645257Y0485515D01*
X0646354Y0485327D01*
X0647393Y0484928D01*
X0648335Y0484334D01*
X0649143Y0483568D01*
X0649786Y0482659D01*
X0650239Y0481642D01*
X0650485Y0480556D01*
X06505Y048D01*
X06505Y04765D01*
X06505Y04765D01*
X0650456Y0475953D01*
X0650155Y0474898D01*
X0649655Y0473922D01*
X0648974Y0473063D01*
X0648138Y0472352D01*
X064718Y0471818D01*
X0646136Y0471482D01*
X0645047Y0471356D01*
X06445Y04714D01*
X0612465D01*
X0611808Y0471531D01*
X061119Y0471787D01*
X0610633Y0472159D01*
X0610159Y0472633D01*
X0609787Y0473189D01*
X0609531Y0473808D01*
X06094Y0474465D01*
Y04748D01*
Y04956D01*
X06094Y04956D01*
X06094Y04956D01*
Y04956D01*
X0609434Y0496066D01*
X0609543Y0496575D01*
X0609805Y0497181D01*
X061018Y0497724D01*
X0610653Y0498184D01*
X0611207Y0498542D01*
X0611821Y0498786D01*
X061247Y0498905D01*
X06128Y04989D01*
D02*
G37*
%LPC*%
G36*
X0685977Y0497009D02*
X0684945Y0497009D01*
X0684945Y0497008D01*
X0683913Y0497008D01*
X0681866Y0496739D01*
X0679872Y0496205D01*
X0677965Y0495415D01*
X0676177Y0494382D01*
X0674539Y0493126D01*
X0673079Y0491666D01*
X0671823Y0490028D01*
X0670791Y0488241D01*
X0670001Y0486334D01*
X0669466Y048434D01*
X0669197Y0482293D01*
X0669197Y0481261D01*
X0669197Y0481261D01*
X0669197Y0480229D01*
X0669466Y0478182D01*
X0670001Y0476188D01*
X0670791Y0474281D01*
X0671823Y0472493D01*
X0673079Y0470855D01*
X0674539Y0469395D01*
X0676177Y0468139D01*
X0677965Y0467106D01*
X0679872Y0466316D01*
X0681866Y0465782D01*
X0681976Y0465767D01*
X0681943Y0465268D01*
X0668174D01*
X0668109Y0465275D01*
X0668017Y046529D01*
X0667942Y0465307D01*
X0667882Y0465325D01*
X0667838Y0465342D01*
X066781Y0465356D01*
X0667795Y0465366D01*
X0667753Y0465399D01*
X0667729Y0465412D01*
X0667538Y0465603D01*
X066667Y0465962D01*
X066573D01*
X0664862Y0465603D01*
X0664197Y0464938D01*
X0663838Y046407D01*
Y046313D01*
X0664197Y0462262D01*
X0664592Y0461868D01*
X0664385Y0461368D01*
X05919D01*
X05913Y0461248D01*
X0590792Y0460908D01*
X0579341Y0449458D01*
X0579286Y0449414D01*
X0579214Y0449365D01*
X0579153Y0449328D01*
X0579103Y0449303D01*
X0579065Y0449289D01*
X057904Y0449281D01*
X0579027Y0449279D01*
X0578974Y0449276D01*
X0578918Y0449262D01*
X057853D01*
X0577662Y0448903D01*
X0576997Y0448238D01*
X0576638Y044737D01*
Y044643D01*
X0576997Y0445562D01*
X0577662Y0444897D01*
X057853Y0444538D01*
X0579414D01*
X0579529Y0444394D01*
X0579659Y0444076D01*
X0574351Y0438767D01*
X0557249D01*
X055718Y0438776D01*
X0557094Y0438791D01*
X0557025Y0438809D01*
X0556972Y0438827D01*
X0556935Y0438843D01*
X0556912Y0438856D01*
X0556902Y0438863D01*
X0556862Y0438899D01*
X0556812Y0438928D01*
X0556538Y0439203D01*
X055567Y0439562D01*
X055473D01*
X0553862Y0439203D01*
X0553197Y0438538D01*
X0552838Y043767D01*
Y043673D01*
X0553197Y0435862D01*
X0553862Y0435197D01*
X055473Y0434838D01*
X055567D01*
X0556538Y0435197D01*
X0556812Y0435472D01*
X0556862Y0435501D01*
X0556902Y0435537D01*
X0556912Y0435544D01*
X0556935Y0435557D01*
X0556972Y0435573D01*
X0557025Y0435591D01*
X0557094Y0435609D01*
X0557169Y0435622D01*
X055728Y0435633D01*
X0575D01*
X05756Y0435752D01*
X0576108Y0436092D01*
X0595249Y0455232D01*
X0664985D01*
X0665192Y0454733D01*
X0664997Y0454538D01*
X0664638Y045367D01*
Y045273D01*
X0664997Y0451862D01*
X0665662Y0451197D01*
X066653Y0450838D01*
X066747D01*
X0668338Y0451197D01*
X0668612Y0451472D01*
X0668662Y0451502D01*
X0668702Y0451537D01*
X0668712Y0451544D01*
X0668735Y0451557D01*
X0668772Y0451573D01*
X0668825Y0451591D01*
X0668894Y0451609D01*
X0668969Y0451622D01*
X066908Y0451632D01*
X0672651D01*
X0673609Y0450674D01*
Y0447581D01*
X0673597Y0447362D01*
X0673597Y0447359D01*
X0673307D01*
Y0446577D01*
X0673303Y044656D01*
X0673307Y0446542D01*
Y0443058D01*
X0673303Y044304D01*
X0673307Y0443023D01*
Y0442638D01*
X0673258Y0442175D01*
X0673192Y0442108D01*
X0673024Y0441858D01*
X0673024Y0441858D01*
X0672966Y0441771D01*
X0672852Y04416D01*
X0672732Y0441D01*
Y0440313D01*
X0672732Y0440285D01*
X0672715Y0440107D01*
X067271Y0440075D01*
X0672333D01*
Y0439293D01*
X067233Y0439275D01*
X0672333Y0439258D01*
Y0434563D01*
X067627D01*
Y0439258D01*
X0676273Y0439275D01*
X067627Y0439293D01*
Y0440075D01*
X067627D01*
X0676092Y0440575D01*
X0676229Y0440712D01*
X0676568Y044122D01*
X0676688Y044182D01*
Y0442214D01*
X067669Y0442241D01*
X0677047D01*
Y0443023D01*
X067705Y044304D01*
X0677047Y0443058D01*
Y0446542D01*
X067705Y044656D01*
X0677047Y0446577D01*
Y0447359D01*
X0676764D01*
X0676744Y0447642D01*
Y0450186D01*
X0677206Y0450377D01*
X0679318Y0448265D01*
Y0447581D01*
X0679306Y0447362D01*
X0679306Y0447359D01*
X0679015D01*
Y0446577D01*
X0679012Y044656D01*
X0679015Y0446542D01*
Y0443058D01*
X0679012Y044304D01*
X0679015Y0443023D01*
Y0442241D01*
X0679305D01*
X0679318Y0442077D01*
Y0441715D01*
X0679437Y0441115D01*
X0679777Y0440606D01*
X067981Y0440573D01*
X0679813Y0440075D01*
X0679813D01*
Y0439338D01*
X0679812Y0439333D01*
X0679813Y0439322D01*
Y0439293D01*
X067981Y0439275D01*
X0679813Y0439258D01*
Y0434563D01*
X068375D01*
Y0439258D01*
X0683754Y0439275D01*
X068375Y0439293D01*
Y0440075D01*
X0683212D01*
X0683198Y0440135D01*
X0683168Y0440444D01*
Y0441D01*
X0683048Y04416D01*
X0682922Y0441789D01*
X0682756Y0442241D01*
X0682756Y0442241D01*
X0682756Y0442241D01*
Y0443023D01*
X0682759Y044304D01*
X0682756Y0443058D01*
Y0446542D01*
X0682759Y044656D01*
X0682756Y0446577D01*
Y0447359D01*
X0682473D01*
X0682453Y0447642D01*
Y0448915D01*
X0682334Y0449514D01*
X0681994Y0450023D01*
X0674284Y0457732D01*
X0674491Y0458232D01*
X0680151D01*
X0688532Y0449851D01*
Y0431115D01*
X0688032Y0430908D01*
X0687838Y0431103D01*
X068697Y0431462D01*
X068603D01*
X0685162Y0431103D01*
X0684497Y0430438D01*
X0684138Y042957D01*
Y042863D01*
X0684497Y0427762D01*
X0684772Y0427488D01*
X0684801Y0427438D01*
X0684837Y0427398D01*
X0684844Y0427388D01*
X0684857Y0427365D01*
X0684873Y0427328D01*
X0684891Y0427275D01*
X0684909Y0427206D01*
X0684922Y0427131D01*
X0684933Y042702D01*
Y0420249D01*
X0683042Y0418359D01*
X0680851D01*
X0680632Y0418371D01*
X0680629Y0418371D01*
Y0418661D01*
X0679847D01*
X0679829Y0418665D01*
X0679812Y0418661D01*
X0675511D01*
Y0414921D01*
X0679812D01*
X0679829Y0414918D01*
X0679847Y0414921D01*
X0680629D01*
Y0415204D01*
X0680912Y0415224D01*
X0683691D01*
X0684291Y0415343D01*
X06848Y0415683D01*
X0687608Y0418492D01*
X0687948Y0419D01*
X0688032Y0419424D01*
X0688532Y0419375D01*
Y0416849D01*
X0685251Y0413567D01*
X06772D01*
X06766Y0413448D01*
X0676092Y0413108D01*
X0674085Y0411102D01*
X0673745Y0410593D01*
X0673626Y0409993D01*
Y0408699D01*
X0673615Y0408559D01*
X0673376D01*
Y0407777D01*
X0673372Y040776D01*
X0673376Y0407742D01*
Y0404258D01*
X0673372Y040424D01*
X0673376Y0404223D01*
Y0403441D01*
X0673706D01*
X0673733Y0403123D01*
Y0402828D01*
X0673192Y0402287D01*
X0672852Y0401779D01*
X0672732Y0401179D01*
Y0400229D01*
X0672732Y0400219D01*
X0672716Y040004D01*
X0672712Y0400011D01*
X067235D01*
Y0399229D01*
X0672346Y0399212D01*
X067235Y0399194D01*
Y0394499D01*
X0676287D01*
Y0399194D01*
X067629Y0399212D01*
X0676287Y0399229D01*
Y0400011D01*
X0675892D01*
X0675888Y0400038D01*
X0675868Y0400314D01*
Y0400529D01*
X0676408Y040107D01*
X0676748Y0401579D01*
X0676867Y0402179D01*
Y0403303D01*
X0676878Y0403441D01*
X0677116D01*
Y0404223D01*
X0677119Y040424D01*
X0677116Y0404258D01*
Y0407742D01*
X0677119Y040776D01*
X0677116Y0407777D01*
Y0408559D01*
X0676787D01*
X0676761Y0408876D01*
Y0409344D01*
X0677849Y0410432D01*
X06859D01*
X06865Y0410552D01*
X0687008Y0410892D01*
X0691208Y0415092D01*
X0691433Y0415427D01*
X0691932Y0415275D01*
Y0396549D01*
X0681951Y0386567D01*
X0680503D01*
X0680027Y0386625D01*
Y0387407D01*
X068003Y0387425D01*
X0680027Y0387442D01*
Y0392137D01*
X067609D01*
Y0387442D01*
X0676086Y0387425D01*
X067609Y0387407D01*
Y0386625D01*
X0676481D01*
X0676485Y0386599D01*
X0676505Y0386324D01*
Y0384291D01*
X0676495Y0384181D01*
X0676469Y0384023D01*
X0676443Y0383924D01*
X0675441D01*
Y0380184D01*
X0680559D01*
Y0383433D01*
X06826D01*
X06832Y0383552D01*
X0683708Y0383892D01*
X0694608Y0394792D01*
X0694948Y03953D01*
X0695068Y03959D01*
Y04535D01*
X0694948Y04541D01*
X0694608Y0454608D01*
X0684408Y0464808D01*
X0684103Y0465013D01*
X0684255Y0465513D01*
X0685977Y0465513D01*
X0688024Y0465782D01*
X0690018Y0466316D01*
X0691925Y0467106D01*
X0693713Y0468138D01*
X0695351Y0469395D01*
X069681Y0470855D01*
X0698067Y0472493D01*
X0699099Y047428D01*
X0699889Y0476188D01*
X0700423Y0478182D01*
X0700693Y0480228D01*
X0700693Y048126D01*
X0700693Y048126D01*
X0700693Y048126D01*
X0700693Y0482293D01*
X0700423Y0484339D01*
X0699889Y0486333D01*
X0699099Y0488241D01*
X0698067Y0490028D01*
X069681Y0491666D01*
X0695351Y0493126D01*
X0693713Y0494383D01*
X0691925Y0495415D01*
X0690018Y0496205D01*
X0688024Y0496739D01*
X0685977Y0497009D01*
D02*
G37*
G36*
X0532099D02*
X0531067Y0497009D01*
X0531067Y0497008D01*
X0530034Y0497008D01*
X0527988Y0496739D01*
X0525994Y0496205D01*
X0524087Y0495415D01*
X0522299Y0494382D01*
X0520661Y0493126D01*
X0519202Y0491666D01*
X0517945Y0490028D01*
X0516913Y0488241D01*
X0516123Y0486334D01*
X0515589Y048434D01*
X0515319Y0482293D01*
X0515319Y0481261D01*
X0515319Y0481261D01*
X0515319Y0480229D01*
X0515588Y0478182D01*
X0516123Y0476188D01*
X0516913Y0474281D01*
X0517945Y0472493D01*
X0519202Y0470855D01*
X0520661Y0469395D01*
X0522299Y0468139D01*
X0524087Y0467106D01*
X0525994Y0466316D01*
X0527988Y0465782D01*
X0530035Y0465513D01*
X0531067D01*
X0532099Y0465513D01*
X0534146Y0465782D01*
X053614Y0466316D01*
X0538047Y0467106D01*
X0539835Y0468138D01*
X0541473Y0469395D01*
X0542932Y0470855D01*
X0544189Y0472493D01*
X0545221Y047428D01*
X0546011Y0476188D01*
X0546545Y0478182D01*
X0546815Y0480228D01*
X0546815Y048126D01*
X0546815Y048126D01*
X0546815Y048126D01*
X0546815Y0482293D01*
X0546545Y0484339D01*
X0546011Y0486333D01*
X0545221Y0488241D01*
X0544189Y0490028D01*
X0542932Y0491666D01*
X0541472Y0493126D01*
X0539835Y0494383D01*
X0538047Y0495415D01*
X053614Y0496205D01*
X0534146Y0496739D01*
X0532099Y0497009D01*
D02*
G37*
G36*
X057957Y0458762D02*
X057863D01*
X0577762Y0458403D01*
X0577097Y0457738D01*
X0577067Y0457666D01*
X0570234Y0450832D01*
X0557842D01*
X055777Y0450862D01*
X055683D01*
X0555962Y0450503D01*
X0555297Y0449838D01*
X0554938Y044897D01*
Y044803D01*
X0555297Y0447162D01*
X0555962Y0446497D01*
X055683Y0446138D01*
X055777D01*
X0557842Y0446168D01*
X05712D01*
X0572092Y0446345D01*
X0572849Y0446851D01*
X0580366Y0454367D01*
X0580438Y0454397D01*
X0581103Y0455062D01*
X0581462Y045593D01*
Y045687D01*
X0581103Y0457738D01*
X0580438Y0458403D01*
X057957Y0458762D01*
D02*
G37*
G36*
X063667Y0454562D02*
X063573D01*
X0634862Y0454203D01*
X0634197Y0453538D01*
X0634121Y0453354D01*
X0633798Y045303D01*
X0633742Y0452993D01*
X0632492Y0451742D01*
X0632152Y0451233D01*
X0632032Y0450634D01*
Y0449791D01*
X0631532Y0449584D01*
X0628857Y0452259D01*
X0628349Y0452599D01*
X0627749Y0452719D01*
X0622613D01*
X0622545Y0452726D01*
X0622456Y0452742D01*
X0622384Y0452759D01*
X0622328Y0452777D01*
X0622287Y0452794D01*
X0622261Y0452808D01*
X0622248Y0452816D01*
X0622207Y0452851D01*
X0622168Y0452873D01*
X0621938Y0453103D01*
X062107Y0453462D01*
X062013D01*
X0619262Y0453103D01*
X0618597Y0452438D01*
X0618238Y045157D01*
Y045063D01*
X0618597Y0449762D01*
X0619262Y0449097D01*
X062013Y0448738D01*
X062107D01*
X0621938Y0449097D01*
X0622261Y0449421D01*
X0622316Y0449455D01*
X0622353Y0449491D01*
X0622361Y0449497D01*
X062238Y0449509D01*
X0622414Y0449524D01*
X0622463Y0449542D01*
X0622529Y0449559D01*
X0622601Y0449573D01*
X0622715Y0449584D01*
X06271D01*
X0629332Y0447351D01*
Y04276D01*
X0629452Y0427D01*
X0629792Y0426492D01*
X0632592Y0423692D01*
X06331Y0423352D01*
X06337Y0423233D01*
X06389D01*
X06395Y0423352D01*
X0640008Y0423692D01*
X0641297Y042498D01*
X0641736Y0424842D01*
X0641797Y0424796D01*
Y039192D01*
X064177Y0391361D01*
X0641548Y0390247D01*
X0641121Y0389216D01*
X0640501Y0388288D01*
X0639712Y0387499D01*
X0638784Y0386879D01*
X0637753Y0386452D01*
X0636639Y038623D01*
X063608Y0386203D01*
X058272D01*
X0581818Y0386247D01*
X0581277Y0386355D01*
X0581217Y0386877D01*
X0581803Y0387462D01*
X0582162Y038833D01*
Y038927D01*
X0582027Y0389596D01*
Y0406787D01*
X0582103Y0406862D01*
X0582462Y040773D01*
Y040867D01*
X0582103Y0409538D01*
X0581438Y0410203D01*
X058057Y0410562D01*
X057963D01*
X0578762Y0410203D01*
X0578097Y0409538D01*
X0577738Y040867D01*
Y040773D01*
X0577873Y0407405D01*
Y0390213D01*
X0577797Y0390138D01*
X0577438Y038927D01*
Y0388514D01*
X0576986Y0388215D01*
X0576868Y0388294D01*
X0575594Y0389568D01*
X0574592Y0391066D01*
X0573903Y0392731D01*
X0573547Y0394518D01*
X0573503Y039542D01*
Y04271D01*
Y0427478D01*
X0573442Y0427785D01*
X0573152Y0428483D01*
X0572978Y0428744D01*
X0572444Y0429278D01*
X0572184Y0429453D01*
X0571485Y0429742D01*
X0571178Y0429803D01*
X0564114D01*
X0564037Y0429787D01*
X0563958D01*
X0563398Y0429676D01*
X0563324Y0429646D01*
X0563247Y042963D01*
X0562719Y0429412D01*
X0562653Y0429368D01*
X056258Y0429338D01*
X0562105Y042902D01*
X0562049Y0428964D01*
X0561984Y042892D01*
X056158Y0428516D01*
X0561536Y0428451D01*
X056148Y0428395D01*
X0561163Y042792D01*
X0561132Y0427847D01*
X0561088Y0427781D01*
X056087Y0427253D01*
X0560854Y0427176D01*
X0560824Y0427103D01*
X0560713Y0426542D01*
Y0426463D01*
X0560697Y0426386D01*
Y04261D01*
Y03783D01*
Y0377315D01*
X0560713Y0377238D01*
Y0377158D01*
X0561097Y0375226D01*
X0561127Y0375153D01*
X0561143Y0375076D01*
X0561896Y0373256D01*
X056194Y037319D01*
X0561971Y0373117D01*
X0563065Y0371479D01*
X0563121Y0371423D01*
X0563165Y0371358D01*
X0564455Y0370068D01*
X0564337Y0369663D01*
X0564268Y0369567D01*
X055515D01*
X055508Y0369576D01*
X0554994Y0369591D01*
X0554925Y0369609D01*
X0554872Y0369627D01*
X0554835Y0369643D01*
X0554812Y0369656D01*
X0554802Y0369663D01*
X0554762Y0369699D01*
X0554712Y0369728D01*
X0554438Y0370003D01*
X055357Y0370362D01*
X055263D01*
X0551762Y0370003D01*
X0551097Y0369338D01*
X0550738Y036847D01*
Y036753D01*
X0551097Y0366662D01*
X0551382Y0366377D01*
X0551175Y0365877D01*
X0549261D01*
X0546877Y0368261D01*
Y03722D01*
Y0374342D01*
X0547162Y037503D01*
Y037597D01*
X0546803Y0376838D01*
X0546138Y0377503D01*
X054527Y0377862D01*
X054433D01*
X0543462Y0377503D01*
X0542797Y0376838D01*
X0542438Y037597D01*
Y037503D01*
X0542611Y0374611D01*
X0542423Y0374165D01*
X0541935Y0374082D01*
X0541468Y0374549D01*
Y0412851D01*
X0542341Y0413724D01*
X0542841Y0413602D01*
Y0413602D01*
X0543623D01*
X054364Y0413599D01*
X0543657Y0413602D01*
X0547959Y0413602D01*
X0548133Y0413174D01*
Y0411949D01*
X0548124Y041188D01*
X0548109Y0411794D01*
X0548091Y0411725D01*
X0548073Y0411672D01*
X0548057Y0411635D01*
X0548044Y0411612D01*
X0548037Y0411602D01*
X0548001Y0411562D01*
X0547972Y0411512D01*
X0547697Y0411238D01*
X0547338Y041037D01*
Y040943D01*
X0547697Y0408562D01*
X0548362Y0407897D01*
X054923Y0407538D01*
X055017D01*
X0551038Y0407897D01*
X0551703Y0408562D01*
X0552062Y040943D01*
Y041037D01*
X0551703Y0411238D01*
X0551428Y0411512D01*
X0551399Y0411562D01*
X0551363Y0411602D01*
X0551356Y0411612D01*
X0551343Y0411635D01*
X0551327Y0411672D01*
X0551309Y0411725D01*
X0551291Y0411794D01*
X0551278Y0411869D01*
X0551267Y041198D01*
Y0422888D01*
X0551356D01*
X0551956Y0423007D01*
X0552464Y0423347D01*
X0559549Y0430433D01*
X0575251D01*
X0577142Y0428541D01*
X0577186Y0428486D01*
X0577235Y0428414D01*
X0577272Y0428353D01*
X0577297Y0428303D01*
X0577312Y0428265D01*
X0577319Y042824D01*
X0577321Y0428227D01*
X0577323Y0428174D01*
X0577338Y0428118D01*
Y042773D01*
X0577697Y0426862D01*
X0578362Y0426197D01*
X057923Y0425838D01*
X058017D01*
X0581038Y0426197D01*
X0581703Y0426862D01*
X0582062Y042773D01*
Y042867D01*
X0581703Y0429538D01*
X0581038Y0430203D01*
X058017Y0430562D01*
X0579782D01*
X0579726Y0430577D01*
X0579673Y0430579D01*
X057966Y0430581D01*
X0579635Y0430588D01*
X0579597Y0430603D01*
X0579547Y0430628D01*
X0579486Y0430665D01*
X0579423Y0430708D01*
X0579337Y0430779D01*
X0577008Y0433108D01*
X05765Y0433448D01*
X05759Y0433567D01*
X05589D01*
X05583Y0433448D01*
X0557792Y0433108D01*
X0550706Y0426023D01*
X0547851D01*
X0547372Y0426063D01*
X0547368Y042608D01*
Y0430776D01*
X0543431D01*
Y042608D01*
X0543428Y0426063D01*
X0543431Y0426046D01*
Y0425264D01*
X054381D01*
X0543813Y042524D01*
X0543832Y042497D01*
Y0423417D01*
X0543823Y0423308D01*
X0543796Y042315D01*
X054377Y0423051D01*
X0542841D01*
Y0419311D01*
X0547959D01*
X0548133Y0418883D01*
Y041777D01*
X0547959Y0417343D01*
X0547633Y0417343D01*
X0543657D01*
X054364Y0417346D01*
X0543623Y0417343D01*
X0542841D01*
Y041706D01*
X0542557Y041704D01*
X0541872D01*
X0541273Y0416921D01*
X0540764Y0416581D01*
X0538792Y0414608D01*
X0538452Y04141D01*
X0538333Y04135D01*
Y03739D01*
X0538452Y03733D01*
X0538792Y0372792D01*
X0540492Y0371092D01*
X0541Y0370752D01*
X05416Y0370633D01*
X0542182D01*
X0542185Y0370632D01*
X0542278Y0370605D01*
X0542346Y0370567D01*
X0542412Y0370508D01*
X0542486Y0370408D01*
X0542564Y0370248D01*
X0542637Y0370022D01*
X0542696Y0369729D01*
X0542723Y0369472D01*
Y03674D01*
X0542881Y0366605D01*
X0543331Y0365931D01*
X0546931Y0362331D01*
X0547605Y0361881D01*
X05484Y0361723D01*
X0579342D01*
X058003Y0361438D01*
X058097D01*
X0581838Y0361797D01*
X0582503Y0362462D01*
X0582862Y036333D01*
Y036427D01*
X0582503Y0365138D01*
X0581838Y0365803D01*
X058097Y0366162D01*
X058003D01*
X0579342Y0365877D01*
X0555473D01*
X0555283Y0366073D01*
X055523Y0366207D01*
X055528Y0366415D01*
X0555292Y0366432D01*
X0566D01*
X05666Y0366552D01*
X0567108Y0366892D01*
X0568193Y0367977D01*
X0568276Y0367943D01*
X0568353Y0367927D01*
X0568427Y0367897D01*
X0570359Y0367513D01*
X0570437D01*
X0570515Y0367497D01*
X0602552D01*
X060269Y0367024D01*
X060269Y0366997D01*
X0601997Y0366304D01*
X0601503Y0365448D01*
X0601249Y03645D01*
X0605D01*
X0608751D01*
X0608497Y0365448D01*
X0608003Y0366304D01*
X060731Y0366997D01*
X060731Y0367024D01*
X0607448Y0367497D01*
X061738D01*
X0617713Y0367481D01*
X0618385Y0367347D01*
X0619Y0367093D01*
X0619553Y0366723D01*
X0620023Y0366253D01*
X0620393Y03657D01*
X0620647Y0365085D01*
X0620781Y0364413D01*
X0620797Y036408D01*
Y0363736D01*
X0620813Y0363658D01*
Y0363579D01*
X0620955Y0362864D01*
X0620985Y0362791D01*
X0621Y0362714D01*
X0621279Y036204D01*
X0621323Y0361974D01*
X0621354Y0361901D01*
X0621759Y0361295D01*
X0621814Y0361239D01*
X0621858Y0361174D01*
X0622374Y0360658D01*
X0622439Y0360614D01*
X0622495Y0360559D01*
X0623101Y0360154D01*
X0623174Y0360123D01*
X062324Y0360079D01*
X0623913Y0359801D01*
X0623991Y0359785D01*
X0624064Y0359755D01*
X0624779Y0359613D01*
X0624858D01*
X0624936Y0359597D01*
X0655485D01*
X0655562Y0359613D01*
X0655642D01*
X0657574Y0359997D01*
X0657647Y0360027D01*
X0657724Y0360043D01*
X0659544Y0360796D01*
X065961Y036084D01*
X0659683Y0360871D01*
X0661321Y0361965D01*
X0661377Y0362021D01*
X0661442Y0362065D01*
X0662835Y0363458D01*
X0662879Y0363523D01*
X0662935Y0363579D01*
X0664029Y0365217D01*
X066406Y036529D01*
X0664104Y0365356D01*
X0664857Y0367176D01*
X0664873Y0367253D01*
X0664903Y0367326D01*
X0665287Y0369258D01*
Y0369338D01*
X0665303Y0369415D01*
Y03704D01*
Y0380973D01*
X0665287Y038105D01*
Y0381129D01*
X0665103Y0382057D01*
X0665073Y038213D01*
X0665057Y0382207D01*
X0664695Y0383081D01*
X0664651Y0383147D01*
X0664621Y038322D01*
X0664096Y0384006D01*
X066404Y0384062D01*
X0663996Y0384127D01*
X0663328Y0384796D01*
X0663262Y038484D01*
X0663206Y0384896D01*
X066242Y0385421D01*
X0662347Y0385452D01*
X0662281Y0385495D01*
X0661407Y0385857D01*
X066133Y0385873D01*
X0661257Y0385903D01*
X0660329Y0386087D01*
X066025D01*
X0660173Y0386103D01*
X0659739D01*
X0659507Y0386126D01*
X0659044Y0386318D01*
X0658718Y0386644D01*
X0658526Y0387107D01*
X0658503Y0387339D01*
Y04302D01*
Y0430677D01*
X0658442Y0430985D01*
X0658076Y0431867D01*
X0657902Y0432127D01*
X0657227Y0432802D01*
X0656967Y0432976D01*
X0656085Y0433342D01*
X0655777Y0433403D01*
X0649817D01*
X0649739Y0433387D01*
X064966D01*
X0648671Y0433191D01*
X0648598Y043316D01*
X064852Y0433145D01*
X0647588Y0432759D01*
X0647522Y0432715D01*
X0647449Y0432685D01*
X0646611Y0432124D01*
X0646555Y0432068D01*
X0646489Y0432024D01*
X0646132Y0431668D01*
X0646132Y0431668D01*
X0643305Y042884D01*
X0643305Y042884D01*
X0643003Y0428538D01*
X0642958Y0428472D01*
X0642903Y0428416D01*
X0642427Y0427704D01*
X0642397Y0427631D01*
X0642368Y0427588D01*
X0642317Y0427578D01*
X0641867Y042771D01*
Y0432498D01*
X0646476Y0437106D01*
X0654924D01*
X0660133Y0431898D01*
Y042075D01*
X0660124Y042068D01*
X0660109Y0420594D01*
X0660091Y0420525D01*
X0660073Y0420472D01*
X0660057Y0420435D01*
X0660044Y0420412D01*
X0660037Y0420402D01*
X0660002Y0420362D01*
X0659972Y0420312D01*
X0659697Y0420038D01*
X0659338Y041917D01*
Y041823D01*
X0659697Y0417362D01*
X0660362Y0416697D01*
X066123Y0416338D01*
X066217D01*
X0663038Y0416697D01*
X0663703Y0417362D01*
X0664062Y041823D01*
Y041917D01*
X0663703Y0420038D01*
X0663428Y0420312D01*
X0663399Y0420362D01*
X0663363Y0420402D01*
X0663356Y0420412D01*
X0663343Y0420435D01*
X0663327Y0420472D01*
X0663309Y0420525D01*
X0663291Y0420594D01*
X0663278Y0420669D01*
X0663268Y042078D01*
Y0431362D01*
X0663729Y0431554D01*
X0670419Y0424864D01*
X0670928Y0424524D01*
X0671528Y0424405D01*
X0675025D01*
X0675511Y042437D01*
Y042063D01*
X0680629D01*
Y042437D01*
X0679685D01*
X0679659Y0424469D01*
X0679633Y0424627D01*
X0679623Y0424736D01*
Y0426466D01*
X0679624Y042648D01*
X067964Y0426659D01*
X0679644Y0426689D01*
X068001D01*
Y0427471D01*
X0680014Y0427488D01*
X068001Y0427506D01*
Y0432201D01*
X0676073D01*
Y042755D01*
X0676019Y042754D01*
X0672177D01*
X0656908Y0442808D01*
X06564Y0443148D01*
X06558Y0443267D01*
X06456D01*
X0645Y0443148D01*
X0644492Y0442808D01*
X0639862Y0438179D01*
X0639362Y0438386D01*
Y043877D01*
X0639003Y0439638D01*
X0638728Y0439912D01*
X0638698Y0439962D01*
X0638663Y0440002D01*
X0638656Y0440012D01*
X0638643Y0440035D01*
X0638627Y0440072D01*
X0638609Y0440125D01*
X0638591Y0440194D01*
X0638578Y0440269D01*
X0638567Y044038D01*
Y0443951D01*
X0640549Y0445932D01*
X0656875D01*
X0656945Y0445924D01*
X065703Y0445909D01*
X06571Y0445891D01*
X0657153Y0445873D01*
X065719Y0445857D01*
X0657213Y0445844D01*
X0657223Y0445837D01*
X0657262Y0445801D01*
X0657312Y0445772D01*
X0657587Y0445497D01*
X0658455Y0445138D01*
X0659395D01*
X0660263Y0445497D01*
X0660927Y0446162D01*
X0661287Y044703D01*
Y044797D01*
X0660927Y0448838D01*
X0660263Y0449503D01*
X0659395Y0449862D01*
X0658455D01*
X0657587Y0449503D01*
X0657312Y0449228D01*
X0657262Y0449198D01*
X0657223Y0449163D01*
X0657213Y0449156D01*
X065719Y0449143D01*
X0657153Y0449127D01*
X06571Y0449109D01*
X065703Y0449091D01*
X0656956Y0449078D01*
X0656845Y0449067D01*
X06399D01*
X06393Y0448948D01*
X0638792Y0448608D01*
X0635892Y0445708D01*
X0635668Y0445373D01*
X0635168Y0445525D01*
Y044953D01*
X0635668Y0449864D01*
X063573Y0449838D01*
X063667D01*
X0637538Y0450197D01*
X0638203Y0450862D01*
X0638562Y045173D01*
Y045267D01*
X0638203Y0453538D01*
X0637538Y0454203D01*
X063667Y0454562D01*
D02*
G37*
G36*
X052047Y0452362D02*
X051953D01*
X0518662Y0452003D01*
X0517997Y0451338D01*
X0517638Y045047D01*
Y044953D01*
X0517997Y0448662D01*
X0518662Y0447997D01*
X051953Y0447638D01*
X052047D01*
X0521338Y0447997D01*
X0522003Y0448662D01*
X0522362Y044953D01*
Y045047D01*
X0522003Y0451338D01*
X0521338Y0452003D01*
X052047Y0452362D01*
D02*
G37*
G36*
X0624255Y0445703D02*
X06239D01*
X05939Y0445703D01*
X0593545Y0445703D01*
X0593468Y0445687D01*
X0593389D01*
X0592693Y0445549D01*
X059262Y0445519D01*
X0592543Y0445503D01*
X0591888Y0445232D01*
X0591822Y0445188D01*
X0591749Y0445158D01*
X0591159Y0444764D01*
X0591103Y0444708D01*
X0591037Y0444664D01*
X0590536Y0444163D01*
X0590492Y0444097D01*
X0590436Y0444041D01*
X0590042Y0443451D01*
X0590012Y0443378D01*
X0589968Y0443313D01*
X0589697Y0442657D01*
X0589681Y044258D01*
X0589651Y0442507D01*
X0589539Y0441946D01*
Y0441888D01*
X0589525Y0441833D01*
X0589498Y0441344D01*
X0589501Y0441322D01*
X0589497Y04413D01*
Y0424532D01*
X0589505Y0424493D01*
X0589501Y0424453D01*
X0589535Y042434D01*
X0589558Y0424225D01*
X058958Y0424192D01*
X0589592Y0424154D01*
X0589667Y0424062D01*
X0589732Y0423964D01*
X0589765Y0423942D01*
X058979Y0423912D01*
X059029Y0423501D01*
X0590395Y0423445D01*
X0590493Y042338D01*
X0590532Y0423372D01*
X0590567Y0423353D01*
X0590684Y0423342D01*
X0590728Y0423333D01*
Y0422593D01*
X0590819Y0422613D01*
X0591213Y0422759D01*
X0591449Y0422925D01*
X0591528Y0423109D01*
Y0413291D01*
X0591449Y0413476D01*
X0591213Y0413641D01*
X0590819Y0413787D01*
X0590728Y0413807D01*
Y0413082D01*
X0590516D01*
X0590397Y0413058D01*
X0590277Y0413045D01*
X0590245Y0413028D01*
X0590208Y0413021D01*
X0590108Y0412953D01*
X0590002Y0412896D01*
X0589979Y0412867D01*
X0589948Y0412846D01*
X0589881Y0412746D01*
X0589805Y0412652D01*
X0589589Y0412242D01*
X0589579Y0412206D01*
X0589558Y0412175D01*
X0589535Y0412057D01*
X0589501Y0411941D01*
X0589504Y0411904D01*
X0589497Y0411868D01*
Y04002D01*
X0589503Y0400171D01*
X0589499Y0400142D01*
X0589524Y0399802D01*
X0589545Y0399726D01*
X0589551Y0399647D01*
X0589731Y039899D01*
X0589767Y039892D01*
X0589788Y0398843D01*
X0590093Y0398234D01*
X0590142Y0398172D01*
X0590177Y0398101D01*
X0590596Y0397564D01*
X0590656Y0397512D01*
X0590704Y0397449D01*
X059122Y0397004D01*
X0591289Y0396965D01*
X0591348Y0396913D01*
X0591941Y0396576D01*
X0592016Y0396551D01*
X0592085Y0396512D01*
X0592731Y0396298D01*
X059281Y0396288D01*
X0592885Y0396263D01*
X0593561Y0396179D01*
X059364Y0396184D01*
X0593718Y0396175D01*
X0594029Y0396197D01*
X0625066D01*
X0625143Y0396213D01*
X0625222D01*
X0625744Y0396316D01*
X0625817Y0396347D01*
X0625895Y0396362D01*
X0626386Y0396566D01*
X0626452Y0396609D01*
X0626525Y039664D01*
X0626967Y0396935D01*
X0627023Y0396991D01*
X0627089Y0397035D01*
X0627465Y0397411D01*
X0627509Y0397477D01*
X0627565Y0397533D01*
X062786Y0397975D01*
X062789Y0398048D01*
X0627934Y0398114D01*
X0628138Y0398605D01*
X0628153Y0398683D01*
X0628184Y0398756D01*
X0628287Y0399277D01*
Y0399357D01*
X0628303Y0399434D01*
Y03997D01*
Y04413D01*
Y0441655D01*
X0628287Y0441732D01*
Y0441811D01*
X0628149Y0442507D01*
X0628119Y044258D01*
X0628103Y0442657D01*
X0627832Y0443313D01*
X0627788Y0443378D01*
X0627758Y0443451D01*
X0627364Y0444041D01*
X0627308Y0444097D01*
X0627264Y0444163D01*
X0626763Y0444664D01*
X0626697Y0444708D01*
X0626641Y0444764D01*
X0626051Y0445158D01*
X0625978Y0445188D01*
X0625913Y0445232D01*
X0625257Y0445503D01*
X062518Y0445519D01*
X0625107Y0445549D01*
X0624411Y0445687D01*
X0624332D01*
X0624255Y0445703D01*
D02*
G37*
G36*
X05463Y0451967D02*
X0531679D01*
X0531079Y0451848D01*
X053057Y0451508D01*
X0529692Y045063D01*
X0529352Y0450121D01*
X0529233Y0449521D01*
Y044865D01*
X0529224Y044858D01*
X0529209Y0448494D01*
X0529191Y0448425D01*
X0529173Y0448372D01*
X0529157Y0448335D01*
X0529144Y0448312D01*
X0529137Y0448302D01*
X0529102Y0448262D01*
X0529072Y0448212D01*
X0528797Y0447938D01*
X0528438Y044707D01*
Y044613D01*
X0528797Y0445262D01*
X0529462Y0444597D01*
X053033Y0444238D01*
X053127D01*
X0532138Y0444597D01*
X0532803Y0445262D01*
X0533162Y044613D01*
Y044707D01*
X0532803Y0447938D01*
X0532528Y0448212D01*
X0532499Y0448262D01*
X0532463Y0448302D01*
X0532456Y0448312D01*
X0532443Y0448335D01*
X0532513Y0448537D01*
X0532556Y0448621D01*
X053262Y0448705D01*
X0532657Y0448739D01*
X0532809Y0448833D01*
X0545651D01*
X0546343Y044814D01*
Y0443614D01*
X0546373Y0443462D01*
Y0441539D01*
X054637Y0441521D01*
X0546373Y0441504D01*
Y0440722D01*
X0546726D01*
X0546732Y0440643D01*
Y0440301D01*
X0546851Y0439701D01*
X0547191Y0439192D01*
X0547234Y043915D01*
X0547171Y043865D01*
X0547171D01*
Y0437867D01*
X0547168Y043785D01*
X0547171Y0437833D01*
Y0433138D01*
X0551108D01*
Y0437833D01*
X0551112Y043785D01*
X0551108Y0437867D01*
Y043865D01*
X055073D01*
X0550726Y0438673D01*
X0550707Y0438943D01*
Y043946D01*
X0550588Y044006D01*
X0550464Y0440245D01*
X05504Y0440341D01*
X05504Y0440341D01*
X0550248Y0440569D01*
X055017Y0440647D01*
X055017Y0440647D01*
X0550113Y0441109D01*
Y0441504D01*
X0550117Y0441521D01*
X0550113Y0441539D01*
Y0445023D01*
X0550117Y0445041D01*
X0550113Y0445058D01*
Y044584D01*
X0549529D01*
X0549509Y0445925D01*
X0549485Y0446089D01*
X0549478Y044618D01*
Y0448789D01*
X0549359Y0449389D01*
X0549019Y0449898D01*
X0547408Y0451508D01*
X05469Y0451848D01*
X05468Y0451868D01*
X05463Y0451967D01*
D02*
G37*
G36*
X0544405Y044584D02*
X0540665D01*
Y0444913D01*
X0540558Y0444884D01*
X0540403Y0444858D01*
X0540295Y0444849D01*
X0537079D01*
X0536479Y0444729D01*
X053597Y0444389D01*
X0532792Y0441211D01*
X0532452Y0440702D01*
X0532333Y0440102D01*
Y0371D01*
X0532452Y03704D01*
X0532792Y0369892D01*
X0547592Y0355092D01*
X05481Y0354752D01*
X05487Y0354632D01*
X0660109D01*
X0660316Y0354133D01*
X0658151Y0351968D01*
X0548849D01*
X0524668Y0376149D01*
Y0384451D01*
X0524676Y038452D01*
X0524691Y0384606D01*
X0524709Y0384675D01*
X0524727Y0384728D01*
X0524743Y0384765D01*
X0524756Y0384788D01*
X0524763Y0384798D01*
X0524798Y0384838D01*
X0524828Y0384888D01*
X0525103Y0385162D01*
X0525462Y038603D01*
Y038697D01*
X0525103Y0387838D01*
X0524438Y0388503D01*
X052357Y0388862D01*
X052263D01*
X0521762Y0388503D01*
X0521097Y0387838D01*
X0520738Y038697D01*
Y038603D01*
X0521097Y0385162D01*
X0521372Y0384888D01*
X0521402Y0384838D01*
X0521437Y0384798D01*
X0521444Y0384788D01*
X0521457Y0384765D01*
X0521473Y0384728D01*
X0521491Y0384675D01*
X0521509Y0384606D01*
X0521522Y0384531D01*
X0521532Y038442D01*
Y03755D01*
X0521652Y03749D01*
X0521992Y0374392D01*
X0547092Y0349292D01*
X05476Y0348952D01*
X05482Y0348833D01*
X06588D01*
X06594Y0348952D01*
X0659908Y0349292D01*
X0676159Y0365542D01*
X0676214Y0365586D01*
X0676286Y0365635D01*
X0676347Y0365672D01*
X0676397Y0365697D01*
X0676435Y0365711D01*
X067646Y0365719D01*
X0676473Y0365721D01*
X0676525Y0365723D01*
X0676582Y0365738D01*
X067697D01*
X0677838Y0366097D01*
X0678503Y0366762D01*
X0678862Y036763D01*
Y036857D01*
X0678503Y0369438D01*
X0677838Y0370103D01*
X067697Y0370462D01*
X067603D01*
X0675162Y0370103D01*
X0674497Y0369438D01*
X0674138Y036857D01*
Y0368182D01*
X0674123Y0368126D01*
X0674121Y0368073D01*
X0674119Y036806D01*
X0674112Y0368035D01*
X0674097Y0367997D01*
X0674072Y0367947D01*
X0674035Y0367886D01*
X0673992Y0367823D01*
X0673921Y0367737D01*
X0671067Y0364884D01*
X0670568Y0365091D01*
Y0374454D01*
X067059Y0374584D01*
X0670625Y0374687D01*
X067066Y0374753D01*
X0670695Y0374796D01*
X0670739Y0374831D01*
X0670805Y0374867D01*
X0670908Y0374901D01*
X0671037Y0374924D01*
X0675152D01*
X0675225Y0374921D01*
X0675398Y0374903D01*
X0675441Y0374896D01*
Y0374476D01*
X0676223D01*
X067624Y0374472D01*
X0676258Y0374476D01*
X0680559D01*
Y0378216D01*
X0676278D01*
X0676265Y0378219D01*
X0676253Y0378217D01*
X067624Y0378219D01*
X0676223Y0378216D01*
X0675441D01*
Y0378074D01*
X0675206Y0378059D01*
X0671037D01*
X0670908Y0378082D01*
X0670805Y0378116D01*
X0670739Y0378152D01*
X0670695Y0378187D01*
X067066Y037823D01*
X0670625Y0378296D01*
X067059Y0378399D01*
X0670568Y0378528D01*
Y03842D01*
X0670448Y03848D01*
X0670108Y0385308D01*
X0666167Y0389249D01*
Y040535D01*
X0666176Y040542D01*
X0666191Y0405506D01*
X0666209Y0405575D01*
X0666227Y0405628D01*
X0666243Y0405665D01*
X0666256Y0405688D01*
X0666263Y0405698D01*
X0666298Y0405738D01*
X0666328Y0405788D01*
X0666603Y0406062D01*
X0666962Y040693D01*
Y040787D01*
X0666603Y0408738D01*
X0665938Y0409403D01*
X066507Y0409762D01*
X066413D01*
X0663262Y0409403D01*
X0662597Y0408738D01*
X0662238Y040787D01*
Y040693D01*
X0662597Y0406062D01*
X0662872Y0405788D01*
X0662901Y0405738D01*
X0662937Y0405698D01*
X0662944Y0405688D01*
X0662957Y0405665D01*
X0662973Y0405628D01*
X0662991Y0405575D01*
X0663009Y0405506D01*
X0663022Y0405431D01*
X0663032Y040532D01*
Y03886D01*
X0663152Y0388D01*
X0663492Y0387492D01*
X0667432Y0383551D01*
Y0376491D01*
Y0365449D01*
X0659751Y0357768D01*
X0549349D01*
X0535467Y0371649D01*
Y0439453D01*
X0537728Y0441714D01*
X0540226D01*
X0540661Y0441521D01*
X0540665Y0441504D01*
Y0440722D01*
X0540447Y0440312D01*
X0540211Y0439959D01*
X0540092Y043936D01*
Y0438889D01*
X0540091Y043886D01*
X0540074Y0438682D01*
X054007Y043865D01*
X0539691D01*
Y0437867D01*
X0539688Y043785D01*
X0539691Y0437833D01*
Y0433138D01*
X0543628D01*
Y0437833D01*
X0543631Y043785D01*
X0543628Y0437867D01*
Y043865D01*
X0543628Y043865D01*
X0543643Y0439143D01*
X0543948Y04396D01*
X0544067Y04402D01*
Y0440645D01*
X0544074Y0440722D01*
X0544405D01*
Y0441504D01*
X0544408Y0441521D01*
X0544405Y0441539D01*
Y044584D01*
D02*
G37*
G36*
X058641Y0423921D02*
X0581189D01*
Y04187D01*
X0583654D01*
Y0422137D01*
X058515Y0422147D01*
X058641Y042223D01*
Y0423921D01*
D02*
G37*
G36*
X0580189D02*
X0574968D01*
Y04187D01*
X0580189D01*
Y0423921D01*
D02*
G37*
G36*
X0583654Y04177D02*
X0581189D01*
Y0412479D01*
X058641D01*
Y0414203D01*
X0583654Y0414263D01*
Y04177D01*
D02*
G37*
G36*
X0580189D02*
X0574968D01*
Y0412479D01*
X0580189D01*
Y04177D01*
D02*
G37*
G36*
X0682824Y0408559D02*
X0679084D01*
Y040429D01*
X0679082Y0404281D01*
X0679084Y0404264D01*
Y0404258D01*
X0679081Y040424D01*
X0679084Y0404223D01*
Y0403441D01*
X0679219D01*
X0679233Y040322D01*
Y04021D01*
X0679352Y04015D01*
X0679692Y0400992D01*
X0680172Y0400511D01*
X0680089Y0400011D01*
X067983D01*
Y0399229D01*
X0679826Y0399212D01*
X067983Y0399194D01*
Y0394499D01*
X0683767D01*
Y0399194D01*
X068377Y0399212D01*
X0683767Y0399229D01*
Y0400011D01*
X0683388D01*
X0683385Y0400034D01*
X0683366Y0400304D01*
Y0401102D01*
X0683247Y0401701D01*
X0682907Y040221D01*
X0682368Y0402749D01*
Y0403144D01*
X068237Y0403224D01*
X0682388Y0403396D01*
X0682396Y0403441D01*
X0682824D01*
Y0404223D01*
X0682828Y040424D01*
X0682824Y0404258D01*
Y0408559D01*
D02*
G37*
G36*
X0555Y0389912D02*
X0554272Y0389816D01*
X0553594Y0389535D01*
X0553012Y0389088D01*
X0552565Y0388506D01*
X0552284Y0387828D01*
X0552188Y03871D01*
X0552284Y0386372D01*
X0552289Y0386362D01*
Y03756D01*
X0552384Y0374872D01*
X0552665Y0374194D01*
X0553112Y0373612D01*
X0553694Y0373165D01*
X0554372Y0372884D01*
X05551Y0372789D01*
X0555828Y0372884D01*
X0556506Y0373165D01*
X0557088Y0373612D01*
X0557535Y0374194D01*
X0557816Y0374872D01*
X0557911Y03756D01*
Y0387D01*
X0557911Y0387D01*
X0557816Y0387728D01*
X0557535Y0388406D01*
X0557088Y0388988D01*
X0557088Y0388988D01*
X0556988Y0389088D01*
X0556406Y0389535D01*
X0555728Y0389816D01*
X0555Y0389912D01*
D02*
G37*
G36*
X0608751Y03635D02*
X06055D01*
Y0360249D01*
X0606449Y0360503D01*
X0607304Y0360997D01*
X0608003Y0361696D01*
X0608497Y0362551D01*
X0608751Y03635D01*
D02*
G37*
G36*
X06045D02*
X0601249D01*
X0601503Y0362551D01*
X0601997Y0361696D01*
X0602696Y0360997D01*
X0603551Y0360503D01*
X06045Y0360249D01*
Y03635D01*
D02*
G37*
G36*
X0685977Y0337631D02*
X0684945Y0337631D01*
X0684945Y0337631D01*
X0683913Y0337631D01*
X0681866Y0337361D01*
X0679872Y0336827D01*
X0677965Y0336037D01*
X0676177Y0335005D01*
X0674539Y0333748D01*
X0673079Y0332288D01*
X0671823Y033065D01*
X0670791Y0328863D01*
X0670001Y0326956D01*
X0669466Y0324962D01*
X0669197Y0322915D01*
X0669197Y0321883D01*
X0669197Y0321883D01*
X0669197Y0320851D01*
X0669466Y0318804D01*
X0670001Y031681D01*
X0670791Y0314903D01*
X0671823Y0313115D01*
X0673079Y0311477D01*
X0674539Y0310017D01*
X0676177Y030876D01*
X0677965Y0307728D01*
X0679872Y0306938D01*
X0681866Y0306404D01*
X0683913Y0306135D01*
X0684945D01*
X0685977Y0306135D01*
X0688024Y0306404D01*
X0690018Y0306938D01*
X0691925Y0307728D01*
X0693713Y030876D01*
X0695351Y0310017D01*
X069681Y0311477D01*
X0698067Y0313115D01*
X0699099Y0314902D01*
X0699889Y031681D01*
X0700423Y0318804D01*
X0700693Y032085D01*
X0700693Y0321883D01*
X0700693Y0321883D01*
X0700693Y0321883D01*
X0700693Y0322915D01*
X0700423Y0324961D01*
X0699889Y0326955D01*
X0699099Y0328863D01*
X0698067Y033065D01*
X069681Y0332288D01*
X0695351Y0333748D01*
X0693713Y0335005D01*
X0691925Y0336037D01*
X0690018Y0336827D01*
X0688024Y0337361D01*
X0685977Y0337631D01*
D02*
G37*
G36*
X0532099D02*
X0531067Y0337631D01*
X0531067Y0337631D01*
X0530034Y0337631D01*
X0527988Y0337361D01*
X0525994Y0336827D01*
X0524087Y0336037D01*
X0522299Y0335005D01*
X0520661Y0333748D01*
X0519202Y0332288D01*
X0517945Y033065D01*
X0516913Y0328863D01*
X0516123Y0326956D01*
X0515589Y0324962D01*
X0515319Y0322915D01*
X0515319Y0321883D01*
X0515319Y0321883D01*
X0515319Y0320851D01*
X0515588Y0318804D01*
X0516123Y031681D01*
X0516913Y0314903D01*
X0517945Y0313115D01*
X0519202Y0311477D01*
X0520661Y0310017D01*
X0522299Y030876D01*
X0524087Y0307728D01*
X0525994Y0306938D01*
X0527988Y0306404D01*
X0530035Y0306135D01*
X0531067D01*
X0532099Y0306135D01*
X0534146Y0306404D01*
X053614Y0306938D01*
X0538047Y0307728D01*
X0539835Y030876D01*
X0541473Y0310017D01*
X0542932Y0311477D01*
X0544189Y0313115D01*
X0545221Y0314902D01*
X0546011Y031681D01*
X0546545Y0318804D01*
X0546815Y032085D01*
X0546815Y0321883D01*
X0546815Y0321883D01*
X0546815Y0321883D01*
X0546815Y0322915D01*
X0546545Y0324961D01*
X0546011Y0326955D01*
X0545221Y0328863D01*
X0544189Y033065D01*
X0542932Y0332288D01*
X0541472Y0333748D01*
X0539835Y0335005D01*
X0538047Y0336037D01*
X053614Y0336827D01*
X0534146Y0337361D01*
X0532099Y0337631D01*
D02*
G37*
G36*
X06213Y03346D02*
X06155D01*
Y03283D01*
X06213D01*
Y03346D01*
D02*
G37*
G36*
X06145D02*
X06087D01*
Y03283D01*
X06145D01*
Y03346D01*
D02*
G37*
G36*
X06213Y03273D02*
X06155D01*
Y0321D01*
X06213D01*
Y03273D01*
D02*
G37*
G36*
X06145D02*
X06087D01*
Y0321D01*
X06145D01*
Y03273D01*
D02*
G37*
G36*
X0635Y0334618D02*
X0633768Y0334496D01*
X0632582Y0334137D01*
X063149Y0333553D01*
X0630533Y0332767D01*
X0629747Y033181D01*
X0629163Y0330718D01*
X0628804Y0329533D01*
X0628682Y03283D01*
Y03273D01*
X0628804Y0326067D01*
X0629163Y0324882D01*
X0629747Y032379D01*
X0630533Y0322833D01*
X063149Y0322047D01*
X0632582Y0321463D01*
X0633768Y0321104D01*
X0635Y0320982D01*
X0636233Y0321104D01*
X0637418Y0321463D01*
X063851Y0322047D01*
X0639467Y0322833D01*
X0640253Y032379D01*
X0640837Y0324882D01*
X0641196Y0326067D01*
X0641318Y03273D01*
Y03283D01*
X0641196Y0329533D01*
X0640837Y0330718D01*
X0640253Y033181D01*
X0639467Y0332767D01*
X063851Y0333553D01*
X0637418Y0334137D01*
X0636233Y0334496D01*
X0635Y0334618D01*
D02*
G37*
%LPD*%
G36*
X0667329Y0464711D02*
X0667416Y0464656D01*
X0667512Y0464608D01*
X0667619Y0464566D01*
X0667736Y046453D01*
X0667863Y0464501D01*
X0668Y0464479D01*
X0668147Y0464463D01*
X0668471Y046445D01*
X0668579Y046295D01*
X0668413Y0462946D01*
X0668111Y0462916D01*
X0667977Y0462889D01*
X0667852Y0462855D01*
X0667739Y0462814D01*
X0667636Y0462764D01*
X0667544Y0462708D01*
X0667463Y0462643D01*
X0667392Y0462571D01*
X0667252Y0464772D01*
X0667329Y0464711D01*
D02*
G37*
G36*
X0668199Y0454235D02*
X0668283Y0454176D01*
X0668378Y0454123D01*
X0668483Y0454077D01*
X0668599Y0454038D01*
X0668724Y0454006D01*
X066886Y0453982D01*
X0669006Y0453964D01*
X0669163Y0453954D01*
X066933Y045395D01*
Y045245D01*
X0669163Y0452447D01*
X066886Y0452418D01*
X0668724Y0452394D01*
X0668599Y0452362D01*
X0668483Y0452323D01*
X0668378Y0452277D01*
X0668283Y0452224D01*
X0668199Y0452165D01*
X0668125Y0452098D01*
Y0454302D01*
X0668199Y0454235D01*
D02*
G37*
G36*
X0581178Y0448017D02*
X0581062Y0447896D01*
X0580868Y0447663D01*
X0580789Y0447549D01*
X0580723Y0447438D01*
X0580669Y0447329D01*
X0580627Y0447222D01*
X0580597Y0447118D01*
X058058Y0447016D01*
X0580575Y0446916D01*
X0579016Y0448475D01*
X0579116Y044848D01*
X0579218Y0448497D01*
X0579322Y0448527D01*
X0579429Y0448569D01*
X0579538Y0448623D01*
X0579649Y0448689D01*
X0579763Y0448768D01*
X0579878Y0448859D01*
X0579996Y0448962D01*
X0580117Y0449078D01*
X0581178Y0448017D01*
D02*
G37*
G36*
X0681639Y0447775D02*
X0681687Y04471D01*
X0681716Y0446935D01*
X0681751Y04468D01*
X0681793Y0446695D01*
X0681841Y044662D01*
X0681895Y0446575D01*
X0681956Y044656D01*
X0679815D01*
X0679876Y0446575D01*
X067993Y044662D01*
X0679978Y0446695D01*
X068002Y04468D01*
X0680055Y0446935D01*
X0680084Y04471D01*
X0680107Y0447295D01*
X0680132Y0447775D01*
X0680135Y044806D01*
X0681635D01*
X0681639Y0447775D01*
D02*
G37*
G36*
X067593D02*
X0675978Y04471D01*
X0676007Y0446935D01*
X0676042Y04468D01*
X0676084Y0446695D01*
X0676132Y044662D01*
X0676187Y0446575D01*
X0676247Y044656D01*
X0674106D01*
X0674167Y0446575D01*
X0674222Y044662D01*
X067427Y0446695D01*
X0674311Y04468D01*
X0674347Y0446935D01*
X0674375Y04471D01*
X0674398Y0447295D01*
X0674424Y0447775D01*
X0674427Y044806D01*
X0675927D01*
X067593Y0447775D01*
D02*
G37*
G36*
X0676176Y0443028D02*
X0676112Y0442991D01*
X0676055Y0442931D01*
X0676006Y0442845D01*
X0675964Y0442735D01*
X0675931Y0442601D01*
X0675904Y0442443D01*
X0675885Y044226D01*
X067587Y044182D01*
X067437D01*
X0674368Y0442052D01*
X0674328Y0442601D01*
X0674304Y0442735D01*
X0674275Y0442845D01*
X0674241Y0442931D01*
X0674201Y0442991D01*
X0674156Y0443028D01*
X0674106Y044304D01*
X0676247D01*
X0676176Y0443028D01*
D02*
G37*
G36*
X0681895Y0443027D02*
X0681841Y0442987D01*
X0681793Y0442921D01*
X0681751Y0442828D01*
X0681716Y0442709D01*
X0681687Y0442563D01*
X0681664Y0442391D01*
X0681639Y0441966D01*
X0681635Y0441715D01*
X0680135D01*
X0680132Y0441966D01*
X0680084Y0442563D01*
X0680055Y0442709D01*
X068002Y0442828D01*
X0679978Y0442921D01*
X067993Y0442987D01*
X0679876Y0443027D01*
X0679815Y044304D01*
X0681956D01*
X0681895Y0443027D01*
D02*
G37*
G36*
X0682356Y044049D02*
X0682404Y044001D01*
X0682446Y0439815D01*
X06825Y043965D01*
X0682566Y0439515D01*
X0682645Y043941D01*
X0682735Y0439335D01*
X0682837Y043929D01*
X0682951Y0439275D01*
X0680613D01*
X0680658Y043929D01*
X0680698Y0439335D01*
X0680734Y043941D01*
X0680765Y0439515D01*
X0680791Y043965D01*
X0680812Y0439815D01*
X068084Y0440235D01*
X068085Y0440775D01*
X068235D01*
X0682356Y044049D01*
D02*
G37*
G36*
X0675054D02*
X0675088Y044001D01*
X0675117Y0439815D01*
X0675155Y043965D01*
X0675201Y0439515D01*
X0675256Y043941D01*
X0675319Y0439335D01*
X0675391Y043929D01*
X0675471Y0439275D01*
X0673133D01*
X0673212Y043929D01*
X0673283Y0439335D01*
X0673345Y043941D01*
X06734Y0439515D01*
X0673446Y043965D01*
X0673483Y0439815D01*
X0673512Y044001D01*
X0673533Y0440235D01*
X067355Y0440775D01*
X067505D01*
X0675054Y044049D01*
D02*
G37*
G36*
X0556399Y0438235D02*
X0556483Y0438175D01*
X0556578Y0438123D01*
X0556683Y0438077D01*
X0556799Y0438038D01*
X0556924Y0438006D01*
X055706Y0437982D01*
X0557206Y0437964D01*
X0557363Y0437954D01*
X055753Y043795D01*
Y043645D01*
X0557363Y0436447D01*
X055706Y0436418D01*
X0556924Y0436394D01*
X0556799Y0436362D01*
X0556683Y0436323D01*
X0556578Y0436277D01*
X0556483Y0436225D01*
X0556399Y0436165D01*
X0556325Y0436098D01*
Y0438302D01*
X0556399Y0438235D01*
D02*
G37*
G36*
X0687535Y0427901D02*
X0687475Y0427817D01*
X0687423Y0427722D01*
X0687377Y0427617D01*
X0687338Y0427501D01*
X0687306Y0427376D01*
X0687282Y042724D01*
X0687264Y0427094D01*
X0687254Y0426937D01*
X068725Y042677D01*
X068575D01*
X0685746Y0426937D01*
X0685718Y042724D01*
X0685694Y0427376D01*
X0685662Y0427501D01*
X0685623Y0427617D01*
X0685577Y0427722D01*
X0685525Y0427817D01*
X0685465Y0427901D01*
X0685398Y0427975D01*
X0687602D01*
X0687535Y0427901D01*
D02*
G37*
G36*
X0679844Y0417801D02*
X0679889Y0417747D01*
X0679964Y0417698D01*
X0680069Y0417657D01*
X0680204Y0417622D01*
X0680369Y0417593D01*
X0680564Y041757D01*
X0681044Y0417545D01*
X0681329Y0417541D01*
Y0416041D01*
X0681044Y0416038D01*
X0680369Y041599D01*
X0680204Y0415961D01*
X0680069Y0415926D01*
X0679964Y0415884D01*
X0679889Y0415836D01*
X0679844Y0415782D01*
X0679829Y0415721D01*
Y0417862D01*
X0679844Y0417801D01*
D02*
G37*
G36*
X0675947Y0408975D02*
X0676003Y04083D01*
X0676037Y0408135D01*
X0676078Y0408D01*
X0676126Y0407895D01*
X0676182Y040782D01*
X0676245Y0407775D01*
X0676316Y040776D01*
X0674175D01*
X0674226Y0407775D01*
X0674272Y040782D01*
X0674312Y0407895D01*
X0674347Y0408D01*
X0674376Y0408135D01*
X06744Y04083D01*
X0674433Y040872D01*
X0674443Y040926D01*
X0675943D01*
X0675947Y0408975D01*
D02*
G37*
G36*
X0676266Y0404225D02*
X0676221Y040418D01*
X0676181Y0404105D01*
X0676146Y0404D01*
X0676117Y0403865D01*
X0676093Y04037D01*
X0676061Y040328D01*
X067605Y040274D01*
X067455D01*
X0674546Y0403025D01*
X067449Y04037D01*
X0674456Y0403865D01*
X0674415Y0404D01*
X0674366Y0404105D01*
X067431Y040418D01*
X0674246Y0404225D01*
X0674175Y040424D01*
X0676316D01*
X0676266Y0404225D01*
D02*
G37*
G36*
X0675054Y0400427D02*
X0675089Y0399947D01*
X067512Y0399752D01*
X0675159Y0399587D01*
X0675207Y0399452D01*
X0675264Y0399347D01*
X067533Y0399272D01*
X0675404Y0399227D01*
X0675487Y0399212D01*
X0673149D01*
X0673225Y0399227D01*
X0673293Y0399272D01*
X0673353Y0399347D01*
X0673406Y0399452D01*
X067345Y0399587D01*
X0673486Y0399752D01*
X0673514Y0399947D01*
X0673534Y0400172D01*
X067355Y0400712D01*
X067505D01*
X0675054Y0400427D01*
D02*
G37*
G36*
X067915Y038741D02*
X0679081Y0387365D01*
X0679021Y038729D01*
X0678968Y0387185D01*
X0678924Y038705D01*
X0678887Y0386885D01*
X0678871Y0386774D01*
X0678882Y038671D01*
X0678957Y0386485D01*
X0679062Y038629D01*
X0679197Y0386125D01*
X0679362Y038599D01*
X0679557Y0385885D01*
X0679782Y038581D01*
X0680037Y0385765D01*
X0680322Y038575D01*
Y038425D01*
X0680037Y0384235D01*
X0679782Y038419D01*
X0679557Y0384115D01*
X0679362Y038401D01*
X0679197Y0383875D01*
X0679062Y038371D01*
X0678982Y038356D01*
X067901Y0383491D01*
X0679092Y0383355D01*
X067919Y0383249D01*
X0679302Y0383173D01*
X067943Y0383128D01*
X0679572Y0383113D01*
X0678851D01*
X0678837Y0383035D01*
X0678822Y038275D01*
X067858Y0383113D01*
X0676572D01*
X0676715Y0383128D01*
X0676842Y0383173D01*
X0676955Y0383249D01*
X0677052Y0383355D01*
X0677135Y0383491D01*
X0677202Y0383657D01*
X0677255Y0383854D01*
X0677292Y0384081D01*
X0677315Y0384338D01*
X0677322Y0384625D01*
X0677572D01*
X0677322Y0385D01*
X0677939Y0385925D01*
X0677322D01*
X0677318Y038621D01*
X0677283Y038669D01*
X0677253Y0386885D01*
X0677214Y038705D01*
X0677166Y0387185D01*
X067711Y038729D01*
X0677045Y0387365D01*
X0676971Y038741D01*
X0676889Y0387425D01*
X0679227D01*
X067915Y038741D01*
D02*
G37*
G36*
X0635455Y0450812D02*
X0635373Y0450847D01*
X0635286Y0450865D01*
X0635195Y0450866D01*
X0635099Y045085D01*
X0634999Y0450818D01*
X0634895Y0450769D01*
X0634786Y0450703D01*
X0634672Y045062D01*
X0634554Y0450521D01*
X0634432Y0450405D01*
X0633498Y0451593D01*
X0634777Y0452875D01*
X0635455Y0450812D01*
D02*
G37*
G36*
X0621764Y0452174D02*
X062185Y0452117D01*
X0621945Y0452066D01*
X0622052Y0452023D01*
X0622168Y0451985D01*
X0622294Y0451955D01*
X0622431Y0451931D01*
X0622577Y0451915D01*
X0622901Y0451901D01*
X0622956Y0450401D01*
X0622789Y0450397D01*
X0622487Y0450368D01*
X0622352Y0450343D01*
X0622227Y045031D01*
X0622113Y0450269D01*
X0622009Y0450222D01*
X0621915Y0450167D01*
X0621832Y0450104D01*
X062176Y0450035D01*
X0621688Y0452238D01*
X0621764Y0452174D01*
D02*
G37*
G36*
X06578Y0446398D02*
X0657726Y0446465D01*
X0657641Y0446524D01*
X0657547Y0446577D01*
X0657442Y0446623D01*
X0657326Y0446662D01*
X0657201Y0446694D01*
X0657065Y0446718D01*
X0656918Y0446736D01*
X0656762Y0446746D01*
X0656595Y044675D01*
Y044825D01*
X0656762Y0448253D01*
X0657065Y0448282D01*
X0657201Y0448306D01*
X0657326Y0448338D01*
X0657442Y0448377D01*
X0657547Y0448423D01*
X0657641Y0448476D01*
X0657726Y0448535D01*
X06578Y0448602D01*
Y0446398D01*
D02*
G37*
G36*
X0637753Y0440463D02*
X0637782Y044016D01*
X0637806Y0440024D01*
X0637838Y0439899D01*
X0637877Y0439783D01*
X0637923Y0439678D01*
X0637976Y0439583D01*
X0638035Y0439499D01*
X0638102Y0439425D01*
X0635898D01*
X0635965Y0439499D01*
X0636025Y0439583D01*
X0636077Y0439678D01*
X0636123Y0439783D01*
X0636162Y0439899D01*
X0636194Y0440024D01*
X0636218Y044016D01*
X0636236Y0440306D01*
X0636246Y0440463D01*
X063625Y044063D01*
X063775D01*
X0637753Y0440463D01*
D02*
G37*
G36*
X065666Y0432235D02*
X0657335Y043156D01*
X06577Y0430677D01*
Y04302D01*
Y03873D01*
X0657738Y038691D01*
X0658037Y0386189D01*
X0658589Y0385637D01*
X065931Y0385338D01*
X06597Y03853D01*
X0660173D01*
X06611Y0385116D01*
X0661974Y0384754D01*
X066276Y0384228D01*
X0663428Y038356D01*
X0663954Y0382774D01*
X0664316Y03819D01*
X06645Y0380973D01*
Y03704D01*
Y0369415D01*
X0664116Y0367483D01*
X0663362Y0365663D01*
X0662267Y0364025D01*
X0660875Y0362632D01*
X0659237Y0361538D01*
X0657417Y0360784D01*
X0655485Y03604D01*
X0624936D01*
X0624221Y0360542D01*
X0623547Y0360821D01*
X0622941Y0361226D01*
X0622426Y0361741D01*
X0622021Y0362347D01*
X0621742Y0363021D01*
X06216Y0363736D01*
Y03641D01*
X062158Y0364512D01*
X0621419Y0365319D01*
X0621104Y036608D01*
X0620647Y0366764D01*
X0620064Y0367347D01*
X061938Y0367804D01*
X0618619Y0368119D01*
X0617812Y036828D01*
X06174Y03683D01*
X0570515D01*
X0568583Y0368684D01*
X0566763Y0369438D01*
X0565125Y0370532D01*
X0563732Y0371925D01*
X0562638Y0373563D01*
X0561884Y0375383D01*
X05615Y0377315D01*
Y03783D01*
Y04261D01*
Y0426386D01*
X0561611Y0426946D01*
X056183Y0427474D01*
X0562147Y0427949D01*
X0562551Y0428353D01*
X0563026Y042867D01*
X0563554Y0428889D01*
X0564114Y0429D01*
X0571178D01*
X0571876Y0428711D01*
X0572411Y0428176D01*
X05727Y0427478D01*
Y04271D01*
Y03954D01*
X0572748Y039442D01*
X0573131Y0392497D01*
X0573881Y0390686D01*
X057497Y0389056D01*
X0576356Y038767D01*
X0577986Y0386581D01*
X0579797Y0385831D01*
X058172Y0385448D01*
X05827Y03854D01*
X06361D01*
X0636737Y0385431D01*
X0637987Y038568D01*
X0639164Y0386168D01*
X0640224Y0386875D01*
X0641125Y0387776D01*
X0641832Y0388836D01*
X064232Y0390013D01*
X0642569Y0391263D01*
X06426Y03919D01*
Y04252D01*
Y0425628D01*
X0642767Y0426468D01*
X0643095Y0427258D01*
X064357Y042797D01*
X0643873Y0428273D01*
X06467Y04311D01*
X06467D01*
X06467Y04311D01*
X0647057Y0431457D01*
X0647895Y0432017D01*
X0648828Y0432403D01*
X0649817Y04326D01*
X0655777D01*
X065666Y0432235D01*
D02*
G37*
G36*
X0637354Y0430763D02*
X0637382Y043046D01*
X0637406Y0430324D01*
X0637438Y0430199D01*
X0637477Y0430083D01*
X0637523Y0429978D01*
X0637575Y0429883D01*
X0637635Y0429799D01*
X0637702Y0429725D01*
X0635995D01*
X0635054Y04283D01*
X0635032Y0428386D01*
X0635Y0428476D01*
X0634957Y042857D01*
X0634903Y0428667D01*
X0634839Y0428769D01*
X0634764Y0428874D01*
X0634583Y0429097D01*
X0634476Y0429214D01*
X0634359Y0429334D01*
X0635169Y0430646D01*
X063529Y0430531D01*
X0635408Y043043D01*
X0635524Y0430343D01*
X0635638Y0430271D01*
X0635749Y0430213D01*
X0635764Y0430208D01*
X0635794Y0430324D01*
X0635818Y043046D01*
X0635836Y0430606D01*
X0635847Y0430763D01*
X063585Y043093D01*
X063735D01*
X0637354Y0430763D01*
D02*
G37*
G36*
X0578703Y0430262D02*
X0578937Y0430068D01*
X0579051Y0429989D01*
X0579162Y0429923D01*
X0579271Y0429869D01*
X0579378Y0429827D01*
X0579482Y0429797D01*
X0579584Y042978D01*
X0579684Y0429775D01*
X0578125Y0428216D01*
X057812Y0428316D01*
X0578103Y0428418D01*
X0578073Y0428522D01*
X0578031Y0428629D01*
X0577977Y0428738D01*
X0577911Y0428849D01*
X0577832Y0428963D01*
X0577741Y0429078D01*
X0577638Y0429197D01*
X0577522Y0429317D01*
X0578583Y0430378D01*
X0578703Y0430262D01*
D02*
G37*
G36*
X0677795Y0427488D02*
X0679211D01*
X0679134Y0427473D01*
X0679065Y0427428D01*
X0679004Y0427353D01*
X0678952Y0427248D01*
X0678907Y0427113D01*
X067887Y0426948D01*
X0678842Y0426753D01*
X0678822Y0426528D01*
X0678806Y0425988D01*
X0678795D01*
X0678806Y0425972D01*
X0678204Y0425071D01*
X0678806D01*
X0678813Y0424783D01*
X0678836Y0424526D01*
X0678873Y0424299D01*
X0678926Y0424103D01*
X0678993Y0423937D01*
X0679076Y0423801D01*
X0679173Y0423695D01*
X0679286Y0423619D01*
X0679413Y0423574D01*
X0679556Y0423559D01*
X0676556D01*
X0676698Y0423574D01*
X0676826Y0423619D01*
X0676938Y0423695D01*
X0677036Y0423801D01*
X0677118Y0423937D01*
X0677186Y0424103D01*
X0677236Y0424291D01*
X0677171Y0424487D01*
X0677066Y0424682D01*
X0676931Y0424847D01*
X0676766Y0424982D01*
X0676571Y0425087D01*
X0676346Y0425162D01*
X0676091Y0425207D01*
X0675806Y0425222D01*
Y0426722D01*
X0676091Y0426737D01*
X0676346Y0426782D01*
X0676571Y0426857D01*
X0676766Y0426962D01*
X0676931Y0427097D01*
X0677066Y0427262D01*
X0677104Y0427334D01*
X0677094Y0427353D01*
X0677029Y0427428D01*
X0676955Y0427473D01*
X0676873Y0427488D01*
X0677181D01*
X0677246Y0427682D01*
X0677291Y0427937D01*
X0677306Y0428222D01*
X0677795Y0427488D01*
D02*
G37*
G36*
X0546165Y0426421D02*
X054621Y0426166D01*
X0546244Y0426063D01*
X0546569D01*
X0546489Y0426048D01*
X0546418Y0426003D01*
X0546355Y0425928D01*
X0546324Y0425868D01*
X054639Y0425746D01*
X0546525Y0425581D01*
X054669Y0425446D01*
X0546885Y0425341D01*
X054711Y0425266D01*
X0547365Y0425221D01*
X054765Y0425206D01*
Y0423706D01*
X0547365Y0423691D01*
X054711Y0423646D01*
X0546885Y0423571D01*
X054669Y0423466D01*
X0546525Y0423331D01*
X054639Y0423166D01*
X0546285Y0422971D01*
X0546249Y0422863D01*
X054627Y0422784D01*
X0546337Y0422618D01*
X054642Y0422482D01*
X0546517Y0422376D01*
X054663Y04223D01*
X0546757Y0422255D01*
X05469Y042224D01*
X0546151D01*
X054615Y0422206D01*
X0546127Y042224D01*
X05439D01*
X0544042Y0422255D01*
X054417Y04223D01*
X0544282Y0422376D01*
X054438Y0422482D01*
X0544462Y0422618D01*
X054453Y0422784D01*
X0544582Y0422981D01*
X054462Y0423207D01*
X0544642Y0423464D01*
X054465Y0423752D01*
X0545119D01*
X054465Y0424456D01*
X0544721Y0424563D01*
X054465D01*
X0544645Y0424848D01*
X0544612Y0425328D01*
X0544583Y0425523D01*
X0544545Y0425688D01*
X0544499Y0425823D01*
X0544444Y0425928D01*
X0544381Y0426003D01*
X054431Y0426048D01*
X0544231Y0426063D01*
X0545721D01*
X054615Y0426706D01*
X0546165Y0426421D01*
D02*
G37*
G36*
X0662454Y0420863D02*
X0662482Y042056D01*
X0662506Y0420424D01*
X0662538Y0420299D01*
X0662577Y0420183D01*
X0662623Y0420078D01*
X0662676Y0419983D01*
X0662735Y0419899D01*
X0662802Y0419825D01*
X0660598D01*
X0660665Y0419899D01*
X0660724Y0419983D01*
X0660777Y0420078D01*
X0660823Y0420183D01*
X0660862Y0420299D01*
X0660894Y0420424D01*
X0660918Y042056D01*
X0660936Y0420706D01*
X0660947Y0420863D01*
X066095Y042103D01*
X066245D01*
X0662454Y0420863D01*
D02*
G37*
G36*
X054364Y0414402D02*
X0543625Y0414463D01*
X054358Y0414517D01*
X0543505Y0414565D01*
X05434Y0414607D01*
X0543265Y0414642D01*
X05431Y0414671D01*
X0542905Y0414694D01*
X0542425Y0414719D01*
X054214Y0414722D01*
Y0416222D01*
X0542425Y0416226D01*
X05431Y0416274D01*
X0543265Y0416303D01*
X05434Y0416338D01*
X0543505Y041638D01*
X054358Y0416428D01*
X0543625Y0416482D01*
X054364Y0416543D01*
Y0414402D01*
D02*
G37*
G36*
X0550454Y0412063D02*
X0550482Y041176D01*
X0550506Y0411624D01*
X0550538Y0411499D01*
X0550577Y0411383D01*
X0550623Y0411278D01*
X0550675Y0411183D01*
X0550735Y0411099D01*
X0550802Y0411025D01*
X0548598D01*
X0548665Y0411099D01*
X0548725Y0411183D01*
X0548777Y0411278D01*
X0548823Y0411383D01*
X0548862Y0411499D01*
X0548894Y0411624D01*
X0548918Y041176D01*
X0548936Y0411906D01*
X0548947Y0412063D01*
X054895Y041223D01*
X055045D01*
X0550454Y0412063D01*
D02*
G37*
G36*
X054605Y03722D02*
X054355Y036895D01*
X0543535Y0369425D01*
X054349Y036985D01*
X0543415Y0370225D01*
X054331Y037055D01*
X0543175Y0370825D01*
X054301Y037105D01*
X0542815Y0371225D01*
X054259Y037135D01*
X0542335Y0371425D01*
X0542199Y0371437D01*
X05416Y037145D01*
Y037295D01*
X0542012Y0372952D01*
X0542273Y037297D01*
X0542335Y0372975D01*
X054259Y037305D01*
X0542815Y0373175D01*
X054301Y037335D01*
X0543175Y0373575D01*
X054331Y037385D01*
X0543415Y0374175D01*
X054349Y037455D01*
X0543535Y0374975D01*
X054355Y037545D01*
X054605Y03722D01*
D02*
G37*
G36*
X0554299Y0369035D02*
X0554383Y0368975D01*
X0554478Y0368923D01*
X0554583Y0368877D01*
X0554699Y0368838D01*
X0554824Y0368806D01*
X055496Y0368782D01*
X0555106Y0368764D01*
X0555263Y0368754D01*
X055543Y036875D01*
Y036725D01*
X0555263Y0367247D01*
X055496Y0367218D01*
X0554824Y0367194D01*
X0554699Y0367162D01*
X0554583Y0367123D01*
X0554478Y0367077D01*
X0554383Y0367024D01*
X0554299Y0366965D01*
X0554225Y0366898D01*
Y0369102D01*
X0554299Y0369035D01*
D02*
G37*
G36*
X062495Y0444762D02*
X0625605Y044449D01*
X0626195Y0444096D01*
X0626696Y0443595D01*
X062709Y0443005D01*
X0627362Y044235D01*
X06275Y0441655D01*
Y04413D01*
Y03997D01*
Y0399434D01*
X0627396Y0398912D01*
X0627193Y0398421D01*
X0626897Y0397979D01*
X0626521Y0397603D01*
X0626079Y0397307D01*
X0625588Y0397104D01*
X0625066Y0397D01*
X0594D01*
X059366Y0396975D01*
X0592984Y039706D01*
X0592337Y0397274D01*
X0591745Y0397611D01*
X0591229Y0398057D01*
X0590811Y0398594D01*
X0590506Y0399203D01*
X0590325Y039986D01*
X05903Y04002D01*
Y0411868D01*
X0590516Y0412279D01*
X0602358D01*
Y0424121D01*
X05908D01*
X05903Y0424532D01*
Y04413D01*
X05903Y04413D01*
X05903Y04413D01*
X0590327Y0441789D01*
X0590438Y044235D01*
X059071Y0443005D01*
X0591104Y0443595D01*
X0591605Y0444096D01*
X0592195Y044449D01*
X059285Y0444762D01*
X0593545Y04449D01*
X05939Y04449D01*
X06239Y04449D01*
X0624255D01*
X062495Y0444762D01*
D02*
G37*
G36*
X0531554Y0448763D02*
X0531582Y044846D01*
X0531606Y0448324D01*
X0531638Y0448199D01*
X0531677Y0448083D01*
X0531723Y0447978D01*
X0531776Y0447883D01*
X0531835Y0447799D01*
X0531902Y0447725D01*
X0529698D01*
X0529765Y0447799D01*
X0529824Y0447883D01*
X0529877Y0447978D01*
X0529923Y0448083D01*
X0529962Y0448199D01*
X0529994Y0448324D01*
X0530018Y044846D01*
X0530036Y0448606D01*
X0530047Y0448763D01*
X053005Y044893D01*
X053155D01*
X0531554Y0448763D01*
D02*
G37*
G36*
X0548667Y0446256D02*
X0548687Y0446001D01*
X054872Y0445776D01*
X0548765Y0445581D01*
X0548824Y0445416D01*
X0548896Y0445281D01*
X0548981Y0445176D01*
X0549079Y0445101D01*
X054919Y0445056D01*
X0549314Y0445041D01*
X0547173D01*
X0547161Y0446541D01*
X0548661D01*
X0548667Y0446256D01*
D02*
G37*
G36*
X0549264Y0441509D02*
X0549219Y0441473D01*
X0549179Y0441412D01*
X0549145Y0441326D01*
X0549116Y0441216D01*
X0549092Y0441082D01*
X0549073Y0440923D01*
X0549052Y0440533D01*
X0549049Y0440301D01*
X0547549D01*
X0547545Y0440533D01*
X0547515Y0440923D01*
X0547489Y0441082D01*
X0547455Y0441216D01*
X0547414Y0441326D01*
X0547365Y0441412D01*
X0547308Y0441473D01*
X0547244Y0441509D01*
X0547173Y0441521D01*
X0549314D01*
X0549264Y0441509D01*
D02*
G37*
G36*
X0549894Y0439065D02*
X0549928Y0438585D01*
X0549957Y043839D01*
X0549995Y0438225D01*
X0550041Y043809D01*
X0550095Y0437985D01*
X0550158Y043791D01*
X0550229Y0437865D01*
X0550309Y043785D01*
X0547971D01*
X054805Y0437865D01*
X0548122Y043791D01*
X0548184Y0437985D01*
X0548239Y043809D01*
X0548285Y0438225D01*
X0548323Y043839D01*
X0548352Y0438585D01*
X0548373Y043881D01*
X054839Y043935D01*
X054989D01*
X0549894Y0439065D01*
D02*
G37*
G36*
X0541464Y0441781D02*
X0541449Y0441924D01*
X0541404Y0442051D01*
X0541329Y0442164D01*
X0541224Y0442261D01*
X0541089Y0442344D01*
X0540924Y0442411D01*
X0540729Y0442464D01*
X0540504Y0442501D01*
X0540249Y0442524D01*
X0539964Y0442531D01*
Y0444031D01*
X0540249Y0444039D01*
X0540504Y0444061D01*
X0540729Y0444099D01*
X0540924Y0444151D01*
X0541089Y0444219D01*
X0541224Y0444301D01*
X0541329Y0444399D01*
X0541404Y0444511D01*
X0541449Y0444639D01*
X0541464Y0444781D01*
Y0441781D01*
D02*
G37*
G36*
X0543538Y0441508D02*
X0543477Y0441469D01*
X0543424Y0441402D01*
X0543378Y044131D01*
X0543339Y0441191D01*
X0543307Y0441046D01*
X0543282Y0440874D01*
X0543264Y0440676D01*
X054325Y04402D01*
X054175D01*
X0541747Y0440451D01*
X0541704Y0441046D01*
X0541678Y0441191D01*
X0541647Y044131D01*
X054161Y0441402D01*
X0541567Y0441469D01*
X0541518Y0441508D01*
X0541464Y0441521D01*
X0543605D01*
X0543538Y0441508D01*
D02*
G37*
G36*
X0542414Y0439065D02*
X0542447Y0438585D01*
X0542477Y043839D01*
X0542514Y0438225D01*
X054256Y043809D01*
X0542615Y0437985D01*
X0542678Y043791D01*
X0542749Y0437865D01*
X0542829Y043785D01*
X054049D01*
X054057Y0437865D01*
X0540641Y043791D01*
X0540704Y0437985D01*
X0540759Y043809D01*
X0540805Y0438225D01*
X0540842Y043839D01*
X0540872Y0438585D01*
X0540893Y043881D01*
X0540909Y043935D01*
X054241D01*
X0542414Y0439065D01*
D02*
G37*
G36*
X0665635Y0406201D02*
X0665576Y0406117D01*
X0665523Y0406022D01*
X0665477Y0405917D01*
X0665438Y0405801D01*
X0665406Y0405676D01*
X0665382Y040554D01*
X0665364Y0405394D01*
X0665353Y0405237D01*
X066535Y040507D01*
X066385D01*
X0663846Y0405237D01*
X0663818Y040554D01*
X0663794Y0405676D01*
X0663762Y0405801D01*
X0663723Y0405917D01*
X0663677Y0406022D01*
X0663624Y0406117D01*
X0663565Y0406201D01*
X0663498Y0406275D01*
X0665702D01*
X0665635Y0406201D01*
D02*
G37*
G36*
X0524135Y0385301D02*
X0524076Y0385217D01*
X0524023Y0385122D01*
X0523977Y0385017D01*
X0523938Y0384901D01*
X0523906Y0384776D01*
X0523882Y038464D01*
X0523864Y0384494D01*
X0523853Y0384337D01*
X052385Y038417D01*
X052235D01*
X0522346Y0384337D01*
X0522318Y038464D01*
X0522294Y0384776D01*
X0522262Y0384901D01*
X0522223Y0385017D01*
X0522177Y0385122D01*
X0522124Y0385217D01*
X0522065Y0385301D01*
X0521998Y0385375D01*
X0524202D01*
X0524135Y0385301D01*
D02*
G37*
G36*
X067624Y0375275D02*
X0676225Y0375364D01*
X067618Y0375443D01*
X0676105Y0375513D01*
X0676Y0375573D01*
X0675865Y0375625D01*
X06757Y0375667D01*
X0675505Y0375699D01*
X067528Y0375723D01*
X067474Y0375741D01*
Y0377241D01*
X0675025Y0377243D01*
X0676Y0377304D01*
X0676105Y0377327D01*
X067618Y0377353D01*
X0676225Y0377383D01*
X067624Y0377416D01*
Y0375275D01*
D02*
G37*
G36*
X0669765Y0378456D02*
X066981Y0378201D01*
X0669885Y0377976D01*
X066999Y0377781D01*
X0670125Y0377616D01*
X067029Y0377481D01*
X0670485Y0377376D01*
X067071Y0377301D01*
X0670965Y0377256D01*
X067125Y0377241D01*
Y0375741D01*
X0670965Y0375726D01*
X067071Y0375681D01*
X0670485Y0375606D01*
X067029Y0375501D01*
X0670125Y0375366D01*
X066999Y0375201D01*
X0669885Y0375006D01*
X066981Y0374781D01*
X0669765Y0374526D01*
X066975Y0374241D01*
X066825Y0376491D01*
X066975Y0378741D01*
X0669765Y0378456D01*
D02*
G37*
G36*
X0676484Y0366525D02*
X0676384Y036652D01*
X0676282Y0366503D01*
X0676178Y0366473D01*
X0676071Y0366431D01*
X0675962Y0366377D01*
X0675851Y0366311D01*
X0675737Y0366232D01*
X0675622Y0366141D01*
X0675503Y0366038D01*
X0675383Y0365922D01*
X0674322Y0366983D01*
X0674438Y0367104D01*
X0674632Y0367337D01*
X0674711Y0367451D01*
X0674777Y0367562D01*
X0674831Y0367671D01*
X0674873Y0367778D01*
X0674903Y0367882D01*
X067492Y0367984D01*
X0674925Y0368084D01*
X0676484Y0366525D01*
D02*
G37*
G36*
X0681935Y0404225D02*
X0681854Y040418D01*
X0681783Y0404105D01*
X0681721Y0404D01*
X0681669Y0403865D01*
X0681626Y04037D01*
X0681593Y0403505D01*
X0681569Y040328D01*
X068155Y040274D01*
X068005D01*
X0680048Y0403025D01*
X067999Y0404D01*
X0679969Y0404105D01*
X0679944Y040418D01*
X0679915Y0404225D01*
X0679884Y040424D01*
X0682025D01*
X0681935Y0404225D01*
D02*
G37*
G36*
X0682553Y0400427D02*
X0682586Y0399947D01*
X0682616Y0399752D01*
X0682653Y0399587D01*
X0682699Y0399452D01*
X0682754Y0399347D01*
X0682817Y0399272D01*
X0682888Y0399227D01*
X0682968Y0399212D01*
X0680629D01*
X0680709Y0399227D01*
X068078Y0399272D01*
X0680843Y0399347D01*
X0680898Y0399452D01*
X0680944Y0399587D01*
X0680981Y0399752D01*
X0681011Y0399947D01*
X0681032Y0400172D01*
X0681048Y0400712D01*
X0682548D01*
X0682553Y0400427D01*
D02*
G37*
D20*
X0605Y0364D02*
D03*
Y0374D02*
D03*
X05827Y0480737D02*
D03*
Y0490737D02*
D03*
X06345Y0480737D02*
D03*
Y0490737D02*
D03*
D21*
X0678Y0382054D02*
D03*
Y0376346D02*
D03*
X05454Y0415472D02*
D03*
Y0421181D02*
D03*
X067807Y0416791D02*
D03*
Y04225D02*
D03*
D57*
X0615Y0320715D02*
X0622915Y03128D01*
X0681Y03519D02*
X0684D01*
X06419Y03128D02*
X0681Y03519D01*
X0622915Y03128D02*
X06419D01*
X0615Y0320715D02*
Y03278D01*
D58*
X0595737Y04164D02*
X0597372Y0418035D01*
X0596772Y0418535D02*
X0602602D01*
X0596437Y04182D02*
X0596772Y0418535D01*
X0563Y0487D02*
X05667Y04907D01*
X05601Y04841D02*
X0563Y0487D01*
X0574118Y04909D02*
X0582537D01*
X05677Y04907D02*
X05679Y04909D01*
X0574118D01*
X05667Y04907D02*
X05677D01*
X05601Y0473D02*
X0566181Y0466919D01*
X05601Y0473D02*
Y04841D01*
X0566181Y0466919D02*
X0654019D01*
X06345Y0490737D02*
X0634763Y0491D01*
X0654D01*
X0658Y0487D01*
Y0482D02*
Y0487D01*
Y0472D02*
Y0477D01*
Y0482D01*
Y04709D02*
Y0472D01*
X0654019Y0466919D02*
X0658Y04709D01*
X0582537Y04909D02*
X05827Y0490737D01*
D59*
X05482Y03504D02*
X06588D01*
X05339Y0371D02*
X05487Y03562D01*
X05231Y03755D02*
X05482Y03504D01*
X06588D02*
X06765Y03681D01*
X0542202Y0442948D02*
X0542535Y0443281D01*
X0542202Y0442328D02*
Y0442948D01*
X06604Y03562D02*
X0669Y03648D01*
X05487Y03562D02*
X06604D01*
X05797Y04282D02*
Y04282D01*
X05759Y0432D02*
X05797Y04282D01*
X05589Y0432D02*
X05759D01*
X057995Y040805D02*
X05801Y04082D01*
X06389Y04248D02*
X06403Y04262D01*
X06337Y04248D02*
X06389D01*
X06309Y04276D02*
X06337Y04248D01*
X06309Y04276D02*
Y0448D01*
X0627749Y0451151D02*
X06309Y0448D01*
X0634534Y0430219D02*
X0636154Y04286D01*
X06336Y0431098D02*
X0634479Y0430219D01*
X0634534D01*
X06336Y0431098D02*
Y0450634D01*
X0634851Y0451884D01*
X0635884D01*
X0637Y04383D02*
Y04446D01*
X0636154Y04286D02*
X06366D01*
X0635884Y0451884D02*
X06362Y04522D01*
X06366Y04327D02*
X06456Y04417D01*
X06366Y04286D02*
Y04327D01*
X06403Y0433147D02*
X0645826Y0438674D01*
X06403Y04262D02*
Y0433147D01*
X0637Y04446D02*
X06399Y04475D01*
X0620651Y0451151D02*
X0627749D01*
X06206Y04511D02*
X0620651Y0451151D01*
X0645826Y0438674D02*
X0655574D01*
X06617Y0432547D01*
Y04187D02*
Y0432547D01*
X06456Y04417D02*
X06558D01*
X0671528Y0425972D01*
X06399Y04475D02*
X0658925D01*
X05549Y03872D02*
X0555Y03871D01*
X05798Y03888D02*
X057995Y038895D01*
X05495Y0424456D02*
X0551356D01*
X0575Y04372D02*
X05946Y04568D01*
X0551356Y0424456D02*
X05589Y0432D01*
X05552Y04372D02*
X0575D01*
X05531Y0368D02*
X0566D01*
X05678Y03698D01*
X0547911Y0443614D02*
Y0448789D01*
X05463Y04504D02*
X0547911Y0448789D01*
X0531679Y04504D02*
X05463D01*
X05308Y04466D02*
Y0449521D01*
X0531679Y04504D01*
X0537079Y0443281D02*
X0542202D01*
X05339Y0440102D02*
X0537079Y0443281D01*
X0542202Y0442328D02*
Y0443281D01*
X0547911Y0443614D02*
X0548299Y0443225D01*
X05339Y0371D02*
Y0440102D01*
X05425Y04402D02*
Y0442328D01*
X0541872Y0415472D02*
X05454D01*
X05416Y03722D02*
X05448D01*
X05399Y03739D02*
X05416Y03722D01*
X05399Y03739D02*
Y04135D01*
X0541872Y0415472D01*
X0669Y03648D02*
Y0376491D01*
X05231Y03755D02*
Y03865D01*
X0683691Y0416791D02*
X06865Y04196D01*
Y04291D01*
X067807Y0416791D02*
X0683691D01*
X06772Y0412D02*
X06859D01*
X06901Y04162D02*
Y04505D01*
X06859Y0412D02*
X06901Y04162D01*
X06808Y04598D02*
X06901Y04505D01*
X05919Y04598D02*
X06808D01*
X06935Y03959D02*
Y04535D01*
X06833Y04637D02*
X06935Y04535D01*
X06826Y0385D02*
X06935Y03959D01*
X06663Y04637D02*
X06833D01*
X05454Y0424456D02*
X05495D01*
X05497Y0424256D01*
Y04099D02*
Y0424256D01*
X06662Y04636D02*
X06663Y04637D01*
X0579Y04469D02*
X05919Y04598D01*
X0669Y0376491D02*
X0678086D01*
X0669D02*
Y03842D01*
X0541659Y043936D02*
X05425Y04402D01*
X0541659Y0435894D02*
Y043936D01*
X06646Y03886D02*
X0669Y03842D01*
X06646Y03886D02*
Y04074D01*
X0675193Y0409993D02*
X06772Y0412D01*
X0675193Y04047D02*
Y0409993D01*
X0673Y04568D02*
X0680885Y0448915D01*
X05946Y04568D02*
X0673D01*
X0667Y04532D02*
X06733D01*
X0681798Y0397255D02*
Y0401102D01*
X06808Y04021D02*
X0681798Y0401102D01*
X06808Y04021D02*
Y0404598D01*
X0680902Y04047D01*
X06743Y0397273D02*
Y0401179D01*
Y0397273D02*
X0674318Y0397255D01*
X06743Y0401179D02*
X06753Y0402179D01*
Y0404593D01*
X0675193Y04047D02*
X06753Y0404593D01*
X0678072Y0385D02*
Y0389367D01*
Y0382214D02*
Y0385D01*
X06826D01*
X0678058Y0389381D02*
X0678072Y0389367D01*
Y0382214D02*
X0678086Y03822D01*
X06733Y04532D02*
X0675177Y0451323D01*
Y04448D02*
Y0451323D01*
X0680885Y04448D02*
Y0448915D01*
Y0441715D02*
Y04448D01*
X067512Y044182D02*
Y0444743D01*
X0675177Y04448D01*
X06743Y0441D02*
X067512Y044182D01*
X06743Y043732D02*
Y0441D01*
X0680885Y0441715D02*
X06816Y0441D01*
Y0437501D02*
X0681782Y0437319D01*
X06816Y0437501D02*
Y0441D01*
X06743Y043732D02*
X0674302Y0437319D01*
X0678056Y0425972D02*
Y0429431D01*
Y0422514D02*
Y0425972D01*
X0671528D02*
X0678056D01*
X0678042Y0429445D02*
X0678056Y0429431D01*
Y0422514D02*
X067807Y04225D01*
X0548299Y0440301D02*
Y0443225D01*
Y0440301D02*
X054914Y043946D01*
Y0435894D02*
Y043946D01*
X05454Y0424456D02*
Y042802D01*
Y0421181D02*
Y0424456D01*
D60*
X0555Y03871D02*
X05551Y0387D01*
Y03756D02*
Y0387D01*
D61*
X057995Y038895D02*
Y040805D01*
X05484Y03638D02*
X05805D01*
X05448Y03674D02*
X05484Y03638D01*
X05448Y03674D02*
Y03722D01*
Y03755D01*
D63*
X0580689Y04182D02*
X0596437D01*
D64*
X0615Y03278D02*
D03*
X06192Y04813D02*
D03*
D65*
X0635Y03278D02*
D03*
X05992Y04813D02*
D03*
D67*
X0645Y0365D02*
D03*
X06765Y03681D02*
D03*
X0595Y033D02*
D03*
X059Y0335D02*
D03*
X0575Y033D02*
D03*
X0565D02*
D03*
X057Y0325D02*
D03*
X0585Y033D02*
D03*
X058Y0325D02*
D03*
X0585Y032D02*
D03*
X0575D02*
D03*
X058Y0315D02*
D03*
X057D02*
D03*
X061D02*
D03*
X052Y045D02*
D03*
X05797Y04282D02*
D03*
X05801Y04082D02*
D03*
X05573Y04485D02*
D03*
X05677Y04905D02*
D03*
X0563Y0487D02*
D03*
X0642Y0491D02*
D03*
X0658Y0482D02*
D03*
Y0472D02*
D03*
Y0477D02*
D03*
Y0487D02*
D03*
X0654019Y0466919D02*
D03*
X0574118Y04909D02*
D03*
X06Y0325D02*
D03*
Y0315D02*
D03*
X0695Y0375D02*
D03*
Y0365D02*
D03*
Y0355D02*
D03*
Y0345D02*
D03*
X0525D02*
D03*
X0535D02*
D03*
X055Y032D02*
D03*
Y033D02*
D03*
Y034D02*
D03*
X0545Y0345D02*
D03*
X0555D02*
D03*
Y0335D02*
D03*
X0545Y0315D02*
D03*
X0555Y0325D02*
D03*
Y0315D02*
D03*
X05551Y03756D02*
D03*
X0637Y04383D02*
D03*
X06366Y04286D02*
D03*
X06206Y04511D02*
D03*
X06617Y04187D02*
D03*
X0658925Y04475D02*
D03*
X0655Y0425D02*
D03*
Y043D02*
D03*
X05791Y04564D02*
D03*
X057Y04797D02*
D03*
X0628Y04803D02*
D03*
X0575Y048D02*
D03*
X057Y0475D02*
D03*
X0575D02*
D03*
X058D02*
D03*
X0585D02*
D03*
X059D02*
D03*
X0645D02*
D03*
Y048D02*
D03*
X063Y0475D02*
D03*
X0635D02*
D03*
X064D02*
D03*
Y048D02*
D03*
X0613Y0495D02*
D03*
X0618D02*
D03*
X0623D02*
D03*
Y049D02*
D03*
X0618D02*
D03*
X0613D02*
D03*
X059Y048D02*
D03*
X0595Y0495D02*
D03*
Y049D02*
D03*
X06D02*
D03*
Y0495D02*
D03*
X0605D02*
D03*
Y049D02*
D03*
X06362Y04522D02*
D03*
X05549Y03872D02*
D03*
X05798Y03888D02*
D03*
X05552Y04372D02*
D03*
X05531Y0368D02*
D03*
X05308Y04466D02*
D03*
X05448Y03755D02*
D03*
X05805Y03638D02*
D03*
X0684Y03519D02*
D03*
X05231Y03865D02*
D03*
X06865Y04291D02*
D03*
X05497Y04099D02*
D03*
X06662Y04636D02*
D03*
X064Y0365D02*
D03*
X0645Y037D02*
D03*
X0667Y04532D02*
D03*
X0579Y04469D02*
D03*
X0645Y0425D02*
D03*
X065Y043D02*
D03*
X06646Y04074D02*
D03*
X057Y04256D02*
D03*
Y04206D02*
D03*
X0565D02*
D03*
Y04256D02*
D03*
X065Y0425D02*
D03*
X062Y0375D02*
D03*
Y038D02*
D03*
X0645Y0375D02*
D03*
X065Y038D02*
D03*
X0645D02*
D03*
X064D02*
D03*
Y0375D02*
D03*
Y037D02*
D03*
X0615D02*
D03*
Y0375D02*
D03*
Y038D02*
D03*
X061D02*
D03*
X0595Y0375D02*
D03*
X059D02*
D03*
X0595Y038D02*
D03*
X059D02*
D03*
X06D02*
D03*
D68*
X0680614Y0470828D02*
D03*
X0695378Y047693D02*
D03*
X0689276Y0491694D02*
D03*
X0674512Y0485591D02*
D03*
X0695378D02*
D03*
X0680614Y0491694D02*
D03*
X0674512Y047693D02*
D03*
X0689276Y0470828D02*
D03*
Y031145D02*
D03*
X0674512Y0317552D02*
D03*
X0680614Y0332316D02*
D03*
X0695378Y0326213D02*
D03*
X0674512D02*
D03*
X0689276Y0332316D02*
D03*
X0695378Y0317552D02*
D03*
X0680614Y031145D02*
D03*
X0535398Y0470828D02*
D03*
X0520634Y047693D02*
D03*
X0526736Y0491694D02*
D03*
X05415Y0485591D02*
D03*
X0520634D02*
D03*
X0535398Y0491694D02*
D03*
X05415Y047693D02*
D03*
X0526736Y0470828D02*
D03*
Y031145D02*
D03*
X05415Y0317552D02*
D03*
X0535398Y0332316D02*
D03*
X0520634Y0326213D02*
D03*
X05415D02*
D03*
X0526736Y0332316D02*
D03*
X0520634Y0317552D02*
D03*
X0535398Y031145D02*
D03*
D69*
X0602602Y0431527D02*
D03*
X0606932D02*
D03*
X0611263D02*
D03*
X0615594D02*
D03*
X0602602Y0427196D02*
D03*
X0606932D02*
D03*
X0611263D02*
D03*
X0615594D02*
D03*
X0602602Y0422865D02*
D03*
X0606932D02*
D03*
X0611263D02*
D03*
X0615594D02*
D03*
X0602602Y0418535D02*
D03*
X0606932D02*
D03*
X0611263D02*
D03*
X0615594D02*
D03*
X0602602Y0414204D02*
D03*
X0606932D02*
D03*
X0611263D02*
D03*
X0615594D02*
D03*
X0602602Y0409873D02*
D03*
X0606932D02*
D03*
X0611263D02*
D03*
X0615594D02*
D03*
D70*
X0680954Y0406D02*
D03*
X0675246D02*
D03*
X0542535Y0443281D02*
D03*
X0548243D02*
D03*
X0675177Y04448D02*
D03*
X0680885D02*
D03*
D71*
X0580689Y04182D02*
D03*
X0596437D02*
D03*
D72*
X0678058Y0389381D02*
D03*
X0681798Y0397255D02*
D03*
X0674318D02*
D03*
X05454Y042802D02*
D03*
X054914Y0435894D02*
D03*
X0541659D02*
D03*
X0678042Y0429445D02*
D03*
X0681782Y0437319D02*
D03*
X0674302D02*
D03*
D73*
X05573Y04485D02*
X05712D01*
X05791Y04564D01*
D74*
X0684945Y0481261D02*
D03*
Y0321883D02*
D03*
X0531067Y0481261D02*
D03*
Y0321883D02*
D03*
M02*
