G04*
G04 #@! TF.GenerationSoftware,Altium Limited,Altium Designer,21.3.2 (30)*
G04*
G04 Layer_Color=16711935*
%FSTAX25Y25*%
%MOIN*%
G70*
G04*
G04 #@! TF.SameCoordinates,B4C271EC-4B27-40F8-A0F4-B21306F732D5*
G04*
G04*
G04 #@! TF.FilePolarity,Negative*
G04*
G01*
G75*
%ADD37C,0.06706*%
%ADD38R,0.04343X0.02965*%
%ADD51R,0.11800X0.12800*%
%ADD52O,0.11800X0.12800*%
%ADD54C,0.03950*%
%ADD55C,0.03398*%
%ADD56C,0.02769*%
%ADD75R,0.02965X0.04343*%
%ADD76R,0.03162X0.04737*%
%ADD77C,0.28359*%
D37*
X0605Y0364D02*
D03*
Y0374D02*
D03*
X05827Y0480737D02*
D03*
Y0490737D02*
D03*
X06345Y0480737D02*
D03*
Y0490737D02*
D03*
D38*
X0678Y0382054D02*
D03*
Y0376346D02*
D03*
X05454Y0415472D02*
D03*
Y0421181D02*
D03*
X067807Y0416791D02*
D03*
Y04225D02*
D03*
D51*
X0615Y03278D02*
D03*
X06192Y04813D02*
D03*
D52*
X0635Y03278D02*
D03*
X05992Y04813D02*
D03*
D54*
X0645Y0365D02*
D03*
X06765Y03681D02*
D03*
X0595Y033D02*
D03*
X059Y0335D02*
D03*
X0575Y033D02*
D03*
X0565D02*
D03*
X057Y0325D02*
D03*
X0585Y033D02*
D03*
X058Y0325D02*
D03*
X0585Y032D02*
D03*
X0575D02*
D03*
X058Y0315D02*
D03*
X057D02*
D03*
X061D02*
D03*
X052Y045D02*
D03*
X05797Y04282D02*
D03*
X05801Y04082D02*
D03*
X05573Y04485D02*
D03*
X05677Y04905D02*
D03*
X0563Y0487D02*
D03*
X0642Y0491D02*
D03*
X0658Y0482D02*
D03*
Y0472D02*
D03*
Y0477D02*
D03*
Y0487D02*
D03*
X0654019Y0466919D02*
D03*
X0574118Y04909D02*
D03*
X06Y0325D02*
D03*
Y0315D02*
D03*
X0695Y0375D02*
D03*
Y0365D02*
D03*
Y0355D02*
D03*
Y0345D02*
D03*
X0525D02*
D03*
X0535D02*
D03*
X055Y032D02*
D03*
Y033D02*
D03*
Y034D02*
D03*
X0545Y0345D02*
D03*
X0555D02*
D03*
Y0335D02*
D03*
X0545Y0315D02*
D03*
X0555Y0325D02*
D03*
Y0315D02*
D03*
X05551Y03756D02*
D03*
X0637Y04383D02*
D03*
X06366Y04286D02*
D03*
X06206Y04511D02*
D03*
X06617Y04187D02*
D03*
X0658925Y04475D02*
D03*
X0655Y0425D02*
D03*
Y043D02*
D03*
X05791Y04564D02*
D03*
X057Y04797D02*
D03*
X0628Y04803D02*
D03*
X0575Y048D02*
D03*
X057Y0475D02*
D03*
X0575D02*
D03*
X058D02*
D03*
X0585D02*
D03*
X059D02*
D03*
X0645D02*
D03*
Y048D02*
D03*
X063Y0475D02*
D03*
X0635D02*
D03*
X064D02*
D03*
Y048D02*
D03*
X0613Y0495D02*
D03*
X0618D02*
D03*
X0623D02*
D03*
Y049D02*
D03*
X0618D02*
D03*
X0613D02*
D03*
X059Y048D02*
D03*
X0595Y0495D02*
D03*
Y049D02*
D03*
X06D02*
D03*
Y0495D02*
D03*
X0605D02*
D03*
Y049D02*
D03*
X06362Y04522D02*
D03*
X05549Y03872D02*
D03*
X05798Y03888D02*
D03*
X05552Y04372D02*
D03*
X05531Y0368D02*
D03*
X05308Y04466D02*
D03*
X05448Y03755D02*
D03*
X05805Y03638D02*
D03*
X0684Y03519D02*
D03*
X05231Y03865D02*
D03*
X06865Y04291D02*
D03*
X05497Y04099D02*
D03*
X06662Y04636D02*
D03*
X064Y0365D02*
D03*
X0645Y037D02*
D03*
X0667Y04532D02*
D03*
X0579Y04469D02*
D03*
X0645Y0425D02*
D03*
X065Y043D02*
D03*
X06646Y04074D02*
D03*
X057Y04256D02*
D03*
Y04206D02*
D03*
X0565D02*
D03*
Y04256D02*
D03*
X065Y0425D02*
D03*
X062Y0375D02*
D03*
Y038D02*
D03*
X0645Y0375D02*
D03*
X065Y038D02*
D03*
X0645D02*
D03*
X064D02*
D03*
Y0375D02*
D03*
Y037D02*
D03*
X0615D02*
D03*
Y0375D02*
D03*
Y038D02*
D03*
X061D02*
D03*
X0595Y0375D02*
D03*
X059D02*
D03*
X0595Y038D02*
D03*
X059D02*
D03*
X06D02*
D03*
D55*
X0680614Y0470828D02*
D03*
X0695378Y047693D02*
D03*
X0689276Y0491694D02*
D03*
X0674512Y0485591D02*
D03*
X0695378D02*
D03*
X0680614Y0491694D02*
D03*
X0674512Y047693D02*
D03*
X0689276Y0470828D02*
D03*
Y031145D02*
D03*
X0674512Y0317552D02*
D03*
X0680614Y0332316D02*
D03*
X0695378Y0326213D02*
D03*
X0674512D02*
D03*
X0689276Y0332316D02*
D03*
X0695378Y0317552D02*
D03*
X0680614Y031145D02*
D03*
X0535398Y0470828D02*
D03*
X0520634Y047693D02*
D03*
X0526736Y0491694D02*
D03*
X05415Y0485591D02*
D03*
X0520634D02*
D03*
X0535398Y0491694D02*
D03*
X05415Y047693D02*
D03*
X0526736Y0470828D02*
D03*
Y031145D02*
D03*
X05415Y0317552D02*
D03*
X0535398Y0332316D02*
D03*
X0520634Y0326213D02*
D03*
X05415D02*
D03*
X0526736Y0332316D02*
D03*
X0520634Y0317552D02*
D03*
X0535398Y031145D02*
D03*
D56*
X0602602Y0431527D02*
D03*
X0606932D02*
D03*
X0611263D02*
D03*
X0615594D02*
D03*
X0602602Y0427196D02*
D03*
X0606932D02*
D03*
X0611263D02*
D03*
X0615594D02*
D03*
X0602602Y0422865D02*
D03*
X0606932D02*
D03*
X0611263D02*
D03*
X0615594D02*
D03*
X0602602Y0418535D02*
D03*
X0606932D02*
D03*
X0611263D02*
D03*
X0615594D02*
D03*
X0602602Y0414204D02*
D03*
X0606932D02*
D03*
X0611263D02*
D03*
X0615594D02*
D03*
X0602602Y0409873D02*
D03*
X0606932D02*
D03*
X0611263D02*
D03*
X0615594D02*
D03*
D75*
X0680954Y0406D02*
D03*
X0675246D02*
D03*
X0542535Y0443281D02*
D03*
X0548243D02*
D03*
X0675177Y04448D02*
D03*
X0680885D02*
D03*
D76*
X0678058Y0389381D02*
D03*
X0681798Y0397255D02*
D03*
X0674318D02*
D03*
X05454Y042802D02*
D03*
X054914Y0435894D02*
D03*
X0541659D02*
D03*
X0678042Y0429445D02*
D03*
X0681782Y0437319D02*
D03*
X0674302D02*
D03*
D77*
X0684945Y0481261D02*
D03*
Y0321883D02*
D03*
X0531067Y0481261D02*
D03*
Y0321883D02*
D03*
M02*
