G04*
G04 #@! TF.GenerationSoftware,Altium Limited,Altium Designer,21.3.2 (30)*
G04*
G04 Layer_Color=128*
%FSTAX25Y25*%
%MOIN*%
G70*
G04*
G04 #@! TF.SameCoordinates,B4C271EC-4B27-40F8-A0F4-B21306F732D5*
G04*
G04*
G04 #@! TF.FilePolarity,Positive*
G04*
G01*
G75*
%ADD81C,0.00200*%
D81*
X0612Y03278D02*
X0618D01*
X0615Y03248D02*
Y03308D01*
X0632Y03278D02*
X0638D01*
X0635Y03248D02*
Y03308D01*
X0678646Y0481261D02*
X0691244D01*
X0684945Y0474961D02*
Y048756D01*
X0678646Y0321883D02*
X0691244D01*
X0684945Y0315583D02*
Y0328182D01*
X0603622Y0364D02*
X0606378D01*
X0605Y0362622D02*
Y0365378D01*
X0603622Y0374D02*
X0606378D01*
X0605Y0372622D02*
Y0375378D01*
X0581322Y0480737D02*
X0584078D01*
X05827Y0479359D02*
Y0482115D01*
X0581322Y0490737D02*
X0584078D01*
X05827Y0489359D02*
Y0492114D01*
X06162Y04813D02*
X06222D01*
X06192Y04783D02*
Y04843D01*
X05962Y04813D02*
X06022D01*
X05992Y04783D02*
Y04843D01*
X0633122Y0480737D02*
X0635878D01*
X06345Y0479359D02*
Y0482115D01*
X0633122Y0490737D02*
X0635878D01*
X06345Y0489359D02*
Y0492114D01*
X0524768Y0481261D02*
X0537366D01*
X0531067Y0474961D02*
Y048756D01*
X0524768Y0321883D02*
X0537366D01*
X0531067Y0315583D02*
Y0328182D01*
X0644213Y0365D02*
X0645787D01*
X0645Y0364213D02*
Y0365787D01*
X0675516Y03681D02*
X0677484D01*
X06765Y0367116D02*
Y0369084D01*
X0679965Y0470828D02*
X0681264D01*
X0680614Y0470178D02*
Y0471477D01*
X0694728Y047693D02*
X0696028D01*
X0695378Y047628D02*
Y0477579D01*
X0688626Y0491694D02*
X0689925D01*
X0689276Y0491044D02*
Y0492343D01*
X0673862Y0485591D02*
X0675161D01*
X0674512Y0484942D02*
Y0486241D01*
X0694728Y0485591D02*
X0696028D01*
X0695378Y0484942D02*
Y0486241D01*
X0679965Y0491694D02*
X0681264D01*
X0680614Y0491044D02*
Y0492343D01*
X0673862Y047693D02*
X0675161D01*
X0674512Y047628D02*
Y0477579D01*
X0688626Y0470828D02*
X0689925D01*
X0689276Y0470178D02*
Y0471477D01*
X0688626Y031145D02*
X0689925D01*
X0689276Y03108D02*
Y0312099D01*
X0673862Y0317552D02*
X0675161D01*
X0674512Y0316902D02*
Y0318202D01*
X0679965Y0332316D02*
X0681264D01*
X0680614Y0331666D02*
Y0332965D01*
X0694728Y0326213D02*
X0696028D01*
X0695378Y0325564D02*
Y0326863D01*
X0673862Y0326213D02*
X0675161D01*
X0674512Y0325564D02*
Y0326863D01*
X0688626Y0332316D02*
X0689925D01*
X0689276Y0331666D02*
Y0332965D01*
X0694728Y0317552D02*
X0696028D01*
X0695378Y0316902D02*
Y0318202D01*
X0679965Y031145D02*
X0681264D01*
X0680614Y03108D02*
Y0312099D01*
X0594213Y033D02*
X0595787D01*
X0595Y0329213D02*
Y0330787D01*
X0589213Y0335D02*
X0590787D01*
X059Y0334213D02*
Y0335787D01*
X0574213Y033D02*
X0575787D01*
X0575Y0329213D02*
Y0330787D01*
X0564213Y033D02*
X0565787D01*
X0565Y0329213D02*
Y0330787D01*
X0569213Y0325D02*
X0570787D01*
X057Y0324213D02*
Y0325787D01*
X0584213Y033D02*
X0585787D01*
X0585Y0329213D02*
Y0330787D01*
X0579213Y0325D02*
X0580787D01*
X058Y0324213D02*
Y0325787D01*
X0584213Y032D02*
X0585787D01*
X0585Y0319213D02*
Y0320787D01*
X0574213Y032D02*
X0575787D01*
X0575Y0319213D02*
Y0320787D01*
X0579213Y0315D02*
X0580787D01*
X058Y0314213D02*
Y0315787D01*
X0569213Y0315D02*
X0570787D01*
X057Y0314213D02*
Y0315787D01*
X0609213Y0315D02*
X0610787D01*
X061Y0314213D02*
Y0315787D01*
X0519213Y045D02*
X0520787D01*
X052Y0449213D02*
Y0450787D01*
X0578716Y04282D02*
X0580684D01*
X05797Y0427216D02*
Y0429184D01*
X0579116Y04082D02*
X0581084D01*
X05801Y0407216D02*
Y0409184D01*
X0602208Y0431527D02*
X0602995D01*
X0602602Y0431133D02*
Y043192D01*
X0606539Y0431527D02*
X0607326D01*
X0606932Y0431133D02*
Y043192D01*
X0610869Y0431527D02*
X0611657D01*
X0611263Y0431133D02*
Y043192D01*
X06152Y0431527D02*
X0615987D01*
X0615594Y0431133D02*
Y043192D01*
X0602208Y0427196D02*
X0602995D01*
X0602602Y0426802D02*
Y042759D01*
X0606539Y0427196D02*
X0607326D01*
X0606932Y0426802D02*
Y042759D01*
X0610869Y0427196D02*
X0611657D01*
X0611263Y0426802D02*
Y042759D01*
X06152Y0427196D02*
X0615987D01*
X0615594Y0426802D02*
Y042759D01*
X0602208Y0422865D02*
X0602995D01*
X0602602Y0422472D02*
Y0423259D01*
X0606539Y0422865D02*
X0607326D01*
X0606932Y0422472D02*
Y0423259D01*
X0610869Y0422865D02*
X0611657D01*
X0611263Y0422472D02*
Y0423259D01*
X06152Y0422865D02*
X0615987D01*
X0615594Y0422472D02*
Y0423259D01*
X0602208Y0418535D02*
X0602995D01*
X0602602Y0418141D02*
Y0418928D01*
X0606539Y0418535D02*
X0607326D01*
X0606932Y0418141D02*
Y0418928D01*
X0610869Y0418535D02*
X0611657D01*
X0611263Y0418141D02*
Y0418928D01*
X06152Y0418535D02*
X0615987D01*
X0615594Y0418141D02*
Y0418928D01*
X0602208Y0414204D02*
X0602995D01*
X0602602Y041381D02*
Y0414598D01*
X0606539Y0414204D02*
X0607326D01*
X0606932Y041381D02*
Y0414598D01*
X0610869Y0414204D02*
X0611657D01*
X0611263Y041381D02*
Y0414598D01*
X06152Y0414204D02*
X0615987D01*
X0615594Y041381D02*
Y0414598D01*
X0602208Y0409873D02*
X0602995D01*
X0602602Y040948D02*
Y0410267D01*
X0606539Y0409873D02*
X0607326D01*
X0606932Y040948D02*
Y0410267D01*
X0610869Y0409873D02*
X0611657D01*
X0611263Y040948D02*
Y0410267D01*
X06152Y0409873D02*
X0615987D01*
X0615594Y040948D02*
Y0410267D01*
X0556316Y04485D02*
X0558284D01*
X05573Y0447516D02*
Y0449484D01*
X0566913Y04905D02*
X0568487D01*
X05677Y0489713D02*
Y0491287D01*
X0562213Y0487D02*
X0563787D01*
X0563Y0486213D02*
Y0487787D01*
X0641213Y0491D02*
X0642787D01*
X0642Y0490213D02*
Y0491787D01*
X0657213Y0482D02*
X0658787D01*
X0658Y0481213D02*
Y0482787D01*
X0657213Y0472D02*
X0658787D01*
X0658Y0471213D02*
Y0472787D01*
X0657213Y0477D02*
X0658787D01*
X0658Y0476213D02*
Y0477787D01*
X0657213Y0487D02*
X0658787D01*
X0658Y0486213D02*
Y0487787D01*
X0653232Y0466919D02*
X0654807D01*
X0654019Y0466132D02*
Y0467707D01*
X0573331Y04909D02*
X0574906D01*
X0574118Y0490113D02*
Y0491687D01*
X0599213Y0325D02*
X0600787D01*
X06Y0324213D02*
Y0325787D01*
X0599213Y0315D02*
X0600787D01*
X06Y0314213D02*
Y0315787D01*
X0694213Y0375D02*
X0695787D01*
X0695Y0374213D02*
Y0375787D01*
X0694213Y0365D02*
X0695787D01*
X0695Y0364213D02*
Y0365787D01*
X0694213Y0355D02*
X0695787D01*
X0695Y0354213D02*
Y0355787D01*
X0694213Y0345D02*
X0695787D01*
X0695Y0344213D02*
Y0345787D01*
X0524213Y0345D02*
X0525787D01*
X0525Y0344213D02*
Y0345787D01*
X0534213Y0345D02*
X0535787D01*
X0535Y0344213D02*
Y0345787D01*
X0549213Y032D02*
X0550787D01*
X055Y0319213D02*
Y0320787D01*
X0549213Y033D02*
X0550787D01*
X055Y0329213D02*
Y0330787D01*
X0549213Y034D02*
X0550787D01*
X055Y0339213D02*
Y0340787D01*
X0544213Y0345D02*
X0545787D01*
X0545Y0344213D02*
Y0345787D01*
X0554213Y0345D02*
X0555787D01*
X0555Y0344213D02*
Y0345787D01*
X0554213Y0335D02*
X0555787D01*
X0555Y0334213D02*
Y0335787D01*
X0544213Y0315D02*
X0545787D01*
X0545Y0314213D02*
Y0315787D01*
X0554213Y0325D02*
X0555787D01*
X0555Y0324213D02*
Y0325787D01*
X0554213Y0315D02*
X0555787D01*
X0555Y0314213D02*
Y0315787D01*
X0554116Y03756D02*
X0556084D01*
X05551Y0374616D02*
Y0376584D01*
X0636016Y04383D02*
X0637984D01*
X0637Y0437316D02*
Y0439284D01*
X0635616Y04286D02*
X0637584D01*
X06366Y0427616D02*
Y0429584D01*
X0619616Y04511D02*
X0621584D01*
X06206Y0450116D02*
Y0452084D01*
X0660716Y04187D02*
X0662684D01*
X06617Y0417716D02*
Y0419684D01*
X0657941Y04475D02*
X0659909D01*
X0658925Y0446516D02*
Y0448484D01*
X0654213Y0425D02*
X0655787D01*
X0655Y0424213D02*
Y0425787D01*
X0654213Y043D02*
X0655787D01*
X0655Y0429213D02*
Y0430787D01*
X0578116Y04564D02*
X0580084D01*
X05791Y0455416D02*
Y0457384D01*
X0569213Y04797D02*
X0570787D01*
X057Y0478913D02*
Y0480487D01*
X0627213Y04803D02*
X0628787D01*
X0628Y0479513D02*
Y0481087D01*
X0574213Y048D02*
X0575787D01*
X0575Y0479213D02*
Y0480787D01*
X0569213Y0475D02*
X0570787D01*
X057Y0474213D02*
Y0475787D01*
X0574213Y0475D02*
X0575787D01*
X0575Y0474213D02*
Y0475787D01*
X0579213Y0475D02*
X0580787D01*
X058Y0474213D02*
Y0475787D01*
X0584213Y0475D02*
X0585787D01*
X0585Y0474213D02*
Y0475787D01*
X0589213Y0475D02*
X0590787D01*
X059Y0474213D02*
Y0475787D01*
X0644213Y0475D02*
X0645787D01*
X0645Y0474213D02*
Y0475787D01*
X0644213Y048D02*
X0645787D01*
X0645Y0479213D02*
Y0480787D01*
X0629213Y0475D02*
X0630787D01*
X063Y0474213D02*
Y0475787D01*
X0634213Y0475D02*
X0635787D01*
X0635Y0474213D02*
Y0475787D01*
X0639213Y0475D02*
X0640787D01*
X064Y0474213D02*
Y0475787D01*
X0639213Y048D02*
X0640787D01*
X064Y0479213D02*
Y0480787D01*
X0612213Y0495D02*
X0613787D01*
X0613Y0494213D02*
Y0495787D01*
X0617213Y0495D02*
X0618787D01*
X0618Y0494213D02*
Y0495787D01*
X0622213Y0495D02*
X0623787D01*
X0623Y0494213D02*
Y0495787D01*
X0622213Y049D02*
X0623787D01*
X0623Y0489213D02*
Y0490787D01*
X0617213Y049D02*
X0618787D01*
X0618Y0489213D02*
Y0490787D01*
X0612213Y049D02*
X0613787D01*
X0613Y0489213D02*
Y0490787D01*
X0589213Y048D02*
X0590787D01*
X059Y0479213D02*
Y0480787D01*
X0594213Y0495D02*
X0595787D01*
X0595Y0494213D02*
Y0495787D01*
X0594213Y049D02*
X0595787D01*
X0595Y0489213D02*
Y0490787D01*
X0599213Y049D02*
X0600787D01*
X06Y0489213D02*
Y0490787D01*
X0599213Y0495D02*
X0600787D01*
X06Y0494213D02*
Y0495787D01*
X0604213Y0495D02*
X0605787D01*
X0605Y0494213D02*
Y0495787D01*
X0604213Y049D02*
X0605787D01*
X0605Y0489213D02*
Y0490787D01*
X0635216Y04522D02*
X0637184D01*
X06362Y0451216D02*
Y0453184D01*
X0553916Y03872D02*
X0555884D01*
X05549Y0386216D02*
Y0388184D01*
X0578816Y03888D02*
X0580784D01*
X05798Y0387816D02*
Y0389784D01*
X0554216Y04372D02*
X0556184D01*
X05552Y0436216D02*
Y0438184D01*
X0552116Y0368D02*
X0554084D01*
X05531Y0367016D02*
Y0368984D01*
X0529816Y04466D02*
X0531784D01*
X05308Y0445616D02*
Y0447584D01*
X0543816Y03755D02*
X0545784D01*
X05448Y0374516D02*
Y0376484D01*
X0579516Y03638D02*
X0581484D01*
X05805Y0362816D02*
Y0364784D01*
X0683016Y03519D02*
X0684984D01*
X0684Y0350916D02*
Y0352884D01*
X0522116Y03865D02*
X0524084D01*
X05231Y0385516D02*
Y0387484D01*
X0685516Y04291D02*
X0687484D01*
X06865Y0428116D02*
Y0430084D01*
X0548716Y04099D02*
X0550684D01*
X05497Y0408916D02*
Y0410884D01*
X0665216Y04636D02*
X0667184D01*
X06662Y0462616D02*
Y0464584D01*
X0639213Y0365D02*
X0640787D01*
X064Y0364213D02*
Y0365787D01*
X0644213Y037D02*
X0645787D01*
X0645Y0369213D02*
Y0370787D01*
X0666016Y04532D02*
X0667984D01*
X0667Y0452216D02*
Y0454184D01*
X0578016Y04469D02*
X0579984D01*
X0579Y0445916D02*
Y0447884D01*
X0644213Y0425D02*
X0645787D01*
X0645Y0424213D02*
Y0425787D01*
X0649213Y043D02*
X0650787D01*
X065Y0429213D02*
Y0430787D01*
X0663616Y04074D02*
X0665584D01*
X06646Y0406416D02*
Y0408384D01*
X0569213Y04256D02*
X0570787D01*
X057Y0424813D02*
Y0426387D01*
X0569213Y04206D02*
X0570787D01*
X057Y0419813D02*
Y0421387D01*
X0564213Y04206D02*
X0565787D01*
X0565Y0419813D02*
Y0421387D01*
X0564213Y04256D02*
X0565787D01*
X0565Y0424813D02*
Y0426387D01*
X0649213Y0425D02*
X0650787D01*
X065Y0424213D02*
Y0425787D01*
X0619213Y0375D02*
X0620787D01*
X062Y0374213D02*
Y0375787D01*
X0619213Y038D02*
X0620787D01*
X062Y0379213D02*
Y0380787D01*
X0644213Y0375D02*
X0645787D01*
X0645Y0374213D02*
Y0375787D01*
X0649213Y038D02*
X0650787D01*
X065Y0379213D02*
Y0380787D01*
X0644213Y038D02*
X0645787D01*
X0645Y0379213D02*
Y0380787D01*
X0639213Y038D02*
X0640787D01*
X064Y0379213D02*
Y0380787D01*
X0639213Y0375D02*
X0640787D01*
X064Y0374213D02*
Y0375787D01*
X0639213Y037D02*
X0640787D01*
X064Y0369213D02*
Y0370787D01*
X0614213Y037D02*
X0615787D01*
X0615Y0369213D02*
Y0370787D01*
X0614213Y0375D02*
X0615787D01*
X0615Y0374213D02*
Y0375787D01*
X0614213Y038D02*
X0615787D01*
X0615Y0379213D02*
Y0380787D01*
X0609213Y038D02*
X0610787D01*
X061Y0379213D02*
Y0380787D01*
X0594213Y0375D02*
X0595787D01*
X0595Y0374213D02*
Y0375787D01*
X0589213Y0375D02*
X0590787D01*
X059Y0374213D02*
Y0375787D01*
X0594213Y038D02*
X0595787D01*
X0595Y0379213D02*
Y0380787D01*
X0589213Y038D02*
X0590787D01*
X059Y0379213D02*
Y0380787D01*
X0599213Y038D02*
X0600787D01*
X06Y0379213D02*
Y0380787D01*
X0534748Y0470828D02*
X0536047D01*
X0535398Y0470178D02*
Y0471477D01*
X0519984Y047693D02*
X0521283D01*
X0520634Y047628D02*
Y0477579D01*
X0526087Y0491694D02*
X0527386D01*
X0526736Y0491044D02*
Y0492343D01*
X054085Y0485591D02*
X054215D01*
X05415Y0484942D02*
Y0486241D01*
X0519984Y0485591D02*
X0521283D01*
X0520634Y0484942D02*
Y0486241D01*
X0534748Y0491694D02*
X0536047D01*
X0535398Y0491044D02*
Y0492343D01*
X054085Y047693D02*
X054215D01*
X05415Y047628D02*
Y0477579D01*
X0526087Y0470828D02*
X0527386D01*
X0526736Y0470178D02*
Y0471477D01*
X0526087Y031145D02*
X0527386D01*
X0526736Y03108D02*
Y0312099D01*
X054085Y0317552D02*
X054215D01*
X05415Y0316902D02*
Y0318202D01*
X0534748Y0332316D02*
X0536047D01*
X0535398Y0331666D02*
Y0332965D01*
X0519984Y0326213D02*
X0521283D01*
X0520634Y0325564D02*
Y0326863D01*
X054085Y0326213D02*
X054215D01*
X05415Y0325564D02*
Y0326863D01*
X0526087Y0332316D02*
X0527386D01*
X0526736Y0331666D02*
Y0332965D01*
X0519984Y0317552D02*
X0521283D01*
X0520634Y0316902D02*
Y0318202D01*
X0534748Y031145D02*
X0536047D01*
X0535398Y03108D02*
Y0312099D01*
M02*
