G04*
G04 #@! TF.GenerationSoftware,Altium Limited,Altium Designer,21.3.2 (30)*
G04*
G04 Layer_Color=8388736*
%FSTAX25Y25*%
%MOIN*%
G70*
G04*
G04 #@! TF.SameCoordinates,B4C271EC-4B27-40F8-A0F4-B21306F732D5*
G04*
G04*
G04 #@! TF.FilePolarity,Negative*
G04*
G01*
G75*
%ADD35R,0.15800X0.17493*%
%ADD36R,0.10642X0.13202*%
%ADD37C,0.06706*%
%ADD38R,0.04343X0.02965*%
%ADD39R,0.03950X0.03950*%
%ADD40R,0.03950X0.03950*%
G04:AMPARAMS|DCode=41|XSize=67.06mil|YSize=141.86mil|CornerRadius=11.38mil|HoleSize=0mil|Usage=FLASHONLY|Rotation=180.000|XOffset=0mil|YOffset=0mil|HoleType=Round|Shape=RoundedRectangle|*
%AMROUNDEDRECTD41*
21,1,0.06706,0.11909,0,0,180.0*
21,1,0.04429,0.14186,0,0,180.0*
1,1,0.02276,-0.02215,0.05955*
1,1,0.02276,0.02215,0.05955*
1,1,0.02276,0.02215,-0.05955*
1,1,0.02276,-0.02215,-0.05955*
%
%ADD41ROUNDEDRECTD41*%
G04:AMPARAMS|DCode=42|XSize=47.37mil|YSize=145.8mil|CornerRadius=13.84mil|HoleSize=0mil|Usage=FLASHONLY|Rotation=180.000|XOffset=0mil|YOffset=0mil|HoleType=Round|Shape=RoundedRectangle|*
%AMROUNDEDRECTD42*
21,1,0.04737,0.11811,0,0,180.0*
21,1,0.01968,0.14580,0,0,180.0*
1,1,0.02769,-0.00984,0.05906*
1,1,0.02769,0.00984,0.05906*
1,1,0.02769,0.00984,-0.05906*
1,1,0.02769,-0.00984,-0.05906*
%
%ADD42ROUNDEDRECTD42*%
%ADD43R,0.08280X0.17335*%
G04:AMPARAMS|DCode=44|XSize=67.06mil|YSize=141.86mil|CornerRadius=11.38mil|HoleSize=0mil|Usage=FLASHONLY|Rotation=270.000|XOffset=0mil|YOffset=0mil|HoleType=Round|Shape=RoundedRectangle|*
%AMROUNDEDRECTD44*
21,1,0.06706,0.11909,0,0,270.0*
21,1,0.04429,0.14186,0,0,270.0*
1,1,0.02276,-0.05955,-0.02215*
1,1,0.02276,-0.05955,0.02215*
1,1,0.02276,0.05955,0.02215*
1,1,0.02276,0.05955,-0.02215*
%
%ADD44ROUNDEDRECTD44*%
G04:AMPARAMS|DCode=45|XSize=47.37mil|YSize=145.8mil|CornerRadius=13.84mil|HoleSize=0mil|Usage=FLASHONLY|Rotation=270.000|XOffset=0mil|YOffset=0mil|HoleType=Round|Shape=RoundedRectangle|*
%AMROUNDEDRECTD45*
21,1,0.04737,0.11811,0,0,270.0*
21,1,0.01968,0.14580,0,0,270.0*
1,1,0.02769,-0.05906,-0.00984*
1,1,0.02769,-0.05906,0.00984*
1,1,0.02769,0.05906,0.00984*
1,1,0.02769,0.05906,-0.00984*
%
%ADD45ROUNDEDRECTD45*%
%ADD46R,0.04343X0.05918*%
%ADD47R,0.13005X0.06312*%
%ADD48R,0.14186X0.06706*%
%ADD49O,0.08083X0.03162*%
%ADD50R,0.19698X0.28359*%
%ADD51R,0.11800X0.12800*%
%ADD52O,0.11800X0.12800*%
%ADD53C,0.16548*%
%ADD54C,0.03950*%
%ADD55C,0.03398*%
%ADD56C,0.02769*%
G36*
X054524Y0321816D02*
X054524Y0320892D01*
X0544999Y0319058D01*
X0544521Y0317272D01*
X0543813Y0315564D01*
X0542888Y0313962D01*
X0541762Y0312495D01*
X0540455Y0311188D01*
X0538988Y0310062D01*
X0537386Y0309137D01*
X0535678Y030843D01*
X0533892Y0307951D01*
X0532058Y030771D01*
X0531134D01*
X05302Y0307709D01*
X052835Y0307953D01*
X0526547Y0308436D01*
X0524823Y0309149D01*
X0523206Y0310082D01*
X0521725Y0311218D01*
X0520405Y0312538D01*
X0519269Y0314019D01*
X0518335Y0315635D01*
X0517621Y0317359D01*
X0517138Y0319162D01*
X0516894Y0321012D01*
X0516894Y0321945D01*
X0516893Y0322873D01*
X0517136Y0324712D01*
X0517618Y0326504D01*
X051833Y0328217D01*
X051926Y0329822D01*
X0520392Y0331292D01*
X0521707Y0332601D01*
X0523182Y0333726D01*
X0524792Y0334649D01*
X0526509Y0335353D01*
X0528302Y0335826D01*
X0530143Y033606D01*
X0531071Y0336056D01*
X0532001Y0336051D01*
X0533845Y03358D01*
X053564Y0335311D01*
X0537357Y0334593D01*
X0538965Y0333657D01*
X0540438Y033252D01*
X0541751Y0331201D01*
X054288Y0329722D01*
X0543808Y0328109D01*
X0544518Y0326389D01*
X0544998Y0324592D01*
X054524Y0322747D01*
X054524Y0321816D01*
D01*
D02*
G37*
G36*
X0699118D02*
X0699118Y0320892D01*
X0698877Y0319058D01*
X0698398Y0317272D01*
X0697691Y0315564D01*
X0696766Y0313962D01*
X069564Y0312495D01*
X0694333Y0311188D01*
X0692866Y0310062D01*
X0691264Y0309137D01*
X0689556Y030843D01*
X068777Y0307951D01*
X0685936Y030771D01*
X0685012D01*
X0684078Y0307709D01*
X0682228Y0307953D01*
X0680425Y0308436D01*
X0678701Y0309149D01*
X0677084Y0310082D01*
X0675603Y0311218D01*
X0674283Y0312538D01*
X0673147Y0314019D01*
X0672213Y0315635D01*
X0671499Y0317359D01*
X0671016Y0319162D01*
X0670772Y0321012D01*
X0670772Y0321945D01*
X0670772Y0322873D01*
X0671014Y0324712D01*
X0671496Y0326504D01*
X0672208Y0328217D01*
X0673138Y0329822D01*
X067427Y0331292D01*
X0675585Y0332601D01*
X067706Y0333726D01*
X067867Y0334649D01*
X0680386Y0335353D01*
X0682181Y0335826D01*
X0684021Y033606D01*
X0684948Y0336056D01*
X0685879Y0336051D01*
X0687723Y03358D01*
X0689518Y0335311D01*
X0691235Y0334593D01*
X0692843Y0333657D01*
X0694316Y033252D01*
X0695628Y0331201D01*
X0696758Y0329722D01*
X0697686Y0328109D01*
X0698396Y0326389D01*
X0698876Y0324592D01*
X0699118Y0322747D01*
X0699118Y0321816D01*
D01*
D02*
G37*
G36*
X054524Y0481194D02*
X054524Y048027D01*
X0544999Y0478436D01*
X0544521Y047665D01*
X0543813Y0474942D01*
X0542888Y047334D01*
X0541762Y0471873D01*
X0540455Y0470565D01*
X0538988Y046944D01*
X0537386Y0468515D01*
X0535678Y0467807D01*
X0533892Y0467329D01*
X0532058Y0467087D01*
X0531134D01*
X05302Y0467087D01*
X052835Y0467331D01*
X0526547Y0467813D01*
X0524823Y0468527D01*
X0523206Y046946D01*
X0521725Y0470596D01*
X0520405Y0471916D01*
X0519269Y0473396D01*
X0518335Y0475013D01*
X0517621Y0476737D01*
X0517138Y047854D01*
X0516894Y048039D01*
X0516894Y0481323D01*
X0516893Y0482251D01*
X0517136Y048409D01*
X0517618Y0485882D01*
X051833Y0487595D01*
X051926Y04892D01*
X0520392Y049067D01*
X0521707Y0491979D01*
X0523182Y0493104D01*
X0524792Y0494027D01*
X0526509Y0494731D01*
X0528302Y0495204D01*
X0530143Y0495438D01*
X0531071Y0495434D01*
X0532001Y0495429D01*
X0533845Y0495178D01*
X053564Y0494689D01*
X0537357Y049397D01*
X0538965Y0493035D01*
X0540438Y0491898D01*
X0541751Y0490579D01*
X054288Y04891D01*
X0543808Y0487487D01*
X0544518Y0485767D01*
X0544998Y048397D01*
X054524Y0482125D01*
X054524Y0481194D01*
D01*
D02*
G37*
G36*
X0699118D02*
X0699118Y048027D01*
X0698877Y0478436D01*
X0698398Y047665D01*
X0697691Y0474942D01*
X0696766Y047334D01*
X069564Y0471873D01*
X0694333Y0470565D01*
X0692866Y046944D01*
X0691264Y0468515D01*
X0689556Y0467807D01*
X068777Y0467329D01*
X0685936Y0467087D01*
X0685012D01*
X0684078Y0467087D01*
X0682228Y0467331D01*
X0680425Y0467813D01*
X0678701Y0468527D01*
X0677084Y046946D01*
X0675603Y0470596D01*
X0674283Y0471916D01*
X0673147Y0473396D01*
X0672213Y0475013D01*
X0671499Y0476737D01*
X0671016Y047854D01*
X0670772Y048039D01*
X0670772Y0481323D01*
X0670772Y0482251D01*
X0671014Y048409D01*
X0671496Y0485882D01*
X0672208Y0487595D01*
X0673138Y04892D01*
X067427Y049067D01*
X0675585Y0491979D01*
X067706Y0493104D01*
X067867Y0494027D01*
X0680386Y0494731D01*
X0682181Y0495204D01*
X0684021Y0495438D01*
X0684948Y0495434D01*
X0685879Y0495429D01*
X0687723Y0495178D01*
X0689518Y0494689D01*
X0691235Y049397D01*
X0692843Y0493035D01*
X0694316Y0491898D01*
X0695628Y0490579D01*
X0696758Y04891D01*
X0697686Y0487487D01*
X0698396Y0485767D01*
X0698876Y048397D01*
X0699118Y0482125D01*
X0699118Y0481194D01*
D01*
D02*
G37*
D35*
X06584Y03163D02*
D03*
Y0342174D02*
D03*
D36*
X0685947Y03667D02*
D03*
X06576D02*
D03*
D37*
X06006Y03508D02*
D03*
Y0341D02*
D03*
X05203Y03599D02*
D03*
X05582Y041D02*
D03*
X05828Y04658D02*
D03*
X06509Y04905D02*
D03*
X06302Y04659D02*
D03*
X06299Y04517D02*
D03*
X06097D02*
D03*
X0605Y0364D02*
D03*
Y0374D02*
D03*
X05827Y0480737D02*
D03*
Y0490737D02*
D03*
X06345Y0480737D02*
D03*
Y0490737D02*
D03*
D38*
X05284Y0354308D02*
D03*
Y0360016D02*
D03*
X05534Y0354308D02*
D03*
Y0360016D02*
D03*
D39*
X0534942Y0354591D02*
D03*
Y0360891D02*
D03*
X0546842Y0354591D02*
D03*
Y0360891D02*
D03*
X06572Y0395605D02*
D03*
Y040151D02*
D03*
X06507Y0395605D02*
D03*
Y040151D02*
D03*
D40*
X0580595Y0352D02*
D03*
X057469D02*
D03*
X0580595Y03585D02*
D03*
X057469D02*
D03*
D41*
X0564056Y0317336D02*
D03*
X0591221D02*
D03*
D42*
X0581576Y0339974D02*
D03*
X0573702D02*
D03*
D43*
X0628Y0374D02*
D03*
Y0346441D02*
D03*
D44*
X0691564Y0411921D02*
D03*
Y0384756D02*
D03*
D45*
X0668926Y0394402D02*
D03*
Y0402276D02*
D03*
D46*
X06417Y04183D02*
D03*
X064918D02*
D03*
D47*
X0691546Y0456829D02*
D03*
Y0422971D02*
D03*
X0520856Y0408003D02*
D03*
Y0374145D02*
D03*
Y0456055D02*
D03*
Y0422197D02*
D03*
D48*
X0669302Y0432026D02*
D03*
Y04399D02*
D03*
Y0447774D02*
D03*
X05431Y03832D02*
D03*
Y0391074D02*
D03*
Y0398948D02*
D03*
Y0431252D02*
D03*
Y0439126D02*
D03*
Y0447D02*
D03*
D49*
X0590495Y04432D02*
D03*
Y04382D02*
D03*
Y04332D02*
D03*
Y04282D02*
D03*
Y04232D02*
D03*
Y04182D02*
D03*
Y04132D02*
D03*
Y04082D02*
D03*
Y04032D02*
D03*
Y03982D02*
D03*
X06277Y04432D02*
D03*
Y04382D02*
D03*
Y04332D02*
D03*
Y04282D02*
D03*
Y04232D02*
D03*
Y04182D02*
D03*
Y04132D02*
D03*
Y04082D02*
D03*
Y04032D02*
D03*
Y03982D02*
D03*
D50*
X0609098Y04207D02*
D03*
D51*
X0615Y03278D02*
D03*
X06192Y04813D02*
D03*
D52*
X0635Y03278D02*
D03*
X05992Y04813D02*
D03*
D53*
X0684945Y0481261D02*
D03*
Y0321883D02*
D03*
X0531067Y0481261D02*
D03*
Y0321883D02*
D03*
D54*
X0645Y0365D02*
D03*
X06765Y03681D02*
D03*
X0595Y033D02*
D03*
X059Y0335D02*
D03*
X0575Y033D02*
D03*
X0565D02*
D03*
X057Y0325D02*
D03*
X0585Y033D02*
D03*
X058Y0325D02*
D03*
X0585Y032D02*
D03*
X0575D02*
D03*
X058Y0315D02*
D03*
X057D02*
D03*
X061D02*
D03*
X052Y045D02*
D03*
X05797Y04282D02*
D03*
X05801Y04082D02*
D03*
X05573Y04485D02*
D03*
X05677Y04905D02*
D03*
X0563Y0487D02*
D03*
X0642Y0491D02*
D03*
X0658Y0482D02*
D03*
Y0472D02*
D03*
Y0477D02*
D03*
Y0487D02*
D03*
X0654019Y0466919D02*
D03*
X0574118Y04909D02*
D03*
X06Y0325D02*
D03*
Y0315D02*
D03*
X0695Y0375D02*
D03*
Y0365D02*
D03*
Y0355D02*
D03*
Y0345D02*
D03*
X0525D02*
D03*
X0535D02*
D03*
X055Y032D02*
D03*
Y033D02*
D03*
Y034D02*
D03*
X0545Y0345D02*
D03*
X0555D02*
D03*
Y0335D02*
D03*
X0545Y0315D02*
D03*
X0555Y0325D02*
D03*
Y0315D02*
D03*
X05551Y03756D02*
D03*
X0637Y04383D02*
D03*
X06366Y04286D02*
D03*
X06206Y04511D02*
D03*
X06617Y04187D02*
D03*
X0658925Y04475D02*
D03*
X0655Y0425D02*
D03*
Y043D02*
D03*
X05791Y04564D02*
D03*
X057Y04797D02*
D03*
X0628Y04803D02*
D03*
X0575Y048D02*
D03*
X057Y0475D02*
D03*
X0575D02*
D03*
X058D02*
D03*
X0585D02*
D03*
X059D02*
D03*
X0645D02*
D03*
Y048D02*
D03*
X063Y0475D02*
D03*
X0635D02*
D03*
X064D02*
D03*
Y048D02*
D03*
X0613Y0495D02*
D03*
X0618D02*
D03*
X0623D02*
D03*
Y049D02*
D03*
X0618D02*
D03*
X0613D02*
D03*
X059Y048D02*
D03*
X0595Y0495D02*
D03*
Y049D02*
D03*
X06D02*
D03*
Y0495D02*
D03*
X0605D02*
D03*
Y049D02*
D03*
X06362Y04522D02*
D03*
X05549Y03872D02*
D03*
X05798Y03888D02*
D03*
X05552Y04372D02*
D03*
X05531Y0368D02*
D03*
X05308Y04466D02*
D03*
X05448Y03755D02*
D03*
X05805Y03638D02*
D03*
X0684Y03519D02*
D03*
X05231Y03865D02*
D03*
X06865Y04291D02*
D03*
X05497Y04099D02*
D03*
X06662Y04636D02*
D03*
X064Y0365D02*
D03*
X0645Y037D02*
D03*
X0667Y04532D02*
D03*
X0579Y04469D02*
D03*
X0645Y0425D02*
D03*
X065Y043D02*
D03*
X06646Y04074D02*
D03*
X057Y04256D02*
D03*
Y04206D02*
D03*
X0565D02*
D03*
Y04256D02*
D03*
X065Y0425D02*
D03*
X062Y0375D02*
D03*
Y038D02*
D03*
X0645Y0375D02*
D03*
X065Y038D02*
D03*
X0645D02*
D03*
X064D02*
D03*
Y0375D02*
D03*
Y037D02*
D03*
X0615D02*
D03*
Y0375D02*
D03*
Y038D02*
D03*
X061D02*
D03*
X0595Y0375D02*
D03*
X059D02*
D03*
X0595Y038D02*
D03*
X059D02*
D03*
X06D02*
D03*
D55*
X0680614Y0470828D02*
D03*
X0695378Y047693D02*
D03*
X0689276Y0491694D02*
D03*
X0674512Y0485591D02*
D03*
X0695378D02*
D03*
X0680614Y0491694D02*
D03*
X0674512Y047693D02*
D03*
X0689276Y0470828D02*
D03*
Y031145D02*
D03*
X0674512Y0317552D02*
D03*
X0680614Y0332316D02*
D03*
X0695378Y0326213D02*
D03*
X0674512D02*
D03*
X0689276Y0332316D02*
D03*
X0695378Y0317552D02*
D03*
X0680614Y031145D02*
D03*
X0535398Y0470828D02*
D03*
X0520634Y047693D02*
D03*
X0526736Y0491694D02*
D03*
X05415Y0485591D02*
D03*
X0520634D02*
D03*
X0535398Y0491694D02*
D03*
X05415Y047693D02*
D03*
X0526736Y0470828D02*
D03*
Y031145D02*
D03*
X05415Y0317552D02*
D03*
X0535398Y0332316D02*
D03*
X0520634Y0326213D02*
D03*
X05415D02*
D03*
X0526736Y0332316D02*
D03*
X0520634Y0317552D02*
D03*
X0535398Y031145D02*
D03*
D56*
X0602602Y0431527D02*
D03*
X0606932D02*
D03*
X0611263D02*
D03*
X0615594D02*
D03*
X0602602Y0427196D02*
D03*
X0606932D02*
D03*
X0611263D02*
D03*
X0615594D02*
D03*
X0602602Y0422865D02*
D03*
X0606932D02*
D03*
X0611263D02*
D03*
X0615594D02*
D03*
X0602602Y0418535D02*
D03*
X0606932D02*
D03*
X0611263D02*
D03*
X0615594D02*
D03*
X0602602Y0414204D02*
D03*
X0606932D02*
D03*
X0611263D02*
D03*
X0615594D02*
D03*
X0602602Y0409873D02*
D03*
X0606932D02*
D03*
X0611263D02*
D03*
X0615594D02*
D03*
M02*
