G04*
G04 #@! TF.GenerationSoftware,Altium Limited,Altium Designer,21.3.2 (30)*
G04*
G04 Layer_Color=16711935*
%FSTAX25Y25*%
%MOIN*%
G70*
G04*
G04 #@! TF.SameCoordinates,9628F578-4BD6-46FA-A1BD-4C83536F310D*
G04*
G04*
G04 #@! TF.FilePolarity,Positive*
G04*
G01*
G75*
%ADD10C,0.00394*%
%ADD12C,0.00787*%
%ADD16C,0.00500*%
%ADD79R,0.11417X0.02436*%
%ADD80R,0.02436X0.11417*%
G36*
X02468Y0304871D02*
X0247981Y0306773D01*
X0245619D01*
X02468Y0304871D01*
D02*
G37*
G36*
Y0319237D02*
X0247981Y0321139D01*
X0245619D01*
X02468Y0319237D01*
D02*
G37*
G36*
Y0333506D02*
X0247981Y0335407D01*
X0245619D01*
X02468Y0333506D01*
D02*
G37*
D10*
X0266611Y0299023D02*
Y031359D01*
X0292989Y0299023D02*
Y031359D01*
X0266611Y0299023D02*
X0292989D01*
X0266611Y031359D02*
X0292989D01*
X0268898Y0325725D02*
X0275197D01*
X0268898Y0328875D02*
X0275197D01*
Y0325725D02*
Y0328875D01*
X0268898Y0325725D02*
Y0328875D01*
X0283805Y03255D02*
X0290104D01*
X0283805Y0329044D02*
X0290104D01*
Y03255D02*
Y0329044D01*
X0283805Y03255D02*
Y0329044D01*
X028375Y03352D02*
X029005D01*
X028375Y0331656D02*
X029005D01*
X028375D02*
Y03352D01*
X029005Y0331656D02*
Y03352D01*
X0266611Y0346823D02*
Y036139D01*
X0292989Y0346823D02*
Y036139D01*
X0266611Y0346823D02*
X0292989D01*
X0266611Y036139D02*
X0292989D01*
X0245591Y0402554D02*
X0257009D01*
X0245591Y0384444D02*
X0257009D01*
Y0402554D01*
X0245591Y0384444D02*
Y0402554D01*
X0245495Y0377242D02*
X0256913D01*
X0245495Y0359132D02*
X0256913D01*
Y0377242D01*
X0245495Y0359132D02*
Y0377242D01*
X0234028Y0381558D02*
X0237572D01*
X0234028Y0375259D02*
X0237572D01*
Y0381558D01*
X0234028Y0375259D02*
Y0381558D01*
X02269D02*
X0230444D01*
X02269Y0375259D02*
X0230444D01*
Y0381558D01*
X02269Y0375259D02*
Y0381558D01*
X0219828Y037528D02*
X0223372D01*
X0219828Y0381579D02*
X0223372D01*
X0219828Y037528D02*
Y0381579D01*
X0223372Y037528D02*
Y0381579D01*
X0216858Y0357595D02*
Y0369013D01*
X0234968Y0357595D02*
Y0369013D01*
X0216858D02*
X0234968D01*
X0216858Y0357595D02*
X0234968D01*
X0234856Y0341891D02*
Y0353309D01*
X0216746Y0341891D02*
Y0353309D01*
Y0341891D02*
X0234856D01*
X0216746Y0353309D02*
X0234856D01*
X0245225Y0302639D02*
Y0308938D01*
X0248375D01*
Y0302639D02*
Y0308938D01*
X0245225Y0302639D02*
X0248375D01*
X0245225Y0317005D02*
Y0323304D01*
X0248375D01*
Y0317005D02*
Y0323304D01*
X0245225Y0317005D02*
X0248375D01*
X0245225Y0331274D02*
Y0337573D01*
X0248375D01*
Y0331274D02*
Y0337573D01*
X0245225Y0331274D02*
X0248375D01*
X0245225Y0345603D02*
Y0351902D01*
X0248375Y0345603D02*
Y0351902D01*
X0245225Y0345603D02*
X0248375D01*
X0245225Y0351902D02*
X0248375D01*
X0253453Y0345603D02*
Y0351902D01*
X0256603Y0345603D02*
Y0351902D01*
X0253453Y0345603D02*
X0256603D01*
X0253453Y0351902D02*
X0256603D01*
X0253228Y0337868D02*
X0256772D01*
X0253228Y0331569D02*
X0256772D01*
Y0337868D01*
X0253228Y0331569D02*
Y0337868D01*
Y0323599D02*
X0256772D01*
X0253228Y03173D02*
X0256772D01*
Y0323599D01*
X0253228Y03173D02*
Y0323599D01*
Y0309234D02*
X0256772D01*
X0253228Y0302934D02*
X0256772D01*
Y0309234D01*
X0253228Y0302934D02*
Y0309234D01*
X0278225Y0277898D02*
X0281375D01*
X0278225Y0284197D02*
X0281375D01*
X0278225Y0277898D02*
Y0284197D01*
X0281375Y0277898D02*
Y0284197D01*
X0326963Y0355639D02*
X0334837D01*
X0326963Y0360561D02*
X0334837D01*
Y0355639D02*
Y0360561D01*
X0326963Y0355639D02*
Y0360561D01*
X0332081Y0374837D02*
X0337199D01*
X0332081Y0366963D02*
X0337199D01*
Y0374837D01*
X0332081Y0366963D02*
Y0374837D01*
X0324601D02*
X0329719D01*
X0324601Y0366963D02*
X0329719D01*
Y0374837D01*
X0324601Y0366963D02*
Y0374837D01*
X03862Y03512D02*
X03962D01*
X03862Y03112D02*
X03962D01*
Y03512D01*
X03862Y03112D02*
Y03512D01*
X0350875Y036745D02*
Y037375D01*
X0347725Y036745D02*
Y037375D01*
X0350875D01*
X0347725Y036745D02*
X0350875D01*
X0355828Y036795D02*
Y037425D01*
X0359372Y036795D02*
Y037425D01*
X0355828Y036795D02*
X0359372D01*
X0355828Y037425D02*
X0359372D01*
X0362928Y0368105D02*
X0366472D01*
X0362928Y0374404D02*
X0366472D01*
X0362928Y0368105D02*
Y0374404D01*
X0366472Y0368105D02*
Y0374404D01*
X0347825Y0337298D02*
X0350975D01*
X0347825Y0343597D02*
X0350975D01*
X0347825Y0337298D02*
Y0343597D01*
X0350975Y0337298D02*
Y0343597D01*
X0347825Y035475D02*
X0350975D01*
X0347825Y034845D02*
X0350975D01*
Y035475D01*
X0347825Y034845D02*
Y035475D01*
X0356053D02*
X0359203D01*
X0356053Y034845D02*
X0359203D01*
Y035475D01*
X0356053Y034845D02*
Y035475D01*
X0363097D02*
X0366247D01*
X0363097Y034845D02*
X0366247D01*
Y035475D01*
X0363097Y034845D02*
Y035475D01*
X0363525Y030635D02*
X0366675D01*
X0363525Y031265D02*
X0366675D01*
X0363525Y030635D02*
Y031265D01*
X0366675Y030635D02*
Y031265D01*
X0360075Y030625D02*
Y031255D01*
X0356925Y030625D02*
Y031255D01*
X0360075D01*
X0356925Y030625D02*
X0360075D01*
X0363628Y0318265D02*
X0367172D01*
X0363628Y0324564D02*
X0367172D01*
X0363628Y0318265D02*
Y0324564D01*
X0367172Y0318265D02*
Y0324564D01*
X0356728Y0324543D02*
X0360272D01*
X0356728Y0318244D02*
X0360272D01*
Y0324543D01*
X0356728Y0318244D02*
Y0324543D01*
X0347825Y0320003D02*
X0350975D01*
X0347825Y0326302D02*
X0350975D01*
X0347825Y0320003D02*
Y0326302D01*
X0350975Y0320003D02*
Y0326302D01*
X0310784Y0326317D02*
X0314328D01*
X0310784Y0320018D02*
X0314328D01*
Y0326317D01*
X0310784Y0320018D02*
Y0326317D01*
X0318284Y0326317D02*
X0321828D01*
X0318284Y0320018D02*
X0321828D01*
Y0326317D01*
X0318284Y0320018D02*
Y0326317D01*
X0318453Y027715D02*
Y028345D01*
X0321603Y027715D02*
Y028345D01*
X0318453Y027715D02*
X0321603D01*
X0318453Y028345D02*
X0321603D01*
X0318284Y029355D02*
X0321828D01*
X0318284Y029985D02*
X0321828D01*
X0318284Y029355D02*
Y029985D01*
X0321828Y029355D02*
Y029985D01*
X0310728Y0299828D02*
X0314272D01*
X0310728Y0293529D02*
X0314272D01*
Y0299828D01*
X0310728Y0293529D02*
Y0299828D01*
X0303625Y0313076D02*
X0306775D01*
X0303625Y0306777D02*
X0306775D01*
Y0313076D01*
X0303625Y0306777D02*
Y0313076D01*
X0310728Y0313062D02*
X0314272D01*
X0310728Y0306763D02*
X0314272D01*
Y0313062D01*
X0310728Y0306763D02*
Y0313062D01*
X0318228D02*
X0321772D01*
X0318228Y0306763D02*
X0321772D01*
Y0313062D01*
X0318228Y0306763D02*
Y0313062D01*
X0328675Y031985D02*
Y032615D01*
X0325525Y031985D02*
Y032615D01*
X0328675D01*
X0325525Y031985D02*
X0328675D01*
X0333228Y0319996D02*
X0336772D01*
X0333228Y0326295D02*
X0336772D01*
X0333228Y0319996D02*
Y0326295D01*
X0336772Y0319996D02*
Y0326295D01*
X0344328Y0320018D02*
Y0326317D01*
X0340784Y0320018D02*
Y0326317D01*
X0344328D01*
X0340784Y0320018D02*
X0344328D01*
X0268898Y0331825D02*
Y0334975D01*
X0275197Y0331825D02*
Y0334975D01*
X0268898D02*
X0275197D01*
X0268898Y0331825D02*
X0275197D01*
X0260325Y0366803D02*
Y0373102D01*
X0263475Y0366803D02*
Y0373102D01*
X0260325Y0366803D02*
X0263475D01*
X0260325Y0373102D02*
X0263475D01*
D12*
X0315588Y0350075D02*
G03*
X0315588Y0350075I-0000394J0D01*
G01*
X0357797Y03293D02*
G03*
X0357797Y03293I-0000394J0D01*
G01*
D16*
X0338777Y0331345D02*
Y0350656D01*
X0323423Y0331345D02*
Y0350656D01*
Y0331345D02*
X0338777D01*
X0323423Y0350656D02*
X0338777D01*
X035625Y034004D02*
X0364124D01*
Y0335119D02*
Y034004D01*
X035625Y0335119D02*
X0364124D01*
X035625D02*
Y034004D01*
D79*
X02513Y0385837D02*
D03*
X0251204Y0360524D02*
D03*
D80*
X0233576Y0363304D02*
D03*
X0218138Y03476D02*
D03*
M02*
