G04*
G04 #@! TF.GenerationSoftware,Altium Limited,Altium Designer,21.3.2 (30)*
G04*
G04 Layer_Color=128*
%FSTAX25Y25*%
%MOIN*%
G70*
G04*
G04 #@! TF.SameCoordinates,19385EB9-96A7-4604-B433-F295045984F4*
G04*
G04*
G04 #@! TF.FilePolarity,Positive*
G04*
G01*
G75*
%ADD106C,0.00200*%
D106*
X0104435Y01117D02*
X0108765D01*
X01066Y0109535D02*
Y0113865D01*
X0114435Y01117D02*
X0118765D01*
X01166Y0109535D02*
Y0113865D01*
X0104235Y01241D02*
X0108565D01*
X01064Y0121935D02*
Y0126265D01*
X0114235Y01241D02*
X0118565D01*
X01164Y0121935D02*
Y0126265D01*
X0255144Y0400435D02*
X0260656D01*
X02579Y039768D02*
Y0403191D01*
X0240144Y0400435D02*
X0245656D01*
X02429Y039768D02*
Y0403191D01*
X0164644Y0400435D02*
X0170156D01*
X01674Y039768D02*
Y0403191D01*
X0179644Y0400435D02*
X0185156D01*
X01824Y039768D02*
Y0403191D01*
X0192828Y0290363D02*
X0196371D01*
X0194599Y0288591D02*
Y0292135D01*
X0192828Y0361229D02*
X0196371D01*
X0194599Y0359457D02*
Y0363001D01*
X0153458Y0290363D02*
X0157001D01*
X0155229Y0288591D02*
Y0292135D01*
X0153458Y0361229D02*
X0157001D01*
X0155229Y0359457D02*
Y0363001D01*
X0113031Y0353D02*
X0116969D01*
X0115Y0351031D02*
Y0354969D01*
X0113031Y0363D02*
X0116969D01*
X0115Y0361032D02*
Y0364968D01*
X0105722Y0330779D02*
X0108084D01*
X0106903Y0329598D02*
Y0331961D01*
X0105722Y0290622D02*
X0108084D01*
X0106903Y0289441D02*
Y0291803D01*
X0124622Y0330779D02*
X0126984D01*
X0125803Y0329598D02*
Y0331961D01*
X0124622Y0290622D02*
X0126984D01*
X0125803Y0289441D02*
Y0291803D01*
X0104903Y0277601D02*
X0108903D01*
X0106903Y0275601D02*
Y0279601D01*
X0104903Y0267601D02*
X0108903D01*
X0106903Y0265601D02*
Y0269601D01*
X0123803Y0277601D02*
X0127803D01*
X0125803Y0275601D02*
Y0279601D01*
X0123803Y0267601D02*
X0127803D01*
X0125803Y0265601D02*
Y0269601D01*
X0123903Y0246957D02*
X0127903D01*
X0125903Y0244957D02*
Y0248957D01*
X0123903Y0256957D02*
X0127903D01*
X0125903Y0254957D02*
Y0258957D01*
X0105003Y0256657D02*
X0109003D01*
X0107003Y0254657D02*
Y0258657D01*
X0105003Y0246657D02*
X0109003D01*
X0107003Y0244657D02*
Y0248657D01*
X0105822Y0232936D02*
X0108184D01*
X0107003Y0231754D02*
Y0234117D01*
X0105822Y0192778D02*
X0108184D01*
X0107003Y0191597D02*
Y0193959D01*
X0124722Y0232936D02*
X0127084D01*
X0125903Y0231754D02*
Y0234117D01*
X0124722Y0192778D02*
X0127084D01*
X0125903Y0191597D02*
Y0193959D01*
X0190622Y018D02*
X0193378D01*
X0192Y0178622D02*
Y0181378D01*
X0200622Y018D02*
X0203378D01*
X0202Y0178622D02*
Y0181378D01*
X019094Y01938D02*
X0193302D01*
X0192121Y0192619D02*
Y0194981D01*
X0231098Y01938D02*
X023346D01*
X0232279Y0192619D02*
Y0194981D01*
X0230798Y02081D02*
X023316D01*
X0231979Y0206919D02*
Y0209281D01*
X019064Y02081D02*
X0193002D01*
X0191821Y0206919D02*
Y0209281D01*
X0170657Y0208021D02*
X0173413D01*
X0172035Y0206643D02*
Y0209399D01*
X0160657Y0208021D02*
X0163413D01*
X0162035Y0206643D02*
Y0209399D01*
X0160657Y0193011D02*
X0163413D01*
X0162035Y0191633D02*
Y0194389D01*
X0170657Y0193011D02*
X0173413D01*
X0172035Y0191633D02*
Y0194389D01*
X0160557Y0178D02*
X0163313D01*
X0161935Y0176622D02*
Y0179378D01*
X0170557Y0178D02*
X0173313D01*
X0171935Y0176622D02*
Y0179378D01*
X0200584Y016346D02*
X0203616D01*
X02021Y0161944D02*
Y0164976D01*
X0190584Y016346D02*
X0193616D01*
X01921Y0161944D02*
Y0164976D01*
X0180584Y016346D02*
X0183616D01*
X01821Y0161944D02*
Y0164976D01*
X0170584Y016346D02*
X0173616D01*
X01721Y0161944D02*
Y0164976D01*
X0160584Y016346D02*
X0163616D01*
X01621Y0161944D02*
Y0164976D01*
X0150584Y016346D02*
X0153616D01*
X01521Y0161944D02*
Y0164976D01*
X0140584Y016346D02*
X0143616D01*
X01421Y0161944D02*
Y0164976D01*
X0140584Y01322D02*
X0143616D01*
X01421Y0130684D02*
Y0133716D01*
X0150584Y01322D02*
X0153616D01*
X01521Y0130684D02*
Y0133716D01*
X0160584Y01322D02*
X0163616D01*
X01621Y0130684D02*
Y0133716D01*
X0170584Y01322D02*
X0173616D01*
X01721Y0130684D02*
Y0133716D01*
X0180584Y01322D02*
X0183616D01*
X01821Y0130684D02*
Y0133716D01*
X0190584Y01322D02*
X0193616D01*
X01921Y0130684D02*
Y0133716D01*
X0200584Y01322D02*
X0203616D01*
X02021Y0130684D02*
Y0133716D01*
X010945Y015D02*
X011255D01*
X0111Y014845D02*
Y015155D01*
X010945Y016D02*
X011255D01*
X0111Y015845D02*
Y016155D01*
X010945Y017D02*
X011255D01*
X0111Y016845D02*
Y017155D01*
X0219012Y01127D02*
X0222988D01*
X0221Y0110712D02*
Y0114688D01*
X019539Y01127D02*
X0199366D01*
X0197378Y0110712D02*
Y0114688D01*
X0137061Y0076621D02*
X0139424D01*
X0138242Y007544D02*
Y0077802D01*
X0177219Y0076621D02*
X0179581D01*
X01784Y007544D02*
Y0077802D01*
X0177219Y0092221D02*
X0179581D01*
X01784Y009104D02*
Y0093402D01*
X0137061Y0092221D02*
X0139424D01*
X0138242Y009104D02*
Y0093402D01*
X018924Y0076621D02*
X0191602D01*
X0190421Y007544D02*
Y0077802D01*
X0229398Y0076621D02*
X023176D01*
X0230579Y007544D02*
Y0077802D01*
X018924Y0092221D02*
X0191602D01*
X0190421Y009104D02*
Y0093402D01*
X0229398Y0092221D02*
X023176D01*
X0230579Y009104D02*
Y0093402D01*
X0275219Y0174479D02*
X0277581D01*
X02764Y0173298D02*
Y017566D01*
X0275219Y0134321D02*
X0277581D01*
X02764Y013314D02*
Y0135502D01*
X0257522Y0137665D02*
X0260278D01*
X02589Y0136287D02*
Y0139043D01*
X0257522Y0147665D02*
X0260278D01*
X02589Y0146287D02*
Y0149043D01*
X0294419Y0134321D02*
X0296781D01*
X02956Y013314D02*
Y0135502D01*
X0294419Y0174479D02*
X0296781D01*
X02956Y0173298D02*
Y017566D01*
X0279428Y01093D02*
X0282972D01*
X02812Y0107528D02*
Y0111072D01*
X0284428Y01093D02*
X0287972D01*
X02862Y0107528D02*
Y0111072D01*
X0289428Y01093D02*
X0292972D01*
X02912Y0107528D02*
Y0111072D01*
X0318032Y0125D02*
X0321969D01*
X032Y0123031D02*
Y0126969D01*
X0318032Y0115D02*
X0321969D01*
X032Y0113031D02*
Y0116969D01*
X0312835Y0215D02*
X0317165D01*
X0315Y0212835D02*
Y0217165D01*
X0312835Y0205D02*
X0317165D01*
X0315Y0202835D02*
Y0207165D01*
X0322835Y0215D02*
X0327165D01*
X0325Y0212835D02*
Y0217165D01*
X0322835Y0205D02*
X0327165D01*
X0325Y0202835D02*
Y0207165D01*
X0312835Y0195D02*
X0317165D01*
X0315Y0192835D02*
Y0197165D01*
X0322835Y0195D02*
X0327165D01*
X0325Y0192835D02*
Y0197165D01*
X0312835Y0165D02*
X0317165D01*
X0315Y0162835D02*
Y0167165D01*
X0322835Y0165D02*
X0327165D01*
X0325Y0162835D02*
Y0167165D01*
X0312835Y0155D02*
X0317165D01*
X0315Y0152835D02*
Y0157165D01*
X0322835Y0155D02*
X0327165D01*
X0325Y0152835D02*
Y0157165D01*
X0322835Y0175D02*
X0327165D01*
X0325Y0172835D02*
Y0177165D01*
X0312835Y0175D02*
X0317165D01*
X0315Y0172835D02*
Y0177165D01*
X0322835Y0185D02*
X0327165D01*
X0325Y0182835D02*
Y0187165D01*
X0312835Y0185D02*
X0317165D01*
X0315Y0182835D02*
Y0187165D01*
X0313858Y02575D02*
X031937D01*
X0316614Y0254744D02*
Y0260256D01*
X0313858Y02425D02*
X031937D01*
X0316614Y0239744D02*
Y0245256D01*
X0259319Y0245821D02*
X0261681D01*
X02605Y024464D02*
Y0247002D01*
X0259319Y0205664D02*
X0261681D01*
X02605Y0204483D02*
Y0206845D01*
X0242919Y0245921D02*
X0245281D01*
X02441Y024474D02*
Y0247102D01*
X0242919Y0205764D02*
X0245281D01*
X02441Y0204583D02*
Y0206945D01*
X0246222Y02588D02*
X0248978D01*
X02476Y0257422D02*
Y0260178D01*
X0256222Y02588D02*
X0258978D01*
X02576Y0257422D02*
Y0260178D01*
X0217819Y03427D02*
X0220181D01*
X0219Y0341519D02*
Y0343881D01*
X0217819Y0382857D02*
X0220181D01*
X0219Y0381676D02*
Y0384039D01*
X0234919Y03427D02*
X0237281D01*
X02361Y0341519D02*
Y0343881D01*
X0234919Y0382857D02*
X0237281D01*
X02361Y0381676D02*
Y0384039D01*
X0263719Y0378121D02*
X0266081D01*
X02649Y037694D02*
Y0379302D01*
X0253876Y0378121D02*
X0256239D01*
X0255058Y037694D02*
Y0379302D01*
X0263819Y03499D02*
X0266181D01*
X0265Y0348719D02*
Y0351081D01*
X0253976Y03499D02*
X0256339D01*
X0255157Y0348719D02*
Y0351081D01*
X0316747Y0369065D02*
X0322653D01*
X03197Y0366112D02*
Y0372017D01*
X0316747Y02906D02*
X0322653D01*
X03197Y0287647D02*
Y0293553D01*
X0144835Y02706D02*
X0149165D01*
X0147Y0268435D02*
Y0272765D01*
X0144835Y02606D02*
X0149165D01*
X0147Y0258435D02*
Y0262765D01*
X0279031Y0085D02*
X0282968D01*
X0281Y0083031D02*
Y0086968D01*
X0269032Y0085D02*
X0272969D01*
X0271Y0083031D02*
Y0086968D01*
X0221019Y0134321D02*
X0223381D01*
X02222Y013314D02*
Y0135502D01*
X0221019Y0174479D02*
X0223381D01*
X02222Y0173298D02*
Y017566D01*
X0108046Y0083324D02*
X0120644D01*
X0114345Y0077024D02*
Y0089623D01*
X0309581Y0083324D02*
X032218D01*
X031588Y0077024D02*
Y0089623D01*
X0108046Y0395114D02*
X0120644D01*
X0114345Y0388815D02*
Y0401413D01*
X0206222Y0231892D02*
X0208978D01*
X02076Y0230515D02*
Y023327D01*
X0206222Y0241893D02*
X0208978D01*
X02076Y0240514D02*
Y024327D01*
X0221622Y0231892D02*
X0224378D01*
X0223Y0230515D02*
Y023327D01*
X0221622Y0241893D02*
X0224378D01*
X0223Y0240514D02*
Y024327D01*
X0282424Y035252D02*
X0285258D01*
X0283841Y0351102D02*
Y0353937D01*
X0287542Y039248D02*
X0290376D01*
X0288959Y0391063D02*
Y0393898D01*
X0309581Y0395114D02*
X032218D01*
X031588Y0388815D02*
Y0401413D01*
X0178619Y0274121D02*
X0180981D01*
X01798Y027294D02*
Y0275302D01*
X0168776Y0274121D02*
X0171139D01*
X0169957Y027294D02*
Y0275302D01*
X0189679Y0382021D02*
X0199521D01*
X01946Y03771D02*
Y0386943D01*
X0150309Y0382021D02*
X0160151D01*
X015523Y03771D02*
Y0386943D01*
X0188365Y0253551D02*
X0191435D01*
X01899Y0252016D02*
Y0255087D01*
X0178365Y0253551D02*
X0181435D01*
X01799Y0252016D02*
Y0255087D01*
X0168365Y0253551D02*
X0171435D01*
X01699Y0252016D02*
Y0255087D01*
X0158365Y0253551D02*
X0161435D01*
X01599Y0252016D02*
Y0255087D01*
X0158365Y0222291D02*
X0161435D01*
X01599Y0220756D02*
Y0223827D01*
X0168365Y0222291D02*
X0171435D01*
X01699Y0220756D02*
Y0223827D01*
X0178365Y0222291D02*
X0181435D01*
X01799Y0220756D02*
Y0223827D01*
X0188365Y0222291D02*
X0191435D01*
X01899Y0220756D02*
Y0223827D01*
X0240419Y0134321D02*
X0242781D01*
X02416Y013314D02*
Y0135502D01*
X0240419Y0174479D02*
X0242781D01*
X02416Y0173298D02*
Y017566D01*
X0217819Y0282821D02*
X0220181D01*
X0219Y028164D02*
Y0284002D01*
X0217819Y0322979D02*
X0220181D01*
X0219Y0321798D02*
Y032416D01*
X0234513Y0321887D02*
X0238687D01*
X02366Y0319801D02*
Y0323974D01*
X0234513Y02811D02*
X0238687D01*
X02366Y0279013D02*
Y0283187D01*
X0324213Y01396D02*
X0325787D01*
X0325Y0138813D02*
Y0140387D01*
X0142913Y01516D02*
X0144487D01*
X01437Y0150813D02*
Y0152387D01*
X0161413Y01515D02*
X0162987D01*
X01622Y0150713D02*
Y0152287D01*
X0330213Y01075D02*
X0331787D01*
X0331Y0106713D02*
Y0108287D01*
X0160613Y01049D02*
X0162187D01*
X01614Y0104113D02*
Y0105687D01*
X0252813Y02487D02*
X0254387D01*
X02536Y0247913D02*
Y0249487D01*
X0251313Y02081D02*
X0252887D01*
X02521Y0207313D02*
Y0208887D01*
X0249013Y01183D02*
X0250587D01*
X02498Y0117513D02*
Y0119087D01*
X0241813Y01234D02*
X0243387D01*
X02426Y0122613D02*
Y0124187D01*
X0201513Y0220665D02*
X0203087D01*
X02023Y0219878D02*
Y0221453D01*
X0198195Y0227697D02*
X0199769D01*
X0198982Y0226909D02*
Y0228484D01*
X0123513Y02238D02*
X0125087D01*
X01243Y0223013D02*
Y0224587D01*
X0106713Y02994D02*
X0108287D01*
X01075Y0298613D02*
Y0300187D01*
X0238013Y02235D02*
X0239587D01*
X02388Y0222713D02*
Y0224287D01*
X0249313Y02705D02*
X0250887D01*
X02501Y0269713D02*
Y0271287D01*
X0171213Y01181D02*
X0172787D01*
X0172Y0117313D02*
Y0118887D01*
X0274813Y02357D02*
X0276387D01*
X02756Y0234913D02*
Y0236487D01*
X0158813Y02398D02*
X0160387D01*
X01596Y0239013D02*
Y0240587D01*
X0293713Y02648D02*
X0295287D01*
X02945Y0264013D02*
Y0265587D01*
X0263913Y02694D02*
X0265487D01*
X02647Y0268613D02*
Y0270187D01*
X0276613Y03294D02*
X0278187D01*
X02774Y0328613D02*
Y0330187D01*
X0264713Y03399D02*
X0266287D01*
X02655Y0339113D02*
Y0340687D01*
X0300286Y0347627D02*
X030186D01*
X0301073Y034684D02*
Y0348414D01*
X0302813Y01811D02*
X0304387D01*
X03036Y0180313D02*
Y0181887D01*
X0258613Y01819D02*
X0260187D01*
X02594Y0181113D02*
Y0182687D01*
X0242213Y00933D02*
X0243787D01*
X0243Y0092513D02*
Y0094087D01*
X0249313Y0086D02*
X0250887D01*
X02501Y0085213D02*
Y0086787D01*
X0129213Y02104D02*
X0130787D01*
X013Y0209613D02*
Y0211187D01*
X0249313Y01634D02*
X0250887D01*
X02501Y0162613D02*
Y0164187D01*
X0186013Y01444D02*
X0187587D01*
X01868Y0143613D02*
Y0145187D01*
X0280513Y02172D02*
X0282087D01*
X02813Y0216413D02*
Y0217987D01*
X0296713Y02175D02*
X0298287D01*
X02975Y0216713D02*
Y0218287D01*
X0284213Y028D02*
X0285787D01*
X0285Y0279213D02*
Y0280787D01*
X0299213Y028D02*
X0300787D01*
X03Y0279213D02*
Y0280787D01*
X0118026Y0072891D02*
X0119325D01*
X0118676Y0072241D02*
Y007354D01*
X0103262Y0078993D02*
X0104561D01*
X0103912Y0078343D02*
Y0079642D01*
X0109365Y0093757D02*
X0110664D01*
X0110014Y0093107D02*
Y0094406D01*
X0124128Y0087654D02*
X0125427D01*
X0124778Y0087005D02*
Y0088304D01*
X0103262Y0087654D02*
X0104561D01*
X0103912Y0087005D02*
Y0088304D01*
X0118026Y0093757D02*
X0119325D01*
X0118676Y0093107D02*
Y0094406D01*
X0124128Y0078993D02*
X0125427D01*
X0124778Y0078343D02*
Y0079642D01*
X0109365Y0072891D02*
X0110664D01*
X0110014Y0072241D02*
Y007354D01*
X0319561Y0072891D02*
X0320861D01*
X0320211Y0072241D02*
Y007354D01*
X0304798Y0078993D02*
X0306097D01*
X0305447Y0078343D02*
Y0079642D01*
X03109Y0093757D02*
X0312199D01*
X031155Y0093107D02*
Y0094406D01*
X0325664Y0087654D02*
X0326963D01*
X0326313Y0087005D02*
Y0088304D01*
X0304798Y0087654D02*
X0306097D01*
X0305447Y0087005D02*
Y0088304D01*
X0319561Y0093757D02*
X0320861D01*
X0320211Y0093107D02*
Y0094406D01*
X0325664Y0078993D02*
X0326963D01*
X0326313Y0078343D02*
Y0079642D01*
X03109Y0072891D02*
X0312199D01*
X031155Y0072241D02*
Y007354D01*
X0118026Y0384681D02*
X0119325D01*
X0118676Y0384032D02*
Y0385331D01*
X0103262Y0390784D02*
X0104561D01*
X0103912Y0390134D02*
Y0391433D01*
X0109365Y0405547D02*
X0110664D01*
X0110014Y0404898D02*
Y0406197D01*
X0124128Y0399445D02*
X0125427D01*
X0124778Y0398795D02*
Y0400095D01*
X0103262Y0399445D02*
X0104561D01*
X0103912Y0398795D02*
Y0400095D01*
X0118026Y0405547D02*
X0119325D01*
X0118676Y0404898D02*
Y0406197D01*
X0124128Y0390784D02*
X0125427D01*
X0124778Y0390134D02*
Y0391433D01*
X0109365Y0384681D02*
X0110664D01*
X0110014Y0384032D02*
Y0385331D01*
X03109Y0384681D02*
X0312199D01*
X031155Y0384032D02*
Y0385331D01*
X0325664Y0390784D02*
X0326963D01*
X0326313Y0390134D02*
Y0391433D01*
X0319561Y0405547D02*
X0320861D01*
X0320211Y0404898D02*
Y0406197D01*
X0304798Y0399445D02*
X0306097D01*
X0305447Y0398795D02*
Y0400095D01*
X0325664Y0399445D02*
X0326963D01*
X0326313Y0398795D02*
Y0400095D01*
X03109Y0405547D02*
X0312199D01*
X031155Y0404898D02*
Y0406197D01*
X0304798Y0390784D02*
X0306097D01*
X0305447Y0390134D02*
Y0391433D01*
X0319561Y0384681D02*
X0320861D01*
X0320211Y0384032D02*
Y0385331D01*
M02*
