G04*
G04 #@! TF.GenerationSoftware,Altium Limited,Altium Designer,21.3.2 (30)*
G04*
G04 Layer_Color=32896*
%FSTAX25Y25*%
%MOIN*%
G70*
G04*
G04 #@! TF.SameCoordinates,19385EB9-96A7-4604-B433-F295045984F4*
G04*
G04*
G04 #@! TF.FilePolarity,Positive*
G04*
G01*
G75*
%ADD13C,0.00787*%
%ADD16C,0.00984*%
%ADD18C,0.00600*%
G36*
X0169004Y034116D02*
X0170857D01*
Y0341088D01*
X0171017D01*
Y0341017D01*
X016945D01*
Y0340946D01*
X0169236D01*
Y0340857D01*
X0169824D01*
Y0340786D01*
X0169966D01*
Y0340714D01*
X0170126D01*
Y0340643D01*
X0170198D01*
Y0340572D01*
X017034D01*
Y03405D01*
X0170411D01*
Y0340411D01*
X0170572D01*
Y034034D01*
X0170643D01*
Y0340269D01*
X0170714D01*
Y0340198D01*
X0172121D01*
Y0340126D01*
X0172727D01*
Y0340055D01*
X0171534D01*
Y0339966D01*
X0171017D01*
Y0339895D01*
X0171088D01*
Y0339752D01*
X017116D01*
Y0339681D01*
X0171231D01*
Y0339521D01*
X0171302D01*
Y033945D01*
X0171391D01*
Y0339307D01*
X0171462D01*
Y0339165D01*
X0171534D01*
Y0338933D01*
X0171605D01*
Y033863D01*
X0171676D01*
Y0338185D01*
X0171605D01*
Y0337971D01*
X0171534D01*
Y0337829D01*
X0171462D01*
Y033774D01*
X0171391D01*
Y0337668D01*
X0171302D01*
Y0337597D01*
X0171231D01*
Y0337526D01*
X017116D01*
Y0337455D01*
X0171017D01*
Y0337384D01*
X0171605D01*
Y0337294D01*
X0171908D01*
Y0337223D01*
X0170501D01*
Y0337152D01*
X0170198D01*
Y0337081D01*
X0169895D01*
Y033701D01*
X0169681D01*
Y0336938D01*
X016945D01*
Y0336849D01*
X0169307D01*
Y0336778D01*
X0169236D01*
Y0336707D01*
X0169165D01*
Y0336564D01*
X0169236D01*
Y0336404D01*
X0169307D01*
Y0336333D01*
X0169378D01*
Y0336261D01*
X016945D01*
Y033619D01*
X016961D01*
Y0336119D01*
X0169895D01*
Y0336048D01*
X0170411D01*
Y0336119D01*
X0170643D01*
Y033619D01*
X0170714D01*
Y0336333D01*
X0170785D01*
Y0336707D01*
X0172798D01*
Y0336493D01*
X0172869D01*
Y033619D01*
X0172941D01*
Y0335674D01*
X0172869D01*
Y0335371D01*
X0172798D01*
Y0335228D01*
X0172727D01*
Y0335157D01*
X0172638D01*
Y0335068D01*
X0172567D01*
Y0334997D01*
X0172495D01*
Y0334926D01*
X0173243D01*
Y0334854D01*
X0173012D01*
Y0334783D01*
X0172282D01*
Y0334712D01*
X017205D01*
Y0334623D01*
X0171747D01*
Y0334552D01*
X0171302D01*
Y033448D01*
X0170643D01*
Y0334552D01*
X0169966D01*
Y0334623D01*
X0169681D01*
Y0334712D01*
X0169378D01*
Y0334783D01*
X0169165D01*
Y0334854D01*
X0169004D01*
Y0334926D01*
X0168791D01*
Y0334997D01*
X016863D01*
Y0335068D01*
X0168559D01*
Y0335157D01*
X0168417D01*
Y0335228D01*
X0168345D01*
Y03353D01*
X0168185D01*
Y0335371D01*
X0168114D01*
Y0335442D01*
X0168043D01*
Y0335513D01*
X01679D01*
Y0335602D01*
X0167829D01*
Y0335674D01*
X016774D01*
Y0335745D01*
X0167668D01*
Y0335887D01*
X0167597D01*
Y0335959D01*
X0167526D01*
Y0336048D01*
X0167455D01*
Y0336119D01*
X0167384D01*
Y0336261D01*
X0167294D01*
Y0336404D01*
X0167223D01*
Y0336493D01*
X0167152D01*
Y0336635D01*
X0167081D01*
Y0336849D01*
X0167009D01*
Y033701D01*
X0166938D01*
Y0337829D01*
X0167009D01*
Y0337971D01*
X01679D01*
Y0338042D01*
X0167152D01*
Y0338185D01*
X0167294D01*
Y0338274D01*
X0167384D01*
Y0338345D01*
X0167455D01*
Y0338417D01*
X0167597D01*
Y0338488D01*
X0167829D01*
Y0338559D01*
X0167971D01*
Y033863D01*
X0168274D01*
Y0338719D01*
X0168488D01*
Y0338791D01*
X0168719D01*
Y0338862D01*
X0168933D01*
Y0338933D01*
X0169165D01*
Y0339004D01*
X0169236D01*
Y0339076D01*
X0169378D01*
Y0339378D01*
X0169307D01*
Y0339521D01*
X0169165D01*
Y033961D01*
X0169004D01*
Y0339681D01*
X0168274D01*
Y033961D01*
X0168114D01*
Y033945D01*
X0168043D01*
Y0339307D01*
X0168114D01*
Y0339165D01*
X0166119D01*
Y0339307D01*
X0166048D01*
Y0339681D01*
X0165959D01*
Y0340126D01*
X0166048D01*
Y0340411D01*
X0166119D01*
Y0340572D01*
X016619D01*
Y0340714D01*
X0166261D01*
Y0340786D01*
X0166333D01*
Y0340857D01*
X0166404D01*
Y0340946D01*
X0166564D01*
Y0341017D01*
X0166707D01*
Y0341088D01*
X0166849D01*
Y034116D01*
X0167223D01*
Y0341231D01*
X0169004D01*
Y034116D01*
D02*
G37*
G36*
X0165745Y0336119D02*
X0165816D01*
Y0335959D01*
X0165887D01*
Y0335887D01*
X016619D01*
Y0335816D01*
X0166635D01*
Y0335745D01*
X0165959D01*
Y0335674D01*
X0166048D01*
Y0335602D01*
X0167223D01*
Y0335513D01*
X0166938D01*
Y0335442D01*
X0166119D01*
Y03353D01*
X016619D01*
Y0335157D01*
X0166261D01*
Y0334997D01*
X0166333D01*
Y0334854D01*
X0166404D01*
Y0334712D01*
X0166493D01*
Y033448D01*
X0164267D01*
Y0334623D01*
X0164178D01*
Y0334854D01*
X0164106D01*
Y0334997D01*
X0164035D01*
Y0335157D01*
X0163964D01*
Y03353D01*
X0163892D01*
Y0335442D01*
X0163821D01*
Y0335602D01*
X0163732D01*
Y0335816D01*
X0163661D01*
Y0335959D01*
X016359D01*
Y0336119D01*
X0163518D01*
Y0336261D01*
X0165745D01*
Y0336119D01*
D02*
G37*
G36*
X0160918Y0341088D02*
X0160989D01*
Y0340946D01*
X0161061D01*
Y0340786D01*
X016115D01*
Y0340643D01*
X0161221D01*
Y0340411D01*
X0161292D01*
Y0340269D01*
X0161363D01*
Y0340126D01*
X0161434D01*
Y0339966D01*
X0161506D01*
Y0339824D01*
X0161595D01*
Y0339681D01*
X0161666D01*
Y033945D01*
X0159814D01*
Y0339378D01*
X0159885D01*
Y0339236D01*
X0159956D01*
Y0339165D01*
X0160473D01*
Y0339076D01*
X0161061D01*
Y0339004D01*
X0160027D01*
Y0338933D01*
X0160099D01*
Y0338791D01*
X016017D01*
Y0338559D01*
X0160259D01*
Y0338417D01*
X016033D01*
Y0338274D01*
X0160401D01*
Y0338114D01*
X0160473D01*
Y0337971D01*
X0160544D01*
Y03379D01*
X016204D01*
Y0337829D01*
X0161434D01*
Y033774D01*
X0160615D01*
Y0337668D01*
X0160704D01*
Y0337455D01*
X0160775D01*
Y0337294D01*
X0160847D01*
Y0337152D01*
X0160918D01*
Y033701D01*
X0160989D01*
Y0336849D01*
X0161061D01*
Y0336707D01*
X016115D01*
Y0336493D01*
X0161221D01*
Y0336333D01*
X0161292D01*
Y033619D01*
X0161363D01*
Y0336048D01*
X0161434D01*
Y0335959D01*
X0161506D01*
Y0335887D01*
X0163002D01*
Y0335816D01*
X0162699D01*
Y0335745D01*
X0161595D01*
Y0335602D01*
X0162557D01*
Y0335513D01*
X0163518D01*
Y0335442D01*
X0162628D01*
Y0335371D01*
X0161737D01*
Y0335228D01*
X0161809D01*
Y0335068D01*
X016188D01*
Y0334926D01*
X0161951D01*
Y0334783D01*
X016204D01*
Y0334623D01*
X0162111D01*
Y033448D01*
X0159885D01*
Y0334623D01*
X0159814D01*
Y0334783D01*
X0159725D01*
Y0334926D01*
X0159653D01*
Y0335068D01*
X0159582D01*
Y0335228D01*
X0159511D01*
Y0335442D01*
X015944D01*
Y0335602D01*
X0159368D01*
Y0335745D01*
X0159279D01*
Y0335887D01*
X0159208D01*
Y0336048D01*
X0159137D01*
Y033619D01*
X0159066D01*
Y0336404D01*
X0158994D01*
Y0336564D01*
X0158923D01*
Y0336707D01*
X0158834D01*
Y0336849D01*
X0158763D01*
Y033701D01*
X0158692D01*
Y0337152D01*
X015862D01*
Y0337384D01*
X0158549D01*
Y0337526D01*
X0158478D01*
Y0337668D01*
X0158389D01*
Y0337829D01*
X0158317D01*
Y0337971D01*
X0158246D01*
Y0338114D01*
X0158175D01*
Y0338274D01*
X0158104D01*
Y0338488D01*
X0158033D01*
Y033863D01*
X0157943D01*
Y0338791D01*
X0157872D01*
Y0338933D01*
X0157801D01*
Y0339076D01*
X015773D01*
Y0339236D01*
X0157659D01*
Y033945D01*
X0155717D01*
Y0339521D01*
X0155646D01*
Y0339681D01*
X0155575D01*
Y0339824D01*
X0155503D01*
Y0339966D01*
X0155432D01*
Y0340126D01*
X0155361D01*
Y0340269D01*
X0155272D01*
Y0340411D01*
X0155877D01*
Y03405D01*
X0155432D01*
Y0340572D01*
X0155201D01*
Y0340643D01*
X0155129D01*
Y0340786D01*
X0155058D01*
Y0340946D01*
X0154987D01*
Y0341088D01*
X0154916D01*
Y0341231D01*
X0160918D01*
Y0341088D01*
D02*
G37*
G36*
X0157284Y0336048D02*
X0157356D01*
Y0335887D01*
X0157427D01*
Y0335816D01*
X0158175D01*
Y0335745D01*
X0158104D01*
Y0335674D01*
X0158246D01*
Y0335602D01*
X0157872D01*
Y0335513D01*
X0158763D01*
Y0335442D01*
X0157872D01*
Y0335371D01*
X0157659D01*
Y03353D01*
X015773D01*
Y0335068D01*
X0157801D01*
Y0334926D01*
X0157872D01*
Y0334783D01*
X0157943D01*
Y0334623D01*
X0158033D01*
Y033448D01*
X0155806D01*
Y0334623D01*
X0155717D01*
Y0334783D01*
X0155646D01*
Y0334926D01*
X0155575D01*
Y0335068D01*
X0155503D01*
Y0335228D01*
X0155432D01*
Y0335371D01*
X0155361D01*
Y0335602D01*
X0155272D01*
Y0335745D01*
X0155201D01*
Y0335887D01*
X0155129D01*
Y0336048D01*
X0155058D01*
Y033619D01*
X0157284D01*
Y0336048D01*
D02*
G37*
G36*
X0166778Y0333144D02*
X0166493D01*
Y0333518D01*
X0166778D01*
Y0333144D01*
D02*
G37*
G36*
X0158246Y0333162D02*
Y0333144D01*
X0157872D01*
Y0333518D01*
X0158246D01*
Y0333162D01*
D02*
G37*
G36*
X0164783Y0331809D02*
X0164409D01*
Y0332699D01*
X0164338D01*
Y033277D01*
X0164106D01*
Y0332699D01*
X0164035D01*
Y0332663D01*
Y0332646D01*
Y0331809D01*
X0163661D01*
Y0332842D01*
X0163732D01*
Y0333002D01*
X0163892D01*
Y0333073D01*
X0164338D01*
Y0333002D01*
X0164409D01*
Y0333073D01*
X0164783D01*
Y0331809D01*
D02*
G37*
G36*
X0157659D02*
X0157284D01*
Y0332628D01*
X0157213D01*
Y0332699D01*
X0157142D01*
Y033277D01*
X0156982D01*
Y0332699D01*
X015691D01*
Y0332628D01*
X0156839D01*
Y0331844D01*
Y0331826D01*
Y0331809D01*
X0156536D01*
Y0332931D01*
X0156608D01*
Y0333002D01*
X0156697D01*
Y0333073D01*
X0157213D01*
Y0333002D01*
X0157284D01*
Y0333073D01*
X0157659D01*
Y0331809D01*
D02*
G37*
G36*
X015602Y0333002D02*
X0156162D01*
Y0332931D01*
X0156251D01*
Y033277D01*
X0156323D01*
Y0332254D01*
X0156251D01*
Y0332111D01*
X0156162D01*
Y033204D01*
X0156091D01*
Y0331951D01*
X0155503D01*
Y033204D01*
X0155432D01*
Y033188D01*
X0155503D01*
Y0331809D01*
X015602D01*
Y033188D01*
X0156162D01*
Y0331809D01*
X0156251D01*
Y0331595D01*
X0156091D01*
Y0331506D01*
X0155361D01*
Y0331595D01*
X0155201D01*
Y0331666D01*
X0155129D01*
Y0331809D01*
X0155058D01*
Y0333073D01*
X0155432D01*
Y0333002D01*
X0155503D01*
Y0333073D01*
X015602D01*
Y0333002D01*
D02*
G37*
G36*
X0169076Y0332414D02*
Y0332396D01*
Y033204D01*
X0169004D01*
Y0331951D01*
X0168933D01*
Y033188D01*
X0168862D01*
Y0331809D01*
X0168417D01*
Y033188D01*
X0168345D01*
Y0331809D01*
X0167971D01*
Y0333073D01*
X0168345D01*
Y0332183D01*
X0168488D01*
Y0332111D01*
X0168559D01*
Y0332183D01*
X0168719D01*
Y0333073D01*
X0169076D01*
Y0332414D01*
D02*
G37*
G36*
X0161292Y0333002D02*
X0161363D01*
Y0332931D01*
X0161434D01*
Y0332842D01*
X0161506D01*
Y0332699D01*
X0161595D01*
Y0332183D01*
X0161506D01*
Y033204D01*
X0161434D01*
Y0331951D01*
X0161363D01*
Y033188D01*
X0161221D01*
Y0331809D01*
X0160704D01*
Y033188D01*
X0160544D01*
Y0331951D01*
X0160473D01*
Y0332183D01*
X0160544D01*
Y0332254D01*
X0160704D01*
Y0332183D01*
X0160775D01*
Y0332111D01*
X0161061D01*
Y0332183D01*
X016115D01*
Y0332254D01*
X0161221D01*
Y0332325D01*
X0160401D01*
Y0332699D01*
X0160473D01*
Y0332842D01*
X0160544D01*
Y0332931D01*
X0160615D01*
Y0333002D01*
X0160704D01*
Y0333073D01*
X0161292D01*
Y0333002D01*
D02*
G37*
G36*
X0159066Y0333073D02*
X0159208D01*
Y033277D01*
X0159066D01*
Y0331951D01*
X0158994D01*
Y033188D01*
X0158923D01*
Y0331809D01*
X0158478D01*
Y0332183D01*
X015862D01*
Y0332111D01*
X0158692D01*
Y0332183D01*
X0158763D01*
Y033277D01*
X0158389D01*
Y0333073D01*
X0158763D01*
Y0333376D01*
X0159066D01*
Y0333073D01*
D02*
G37*
G36*
X0172282Y0333376D02*
X0172353D01*
Y0333287D01*
X0172424D01*
Y0333216D01*
X0172495D01*
Y0332699D01*
X0172424D01*
Y0332628D01*
X0172353D01*
Y0332557D01*
X0172121D01*
Y0332485D01*
X0171836D01*
Y0332396D01*
X0171676D01*
Y0332183D01*
X0171836D01*
Y0332111D01*
X0171979D01*
Y0332183D01*
X0172193D01*
Y0332254D01*
X0172282D01*
Y0332325D01*
X0172424D01*
Y0332254D01*
X0172495D01*
Y0332183D01*
X0172567D01*
Y033204D01*
X0172495D01*
Y0331951D01*
X0172353D01*
Y033188D01*
X0172193D01*
Y0331809D01*
X0171676D01*
Y033188D01*
X0171534D01*
Y0331951D01*
X0171462D01*
Y033204D01*
X0171391D01*
Y0332183D01*
X0171302D01*
Y0332485D01*
X0171391D01*
Y0332628D01*
X0171462D01*
Y0332699D01*
X0171605D01*
Y033277D01*
X0171908D01*
Y0332842D01*
X0172121D01*
Y0332931D01*
X0172193D01*
Y0333073D01*
X0172121D01*
Y0333144D01*
X0171836D01*
Y0333127D01*
Y0333109D01*
Y0333073D01*
X0171676D01*
Y0333002D01*
X0171462D01*
Y0333144D01*
X0171391D01*
Y0333287D01*
X0171462D01*
Y0333376D01*
X0171605D01*
Y0333447D01*
X0172282D01*
Y0333376D01*
D02*
G37*
G36*
X0170785Y0333002D02*
X0170946D01*
Y0332931D01*
X0171017D01*
Y0332842D01*
X0171088D01*
Y033277D01*
X017116D01*
Y0332183D01*
X0171088D01*
Y033204D01*
X0171017D01*
Y0331951D01*
X0170946D01*
Y033188D01*
X0170785D01*
Y0331809D01*
X0170269D01*
Y033188D01*
X0170126D01*
Y0331951D01*
X0170055D01*
Y033204D01*
X0169966D01*
Y0332183D01*
X0169895D01*
Y033277D01*
X0169966D01*
Y0332842D01*
X0170055D01*
Y0332931D01*
X0170126D01*
Y0333002D01*
X0170269D01*
Y0333073D01*
X0170785D01*
Y0333002D01*
D02*
G37*
G36*
X0169681Y0331809D02*
X0169307D01*
Y03322D01*
Y0332218D01*
Y0333518D01*
X0169681D01*
Y0331809D01*
D02*
G37*
G36*
X0167668Y0333358D02*
Y0333073D01*
X0167829D01*
Y033277D01*
X0167668D01*
Y033204D01*
X0167597D01*
Y033188D01*
X0167526D01*
Y0331809D01*
X0167081D01*
Y033188D01*
X0167009D01*
Y0332183D01*
X0167294D01*
Y033277D01*
X0167009D01*
Y0333073D01*
X0167294D01*
Y0333376D01*
X0167668D01*
Y0333358D01*
D02*
G37*
G36*
X0166778Y0332628D02*
Y033261D01*
Y0331809D01*
X0166493D01*
Y0333073D01*
X0166778D01*
Y0332628D01*
D02*
G37*
G36*
X0165887Y0333002D02*
X0166048D01*
Y0332931D01*
X0166119D01*
Y0332842D01*
X016619D01*
Y0332699D01*
X0166261D01*
Y0332183D01*
X016619D01*
Y033204D01*
X0166119D01*
Y0331951D01*
X0166048D01*
Y033188D01*
X0165887D01*
Y0331809D01*
X0165371D01*
Y033188D01*
X0165228D01*
Y0331951D01*
X0165157D01*
Y033204D01*
X0165068D01*
Y0332111D01*
X0164997D01*
Y0332325D01*
X0164926D01*
Y0332557D01*
X0164997D01*
Y033277D01*
X0165068D01*
Y0332931D01*
X0165228D01*
Y0333002D01*
X01653D01*
Y0333073D01*
X0165887D01*
Y0333002D01*
D02*
G37*
G36*
X0162842Y0333144D02*
X0162325D01*
Y0331809D01*
X016204D01*
Y0333144D01*
X0161506D01*
Y0333447D01*
X0162842D01*
Y0333144D01*
D02*
G37*
G36*
X0160027Y0333002D02*
X016017D01*
Y0332842D01*
X0160259D01*
Y0332557D01*
X016017D01*
Y0332503D01*
Y0332485D01*
Y0332396D01*
X0160027D01*
Y0332325D01*
X0159814D01*
Y0332254D01*
X0159653D01*
Y0332111D01*
X0159956D01*
Y0332183D01*
X0160099D01*
Y0332254D01*
X016017D01*
Y0332183D01*
X0160259D01*
Y0332111D01*
X016033D01*
Y0331951D01*
X016017D01*
Y033188D01*
X0160027D01*
Y0331809D01*
X0159511D01*
Y033188D01*
X015944D01*
Y0331951D01*
X0159368D01*
Y033204D01*
X0159279D01*
Y0332325D01*
X0159368D01*
Y0332485D01*
X015944D01*
Y0332557D01*
X0159653D01*
Y0332628D01*
X0159885D01*
Y033277D01*
X0159582D01*
Y0332699D01*
X015944D01*
Y033277D01*
X0159368D01*
Y0333002D01*
X0159511D01*
Y0333073D01*
X0160027D01*
Y0333002D01*
D02*
G37*
G36*
X0158246Y0331809D02*
X0157872D01*
Y0333073D01*
X0158246D01*
Y0331809D01*
D02*
G37*
G36*
X0190983Y0341017D02*
X0191055D01*
Y0340857D01*
X0191126D01*
Y0340714D01*
X0191197D01*
Y0340572D01*
X0191269D01*
Y0340411D01*
X019134D01*
Y0340269D01*
X0191429D01*
Y0340126D01*
X01915D01*
Y0339895D01*
X0191571D01*
Y0339752D01*
X0191643D01*
Y033961D01*
X0191714D01*
Y033945D01*
X0191785D01*
Y0339307D01*
X0191874D01*
Y0339236D01*
X0193798D01*
Y0339165D01*
X0193424D01*
Y0339076D01*
X0192676D01*
Y0339004D01*
X0191945D01*
Y0338933D01*
X0192017D01*
Y0338791D01*
X0192088D01*
Y033863D01*
X0192159D01*
Y0338488D01*
X019223D01*
Y0338345D01*
X0192319D01*
Y0338185D01*
X0192391D01*
Y0337971D01*
X0192462D01*
Y0337829D01*
X0192533D01*
Y0337668D01*
X0192604D01*
Y0337526D01*
X0192676D01*
Y0337384D01*
X0192765D01*
Y0337223D01*
X0192836D01*
Y033701D01*
X0192907D01*
Y0336849D01*
X0192978D01*
Y0336707D01*
X019305D01*
Y0336564D01*
X0193121D01*
Y0336493D01*
X019476D01*
Y0336404D01*
X0195205D01*
Y0336333D01*
X0193869D01*
Y0336261D01*
X0193281D01*
Y0336048D01*
X0194831D01*
Y0335959D01*
X0196167D01*
Y0335887D01*
X0195721D01*
Y0335816D01*
X019394D01*
Y0335745D01*
X0193495D01*
Y0335602D01*
X0193566D01*
Y0335442D01*
X0193655D01*
Y03353D01*
X0193727D01*
Y0335068D01*
X0193798D01*
Y0334926D01*
X0193869D01*
Y0334783D01*
X019394D01*
Y0334623D01*
X0194011D01*
Y033448D01*
X0191785D01*
Y0334623D01*
X0191714D01*
Y0334783D01*
X0191643D01*
Y0334997D01*
X0191571D01*
Y0335157D01*
X01915D01*
Y03353D01*
X0191429D01*
Y0335442D01*
X019134D01*
Y0335602D01*
X0191269D01*
Y0335745D01*
X0191197D01*
Y0335959D01*
X0191126D01*
Y0336119D01*
X0191055D01*
Y0336261D01*
X0190983D01*
Y0336404D01*
X0190894D01*
Y0336564D01*
X0190823D01*
Y0336707D01*
X0190752D01*
Y0336778D01*
X0190823D01*
Y0336849D01*
X0188383D01*
Y0337081D01*
X0188312D01*
Y0337223D01*
X0188223D01*
Y0337384D01*
X0188152D01*
Y0337526D01*
X018808D01*
Y0337668D01*
X0188009D01*
Y0337829D01*
X0187938D01*
Y0338042D01*
X0187866D01*
Y0338185D01*
X0187777D01*
Y0338345D01*
X0187706D01*
Y0338488D01*
X0189933D01*
Y033863D01*
X0189861D01*
Y0338862D01*
X018979D01*
Y0339004D01*
X0189719D01*
Y0339165D01*
X0189648D01*
Y0339307D01*
X0189559D01*
Y033945D01*
X0189487D01*
Y033961D01*
X0186531D01*
Y0339824D01*
X0186442D01*
Y0339966D01*
X018637D01*
Y0340126D01*
X0186299D01*
Y0340269D01*
X0186228D01*
Y0340411D01*
X0186157D01*
Y0340572D01*
X0186085D01*
Y0340714D01*
X0186816D01*
Y0340786D01*
X0185996D01*
Y0340946D01*
X0185925D01*
Y0341088D01*
X0185854D01*
Y0341231D01*
X0190983D01*
Y0341017D01*
D02*
G37*
G36*
X0187706Y0336119D02*
X0187777D01*
Y0335959D01*
X0187866D01*
Y0335816D01*
X0187938D01*
Y0335674D01*
X0188009D01*
Y0335513D01*
X018808D01*
Y0335371D01*
X0188152D01*
Y03353D01*
X0188526D01*
Y0335228D01*
X0189345D01*
Y0335157D01*
X0188383D01*
Y0335068D01*
X0188223D01*
Y0334997D01*
X0188383D01*
Y0334926D01*
X0189933D01*
Y0334854D01*
X018979D01*
Y0334783D01*
X0188383D01*
Y0334712D01*
X0188454D01*
Y033448D01*
X0186228D01*
Y0334623D01*
X0186157D01*
Y0334854D01*
X0186085D01*
Y0334997D01*
X0185996D01*
Y0335157D01*
X0185925D01*
Y03353D01*
X0185854D01*
Y0335442D01*
X0185783D01*
Y0335674D01*
X0185711D01*
Y0335816D01*
X018564D01*
Y0335959D01*
X0185551D01*
Y0336119D01*
X018548D01*
Y0336261D01*
X0187706D01*
Y0336119D01*
D02*
G37*
G36*
X0180956Y034116D02*
X018051D01*
Y0341088D01*
X0179762D01*
Y0341017D01*
X0179691D01*
Y0340946D01*
X0179762D01*
Y0340786D01*
X0179851D01*
Y0340714D01*
X0179923D01*
Y0340643D01*
X0179994D01*
Y0340572D01*
X0180065D01*
Y0340411D01*
X0180136D01*
Y034034D01*
X0180208D01*
Y0340269D01*
X0180297D01*
Y0340198D01*
X0180368D01*
Y0340055D01*
X0180439D01*
Y0339966D01*
X018051D01*
Y0339895D01*
X0180582D01*
Y0339824D01*
X0180653D01*
Y0339681D01*
X0180742D01*
Y033961D01*
X0180813D01*
Y0339521D01*
X0180885D01*
Y033945D01*
X0180956D01*
Y0339307D01*
X0181027D01*
Y0339236D01*
X0181187D01*
Y0339165D01*
X0182968D01*
Y0339076D01*
X0183556D01*
Y0339004D01*
X0182292D01*
Y0338933D01*
X0180813D01*
Y0338862D01*
X0182594D01*
Y0338791D01*
X0182363D01*
Y0338719D01*
X0181544D01*
Y033863D01*
X0181633D01*
Y0338488D01*
X0181704D01*
Y0338417D01*
X0181775D01*
Y0338345D01*
X0181846D01*
Y0338274D01*
X0181918D01*
Y0338114D01*
X0181989D01*
Y0338042D01*
X0182078D01*
Y0337971D01*
X0182149D01*
Y03379D01*
X018222D01*
Y033774D01*
X0182292D01*
Y0337668D01*
X0182363D01*
Y0337597D01*
X0182434D01*
Y0337526D01*
X0182523D01*
Y0337384D01*
X0182594D01*
Y0337294D01*
X0182666D01*
Y0337223D01*
X0182737D01*
Y0337152D01*
X0182808D01*
Y0337081D01*
X0182879D01*
Y0336938D01*
X0182968D01*
Y0336849D01*
X018304D01*
Y0336778D01*
X0183111D01*
Y0336707D01*
X0183182D01*
Y0336564D01*
X0183253D01*
Y0336493D01*
X0183325D01*
Y0336404D01*
X0183414D01*
Y0336333D01*
X0183485D01*
Y033619D01*
X0183556D01*
Y0336119D01*
X0183627D01*
Y0336048D01*
X0183699D01*
Y0335959D01*
X018377D01*
Y0335816D01*
X0183859D01*
Y0335745D01*
X018393D01*
Y0335674D01*
X0184002D01*
Y0335602D01*
X0184073D01*
Y0335513D01*
X0184144D01*
Y0335371D01*
X0184215D01*
Y03353D01*
X0184304D01*
Y0335228D01*
X0185711D01*
Y0335068D01*
X0184963D01*
Y0334997D01*
X0184518D01*
Y0334926D01*
X0184589D01*
Y0334854D01*
X018466D01*
Y0334783D01*
X018475D01*
Y0334623D01*
X0184821D01*
Y033448D01*
X0182666D01*
Y0334623D01*
X0182594D01*
Y0334712D01*
X0182523D01*
Y0334783D01*
X0182434D01*
Y0334926D01*
X0182363D01*
Y0334997D01*
X0182292D01*
Y0335157D01*
X018222D01*
Y0335228D01*
X0182149D01*
Y03353D01*
X0182078D01*
Y0335371D01*
X0179477D01*
Y03353D01*
X0179923D01*
Y0335228D01*
X0180065D01*
Y0335068D01*
X0180136D01*
Y0334712D01*
X0180208D01*
Y033448D01*
X0177981D01*
Y0335068D01*
X017791D01*
Y0335745D01*
X0177839D01*
Y0336333D01*
X0177768D01*
Y033701D01*
X0177696D01*
Y0337205D01*
Y0337223D01*
Y0337668D01*
X0177625D01*
Y0338274D01*
X0177536D01*
Y0338933D01*
X0177465D01*
Y0339521D01*
X0177393D01*
Y0340198D01*
X0177322D01*
Y0340786D01*
X0177251D01*
Y0341231D01*
X0180956D01*
Y034116D01*
D02*
G37*
G36*
X0176129Y033619D02*
X01762D01*
Y0336048D01*
X0176289D01*
Y0335887D01*
X017636D01*
Y0335745D01*
X017718D01*
Y0335674D01*
X0176432D01*
Y0335602D01*
X0176503D01*
Y0335371D01*
X0176574D01*
Y0335228D01*
X0176645D01*
Y0335068D01*
X0176734D01*
Y0334926D01*
X0176806D01*
Y0334783D01*
X0176877D01*
Y0334623D01*
X0176948D01*
Y033448D01*
X0174722D01*
Y0334552D01*
X0174651D01*
Y0334712D01*
X0174579D01*
Y0334997D01*
X0174508D01*
Y0335068D01*
X0174419D01*
Y0335228D01*
X0174348D01*
Y0335371D01*
X0174276D01*
Y0335513D01*
X0174205D01*
Y0335674D01*
X0174134D01*
Y0335887D01*
X0174063D01*
Y0336048D01*
X0173974D01*
Y0336261D01*
X0176129D01*
Y033619D01*
D02*
G37*
G36*
X0176432Y0333144D02*
X0176058D01*
Y0333518D01*
X0176432D01*
Y0333144D01*
D02*
G37*
G36*
X0189042Y0331862D02*
Y0331844D01*
Y0331809D01*
X0188668D01*
Y0332557D01*
X0188597D01*
Y0332628D01*
X0188526D01*
Y0332699D01*
X0188312D01*
Y0333073D01*
X0188597D01*
Y0333002D01*
X0188668D01*
Y0333073D01*
X0189042D01*
Y0331862D01*
D02*
G37*
G36*
X0180813Y0331809D02*
X0180439D01*
Y0332699D01*
X0180368D01*
Y033277D01*
X0180136D01*
Y0332699D01*
X0180065D01*
Y0332254D01*
Y0332236D01*
Y0331809D01*
X0179691D01*
Y0332699D01*
X017962D01*
Y033277D01*
X0179406D01*
Y0332699D01*
X0179317D01*
Y0331809D01*
X0178961D01*
Y033277D01*
X0179032D01*
Y0332931D01*
X0179103D01*
Y0333002D01*
X0179175D01*
Y0333073D01*
X0179691D01*
Y0333002D01*
X0179762D01*
Y0332931D01*
X0179851D01*
Y0333002D01*
X0179923D01*
Y0333073D01*
X0180368D01*
Y0333002D01*
X0180439D01*
Y0333073D01*
X0180813D01*
Y0331809D01*
D02*
G37*
G36*
X0175915Y0332931D02*
X0175844D01*
Y033277D01*
X0175755D01*
Y0332628D01*
X0175684D01*
Y0332396D01*
X0175612D01*
Y0332254D01*
X0175541D01*
Y033204D01*
X017547D01*
Y033188D01*
X0175399D01*
Y0331809D01*
X0175096D01*
Y0331951D01*
X0175025D01*
Y0332111D01*
X0174953D01*
Y0332325D01*
X0174864D01*
Y0332485D01*
X0174793D01*
Y0332699D01*
X0174722D01*
Y0332842D01*
X0174651D01*
Y0333073D01*
X0175025D01*
Y0332842D01*
X0175096D01*
Y0332628D01*
X0175167D01*
Y0332485D01*
X0175238D01*
Y0332396D01*
X017531D01*
Y0332557D01*
X0175399D01*
Y033277D01*
X017547D01*
Y0333002D01*
X0175541D01*
Y0333073D01*
X0175915D01*
Y0332931D01*
D02*
G37*
G36*
X0192604Y0331951D02*
X0192533D01*
Y033188D01*
X0192391D01*
Y0331809D01*
X0192017D01*
Y033188D01*
X0191874D01*
Y0331809D01*
X0191571D01*
Y0333073D01*
X0191874D01*
Y0332254D01*
X0191945D01*
Y0332183D01*
X0192017D01*
Y0332111D01*
X0192159D01*
Y0332183D01*
X019223D01*
Y0332254D01*
X0192319D01*
Y0333073D01*
X0192604D01*
Y0331951D01*
D02*
G37*
G36*
X0191197Y0333073D02*
X019134D01*
Y0333002D01*
Y0332984D01*
Y033277D01*
X0191197D01*
Y0331951D01*
X0191126D01*
Y033188D01*
X0191055D01*
Y0331809D01*
X0190681D01*
Y033188D01*
X019061D01*
Y0332183D01*
X0190752D01*
Y0332111D01*
X0190823D01*
Y0332183D01*
X0190894D01*
Y033277D01*
X019061D01*
Y0333073D01*
X0190894D01*
Y0333376D01*
X0191197D01*
Y0333073D01*
D02*
G37*
G36*
X0190378Y033204D02*
X0190307D01*
Y033188D01*
X0190164D01*
Y0331809D01*
X0189719D01*
Y033188D01*
X0189648D01*
Y0331809D01*
X0189274D01*
Y0333073D01*
X0189648D01*
Y0332432D01*
Y0332414D01*
Y0332254D01*
X0189719D01*
Y0332183D01*
X018979D01*
Y0332111D01*
X0189933D01*
Y0332183D01*
X0190004D01*
Y0332325D01*
X0190093D01*
Y0333073D01*
X0190378D01*
Y033204D01*
D02*
G37*
G36*
X0187866Y0333002D02*
X0188009D01*
Y0332931D01*
X018808D01*
Y033277D01*
X0188152D01*
Y0332557D01*
X0188223D01*
Y0332325D01*
X0188152D01*
Y0332111D01*
X018808D01*
Y033204D01*
X0188009D01*
Y0331951D01*
X0187938D01*
Y033188D01*
X0187777D01*
Y0331809D01*
X0187332D01*
Y033188D01*
X018719D01*
Y0331951D01*
X0187118D01*
Y033204D01*
X0187047D01*
Y0332111D01*
X0187118D01*
Y0332183D01*
X018719D01*
Y0332254D01*
X0187332D01*
Y0332183D01*
X0187421D01*
Y0332111D01*
X0187706D01*
Y0332183D01*
X0187777D01*
Y0332254D01*
X0187866D01*
Y0332325D01*
X0187047D01*
Y033277D01*
X0187118D01*
Y0332931D01*
X018719D01*
Y0333002D01*
X0187332D01*
Y0333073D01*
X0187866D01*
Y0333002D01*
D02*
G37*
G36*
X0184447Y0331951D02*
X0184376D01*
Y033188D01*
X0184215D01*
Y0331809D01*
X0183859D01*
Y033188D01*
X0183699D01*
Y0331809D01*
X0183414D01*
Y0331826D01*
Y0331844D01*
Y0333073D01*
X0183699D01*
Y0332254D01*
X018377D01*
Y0332183D01*
X0183859D01*
Y0332111D01*
X0184002D01*
Y0332183D01*
X0184073D01*
Y0332254D01*
X0184144D01*
Y0333073D01*
X0184447D01*
Y0331951D01*
D02*
G37*
G36*
X018304Y0333073D02*
X0183182D01*
Y033277D01*
X018304D01*
Y0331951D01*
X0182968D01*
Y033188D01*
X0182879D01*
Y0331809D01*
X0182523D01*
Y033188D01*
X0182434D01*
Y0332183D01*
X0182594D01*
Y0332111D01*
X0182666D01*
Y0332183D01*
X0182737D01*
Y033277D01*
X0182434D01*
Y0333073D01*
X0182737D01*
Y0333376D01*
X018304D01*
Y0333073D01*
D02*
G37*
G36*
X0174205Y0333002D02*
X0174348D01*
Y0332931D01*
X0174419D01*
Y033277D01*
X0174508D01*
Y0332557D01*
X0174579D01*
Y0332325D01*
X0174508D01*
Y0332111D01*
X0174419D01*
Y0331951D01*
X0174276D01*
Y033188D01*
X0174134D01*
Y0331809D01*
X0173689D01*
Y033188D01*
X0173528D01*
Y0331951D01*
X0173457D01*
Y033204D01*
X0173386D01*
Y0332111D01*
X0173457D01*
Y0332183D01*
X0173528D01*
Y0332254D01*
X0173689D01*
Y0332183D01*
X017376D01*
Y0332111D01*
X0174063D01*
Y0332183D01*
X0174134D01*
Y0332254D01*
X0174205D01*
Y0332325D01*
X0173386D01*
Y033277D01*
X0173457D01*
Y0332931D01*
X0173528D01*
Y0333002D01*
X0173689D01*
Y0333073D01*
X0174205D01*
Y0333002D01*
D02*
G37*
G36*
X0194011Y0331809D02*
X0193655D01*
Y0332485D01*
X0192907D01*
Y033277D01*
X0193655D01*
Y0332895D01*
Y0332913D01*
Y0333144D01*
X0192836D01*
Y0333447D01*
X0194011D01*
Y0331809D01*
D02*
G37*
G36*
X018564Y0333287D02*
X0185711D01*
Y0333073D01*
X0185783D01*
Y0332931D01*
X0185854D01*
Y033277D01*
X0185925D01*
Y0332628D01*
X0185996D01*
Y0332414D01*
Y0332396D01*
X0186085D01*
Y0332254D01*
X0186157D01*
Y0332111D01*
X0186228D01*
Y033188D01*
X0186299D01*
Y0331809D01*
X0185925D01*
Y033188D01*
X0185854D01*
Y0332111D01*
X0185783D01*
Y0332183D01*
X0185106D01*
Y0332111D01*
X0185035D01*
Y0331951D01*
X0184963D01*
Y0331809D01*
X0184589D01*
Y0331951D01*
X018466D01*
Y0332183D01*
X018475D01*
Y0332325D01*
X0184821D01*
Y0332485D01*
X0184892D01*
Y0332628D01*
X0184963D01*
Y0332842D01*
X0185035D01*
Y0333002D01*
X0185106D01*
Y0333144D01*
X0185195D01*
Y0333376D01*
X0185266D01*
Y0333447D01*
X018564D01*
Y0333287D01*
D02*
G37*
G36*
X0181918Y0333002D02*
X0182078D01*
Y0332931D01*
X0182149D01*
Y0332842D01*
X018222D01*
Y0332699D01*
X0182292D01*
Y0332183D01*
X018222D01*
Y033204D01*
X0182149D01*
Y0331951D01*
X0181989D01*
Y033188D01*
X0181918D01*
Y0331809D01*
X0181401D01*
Y033188D01*
X0181258D01*
Y0331951D01*
X0181187D01*
Y033204D01*
X0181098D01*
Y0332111D01*
X0181027D01*
Y0332325D01*
X0180956D01*
Y0332557D01*
X0181027D01*
Y033277D01*
X0181098D01*
Y0332931D01*
X0181187D01*
Y0332948D01*
Y0332966D01*
Y0333002D01*
X018133D01*
Y0333073D01*
X0181918D01*
Y0333002D01*
D02*
G37*
G36*
X0178427D02*
X0178587D01*
Y0332931D01*
X0178658D01*
Y033277D01*
X0178729D01*
Y0332628D01*
X0178801D01*
Y0332254D01*
X0178729D01*
Y0332111D01*
X0178658D01*
Y0331951D01*
X0178516D01*
Y033188D01*
X0178355D01*
Y0331809D01*
X017791D01*
Y033188D01*
X0177768D01*
Y0331951D01*
X0177696D01*
Y033204D01*
X0177625D01*
Y0332111D01*
X0177536D01*
Y0332254D01*
X0177465D01*
Y0332628D01*
X0177536D01*
Y0332842D01*
X0177625D01*
Y0332931D01*
X0177696D01*
Y0333002D01*
X0177839D01*
Y0333073D01*
X0178427D01*
Y0333002D01*
D02*
G37*
G36*
X0177251Y0333073D02*
X0177393D01*
Y033277D01*
X0177251D01*
Y0331951D01*
X017718D01*
Y033188D01*
X0177091D01*
Y0331809D01*
X0176645D01*
Y033188D01*
X0176574D01*
Y0332183D01*
X0176877D01*
Y033277D01*
X0176574D01*
Y0333073D01*
X0176877D01*
Y0333376D01*
X0177251D01*
Y0333073D01*
D02*
G37*
G36*
X017636Y0332913D02*
Y0332895D01*
Y0331809D01*
X0176058D01*
Y0333073D01*
X017636D01*
Y0332913D01*
D02*
G37*
G36*
X0284403Y0275561D02*
X0284558Y0275544D01*
X0284708Y0275522D01*
X0284841Y0275489D01*
X0284969Y0275455D01*
X0285091Y0275411D01*
X0285196Y0275366D01*
X0285291Y0275322D01*
X0285379Y0275278D01*
X0285457Y0275233D01*
X0285518Y0275189D01*
X0285574Y0275156D01*
X0285613Y0275122D01*
X0285646Y02751D01*
X0285662Y0275083D01*
X0285668Y0275078D01*
X0285762Y0274984D01*
X028584Y0274884D01*
X0285912Y0274778D01*
X0285968Y0274673D01*
X0286018Y0274567D01*
X0286062Y0274462D01*
X0286095Y0274362D01*
X0286123Y0274268D01*
X0286145Y0274173D01*
X0286162Y027409D01*
X0286173Y0274012D01*
X0286179Y0273951D01*
X0286184Y0273896D01*
X028619Y0273857D01*
Y0273824D01*
X0286184Y0273707D01*
X0286179Y0273602D01*
X0286162Y0273496D01*
X028614Y0273402D01*
X0286118Y0273313D01*
X0286095Y027323D01*
X0286068Y0273152D01*
X0286034Y027308D01*
X0286006Y0273019D01*
X0285979Y0272963D01*
X0285957Y0272913D01*
X0285934Y0272874D01*
X0285912Y0272841D01*
X0285895Y0272819D01*
X028589Y0272808D01*
X0285884Y0272802D01*
X0285823Y027273D01*
X0285757Y0272664D01*
X0285607Y0272541D01*
X0285452Y0272442D01*
X0285302Y0272364D01*
X0285229Y0272331D01*
X0285163Y0272303D01*
X0285102Y0272281D01*
X0285052Y0272258D01*
X0285008Y0272242D01*
X0284974Y0272231D01*
X0284952Y0272225D01*
X0284946D01*
X0284713Y027298D01*
X0284863Y0273024D01*
X0284991Y0273074D01*
X0285096Y0273124D01*
X0285185Y027318D01*
X0285252Y0273224D01*
X0285296Y0273263D01*
X0285324Y0273291D01*
X0285335Y0273302D01*
X0285402Y0273391D01*
X0285446Y027348D01*
X0285479Y0273568D01*
X0285507Y0273646D01*
X0285518Y0273718D01*
X0285524Y0273779D01*
X0285529Y0273801D01*
Y0273829D01*
X0285524Y0273907D01*
X0285518Y0273979D01*
X0285479Y0274112D01*
X0285435Y0274229D01*
X0285374Y0274323D01*
X0285318Y0274401D01*
X0285274Y0274456D01*
X0285252Y0274479D01*
X0285235Y0274495D01*
X0285229Y0274501D01*
X0285224Y0274506D01*
X0285163Y0274551D01*
X0285091Y0274589D01*
X0285013Y0274628D01*
X028493Y0274656D01*
X0284758Y02747D01*
X0284586Y0274734D01*
X0284503Y0274745D01*
X028443Y027475D01*
X0284358Y0274762D01*
X0284297D01*
X0284253Y0274767D01*
X0284214D01*
X0284186D01*
X0284181D01*
X0284053Y0274762D01*
X0283936Y0274756D01*
X0283831Y0274745D01*
X0283731Y0274728D01*
X0283642Y0274706D01*
X0283559Y0274684D01*
X0283487Y0274662D01*
X028342Y0274634D01*
X0283365Y0274612D01*
X0283315Y0274589D01*
X0283276Y0274567D01*
X0283243Y0274545D01*
X0283215Y0274528D01*
X0283198Y0274517D01*
X0283187Y0274506D01*
X0283182D01*
X0283126Y0274456D01*
X0283076Y0274401D01*
X0283037Y0274345D01*
X0283004Y0274284D01*
X0282948Y0274168D01*
X028291Y0274057D01*
X0282887Y0273962D01*
X0282882Y0273918D01*
X0282876Y0273885D01*
X0282871Y0273851D01*
Y0273813D01*
X0282876Y0273702D01*
X0282898Y0273602D01*
X0282926Y0273513D01*
X028296Y0273435D01*
X0282993Y0273374D01*
X0283021Y027333D01*
X0283043Y0273302D01*
X0283048Y0273291D01*
X0283115Y0273219D01*
X0283193Y0273152D01*
X028327Y0273102D01*
X0283348Y0273063D01*
X0283415Y0273036D01*
X0283465Y0273019D01*
X0283487Y0273008D01*
X0283504D01*
X0283509Y0273002D01*
X0283515D01*
X0283331Y0272236D01*
X0283171Y0272292D01*
X0283032Y0272353D01*
X028291Y0272419D01*
X028281Y0272481D01*
X0282732Y0272541D01*
X0282699Y0272564D01*
X0282671Y0272586D01*
X0282654Y0272603D01*
X0282638Y0272619D01*
X0282627Y0272625D01*
Y027263D01*
X0282554Y0272714D01*
X0282488Y0272808D01*
X0282432Y0272897D01*
X0282388Y0272991D01*
X0282344Y0273091D01*
X028231Y0273185D01*
X0282282Y027328D01*
X028226Y0273369D01*
X0282244Y0273452D01*
X0282232Y0273529D01*
X0282221Y0273596D01*
X0282216Y0273657D01*
X028221Y0273707D01*
Y0273774D01*
X0282216Y0273918D01*
X0282232Y0274062D01*
X028226Y027419D01*
X0282294Y0274318D01*
X0282332Y0274429D01*
X0282377Y0274539D01*
X0282427Y0274634D01*
X0282477Y0274723D01*
X0282527Y0274806D01*
X0282577Y0274872D01*
X0282621Y0274934D01*
X028266Y0274984D01*
X0282693Y0275022D01*
X0282721Y027505D01*
X0282738Y0275067D01*
X0282743Y0275072D01*
X0282849Y0275161D01*
X028296Y0275233D01*
X0283076Y02753D01*
X0283198Y0275355D01*
X0283326Y0275405D01*
X0283448Y0275444D01*
X028357Y0275478D01*
X0283687Y0275505D01*
X0283803Y0275527D01*
X0283903Y0275538D01*
X0283997Y027555D01*
X0284075Y0275561D01*
X0284142D01*
X0284192Y0275566D01*
X0284225D01*
X028423D01*
X0284236D01*
X0284403Y0275561D01*
D02*
G37*
G36*
X0286123Y0269234D02*
X028544D01*
Y0270699D01*
X0285368Y0270655D01*
X0285307Y0270605D01*
X0285279Y0270582D01*
X0285257Y0270566D01*
X0285246Y0270555D01*
X0285241Y0270549D01*
X0285218Y0270527D01*
X0285191Y0270505D01*
X028513Y0270438D01*
X0285057Y0270366D01*
X0284985Y0270294D01*
X0284919Y0270222D01*
X0284863Y0270161D01*
X0284841Y0270138D01*
X0284824Y0270122D01*
X0284819Y0270111D01*
X0284813Y0270105D01*
X0284697Y0269983D01*
X0284602Y0269883D01*
X0284514Y02698D01*
X0284447Y0269733D01*
X0284391Y0269683D01*
X0284353Y026965D01*
X0284325Y0269628D01*
X0284319Y0269622D01*
X0284225Y026955D01*
X0284136Y0269489D01*
X0284053Y0269439D01*
X0283981Y02694D01*
X028392Y0269367D01*
X028387Y0269345D01*
X0283842Y0269334D01*
X0283831Y0269328D01*
X0283742Y0269295D01*
X0283653Y0269273D01*
X028357Y0269256D01*
X0283492Y0269245D01*
X0283431Y0269239D01*
X0283381Y0269234D01*
X0283348D01*
X0283337D01*
X0283254Y0269239D01*
X0283171Y026925D01*
X0283093Y0269262D01*
X0283021Y0269284D01*
X0282893Y0269339D01*
X0282782Y0269395D01*
X0282732Y0269428D01*
X0282693Y0269456D01*
X0282654Y0269483D01*
X0282627Y0269511D01*
X0282604Y0269533D01*
X0282582Y0269545D01*
X0282577Y0269556D01*
X0282571Y0269561D01*
X0282516Y0269622D01*
X0282466Y0269694D01*
X0282427Y0269761D01*
X0282394Y0269839D01*
X0282338Y0269983D01*
X0282299Y0270127D01*
X0282288Y0270194D01*
X0282277Y0270255D01*
X0282271Y027031D01*
X0282266Y027036D01*
X028226Y0270399D01*
Y0270455D01*
X0282266Y0270549D01*
X0282271Y0270638D01*
X0282299Y027081D01*
X0282344Y0270954D01*
X0282366Y0271021D01*
X0282394Y0271082D01*
X0282416Y0271137D01*
X0282443Y0271182D01*
X0282466Y0271226D01*
X0282482Y0271259D01*
X0282505Y0271287D01*
X0282516Y0271304D01*
X0282521Y0271315D01*
X0282527Y0271321D01*
X0282582Y0271382D01*
X0282638Y0271437D01*
X0282704Y0271487D01*
X0282776Y0271531D01*
X0282921Y0271598D01*
X028306Y0271654D01*
X0283132Y027167D01*
X0283193Y0271687D01*
X0283248Y0271704D01*
X0283298Y0271709D01*
X0283343Y027172D01*
X028337D01*
X0283393Y0271726D01*
X0283398D01*
X028347Y0270993D01*
X0283359Y0270982D01*
X0283265Y027096D01*
X0283182Y0270938D01*
X028312Y027091D01*
X0283071Y0270888D01*
X0283037Y0270865D01*
X0283015Y0270849D01*
X028301Y0270843D01*
X0282965Y0270788D01*
X0282932Y0270727D01*
X0282904Y0270666D01*
X0282887Y0270605D01*
X0282876Y0270555D01*
X0282871Y027051D01*
Y0270471D01*
X0282876Y0270388D01*
X0282893Y0270316D01*
X0282915Y0270255D01*
X0282937Y0270199D01*
X028296Y0270161D01*
X0282982Y0270127D01*
X0282998Y0270111D01*
X0283004Y0270105D01*
X028306Y0270061D01*
X028312Y0270027D01*
X0283182Y0270005D01*
X0283243Y0269988D01*
X0283298Y0269977D01*
X0283348Y0269972D01*
X0283376D01*
X0283381D01*
X0283387D01*
X028347Y0269977D01*
X0283548Y0269994D01*
X0283626Y0270022D01*
X0283692Y027005D01*
X0283753Y0270077D01*
X0283798Y0270105D01*
X0283825Y0270122D01*
X0283837Y0270127D01*
X028387Y0270149D01*
X0283909Y0270183D01*
X0283959Y0270227D01*
X0284003Y0270272D01*
X0284108Y0270372D01*
X0284214Y0270471D01*
X0284314Y0270571D01*
X0284358Y0270616D01*
X0284391Y027066D01*
X0284425Y0270693D01*
X0284447Y0270716D01*
X0284464Y0270732D01*
X0284469Y0270738D01*
X0284575Y0270849D01*
X0284675Y0270949D01*
X0284769Y0271043D01*
X0284852Y0271126D01*
X0284935Y0271204D01*
X0285013Y0271271D01*
X028508Y0271332D01*
X0285146Y0271382D01*
X0285202Y0271426D01*
X0285252Y0271465D01*
X0285291Y0271498D01*
X0285329Y027152D01*
X0285352Y0271543D01*
X0285374Y0271554D01*
X0285385Y0271565D01*
X028539D01*
X0285518Y0271637D01*
X0285651Y0271692D01*
X0285773Y0271737D01*
X0285884Y027177D01*
X0285984Y0271792D01*
X0286023Y0271798D01*
X0286056Y0271803D01*
X0286084Y0271809D01*
X0286106Y0271814D01*
X0286118D01*
X0286123D01*
Y0269234D01*
D02*
G37*
G36*
X0311168Y0304601D02*
X031104Y0304545D01*
X0310923Y0304473D01*
X0310812Y0304395D01*
X0310723Y0304317D01*
X0310651Y0304251D01*
X0310596Y030419D01*
X0310574Y0304168D01*
X0310557Y0304151D01*
X0310551Y030414D01*
X0310546Y0304134D01*
X0310457Y0304012D01*
X0310379Y0303896D01*
X0310318Y030379D01*
X0310274Y0303696D01*
X0310241Y0303618D01*
X0310213Y0303563D01*
X0310207Y030354D01*
X0310202Y0303524D01*
X0310196Y0303518D01*
Y0303513D01*
X030953D01*
X0309608Y0303713D01*
X0309691Y030389D01*
X0309736Y0303973D01*
X0309786Y0304051D01*
X030983Y0304123D01*
X0309874Y030419D01*
X0309919Y0304251D01*
X0309958Y0304306D01*
X0309991Y0304351D01*
X0310024Y030439D01*
X0310052Y0304423D01*
X0310069Y0304445D01*
X031008Y0304456D01*
X0310085Y0304462D01*
X0307305D01*
Y03052D01*
X0311168D01*
Y0304601D01*
D02*
G37*
G36*
X0311145Y0301887D02*
X0309014D01*
X0308931D01*
X0308853D01*
X0308781Y0301881D01*
X0308714D01*
X0308659Y0301875D01*
X0308603D01*
X0308553Y030187D01*
X0308509D01*
X0308442Y0301859D01*
X0308393Y0301853D01*
X0308365Y0301848D01*
X0308354D01*
X0308281Y0301831D01*
X030822Y0301803D01*
X0308165Y030177D01*
X0308115Y0301737D01*
X0308076Y0301704D01*
X0308048Y0301676D01*
X0308032Y0301654D01*
X0308026Y0301648D01*
X0307982Y0301581D01*
X0307948Y0301498D01*
X0307926Y030142D01*
X030791Y0301337D01*
X0307898Y0301265D01*
X0307893Y0301209D01*
Y0301154D01*
X0307898Y0301038D01*
X0307915Y0300938D01*
X0307937Y0300849D01*
X0307965Y0300771D01*
X0307987Y0300716D01*
X030801Y0300671D01*
X0308026Y0300649D01*
X0308032Y0300638D01*
X0308087Y0300577D01*
X0308154Y0300527D01*
X0308215Y0300483D01*
X0308276Y0300455D01*
X0308331Y0300432D01*
X0308376Y0300416D01*
X0308404Y0300405D01*
X0308415D01*
X0308448Y0300399D01*
X0308481Y0300394D01*
X0308526D01*
X0308576Y0300388D01*
X0308681Y0300383D01*
X0308792D01*
X0308892Y0300377D01*
X0308936D01*
X0308981D01*
X0309014D01*
X0309036D01*
X0309053D01*
X0309058D01*
X0311145D01*
Y02996D01*
X0309092D01*
X0308975D01*
X0308864Y0299606D01*
X0308759D01*
X0308664Y0299611D01*
X0308576Y0299617D01*
X0308498Y0299622D01*
X0308426Y0299628D01*
X0308359Y0299639D01*
X0308304Y0299644D01*
X0308254Y029965D01*
X0308209Y0299656D01*
X0308176Y0299661D01*
X0308148Y0299667D01*
X0308132D01*
X030812Y0299672D01*
X0308115D01*
X0308032Y02997D01*
X0307954Y0299728D01*
X0307882Y0299766D01*
X0307821Y02998D01*
X0307765Y0299833D01*
X0307721Y0299861D01*
X0307699Y0299883D01*
X0307688Y0299889D01*
X0307615Y0299955D01*
X0307549Y0300027D01*
X0307493Y0300105D01*
X0307443Y0300177D01*
X0307405Y0300238D01*
X0307377Y0300294D01*
X030736Y0300327D01*
X0307355Y0300333D01*
Y0300338D01*
X0307332Y0300394D01*
X0307316Y0300455D01*
X0307282Y0300593D01*
X030726Y0300732D01*
X0307249Y0300865D01*
X0307244Y0300926D01*
X0307238Y0300988D01*
Y0301038D01*
X0307232Y0301087D01*
Y0301176D01*
X0307238Y0301337D01*
X0307249Y0301482D01*
X0307271Y0301609D01*
X0307294Y0301715D01*
X0307299Y0301759D01*
X030731Y0301803D01*
X0307321Y0301837D01*
X0307332Y0301864D01*
X0307338Y0301887D01*
X0307344Y0301903D01*
X0307349Y0301909D01*
Y0301914D01*
X0307394Y0302014D01*
X0307449Y0302103D01*
X0307499Y0302181D01*
X0307549Y0302247D01*
X0307593Y0302297D01*
X0307627Y0302336D01*
X0307649Y0302358D01*
X030766Y0302364D01*
X0307738Y0302425D01*
X0307821Y0302475D01*
X0307898Y0302514D01*
X0307976Y0302547D01*
X0308043Y0302569D01*
X0308098Y0302586D01*
X0308115Y0302591D01*
X0308132D01*
X0308137Y0302597D01*
X0308143D01*
X0308204Y0302608D01*
X030827Y0302619D01*
X0308343Y030263D01*
X0308415Y0302636D01*
X0308581Y0302647D01*
X0308742Y0302658D01*
X0308814D01*
X0308886D01*
X0308953Y0302664D01*
X0309009D01*
X0309053D01*
X0309092D01*
X0309114D01*
X030912D01*
X0311145D01*
Y0301887D01*
D02*
G37*
G36*
X0291291Y0336412D02*
X0291363Y0336296D01*
X0291441Y0336185D01*
X0291519Y0336096D01*
X0291585Y0336024D01*
X0291646Y0335968D01*
X0291669Y0335946D01*
X0291685Y0335929D01*
X0291696Y0335924D01*
X0291702Y0335918D01*
X0291824Y0335829D01*
X029194Y0335752D01*
X0292046Y0335691D01*
X029214Y0335646D01*
X0292218Y0335613D01*
X0292273Y0335585D01*
X0292296Y033558D01*
X0292312Y0335574D01*
X0292318Y0335568D01*
X0292323D01*
Y0334903D01*
X0292124Y033498D01*
X0291946Y0335063D01*
X0291863Y0335108D01*
X0291785Y0335158D01*
X0291713Y0335202D01*
X0291646Y0335247D01*
X0291585Y0335291D01*
X029153Y033533D01*
X0291485Y0335363D01*
X0291446Y0335396D01*
X0291413Y0335424D01*
X0291391Y0335441D01*
X029138Y0335452D01*
X0291374Y0335457D01*
Y0332677D01*
X0290636D01*
Y033654D01*
X0291236D01*
X0291291Y0336412D01*
D02*
G37*
G36*
X0294715Y0336584D02*
X029486Y0336567D01*
X0294987Y033654D01*
X0295115Y0336506D01*
X0295226Y0336468D01*
X0295337Y0336423D01*
X0295431Y0336373D01*
X029552Y0336323D01*
X0295603Y0336273D01*
X029567Y0336223D01*
X0295731Y0336179D01*
X0295781Y033614D01*
X029582Y0336107D01*
X0295848Y0336079D01*
X0295864Y0336062D01*
X029587Y0336057D01*
X0295959Y0335951D01*
X0296031Y033584D01*
X0296097Y0335724D01*
X0296153Y0335602D01*
X0296203Y0335474D01*
X0296242Y0335352D01*
X0296275Y033523D01*
X0296303Y0335113D01*
X0296325Y0334997D01*
X0296336Y0334897D01*
X0296347Y0334803D01*
X0296358Y0334725D01*
Y0334658D01*
X0296364Y0334608D01*
Y0334575D01*
Y033457D01*
Y0334564D01*
X0296358Y0334397D01*
X0296342Y0334242D01*
X0296319Y0334092D01*
X0296286Y0333959D01*
X0296253Y0333831D01*
X0296208Y0333709D01*
X0296164Y0333604D01*
X029612Y0333509D01*
X0296075Y0333421D01*
X0296031Y0333343D01*
X0295986Y0333282D01*
X0295953Y0333226D01*
X029592Y0333188D01*
X0295898Y0333154D01*
X0295881Y0333138D01*
X0295875Y0333132D01*
X0295781Y0333038D01*
X0295681Y033296D01*
X0295576Y0332888D01*
X029547Y0332832D01*
X0295365Y0332782D01*
X0295259Y0332738D01*
X029516Y0332705D01*
X0295065Y0332677D01*
X0294971Y0332655D01*
X0294887Y0332638D01*
X029481Y0332627D01*
X0294749Y0332621D01*
X0294693Y0332616D01*
X0294654Y033261D01*
X0294621D01*
X0294505Y0332616D01*
X0294399Y0332621D01*
X0294294Y0332638D01*
X0294199Y033266D01*
X029411Y0332682D01*
X0294027Y0332705D01*
X029395Y0332732D01*
X0293877Y0332766D01*
X0293816Y0332793D01*
X0293761Y0332821D01*
X0293711Y0332843D01*
X0293672Y0332866D01*
X0293639Y0332888D01*
X0293617Y0332905D01*
X0293605Y033291D01*
X02936Y0332916D01*
X0293528Y0332977D01*
X0293461Y0333043D01*
X0293339Y0333193D01*
X0293239Y0333348D01*
X0293162Y0333498D01*
X0293128Y0333571D01*
X02931Y0333637D01*
X0293078Y0333698D01*
X0293056Y0333748D01*
X0293039Y0333792D01*
X0293028Y0333826D01*
X0293023Y0333848D01*
Y0333854D01*
X0293777Y0334087D01*
X0293822Y0333937D01*
X0293872Y0333809D01*
X0293922Y0333704D01*
X0293977Y0333615D01*
X0294022Y0333548D01*
X0294061Y0333504D01*
X0294088Y0333476D01*
X0294099Y0333465D01*
X0294188Y0333398D01*
X0294277Y0333354D01*
X0294366Y0333321D01*
X0294443Y0333293D01*
X0294516Y0333282D01*
X0294577Y0333276D01*
X0294599Y0333271D01*
X0294627D01*
X0294704Y0333276D01*
X0294777Y0333282D01*
X029491Y0333321D01*
X0295026Y0333365D01*
X0295121Y0333426D01*
X0295198Y0333482D01*
X0295254Y0333526D01*
X0295276Y0333548D01*
X0295293Y0333565D01*
X0295298Y0333571D01*
X0295304Y0333576D01*
X0295348Y0333637D01*
X0295387Y0333709D01*
X0295426Y0333787D01*
X0295454Y033387D01*
X0295498Y0334042D01*
X0295531Y0334214D01*
X0295542Y0334297D01*
X0295548Y033437D01*
X0295559Y0334442D01*
Y0334503D01*
X0295565Y0334547D01*
Y0334586D01*
Y0334614D01*
Y0334619D01*
X0295559Y0334747D01*
X0295553Y0334864D01*
X0295542Y0334969D01*
X0295526Y0335069D01*
X0295503Y0335158D01*
X0295481Y0335241D01*
X0295459Y0335313D01*
X0295431Y033538D01*
X0295409Y0335435D01*
X0295387Y0335485D01*
X0295365Y0335524D01*
X0295343Y0335557D01*
X0295326Y0335585D01*
X0295315Y0335602D01*
X0295304Y0335613D01*
Y0335618D01*
X0295254Y0335674D01*
X0295198Y0335724D01*
X0295143Y0335763D01*
X0295082Y0335796D01*
X0294965Y0335852D01*
X0294854Y033589D01*
X029476Y0335913D01*
X0294715Y0335918D01*
X0294682Y0335924D01*
X0294649Y0335929D01*
X029461D01*
X0294499Y0335924D01*
X0294399Y0335901D01*
X029431Y0335874D01*
X0294233Y033584D01*
X0294172Y0335807D01*
X0294127Y0335779D01*
X0294099Y0335757D01*
X0294088Y0335752D01*
X0294016Y0335685D01*
X029395Y0335607D01*
X02939Y033553D01*
X0293861Y0335452D01*
X0293833Y0335385D01*
X0293816Y0335335D01*
X0293805Y0335313D01*
Y0335297D01*
X02938Y0335291D01*
Y0335285D01*
X0293034Y0335469D01*
X0293089Y033563D01*
X029315Y0335768D01*
X0293217Y033589D01*
X0293278Y033599D01*
X0293339Y0336068D01*
X0293361Y0336101D01*
X0293383Y0336129D01*
X02934Y0336146D01*
X0293417Y0336162D01*
X0293422Y0336173D01*
X0293428D01*
X0293511Y0336246D01*
X0293605Y0336312D01*
X0293694Y0336368D01*
X0293789Y0336412D01*
X0293888Y0336456D01*
X0293983Y033649D01*
X0294077Y0336518D01*
X0294166Y033654D01*
X0294249Y0336556D01*
X0294327Y0336567D01*
X0294394Y0336579D01*
X0294455Y0336584D01*
X0294505Y033659D01*
X0294571D01*
X0294715Y0336584D01*
D02*
G37*
%LPC*%
G36*
X0155877Y033277D02*
X0155575D01*
Y0332699D01*
X0155432D01*
Y0332325D01*
X0155503D01*
Y0332254D01*
X0155877D01*
Y0332325D01*
X0155949D01*
Y0332485D01*
X015602D01*
Y0332539D01*
Y0332557D01*
X0155949D01*
Y0332699D01*
X0155877D01*
Y033277D01*
D02*
G37*
G36*
X016115D02*
X0160847D01*
Y0332699D01*
X0160775D01*
Y0332557D01*
X0161221D01*
Y0332699D01*
X016115D01*
Y033277D01*
D02*
G37*
G36*
X0170643D02*
X0170411D01*
Y0332735D01*
Y0332717D01*
Y0332699D01*
X017034D01*
Y0332628D01*
X0170269D01*
Y0332557D01*
X0170198D01*
Y0332396D01*
X0170269D01*
Y0332254D01*
X017034D01*
Y0332183D01*
X0170411D01*
Y0332111D01*
X0170643D01*
Y0332183D01*
X0170714D01*
Y0332254D01*
X0170785D01*
Y0332396D01*
X0170857D01*
Y0332557D01*
X0170785D01*
Y0332699D01*
X0170643D01*
Y033277D01*
D02*
G37*
G36*
X0165745D02*
X0165442D01*
Y0332699D01*
X0165371D01*
Y0332557D01*
X01653D01*
Y0332325D01*
X0165371D01*
Y0332183D01*
X0165513D01*
Y0332111D01*
X0165745D01*
Y0332183D01*
X0165816D01*
Y0332254D01*
X0165887D01*
Y0332628D01*
X0165816D01*
Y0332699D01*
X0165745D01*
Y033277D01*
D02*
G37*
G36*
X0179477Y0338933D02*
X0179406D01*
Y033863D01*
X0179477D01*
Y0338381D01*
Y0338363D01*
Y0338274D01*
X0179549D01*
Y0337829D01*
X017962D01*
Y0337455D01*
X0179691D01*
Y033701D01*
X0179762D01*
Y0336938D01*
X0179549D01*
Y0336849D01*
X0180956D01*
Y0336938D01*
X0180885D01*
Y033701D01*
X0180813D01*
Y0337081D01*
X0180742D01*
Y0337223D01*
X0180653D01*
Y0337294D01*
X0180582D01*
Y0337384D01*
X018051D01*
Y0337526D01*
X0180439D01*
Y0337597D01*
X0180368D01*
Y033774D01*
X0180297D01*
Y0337829D01*
X0180208D01*
Y03379D01*
X0180136D01*
Y0338042D01*
X0180065D01*
Y0338114D01*
X0179994D01*
Y0338185D01*
X0179923D01*
Y0338345D01*
X0179851D01*
Y0338417D01*
X0179762D01*
Y0338488D01*
X0179691D01*
Y033863D01*
X017962D01*
Y0338719D01*
X0179549D01*
Y0338791D01*
X0179477D01*
Y0338933D01*
D02*
G37*
G36*
X0187706Y033277D02*
X0187493D01*
Y0332699D01*
X0187421D01*
Y0332628D01*
X0187332D01*
Y0332557D01*
X0187866D01*
Y0332628D01*
X0187777D01*
Y0332699D01*
X0187706D01*
Y033277D01*
D02*
G37*
G36*
X0174063D02*
X0173831D01*
Y0332699D01*
X017376D01*
Y0332628D01*
X0173689D01*
Y0332557D01*
X0174205D01*
Y0332628D01*
X0174134D01*
Y0332646D01*
Y0332663D01*
Y0332699D01*
X0174063D01*
Y033277D01*
D02*
G37*
G36*
X018548Y0332931D02*
X0185409D01*
Y0332842D01*
X0185337D01*
Y0332628D01*
X0185266D01*
Y0332557D01*
X018564D01*
Y0332628D01*
X0185551D01*
Y033277D01*
X018548D01*
Y0332824D01*
Y0332842D01*
Y0332931D01*
D02*
G37*
G36*
X0181775Y033277D02*
X0181472D01*
Y0332699D01*
X0181401D01*
Y0332557D01*
X018133D01*
Y0332325D01*
X0181401D01*
Y0332183D01*
X0181544D01*
Y0332111D01*
X0181704D01*
Y0332183D01*
X0181846D01*
Y0332254D01*
X0181918D01*
Y0332628D01*
X0181846D01*
Y0332699D01*
X0181775D01*
Y033277D01*
D02*
G37*
G36*
X0178284D02*
X0177981D01*
Y0332699D01*
X017791D01*
Y0332628D01*
X0177839D01*
Y0332254D01*
X017791D01*
Y0332183D01*
X017807D01*
Y0332111D01*
X0178213D01*
Y0332183D01*
X0178355D01*
Y0332254D01*
X0178427D01*
Y0332628D01*
X0178355D01*
Y0332699D01*
X0178284D01*
Y033277D01*
D02*
G37*
%LPD*%
D13*
X0305207Y0294122D02*
Y0310264D01*
X0278829Y0294122D02*
Y0310264D01*
Y0294122D02*
X0305207D01*
X0278829Y0310264D02*
X0305207D01*
D16*
X0279419Y0315087D02*
G03*
X0279419Y0315087I-0000492J0D01*
G01*
D18*
X0295318Y0268947D02*
Y0280946D01*
X0288718D02*
X0295318D01*
X0288718Y0268347D02*
Y0280946D01*
Y0268347D02*
X0295318D01*
Y0268947D01*
X0291033Y0322487D02*
X0291633D01*
X0291033D02*
Y0329087D01*
X0303633D01*
Y0322487D02*
Y0329087D01*
X0291633Y0322487D02*
X0303633D01*
M02*
