G04*
G04 #@! TF.GenerationSoftware,Altium Limited,Altium Designer,21.3.2 (30)*
G04*
G04 Layer_Color=255*
%FSTAX25Y25*%
%MOIN*%
G70*
G04*
G04 #@! TF.SameCoordinates,19385EB9-96A7-4604-B433-F295045984F4*
G04*
G04*
G04 #@! TF.FilePolarity,Positive*
G04*
G01*
G75*
%ADD21C,0.05906*%
%ADD22R,0.05118X0.03543*%
%ADD23R,0.03740X0.06496*%
%ADD24R,0.12992X0.06496*%
%ADD25R,0.03543X0.05118*%
%ADD66C,0.06299*%
%ADD67R,0.06299X0.06299*%
G04:AMPARAMS|DCode=68|XSize=82.68mil|YSize=82.68mil|CornerRadius=20.67mil|HoleSize=0mil|Usage=FLASHONLY|Rotation=180.000|XOffset=0mil|YOffset=0mil|HoleType=Round|Shape=RoundedRectangle|*
%AMROUNDEDRECTD68*
21,1,0.08268,0.04134,0,0,180.0*
21,1,0.04134,0.08268,0,0,180.0*
1,1,0.04134,-0.02067,0.02067*
1,1,0.04134,0.02067,0.02067*
1,1,0.04134,0.02067,-0.02067*
1,1,0.04134,-0.02067,-0.02067*
%
%ADD68ROUNDEDRECTD68*%
%ADD69C,0.08268*%
%ADD70C,0.07874*%
G04:AMPARAMS|DCode=71|XSize=70.87mil|YSize=62.99mil|CornerRadius=15.75mil|HoleSize=0mil|Usage=FLASHONLY|Rotation=180.000|XOffset=0mil|YOffset=0mil|HoleType=Round|Shape=RoundedRectangle|*
%AMROUNDEDRECTD71*
21,1,0.07087,0.03150,0,0,180.0*
21,1,0.03937,0.06299,0,0,180.0*
1,1,0.03150,-0.01968,0.01575*
1,1,0.03150,0.01968,0.01575*
1,1,0.03150,0.01968,-0.01575*
1,1,0.03150,-0.01968,-0.01575*
%
%ADD71ROUNDEDRECTD71*%
%ADD72O,0.07087X0.06299*%
%ADD73C,0.05512*%
%ADD74P,0.07036X8X292.5*%
%ADD75C,0.06500*%
%ADD76R,0.04606X0.04606*%
%ADD77C,0.04606*%
%ADD78C,0.06200*%
%ADD79R,0.06200X0.06200*%
%ADD80C,0.05976*%
%ADD81O,0.03937X0.07874*%
%ADD82C,0.06496*%
%ADD83R,0.06496X0.06496*%
G04:AMPARAMS|DCode=84|XSize=82.68mil|YSize=82.68mil|CornerRadius=20.67mil|HoleSize=0mil|Usage=FLASHONLY|Rotation=90.000|XOffset=0mil|YOffset=0mil|HoleType=Round|Shape=RoundedRectangle|*
%AMROUNDEDRECTD84*
21,1,0.08268,0.04134,0,0,90.0*
21,1,0.04134,0.08268,0,0,90.0*
1,1,0.04134,0.02067,0.02067*
1,1,0.04134,0.02067,-0.02067*
1,1,0.04134,-0.02067,-0.02067*
1,1,0.04134,-0.02067,0.02067*
%
%ADD84ROUNDEDRECTD84*%
%ADD85O,0.03937X0.05906*%
%ADD86R,0.03937X0.05906*%
%ADD87C,0.08858*%
%ADD88R,0.08858X0.08858*%
%ADD89R,0.06299X0.06299*%
G04:AMPARAMS|DCode=90|XSize=70.87mil|YSize=62.99mil|CornerRadius=15.75mil|HoleSize=0mil|Usage=FLASHONLY|Rotation=270.000|XOffset=0mil|YOffset=0mil|HoleType=Round|Shape=RoundedRectangle|*
%AMROUNDEDRECTD90*
21,1,0.07087,0.03150,0,0,270.0*
21,1,0.03937,0.06299,0,0,270.0*
1,1,0.03150,-0.01575,-0.01968*
1,1,0.03150,-0.01575,0.01968*
1,1,0.03150,0.01575,0.01968*
1,1,0.03150,0.01575,-0.01968*
%
%ADD90ROUNDEDRECTD90*%
%ADD91O,0.06299X0.07087*%
%ADD92C,0.15748*%
%ADD93C,0.04835*%
%ADD94R,0.04449X0.04449*%
%ADD95C,0.04449*%
%ADD96R,0.06260X0.06260*%
%ADD97C,0.06260*%
D21*
X01421Y01776D02*
D03*
X01427Y02091D02*
D03*
X01422Y01927D02*
D03*
X02997Y03398D02*
D03*
X02998Y03583D02*
D03*
X01428Y01155D02*
D03*
X0192Y018D02*
D03*
X0202D02*
D03*
X0172035Y0208021D02*
D03*
X0162035D02*
D03*
Y0193011D02*
D03*
X0172035D02*
D03*
X0161935Y0178D02*
D03*
X0171935D02*
D03*
X02589Y0137665D02*
D03*
Y0147665D02*
D03*
X02476Y02588D02*
D03*
X02576D02*
D03*
X02076Y0231892D02*
D03*
Y0241893D02*
D03*
X0223Y0231892D02*
D03*
Y0241893D02*
D03*
D22*
X02892Y020592D02*
D03*
Y02134D02*
D03*
D23*
X02982Y0250321D02*
D03*
X0289145D02*
D03*
X028009D02*
D03*
X02811Y03154D02*
D03*
X0272045D02*
D03*
X026299D02*
D03*
D24*
X0289145Y0224534D02*
D03*
X0272045Y0289613D02*
D03*
D25*
X026462Y02783D02*
D03*
X02721D02*
D03*
X027064Y03258D02*
D03*
X026316D02*
D03*
X028754Y02612D02*
D03*
X028006D02*
D03*
D66*
X01066Y01117D02*
D03*
X01064Y01241D02*
D03*
X0147Y02706D02*
D03*
D67*
X01166Y01117D02*
D03*
X01164Y01241D02*
D03*
D68*
X02579Y0400435D02*
D03*
X01824D02*
D03*
D69*
X02429D02*
D03*
X01674D02*
D03*
X0316614Y02575D02*
D03*
D70*
X0194599Y0290363D02*
D03*
Y0361229D02*
D03*
X0155229Y0290363D02*
D03*
Y0361229D02*
D03*
D71*
X0115Y0353D02*
D03*
X032Y0125D02*
D03*
D72*
X0115Y0363D02*
D03*
X032Y0115D02*
D03*
D73*
X0106903Y0330779D02*
D03*
Y0290622D02*
D03*
X0125803Y0330779D02*
D03*
Y0290622D02*
D03*
X0107003Y0232936D02*
D03*
Y0192778D02*
D03*
X0125903Y0232936D02*
D03*
Y0192778D02*
D03*
X0192121Y01938D02*
D03*
X0232279D02*
D03*
X0231979Y02081D02*
D03*
X0191821D02*
D03*
X0138242Y0076621D02*
D03*
X01784D02*
D03*
Y0092221D02*
D03*
X0138242D02*
D03*
X0190421Y0076621D02*
D03*
X0230579D02*
D03*
X0190421Y0092221D02*
D03*
X0230579D02*
D03*
X02764Y0174479D02*
D03*
Y0134321D02*
D03*
X02956D02*
D03*
Y0174479D02*
D03*
X02605Y0245821D02*
D03*
Y0205664D02*
D03*
X02441Y0245921D02*
D03*
Y0205764D02*
D03*
X0219Y03427D02*
D03*
Y0382857D02*
D03*
X02361Y03427D02*
D03*
Y0382857D02*
D03*
X02222Y0134321D02*
D03*
Y0174479D02*
D03*
X02416Y0134321D02*
D03*
Y0174479D02*
D03*
X0219Y0282821D02*
D03*
Y0322979D02*
D03*
D74*
X0106903Y0277601D02*
D03*
X0125803D02*
D03*
X0125903Y0246957D02*
D03*
X0107003Y0246657D02*
D03*
D75*
X0106903Y0267601D02*
D03*
X0125803D02*
D03*
X0125903Y0256957D02*
D03*
X0107003Y0256657D02*
D03*
D76*
X02021Y016346D02*
D03*
D77*
X01921D02*
D03*
X01821D02*
D03*
X01721D02*
D03*
X01621D02*
D03*
X01521D02*
D03*
X01421D02*
D03*
Y01322D02*
D03*
X01521D02*
D03*
X01621D02*
D03*
X01721D02*
D03*
X01821D02*
D03*
X01921D02*
D03*
X02021D02*
D03*
D78*
X0111Y015D02*
D03*
Y016D02*
D03*
D79*
Y017D02*
D03*
D80*
X0221Y01127D02*
D03*
X0197378D02*
D03*
D81*
X02812Y01093D02*
D03*
X02862D02*
D03*
X02912D02*
D03*
D82*
X0315Y0215D02*
D03*
Y0205D02*
D03*
X0325Y0215D02*
D03*
Y0205D02*
D03*
X0315Y0195D02*
D03*
X0325D02*
D03*
X0315Y0165D02*
D03*
X0325D02*
D03*
X0315Y0155D02*
D03*
X0325Y0175D02*
D03*
X0315D02*
D03*
X0325Y0185D02*
D03*
X0315D02*
D03*
D83*
X0325Y0155D02*
D03*
D84*
X0316614Y02425D02*
D03*
D85*
X02649Y0378121D02*
D03*
X0265Y03499D02*
D03*
X0169957Y0274121D02*
D03*
D86*
X0255058Y0378121D02*
D03*
X0255157Y03499D02*
D03*
X01798Y0274121D02*
D03*
D87*
X03197Y0369065D02*
D03*
D88*
Y02906D02*
D03*
D89*
X0147Y02606D02*
D03*
D90*
X0281Y0085D02*
D03*
D91*
X0271D02*
D03*
D92*
X0114345Y0083324D02*
D03*
X031588D02*
D03*
X0114345Y0395114D02*
D03*
X031588D02*
D03*
X01946Y0382021D02*
D03*
X015523D02*
D03*
D93*
X0283841Y035252D02*
D03*
X0288959Y039248D02*
D03*
D94*
X01899Y0253551D02*
D03*
D95*
X01799D02*
D03*
X01699D02*
D03*
X01599D02*
D03*
Y0222291D02*
D03*
X01699D02*
D03*
X01799D02*
D03*
X01899D02*
D03*
D96*
X02366Y0321887D02*
D03*
D97*
Y02811D02*
D03*
M02*
