G04*
G04 #@! TF.GenerationSoftware,Altium Limited,Altium Designer,21.3.2 (30)*
G04*
G04 Layer_Physical_Order=1*
G04 Layer_Color=255*
%FSTAX25Y25*%
%MOIN*%
G70*
G04*
G04 #@! TF.SameCoordinates,19385EB9-96A7-4604-B433-F295045984F4*
G04*
G04*
G04 #@! TF.FilePolarity,Positive*
G04*
G01*
G75*
%ADD12C,0.01000*%
%ADD14C,0.02000*%
%ADD21C,0.05906*%
%ADD22R,0.05118X0.03543*%
%ADD23R,0.03740X0.06496*%
%ADD24R,0.12992X0.06496*%
%ADD25R,0.03543X0.05118*%
%ADD65C,0.03000*%
%ADD66C,0.06299*%
%ADD67R,0.06299X0.06299*%
G04:AMPARAMS|DCode=68|XSize=82.68mil|YSize=82.68mil|CornerRadius=20.67mil|HoleSize=0mil|Usage=FLASHONLY|Rotation=180.000|XOffset=0mil|YOffset=0mil|HoleType=Round|Shape=RoundedRectangle|*
%AMROUNDEDRECTD68*
21,1,0.08268,0.04134,0,0,180.0*
21,1,0.04134,0.08268,0,0,180.0*
1,1,0.04134,-0.02067,0.02067*
1,1,0.04134,0.02067,0.02067*
1,1,0.04134,0.02067,-0.02067*
1,1,0.04134,-0.02067,-0.02067*
%
%ADD68ROUNDEDRECTD68*%
%ADD69C,0.08268*%
%ADD70C,0.07874*%
G04:AMPARAMS|DCode=71|XSize=70.87mil|YSize=62.99mil|CornerRadius=15.75mil|HoleSize=0mil|Usage=FLASHONLY|Rotation=180.000|XOffset=0mil|YOffset=0mil|HoleType=Round|Shape=RoundedRectangle|*
%AMROUNDEDRECTD71*
21,1,0.07087,0.03150,0,0,180.0*
21,1,0.03937,0.06299,0,0,180.0*
1,1,0.03150,-0.01968,0.01575*
1,1,0.03150,0.01968,0.01575*
1,1,0.03150,0.01968,-0.01575*
1,1,0.03150,-0.01968,-0.01575*
%
%ADD71ROUNDEDRECTD71*%
%ADD72O,0.07087X0.06299*%
%ADD73C,0.05512*%
%ADD74P,0.07036X8X292.5*%
%ADD75C,0.06500*%
%ADD76R,0.04606X0.04606*%
%ADD77C,0.04606*%
%ADD78C,0.06200*%
%ADD79R,0.06200X0.06200*%
%ADD80C,0.05976*%
%ADD81O,0.03937X0.07874*%
%ADD82C,0.06496*%
%ADD83R,0.06496X0.06496*%
G04:AMPARAMS|DCode=84|XSize=82.68mil|YSize=82.68mil|CornerRadius=20.67mil|HoleSize=0mil|Usage=FLASHONLY|Rotation=90.000|XOffset=0mil|YOffset=0mil|HoleType=Round|Shape=RoundedRectangle|*
%AMROUNDEDRECTD84*
21,1,0.08268,0.04134,0,0,90.0*
21,1,0.04134,0.08268,0,0,90.0*
1,1,0.04134,0.02067,0.02067*
1,1,0.04134,0.02067,-0.02067*
1,1,0.04134,-0.02067,-0.02067*
1,1,0.04134,-0.02067,0.02067*
%
%ADD84ROUNDEDRECTD84*%
%ADD85O,0.03937X0.05906*%
%ADD86R,0.03937X0.05906*%
%ADD87C,0.08858*%
%ADD88R,0.08858X0.08858*%
%ADD89R,0.06299X0.06299*%
G04:AMPARAMS|DCode=90|XSize=70.87mil|YSize=62.99mil|CornerRadius=15.75mil|HoleSize=0mil|Usage=FLASHONLY|Rotation=270.000|XOffset=0mil|YOffset=0mil|HoleType=Round|Shape=RoundedRectangle|*
%AMROUNDEDRECTD90*
21,1,0.07087,0.03150,0,0,270.0*
21,1,0.03937,0.06299,0,0,270.0*
1,1,0.03150,-0.01575,-0.01968*
1,1,0.03150,-0.01575,0.01968*
1,1,0.03150,0.01575,0.01968*
1,1,0.03150,0.01575,-0.01968*
%
%ADD90ROUNDEDRECTD90*%
%ADD91O,0.06299X0.07087*%
%ADD92C,0.15748*%
%ADD93C,0.04835*%
%ADD94R,0.04449X0.04449*%
%ADD95C,0.04449*%
%ADD96R,0.06260X0.06260*%
%ADD97C,0.06260*%
%ADD98C,0.03150*%
%ADD99C,0.02598*%
G36*
X031831Y0412396D02*
X0320588Y0411942D01*
X0322787Y0411196D01*
X032487Y0410169D01*
X0326801Y0408879D01*
X0328547Y0407347D01*
X0330079Y0405601D01*
X0331369Y040367D01*
X0332396Y0401587D01*
X0333142Y0399388D01*
X0333596Y039711D01*
X0333746Y039481D01*
X0333743Y0394793D01*
Y0179154D01*
X0333243Y0179003D01*
X0333147Y0179147D01*
X0328619Y0183675D01*
X0328839Y0184495D01*
Y0185505D01*
X0328577Y0186482D01*
X0328072Y0187357D01*
X0327357Y0188072D01*
X0326482Y0188577D01*
X0325505Y0188839D01*
X0324495D01*
X0323518Y0188577D01*
X0322643Y0188072D01*
X0321928Y0187357D01*
X0321423Y0186482D01*
X0321161Y0185505D01*
Y0184495D01*
X0321423Y0183518D01*
X0321928Y0182643D01*
X0322643Y0181928D01*
X0323518Y0181423D01*
X0324495Y0181161D01*
X0325505D01*
X0326325Y0181381D01*
X0330378Y0177328D01*
Y0113972D01*
X0323928Y0107522D01*
X0305888D01*
X0305528Y0107593D01*
X0304472D01*
X0303851Y010747D01*
X0303325Y0107118D01*
X0299728Y0103522D01*
X0174172D01*
X0153722Y0123972D01*
Y0129795D01*
X0153877Y0129885D01*
X0154416Y0130423D01*
X0154797Y0131083D01*
X0154994Y0131819D01*
Y0132581D01*
X0154797Y0133317D01*
X0154416Y0133977D01*
X0153877Y0134516D01*
X0153217Y0134897D01*
X0152481Y0135094D01*
X0151719D01*
X0150983Y0134897D01*
X0150323Y0134516D01*
X0149785Y0133977D01*
X0149404Y0133317D01*
X0149206Y0132581D01*
Y0131819D01*
X0149404Y0131083D01*
X0149785Y0130423D01*
X0150323Y0129885D01*
X0150478Y0129795D01*
Y01233D01*
X0150602Y0122679D01*
X0150953Y0122153D01*
X0172353Y0100753D01*
X0172879Y0100402D01*
X01735Y0100278D01*
X03004D01*
X0301021Y0100402D01*
X0301547Y0100753D01*
X0305143Y010435D01*
X030524D01*
X03056Y0104278D01*
X03246D01*
X0325221Y0104402D01*
X0325747Y0104753D01*
X0333147Y0112153D01*
X0333243Y0112297D01*
X0333743Y0112146D01*
Y0081483D01*
X0333745Y0081476D01*
X0333603Y0079313D01*
X0333178Y007718D01*
X0332479Y007512D01*
X0331517Y0073169D01*
X0330309Y0071361D01*
X0328875Y0069725D01*
X0327239Y0068291D01*
X0325431Y0067083D01*
X032348Y0066121D01*
X032142Y0065422D01*
X0319287Y0064997D01*
X0317125Y0064855D01*
X0317117Y0064857D01*
X0113239D01*
X0113225Y0064854D01*
X011097Y0065002D01*
X0108739Y0065446D01*
X0106586Y0066177D01*
X0104546Y0067183D01*
X0102655Y0068446D01*
X0100945Y0069946D01*
X0099446Y0071655D01*
X0098183Y0073546D01*
X0097177Y0075586D01*
X0096446Y0077739D01*
X0096002Y007997D01*
X0095854Y0082225D01*
X0095857Y0082239D01*
Y0120025D01*
Y0395652D01*
X0095855Y0395661D01*
X0095999Y0397857D01*
X009643Y0400024D01*
X009714Y0402117D01*
X0098118Y0404099D01*
X0099345Y0405936D01*
X0100803Y0407597D01*
X0102464Y0409055D01*
X0104301Y0410282D01*
X0106283Y041126D01*
X0108376Y041197D01*
X0110543Y0412401D01*
X0112739Y0412545D01*
X0112748Y0412543D01*
X0128D01*
X0315993Y0412543D01*
X031601Y0412546D01*
X031831Y0412396D01*
D02*
G37*
%LPC*%
G36*
X0316912Y0410862D02*
X031588Y0410862D01*
X031588Y0410862D01*
X0314848Y0410862D01*
X0312801Y0410593D01*
X0310807Y0410058D01*
X03089Y0409268D01*
X0307112Y0408236D01*
X0305475Y0406979D01*
X0304015Y040552D01*
X0302758Y0403882D01*
X0301726Y0402094D01*
X0300936Y0400187D01*
X0300402Y0398193D01*
X0300132Y0396146D01*
X0300132Y0395114D01*
X0300132Y0395114D01*
X0300132Y0394082D01*
X0300402Y0392035D01*
X0300936Y0390041D01*
X0301726Y0388134D01*
X0302758Y0386346D01*
X0304015Y0384708D01*
X0305475Y0383249D01*
X0307113Y0381992D01*
X03089Y038096D01*
X0310807Y038017D01*
X0312802Y0379636D01*
X0314848Y0379366D01*
X031588D01*
X0316913Y0379366D01*
X0318959Y0379636D01*
X0320953Y038017D01*
X0322861Y038096D01*
X0324648Y0381992D01*
X0326286Y0383249D01*
X0327746Y0384708D01*
X0329002Y0386346D01*
X0330035Y0388134D01*
X0330824Y0390041D01*
X0331359Y0392035D01*
X0331628Y0394082D01*
X0331628Y0395114D01*
X0331628Y0395114D01*
X0331628Y0395114D01*
X0331628Y0396146D01*
X0331359Y0398193D01*
X0330824Y0400187D01*
X0330034Y0402094D01*
X0329002Y0403882D01*
X0327746Y040552D01*
X0326286Y0406979D01*
X0324648Y0408236D01*
X032286Y0409268D01*
X0320953Y0410058D01*
X0318959Y0410593D01*
X0316912Y0410862D01*
D02*
G37*
G36*
X0115377D02*
X0114345Y0410862D01*
X0114345Y0410862D01*
X0113312Y0410862D01*
X0111266Y0410593D01*
X0109272Y0410058D01*
X0107365Y0409268D01*
X0105577Y0408236D01*
X0103939Y0406979D01*
X010248Y040552D01*
X0101223Y0403882D01*
X0100191Y0402094D01*
X0099401Y0400187D01*
X0098866Y0398193D01*
X0098597Y0396146D01*
X0098597Y0395114D01*
X0098597Y0395114D01*
X0098597Y0394082D01*
X0098866Y0392035D01*
X0099401Y0390041D01*
X0100191Y0388134D01*
X0101223Y0386346D01*
X010248Y0384708D01*
X0103939Y0383249D01*
X0105577Y0381992D01*
X0107365Y038096D01*
X0109272Y038017D01*
X0111266Y0379636D01*
X0113313Y0379366D01*
X0114345D01*
X0115377Y0379366D01*
X0117424Y0379636D01*
X0119418Y038017D01*
X0121325Y038096D01*
X0123113Y0381992D01*
X0124751Y0383249D01*
X012621Y0384708D01*
X0127467Y0386346D01*
X0128499Y0388134D01*
X0129289Y0390041D01*
X0129823Y0392035D01*
X0130093Y0394082D01*
X0130093Y0395114D01*
X0130093Y0395114D01*
X0130093Y0395114D01*
X0130093Y0396146D01*
X0129823Y0398193D01*
X0129289Y0400187D01*
X0128499Y0402094D01*
X0127467Y0403882D01*
X012621Y040552D01*
X012475Y0406979D01*
X0123113Y0408236D01*
X0121325Y0409268D01*
X0119418Y0410058D01*
X0117424Y0410593D01*
X0115377Y0410862D01*
D02*
G37*
G36*
X0204451Y0410839D02*
X02039D01*
X01813Y0410839D01*
X0180778Y0410839D01*
X0180718Y0410814D01*
X0180653Y0410827D01*
X0179629Y0410623D01*
X0179575Y0410587D01*
X0179509D01*
X0178545Y0410187D01*
X0178499Y0410141D01*
X0178434Y0410128D01*
X0177566Y0409548D01*
X017753Y0409494D01*
X0177469Y0409469D01*
X0176731Y0408731D01*
X0176706Y040867D01*
X0176652Y0408634D01*
X0176072Y0407766D01*
X0176059Y0407701D01*
X0176013Y0407655D01*
X0175613Y0406691D01*
Y0406625D01*
X0175577Y0406571D01*
X0175373Y0405547D01*
X0175386Y0405482D01*
X0175361Y0405422D01*
X0175361Y04049D01*
X0175361Y04049D01*
X0175361Y03375D01*
Y0336988D01*
X0175386Y0336927D01*
X0175373Y0336863D01*
X0175573Y0335858D01*
X0175609Y0335804D01*
Y0335739D01*
X0176001Y0334792D01*
X0176048Y0334746D01*
X017606Y0334682D01*
X0176629Y033383D01*
X0176684Y0333794D01*
X0176709Y0333733D01*
X0177433Y0333009D01*
X0177494Y0332984D01*
X017753Y0332929D01*
X0178382Y033236D01*
X0178446Y0332348D01*
X0178492Y0332301D01*
X0179439Y0331909D01*
X0179504D01*
X0179559Y0331873D01*
X0180563Y0331673D01*
X0180627Y0331686D01*
X0180688Y0331661D01*
X01812Y0331661D01*
X01812Y0331661D01*
X02039Y0331661D01*
X0204451Y0331661D01*
X0204512Y0331686D01*
X0204576Y0331673D01*
X0205658Y0331888D01*
X0205713Y0331925D01*
X0205778D01*
X0206797Y0332347D01*
X0206843Y0332393D01*
X0206908Y0332406D01*
X0207825Y0333019D01*
X0207861Y0333073D01*
X0207922Y0333098D01*
X0208702Y0333878D01*
X0208727Y0333939D01*
X0208781Y0333975D01*
X0209394Y0334892D01*
X0209407Y0334957D01*
X0209453Y0335003D01*
X0209875Y0336022D01*
Y0336087D01*
X0209912Y0336142D01*
X0210127Y0337224D01*
X0210114Y0337288D01*
X0210139Y0337348D01*
X0210139Y03379D01*
X0210139Y03379D01*
Y04046D01*
Y0405152D01*
X0210114Y0405212D01*
X0210127Y0405276D01*
X0209912Y0406358D01*
X0209875Y0406413D01*
Y0406478D01*
X0209453Y0407497D01*
X0209407Y0407544D01*
X0209394Y0407608D01*
X0208781Y0408525D01*
X0208727Y0408561D01*
X0208702Y0408622D01*
X0207922Y0409402D01*
X0207861Y0409427D01*
X0207825Y0409481D01*
X0206908Y0410094D01*
X0206843Y0410107D01*
X0206797Y0410153D01*
X0205778Y0410575D01*
X0205713D01*
X0205658Y0410612D01*
X0204576Y0410827D01*
X0204512Y0410814D01*
X0204451Y0410839D01*
D02*
G37*
G36*
X0168351Y0410639D02*
X01678Y0410639D01*
X01447Y0410639D01*
X01447Y0410639D01*
X0144247D01*
X0144186Y0410614D01*
X0144122Y0410627D01*
X0143234Y041045D01*
X0143179Y0410414D01*
X0143114D01*
X0142276Y0410067D01*
X014223Y0410021D01*
X0142166Y0410008D01*
X0141412Y0409505D01*
X0141376Y040945D01*
X0141316Y0409425D01*
X0140675Y0408784D01*
X014065Y0408724D01*
X0140595Y0408687D01*
X0140092Y0407934D01*
X0140079Y040787D01*
X0140033Y0407824D01*
X0139686Y0406986D01*
Y0406921D01*
X013965Y0406866D01*
X0139473Y0405978D01*
X0139486Y0405913D01*
X0139461Y0405853D01*
Y04054D01*
Y03371D01*
X0139461Y03371D01*
X0139461Y0336647D01*
X0139486Y0336586D01*
X0139473Y0336522D01*
X013965Y0335633D01*
X0139686Y0335579D01*
Y0335514D01*
X0140033Y0334677D01*
X0140079Y033463D01*
X0140092Y0334566D01*
X0140595Y0333812D01*
X014065Y0333776D01*
X0140675Y0333716D01*
X0141316Y0333075D01*
X0141376Y033305D01*
X0141412Y0332995D01*
X0142166Y0332492D01*
X014223Y0332479D01*
X0142276Y0332433D01*
X0143114Y0332086D01*
X0143179D01*
X0143234Y033205D01*
X0144122Y0331873D01*
X0144186Y0331886D01*
X0144247Y0331861D01*
X01447Y0331861D01*
X01687D01*
X01687Y0331861D01*
X01687Y0331861D01*
X0169163Y0331861D01*
X0169224Y0331886D01*
X0169288Y0331873D01*
X0170196Y0332054D01*
X017025Y033209D01*
X0170316D01*
X0171171Y0332444D01*
X0171217Y0332491D01*
X0171281Y0332503D01*
X0172051Y0333018D01*
X0172088Y0333072D01*
X0172148Y0333097D01*
X0172803Y0333752D01*
X0172828Y0333812D01*
X0172882Y0333849D01*
X0173397Y0334619D01*
X0173409Y0334683D01*
X0173456Y0334729D01*
X017381Y0335584D01*
Y033565D01*
X0173846Y0335704D01*
X0174027Y0336612D01*
X0174014Y0336677D01*
X0174039Y0336737D01*
X0174039Y03372D01*
X0174039Y04044D01*
X0174039Y04044D01*
X0174039Y0404951D01*
X0174014Y0405012D01*
X0174027Y0405076D01*
X0173812Y0406158D01*
X0173775Y0406213D01*
Y0406278D01*
X0173353Y0407297D01*
X0173307Y0407343D01*
X0173294Y0407408D01*
X0172681Y0408325D01*
X0172627Y0408361D01*
X0172602Y0408422D01*
X0171822Y0409202D01*
X0171761Y0409227D01*
X0171725Y0409281D01*
X0170808Y0409894D01*
X0170744Y0409907D01*
X0170697Y0409953D01*
X0169678Y0410375D01*
X0169613D01*
X0169558Y0410412D01*
X0168476Y0410627D01*
X0168412Y0410614D01*
X0168351Y0410639D01*
D02*
G37*
G36*
X0291893Y0408039D02*
X0254334D01*
X0254274Y0408014D01*
X0254209Y0408027D01*
X0253688Y0407923D01*
X0253633Y0407887D01*
X0253568D01*
X0253076Y0407683D01*
X025303Y0407637D01*
X0252966Y0407624D01*
X0252524Y0407329D01*
X0252487Y0407274D01*
X0252427Y0407249D01*
X0252051Y0406873D01*
X0252026Y0406813D01*
X0251971Y0406776D01*
X0251676Y0406334D01*
X0251663Y040627D01*
X0251617Y0406223D01*
X0251413Y0405732D01*
Y0405667D01*
X0251377Y0405612D01*
X0251273Y0405091D01*
X0251286Y0405026D01*
X0251261Y0404966D01*
Y0395862D01*
X0251309Y0395745D01*
Y0395618D01*
X0251644Y0394809D01*
X0251734Y0394719D01*
X0251783Y0394602D01*
X0252402Y0393983D01*
X0252519Y0393934D01*
X0252609Y0393844D01*
X0253418Y039351D01*
X0253545D01*
X0253662Y0393461D01*
X0277184D01*
X0277563Y0393442D01*
X027832Y0393292D01*
X0279018Y0393002D01*
X0279647Y0392582D01*
X0280182Y0392047D01*
X0280602Y0391419D01*
X0280892Y039072D01*
X0281042Y0389963D01*
X0281061Y0389584D01*
Y0389004D01*
X0281086Y0388944D01*
X0281073Y038888D01*
X0281188Y03883D01*
X0281225Y0388246D01*
Y038818D01*
X0281451Y0387634D01*
X0281497Y0387588D01*
X028151Y0387524D01*
X0281838Y0387033D01*
X0281893Y0386996D01*
X0281918Y0386936D01*
X0282336Y0386518D01*
X0282396Y0386493D01*
X0282433Y0386438D01*
X0282924Y038611D01*
X0282988Y0386097D01*
X0283034Y0386051D01*
X028358Y0385825D01*
X0283646D01*
X02837Y0385788D01*
X028428Y0385673D01*
X0284344Y0385686D01*
X0284404Y0385661D01*
X0294397D01*
X0294515Y038571D01*
X0294642D01*
X0295561Y038609D01*
X0295651Y038618D01*
X0295768Y0386229D01*
X0296471Y0386932D01*
X029652Y0387049D01*
X029661Y0387139D01*
X029699Y0388058D01*
Y0388185D01*
X0297039Y0388303D01*
Y03888D01*
Y04024D01*
Y0402892D01*
X0297014Y0402953D01*
X0297027Y0403017D01*
X0296835Y0403983D01*
X0296798Y0404038D01*
Y0404103D01*
X0296422Y0405013D01*
X0296375Y0405059D01*
X0296362Y0405124D01*
X0295815Y0405942D01*
X0295761Y0405979D01*
X0295736Y0406039D01*
X0295039Y0406736D01*
X0294979Y0406761D01*
X0294942Y0406815D01*
X0294124Y0407362D01*
X0294059Y0407375D01*
X0294013Y0407421D01*
X0293103Y0407798D01*
X0293038D01*
X0292983Y0407835D01*
X0292017Y0408027D01*
X0291953Y0408014D01*
X0291893Y0408039D01*
D02*
G37*
G36*
X0243576Y0405569D02*
X02434D01*
Y0400936D01*
X0248034D01*
Y0401111D01*
X0247684Y0402417D01*
X0247008Y0403588D01*
X0246052Y0404544D01*
X0244882Y040522D01*
X0243576Y0405569D01*
D02*
G37*
G36*
X02424D02*
X0242224D01*
X0240918Y040522D01*
X0239748Y0404544D01*
X0238792Y0403588D01*
X0238116Y0402417D01*
X0237766Y0401111D01*
Y0400936D01*
X02424D01*
Y0405569D01*
D02*
G37*
G36*
X0248034Y0399936D02*
X02434D01*
Y0395302D01*
X0243576D01*
X0244882Y0395652D01*
X0246052Y0396327D01*
X0247008Y0397283D01*
X0247684Y0398454D01*
X0248034Y039976D01*
Y0399936D01*
D02*
G37*
G36*
X02424D02*
X0237766D01*
Y039976D01*
X0238116Y0398454D01*
X0238792Y0397283D01*
X0239748Y0396327D01*
X0240918Y0395652D01*
X0242224Y0395302D01*
X02424D01*
Y0399936D01*
D02*
G37*
G36*
X02195Y0386612D02*
Y0383358D01*
X0222754D01*
X02225Y0384307D01*
X0222006Y0385164D01*
X0221306Y0385863D01*
X022045Y0386357D01*
X02195Y0386612D01*
D02*
G37*
G36*
X02185D02*
X021755Y0386357D01*
X0216694Y0385863D01*
X0215995Y0385164D01*
X02155Y0384307D01*
X0215246Y0383358D01*
X02185D01*
Y0386612D01*
D02*
G37*
G36*
X0222754Y0382358D02*
X02195D01*
Y0379103D01*
X022045Y0379358D01*
X0221306Y0379852D01*
X0222006Y0380551D01*
X02225Y0381408D01*
X0222754Y0382358D01*
D02*
G37*
G36*
X02185D02*
X0215246D01*
X02155Y0381408D01*
X0215995Y0380551D01*
X0216694Y0379852D01*
X021755Y0379358D01*
X02185Y0379103D01*
Y0382358D01*
D02*
G37*
G36*
X0258026Y0382074D02*
X0255557D01*
Y0378621D01*
X0258026D01*
Y0382074D01*
D02*
G37*
G36*
X0254557D02*
X0252089D01*
Y0378621D01*
X0254557D01*
Y0382074D01*
D02*
G37*
G36*
X02649Y0381687D02*
X0264232Y0381599D01*
X0263609Y0381341D01*
X0263075Y0380931D01*
X0262665Y0380396D01*
X0262407Y0379774D01*
X0262319Y0379105D01*
Y0377137D01*
X0262407Y0376469D01*
X0262665Y0375846D01*
X0263075Y0375312D01*
X0263609Y0374902D01*
X0264232Y0374644D01*
X02649Y0374556D01*
X0265568Y0374644D01*
X0266191Y0374902D01*
X0266725Y0375312D01*
X0267135Y0375846D01*
X0267393Y0376469D01*
X0267481Y0377137D01*
Y0379105D01*
X0267393Y0379774D01*
X0267135Y0380396D01*
X0266725Y0380931D01*
X0266191Y0381341D01*
X0265568Y0381599D01*
X02649Y0381687D01*
D02*
G37*
G36*
X0258026Y0377621D02*
X0255557D01*
Y0374168D01*
X0258026D01*
Y0377621D01*
D02*
G37*
G36*
X0254557D02*
X0252089D01*
Y0374168D01*
X0254557D01*
Y0377621D01*
D02*
G37*
G36*
X0236541Y0386204D02*
X0235659D01*
X0234808Y0385976D01*
X0234045Y0385535D01*
X0233422Y0384912D01*
X0232982Y0384149D01*
X0232753Y0383298D01*
Y0382417D01*
X0232982Y0381566D01*
X0233422Y0380803D01*
X0234045Y038018D01*
X0234808Y0379739D01*
X0235659Y0379511D01*
X0236541D01*
X0237392Y0379739D01*
X0238155Y038018D01*
X0238778Y0380803D01*
X0239028Y0381236D01*
X0242071D01*
X0244178Y0379128D01*
Y03708D01*
X0244302Y0370179D01*
X0244653Y0369653D01*
X0249353Y0364953D01*
X0249879Y0364602D01*
X02505Y0364478D01*
X0256828D01*
X0263378Y0357928D01*
Y0352866D01*
X0263175Y0352709D01*
X0262765Y0352175D01*
X0262507Y0351552D01*
X0262419Y0350884D01*
Y0348916D01*
X0262507Y0348248D01*
X0262765Y0347625D01*
X0263175Y0347091D01*
X0263709Y034668D01*
X0264332Y0346423D01*
X0265Y0346335D01*
X0265668Y0346423D01*
X0266291Y034668D01*
X0266825Y0347091D01*
X0267235Y0347625D01*
X0267493Y0348248D01*
X0267497Y0348278D01*
X0271428D01*
X0273226Y034648D01*
X0273752Y0346129D01*
X0274373Y0346005D01*
X0299632D01*
X0299846Y0345791D01*
X0300642Y0345462D01*
X0301504D01*
X0302299Y0345791D01*
X0302909Y03464D01*
X0303238Y0347196D01*
Y0348058D01*
X0302909Y0348854D01*
X0302299Y0349463D01*
X0301504Y0349792D01*
X0300642D01*
X0299846Y0349463D01*
X0299632Y0349249D01*
X0285362D01*
X0285314Y034932D01*
X0285467Y0349985D01*
X0285688Y0350113D01*
X0285963Y0350388D01*
X0303797D01*
X0306869Y0347317D01*
Y0279D01*
X0306869Y0279D01*
X0307031Y0278184D01*
X0307493Y0277493D01*
X0314483Y0270503D01*
Y0261725D01*
X0313713Y0261281D01*
X0312834Y0260401D01*
X0312212Y0259324D01*
X031189Y0258122D01*
Y0256878D01*
X0312212Y0255677D01*
X0312834Y0254599D01*
X0313713Y025372D01*
X0314791Y0253098D01*
X0315992Y0252776D01*
X0317236D01*
X0318438Y0253098D01*
X0319515Y025372D01*
X0320395Y0254599D01*
X0321017Y0255677D01*
X0321339Y0256878D01*
Y0258122D01*
X0321017Y0259324D01*
X0320395Y0260401D01*
X0319515Y0261281D01*
X0318746Y0261725D01*
Y0271386D01*
X0318746Y0271386D01*
X0318583Y0272201D01*
X0318122Y0272893D01*
X0318121Y0272893D01*
X0311132Y0279883D01*
Y03482D01*
X0310969Y0349016D01*
X0310507Y0349707D01*
X0310507Y0349707D01*
X0306188Y0354027D01*
X0305496Y0354489D01*
X030468Y0354651D01*
X030468Y0354651D01*
X0301567D01*
X0301433Y0355151D01*
X0301976Y0355465D01*
X0302635Y0356124D01*
X0303102Y0356932D01*
X0303343Y0357834D01*
Y0358767D01*
X0303102Y0359668D01*
X0302635Y0360476D01*
X0301976Y0361135D01*
X0301422Y0361455D01*
Y0366933D01*
X0315134D01*
X0315683Y0365982D01*
X0316618Y0365048D01*
X0317762Y0364387D01*
X0319039Y0364045D01*
X0320361D01*
X0321638Y0364387D01*
X0322782Y0365048D01*
X0323717Y0365982D01*
X0324378Y0367127D01*
X032472Y0368404D01*
Y0369725D01*
X0324378Y0371002D01*
X0323717Y0372147D01*
X0322782Y0373081D01*
X0321638Y0373742D01*
X0320361Y0374084D01*
X0319039D01*
X0317762Y0373742D01*
X0316618Y0373081D01*
X0315683Y0372147D01*
X0315134Y0371196D01*
X0288765D01*
X0288765Y0371196D01*
X0287949Y0371034D01*
X0287257Y0370572D01*
X0282334Y0365648D01*
X0281872Y0364957D01*
X0281709Y0364141D01*
X0281709Y0364141D01*
Y0354642D01*
X0281434Y0354367D01*
X0281038Y0353681D01*
X0280833Y0352916D01*
Y0352124D01*
X0281038Y0351359D01*
X0281434Y0350673D01*
X0281994Y0350113D01*
X0282215Y0349985D01*
X0282368Y034932D01*
X028232Y0349249D01*
X0275045D01*
X0273247Y0351047D01*
X0272721Y0351398D01*
X02721Y0351522D01*
X0267497D01*
X0267493Y0351552D01*
X0267235Y0352175D01*
X0266825Y0352709D01*
X0266622Y0352866D01*
Y03586D01*
X0266498Y0359221D01*
X0266147Y0359747D01*
X0258647Y0367247D01*
X0258121Y0367598D01*
X02575Y0367722D01*
X0251172D01*
X0247422Y0371472D01*
Y03798D01*
X0247298Y0380421D01*
X0246947Y0380947D01*
X0243889Y0384004D01*
X0243363Y0384356D01*
X0242742Y0384479D01*
X0239028D01*
X0238778Y0384912D01*
X0238155Y0385535D01*
X0237392Y0385976D01*
X0236541Y0386204D01*
D02*
G37*
G36*
X0115394Y0366772D02*
X0114606D01*
X011363Y0366644D01*
X011272Y0366267D01*
X0111939Y0365668D01*
X0111339Y0364886D01*
X011123Y0364622D01*
X01086D01*
X0107979Y0364498D01*
X0107453Y0364147D01*
X0103153Y0359847D01*
X0102802Y0359321D01*
X0102678Y03587D01*
Y0347D01*
X0102802Y0346379D01*
X0103153Y0345853D01*
X0112978Y0336028D01*
Y03126D01*
X0113102Y0311979D01*
X0113453Y0311453D01*
X0132678Y0292228D01*
Y02522D01*
X0132802Y0251579D01*
X0133153Y0251053D01*
X0138585Y0245622D01*
X0138378Y0245122D01*
X0129744D01*
Y0248877D01*
X0127824Y0250797D01*
X0123983D01*
X0122063Y0248877D01*
Y0245122D01*
X0119572D01*
X0118922Y0245772D01*
Y03029D01*
X0118798Y0303521D01*
X0118447Y0304047D01*
X0108525Y0313969D01*
Y0327852D01*
X0108958Y0328101D01*
X0109581Y0328725D01*
X0110021Y0329488D01*
X011025Y0330339D01*
Y033122D01*
X0110021Y0332071D01*
X0109581Y0332834D01*
X0108958Y0333457D01*
X0108195Y0333898D01*
X0107344Y0334126D01*
X0106463D01*
X0105612Y0333898D01*
X0104848Y0333457D01*
X0104225Y0332834D01*
X0103785Y0332071D01*
X0103557Y033122D01*
Y0330339D01*
X0103785Y0329488D01*
X0104225Y0328725D01*
X0104848Y0328101D01*
X0105281Y0327852D01*
Y0313297D01*
X0105405Y0312676D01*
X0105756Y031215D01*
X0115678Y0302228D01*
Y02451D01*
X0115802Y0244479D01*
X0116153Y0243953D01*
X0117753Y0242353D01*
X0118279Y0242002D01*
X01189Y0241878D01*
X0121564D01*
X0122473Y024097D01*
X0122999Y0240618D01*
X0123619Y0240495D01*
X0128187D01*
X0128808Y0240618D01*
X0129334Y024097D01*
X0130243Y0241878D01*
X02004D01*
X0201021Y0242002D01*
X0201547Y0242353D01*
X021509Y0255896D01*
X0228578D01*
Y0233822D01*
X0225978D01*
X0225835Y0234068D01*
X0225176Y0234728D01*
X0224368Y0235194D01*
X0223466Y0235436D01*
X0222533D01*
X0221632Y0235194D01*
X0220824Y0234728D01*
X0220165Y0234068D01*
X0219698Y023326D01*
X0219457Y0232359D01*
Y0231426D01*
X0219698Y0230525D01*
X0220165Y0229717D01*
X0220824Y0229057D01*
X0221632Y0228591D01*
X0222533Y0228349D01*
X0223466D01*
X0224368Y0228591D01*
X0225176Y0229057D01*
X0225835Y0229717D01*
X0226302Y0230525D01*
X0226316Y0230578D01*
X0228578D01*
Y0222172D01*
X0208328Y0201922D01*
X01874D01*
X0186779Y0201798D01*
X0186253Y0201447D01*
X0179228Y0194422D01*
X0175311D01*
X017487Y0195186D01*
X017421Y0195846D01*
X0173402Y0196312D01*
X0172501Y0196554D01*
X0171568D01*
X0170667Y0196312D01*
X0169859Y0195846D01*
X0169199Y0195186D01*
X0168733Y0194378D01*
X0168491Y0193477D01*
Y0192544D01*
X0168733Y0191643D01*
X0169199Y0190835D01*
X0169859Y0190175D01*
X0170667Y0189709D01*
X0171568Y0189467D01*
X0172501D01*
X0173402Y0189709D01*
X017421Y0190175D01*
X017487Y0190835D01*
X0175068Y0191178D01*
X01799D01*
X0180521Y0191302D01*
X0181047Y0191653D01*
X0188072Y0198678D01*
X0209D01*
X0209621Y0198802D01*
X0210147Y0199153D01*
X0231347Y0220353D01*
X0231698Y0220879D01*
X0231822Y02215D01*
Y02322D01*
Y0257518D01*
Y0263028D01*
X0236972Y0268178D01*
X02437D01*
X0244321Y0268302D01*
X0244847Y0268653D01*
X0251447Y0275253D01*
X0251798Y0275779D01*
X0251922Y02764D01*
Y0329328D01*
X0255772Y0333178D01*
X0261478D01*
Y032895D01*
X0260798D01*
Y032265D01*
X0261478D01*
Y0319239D01*
X0260529D01*
Y0311561D01*
X026545D01*
Y0319239D01*
X0264722D01*
Y032265D01*
X0265522D01*
Y032895D01*
X0264722D01*
Y0333178D01*
X0285528D01*
X0292078Y0326628D01*
Y0284739D01*
X0283307Y0284739D01*
X0282887Y0284749D01*
X0282769Y0284703D01*
X0282641Y0284705D01*
X0281845Y0284396D01*
X0281753Y0284308D01*
X0281634Y0284262D01*
X0281016Y0283671D01*
X0280965Y0283555D01*
X0280873Y0283467D01*
X0280548Y0282729D01*
X0280546Y0282614D01*
X0280495Y028251D01*
X0280466Y0282039D01*
X0280473Y0282019D01*
X0280465Y0282D01*
Y0277359D01*
X0280514Y0277241D01*
Y0277114D01*
X0280848Y0276307D01*
X0280938Y0276217D01*
X0280986Y02761D01*
X0281604Y0275482D01*
X0281722Y0275434D01*
X0281812Y0275344D01*
X0282619Y0275009D01*
X0282746D01*
X0282863Y0274961D01*
X02833Y0274961D01*
X0300704D01*
X0301141Y0274961D01*
X0301258Y0275009D01*
X0301386D01*
X0302193Y0275344D01*
X0302283Y0275434D01*
X03024Y0275482D01*
X0303018Y02761D01*
X0303066Y0276217D01*
X0303156Y0276307D01*
X030349Y0277114D01*
Y0277241D01*
X0303539Y0277359D01*
X0303539Y0277796D01*
X0303539Y0277796D01*
X0303539Y02808D01*
X0303539Y0282D01*
X0303539Y0282418D01*
X0303491Y0282535D01*
Y0282662D01*
X0303171Y0283434D01*
X0303081Y0283524D01*
X0303032Y0283642D01*
X0302442Y0284232D01*
X0302324Y0284281D01*
X0302234Y0284371D01*
X0301511Y028467D01*
X0301398Y028467D01*
X0301295Y0284718D01*
X030083Y0284738D01*
X0300816Y0284733D01*
X0300802Y0284739D01*
X03008D01*
X03008Y0284739D01*
X0295322D01*
Y03273D01*
X0295198Y0327921D01*
X0294847Y0328447D01*
X0287347Y0335947D01*
X0286821Y0336298D01*
X02862Y0336422D01*
X0283622D01*
Y0337857D01*
X0283843Y0338078D01*
X0296603D01*
X0296865Y0337624D01*
X0297524Y0336965D01*
X0298332Y0336498D01*
X0299234Y0336257D01*
X0300167D01*
X0301068Y0336498D01*
X0301876Y0336965D01*
X0302535Y0337624D01*
X0303002Y0338432D01*
X0303243Y0339334D01*
Y0340266D01*
X0303002Y0341168D01*
X0302535Y0341976D01*
X0301876Y0342635D01*
X0301068Y0343102D01*
X0300167Y0343343D01*
X0299234D01*
X0298332Y0343102D01*
X0297524Y0342635D01*
X0296865Y0341976D01*
X0296487Y0341322D01*
X0283172D01*
X0282551Y0341198D01*
X0282025Y0340847D01*
X0280853Y0339675D01*
X0280502Y0339149D01*
X0280378Y0338528D01*
Y0336422D01*
X02551D01*
X0254479Y0336298D01*
X0253953Y0335947D01*
X0249153Y0331147D01*
X0248802Y0330621D01*
X0248678Y033D01*
Y0277072D01*
X0243028Y0271422D01*
X02363D01*
X0235679Y0271298D01*
X0235153Y0270947D01*
X0229053Y0264847D01*
X0228702Y0264321D01*
X0228578Y02637D01*
Y025914D01*
X0214418D01*
X0213798Y0259016D01*
X0213555Y0258854D01*
X0213236Y0259243D01*
X0220147Y0266153D01*
X0220498Y0266679D01*
X0220622Y02673D01*
Y0279893D01*
X0221055Y0280143D01*
X0221678Y0280767D01*
X0222118Y028153D01*
X0222346Y0282381D01*
Y0283262D01*
X0222118Y0284113D01*
X0221678Y0284876D01*
X0221055Y0285499D01*
X0220292Y028594D01*
X0219441Y0286168D01*
X0218559D01*
X0217708Y028594D01*
X0216945Y0285499D01*
X0216322Y0284876D01*
X0215882Y0284113D01*
X0215653Y0283262D01*
Y0282381D01*
X0215882Y028153D01*
X0216322Y0280767D01*
X0216945Y0280143D01*
X0217378Y0279893D01*
Y0267972D01*
X0197428Y0248022D01*
X0140772D01*
X0135922Y0252872D01*
Y02929D01*
X0135798Y0293521D01*
X0135447Y0294047D01*
X0116222Y0313272D01*
Y03367D01*
X0116098Y0337321D01*
X0115747Y0337847D01*
X0105922Y0347672D01*
Y0358028D01*
X0109272Y0361378D01*
X011123D01*
X0111339Y0361114D01*
X0111939Y0360332D01*
X011272Y0359733D01*
X011363Y0359356D01*
X0114606Y0359228D01*
X0115394D01*
X011637Y0359356D01*
X011728Y0359733D01*
X0118061Y0360332D01*
X0118661Y0361114D01*
X0119038Y0362024D01*
X0119166Y0363D01*
X0119038Y0363976D01*
X0118661Y0364886D01*
X0118061Y0365668D01*
X011728Y0366267D01*
X011637Y0366644D01*
X0115394Y0366772D01*
D02*
G37*
G36*
X0116969Y0357172D02*
X01155D01*
Y03535D01*
X0119565D01*
Y0354575D01*
X0119477Y0355247D01*
X0119218Y0355873D01*
X0118805Y0356411D01*
X0118267Y0356824D01*
X0117641Y0357083D01*
X0116969Y0357172D01*
D02*
G37*
G36*
X01145D02*
X0113031D01*
X0112359Y0357083D01*
X0111733Y0356824D01*
X0111195Y0356411D01*
X0110782Y0355873D01*
X0110523Y0355247D01*
X0110434Y0354575D01*
Y03535D01*
X01145D01*
Y0357172D01*
D02*
G37*
G36*
X0258126Y0353853D02*
X0255658D01*
Y03504D01*
X0258126D01*
Y0353853D01*
D02*
G37*
G36*
X0254658D02*
X0252189D01*
Y03504D01*
X0254658D01*
Y0353853D01*
D02*
G37*
G36*
X0119565Y03525D02*
X01155D01*
Y0348828D01*
X0116969D01*
X0117641Y0348917D01*
X0118267Y0349176D01*
X0118805Y0349589D01*
X0119218Y0350127D01*
X0119477Y0350753D01*
X0119565Y0351425D01*
Y03525D01*
D02*
G37*
G36*
X01145D02*
X0110434D01*
Y0351425D01*
X0110523Y0350753D01*
X0110782Y0350127D01*
X0111195Y0349589D01*
X0111733Y0349176D01*
X0112359Y0348917D01*
X0113031Y0348828D01*
X01145D01*
Y03525D01*
D02*
G37*
G36*
X0258126Y03494D02*
X0255658D01*
Y0345947D01*
X0258126D01*
Y03494D01*
D02*
G37*
G36*
X0254658D02*
X0252189D01*
Y0345947D01*
X0254658D01*
Y03494D01*
D02*
G37*
G36*
X0236541Y0346046D02*
X0235659D01*
X0234808Y0345818D01*
X0234045Y0345378D01*
X0233422Y0344755D01*
X0232982Y0343992D01*
X0232753Y0343141D01*
Y0342259D01*
X0232982Y0341408D01*
X0233422Y0340645D01*
X0234045Y0340022D01*
X0234808Y0339582D01*
X0235659Y0339353D01*
X0236541D01*
X0237392Y0339582D01*
X0238155Y0340022D01*
X0238778Y0340645D01*
X0239218Y0341408D01*
X0239446Y0342259D01*
Y0343141D01*
X0239218Y0343992D01*
X0238778Y0344755D01*
X0238155Y0345378D01*
X0237392Y0345818D01*
X0236541Y0346046D01*
D02*
G37*
G36*
X0219441D02*
X0218559D01*
X0217708Y0345818D01*
X0216945Y0345378D01*
X0216322Y0344755D01*
X0215882Y0343992D01*
X0215653Y0343141D01*
Y0342259D01*
X0215882Y0341408D01*
X0216322Y0340645D01*
X0216945Y0340022D01*
X0217708Y0339582D01*
X0218559Y0339353D01*
X0219441D01*
X0220292Y0339582D01*
X0221055Y0340022D01*
X0221678Y0340645D01*
X0222118Y0341408D01*
X0222346Y0342259D01*
Y0343141D01*
X0222118Y0343992D01*
X0221678Y0344755D01*
X0221055Y0345378D01*
X0220292Y0345818D01*
X0219441Y0346046D01*
D02*
G37*
G36*
X0126244Y0334126D02*
X0125363D01*
X0124512Y0333898D01*
X0123748Y0333457D01*
X0123125Y0332834D01*
X0122685Y0332071D01*
X0122457Y033122D01*
Y0330339D01*
X0122685Y0329488D01*
X0123125Y0328725D01*
X0123748Y0328101D01*
X0124512Y0327661D01*
X0125363Y0327433D01*
X0126244D01*
X0127095Y0327661D01*
X0127858Y0328101D01*
X0128481Y0328725D01*
X0128921Y0329488D01*
X012915Y0330339D01*
Y033122D01*
X0128921Y0332071D01*
X0128481Y0332834D01*
X0127858Y0333457D01*
X0127095Y0333898D01*
X0126244Y0334126D01*
D02*
G37*
G36*
X0273412Y0329359D02*
X027114D01*
Y03263D01*
X0273412D01*
Y0329359D01*
D02*
G37*
G36*
X027014D02*
X0267868D01*
Y03263D01*
X027014D01*
Y0329359D01*
D02*
G37*
G36*
X024073Y0326017D02*
X02371D01*
Y0322387D01*
X024073D01*
Y0326017D01*
D02*
G37*
G36*
X02361D02*
X023247D01*
Y0322387D01*
X02361D01*
Y0326017D01*
D02*
G37*
G36*
X0273412Y03253D02*
X027114D01*
Y0322241D01*
X0273412D01*
Y03253D01*
D02*
G37*
G36*
X027014D02*
X0267868D01*
Y0322241D01*
X027014D01*
Y03253D01*
D02*
G37*
G36*
X0219441Y0326325D02*
X0218559D01*
X0217708Y0326097D01*
X0216945Y0325657D01*
X0216322Y0325033D01*
X0215882Y032427D01*
X0215653Y0323419D01*
Y0322538D01*
X0215882Y0321687D01*
X0216322Y0320924D01*
X0216945Y0320301D01*
X0217708Y031986D01*
X0218559Y0319632D01*
X0219441D01*
X0220292Y031986D01*
X0221055Y0320301D01*
X0221678Y0320924D01*
X0222118Y0321687D01*
X0222346Y0322538D01*
Y0323419D01*
X0222118Y032427D01*
X0221678Y0325033D01*
X0221055Y0325657D01*
X0220292Y0326097D01*
X0219441Y0326325D01*
D02*
G37*
G36*
X024073Y0321387D02*
X02371D01*
Y0317758D01*
X024073D01*
Y0321387D01*
D02*
G37*
G36*
X02361D02*
X023247D01*
Y0317758D01*
X02361D01*
Y0321387D01*
D02*
G37*
G36*
X028397Y0319648D02*
X02816D01*
Y03159D01*
X028397D01*
Y0319648D01*
D02*
G37*
G36*
X02806D02*
X027823D01*
Y03159D01*
X02806D01*
Y0319648D01*
D02*
G37*
G36*
X028397Y03149D02*
X02816D01*
Y0311152D01*
X028397D01*
Y03149D01*
D02*
G37*
G36*
X02806D02*
X027823D01*
Y0311152D01*
X02806D01*
Y03149D01*
D02*
G37*
G36*
X0194302Y0299439D02*
X0194301Y0299439D01*
X01943Y0299439D01*
X0180206D01*
X0180146Y0299414D01*
X0180081Y0299427D01*
X0179308Y0299273D01*
X0179254Y0299237D01*
X0179189D01*
X0178461Y0298935D01*
X0178414Y0298889D01*
X017835Y0298876D01*
X0177695Y0298439D01*
X0177659Y0298384D01*
X0177598Y0298359D01*
X0177041Y0297802D01*
X0177016Y0297741D01*
X0176962Y0297705D01*
X0176524Y029705D01*
X0176511Y0296986D01*
X0176465Y0296939D01*
X0176163Y0296211D01*
Y0296146D01*
X0176127Y0296091D01*
X0175973Y0295319D01*
X0175986Y0295254D01*
X0175961Y0295194D01*
Y02948D01*
Y02526D01*
X0175961Y0252123D01*
X0176009Y0252005D01*
Y0251878D01*
X0176375Y0250996D01*
X0176465Y0250906D01*
X0176513Y0250788D01*
X0177188Y0250113D01*
X0177306Y0250065D01*
X0177396Y0249975D01*
X0178278Y0249609D01*
X0178405D01*
X0178523Y0249561D01*
X0179Y0249561D01*
X01819D01*
X0182278Y0249561D01*
X0182395Y0249609D01*
X0182522D01*
X0183221Y0249899D01*
X0183311Y0249989D01*
X0183428Y0250037D01*
X0183963Y0250572D01*
X0184011Y0250689D01*
X0184101Y0250779D01*
X018439Y0251477D01*
Y0251605D01*
X0184439Y0251722D01*
X0184439Y02521D01*
X0184439Y02521D01*
Y0274284D01*
X0184477Y0275045D01*
X0184776Y0276552D01*
X0185358Y0277957D01*
X0186203Y0279221D01*
X0187278Y0280297D01*
X0188543Y0281142D01*
X0189948Y0281724D01*
X0191455Y0282023D01*
X0192216Y0282061D01*
X0199956Y0282061D01*
X0200017Y0282086D01*
X0200081Y0282073D01*
X0200583Y0282173D01*
X0200638Y0282209D01*
X0200703D01*
X0201176Y0282405D01*
X0201222Y0282452D01*
X0201287Y0282464D01*
X0201712Y0282749D01*
X0201749Y0282803D01*
X0201809Y0282828D01*
X0202171Y0283191D01*
X0202197Y0283251D01*
X0202251Y0283288D01*
X0202536Y0283713D01*
X0202548Y0283777D01*
X0202595Y0283824D01*
X0202791Y0284297D01*
Y0284362D01*
X0202827Y0284417D01*
X0202927Y0284919D01*
X0202914Y0284983D01*
X0202939Y0285044D01*
Y0296477D01*
X0202914Y0296537D01*
X0202927Y0296601D01*
X0202829Y0297096D01*
X0202792Y029715D01*
Y0297216D01*
X0202599Y0297682D01*
X0202553Y0297728D01*
X020254Y0297792D01*
X020226Y0298212D01*
X0202206Y0298248D01*
X0202181Y0298308D01*
X0201824Y0298665D01*
X0201763Y029869D01*
X0201727Y0298744D01*
X0201308Y0299025D01*
X0201244Y0299037D01*
X0201197Y0299084D01*
X0200731Y0299277D01*
X0200666D01*
X0200611Y0299313D01*
X0200117Y0299411D01*
X0200053Y0299399D01*
X0199992Y0299424D01*
X0199742D01*
X0194302Y0299439D01*
D02*
G37*
G36*
X0107931Y0301565D02*
X0107069D01*
X0106273Y0301236D01*
X0105664Y0300627D01*
X0105335Y0299831D01*
Y0298969D01*
X0105382Y0298855D01*
X0099814Y0293286D01*
X0099573Y0292926D01*
X0099488Y02925D01*
X0099488Y02925D01*
Y02269D01*
X0099488Y02269D01*
X0099573Y0226474D01*
X0099814Y0226114D01*
X0113406Y0212522D01*
X0113276Y0212096D01*
X011322Y0212022D01*
X01114D01*
X0110779Y0211898D01*
X0110253Y0211547D01*
X0105856Y020715D01*
X0105505Y0206624D01*
X0105381Y0206003D01*
Y0195706D01*
X0104948Y0195456D01*
X0104325Y0194833D01*
X0103885Y019407D01*
X0103657Y0193219D01*
Y0192338D01*
X0103885Y0191486D01*
X0104325Y0190723D01*
X0104948Y01901D01*
X0105711Y018966D01*
X0106563Y0189432D01*
X0107444D01*
X0108295Y018966D01*
X0109058Y01901D01*
X0109681Y0190723D01*
X0110122Y0191486D01*
X011035Y0192338D01*
Y0193219D01*
X0110122Y019407D01*
X0109681Y0194833D01*
X0109058Y0195456D01*
X0108625Y0195706D01*
Y0205331D01*
X0112072Y0208778D01*
X0128559D01*
X0128773Y0208564D01*
X0129569Y0208235D01*
X0130431D01*
X0131227Y0208564D01*
X0131836Y0209173D01*
X0132165Y0209969D01*
Y0210831D01*
X0131852Y0211588D01*
X0132027Y0212088D01*
X013997D01*
X0140177Y0211588D01*
X0139865Y0211276D01*
X0139398Y0210468D01*
X0139157Y0209566D01*
Y0208633D01*
X0139322Y0208016D01*
X0137028Y0205722D01*
X01188D01*
X0118179Y0205598D01*
X0117653Y0205247D01*
X0112553Y0200147D01*
X0112202Y0199621D01*
X0112078Y0199D01*
Y0173691D01*
X0107309D01*
Y0166309D01*
X0114309D01*
X0114516Y0165809D01*
X0112205Y0163498D01*
X0111486Y0163691D01*
X0110514D01*
X0109575Y0163439D01*
X0108734Y0162953D01*
X0108047Y0162266D01*
X0107561Y0161425D01*
X0107309Y0160486D01*
Y0159514D01*
X0107561Y0158575D01*
X0108047Y0157734D01*
X0108734Y0157047D01*
X0109575Y0156561D01*
X0110514Y0156309D01*
X0111486D01*
X0112425Y0156561D01*
X0113266Y0157047D01*
X0113953Y0157734D01*
X0114439Y0158575D01*
X0114691Y0159514D01*
Y0160486D01*
X0114498Y0161205D01*
X0118247Y0164953D01*
X0118598Y0165479D01*
X0118722Y01661D01*
Y0195728D01*
X0121372Y0198378D01*
X0134228D01*
X0138822Y0193784D01*
X0138657Y0193166D01*
Y0192234D01*
X0138898Y0191332D01*
X0139365Y0190524D01*
X0140024Y0189865D01*
X0140832Y0189398D01*
X0141734Y0189157D01*
X0142666D01*
X0143568Y0189398D01*
X0144376Y0189865D01*
X0145035Y0190524D01*
X0145502Y0191332D01*
X0145743Y0192234D01*
Y0193166D01*
X0145502Y0194068D01*
X0145035Y0194876D01*
X0144376Y0195535D01*
X0143568Y0196002D01*
X0142666Y0196243D01*
X0141734D01*
X0141116Y0196078D01*
X0136047Y0201147D01*
X0135521Y0201498D01*
X01349Y0201622D01*
X01207D01*
X0120079Y0201498D01*
X0119553Y0201147D01*
X0115953Y0197547D01*
X0115822Y019735D01*
X0115322Y0197502D01*
Y0198328D01*
X0119472Y0202478D01*
X01377D01*
X0138321Y0202602D01*
X0138847Y0202953D01*
X0141616Y0205722D01*
X0142234Y0205557D01*
X0143166D01*
X0144068Y0205798D01*
X0144876Y0206265D01*
X0145535Y0206924D01*
X0146002Y0207732D01*
X0146243Y0208633D01*
Y0209566D01*
X0146002Y0210468D01*
X0145535Y0211276D01*
X0145223Y0211588D01*
X014543Y0212088D01*
X0194835D01*
X0194835Y0212088D01*
X019526Y0212173D01*
X0195621Y0212414D01*
X0201755Y0218548D01*
X0201869Y02185D01*
X0202731D01*
X0203527Y021883D01*
X0204136Y0219439D01*
X0204465Y0220235D01*
Y0221096D01*
X0204136Y0221892D01*
X0203527Y0222501D01*
X0202731Y0222831D01*
X0201869D01*
X0201073Y0222501D01*
X0200464Y0221892D01*
X0200135Y0221096D01*
Y0220235D01*
X0200182Y022012D01*
X0194374Y0214312D01*
X0114761D01*
X0101712Y0227361D01*
Y0292039D01*
X0106955Y0297282D01*
X0107069Y0297235D01*
X0107931D01*
X0108727Y0297564D01*
X0109336Y0298173D01*
X0109665Y0298969D01*
Y0299831D01*
X0109336Y0300627D01*
X0108727Y0301236D01*
X0107931Y0301565D01*
D02*
G37*
G36*
X0274538Y0320339D02*
X0270302D01*
X0270185Y032029D01*
X0270058D01*
X0269322Y0319986D01*
X0269233Y0319896D01*
X0269115Y0319847D01*
X0268552Y0319285D01*
X0268504Y0319167D01*
X0268414Y0319077D01*
X0268109Y0318342D01*
Y0318215D01*
X0268061Y0318098D01*
Y03177D01*
Y0298131D01*
X0268023Y029775D01*
X026772Y0297018D01*
X0267182Y029648D01*
X026645Y0296177D01*
X0266068Y0296139D01*
X0265824D01*
X0265764Y0296114D01*
X02657Y0296127D01*
X0265159Y0296019D01*
X0265104Y0295983D01*
X0265039D01*
X0264529Y0295772D01*
X0264483Y0295726D01*
X0264419Y0295713D01*
X026396Y0295406D01*
X0263924Y0295352D01*
X0263863Y0295327D01*
X0263473Y0294937D01*
X0263448Y0294876D01*
X0263394Y029484D01*
X0263087Y0294381D01*
X0263074Y0294317D01*
X0263028Y0294271D01*
X0262817Y0293761D01*
Y0293696D01*
X0262781Y0293641D01*
X0262673Y0293101D01*
X0262686Y0293036D01*
X0262661Y0292976D01*
Y0286002D01*
X0262709Y0285885D01*
Y0285757D01*
X0263014Y0285022D01*
X0263104Y0284933D01*
X0263153Y0284815D01*
X0263715Y0284253D01*
X0263833Y0284204D01*
X0263923Y0284114D01*
X0264657Y0283809D01*
X0264785D01*
X0264902Y0283761D01*
X0267269D01*
X0267494Y0283739D01*
X0267938Y0283555D01*
X0268255Y0283238D01*
X0268439Y0282794D01*
X0268461Y0282569D01*
Y02629D01*
X0268461Y0262634D01*
X0268486Y0262574D01*
X0268473Y0262509D01*
X0268577Y0261988D01*
X0268613Y0261933D01*
Y0261868D01*
X0268817Y0261376D01*
X0268863Y026133D01*
X0268876Y0261266D01*
X0269171Y0260824D01*
X0269226Y0260787D01*
X0269251Y0260727D01*
X0269578Y0260399D01*
Y0198879D01*
X0269702Y0198258D01*
X0270053Y0197732D01*
X0278682Y0189103D01*
X0279208Y0188752D01*
X0279829Y0188628D01*
X0291978D01*
X0293978Y0186628D01*
Y01811D01*
Y0177407D01*
X0293545Y0177157D01*
X0292922Y0176533D01*
X0292482Y017577D01*
X0292253Y0174919D01*
Y0174038D01*
X0292482Y0173187D01*
X0292922Y0172424D01*
X0293545Y0171801D01*
X0294308Y017136D01*
X0295159Y0171132D01*
X0296041D01*
X0296892Y017136D01*
X0297655Y0171801D01*
X0298278Y0172424D01*
X0298718Y0173187D01*
X0298946Y0174038D01*
Y0174919D01*
X0298718Y017577D01*
X0298278Y0176533D01*
X0297655Y0177157D01*
X0297222Y0177407D01*
Y0179478D01*
X030216D01*
X0302373Y0179264D01*
X0303169Y0178935D01*
X0304031D01*
X0304827Y0179264D01*
X0305436Y0179873D01*
X0305765Y0180669D01*
Y0181531D01*
X0305436Y0182327D01*
X0304827Y0182936D01*
X0304031Y0183265D01*
X0303169D01*
X0302373Y0182936D01*
X030216Y0182722D01*
X0297222D01*
Y01873D01*
X0297098Y0187921D01*
X0296747Y0188447D01*
X0293797Y0191397D01*
X0293271Y0191748D01*
X029265Y0191872D01*
X0287422D01*
Y0193828D01*
X0288772Y0195178D01*
X02966D01*
X0297221Y0195302D01*
X0297747Y0195653D01*
X0305472Y0203378D01*
X0311504D01*
X0311928Y0202643D01*
X0312643Y0201928D01*
X0313518Y0201423D01*
X0314495Y0201161D01*
X0315505D01*
X0316482Y0201423D01*
X0317357Y0201928D01*
X0318072Y0202643D01*
X0318577Y0203518D01*
X0318839Y0204495D01*
Y0205505D01*
X0318577Y0206482D01*
X0318072Y0207357D01*
X0317357Y0208072D01*
X0316482Y0208577D01*
X0315505Y0208839D01*
X0314495D01*
X0313518Y0208577D01*
X0312643Y0208072D01*
X0311928Y0207357D01*
X0311504Y0206622D01*
X03048D01*
X0304179Y0206498D01*
X0303653Y0206147D01*
X0295928Y0198422D01*
X02881D01*
X0287479Y0198298D01*
X0286953Y0197947D01*
X0284653Y0195647D01*
X0284302Y0195121D01*
X0284178Y01945D01*
Y0191872D01*
X0280501D01*
X0272822Y019955D01*
Y0258951D01*
X0273237Y0259229D01*
X027343Y0259149D01*
X0273993Y0258773D01*
X0274473Y0258294D01*
X0274849Y025773D01*
X0275109Y0257104D01*
X0275244Y0256423D01*
X0275261Y0256088D01*
X0275161Y0246707D01*
X0275162Y0246703D01*
X0275161Y02467D01*
Y0246282D01*
X0275209Y0246165D01*
Y0246038D01*
X0275529Y0245266D01*
X0275619Y0245176D01*
X0275668Y0245058D01*
X0276258Y0244468D01*
X0276376Y0244419D01*
X0276466Y0244329D01*
X0277238Y0244009D01*
X0277365D01*
X0277482Y0243961D01*
X0281978D01*
X0282095Y0244009D01*
X0282223D01*
X0282921Y0244299D01*
X0283011Y0244389D01*
X0283128Y0244437D01*
X0283663Y0244972D01*
X0283711Y0245089D01*
X0283801Y0245179D01*
X028409Y0245877D01*
Y0246005D01*
X0284139Y0246122D01*
Y02465D01*
Y02642D01*
X0284139Y02642D01*
Y02642D01*
X0284128Y0264228D01*
X0284137Y0264256D01*
X0284096Y0264716D01*
X0284079Y0264749D01*
X0284086Y0264785D01*
X0284027Y0265083D01*
X0283991Y0265138D01*
Y0265203D01*
X0283795Y0265676D01*
X0283748Y0265722D01*
X0283736Y0265787D01*
X0283451Y0266213D01*
X0283397Y0266249D01*
X0283371Y0266309D01*
X0283009Y0266671D01*
X0282949Y0266697D01*
X0282912Y0266751D01*
X0282487Y0267036D01*
X0282422Y0267048D01*
X0282376Y0267095D01*
X0281903Y0267291D01*
X0281838D01*
X0281783Y0267327D01*
X0281281Y0267427D01*
X0281217Y0267414D01*
X0281156Y0267439D01*
X02809Y0267439D01*
X0279316Y0267439D01*
X0279006Y0267454D01*
X0278383Y0267578D01*
X0277812Y0267815D01*
X0277297Y0268159D01*
X0276859Y0268597D01*
X0276515Y0269111D01*
X0276278Y0269683D01*
X0276154Y0270306D01*
X0276139Y0270616D01*
X0276139Y0281469D01*
X0276175Y0281831D01*
X0276463Y0282527D01*
X0276973Y0283037D01*
X0277669Y0283325D01*
X0278058Y0283363D01*
X0278515Y02834D01*
X027855Y0283418D01*
X0278588Y028341D01*
X0278941Y0283481D01*
X0278996Y0283517D01*
X0279061D01*
X0279571Y0283728D01*
X0279617Y0283774D01*
X0279681Y0283787D01*
X028014Y0284094D01*
X0280176Y0284148D01*
X0280237Y0284173D01*
X0280627Y0284563D01*
X0280652Y0284624D01*
X0280706Y028466D01*
X0281013Y0285119D01*
X0281026Y0285183D01*
X0281072Y0285229D01*
X0281283Y0285739D01*
Y0285804D01*
X0281319Y0285859D01*
X0281427Y02864D01*
X0281414Y0286464D01*
X0281439Y0286524D01*
X0281439Y02868D01*
X0281439Y02926D01*
X0281439Y02926D01*
X0281439Y0293077D01*
X0281391Y0293195D01*
Y0293322D01*
X0281025Y0294204D01*
X0280935Y0294294D01*
X0280887Y0294411D01*
X0280211Y0295087D01*
X0280094Y0295135D01*
X0280004Y0295225D01*
X0279122Y029559D01*
X0278995D01*
X0278877Y0295639D01*
X0278431Y0295639D01*
X0278069Y0295675D01*
X0277373Y0295963D01*
X0276863Y0296473D01*
X0276575Y0297169D01*
X0276539Y0297531D01*
Y0318D01*
Y0318338D01*
X027649Y0318456D01*
Y0318583D01*
X0276232Y0319208D01*
X0276142Y0319298D01*
X0276093Y0319415D01*
X0275615Y0319893D01*
X0275498Y0319942D01*
X0275408Y0320032D01*
X0274783Y032029D01*
X0274656D01*
X0274538Y0320339D01*
D02*
G37*
G36*
X0325129Y0296029D02*
X03202D01*
Y02911D01*
X0325129D01*
Y0296029D01*
D02*
G37*
G36*
X03192D02*
X0314271D01*
Y02911D01*
X03192D01*
Y0296029D01*
D02*
G37*
G36*
X0126244Y0293968D02*
X0125363D01*
X0124512Y029374D01*
X0123748Y02933D01*
X0123125Y0292677D01*
X0122685Y0291914D01*
X0122457Y0291062D01*
Y0290181D01*
X0122685Y028933D01*
X0123125Y0288567D01*
X0123748Y0287944D01*
X0124512Y0287504D01*
X0125363Y0287276D01*
X0126244D01*
X0127095Y0287504D01*
X0127858Y0287944D01*
X0128481Y0288567D01*
X0128921Y028933D01*
X012915Y0290181D01*
Y0291062D01*
X0128921Y0291914D01*
X0128481Y0292677D01*
X0127858Y02933D01*
X0127095Y029374D01*
X0126244Y0293968D01*
D02*
G37*
G36*
X0107344D02*
X0106463D01*
X0105612Y029374D01*
X0104848Y02933D01*
X0104225Y0292677D01*
X0103785Y0291914D01*
X0103557Y0291062D01*
Y0290181D01*
X0103785Y028933D01*
X0104225Y0288567D01*
X0104848Y0287944D01*
X0105612Y0287504D01*
X0106463Y0287276D01*
X0107344D01*
X0108195Y0287504D01*
X0108958Y0287944D01*
X0109581Y0288567D01*
X0110021Y028933D01*
X011025Y0290181D01*
Y0291062D01*
X0110021Y0291914D01*
X0109581Y0292677D01*
X0108958Y02933D01*
X0108195Y029374D01*
X0107344Y0293968D01*
D02*
G37*
G36*
X0325129Y02901D02*
X03202D01*
Y0285171D01*
X0325129D01*
Y02901D01*
D02*
G37*
G36*
X03192D02*
X0314271D01*
Y0285171D01*
X03192D01*
Y02901D01*
D02*
G37*
G36*
X0267391Y0281859D02*
X026512D01*
Y02788D01*
X0267391D01*
Y0281859D01*
D02*
G37*
G36*
X026412D02*
X0261848D01*
Y02788D01*
X026412D01*
Y0281859D01*
D02*
G37*
G36*
X023709Y0284821D02*
X023611D01*
X0235164Y0284567D01*
X0234316Y0284077D01*
X0233623Y0283384D01*
X0233133Y0282536D01*
X0232879Y028159D01*
Y028061D01*
X0233133Y0279664D01*
X0233623Y0278816D01*
X0234316Y0278123D01*
X0235164Y0277633D01*
X023611Y0277379D01*
X023709D01*
X0238036Y0277633D01*
X0238884Y0278123D01*
X0239577Y0278816D01*
X0240067Y0279664D01*
X024032Y028061D01*
Y028159D01*
X0240067Y0282536D01*
X0239577Y0283384D01*
X0238884Y0284077D01*
X0238036Y0284567D01*
X023709Y0284821D01*
D02*
G37*
G36*
X0267391Y02778D02*
X026512D01*
Y0274741D01*
X0267391D01*
Y02778D01*
D02*
G37*
G36*
X026412D02*
X0261848D01*
Y0274741D01*
X026412D01*
Y02778D01*
D02*
G37*
G36*
X0127723Y0281441D02*
X0123883D01*
X0121962Y0279521D01*
Y027568D01*
X0123883Y027376D01*
X0127723D01*
X0129643Y027568D01*
Y0279521D01*
X0127723Y0281441D01*
D02*
G37*
G36*
X0108823D02*
X0104983D01*
X0103062Y0279521D01*
Y027568D01*
X0104983Y027376D01*
X0108823D01*
X0110743Y027568D01*
Y0279521D01*
X0108823Y0281441D01*
D02*
G37*
G36*
X0126363Y0271851D02*
X0126303D01*
Y0268101D01*
X0130053D01*
Y026816D01*
X0129763Y0269241D01*
X0129204Y027021D01*
X0128412Y0271002D01*
X0127443Y0271561D01*
X0126363Y0271851D01*
D02*
G37*
G36*
X0107463D02*
X0107403D01*
Y0268101D01*
X0111153D01*
Y026816D01*
X0110863Y0269241D01*
X0110304Y027021D01*
X0109512Y0271002D01*
X0108543Y0271561D01*
X0107463Y0271851D01*
D02*
G37*
G36*
X0125303D02*
X0125243D01*
X0124162Y0271561D01*
X0123193Y0271002D01*
X0122402Y027021D01*
X0121843Y0269241D01*
X0121553Y026816D01*
Y0268101D01*
X0125303D01*
Y0271851D01*
D02*
G37*
G36*
X0106403D02*
X0106343D01*
X0105262Y0271561D01*
X0104293Y0271002D01*
X0103502Y027021D01*
X0102943Y0269241D01*
X0102653Y026816D01*
Y0268101D01*
X0106403D01*
Y0271851D01*
D02*
G37*
G36*
X0147492Y027434D02*
X0146508D01*
X0145556Y0274085D01*
X0144703Y0273593D01*
X0144007Y0272897D01*
X0143515Y0272044D01*
X014326Y0271092D01*
Y0270108D01*
X0143515Y0269156D01*
X0144007Y0268303D01*
X0144703Y0267607D01*
X0145556Y0267115D01*
X0146508Y026686D01*
X0147492D01*
X0148444Y0267115D01*
X0149296Y0267607D01*
X0149993Y0268303D01*
X0150485Y0269156D01*
X015074Y0270108D01*
Y0271092D01*
X0150485Y0272044D01*
X0149993Y0272897D01*
X0149296Y0273593D01*
X0148444Y0274085D01*
X0147492Y027434D01*
D02*
G37*
G36*
X0130053Y0267101D02*
X0126303D01*
Y0263351D01*
X0126363D01*
X0127443Y026364D01*
X0128412Y02642D01*
X0129204Y0264991D01*
X0129763Y026596D01*
X0130053Y0267041D01*
Y0267101D01*
D02*
G37*
G36*
X0125303D02*
X0121553D01*
Y0267041D01*
X0121843Y026596D01*
X0122402Y0264991D01*
X0123193Y02642D01*
X0124162Y026364D01*
X0125243Y0263351D01*
X0125303D01*
Y0267101D01*
D02*
G37*
G36*
X0111153D02*
X0107403D01*
Y0263351D01*
X0107463D01*
X0108543Y026364D01*
X0109512Y02642D01*
X0110304Y0264991D01*
X0110863Y026596D01*
X0111153Y0267041D01*
Y0267101D01*
D02*
G37*
G36*
X0106403D02*
X0102653D01*
Y0267041D01*
X0102943Y026596D01*
X0103502Y0264991D01*
X0104293Y02642D01*
X0105262Y026364D01*
X0106343Y0263351D01*
X0106403D01*
Y0267101D01*
D02*
G37*
G36*
X0290312Y0264759D02*
X028804D01*
Y02617D01*
X0290312D01*
Y0264759D01*
D02*
G37*
G36*
X028704D02*
X0284769D01*
Y02617D01*
X028704D01*
Y0264759D01*
D02*
G37*
G36*
X025812Y0262753D02*
X02581D01*
Y02593D01*
X0261553D01*
Y025932D01*
X0261283Y0260326D01*
X0260763Y0261227D01*
X0260027Y0261963D01*
X0259126Y0262483D01*
X025812Y0262753D01*
D02*
G37*
G36*
X02571D02*
X025708D01*
X0256074Y0262483D01*
X0255173Y0261963D01*
X0254437Y0261227D01*
X0253917Y0260326D01*
X0253647Y025932D01*
Y02593D01*
X02571D01*
Y0262753D01*
D02*
G37*
G36*
X0290312Y02607D02*
X028804D01*
Y0257641D01*
X0290312D01*
Y02607D01*
D02*
G37*
G36*
X028704D02*
X0284769D01*
Y0257641D01*
X028704D01*
Y02607D01*
D02*
G37*
G36*
X0126463Y0261207D02*
X0126403D01*
Y0257457D01*
X0130153D01*
Y0257516D01*
X0129864Y0258597D01*
X0129304Y0259566D01*
X0128513Y0260358D01*
X0127544Y0260917D01*
X0126463Y0261207D01*
D02*
G37*
G36*
X0125403D02*
X0125344D01*
X0124263Y0260917D01*
X0123294Y0260358D01*
X0122503Y0259566D01*
X0121943Y0258597D01*
X0121653Y0257516D01*
Y0257457D01*
X0125403D01*
Y0261207D01*
D02*
G37*
G36*
X0107563Y0260907D02*
X0107503D01*
Y0257157D01*
X0111253D01*
Y0257216D01*
X0110964Y0258297D01*
X0110404Y0259266D01*
X0109613Y0260058D01*
X0108644Y0260617D01*
X0107563Y0260907D01*
D02*
G37*
G36*
X0106503D02*
X0106444D01*
X0105363Y0260617D01*
X0104394Y0260058D01*
X0103603Y0259266D01*
X0103043Y0258297D01*
X0102753Y0257216D01*
Y0257157D01*
X0106503D01*
Y0260907D01*
D02*
G37*
G36*
X015074Y026434D02*
X014326D01*
Y025686D01*
X015074D01*
Y026434D01*
D02*
G37*
G36*
X0291234Y025557D02*
X0287531D01*
X0287531Y025557D01*
X0287266Y025557D01*
X0287149Y0255521D01*
X0287021D01*
X0286532Y0255319D01*
X0286442Y0255229D01*
X0286325Y025518D01*
X0285951Y0254806D01*
X0285902Y0254688D01*
X0285812Y0254598D01*
X0285609Y0254109D01*
Y0253982D01*
X0285561Y0253865D01*
X0285561Y02536D01*
Y0234916D01*
X0285543Y0234547D01*
X0285396Y0233809D01*
X0285114Y0233129D01*
X0284705Y0232516D01*
X0284184Y0231995D01*
X0283571Y0231586D01*
X0282891Y0231304D01*
X0282153Y0231157D01*
X0281784Y0231139D01*
X0281505Y0231139D01*
X0281444Y0231114D01*
X028138Y0231127D01*
X02808Y0231012D01*
X0280746Y0230975D01*
X028068D01*
X0280134Y0230749D01*
X0280088Y0230703D01*
X0280024Y023069D01*
X0279533Y0230362D01*
X0279496Y0230307D01*
X0279436Y0230282D01*
X0279018Y0229864D01*
X0278993Y0229804D01*
X0278938Y0229767D01*
X027861Y0229276D01*
X0278597Y0229212D01*
X0278551Y0229166D01*
X0278325Y022862D01*
Y0228554D01*
X0278288Y02285D01*
X0278173Y022792D01*
X0278186Y0227856D01*
X0278161Y0227795D01*
X0278161Y02275D01*
Y02131D01*
X0278161Y0212603D01*
X0278209Y0212485D01*
Y0212358D01*
X027859Y0211439D01*
X027868Y0211349D01*
X0278729Y0211232D01*
X0279432Y0210529D01*
X0279549Y021048D01*
X0279639Y021039D01*
X0280558Y0210009D01*
X0280685D01*
X0280803Y0209961D01*
X02813Y0209961D01*
X02972D01*
X02972Y0209961D01*
X0297466D01*
X0297526Y0209986D01*
X0297591Y0209973D01*
X0298112Y0210077D01*
X0298167Y0210113D01*
X0298232D01*
X0298724Y0210317D01*
X029877Y0210363D01*
X0298834Y0210376D01*
X0299276Y0210671D01*
X0299313Y0210726D01*
X0299373Y0210751D01*
X0299749Y0211127D01*
X0299774Y0211187D01*
X0299829Y0211224D01*
X0300124Y0211666D01*
X0300137Y021173D01*
X0300183Y0211776D01*
X0300387Y0212268D01*
Y0212333D01*
X0300423Y0212388D01*
X0300527Y0212909D01*
X0300514Y0212974D01*
X0300539Y0213034D01*
Y0215878D01*
X0310818D01*
X0311161Y0215505D01*
Y0214495D01*
X0311423Y0213518D01*
X0311928Y0212643D01*
X0312643Y0211928D01*
X0313518Y0211423D01*
X0314495Y0211161D01*
X0315505D01*
X0316482Y0211423D01*
X0317357Y0211928D01*
X0318072Y0212643D01*
X0318577Y0213518D01*
X0318839Y0214495D01*
Y0215505D01*
X0318577Y0216482D01*
X0318072Y0217357D01*
X0317357Y0218072D01*
X0316482Y0218577D01*
X0315505Y0218839D01*
X0314495D01*
X0313518Y0218577D01*
X0313061Y0218313D01*
X0312727Y0218647D01*
X0312201Y0218998D01*
X031158Y0219122D01*
X0300539D01*
X0300539Y02273D01*
X0300539Y02273D01*
Y0227301D01*
X030053Y0227323D01*
X0300537Y0227346D01*
X0300504Y0227807D01*
X0300486Y0227845D01*
X0300494Y0227886D01*
X0300412Y02283D01*
X0300375Y0228354D01*
Y022842D01*
X0300149Y0228966D01*
X0300103Y0229012D01*
X030009Y0229076D01*
X0299762Y0229568D01*
X0299707Y0229604D01*
X0299682Y0229664D01*
X0299264Y0230082D01*
X0299204Y0230107D01*
X0299167Y0230162D01*
X0298676Y023049D01*
X0298612Y0230503D01*
X0298566Y0230549D01*
X029802Y0230775D01*
X0297954D01*
X02979Y0230812D01*
X029732Y0230927D01*
X0297256Y0230914D01*
X0297195Y0230939D01*
X0296916Y0230939D01*
X0296528Y0230958D01*
X0295751Y0231113D01*
X0295034Y023141D01*
X0294389Y0231841D01*
X0293841Y0232389D01*
X029341Y0233034D01*
X0293113Y0233751D01*
X0292958Y0234528D01*
X0292939Y0234916D01*
Y0253865D01*
X0292891Y0253982D01*
Y0254109D01*
X0292688Y0254598D01*
X0292598Y0254688D01*
X0292549Y0254806D01*
X0292175Y025518D01*
X0292057Y0255229D01*
X0291968Y0255319D01*
X0291478Y0255521D01*
X0291351D01*
X0291234Y025557D01*
D02*
G37*
G36*
X0261553Y02583D02*
X02581D01*
Y0254847D01*
X025812D01*
X0259126Y0255117D01*
X0260027Y0255637D01*
X0260763Y0256373D01*
X0261283Y0257274D01*
X0261553Y025828D01*
Y02583D01*
D02*
G37*
G36*
X02571D02*
X0253647D01*
Y025828D01*
X0253917Y0257274D01*
X0254437Y0256373D01*
X0255173Y0255637D01*
X0256074Y0255117D01*
X025708Y0254847D01*
X02571D01*
Y02583D01*
D02*
G37*
G36*
X01604Y0256755D02*
Y0254051D01*
X0163104D01*
X0162905Y0254796D01*
X016248Y0255531D01*
X016188Y0256131D01*
X0161145Y0256556D01*
X01604Y0256755D01*
D02*
G37*
G36*
X01594D02*
X0158655Y0256556D01*
X015792Y0256131D01*
X015732Y0255531D01*
X0156895Y0254796D01*
X0156696Y0254051D01*
X01594D01*
Y0256755D01*
D02*
G37*
G36*
X0130153Y0256457D02*
X0126403D01*
Y0252707D01*
X0126463D01*
X0127544Y0252996D01*
X0128513Y0253556D01*
X0129304Y0254347D01*
X0129864Y0255316D01*
X0130153Y0256397D01*
Y0256457D01*
D02*
G37*
G36*
X0125403D02*
X0121653D01*
Y0256397D01*
X0121943Y0255316D01*
X0122503Y0254347D01*
X0123294Y0253556D01*
X0124263Y0252996D01*
X0125344Y0252707D01*
X0125403D01*
Y0256457D01*
D02*
G37*
G36*
X0111253Y0256157D02*
X0107503D01*
Y0252407D01*
X0107563D01*
X0108644Y0252696D01*
X0109613Y0253256D01*
X0110404Y0254047D01*
X0110964Y0255016D01*
X0111253Y0256097D01*
Y0256157D01*
D02*
G37*
G36*
X0106503D02*
X0102753D01*
Y0256097D01*
X0103043Y0255016D01*
X0103603Y0254047D01*
X0104394Y0253256D01*
X0105363Y0252696D01*
X0106444Y0252407D01*
X0106503D01*
Y0256157D01*
D02*
G37*
G36*
X030107Y0254569D02*
X02987D01*
Y0250821D01*
X030107D01*
Y0254569D01*
D02*
G37*
G36*
X02977D02*
X029533D01*
Y0250821D01*
X02977D01*
Y0254569D01*
D02*
G37*
G36*
X0192715Y0256366D02*
X0187085D01*
Y0250736D01*
X0192715D01*
Y0256366D01*
D02*
G37*
G36*
X0163104Y0253051D02*
X01604D01*
Y0250347D01*
X0161145Y0250547D01*
X016188Y0250971D01*
X016248Y0251571D01*
X0162905Y0252307D01*
X0163104Y0253051D01*
D02*
G37*
G36*
X01594D02*
X0156696D01*
X0156895Y0252307D01*
X015732Y0251571D01*
X015792Y0250971D01*
X0158655Y0250547D01*
X01594Y0250347D01*
Y0253051D01*
D02*
G37*
G36*
X01501Y0299239D02*
X0149762D01*
X0149644Y029919D01*
X0149517D01*
X0148892Y0298932D01*
X0148802Y0298842D01*
X0148685Y0298793D01*
X0148207Y0298315D01*
X0148158Y0298198D01*
X0148068Y0298108D01*
X0147809Y0297483D01*
Y0297356D01*
X0147761Y0297238D01*
Y0284102D01*
X0147809Y0283985D01*
Y0283857D01*
X0148114Y0283122D01*
X0148204Y0283033D01*
X0148252Y0282915D01*
X0148815Y0282352D01*
X0148933Y0282304D01*
X0149022Y0282214D01*
X0149758Y0281909D01*
X0149885D01*
X0150002Y0281861D01*
X0156384D01*
X0157253Y0281818D01*
X0158971Y0281476D01*
X0160575Y0280812D01*
X0162019Y0279847D01*
X0163247Y0278619D01*
X0164212Y0277175D01*
X0164876Y0275571D01*
X0165218Y0273853D01*
X0165261Y0272984D01*
X0165261Y02522D01*
X0165261Y0251822D01*
X0165309Y0251705D01*
Y0251577D01*
X0165599Y0250879D01*
X0165689Y0250789D01*
X0165737Y0250672D01*
X0166272Y0250137D01*
X0166389Y0250089D01*
X0166479Y0249999D01*
X0167177Y0249709D01*
X0167305D01*
X0167422Y0249661D01*
X01678Y0249661D01*
X01723D01*
X0172558Y0249661D01*
X0172676Y0249709D01*
X0172803Y0249709D01*
X0173281Y0249907D01*
X0173371Y0249997D01*
X0173488Y0250046D01*
X0173854Y0250412D01*
X0173903Y0250529D01*
X0173993Y0250619D01*
X0174191Y0251097D01*
X0174191Y0251224D01*
X0174239Y0251342D01*
X0174239Y02516D01*
X0174239Y02938D01*
X0174239Y02938D01*
X0174239Y0294273D01*
X0174214Y0294333D01*
X0174227Y0294397D01*
X0174042Y0295325D01*
X0174006Y0295379D01*
Y0295445D01*
X0173644Y0296318D01*
X0173598Y0296364D01*
X0173585Y0296429D01*
X017306Y0297215D01*
X0173005Y0297251D01*
X017298Y0297312D01*
X0172312Y029798D01*
X0172251Y0298005D01*
X0172215Y029806D01*
X0171429Y0298585D01*
X0171365Y0298598D01*
X0171318Y0298644D01*
X0170445Y0299006D01*
X0170379D01*
X0170325Y0299043D01*
X0169397Y0299227D01*
X0169333Y0299214D01*
X0169273Y0299239D01*
X01688Y0299239D01*
X01501Y0299239D01*
D02*
G37*
G36*
X030107Y0249821D02*
X02987D01*
Y0246073D01*
X030107D01*
Y0249821D01*
D02*
G37*
G36*
X02977D02*
X029533D01*
Y0246073D01*
X02977D01*
Y0249821D01*
D02*
G37*
G36*
X0318681Y0247661D02*
X0317114D01*
Y0243D01*
X0321775D01*
Y0244567D01*
X0321669Y0245368D01*
X032136Y0246114D01*
X0320868Y0246755D01*
X0320228Y0247246D01*
X0319482Y0247555D01*
X0318681Y0247661D01*
D02*
G37*
G36*
X0316114D02*
X0314547D01*
X0313747Y0247555D01*
X0313001Y0247246D01*
X031236Y0246755D01*
X0311868Y0246114D01*
X0311559Y0245368D01*
X0311454Y0244567D01*
Y0243D01*
X0316114D01*
Y0247661D01*
D02*
G37*
G36*
X0108924Y0250497D02*
X0105083D01*
X0103163Y0248577D01*
Y0244737D01*
X0105083Y0242816D01*
X0108924D01*
X0110844Y0244737D01*
Y0248577D01*
X0108924Y0250497D01*
D02*
G37*
G36*
X0244541Y0249268D02*
X0243659D01*
X0242808Y024904D01*
X0242045Y0248599D01*
X0241422Y0247976D01*
X0240982Y0247213D01*
X0240754Y0246362D01*
Y0245481D01*
X0240982Y024463D01*
X0241422Y0243866D01*
X0242045Y0243243D01*
X0242808Y0242803D01*
X0243659Y0242575D01*
X0244541D01*
X0245392Y0242803D01*
X0246155Y0243243D01*
X0246778Y0243866D01*
X0247218Y024463D01*
X0247446Y0245481D01*
Y0246362D01*
X0247218Y0247213D01*
X0246778Y0247976D01*
X0246155Y0248599D01*
X0245392Y024904D01*
X0244541Y0249268D01*
D02*
G37*
G36*
X0260941Y0249168D02*
X0260059D01*
X0259208Y024894D01*
X0258445Y0248499D01*
X0257822Y0247876D01*
X0257382Y0247113D01*
X0257154Y0246262D01*
Y0245381D01*
X0257382Y024453D01*
X0257822Y0243766D01*
X0258445Y0243143D01*
X0259208Y0242703D01*
X0260059Y0242475D01*
X0260941D01*
X0261792Y0242703D01*
X0262555Y0243143D01*
X0263178Y0243766D01*
X0263618Y024453D01*
X0263846Y0245381D01*
Y0246262D01*
X0263618Y0247113D01*
X0263178Y0247876D01*
X0262555Y0248499D01*
X0261792Y024894D01*
X0260941Y0249168D01*
D02*
G37*
G36*
X022352Y0245845D02*
X02235D01*
Y0242392D01*
X0226953D01*
Y0242413D01*
X0226683Y0243418D01*
X0226163Y024432D01*
X0225427Y0245056D01*
X0224526Y0245576D01*
X022352Y0245845D01*
D02*
G37*
G36*
X020812D02*
X02081D01*
Y0242392D01*
X0211553D01*
Y0242413D01*
X0211283Y0243418D01*
X0210763Y024432D01*
X0210027Y0245056D01*
X0209126Y0245576D01*
X020812Y0245845D01*
D02*
G37*
G36*
X02225D02*
X022248D01*
X0221474Y0245576D01*
X0220573Y0245056D01*
X0219837Y024432D01*
X0219317Y0243418D01*
X0219047Y0242413D01*
Y0242392D01*
X02225D01*
Y0245845D01*
D02*
G37*
G36*
X02071D02*
X020708D01*
X0206074Y0245576D01*
X0205173Y0245056D01*
X0204437Y024432D01*
X0203917Y0243418D01*
X0203647Y0242413D01*
Y0242392D01*
X02071D01*
Y0245845D01*
D02*
G37*
G36*
X0226953Y0241392D02*
X02235D01*
Y023794D01*
X022352D01*
X0224526Y0238209D01*
X0225427Y023873D01*
X0226163Y0239465D01*
X0226683Y0240367D01*
X0226953Y0241372D01*
Y0241392D01*
D02*
G37*
G36*
X02225D02*
X0219047D01*
Y0241372D01*
X0219317Y0240367D01*
X0219837Y0239465D01*
X0220573Y023873D01*
X0221474Y0238209D01*
X022248Y023794D01*
X02225D01*
Y0241392D01*
D02*
G37*
G36*
X0211553D02*
X02081D01*
Y023794D01*
X020812D01*
X0209126Y0238209D01*
X0210027Y023873D01*
X0210763Y0239465D01*
X0211283Y0240367D01*
X0211553Y0241372D01*
Y0241392D01*
D02*
G37*
G36*
X02071D02*
X0203647D01*
Y0241372D01*
X0203917Y0240367D01*
X0204437Y0239465D01*
X0205173Y023873D01*
X0206074Y0238209D01*
X020708Y023794D01*
X02071D01*
Y0241392D01*
D02*
G37*
G36*
X0321775Y0242D02*
X0317114D01*
Y023734D01*
X0318681D01*
X0319482Y0237445D01*
X0320228Y0237754D01*
X0320868Y0238246D01*
X032136Y0238887D01*
X0321669Y0239633D01*
X0321775Y0240433D01*
Y0242D01*
D02*
G37*
G36*
X0316114D02*
X0311454D01*
Y0240433D01*
X0311559Y0239633D01*
X0311868Y0238887D01*
X031236Y0238246D01*
X0313001Y0237754D01*
X0313747Y0237445D01*
X0314547Y023734D01*
X0316114D01*
Y0242D01*
D02*
G37*
G36*
X0126344Y0236282D02*
X0125463D01*
X0124611Y0236054D01*
X0123848Y0235613D01*
X0123225Y023499D01*
X0122785Y0234227D01*
X0122557Y0233376D01*
Y0232495D01*
X0122785Y0231644D01*
X0123225Y0230881D01*
X0123848Y0230258D01*
X0124611Y0229817D01*
X0125463Y0229589D01*
X0126344D01*
X0127195Y0229817D01*
X0127958Y0230258D01*
X0128581Y0230881D01*
X0129022Y0231644D01*
X012925Y0232495D01*
Y0233376D01*
X0129022Y0234227D01*
X0128581Y023499D01*
X0127958Y0235613D01*
X0127195Y0236054D01*
X0126344Y0236282D01*
D02*
G37*
G36*
X0107444D02*
X0106563D01*
X0105711Y0236054D01*
X0104948Y0235613D01*
X0104325Y023499D01*
X0103885Y0234227D01*
X0103657Y0233376D01*
Y0232495D01*
X0103885Y0231644D01*
X0104325Y0230881D01*
X0104948Y0230258D01*
X0105711Y0229817D01*
X0106563Y0229589D01*
X0107444D01*
X0108295Y0229817D01*
X0109058Y0230258D01*
X0109681Y0230881D01*
X0110122Y0231644D01*
X011035Y0232495D01*
Y0233376D01*
X0110122Y0234227D01*
X0109681Y023499D01*
X0109058Y0235613D01*
X0108295Y0236054D01*
X0107444Y0236282D01*
D02*
G37*
G36*
X0208067Y0235436D02*
X0207134D01*
X0206232Y0235194D01*
X0205424Y0234728D01*
X0204765Y0234068D01*
X0204445Y0233514D01*
X0183292D01*
X0182672Y0233391D01*
X0182146Y0233039D01*
X0178753Y0229647D01*
X0178402Y0229121D01*
X0178278Y02285D01*
Y0224605D01*
X0178172Y0224544D01*
X0177647Y022402D01*
X0177277Y0223378D01*
X0177085Y0222662D01*
Y0221921D01*
X0177277Y0221205D01*
X0177647Y0220563D01*
X0178172Y0220039D01*
X0178814Y0219668D01*
X0179529Y0219476D01*
X0180271D01*
X0180986Y0219668D01*
X0181628Y0220039D01*
X0182152Y0220563D01*
X0182523Y0221205D01*
X0182715Y0221921D01*
Y0222662D01*
X0182523Y0223378D01*
X0182152Y022402D01*
X0181628Y0224544D01*
X0181522Y0224605D01*
Y0227828D01*
X0183964Y0230271D01*
X0204445D01*
X0204765Y0229717D01*
X0205424Y0229057D01*
X0206232Y0228591D01*
X0207134Y0228349D01*
X0208067D01*
X0208968Y0228591D01*
X0209776Y0229057D01*
X0210435Y0229717D01*
X0210902Y0230525D01*
X0211143Y0231426D01*
Y0232359D01*
X0210902Y023326D01*
X0210435Y0234068D01*
X0209776Y0234728D01*
X0208968Y0235194D01*
X0208067Y0235436D01*
D02*
G37*
G36*
X0190271Y0225106D02*
X0189529D01*
X0188813Y0224915D01*
X0188172Y0224544D01*
X0187647Y022402D01*
X0187277Y0223378D01*
X0187085Y0222662D01*
Y0221921D01*
X0187277Y0221205D01*
X0187647Y0220563D01*
X0188172Y0220039D01*
X0188813Y0219668D01*
X0189529Y0219476D01*
X0190271D01*
X0190987Y0219668D01*
X0191628Y0220039D01*
X0192153Y0220563D01*
X0192523Y0221205D01*
X0192715Y0221921D01*
Y0222662D01*
X0192523Y0223378D01*
X0192153Y022402D01*
X0191628Y0224544D01*
X0190987Y0224915D01*
X0190271Y0225106D01*
D02*
G37*
G36*
X0170271D02*
X0169529D01*
X0168814Y0224915D01*
X0168172Y0224544D01*
X0167648Y022402D01*
X0167277Y0223378D01*
X0167085Y0222662D01*
Y0221921D01*
X0167277Y0221205D01*
X0167648Y0220563D01*
X0168172Y0220039D01*
X0168814Y0219668D01*
X0169529Y0219476D01*
X0170271D01*
X0170986Y0219668D01*
X0171628Y0220039D01*
X0172152Y0220563D01*
X0172523Y0221205D01*
X0172715Y0221921D01*
Y0222662D01*
X0172523Y0223378D01*
X0172152Y022402D01*
X0171628Y0224544D01*
X0170986Y0224915D01*
X0170271Y0225106D01*
D02*
G37*
G36*
X0160271D02*
X0159529D01*
X0158814Y0224915D01*
X0158172Y0224544D01*
X0157648Y022402D01*
X0157277Y0223378D01*
X0157085Y0222662D01*
Y0221921D01*
X0157277Y0221205D01*
X0157648Y0220563D01*
X0158172Y0220039D01*
X0158814Y0219668D01*
X0159529Y0219476D01*
X0160271D01*
X0160986Y0219668D01*
X0161628Y0220039D01*
X0162153Y0220563D01*
X0162523Y0221205D01*
X0162715Y0221921D01*
Y0222662D01*
X0162523Y0223378D01*
X0162153Y022402D01*
X0161628Y0224544D01*
X0160986Y0224915D01*
X0160271Y0225106D01*
D02*
G37*
G36*
X0325505Y0218839D02*
X0324495D01*
X0323518Y0218577D01*
X0322643Y0218072D01*
X0321928Y0217357D01*
X0321423Y0216482D01*
X0321161Y0215505D01*
Y0214495D01*
X0321423Y0213518D01*
X0321928Y0212643D01*
X0322643Y0211928D01*
X0323518Y0211423D01*
X0324495Y0211161D01*
X0325505D01*
X0326482Y0211423D01*
X0327357Y0211928D01*
X0328072Y0212643D01*
X0328577Y0213518D01*
X0328839Y0214495D01*
Y0215505D01*
X0328577Y0216482D01*
X0328072Y0217357D01*
X0327357Y0218072D01*
X0326482Y0218577D01*
X0325505Y0218839D01*
D02*
G37*
G36*
X0292759Y0208691D02*
X02897D01*
Y020642D01*
X0292759D01*
Y0208691D01*
D02*
G37*
G36*
X02887D02*
X0285641D01*
Y020642D01*
X02887D01*
Y0208691D01*
D02*
G37*
G36*
X0261Y0209418D02*
Y0206164D01*
X0264254D01*
X0264Y0207114D01*
X0263506Y020797D01*
X0262806Y0208669D01*
X026195Y0209164D01*
X0261Y0209418D01*
D02*
G37*
G36*
X026D02*
X025905Y0209164D01*
X0258194Y0208669D01*
X0257494Y020797D01*
X0257Y0207114D01*
X0256746Y0206164D01*
X026D01*
Y0209418D01*
D02*
G37*
G36*
X0325559Y0209248D02*
X03255D01*
Y02055D01*
X0329248D01*
Y0205559D01*
X0328959Y020664D01*
X0328399Y0207608D01*
X0327608Y0208399D01*
X032664Y0208959D01*
X0325559Y0209248D01*
D02*
G37*
G36*
X03245D02*
X0324441D01*
X032336Y0208959D01*
X0322392Y0208399D01*
X0321601Y0207608D01*
X0321041Y020664D01*
X0320752Y0205559D01*
Y02055D01*
X03245D01*
Y0209248D01*
D02*
G37*
G36*
X0192262Y0211446D02*
X0191381D01*
X019053Y0211218D01*
X0189767Y0210778D01*
X0189143Y0210155D01*
X0188703Y0209392D01*
X0188475Y0208541D01*
Y0207659D01*
X0188703Y0206808D01*
X0189143Y0206045D01*
X0189767Y0205422D01*
X019053Y0204982D01*
X0191381Y0204753D01*
X0192262D01*
X0193113Y0204982D01*
X0193876Y0205422D01*
X0194499Y0206045D01*
X019494Y0206808D01*
X0195168Y0207659D01*
Y0208541D01*
X019494Y0209392D01*
X0194499Y0210155D01*
X0193876Y0210778D01*
X0193113Y0211218D01*
X0192262Y0211446D01*
D02*
G37*
G36*
X0172501Y0211565D02*
X0171568D01*
X0170667Y0211323D01*
X0169859Y0210857D01*
X0169199Y0210197D01*
X0168733Y0209389D01*
X0168491Y0208488D01*
Y0207555D01*
X0168733Y0206654D01*
X0169199Y0205846D01*
X0169859Y0205186D01*
X0170667Y0204719D01*
X0171568Y0204478D01*
X0172501D01*
X0173402Y0204719D01*
X017421Y0205186D01*
X017487Y0205846D01*
X0175337Y0206654D01*
X0175578Y0207555D01*
Y0208488D01*
X0175337Y0209389D01*
X017487Y0210197D01*
X017421Y0210857D01*
X0173402Y0211323D01*
X0172501Y0211565D01*
D02*
G37*
G36*
X0162501D02*
X0161568D01*
X0160667Y0211323D01*
X0159859Y0210857D01*
X0159199Y0210197D01*
X0158733Y0209389D01*
X0158491Y0208488D01*
Y0207555D01*
X0158733Y0206654D01*
X0159199Y0205846D01*
X0159859Y0205186D01*
X0160667Y0204719D01*
X0161568Y0204478D01*
X0162501D01*
X0163402Y0204719D01*
X016421Y0205186D01*
X016487Y0205846D01*
X0165337Y0206654D01*
X0165578Y0207555D01*
Y0208488D01*
X0165337Y0209389D01*
X016487Y0210197D01*
X016421Y0210857D01*
X0163402Y0211323D01*
X0162501Y0211565D01*
D02*
G37*
G36*
X0292759Y020542D02*
X02897D01*
Y0203148D01*
X0292759D01*
Y020542D01*
D02*
G37*
G36*
X02887D02*
X0285641D01*
Y0203148D01*
X02887D01*
Y020542D01*
D02*
G37*
G36*
X0244541Y020911D02*
X0243659D01*
X0242808Y0208882D01*
X0242045Y0208442D01*
X0241422Y0207819D01*
X0240982Y0207055D01*
X0240754Y0206204D01*
Y0205323D01*
X0240982Y0204472D01*
X0241422Y0203709D01*
X0242045Y0203086D01*
X0242808Y0202645D01*
X0243659Y0202417D01*
X0244541D01*
X0245392Y0202645D01*
X0246155Y0203086D01*
X0246778Y0203709D01*
X0247218Y0204472D01*
X0247446Y0205323D01*
Y0206204D01*
X0247218Y0207055D01*
X0246778Y0207819D01*
X0246155Y0208442D01*
X0245392Y0208882D01*
X0244541Y020911D01*
D02*
G37*
G36*
X0264254Y0205164D02*
X0261D01*
Y0201909D01*
X026195Y0202164D01*
X0262806Y0202658D01*
X0263506Y0203358D01*
X0264Y0204214D01*
X0264254Y0205164D01*
D02*
G37*
G36*
X026D02*
X0256746D01*
X0257Y0204214D01*
X0257494Y0203358D01*
X0258194Y0202658D01*
X025905Y0202164D01*
X026Y0201909D01*
Y0205164D01*
D02*
G37*
G36*
X0329248Y02045D02*
X03255D01*
Y0200752D01*
X0325559D01*
X032664Y0201042D01*
X0327608Y0201601D01*
X0328399Y0202392D01*
X0328959Y020336D01*
X0329248Y0204441D01*
Y02045D01*
D02*
G37*
G36*
X03245D02*
X0320752D01*
Y0204441D01*
X0321041Y020336D01*
X0321601Y0202392D01*
X0322392Y0201601D01*
X032336Y0201042D01*
X0324441Y0200752D01*
X03245D01*
Y02045D01*
D02*
G37*
G36*
X0162555Y0196963D02*
X0162535D01*
Y0193511D01*
X0165987D01*
Y0193531D01*
X0165718Y0194536D01*
X0165198Y0195438D01*
X0164462Y0196174D01*
X016356Y0196694D01*
X0162555Y0196963D01*
D02*
G37*
G36*
X0161535D02*
X0161514D01*
X0160509Y0196694D01*
X0159608Y0196174D01*
X0158872Y0195438D01*
X0158351Y0194536D01*
X0158082Y0193531D01*
Y0193511D01*
X0161535D01*
Y0196963D01*
D02*
G37*
G36*
X0325505Y0198839D02*
X0324495D01*
X0323518Y0198577D01*
X0322643Y0198072D01*
X0321928Y0197357D01*
X0321423Y0196482D01*
X0321161Y0195505D01*
Y0194495D01*
X0321423Y0193518D01*
X0321928Y0192643D01*
X0322643Y0191928D01*
X0323518Y0191423D01*
X0324495Y0191161D01*
X0325505D01*
X0326482Y0191423D01*
X0327357Y0191928D01*
X0328072Y0192643D01*
X0328577Y0193518D01*
X0328839Y0194495D01*
Y0195505D01*
X0328577Y0196482D01*
X0328072Y0197357D01*
X0327357Y0198072D01*
X0326482Y0198577D01*
X0325505Y0198839D01*
D02*
G37*
G36*
X0315505D02*
X0314495D01*
X0313518Y0198577D01*
X0312643Y0198072D01*
X0311928Y0197357D01*
X0311423Y0196482D01*
X0311161Y0195505D01*
Y0194495D01*
X0311423Y0193518D01*
X0311928Y0192643D01*
X0312643Y0191928D01*
X0313518Y0191423D01*
X0314495Y0191161D01*
X0315505D01*
X0316482Y0191423D01*
X0317357Y0191928D01*
X0318072Y0192643D01*
X0318577Y0193518D01*
X0318839Y0194495D01*
Y0195505D01*
X0318577Y0196482D01*
X0318072Y0197357D01*
X0317357Y0198072D01*
X0316482Y0198577D01*
X0315505Y0198839D01*
D02*
G37*
G36*
X0232719Y0197146D02*
X0231838D01*
X0230987Y0196918D01*
X0230224Y0196478D01*
X0229601Y0195855D01*
X022916Y0195092D01*
X0228932Y0194241D01*
Y0193359D01*
X022916Y0192508D01*
X0229601Y0191745D01*
X0230224Y0191122D01*
X0230987Y0190682D01*
X0231838Y0190454D01*
X0232719D01*
X023357Y0190682D01*
X0234333Y0191122D01*
X0234957Y0191745D01*
X0235397Y0192508D01*
X0235625Y0193359D01*
Y0194241D01*
X0235397Y0195092D01*
X0234957Y0195855D01*
X0234333Y0196478D01*
X023357Y0196918D01*
X0232719Y0197146D01*
D02*
G37*
G36*
X0192562D02*
X0191681D01*
X019083Y0196918D01*
X0190067Y0196478D01*
X0189443Y0195855D01*
X0189003Y0195092D01*
X0188775Y0194241D01*
Y0193359D01*
X0189003Y0192508D01*
X0189443Y0191745D01*
X0190067Y0191122D01*
X019083Y0190682D01*
X0191681Y0190454D01*
X0192562D01*
X0193413Y0190682D01*
X0194176Y0191122D01*
X0194799Y0191745D01*
X019524Y0192508D01*
X0195468Y0193359D01*
Y0194241D01*
X019524Y0195092D01*
X0194799Y0195855D01*
X0194176Y0196478D01*
X0193413Y0196918D01*
X0192562Y0197146D01*
D02*
G37*
G36*
X0165987Y0192511D02*
X0162535D01*
Y0189058D01*
X0162555D01*
X016356Y0189327D01*
X0164462Y0189848D01*
X0165198Y0190584D01*
X0165718Y0191485D01*
X0165987Y019249D01*
Y0192511D01*
D02*
G37*
G36*
X0161535D02*
X0158082D01*
Y019249D01*
X0158351Y0191485D01*
X0158872Y0190584D01*
X0159608Y0189848D01*
X0160509Y0189327D01*
X0161514Y0189058D01*
X0161535D01*
Y0192511D01*
D02*
G37*
G36*
X0315505Y0188839D02*
X0314495D01*
X0313518Y0188577D01*
X0312643Y0188072D01*
X0311928Y0187357D01*
X0311423Y0186482D01*
X0311161Y0185505D01*
Y0184495D01*
X0311423Y0183518D01*
X0311928Y0182643D01*
X0312643Y0181928D01*
X0313518Y0181423D01*
X0314495Y0181161D01*
X0315505D01*
X0316482Y0181423D01*
X0317357Y0181928D01*
X0318072Y0182643D01*
X0318577Y0183518D01*
X0318839Y0184495D01*
Y0185505D01*
X0318577Y0186482D01*
X0318072Y0187357D01*
X0317357Y0188072D01*
X0316482Y0188577D01*
X0315505Y0188839D01*
D02*
G37*
G36*
X0232419Y0211446D02*
X0231538D01*
X0230687Y0211218D01*
X0229924Y0210778D01*
X0229301Y0210155D01*
X022886Y0209392D01*
X0228632Y0208541D01*
Y0207659D01*
X0228762Y0207176D01*
X0210053Y0188468D01*
X0209702Y0187942D01*
X0209578Y0187321D01*
Y0176672D01*
X0205628Y0172722D01*
X0194D01*
X0193379Y0172598D01*
X0192853Y0172247D01*
X0190953Y0170347D01*
X0190602Y0169821D01*
X0190478Y01692D01*
Y0165865D01*
X0190323Y0165775D01*
X0189785Y0165237D01*
X0189403Y0164577D01*
X0189206Y0163841D01*
Y0163079D01*
X0189403Y0162343D01*
X0189785Y0161683D01*
X0190323Y0161144D01*
X0190983Y0160763D01*
X0191719Y0160566D01*
X0192481D01*
X0193217Y0160763D01*
X0193877Y0161144D01*
X0194415Y0161683D01*
X0194797Y0162343D01*
X0194994Y0163079D01*
Y0163841D01*
X0194797Y0164577D01*
X0194415Y0165237D01*
X0193877Y0165775D01*
X0193722Y0165865D01*
Y0168528D01*
X0194672Y0169478D01*
X02063D01*
X0206921Y0169602D01*
X0207343Y0169884D01*
X0207704Y0169524D01*
X0207702Y0169521D01*
X0207578Y01689D01*
Y0155072D01*
X0204128Y0151622D01*
X0185672D01*
X0183722Y0153572D01*
Y0161055D01*
X0183877Y0161144D01*
X0184415Y0161683D01*
X0184797Y0162343D01*
X0184994Y0163079D01*
Y0163841D01*
X0184797Y0164577D01*
X0184415Y0165237D01*
X0183877Y0165775D01*
X0183217Y0166156D01*
X0182481Y0166353D01*
X0181719D01*
X0180983Y0166156D01*
X0180323Y0165775D01*
X0179785Y0165237D01*
X0179403Y0164577D01*
X0179206Y0163841D01*
Y0163079D01*
X0179403Y0162343D01*
X0179785Y0161683D01*
X0180323Y0161144D01*
X0180478Y0161055D01*
Y01529D01*
X0180602Y0152279D01*
X0180953Y0151753D01*
X0183853Y0148853D01*
X0184379Y0148502D01*
X0185Y0148378D01*
X02048D01*
X0205421Y0148502D01*
X0205947Y0148853D01*
X0210347Y0153253D01*
X0210698Y0153779D01*
X0210822Y01544D01*
Y0168228D01*
X0217547Y0174953D01*
X0217898Y0175479D01*
X0218022Y01761D01*
Y0178728D01*
X0219572Y0180278D01*
X0230478D01*
Y0125222D01*
X0165872D01*
X0163722Y0127372D01*
Y0129795D01*
X0163877Y0129885D01*
X0164416Y0130423D01*
X0164796Y0131083D01*
X0164994Y0131819D01*
Y0132581D01*
X0164796Y0133317D01*
X0164416Y0133977D01*
X0163877Y0134516D01*
X0163217Y0134897D01*
X0162481Y0135094D01*
X0161719D01*
X0160983Y0134897D01*
X0160323Y0134516D01*
X0159784Y0133977D01*
X0159404Y0133317D01*
X0159206Y0132581D01*
Y0131819D01*
X0159404Y0131083D01*
X0159784Y0130423D01*
X0160323Y0129885D01*
X0160478Y0129795D01*
Y01267D01*
X0160602Y0126079D01*
X0160953Y0125553D01*
X0164053Y0122453D01*
X0164579Y0122102D01*
X01652Y0121978D01*
X024096D01*
X0241373Y0121564D01*
X0242169Y0121235D01*
X0243031D01*
X0243827Y0121564D01*
X0244436Y0122173D01*
X0244765Y0122969D01*
Y0123831D01*
X0244436Y0124627D01*
X0243827Y0125236D01*
X0243031Y0125565D01*
X0242169D01*
X0241373Y0125236D01*
X0241359Y0125222D01*
X0233722D01*
Y0180278D01*
X025796D01*
X0258173Y0180064D01*
X0258969Y0179735D01*
X0259831D01*
X0260627Y0180064D01*
X0261236Y0180673D01*
X0261565Y0181469D01*
Y0182331D01*
X0261236Y0183127D01*
X0260627Y0183736D01*
X0259831Y0184065D01*
X0258969D01*
X0258173Y0183736D01*
X025796Y0183522D01*
X0253522D01*
Y0206459D01*
X0253936Y0206873D01*
X0254265Y0207669D01*
Y0208531D01*
X0253936Y0209327D01*
X0253327Y0209936D01*
X0252531Y0210265D01*
X0251669D01*
X0250873Y0209936D01*
X0250264Y0209327D01*
X0249935Y0208531D01*
Y0207669D01*
X0250264Y0206873D01*
X0250278Y0206859D01*
Y0183522D01*
X02189D01*
X0218279Y0183398D01*
X0217753Y0183047D01*
X0215253Y0180547D01*
X0214902Y0180021D01*
X0214778Y01794D01*
Y0176772D01*
X0213149Y0175143D01*
X0212724Y0175372D01*
X0212703Y0175404D01*
X0212822Y0176D01*
Y018665D01*
X0231055Y0204883D01*
X0231538Y0204753D01*
X0232419D01*
X023327Y0204982D01*
X0234033Y0205422D01*
X0234657Y0206045D01*
X0235097Y0206808D01*
X0235325Y0207659D01*
Y0208541D01*
X0235097Y0209392D01*
X0234657Y0210155D01*
X0234033Y0210778D01*
X023327Y0211218D01*
X0232419Y0211446D01*
D02*
G37*
G36*
X0162455Y0181953D02*
X0162435D01*
Y01785D01*
X0165887D01*
Y017852D01*
X0165618Y0179526D01*
X0165098Y0180427D01*
X0164362Y0181163D01*
X016346Y0181683D01*
X0162455Y0181953D01*
D02*
G37*
G36*
X0161435D02*
X0161414D01*
X0160409Y0181683D01*
X0159508Y0181163D01*
X0158772Y0180427D01*
X0158251Y0179526D01*
X0157982Y017852D01*
Y01785D01*
X0161435D01*
Y0181953D01*
D02*
G37*
G36*
X0202467Y0183543D02*
X0201534D01*
X0200632Y0183302D01*
X0199824Y0182835D01*
X0199165Y0182176D01*
X0198698Y0181368D01*
X0198457Y0180466D01*
Y0179534D01*
X0198698Y0178632D01*
X0199165Y0177824D01*
X0199824Y0177165D01*
X0200632Y0176698D01*
X0201534Y0176457D01*
X0202467D01*
X0203368Y0176698D01*
X0204176Y0177165D01*
X0204835Y0177824D01*
X0205302Y0178632D01*
X0205543Y0179534D01*
Y0180466D01*
X0205302Y0181368D01*
X0204835Y0182176D01*
X0204176Y0182835D01*
X0203368Y0183302D01*
X0202467Y0183543D01*
D02*
G37*
G36*
X0192466D02*
X0191534D01*
X0190632Y0183302D01*
X0189824Y0182835D01*
X0189165Y0182176D01*
X0188698Y0181368D01*
X0188457Y0180466D01*
Y0179534D01*
X0188698Y0178632D01*
X0189165Y0177824D01*
X0189824Y0177165D01*
X0190632Y0176698D01*
X0191534Y0176457D01*
X0192466D01*
X0193368Y0176698D01*
X0194176Y0177165D01*
X0194835Y0177824D01*
X0195302Y0178632D01*
X0195543Y0179534D01*
Y0180466D01*
X0195302Y0181368D01*
X0194835Y0182176D01*
X0194176Y0182835D01*
X0193368Y0183302D01*
X0192466Y0183543D01*
D02*
G37*
G36*
X0325559Y0179248D02*
X03255D01*
Y01755D01*
X0329248D01*
Y0175559D01*
X0328959Y017664D01*
X0328399Y0177608D01*
X0327608Y0178399D01*
X032664Y0178958D01*
X0325559Y0179248D01*
D02*
G37*
G36*
X03245D02*
X0324441D01*
X032336Y0178958D01*
X0322392Y0178399D01*
X0321601Y0177608D01*
X0321041Y017664D01*
X0320752Y0175559D01*
Y01755D01*
X03245D01*
Y0179248D01*
D02*
G37*
G36*
X0172401Y0181543D02*
X0171468D01*
X0170567Y0181302D01*
X0169759Y0180835D01*
X0169099Y0180176D01*
X0168633Y0179368D01*
X0168391Y0178466D01*
Y0177533D01*
X0168633Y0176632D01*
X0169099Y0175824D01*
X0169759Y0175165D01*
X0170567Y0174698D01*
X0171468Y0174457D01*
X0172401D01*
X0173302Y0174698D01*
X017411Y0175165D01*
X017477Y0175824D01*
X0175236Y0176632D01*
X0175478Y0177533D01*
Y0178466D01*
X0175236Y0179368D01*
X017477Y0180176D01*
X017411Y0180835D01*
X0173302Y0181302D01*
X0172401Y0181543D01*
D02*
G37*
G36*
X0126344Y0196124D02*
X0125463D01*
X0124611Y0195896D01*
X0123848Y0195456D01*
X0123225Y0194833D01*
X0122785Y019407D01*
X0122557Y0193219D01*
Y0192338D01*
X0122785Y0191486D01*
X0123225Y0190723D01*
X0123848Y01901D01*
X0124281Y018985D01*
Y01777D01*
Y0109597D01*
X0124405Y0108976D01*
X0124756Y010845D01*
X0130978Y0102228D01*
Y00871D01*
X0131102Y0086479D01*
X0131453Y0085953D01*
X0135953Y0081453D01*
X0136479Y0081102D01*
X01371Y0080978D01*
X02467D01*
X0247321Y0081102D01*
X0247847Y0081453D01*
X0250228Y0083835D01*
X0250531D01*
X0251327Y0084164D01*
X0251936Y0084773D01*
X0252265Y0085569D01*
Y0086431D01*
X0251936Y0087227D01*
X0251327Y0087836D01*
X0250531Y0088165D01*
X0249669D01*
X0248873Y0087836D01*
X0248264Y0087227D01*
X0247935Y0086431D01*
Y0086128D01*
X0246028Y0084222D01*
X0137772D01*
X0134222Y0087772D01*
Y01029D01*
X0134098Y0103521D01*
X0133747Y0104047D01*
X0127525Y0110269D01*
Y0175978D01*
X0138945D01*
X0139265Y0175424D01*
X0139924Y0174765D01*
X0140732Y0174298D01*
X0141633Y0174057D01*
X0142567D01*
X0143468Y0174298D01*
X0144276Y0174765D01*
X0144935Y0175424D01*
X0145402Y0176232D01*
X0145643Y0177134D01*
Y0178067D01*
X0145402Y0178968D01*
X0144935Y0179776D01*
X0144276Y0180435D01*
X0143468Y0180902D01*
X0142567Y0181143D01*
X0141633D01*
X0140732Y0180902D01*
X0139924Y0180435D01*
X0139265Y0179776D01*
X0138945Y0179222D01*
X0127525D01*
Y018985D01*
X0127958Y01901D01*
X0128581Y0190723D01*
X0129022Y0191486D01*
X012925Y0192338D01*
Y0193219D01*
X0129022Y019407D01*
X0128581Y0194833D01*
X0127958Y0195456D01*
X0127195Y0195896D01*
X0126344Y0196124D01*
D02*
G37*
G36*
X0165887Y01775D02*
X0162435D01*
Y0174047D01*
X0162455D01*
X016346Y0174317D01*
X0164362Y0174837D01*
X0165098Y0175573D01*
X0165618Y0176474D01*
X0165887Y017748D01*
Y01775D01*
D02*
G37*
G36*
X0161435D02*
X0157982D01*
Y017748D01*
X0158251Y0176474D01*
X0158772Y0175573D01*
X0159508Y0174837D01*
X0160409Y0174317D01*
X0161414Y0174047D01*
X0161435D01*
Y01775D01*
D02*
G37*
G36*
X0315505Y0178839D02*
X0314495D01*
X0313518Y0178577D01*
X0312643Y0178072D01*
X0311928Y0177357D01*
X0311423Y0176482D01*
X0311161Y0175505D01*
Y0174495D01*
X0311423Y0173518D01*
X0311928Y0172643D01*
X0312643Y0171928D01*
X0313518Y0171423D01*
X0314495Y0171161D01*
X0315505D01*
X0316482Y0171423D01*
X0317357Y0171928D01*
X0318072Y0172643D01*
X0318577Y0173518D01*
X0318839Y0174495D01*
Y0175505D01*
X0318577Y0176482D01*
X0318072Y0177357D01*
X0317357Y0178072D01*
X0316482Y0178577D01*
X0315505Y0178839D01*
D02*
G37*
G36*
X0276841Y0177825D02*
X0275959D01*
X0275108Y0177597D01*
X0274345Y0177157D01*
X0273722Y0176533D01*
X0273282Y017577D01*
X0273054Y0174919D01*
Y0174038D01*
X0273282Y0173187D01*
X0273722Y0172424D01*
X0274345Y0171801D01*
X0275108Y017136D01*
X0275959Y0171132D01*
X0276841D01*
X0277692Y017136D01*
X0278455Y0171801D01*
X0279078Y0172424D01*
X0279518Y0173187D01*
X0279747Y0174038D01*
Y0174919D01*
X0279518Y017577D01*
X0279078Y0176533D01*
X0278455Y0177157D01*
X0277692Y0177597D01*
X0276841Y0177825D01*
D02*
G37*
G36*
X0242041D02*
X0241159D01*
X0240308Y0177597D01*
X0239545Y0177157D01*
X0238922Y0176533D01*
X0238482Y017577D01*
X0238253Y0174919D01*
Y0174038D01*
X0238482Y0173187D01*
X0238922Y0172424D01*
X0239545Y0171801D01*
X0240308Y017136D01*
X0241159Y0171132D01*
X0242041D01*
X0242892Y017136D01*
X0243655Y0171801D01*
X0244278Y0172424D01*
X0244718Y0173187D01*
X0244947Y0174038D01*
Y0174919D01*
X0244718Y017577D01*
X0244278Y0176533D01*
X0243655Y0177157D01*
X0242892Y0177597D01*
X0242041Y0177825D01*
D02*
G37*
G36*
X0222641D02*
X0221759D01*
X0220908Y0177597D01*
X0220145Y0177157D01*
X0219522Y0176533D01*
X0219082Y017577D01*
X0218853Y0174919D01*
Y0174038D01*
X0219082Y0173187D01*
X0219522Y0172424D01*
X0220145Y0171801D01*
X0220908Y017136D01*
X0221759Y0171132D01*
X0222641D01*
X0223492Y017136D01*
X0224255Y0171801D01*
X0224878Y0172424D01*
X0225318Y0173187D01*
X0225547Y0174038D01*
Y0174919D01*
X0225318Y017577D01*
X0224878Y0176533D01*
X0224255Y0177157D01*
X0223492Y0177597D01*
X0222641Y0177825D01*
D02*
G37*
G36*
X0329248Y01745D02*
X03255D01*
Y0170752D01*
X0325559D01*
X032664Y0171042D01*
X0327608Y0171601D01*
X0328399Y0172392D01*
X0328959Y017336D01*
X0329248Y0174441D01*
Y01745D01*
D02*
G37*
G36*
X03245D02*
X0320752D01*
Y0174441D01*
X0321041Y017336D01*
X0321601Y0172392D01*
X0322392Y0171601D01*
X032336Y0171042D01*
X0324441Y0170752D01*
X03245D01*
Y01745D01*
D02*
G37*
G36*
X0325559Y0169248D02*
X03255D01*
Y01655D01*
X0329248D01*
Y0165559D01*
X0328959Y016664D01*
X0328399Y0167608D01*
X0327608Y0168399D01*
X032664Y0168958D01*
X0325559Y0169248D01*
D02*
G37*
G36*
X03245D02*
X0324441D01*
X032336Y0168958D01*
X0322392Y0168399D01*
X0321601Y0167608D01*
X0321041Y016664D01*
X0320752Y0165559D01*
Y01655D01*
X03245D01*
Y0169248D01*
D02*
G37*
G36*
X0248066Y0262343D02*
X0247133D01*
X0246232Y0262102D01*
X0245424Y0261635D01*
X0244765Y0260976D01*
X0244298Y0260168D01*
X0244057Y0259266D01*
Y0258333D01*
X0244298Y0257432D01*
X0244765Y0256624D01*
X0245424Y0255965D01*
X0246232Y0255498D01*
X0247133Y0255257D01*
X0248066D01*
X0248684Y0255422D01*
X0253253Y0250853D01*
X0253779Y0250502D01*
X02544Y0250378D01*
X0262028D01*
X0265369Y0247038D01*
Y0194409D01*
X0265492Y0193789D01*
X0265844Y0193263D01*
X0295253Y0163853D01*
X0295779Y0163502D01*
X02964Y0163378D01*
X0301678D01*
Y0153228D01*
X0301802Y0152608D01*
X0302153Y0152082D01*
X0325378Y0128857D01*
Y0117072D01*
X0324928Y0116622D01*
X032377D01*
X0323661Y0116886D01*
X0323061Y0117667D01*
X032228Y0118267D01*
X032137Y0118644D01*
X0320394Y0118772D01*
X0319606D01*
X031863Y0118644D01*
X031772Y0118267D01*
X0316939Y0117667D01*
X0316339Y0116886D01*
X0315962Y0115976D01*
X0315834Y0115D01*
X0315962Y0114024D01*
X0316339Y0113114D01*
X0316939Y0112332D01*
X031772Y0111733D01*
X031863Y0111356D01*
X0319606Y0111228D01*
X0320394D01*
X032137Y0111356D01*
X032228Y0111733D01*
X0323061Y0112332D01*
X0323661Y0113114D01*
X032377Y0113378D01*
X03256D01*
X0326221Y0113502D01*
X0326747Y0113853D01*
X0328147Y0115253D01*
X0328498Y0115779D01*
X0328622Y01164D01*
Y0129528D01*
X0328498Y0130149D01*
X0328147Y0130675D01*
X0304922Y01539D01*
Y0163378D01*
X0311504D01*
X0311928Y0162643D01*
X0312643Y0161928D01*
X0313518Y0161423D01*
X0314495Y0161161D01*
X0315505D01*
X0316482Y0161423D01*
X0317357Y0161928D01*
X0318072Y0162643D01*
X0318577Y0163518D01*
X0318839Y0164495D01*
Y0165505D01*
X0318577Y0166482D01*
X0318072Y0167357D01*
X0317357Y0168072D01*
X0316482Y0168577D01*
X0315505Y0168839D01*
X0314495D01*
X0313518Y0168577D01*
X0312643Y0168072D01*
X0311928Y0167357D01*
X0311504Y0166622D01*
X0297072D01*
X0268612Y0195081D01*
Y0247709D01*
X0268489Y024833D01*
X0268137Y0248856D01*
X0263847Y0253147D01*
X0263321Y0253498D01*
X02627Y0253622D01*
X0255072D01*
X0250978Y0257716D01*
X0251143Y0258333D01*
Y0259266D01*
X0250902Y0260168D01*
X0250435Y0260976D01*
X0249776Y0261635D01*
X0248968Y0262102D01*
X0248066Y0262343D01*
D02*
G37*
G36*
X0329248Y01645D02*
X03255D01*
Y0160752D01*
X0325559D01*
X032664Y0161041D01*
X0327608Y0161601D01*
X0328399Y0162392D01*
X0328959Y016336D01*
X0329248Y0164441D01*
Y01645D01*
D02*
G37*
G36*
X03245D02*
X0320752D01*
Y0164441D01*
X0321041Y016336D01*
X0321601Y0162392D01*
X0322392Y0161601D01*
X032336Y0161041D01*
X0324441Y0160752D01*
X03245D01*
Y01645D01*
D02*
G37*
G36*
X0204994Y0166353D02*
X0199206D01*
Y0160566D01*
X0204994D01*
Y0166353D01*
D02*
G37*
G36*
X0172481D02*
X0171719D01*
X0170983Y0166156D01*
X0170323Y0165775D01*
X0169784Y0165237D01*
X0169404Y0164577D01*
X0169206Y0163841D01*
Y0163079D01*
X0169404Y0162343D01*
X0169784Y0161683D01*
X0170323Y0161144D01*
X0170983Y0160763D01*
X0171719Y0160566D01*
X0172481D01*
X0173217Y0160763D01*
X0173877Y0161144D01*
X0174416Y0161683D01*
X0174796Y0162343D01*
X0174994Y0163079D01*
Y0163841D01*
X0174796Y0164577D01*
X0174416Y0165237D01*
X0173877Y0165775D01*
X0173217Y0166156D01*
X0172481Y0166353D01*
D02*
G37*
G36*
X0152481D02*
X0151719D01*
X0150983Y0166156D01*
X0150323Y0165775D01*
X0149785Y0165237D01*
X0149404Y0164577D01*
X0149206Y0163841D01*
Y0163079D01*
X0149404Y0162343D01*
X0149785Y0161683D01*
X0150323Y0161144D01*
X0150983Y0160763D01*
X0151719Y0160566D01*
X0152481D01*
X0153217Y0160763D01*
X0153877Y0161144D01*
X0154416Y0161683D01*
X0154797Y0162343D01*
X0154994Y0163079D01*
Y0163841D01*
X0154797Y0164577D01*
X0154416Y0165237D01*
X0153877Y0165775D01*
X0153217Y0166156D01*
X0152481Y0166353D01*
D02*
G37*
G36*
X0142481D02*
X0141719D01*
X0140983Y0166156D01*
X0140323Y0165775D01*
X0139785Y0165237D01*
X0139403Y0164577D01*
X0139206Y0163841D01*
Y0163079D01*
X0139403Y0162343D01*
X0139785Y0161683D01*
X0140323Y0161144D01*
X0140983Y0160763D01*
X0141719Y0160566D01*
X0142481D01*
X0143217Y0160763D01*
X0143877Y0161144D01*
X0144415Y0161683D01*
X0144797Y0162343D01*
X0144994Y0163079D01*
Y0163841D01*
X0144797Y0164577D01*
X0144415Y0165237D01*
X0143877Y0165775D01*
X0143217Y0166156D01*
X0142481Y0166353D01*
D02*
G37*
G36*
X0329248Y0159248D02*
X03255D01*
Y01555D01*
X0329248D01*
Y0159248D01*
D02*
G37*
G36*
X03245D02*
X0320752D01*
Y01555D01*
X03245D01*
Y0159248D01*
D02*
G37*
G36*
X0315505Y0158839D02*
X0314495D01*
X0313518Y0158577D01*
X0312643Y0158072D01*
X0311928Y0157357D01*
X0311423Y0156482D01*
X0311161Y0155505D01*
Y0154495D01*
X0311423Y0153518D01*
X0311928Y0152643D01*
X0312643Y0151928D01*
X0313518Y0151423D01*
X0314495Y0151161D01*
X0315505D01*
X0316482Y0151423D01*
X0317357Y0151928D01*
X0318072Y0152643D01*
X0318577Y0153518D01*
X0318839Y0154495D01*
Y0155505D01*
X0318577Y0156482D01*
X0318072Y0157357D01*
X0317357Y0158072D01*
X0316482Y0158577D01*
X0315505Y0158839D01*
D02*
G37*
G36*
X0329248Y01545D02*
X03255D01*
Y0150752D01*
X0329248D01*
Y01545D01*
D02*
G37*
G36*
X03245D02*
X0320752D01*
Y0150752D01*
X03245D01*
Y01545D01*
D02*
G37*
G36*
X0144131Y0153765D02*
X0143269D01*
X0142473Y0153436D01*
X0141864Y0152827D01*
X0141535Y0152031D01*
Y0151169D01*
X0141864Y0150373D01*
X0142473Y0149764D01*
X0143269Y0149435D01*
X0144131D01*
X0144927Y0149764D01*
X0145091Y0149928D01*
X0160709D01*
X0160973Y0149664D01*
X0161769Y0149335D01*
X0162631D01*
X0163427Y0149664D01*
X0164036Y0150273D01*
X0164365Y0151069D01*
Y0151931D01*
X0164036Y0152727D01*
X0163427Y0153336D01*
X0162631Y0153665D01*
X0161769D01*
X0160973Y0153336D01*
X0160809Y0153172D01*
X0145191D01*
X0144927Y0153436D01*
X0144131Y0153765D01*
D02*
G37*
G36*
X025942Y0151618D02*
X02594D01*
Y0148165D01*
X0262853D01*
Y0148186D01*
X0262583Y0149191D01*
X0262063Y0150092D01*
X0261327Y0150828D01*
X0260426Y0151349D01*
X025942Y0151618D01*
D02*
G37*
G36*
X02584D02*
X025838D01*
X0257374Y0151349D01*
X0256473Y0150828D01*
X0255737Y0150092D01*
X0255217Y0149191D01*
X0254947Y0148186D01*
Y0148165D01*
X02584D01*
Y0151618D01*
D02*
G37*
G36*
X0111486Y0153691D02*
X0110514D01*
X0109575Y0153439D01*
X0108734Y0152953D01*
X0108047Y0152266D01*
X0107561Y0151425D01*
X0107309Y0150486D01*
Y0149514D01*
X0107561Y0148575D01*
X0108047Y0147734D01*
X0108734Y0147047D01*
X0109575Y0146561D01*
X0110514Y0146309D01*
X0111486D01*
X0112425Y0146561D01*
X0113266Y0147047D01*
X0113953Y0147734D01*
X0114439Y0148575D01*
X0114691Y0149514D01*
Y0150486D01*
X0114439Y0151425D01*
X0113953Y0152266D01*
X0113266Y0152953D01*
X0112425Y0153439D01*
X0111486Y0153691D01*
D02*
G37*
G36*
X0262853Y0147165D02*
X02594D01*
Y0143713D01*
X025942D01*
X0260426Y0143982D01*
X0261327Y0144502D01*
X0262063Y0145238D01*
X0262583Y014614D01*
X0262853Y0147145D01*
Y0147165D01*
D02*
G37*
G36*
X02584D02*
X0254947D01*
Y0147145D01*
X0255217Y014614D01*
X0255737Y0145238D01*
X0256473Y0144502D01*
X0257374Y0143982D01*
X025838Y0143713D01*
X02584D01*
Y0147165D01*
D02*
G37*
G36*
X0162481Y0166353D02*
X0161719D01*
X0160983Y0166156D01*
X0160323Y0165775D01*
X0159784Y0165237D01*
X0159404Y0164577D01*
X0159206Y0163841D01*
Y0163079D01*
X0159404Y0162343D01*
X0159784Y0161683D01*
X0160323Y0161144D01*
X0160478Y0161055D01*
Y01597D01*
X0160602Y0159079D01*
X0160953Y0158553D01*
X0176253Y0143253D01*
X0176779Y0142902D01*
X01774Y0142778D01*
X0185359D01*
X0185573Y0142564D01*
X0186369Y0142235D01*
X0187231D01*
X0188027Y0142564D01*
X0188636Y0143173D01*
X0188965Y0143969D01*
Y0144831D01*
X0188636Y0145627D01*
X0188027Y0146236D01*
X0187231Y0146565D01*
X0186369D01*
X0185573Y0146236D01*
X0185359Y0146022D01*
X0178072D01*
X0163722Y0160372D01*
Y0161055D01*
X0163877Y0161144D01*
X0164416Y0161683D01*
X0164796Y0162343D01*
X0164994Y0163079D01*
Y0163841D01*
X0164796Y0164577D01*
X0164416Y0165237D01*
X0163877Y0165775D01*
X0163217Y0166156D01*
X0162481Y0166353D01*
D02*
G37*
G36*
X0259366Y0141209D02*
X0258434D01*
X0257532Y0140967D01*
X0256724Y0140501D01*
X0256065Y0139841D01*
X0255598Y0139033D01*
X0255357Y0138132D01*
Y0137199D01*
X0255598Y0136298D01*
X0256065Y013549D01*
X0256724Y013483D01*
X0257532Y0134363D01*
X0258434Y0134122D01*
X0259366D01*
X0260268Y0134363D01*
X0261076Y013483D01*
X0261735Y013549D01*
X0262202Y0136298D01*
X0262443Y0137199D01*
Y0138132D01*
X0262202Y0139033D01*
X0261735Y0139841D01*
X0261076Y0140501D01*
X0260268Y0140967D01*
X0259366Y0141209D01*
D02*
G37*
G36*
X01726Y0135486D02*
Y01327D01*
X0175386D01*
X0175178Y0133475D01*
X0174743Y0134228D01*
X0174128Y0134843D01*
X0173375Y0135278D01*
X01726Y0135486D01*
D02*
G37*
G36*
X01716D02*
X0170825Y0135278D01*
X0170072Y0134843D01*
X0169457Y0134228D01*
X0169022Y0133475D01*
X0168814Y01327D01*
X01716D01*
Y0135486D01*
D02*
G37*
G36*
X0296041Y0137668D02*
X0295159D01*
X0294308Y013744D01*
X0293545Y0136999D01*
X0292922Y0136376D01*
X0292482Y0135613D01*
X0292253Y0134762D01*
Y0133881D01*
X0292482Y013303D01*
X0292922Y0132266D01*
X0293545Y0131643D01*
X0294308Y0131203D01*
X0295159Y0130975D01*
X0296041D01*
X0296892Y0131203D01*
X0297655Y0131643D01*
X0298278Y0132266D01*
X0298718Y013303D01*
X0298946Y0133881D01*
Y0134762D01*
X0298718Y0135613D01*
X0298278Y0136376D01*
X0297655Y0136999D01*
X0296892Y013744D01*
X0296041Y0137668D01*
D02*
G37*
G36*
X0276841D02*
X0275959D01*
X0275108Y013744D01*
X0274345Y0136999D01*
X0273722Y0136376D01*
X0273282Y0135613D01*
X0273054Y0134762D01*
Y0133881D01*
X0273282Y013303D01*
X0273722Y0132266D01*
X0274345Y0131643D01*
X0275108Y0131203D01*
X0275959Y0130975D01*
X0276841D01*
X0277692Y0131203D01*
X0278455Y0131643D01*
X0279078Y0132266D01*
X0279518Y013303D01*
X0279747Y0133881D01*
Y0134762D01*
X0279518Y0135613D01*
X0279078Y0136376D01*
X0278455Y0136999D01*
X0277692Y013744D01*
X0276841Y0137668D01*
D02*
G37*
G36*
X0242041D02*
X0241159D01*
X0240308Y013744D01*
X0239545Y0136999D01*
X0238922Y0136376D01*
X0238482Y0135613D01*
X0238253Y0134762D01*
Y0133881D01*
X0238482Y013303D01*
X0238922Y0132266D01*
X0239545Y0131643D01*
X0240308Y0131203D01*
X0241159Y0130975D01*
X0242041D01*
X0242892Y0131203D01*
X0243655Y0131643D01*
X0244278Y0132266D01*
X0244718Y013303D01*
X0244947Y0133881D01*
Y0134762D01*
X0244718Y0135613D01*
X0244278Y0136376D01*
X0243655Y0136999D01*
X0242892Y013744D01*
X0242041Y0137668D01*
D02*
G37*
G36*
X0217321Y0140822D02*
X01491D01*
X0148479Y0140698D01*
X0147953Y0140347D01*
X0142654Y0135047D01*
X0142481Y0135094D01*
X0141719D01*
X0140983Y0134897D01*
X0140323Y0134516D01*
X0139785Y0133977D01*
X0139403Y0133317D01*
X0139206Y0132581D01*
Y0131819D01*
X0139403Y0131083D01*
X0139785Y0130423D01*
X0140323Y0129885D01*
X0140983Y0129504D01*
X0141719Y0129306D01*
X0142481D01*
X0143217Y0129504D01*
X0143877Y0129885D01*
X0144415Y0130423D01*
X0144797Y0131083D01*
X0144994Y0131819D01*
Y0132581D01*
X0144947Y0132754D01*
X0149772Y0137578D01*
X021665D01*
X0218983Y0135245D01*
X0218853Y0134762D01*
Y0133881D01*
X0219082Y013303D01*
X0219522Y0132266D01*
X0220145Y0131643D01*
X0220908Y0131203D01*
X0221759Y0130975D01*
X0222641D01*
X0223492Y0131203D01*
X0224255Y0131643D01*
X0224878Y0132266D01*
X0225318Y013303D01*
X0225547Y0133881D01*
Y0134762D01*
X0225318Y0135613D01*
X0224878Y0136376D01*
X0224255Y0136999D01*
X0223492Y013744D01*
X0222641Y0137668D01*
X0221759D01*
X0221276Y0137538D01*
X0218468Y0140347D01*
X0217942Y0140698D01*
X0217321Y0140822D01*
D02*
G37*
G36*
X0202481Y0135094D02*
X0201719D01*
X0200983Y0134897D01*
X0200323Y0134516D01*
X0199785Y0133977D01*
X0199404Y0133317D01*
X0199206Y0132581D01*
Y0131819D01*
X0199404Y0131083D01*
X0199785Y0130423D01*
X0200323Y0129885D01*
X0200983Y0129504D01*
X0201719Y0129306D01*
X0202481D01*
X0203217Y0129504D01*
X0203877Y0129885D01*
X0204415Y0130423D01*
X0204797Y0131083D01*
X0204994Y0131819D01*
Y0132581D01*
X0204797Y0133317D01*
X0204415Y0133977D01*
X0203877Y0134516D01*
X0203217Y0134897D01*
X0202481Y0135094D01*
D02*
G37*
G36*
X0192481D02*
X0191719D01*
X0190983Y0134897D01*
X0190323Y0134516D01*
X0189785Y0133977D01*
X0189403Y0133317D01*
X0189206Y0132581D01*
Y0131819D01*
X0189403Y0131083D01*
X0189785Y0130423D01*
X0190323Y0129885D01*
X0190983Y0129504D01*
X0191719Y0129306D01*
X0192481D01*
X0193217Y0129504D01*
X0193877Y0129885D01*
X0194415Y0130423D01*
X0194797Y0131083D01*
X0194994Y0131819D01*
Y0132581D01*
X0194797Y0133317D01*
X0194415Y0133977D01*
X0193877Y0134516D01*
X0193217Y0134897D01*
X0192481Y0135094D01*
D02*
G37*
G36*
X0182481D02*
X0181719D01*
X0180983Y0134897D01*
X0180323Y0134516D01*
X0179785Y0133977D01*
X0179403Y0133317D01*
X0179206Y0132581D01*
Y0131819D01*
X0179403Y0131083D01*
X0179785Y0130423D01*
X0180323Y0129885D01*
X0180983Y0129504D01*
X0181719Y0129306D01*
X0182481D01*
X0183217Y0129504D01*
X0183877Y0129885D01*
X0184415Y0130423D01*
X0184797Y0131083D01*
X0184994Y0131819D01*
Y0132581D01*
X0184797Y0133317D01*
X0184415Y0133977D01*
X0183877Y0134516D01*
X0183217Y0134897D01*
X0182481Y0135094D01*
D02*
G37*
G36*
X0175386Y01317D02*
X01726D01*
Y0128914D01*
X0173375Y0129122D01*
X0174128Y0129557D01*
X0174743Y0130172D01*
X0175178Y0130925D01*
X0175386Y01317D01*
D02*
G37*
G36*
X01716D02*
X0168814D01*
X0169022Y0130925D01*
X0169457Y0130172D01*
X0170072Y0129557D01*
X0170825Y0129122D01*
X01716Y0128914D01*
Y01317D01*
D02*
G37*
G36*
X0321969Y0129172D02*
X03205D01*
Y01255D01*
X0324566D01*
Y0126575D01*
X0324477Y0127247D01*
X0324218Y0127873D01*
X0323805Y0128411D01*
X0323267Y0128824D01*
X0322641Y0129083D01*
X0321969Y0129172D01*
D02*
G37*
G36*
X03195D02*
X0318032D01*
X0317359Y0129083D01*
X0316733Y0128824D01*
X0316195Y0128411D01*
X0315782Y0127873D01*
X0315523Y0127247D01*
X0315435Y0126575D01*
Y01255D01*
X03195D01*
Y0129172D01*
D02*
G37*
G36*
X0324566Y01245D02*
X03205D01*
Y0120828D01*
X0321969D01*
X0322641Y0120917D01*
X0323267Y0121176D01*
X0323805Y0121589D01*
X0324218Y0122127D01*
X0324477Y0122753D01*
X0324566Y0123425D01*
Y01245D01*
D02*
G37*
G36*
X03195D02*
X0315435D01*
Y0123425D01*
X0315523Y0122753D01*
X0315782Y0122127D01*
X0316195Y0121589D01*
X0316733Y0121176D01*
X0317359Y0120917D01*
X0318032Y0120828D01*
X03195D01*
Y01245D01*
D02*
G37*
G36*
X012014Y012784D02*
X011266D01*
Y012036D01*
X012014D01*
Y012784D01*
D02*
G37*
G36*
X0106892D02*
X0105908D01*
X0104956Y0127585D01*
X0104104Y0127093D01*
X0103407Y0126397D01*
X0102915Y0125544D01*
X010266Y0124592D01*
Y0123608D01*
X0102915Y0122656D01*
X0103407Y0121803D01*
X0104104Y0121107D01*
X0104956Y0120615D01*
X0105908Y012036D01*
X0106892D01*
X0107844Y0120615D01*
X0108696Y0121107D01*
X0109393Y0121803D01*
X0109885Y0122656D01*
X011014Y0123608D01*
Y0124592D01*
X0109885Y0125544D01*
X0109393Y0126397D01*
X0108696Y0127093D01*
X0107844Y0127585D01*
X0106892Y012784D01*
D02*
G37*
G36*
X0250531Y0165565D02*
X0249669D01*
X0248873Y0165236D01*
X0248264Y0164627D01*
X0247935Y0163831D01*
Y0162969D01*
X0248264Y0162173D01*
X0248328Y0162109D01*
Y0119891D01*
X0247964Y0119527D01*
X0247635Y0118731D01*
Y0117869D01*
X0247964Y0117073D01*
X0248573Y0116464D01*
X0249369Y0116135D01*
X0250231D01*
X0251027Y0116464D01*
X0251636Y0117073D01*
X0251965Y0117869D01*
Y0118731D01*
X0251636Y0119527D01*
X0251572Y0119591D01*
Y0161809D01*
X0251936Y0162173D01*
X0252265Y0162969D01*
Y0163831D01*
X0251936Y0164627D01*
X0251327Y0165236D01*
X0250531Y0165565D01*
D02*
G37*
G36*
X014332Y0119453D02*
X01433D01*
Y0116D01*
X0146753D01*
Y011602D01*
X0146483Y0117026D01*
X0145963Y0117927D01*
X0145227Y0118663D01*
X0144326Y0119183D01*
X014332Y0119453D01*
D02*
G37*
G36*
X01423D02*
X014228D01*
X0141274Y0119183D01*
X0140373Y0118663D01*
X0139637Y0117927D01*
X0139117Y0117026D01*
X0138847Y011602D01*
Y0116D01*
X01423D01*
Y0119453D01*
D02*
G37*
G36*
X0221525Y0116688D02*
X02215D01*
Y01132D01*
X0224988D01*
Y0113225D01*
X0224716Y0114239D01*
X0224191Y0115149D01*
X0223449Y0115891D01*
X0222539Y0116416D01*
X0221525Y0116688D01*
D02*
G37*
G36*
X02205D02*
X0220475D01*
X0219461Y0116416D01*
X0218551Y0115891D01*
X0217809Y0115149D01*
X0217284Y0114239D01*
X0217012Y0113225D01*
Y01132D01*
X02205D01*
Y0116688D01*
D02*
G37*
G36*
X02912Y011385D02*
X0290532Y0113762D01*
X0289909Y0113504D01*
X0289375Y0113094D01*
X0288965Y0112559D01*
X0288435D01*
X0288025Y0113094D01*
X0287491Y0113504D01*
X0286868Y0113762D01*
X02862Y011385D01*
X0285532Y0113762D01*
X0284909Y0113504D01*
X0284375Y0113094D01*
X0283965Y0112559D01*
X0283435D01*
X0283025Y0113094D01*
X0282491Y0113504D01*
X0281868Y0113762D01*
X02812Y011385D01*
X0280532Y0113762D01*
X0279909Y0113504D01*
X0279375Y0113094D01*
X0278965Y0112559D01*
X0278707Y0111937D01*
X0278619Y0111268D01*
Y0107332D01*
X0278707Y0106663D01*
X0278965Y0106041D01*
X0279375Y0105506D01*
X0279909Y0105096D01*
X0280532Y0104838D01*
X02812Y010475D01*
X0281868Y0104838D01*
X0282491Y0105096D01*
X0283025Y0105506D01*
X0283435Y0106041D01*
X0283965D01*
X0284375Y0105506D01*
X0284909Y0105096D01*
X0285532Y0104838D01*
X02862Y010475D01*
X0286868Y0104838D01*
X0287491Y0105096D01*
X0288025Y0105506D01*
X0288435Y0106041D01*
X0288965D01*
X0289375Y0105506D01*
X0289909Y0105096D01*
X0290532Y0104838D01*
X02912Y010475D01*
X0291868Y0104838D01*
X0292491Y0105096D01*
X0293025Y0105506D01*
X0293435Y0106041D01*
X0293693Y0106663D01*
X0293781Y0107332D01*
Y0111268D01*
X0293693Y0111937D01*
X0293435Y0112559D01*
X0293025Y0113094D01*
X0292491Y0113504D01*
X0291868Y0113762D01*
X02912Y011385D01*
D02*
G37*
G36*
X0146753Y0115D02*
X01433D01*
Y0111547D01*
X014332D01*
X0144326Y0111817D01*
X0145227Y0112337D01*
X0145963Y0113073D01*
X0146483Y0113974D01*
X0146753Y011498D01*
Y0115D01*
D02*
G37*
G36*
X01423D02*
X0138847D01*
Y011498D01*
X0139117Y0113974D01*
X0139637Y0113073D01*
X0140373Y0112337D01*
X0141274Y0111817D01*
X014228Y0111547D01*
X01423D01*
Y0115D01*
D02*
G37*
G36*
X0197849Y0116279D02*
X0196907D01*
X0195997Y0116035D01*
X0195181Y0115564D01*
X0194514Y0114897D01*
X0194043Y0114081D01*
X0193799Y0113171D01*
Y0112229D01*
X0194043Y0111319D01*
X0194514Y0110503D01*
X0195181Y0109836D01*
X0195997Y0109365D01*
X0196907Y0109121D01*
X0197849D01*
X0198759Y0109365D01*
X0199575Y0109836D01*
X0200242Y0110503D01*
X0200713Y0111319D01*
X0200957Y0112229D01*
Y0113171D01*
X0200713Y0114081D01*
X0200242Y0114897D01*
X0199575Y0115564D01*
X0198759Y0116035D01*
X0197849Y0116279D01*
D02*
G37*
G36*
X0224988Y01122D02*
X02215D01*
Y0108712D01*
X0221525D01*
X0222539Y0108984D01*
X0223449Y0109509D01*
X0224191Y0110251D01*
X0224716Y0111161D01*
X0224988Y0112175D01*
Y01122D01*
D02*
G37*
G36*
X02205D02*
X0217012D01*
Y0112175D01*
X0217284Y0111161D01*
X0217809Y0110251D01*
X0218551Y0109509D01*
X0219461Y0108984D01*
X0220475Y0108712D01*
X02205D01*
Y01122D01*
D02*
G37*
G36*
X012034Y011544D02*
X011286D01*
Y010796D01*
X012034D01*
Y011544D01*
D02*
G37*
G36*
X0107092D02*
X0106108D01*
X0105156Y0115185D01*
X0104304Y0114693D01*
X0103607Y0113997D01*
X0103115Y0113144D01*
X010286Y0112192D01*
Y0111208D01*
X0103115Y0110256D01*
X0103607Y0109404D01*
X0104304Y0108707D01*
X0105156Y0108215D01*
X0106108Y010796D01*
X0107092D01*
X0108044Y0108215D01*
X0108897Y0108707D01*
X0109593Y0109404D01*
X0110085Y0110256D01*
X011034Y0111208D01*
Y0112192D01*
X0110085Y0113144D01*
X0109593Y0113997D01*
X0108897Y0114693D01*
X0108044Y0115185D01*
X0107092Y011544D01*
D02*
G37*
G36*
X0316912Y0099072D02*
X031588Y0099072D01*
X031588Y0099071D01*
X0314848Y0099071D01*
X0312801Y0098802D01*
X0310807Y0098268D01*
X03089Y0097478D01*
X0307112Y0096446D01*
X0305475Y0095189D01*
X0304015Y0093729D01*
X0302758Y0092091D01*
X0301726Y0090304D01*
X0300936Y0088397D01*
X0300402Y0086402D01*
X0300132Y0084356D01*
X0300132Y0083324D01*
X0300132Y0083324D01*
X0300132Y0082292D01*
X0300402Y0080245D01*
X0300936Y0078251D01*
X0301726Y0076344D01*
X0302758Y0074556D01*
X0304015Y0072918D01*
X0305475Y0071458D01*
X0307113Y0070201D01*
X03089Y0069169D01*
X0310807Y0068379D01*
X0312802Y0067845D01*
X0314848Y0067576D01*
X031588D01*
X0316913Y0067576D01*
X0318959Y0067845D01*
X0320953Y0068379D01*
X0322861Y0069169D01*
X0324648Y0070201D01*
X0326286Y0071458D01*
X0327746Y0072918D01*
X0329002Y0074556D01*
X0330035Y0076343D01*
X0330824Y0078251D01*
X0331359Y0080245D01*
X0331628Y0082291D01*
X0331628Y0083324D01*
X0331628Y0083324D01*
X0331628Y0083324D01*
X0331628Y0084356D01*
X0331359Y0086402D01*
X0330824Y0088396D01*
X0330034Y0090304D01*
X0329002Y0092091D01*
X0327746Y0093729D01*
X0326286Y0095189D01*
X0324648Y0096446D01*
X032286Y0097478D01*
X0320953Y0098268D01*
X0318959Y0098802D01*
X0316912Y0099072D01*
D02*
G37*
G36*
X0115377D02*
X0114345Y0099072D01*
X0114345Y0099071D01*
X0113312Y0099071D01*
X0111266Y0098802D01*
X0109272Y0098268D01*
X0107365Y0097478D01*
X0105577Y0096446D01*
X0103939Y0095189D01*
X010248Y0093729D01*
X0101223Y0092091D01*
X0100191Y0090304D01*
X0099401Y0088397D01*
X0098866Y0086402D01*
X0098597Y0084356D01*
X0098597Y0083324D01*
X0098597Y0083324D01*
X0098597Y0082292D01*
X0098866Y0080245D01*
X0099401Y0078251D01*
X0100191Y0076344D01*
X0101223Y0074556D01*
X010248Y0072918D01*
X0103939Y0071458D01*
X0105577Y0070201D01*
X0107365Y0069169D01*
X0109272Y0068379D01*
X0111266Y0067845D01*
X0113313Y0067576D01*
X0114345D01*
X0115377Y0067576D01*
X0117424Y0067845D01*
X0119418Y0068379D01*
X0121325Y0069169D01*
X0123113Y0070201D01*
X0124751Y0071458D01*
X012621Y0072918D01*
X0127467Y0074556D01*
X0128499Y0076343D01*
X0129289Y0078251D01*
X0129823Y0080245D01*
X0130093Y0082291D01*
X0130093Y0083324D01*
X0130093Y0083324D01*
X0130093Y0083324D01*
X0130093Y0084356D01*
X0129823Y0086402D01*
X0129289Y0088396D01*
X0128499Y0090304D01*
X0127467Y0092091D01*
X012621Y0093729D01*
X012475Y0095189D01*
X0123113Y0096446D01*
X0121325Y0097478D01*
X0119418Y0098268D01*
X0117424Y0098802D01*
X0115377Y0099072D01*
D02*
G37*
G36*
X02388Y0099122D02*
X01618D01*
X0161179Y0098998D01*
X0160653Y0098647D01*
X015585Y0093843D01*
X014117D01*
X014092Y0094276D01*
X0140297Y0094899D01*
X0139534Y009534D01*
X0138683Y0095568D01*
X0137802D01*
X0136951Y009534D01*
X0136188Y0094899D01*
X0135565Y0094276D01*
X0135124Y0093513D01*
X0134896Y0092662D01*
Y0091781D01*
X0135124Y009093D01*
X0135565Y0090166D01*
X0136188Y0089543D01*
X0136951Y0089103D01*
X0137802Y0088875D01*
X0138683D01*
X0139534Y0089103D01*
X0140297Y0089543D01*
X014092Y0090166D01*
X014117Y00906D01*
X0156521D01*
X0157142Y0090723D01*
X0157668Y0091075D01*
X0162472Y0095878D01*
X0177187D01*
X0177252Y0095378D01*
X0177108Y009534D01*
X0176345Y0094899D01*
X0175722Y0094276D01*
X0175282Y0093513D01*
X0175054Y0092662D01*
Y0091781D01*
X0175282Y009093D01*
X0175722Y0090166D01*
X0176345Y0089543D01*
X0177108Y0089103D01*
X0177959Y0088875D01*
X0178841D01*
X0179692Y0089103D01*
X0180455Y0089543D01*
X0181078Y0090166D01*
X0181518Y009093D01*
X0181746Y0091781D01*
Y0092662D01*
X0181518Y0093513D01*
X0181078Y0094276D01*
X0180455Y0094899D01*
X0179692Y009534D01*
X0179548Y0095378D01*
X0179613Y0095878D01*
X0189208D01*
X0189274Y0095378D01*
X018913Y009534D01*
X0188366Y0094899D01*
X0187743Y0094276D01*
X0187303Y0093513D01*
X0187075Y0092662D01*
Y0091781D01*
X0187303Y009093D01*
X0187743Y0090166D01*
X0188366Y0089543D01*
X018913Y0089103D01*
X0189981Y0088875D01*
X0190862D01*
X0191713Y0089103D01*
X0192476Y0089543D01*
X0193099Y0090166D01*
X019354Y009093D01*
X0193768Y0091781D01*
Y0092662D01*
X019354Y0093513D01*
X0193099Y0094276D01*
X0192476Y0094899D01*
X0191713Y009534D01*
X0191569Y0095378D01*
X0191635Y0095878D01*
X0229365D01*
X0229431Y0095378D01*
X0229287Y009534D01*
X0228524Y0094899D01*
X0227901Y0094276D01*
X022746Y0093513D01*
X0227232Y0092662D01*
Y0091781D01*
X022746Y009093D01*
X0227901Y0090166D01*
X0228524Y0089543D01*
X0229287Y0089103D01*
X0230138Y0088875D01*
X0231019D01*
X023187Y0089103D01*
X0232633Y0089543D01*
X0233257Y0090166D01*
X0233697Y009093D01*
X0233925Y0091781D01*
Y0092662D01*
X0233697Y0093513D01*
X0233257Y0094276D01*
X0232633Y0094899D01*
X023187Y009534D01*
X0231726Y0095378D01*
X0231792Y0095878D01*
X0238128D01*
X0240835Y0093172D01*
Y0092869D01*
X0241164Y0092073D01*
X0241773Y0091464D01*
X0242569Y0091135D01*
X0243431D01*
X0244227Y0091464D01*
X0244836Y0092073D01*
X0245165Y0092869D01*
Y0093731D01*
X0244836Y0094527D01*
X0244227Y0095136D01*
X0243431Y0095465D01*
X0243128D01*
X0239947Y0098647D01*
X0239421Y0098998D01*
X02388Y0099122D01*
D02*
G37*
G36*
X0282575Y0089565D02*
X02815D01*
Y00855D01*
X0285172D01*
Y0086968D01*
X0285083Y0087641D01*
X0284824Y0088267D01*
X0284411Y0088805D01*
X0283873Y0089218D01*
X0283247Y0089477D01*
X0282575Y0089565D01*
D02*
G37*
G36*
X02805D02*
X0279425D01*
X0278753Y0089477D01*
X0278127Y0089218D01*
X0277589Y0088805D01*
X0277176Y0088267D01*
X0276917Y0087641D01*
X0276828Y0086968D01*
Y00855D01*
X02805D01*
Y0089565D01*
D02*
G37*
G36*
X0271Y0089166D02*
X0270024Y0089038D01*
X0269114Y0088661D01*
X0268333Y0088061D01*
X0267733Y008728D01*
X0267356Y008637D01*
X0267228Y0085394D01*
Y0084606D01*
X0267356Y008363D01*
X0267733Y008272D01*
X0268333Y0081939D01*
X0269114Y0081339D01*
X0270024Y0080962D01*
X0271Y0080834D01*
X0271976Y0080962D01*
X0272886Y0081339D01*
X0273668Y0081939D01*
X0274267Y008272D01*
X0274644Y008363D01*
X0274772Y0084606D01*
Y0085394D01*
X0274644Y008637D01*
X0274267Y008728D01*
X0273668Y0088061D01*
X0272886Y0088661D01*
X0271976Y0089038D01*
X0271Y0089166D01*
D02*
G37*
G36*
X0285172Y00845D02*
X02815D01*
Y0080435D01*
X0282575D01*
X0283247Y0080523D01*
X0283873Y0080782D01*
X0284411Y0081195D01*
X0284824Y0081733D01*
X0285083Y0082359D01*
X0285172Y0083031D01*
Y00845D01*
D02*
G37*
G36*
X02805D02*
X0276828D01*
Y0083031D01*
X0276917Y0082359D01*
X0277176Y0081733D01*
X0277589Y0081195D01*
X0278127Y0080782D01*
X0278753Y0080523D01*
X0279425Y0080435D01*
X02805D01*
Y00845D01*
D02*
G37*
G36*
X0231019Y0079968D02*
X0230138D01*
X0229287Y007974D01*
X0228524Y0079299D01*
X0227901Y0078676D01*
X022746Y0077913D01*
X0227232Y0077062D01*
Y0076181D01*
X022746Y007533D01*
X0227901Y0074567D01*
X0228524Y0073943D01*
X0229287Y0073503D01*
X0230138Y0073275D01*
X0231019D01*
X023187Y0073503D01*
X0232633Y0073943D01*
X0233257Y0074567D01*
X0233697Y007533D01*
X0233925Y0076181D01*
Y0077062D01*
X0233697Y0077913D01*
X0233257Y0078676D01*
X0232633Y0079299D01*
X023187Y007974D01*
X0231019Y0079968D01*
D02*
G37*
G36*
X0190862D02*
X0189981D01*
X018913Y007974D01*
X0188366Y0079299D01*
X0187743Y0078676D01*
X0187303Y0077913D01*
X0187075Y0077062D01*
Y0076181D01*
X0187303Y007533D01*
X0187743Y0074567D01*
X0188366Y0073943D01*
X018913Y0073503D01*
X0189981Y0073275D01*
X0190862D01*
X0191713Y0073503D01*
X0192476Y0073943D01*
X0193099Y0074567D01*
X019354Y007533D01*
X0193768Y0076181D01*
Y0077062D01*
X019354Y0077913D01*
X0193099Y0078676D01*
X0192476Y0079299D01*
X0191713Y007974D01*
X0190862Y0079968D01*
D02*
G37*
G36*
X0178841D02*
X0177959D01*
X0177108Y007974D01*
X0176345Y0079299D01*
X0175722Y0078676D01*
X0175282Y0077913D01*
X0175054Y0077062D01*
Y0076181D01*
X0175282Y007533D01*
X0175722Y0074567D01*
X0176345Y0073943D01*
X0177108Y0073503D01*
X0177959Y0073275D01*
X0178841D01*
X0179692Y0073503D01*
X0180455Y0073943D01*
X0181078Y0074567D01*
X0181518Y007533D01*
X0181746Y0076181D01*
Y0077062D01*
X0181518Y0077913D01*
X0181078Y0078676D01*
X0180455Y0079299D01*
X0179692Y007974D01*
X0178841Y0079968D01*
D02*
G37*
G36*
X0138683D02*
X0137802D01*
X0136951Y007974D01*
X0136188Y0079299D01*
X0135565Y0078676D01*
X0135124Y0077913D01*
X0134896Y0077062D01*
Y0076181D01*
X0135124Y007533D01*
X0135565Y0074567D01*
X0136188Y0073943D01*
X0136951Y0073503D01*
X0137802Y0073275D01*
X0138683D01*
X0139534Y0073503D01*
X0140297Y0073943D01*
X014092Y0074567D01*
X0141361Y007533D01*
X0141589Y0076181D01*
Y0077062D01*
X0141361Y0077913D01*
X014092Y0078676D01*
X0140297Y0079299D01*
X0139534Y007974D01*
X0138683Y0079968D01*
D02*
G37*
%LPD*%
G36*
X0317652Y0408992D02*
X0318243Y0408894D01*
X0318735Y0408795D01*
X031962Y0408598D01*
X0320506Y0408303D01*
X0321294Y0408008D01*
X032218Y0407614D01*
X0323065Y0407122D01*
X0323853Y040663D01*
X032464Y0406039D01*
X0325428Y040535D01*
X0321786Y0401709D01*
X0321294Y0402102D01*
X0320802Y0402496D01*
X0320309Y0402791D01*
X0319719Y0403087D01*
X031903Y0403382D01*
X0318144Y0403677D01*
X031716Y0403874D01*
X0316274Y0403972D01*
Y0409091D01*
X0317652Y0408992D01*
D02*
G37*
G36*
X0315487Y0403972D02*
X0314601Y0403874D01*
X0313616Y0403677D01*
X0312731Y0403382D01*
X0312042Y0403087D01*
X0311451Y0402791D01*
X0310959Y0402496D01*
X0310467Y0402102D01*
X0309975Y0401709D01*
X0306333Y040535D01*
X030712Y0406039D01*
X0307908Y040663D01*
X0308695Y0407122D01*
X0309581Y0407614D01*
X0310467Y0408008D01*
X0311254Y0408303D01*
X031214Y0408598D01*
X0313026Y0408795D01*
X0313518Y0408894D01*
X0314109Y0408992D01*
X0315487Y0409091D01*
Y0403972D01*
D02*
G37*
G36*
X0326805Y0403874D02*
X0327396Y0403087D01*
X0327888Y0402299D01*
X032838Y0401413D01*
X0328774Y0400528D01*
X0329069Y039974D01*
X0329365Y0398854D01*
X0329561Y0397969D01*
X032966Y0397476D01*
X0329758Y0396886D01*
X0329857Y0395508D01*
X0324739D01*
X032464Y0396394D01*
X0324443Y0397378D01*
X0324148Y0398264D01*
X0323853Y0398953D01*
X0323557Y0399543D01*
X0323262Y0400035D01*
X0322868Y0400528D01*
X0322475Y040102D01*
X0326116Y0404661D01*
X0326805Y0403874D01*
D02*
G37*
G36*
X0309286Y040102D02*
X0308892Y0400528D01*
X0308498Y0400035D01*
X0308203Y0399543D01*
X0307908Y0398953D01*
X0307613Y0398264D01*
X0307317Y0397378D01*
X030712Y0396394D01*
X0307022Y0395508D01*
X0301904D01*
X0302002Y0396886D01*
X0302101Y0397476D01*
X0302199Y0397969D01*
X0302396Y0398854D01*
X0302691Y039974D01*
X0302987Y0400528D01*
X030338Y0401413D01*
X0303872Y0402299D01*
X0304365Y0403087D01*
X0304955Y0403874D01*
X0305644Y0404661D01*
X0309286Y040102D01*
D02*
G37*
G36*
X0329758Y0393342D02*
X032966Y0392752D01*
X0329561Y039226D01*
X0329365Y0391374D01*
X0329069Y0390488D01*
X0328774Y0389701D01*
X032838Y0388815D01*
X0327888Y0387929D01*
X0327396Y0387142D01*
X0326805Y0386354D01*
X0326116Y0385567D01*
X0322475Y0389209D01*
X0322868Y0389701D01*
X0323262Y0390193D01*
X0323557Y0390685D01*
X0323853Y0391276D01*
X0324148Y0391965D01*
X0324443Y039285D01*
X032464Y0393835D01*
X0324739Y0394721D01*
X0329857D01*
X0329758Y0393342D01*
D02*
G37*
G36*
X030712Y0393835D02*
X0307317Y039285D01*
X0307613Y0391965D01*
X0307908Y0391276D01*
X0308203Y0390685D01*
X0308498Y0390193D01*
X0308892Y0389701D01*
X0309286Y0389209D01*
X0305644Y0385567D01*
X0304955Y0386354D01*
X0304365Y0387142D01*
X0303872Y0387929D01*
X030338Y0388815D01*
X0302987Y0389701D01*
X0302691Y0390488D01*
X0302396Y0391374D01*
X0302199Y039226D01*
X0302101Y0392752D01*
X0302002Y0393342D01*
X0301904Y0394721D01*
X0307022D01*
X030712Y0393835D01*
D02*
G37*
G36*
X0325428Y0384878D02*
X032464Y0384189D01*
X0323853Y0383598D01*
X0323065Y0383106D01*
X032218Y0382614D01*
X0321294Y0382221D01*
X0320506Y0381925D01*
X031962Y038163D01*
X0318735Y0381433D01*
X0318243Y0381335D01*
X0317652Y0381236D01*
X0316274Y0381138D01*
Y0386256D01*
X031716Y0386354D01*
X0318144Y0386551D01*
X031903Y0386846D01*
X0319719Y0387142D01*
X0320309Y0387437D01*
X0320802Y0387732D01*
X0321294Y0388126D01*
X0321786Y038852D01*
X0325428Y0384878D01*
D02*
G37*
G36*
X0310467Y0388126D02*
X0310959Y0387732D01*
X0311451Y0387437D01*
X0312042Y0387142D01*
X0312731Y0386846D01*
X0313616Y0386551D01*
X0314601Y0386354D01*
X0315487Y0386256D01*
Y0381138D01*
X0314109Y0381236D01*
X0313518Y0381335D01*
X0313026Y0381433D01*
X031214Y038163D01*
X0311254Y0381925D01*
X0310467Y0382221D01*
X0309581Y0382614D01*
X0308695Y0383106D01*
X0307908Y0383598D01*
X030712Y0384189D01*
X0306333Y0384878D01*
X0309975Y038852D01*
X0310467Y0388126D01*
D02*
G37*
G36*
X0116116Y0408992D02*
X0116707Y0408894D01*
X0117199Y0408795D01*
X0118085Y0408598D01*
X0118971Y0408303D01*
X0119758Y0408008D01*
X0120644Y0407614D01*
X012153Y0407122D01*
X0122317Y040663D01*
X0123105Y0406039D01*
X0123892Y040535D01*
X012025Y0401709D01*
X0119758Y0402102D01*
X0119266Y0402496D01*
X0118774Y0402791D01*
X0118184Y0403087D01*
X0117494Y0403382D01*
X0116609Y0403677D01*
X0115624Y0403874D01*
X0114739Y0403972D01*
Y0409091D01*
X0116116Y0408992D01*
D02*
G37*
G36*
X0113951Y0403972D02*
X0113065Y0403874D01*
X0112081Y0403677D01*
X0111195Y0403382D01*
X0110506Y0403087D01*
X0109916Y0402791D01*
X0109424Y0402496D01*
X0108932Y0402102D01*
X0108439Y0401709D01*
X0104798Y040535D01*
X0105585Y0406039D01*
X0106372Y040663D01*
X010716Y0407122D01*
X0108046Y0407614D01*
X0108932Y0408008D01*
X0109719Y0408303D01*
X0110605Y0408598D01*
X0111491Y0408795D01*
X0111983Y0408894D01*
X0112573Y0408992D01*
X0113951Y0409091D01*
Y0403972D01*
D02*
G37*
G36*
X012527Y0403874D02*
X0125861Y0403087D01*
X0126353Y0402299D01*
X0126845Y0401413D01*
X0127239Y0400528D01*
X0127534Y039974D01*
X0127829Y0398854D01*
X0128026Y0397969D01*
X0128124Y0397476D01*
X0128223Y0396886D01*
X0128321Y0395508D01*
X0123203D01*
X0123105Y0396394D01*
X0122908Y0397378D01*
X0122613Y0398264D01*
X0122317Y0398953D01*
X0122022Y0399543D01*
X0121727Y0400035D01*
X0121333Y0400528D01*
X0120939Y040102D01*
X0124581Y0404661D01*
X012527Y0403874D01*
D02*
G37*
G36*
X010775Y040102D02*
X0107357Y0400528D01*
X0106963Y0400035D01*
X0106668Y0399543D01*
X0106372Y0398953D01*
X0106077Y0398264D01*
X0105782Y0397378D01*
X0105585Y0396394D01*
X0105487Y0395508D01*
X0100368D01*
X0100467Y0396886D01*
X0100565Y0397476D01*
X0100664Y0397969D01*
X0100861Y0398854D01*
X0101156Y039974D01*
X0101451Y0400528D01*
X0101845Y0401413D01*
X0102337Y0402299D01*
X0102829Y0403087D01*
X010342Y0403874D01*
X0104109Y0404661D01*
X010775Y040102D01*
D02*
G37*
G36*
X0128223Y0393342D02*
X0128124Y0392752D01*
X0128026Y039226D01*
X0127829Y0391374D01*
X0127534Y0390488D01*
X0127239Y0389701D01*
X0126845Y0388815D01*
X0126353Y0387929D01*
X0125861Y0387142D01*
X012527Y0386354D01*
X0124581Y0385567D01*
X0120939Y0389209D01*
X0121333Y0389701D01*
X0121727Y0390193D01*
X0122022Y0390685D01*
X0122317Y0391276D01*
X0122613Y0391965D01*
X0122908Y039285D01*
X0123105Y0393835D01*
X0123203Y0394721D01*
X0128321D01*
X0128223Y0393342D01*
D02*
G37*
G36*
X0105585Y0393835D02*
X0105782Y039285D01*
X0106077Y0391965D01*
X0106372Y0391276D01*
X0106668Y0390685D01*
X0106963Y0390193D01*
X0107357Y0389701D01*
X010775Y0389209D01*
X0104109Y0385567D01*
X010342Y0386354D01*
X0102829Y0387142D01*
X0102337Y0387929D01*
X0101845Y0388815D01*
X0101451Y0389701D01*
X0101156Y0390488D01*
X0100861Y0391374D01*
X0100664Y039226D01*
X0100565Y0392752D01*
X0100467Y0393342D01*
X0100368Y0394721D01*
X0105487D01*
X0105585Y0393835D01*
D02*
G37*
G36*
X0123892Y0384878D02*
X0123105Y0384189D01*
X0122317Y0383598D01*
X012153Y0383106D01*
X0120644Y0382614D01*
X0119758Y0382221D01*
X0118971Y0381925D01*
X0118085Y038163D01*
X0117199Y0381433D01*
X0116707Y0381335D01*
X0116116Y0381236D01*
X0114739Y0381138D01*
Y0386256D01*
X0115624Y0386354D01*
X0116609Y0386551D01*
X0117494Y0386846D01*
X0118184Y0387142D01*
X0118774Y0387437D01*
X0119266Y0387732D01*
X0119758Y0388126D01*
X012025Y038852D01*
X0123892Y0384878D01*
D02*
G37*
G36*
X0108932Y0388126D02*
X0109424Y0387732D01*
X0109916Y0387437D01*
X0110506Y0387142D01*
X0111195Y0386846D01*
X0112081Y0386551D01*
X0113065Y0386354D01*
X0113951Y0386256D01*
Y0381138D01*
X0112573Y0381236D01*
X0111983Y0381335D01*
X0111491Y0381433D01*
X0110605Y038163D01*
X0109719Y0381925D01*
X0108932Y0382221D01*
X0108046Y0382614D01*
X010716Y0383106D01*
X0106372Y0383598D01*
X0105585Y0384189D01*
X0104798Y0384878D01*
X0108439Y038852D01*
X0108932Y0388126D01*
D02*
G37*
G36*
X0205533Y0409985D02*
X0206553Y0409563D01*
X020747Y040895D01*
X020825Y040817D01*
X0208863Y0407253D01*
X0209285Y0406233D01*
X02095Y0405152D01*
Y04046D01*
Y03379D01*
X02095Y03379D01*
X02095Y0337348D01*
X0209285Y0336266D01*
X0208863Y0335247D01*
X020825Y033433D01*
X020747Y033355D01*
X0206553Y0332937D01*
X0205533Y0332515D01*
X0204451Y03323D01*
X02039Y03323D01*
X01812Y03323D01*
X01812Y03323D01*
X0180688Y03323D01*
X0179683Y03325D01*
X0178737Y0332892D01*
X0177885Y0333461D01*
X0177161Y0334185D01*
X0176592Y0335037D01*
X01762Y0335983D01*
X0176Y0336988D01*
Y03375D01*
X0176Y04049D01*
X0176D01*
X0176Y04049D01*
X0176Y0405422D01*
X0176204Y0406446D01*
X0176603Y040741D01*
X0177183Y0408279D01*
X0177921Y0409017D01*
X0178789Y0409597D01*
X0179754Y0409996D01*
X0180778Y04102D01*
X01813Y04102D01*
X02039Y04102D01*
X0204451D01*
X0205533Y0409985D01*
D02*
G37*
G36*
X0169433Y0409785D02*
X0170453Y0409363D01*
X017137Y040875D01*
X017215Y040797D01*
X0172763Y0407053D01*
X0173185Y0406033D01*
X01734Y0404951D01*
X01734Y04044D01*
X01734Y04044D01*
X01734Y04044D01*
X01734Y03372D01*
X01734Y0336737D01*
X0173219Y0335829D01*
X0172865Y0334974D01*
X0172351Y0334204D01*
X0171696Y0333549D01*
X0170926Y0333035D01*
X0170071Y0332681D01*
X0169163Y03325D01*
X01687Y03325D01*
X01687Y03325D01*
Y03325D01*
X01447D01*
X0144247Y03325D01*
X0143358Y0332677D01*
X0142521Y0333024D01*
X0141768Y0333527D01*
X0141127Y0334168D01*
X0140623Y0334921D01*
X0140277Y0335758D01*
X01401Y0336647D01*
X01401Y03371D01*
X01401Y03371D01*
Y04054D01*
Y0405853D01*
X0140277Y0406742D01*
X0140623Y0407579D01*
X0141127Y0408332D01*
X0141768Y0408973D01*
X0142521Y0409476D01*
X0143358Y0409823D01*
X0144247Y041D01*
X01447D01*
X01447Y041D01*
X01678Y041D01*
X0168351Y041D01*
X0169433Y0409785D01*
D02*
G37*
G36*
X0292858Y0407208D02*
X0293768Y0406831D01*
X0294587Y0406284D01*
X0295284Y0405587D01*
X0295831Y0404768D01*
X0296208Y0403858D01*
X02964Y0402892D01*
Y04024D01*
Y03888D01*
Y0388303D01*
X0296019Y0387384D01*
X0295316Y0386681D01*
X0294397Y03863D01*
X0284404D01*
X0283825Y0386415D01*
X0283279Y0386641D01*
X0282788Y038697D01*
X028237Y0387388D01*
X0282041Y0387879D01*
X0281815Y0388425D01*
X02817Y0389004D01*
Y03893D01*
Y03896D01*
X0281678Y0390041D01*
X0281506Y0390906D01*
X0281169Y0391721D01*
X0280679Y0392455D01*
X0280055Y0393078D01*
X0279321Y0393569D01*
X0278506Y0393906D01*
X0277641Y0394078D01*
X02772Y03941D01*
X0253662D01*
X0252854Y0394435D01*
X0252235Y0395054D01*
X02519Y0395862D01*
Y03963D01*
Y04047D01*
Y0404966D01*
X0252004Y0405488D01*
X0252207Y0405979D01*
X0252503Y0406421D01*
X0252879Y0406797D01*
X0253321Y0407093D01*
X0253812Y0407296D01*
X0254334Y04074D01*
X0291893D01*
X0292858Y0407208D01*
D02*
G37*
G36*
X02833Y02841D02*
X03008Y02841D01*
X03008Y02841D01*
X03008Y02841D01*
X0300802D01*
X0301267Y028408D01*
X030199Y028378D01*
X030258Y028319D01*
X03029Y0282418D01*
X03029Y0282D01*
X03029Y02808D01*
X03029Y0277796D01*
X03029Y0277796D01*
X03029Y0277359D01*
X0302566Y0276552D01*
X0301948Y0275934D01*
X0301141Y02756D01*
X0300704Y02756D01*
X02833D01*
X0282863Y02756D01*
X0282056Y0275934D01*
X0281438Y0276552D01*
X0281104Y0277359D01*
Y0282D01*
X0281104Y0282D01*
X0281133Y0282471D01*
X0281458Y0283209D01*
X0282076Y02838D01*
X0282873Y028411D01*
X02833Y02841D01*
D02*
G37*
G36*
X019974Y0298784D02*
X0199992D01*
X0200487Y0298686D01*
X0200953Y0298493D01*
X0201372Y0298213D01*
X0201729Y0297856D01*
X0202009Y0297437D01*
X0202202Y0296971D01*
X02023Y0296477D01*
Y0296225D01*
Y02853D01*
Y0285044D01*
X02022Y0284542D01*
X0202004Y0284068D01*
X020172Y0283643D01*
X0201357Y028328D01*
X0200932Y0282996D01*
X0200458Y02828D01*
X0199956Y02827D01*
X01997D01*
X01922Y02827D01*
X01922Y02827D01*
X0191377Y028266D01*
X0189762Y0282338D01*
X018824Y0281708D01*
X0186871Y0280793D01*
X0185707Y0279629D01*
X0184792Y027826D01*
X0184162Y0276738D01*
X018384Y0275123D01*
X01838Y02743D01*
Y02521D01*
X01838Y02521D01*
X01838Y0251722D01*
X0183511Y0251024D01*
X0182976Y0250489D01*
X0182278Y02502D01*
X01819Y02502D01*
X0179D01*
X0178523Y02502D01*
X017764Y0250565D01*
X0176965Y025124D01*
X01766Y0252123D01*
X01766Y02526D01*
Y02948D01*
Y0295194D01*
X0176754Y0295967D01*
X0177055Y0296695D01*
X0177493Y029735D01*
X017805Y0297907D01*
X0178705Y0298345D01*
X0179433Y0298646D01*
X0180206Y02988D01*
X01943D01*
X019974Y0298784D01*
D02*
G37*
G36*
X0275163Y0319441D02*
X0275641Y0318963D01*
X02759Y0318338D01*
Y0318D01*
Y02975D01*
X0275948Y0297012D01*
X0276321Y0296111D01*
X0277011Y0295421D01*
X0277912Y0295048D01*
X02784Y0295D01*
X0278877Y0295D01*
X027976Y0294635D01*
X0280435Y0293959D01*
X02808Y0293077D01*
X02808Y02926D01*
X02808Y02926D01*
X02808Y02926D01*
X02808Y02868D01*
X02808Y0286524D01*
X0280692Y0285983D01*
X0280481Y0285474D01*
X0280175Y0285015D01*
X0279785Y0284625D01*
X0279326Y0284319D01*
X0278817Y0284108D01*
X0278464Y0284037D01*
X0278Y0284D01*
X0278Y0284D01*
Y0284D01*
X0277512Y0283952D01*
X0276611Y0283579D01*
X0275921Y0282889D01*
X0275548Y0281988D01*
X02755Y02815D01*
X02755Y02706D01*
X0275518Y0270228D01*
X0275664Y0269497D01*
X0275949Y0268809D01*
X0276363Y0268189D01*
X0276889Y0267663D01*
X0277509Y0267249D01*
X0278197Y0266964D01*
X0278927Y0266818D01*
X02793Y02668D01*
X02809Y02668D01*
X0281156Y02668D01*
X0281658Y02667D01*
X0282132Y0266504D01*
X0282557Y026622D01*
X028292Y0265857D01*
X0283204Y0265432D01*
X02834Y0264958D01*
X0283459Y026466D01*
X02835Y02642D01*
Y02642D01*
X02835D01*
X02835Y02642D01*
Y02465D01*
Y0246122D01*
X0283211Y0245424D01*
X0282676Y0244889D01*
X0281978Y02446D01*
X0277482D01*
X027671Y024492D01*
X027612Y024551D01*
X02758Y0246282D01*
Y02467D01*
X02759Y02561D01*
X027588Y0256502D01*
X0275724Y025729D01*
X0275416Y0258033D01*
X0274969Y0258701D01*
X0274401Y0259269D01*
X0273733Y0259716D01*
X027299Y0260023D01*
X0272202Y026018D01*
X02718Y02602D01*
Y02602D01*
X0271534Y02602D01*
X0271012Y0260304D01*
X0270521Y0260507D01*
X0270079Y0260803D01*
X0269703Y0261179D01*
X0269407Y0261621D01*
X0269204Y0262112D01*
X02691Y0262634D01*
X02691Y02629D01*
Y02826D01*
X0269065Y0282951D01*
X0268797Y02836D01*
X02683Y0284097D01*
X0267651Y0284365D01*
X02673Y02844D01*
X0264902D01*
X0264167Y0284704D01*
X0263604Y0285267D01*
X02633Y0286002D01*
Y0292976D01*
X0263408Y0293517D01*
X0263619Y0294026D01*
X0263925Y0294485D01*
X0264315Y0294875D01*
X0264774Y0295181D01*
X0265283Y0295392D01*
X0265824Y02955D01*
X02661D01*
X02661Y02955D01*
X0266607Y029555D01*
X0267545Y0295938D01*
X0268262Y0296656D01*
X026865Y0297593D01*
X02687Y02981D01*
Y03177D01*
Y0318098D01*
X0269005Y0318833D01*
X0269567Y0319395D01*
X0270302Y03197D01*
X0274538D01*
X0275163Y0319441D01*
D02*
G37*
G36*
X0291723Y0254728D02*
X0292097Y0254354D01*
X02923Y0253865D01*
Y02349D01*
X0292322Y0234449D01*
X0292498Y0233565D01*
X0292843Y0232732D01*
X0293344Y0231982D01*
X0293982Y0231344D01*
X0294731Y0230843D01*
X0295565Y0230498D01*
X0296449Y0230322D01*
X02969Y02303D01*
X02969Y02303D01*
X0297196Y02303D01*
X0297775Y0230185D01*
X0298321Y0229959D01*
X0298812Y022963D01*
X029923Y0229212D01*
X0299558Y0228721D01*
X0299785Y0228175D01*
X0299867Y0227762D01*
X02999Y0227301D01*
Y02273D01*
X02999Y02273D01*
X02999Y02273D01*
X02999Y0213034D01*
X0299796Y0212512D01*
X0299593Y0212021D01*
X0299297Y0211579D01*
X0298921Y0211203D01*
X0298479Y0210907D01*
X0297988Y0210704D01*
X0297466Y02106D01*
X02972D01*
Y02106D01*
X02813D01*
X0280803Y02106D01*
X0279884Y0210981D01*
X0279181Y0211684D01*
X02788Y0212603D01*
X02788Y02131D01*
Y02275D01*
X02788Y0227796D01*
X0278915Y0228375D01*
X0279141Y0228921D01*
X027947Y0229412D01*
X0279888Y022983D01*
X0280379Y0230159D01*
X0280925Y0230385D01*
X0281505Y02305D01*
X02818Y02305D01*
X02818Y02305D01*
X0282231Y0230521D01*
X0283077Y023069D01*
X0283874Y0231019D01*
X0284591Y0231499D01*
X0285201Y0232109D01*
X0285681Y0232826D01*
X0286011Y0233623D01*
X0286179Y0234469D01*
X02862Y02349D01*
Y02536D01*
X02862Y0253865D01*
X0286403Y0254354D01*
X0286777Y0254728D01*
X0287266Y0254931D01*
X0287531Y0254931D01*
X0287531Y0254931D01*
X0291234D01*
X0291723Y0254728D01*
D02*
G37*
G36*
X01688Y02986D02*
X0169273Y02986D01*
X01702Y0298415D01*
X0171074Y0298054D01*
X017186Y0297528D01*
X0172528Y029686D01*
X0173054Y0296074D01*
X0173416Y02952D01*
X01736Y0294273D01*
X01736Y02938D01*
X01736Y02938D01*
X01736Y02938D01*
X01736Y02516D01*
X01736Y0251341D01*
X0173402Y0250864D01*
X0173036Y0250498D01*
X0172558Y02503D01*
X01723Y02503D01*
X01678D01*
X0167422Y02503D01*
X0166724Y0250589D01*
X0166189Y0251124D01*
X01659Y0251822D01*
X01659Y02522D01*
X01659Y0273D01*
X0165854Y0273931D01*
X0165491Y0275758D01*
X0164778Y0277478D01*
X0163744Y0279027D01*
X0162427Y0280344D01*
X0160878Y0281378D01*
X0159158Y0282091D01*
X0157331Y0282454D01*
X01564Y02825D01*
X01564Y02825D01*
Y02825D01*
X0150002D01*
X0149267Y0282804D01*
X0148705Y0283367D01*
X01484Y0284102D01*
Y0297238D01*
X0148659Y0297863D01*
X0149137Y0298341D01*
X0149762Y02986D01*
X01501D01*
X01688Y02986D01*
D02*
G37*
G36*
X0317652Y0097202D02*
X0318243Y0097103D01*
X0318735Y0097005D01*
X031962Y0096808D01*
X0320506Y0096513D01*
X0321294Y0096217D01*
X032218Y0095824D01*
X0323065Y0095332D01*
X0323853Y0094839D01*
X032464Y0094249D01*
X0325428Y009356D01*
X0321786Y0089918D01*
X0321294Y0090312D01*
X0320802Y0090706D01*
X0320309Y0091001D01*
X0319719Y0091296D01*
X031903Y0091591D01*
X0318144Y0091887D01*
X031716Y0092084D01*
X0316274Y0092182D01*
Y00973D01*
X0317652Y0097202D01*
D02*
G37*
G36*
X0315487Y0092182D02*
X0314601Y0092084D01*
X0313616Y0091887D01*
X0312731Y0091591D01*
X0312042Y0091296D01*
X0311451Y0091001D01*
X0310959Y0090706D01*
X0310467Y0090312D01*
X0309975Y0089918D01*
X0306333Y009356D01*
X030712Y0094249D01*
X0307908Y0094839D01*
X0308695Y0095332D01*
X0309581Y0095824D01*
X0310467Y0096217D01*
X0311254Y0096513D01*
X031214Y0096808D01*
X0313026Y0097005D01*
X0313518Y0097103D01*
X0314109Y0097202D01*
X0315487Y00973D01*
Y0092182D01*
D02*
G37*
G36*
X0326805Y0092084D02*
X0327396Y0091296D01*
X0327888Y0090509D01*
X032838Y0089623D01*
X0328774Y0088737D01*
X0329069Y008795D01*
X0329365Y0087064D01*
X0329561Y0086178D01*
X032966Y0085686D01*
X0329758Y0085095D01*
X0329857Y0083717D01*
X0324739D01*
X032464Y0084603D01*
X0324443Y0085587D01*
X0324148Y0086473D01*
X0323853Y0087162D01*
X0323557Y0087753D01*
X0323262Y0088245D01*
X0322868Y0088737D01*
X0322475Y0089229D01*
X0326116Y0092871D01*
X0326805Y0092084D01*
D02*
G37*
G36*
X0309286Y0089229D02*
X0308892Y0088737D01*
X0308498Y0088245D01*
X0308203Y0087753D01*
X0307908Y0087162D01*
X0307613Y0086473D01*
X0307317Y0085587D01*
X030712Y0084603D01*
X0307022Y0083717D01*
X0301904D01*
X0302002Y0085095D01*
X0302101Y0085686D01*
X0302199Y0086178D01*
X0302396Y0087064D01*
X0302691Y008795D01*
X0302987Y0088737D01*
X030338Y0089623D01*
X0303872Y0090509D01*
X0304365Y0091296D01*
X0304955Y0092084D01*
X0305644Y0092871D01*
X0309286Y0089229D01*
D02*
G37*
G36*
X0329758Y0081552D02*
X032966Y0080961D01*
X0329561Y0080469D01*
X0329365Y0079584D01*
X0329069Y0078698D01*
X0328774Y007791D01*
X032838Y0077024D01*
X0327888Y0076139D01*
X0327396Y0075351D01*
X0326805Y0074564D01*
X0326116Y0073776D01*
X0322475Y0077418D01*
X0322868Y007791D01*
X0323262Y0078402D01*
X0323557Y0078895D01*
X0323853Y0079485D01*
X0324148Y0080174D01*
X0324443Y008106D01*
X032464Y0082044D01*
X0324739Y008293D01*
X0329857D01*
X0329758Y0081552D01*
D02*
G37*
G36*
X030712Y0082044D02*
X0307317Y008106D01*
X0307613Y0080174D01*
X0307908Y0079485D01*
X0308203Y0078895D01*
X0308498Y0078402D01*
X0308892Y007791D01*
X0309286Y0077418D01*
X0305644Y0073776D01*
X0304955Y0074564D01*
X0304365Y0075351D01*
X0303872Y0076139D01*
X030338Y0077024D01*
X0302987Y007791D01*
X0302691Y0078698D01*
X0302396Y0079584D01*
X0302199Y0080469D01*
X0302101Y0080961D01*
X0302002Y0081552D01*
X0301904Y008293D01*
X0307022D01*
X030712Y0082044D01*
D02*
G37*
G36*
X0325428Y0073087D02*
X032464Y0072398D01*
X0323853Y0071808D01*
X0323065Y0071316D01*
X032218Y0070824D01*
X0321294Y007043D01*
X0320506Y0070135D01*
X031962Y0069839D01*
X0318735Y0069643D01*
X0318243Y0069544D01*
X0317652Y0069446D01*
X0316274Y0069347D01*
Y0074465D01*
X031716Y0074564D01*
X0318144Y0074761D01*
X031903Y0075056D01*
X0319719Y0075351D01*
X0320309Y0075647D01*
X0320802Y0075942D01*
X0321294Y0076335D01*
X0321786Y0076729D01*
X0325428Y0073087D01*
D02*
G37*
G36*
X0310467Y0076335D02*
X0310959Y0075942D01*
X0311451Y0075647D01*
X0312042Y0075351D01*
X0312731Y0075056D01*
X0313616Y0074761D01*
X0314601Y0074564D01*
X0315487Y0074465D01*
Y0069347D01*
X0314109Y0069446D01*
X0313518Y0069544D01*
X0313026Y0069643D01*
X031214Y0069839D01*
X0311254Y0070135D01*
X0310467Y007043D01*
X0309581Y0070824D01*
X0308695Y0071316D01*
X0307908Y0071808D01*
X030712Y0072398D01*
X0306333Y0073087D01*
X0309975Y0076729D01*
X0310467Y0076335D01*
D02*
G37*
G36*
X0116116Y0097202D02*
X0116707Y0097103D01*
X0117199Y0097005D01*
X0118085Y0096808D01*
X0118971Y0096513D01*
X0119758Y0096217D01*
X0120644Y0095824D01*
X012153Y0095332D01*
X0122317Y0094839D01*
X0123105Y0094249D01*
X0123892Y009356D01*
X012025Y0089918D01*
X0119758Y0090312D01*
X0119266Y0090706D01*
X0118774Y0091001D01*
X0118184Y0091296D01*
X0117494Y0091591D01*
X0116609Y0091887D01*
X0115624Y0092084D01*
X0114739Y0092182D01*
Y00973D01*
X0116116Y0097202D01*
D02*
G37*
G36*
X0113951Y0092182D02*
X0113065Y0092084D01*
X0112081Y0091887D01*
X0111195Y0091591D01*
X0110506Y0091296D01*
X0109916Y0091001D01*
X0109424Y0090706D01*
X0108932Y0090312D01*
X0108439Y0089918D01*
X0104798Y009356D01*
X0105585Y0094249D01*
X0106372Y0094839D01*
X010716Y0095332D01*
X0108046Y0095824D01*
X0108932Y0096217D01*
X0109719Y0096513D01*
X0110605Y0096808D01*
X0111491Y0097005D01*
X0111983Y0097103D01*
X0112573Y0097202D01*
X0113951Y00973D01*
Y0092182D01*
D02*
G37*
G36*
X012527Y0092084D02*
X0125861Y0091296D01*
X0126353Y0090509D01*
X0126845Y0089623D01*
X0127239Y0088737D01*
X0127534Y008795D01*
X0127829Y0087064D01*
X0128026Y0086178D01*
X0128124Y0085686D01*
X0128223Y0085095D01*
X0128321Y0083717D01*
X0123203D01*
X0123105Y0084603D01*
X0122908Y0085587D01*
X0122613Y0086473D01*
X0122317Y0087162D01*
X0122022Y0087753D01*
X0121727Y0088245D01*
X0121333Y0088737D01*
X0120939Y0089229D01*
X0124581Y0092871D01*
X012527Y0092084D01*
D02*
G37*
G36*
X010775Y0089229D02*
X0107357Y0088737D01*
X0106963Y0088245D01*
X0106668Y0087753D01*
X0106372Y0087162D01*
X0106077Y0086473D01*
X0105782Y0085587D01*
X0105585Y0084603D01*
X0105487Y0083717D01*
X0100368D01*
X0100467Y0085095D01*
X0100565Y0085686D01*
X0100664Y0086178D01*
X0100861Y0087064D01*
X0101156Y008795D01*
X0101451Y0088737D01*
X0101845Y0089623D01*
X0102337Y0090509D01*
X0102829Y0091296D01*
X010342Y0092084D01*
X0104109Y0092871D01*
X010775Y0089229D01*
D02*
G37*
G36*
X0128223Y0081552D02*
X0128124Y0080961D01*
X0128026Y0080469D01*
X0127829Y0079584D01*
X0127534Y0078698D01*
X0127239Y007791D01*
X0126845Y0077024D01*
X0126353Y0076139D01*
X0125861Y0075351D01*
X012527Y0074564D01*
X0124581Y0073776D01*
X0120939Y0077418D01*
X0121333Y007791D01*
X0121727Y0078402D01*
X0122022Y0078895D01*
X0122317Y0079485D01*
X0122613Y0080174D01*
X0122908Y008106D01*
X0123105Y0082044D01*
X0123203Y008293D01*
X0128321D01*
X0128223Y0081552D01*
D02*
G37*
G36*
X0105585Y0082044D02*
X0105782Y008106D01*
X0106077Y0080174D01*
X0106372Y0079485D01*
X0106668Y0078895D01*
X0106963Y0078402D01*
X0107357Y007791D01*
X010775Y0077418D01*
X0104109Y0073776D01*
X010342Y0074564D01*
X0102829Y0075351D01*
X0102337Y0076139D01*
X0101845Y0077024D01*
X0101451Y007791D01*
X0101156Y0078698D01*
X0100861Y0079584D01*
X0100664Y0080469D01*
X0100565Y0080961D01*
X0100467Y0081552D01*
X0100368Y008293D01*
X0105487D01*
X0105585Y0082044D01*
D02*
G37*
G36*
X0123892Y0073087D02*
X0123105Y0072398D01*
X0122317Y0071808D01*
X012153Y0071316D01*
X0120644Y0070824D01*
X0119758Y007043D01*
X0118971Y0070135D01*
X0118085Y0069839D01*
X0117199Y0069643D01*
X0116707Y0069544D01*
X0116116Y0069446D01*
X0114739Y0069347D01*
Y0074465D01*
X0115624Y0074564D01*
X0116609Y0074761D01*
X0117494Y0075056D01*
X0118184Y0075351D01*
X0118774Y0075647D01*
X0119266Y0075942D01*
X0119758Y0076335D01*
X012025Y0076729D01*
X0123892Y0073087D01*
D02*
G37*
G36*
X0108932Y0076335D02*
X0109424Y0075942D01*
X0109916Y0075647D01*
X0110506Y0075351D01*
X0111195Y0075056D01*
X0112081Y0074761D01*
X0113065Y0074564D01*
X0113951Y0074465D01*
Y0069347D01*
X0112573Y0069446D01*
X0111983Y0069544D01*
X0111491Y0069643D01*
X0110605Y0069839D01*
X0109719Y0070135D01*
X0108932Y007043D01*
X0108046Y0070824D01*
X010716Y0071316D01*
X0106372Y0071808D01*
X0105585Y0072398D01*
X0104798Y0073087D01*
X0108439Y0076729D01*
X0108932Y0076335D01*
D02*
G37*
D12*
X0253527Y0270327D02*
X02537Y02705D01*
X0253527Y02661D02*
Y0270327D01*
X0194835Y02132D02*
X02023Y0220665D01*
X01143Y02132D02*
X0194835D01*
X01006Y02269D02*
X01143Y02132D01*
X01006Y02269D02*
Y02925D01*
X01075Y02994D01*
D14*
X01425Y01147D02*
X01427Y01145D01*
Y01049D02*
Y01145D01*
Y01049D02*
X01614D01*
X01371D02*
X01427D01*
X0325Y01396D02*
Y0155D01*
X032Y0115D02*
X03256D01*
X0327Y01164D02*
Y0129528D01*
X03256Y0115D02*
X0327Y01164D01*
X03033Y0153228D02*
X0327Y0129528D01*
X03033Y0153228D02*
Y0165D01*
X0325D02*
Y0175D01*
Y0155D02*
Y0165D01*
X016215Y015155D02*
X01622Y01515D01*
X01437Y01516D02*
X014375Y015155D01*
X016215D01*
X01774Y01444D02*
X01868D01*
X01621Y01597D02*
Y016346D01*
Y01597D02*
X01774Y01444D01*
X0125903Y0109597D02*
Y01777D01*
X01333Y01087D02*
Y01671D01*
X01367Y01705D01*
X0154435D01*
X0125903Y0109597D02*
X01326Y01029D01*
X01333Y01087D02*
X01371Y01049D01*
X01326Y00871D02*
Y01029D01*
Y00871D02*
X01371Y00826D01*
X02467D01*
X0125903Y01777D02*
Y0192778D01*
Y01777D02*
X0126003Y01776D01*
X01421D01*
X0154435Y01705D02*
X0161935Y0178D01*
X0162682Y0178747D01*
X03259Y01024D02*
X0331Y01075D01*
X03063Y01024D02*
X03259D01*
X03019Y0098D02*
X03063Y01024D01*
X0294Y0098D02*
X03019D01*
X0283189Y0087189D02*
X0294Y0098D01*
X0281Y0085D02*
Y0085083D01*
X0283106Y0087189D01*
X0283189D01*
X01521Y01233D02*
X01735Y01019D01*
X03004D01*
X0304472Y0105972D01*
X01618Y00975D02*
X02388D01*
X0243Y00933D02*
X0243D01*
X02388Y00975D02*
X0243Y00933D01*
X0156521Y0092221D02*
X01618Y00975D01*
X01521Y01233D02*
Y01322D01*
X01652Y01236D02*
X0232272D01*
X01621Y01267D02*
X01652Y01236D01*
X01621Y01267D02*
Y01322D01*
X02536Y02487D02*
X02538Y02485D01*
Y02359D02*
Y02485D01*
X02476Y02588D02*
X02544Y0252D01*
X02627D01*
X026699Y0247709D01*
X02538Y02359D02*
X02644Y02253D01*
X026699Y0194409D02*
X02964Y0165D01*
X026699Y0194409D02*
Y0247709D01*
X02644Y0180206D02*
Y02253D01*
X02519Y02079D02*
X02521Y02081D01*
X02519Y0182772D02*
Y02079D01*
X02644Y0180206D02*
X0319606Y0125D01*
X032D01*
X02964Y0165D02*
X03033D01*
X0268Y01138D02*
Y01426D01*
X0259647Y0146918D02*
X0263682D01*
X0268Y01426D01*
X02537Y02705D02*
X02563D01*
X02501D02*
X02537D01*
X0253527Y02661D02*
X02553D01*
X02384D02*
X0253527D01*
X02481Y03336D02*
X025695Y034245D01*
X02408Y03336D02*
X02481D01*
X02366Y03294D02*
X02408Y03336D01*
X02366Y0321887D02*
Y03294D01*
X02956Y01811D02*
Y01873D01*
X029265Y019025D02*
X02956Y01873D01*
X0286Y019025D02*
X029265D01*
X02498Y01183D02*
X024995Y011845D01*
Y016325D02*
X02501Y01634D01*
X024995Y011845D02*
Y016325D01*
X02104Y01068D02*
X0261D01*
X0268Y01138D01*
X02589Y0147665D02*
X0259647Y0146918D01*
X02062Y01181D02*
X02156D01*
X0172D02*
X02062D01*
Y0111D02*
Y01181D01*
Y0111D02*
X02104Y01068D01*
X0232272Y01236D02*
X02424D01*
X02426Y01234D01*
X01932Y02158D02*
X0198982Y0221582D01*
X01243Y02238D02*
X01323Y02158D01*
X01932D01*
X02631Y031551D02*
Y03258D01*
Y03348D01*
X01874Y02003D02*
X0209D01*
X02302Y02215D01*
X01799Y01928D02*
X01874Y02003D01*
X0198982Y0221582D02*
Y0227697D01*
X0219Y02673D02*
Y0282821D01*
X01981Y02464D02*
X0219Y02673D01*
X01657Y01862D02*
X02015D01*
X02388Y02235D01*
X02302Y02215D02*
Y02322D01*
X02112Y0187321D02*
X0231979Y02081D01*
X02112Y0176D02*
Y0187321D01*
X0162682Y0183182D02*
X01657Y01862D01*
X0162682Y0178747D02*
Y0183182D01*
X026466Y02727D02*
Y027826D01*
Y026944D02*
Y02727D01*
X02588Y0273D02*
X026436D01*
X026466Y02727D01*
X02563Y02705D02*
X02588Y0273D01*
X0214418Y0257518D02*
X02302D01*
X02004Y02435D02*
X0214418Y0257518D01*
X01491Y01392D02*
X0217321D01*
X02222Y0134321D01*
X02156Y01181D02*
X0221Y01127D01*
X02321Y0123772D02*
Y01819D01*
X02756Y02103D02*
Y02357D01*
X02302Y02322D02*
Y0257518D01*
X02398Y02334D02*
X0248D01*
X02352Y0238D02*
Y02629D01*
Y0238D02*
X02398Y02334D01*
X0248D02*
X02605Y02209D01*
Y0205664D02*
Y02209D01*
X02352Y02629D02*
X02384Y02661D01*
X0204476Y02398D02*
X0206568Y0241893D01*
X02076D01*
X0200364Y02398D02*
X0204476D01*
X0200364Y02398D02*
X0200364Y02398D01*
X01596Y02398D02*
X0200364D01*
X0183292Y0231892D02*
X02076D01*
X01799Y02285D02*
X0183292Y0231892D01*
X01189Y02435D02*
X0122236D01*
X0123619Y0242116D01*
X01173Y02451D02*
X01189Y02435D01*
X0129571D02*
X02004D01*
X0123619Y0242116D02*
X0128187D01*
X0129571Y02435D01*
X01343Y02522D02*
X01401Y02464D01*
X01981D01*
X02892Y020592D02*
X029952D01*
X0303439Y0209839D01*
X0320161D02*
X0325Y0205D01*
X0303439Y0209839D02*
X0320161D01*
X029468Y02612D02*
Y026462D01*
X02945Y02648D02*
X029468Y026462D01*
X028754Y02612D02*
X0297D01*
X02983Y0250421D02*
Y02599D01*
X02982Y0250321D02*
X02983Y0250421D01*
X0297Y02612D02*
X02983Y02599D01*
X02756Y02103D02*
X02802Y02057D01*
X02822D01*
X02712Y0198879D02*
Y02618D01*
Y0198879D02*
X0279829Y019025D01*
X02822Y02057D02*
X028231Y020581D01*
X028909D02*
X02892Y020592D01*
X028231Y020581D02*
X028909D01*
X026462Y02783D02*
X026466Y027826D01*
Y026944D02*
X02647Y02694D01*
X027718Y03256D02*
X02799D01*
X027084D02*
X027718D01*
Y032918D01*
X02811Y03154D02*
Y03244D01*
X02799Y03256D02*
X02811Y03244D01*
X027064Y03258D02*
X027084Y03256D01*
X027718Y032918D02*
X02774Y03294D01*
X02721Y03499D02*
X0274373Y0347627D01*
X0301073D01*
X0265Y03499D02*
X02721D01*
X0282Y03348D02*
Y0338528D01*
X0283172Y03397D02*
X02996D01*
X02997Y03398D01*
X0282Y0338528D02*
X0283172Y03397D01*
X02956Y01811D02*
X03036D01*
X02956Y0174479D02*
Y01811D01*
X0279829Y019025D02*
X0286D01*
X02858Y019045D02*
X0286Y019025D01*
X02858Y019045D02*
Y01945D01*
X02881Y01968D01*
X02966D01*
X03048Y0205D01*
X0251028Y01819D02*
X02519Y0182772D01*
X02321Y01819D02*
X0251028D01*
X02189D02*
X02321D01*
Y0123772D02*
X0232272Y01236D01*
X02164Y01794D02*
X02189Y01819D01*
X02519D02*
X02594D01*
X0251028D02*
X02519D01*
X01137Y01727D02*
Y0199D01*
X01171Y01661D02*
Y01964D01*
X0111Y016D02*
X01171Y01661D01*
X0111Y017D02*
X01137Y01727D01*
X01343Y02522D02*
Y02929D01*
X01146Y03126D02*
Y03367D01*
Y03126D02*
X01343Y02929D01*
X02302Y0257518D02*
Y02637D01*
X0106903Y0313297D02*
X01173Y03029D01*
X0106903Y0313297D02*
Y0330779D01*
X01173Y02451D02*
Y03029D01*
X02302Y02637D02*
X02363Y02698D01*
X0138242Y0092221D02*
X0156521D01*
X03246Y01059D02*
X0332Y01133D01*
X0305528Y0105972D02*
X03056Y01059D01*
X03246D01*
X0304472Y0105972D02*
X0305528D01*
X0332Y01133D02*
Y0178D01*
X02467Y00826D02*
X02501Y0086D01*
X0325Y0185D02*
X0332Y0178D01*
X0282Y03348D02*
X02862D01*
X02631D02*
X0282D01*
X02932Y02833D02*
X02937Y02838D01*
Y03273D01*
X02862Y03348D02*
X02937Y03273D01*
X02997Y0369065D02*
X02998Y0368965D01*
Y03583D02*
Y0368965D01*
X01043Y0347D02*
Y03587D01*
Y0347D02*
X01146Y03367D01*
X01086Y0363D02*
X0115D01*
X01043Y03587D02*
X01086Y0363D01*
X01171Y01964D02*
X01207Y02D01*
X01349D01*
X01422Y01927D01*
X01137Y0199D02*
X01188Y02041D01*
X01377D01*
X01427Y02091D01*
X0107003Y0192778D02*
Y0206003D01*
X01114Y02104D01*
X013D01*
X03048Y0205D02*
X0315D01*
X02712Y02618D02*
X02714Y0262D01*
X03033Y0165D02*
X0315D01*
X01821Y01529D02*
X0185Y015D01*
X01821Y01529D02*
Y016346D01*
X0185Y015D02*
X02048D01*
X02092Y01544D02*
Y01689D01*
X02048Y015D02*
X02092Y01544D01*
Y01689D02*
X02164Y01761D01*
Y01794D01*
X031158Y02175D02*
X031408Y0215D01*
X0315D01*
X02975Y02175D02*
X031158D01*
X02551Y03348D02*
X02631D01*
X02302Y02322D02*
X02302Y02322D01*
X0223307Y02322D02*
X02302D01*
X0172035Y0193011D02*
X0172245Y01928D01*
X01799D01*
X02363Y02698D02*
X02437D01*
X02503Y02764D01*
X02553Y02661D02*
X02576Y02638D01*
Y02588D02*
Y02638D01*
X0223Y0231892D02*
X0223307Y02322D01*
X02503Y02764D02*
Y033D01*
X02551Y03348D01*
X01799Y0222291D02*
Y02285D01*
X0242742Y0382857D02*
X02458Y03798D01*
X02361Y0382857D02*
X0242742D01*
X02458Y03708D02*
X02505Y03661D01*
X02458Y03708D02*
Y03798D01*
X02505Y03661D02*
X02575D01*
X0265Y03586D01*
Y03499D02*
Y03586D01*
X026299Y03154D02*
X02631Y031551D01*
X01421Y01322D02*
X01491Y01392D01*
X02063Y01711D02*
X02112Y0176D01*
X0194Y01711D02*
X02063D01*
X01921Y01692D02*
X0194Y01711D01*
X01921Y016346D02*
Y01692D01*
D21*
X01421Y01776D02*
D03*
X01427Y02091D02*
D03*
X01422Y01927D02*
D03*
X02997Y03398D02*
D03*
X02998Y03583D02*
D03*
X01428Y01155D02*
D03*
X0192Y018D02*
D03*
X0202D02*
D03*
X0172035Y0208021D02*
D03*
X0162035D02*
D03*
Y0193011D02*
D03*
X0172035D02*
D03*
X0161935Y0178D02*
D03*
X0171935D02*
D03*
X02589Y0137665D02*
D03*
Y0147665D02*
D03*
X02476Y02588D02*
D03*
X02576D02*
D03*
X02076Y0231892D02*
D03*
Y0241893D02*
D03*
X0223Y0231892D02*
D03*
Y0241893D02*
D03*
D22*
X02892Y020592D02*
D03*
Y02134D02*
D03*
D23*
X02982Y0250321D02*
D03*
X0289145D02*
D03*
X028009D02*
D03*
X02811Y03154D02*
D03*
X0272045D02*
D03*
X026299D02*
D03*
D24*
X0289145Y0224534D02*
D03*
X0272045Y0289613D02*
D03*
D25*
X026462Y02783D02*
D03*
X02721D02*
D03*
X027064Y03258D02*
D03*
X026316D02*
D03*
X028754Y02612D02*
D03*
X028006D02*
D03*
D65*
X025695Y034245D02*
X0259471Y0339929D01*
X02554Y0344D02*
X025695Y034245D01*
X03298Y02517D02*
Y02805D01*
X0316614Y02425D02*
X0318332Y0244218D01*
X0322318D02*
X03298Y02517D01*
X0318332Y0244218D02*
X0322318D01*
X03197Y02906D02*
X03298Y02805D01*
X02554Y0344D02*
Y0349658D01*
X0255157Y03499D02*
X02554Y0349658D01*
X0265471Y0339929D02*
X02655Y03399D01*
X0259471Y0339929D02*
X0265471D01*
X02997Y0369065D02*
X03197D01*
X0283841Y035252D02*
X030468D01*
X0309Y03482D01*
Y0279D02*
Y03482D01*
Y0279D02*
X0316614Y0271386D01*
Y02575D02*
Y0271386D01*
X0288765Y0369065D02*
X02997D01*
X0283841Y035252D02*
Y0364141D01*
X0288765Y0369065D01*
D66*
X01066Y01117D02*
D03*
X01064Y01241D02*
D03*
X0147Y02706D02*
D03*
D67*
X01166Y01117D02*
D03*
X01164Y01241D02*
D03*
D68*
X02579Y0400435D02*
D03*
X01824D02*
D03*
D69*
X02429D02*
D03*
X01674D02*
D03*
X0316614Y02575D02*
D03*
D70*
X0194599Y0290363D02*
D03*
Y0361229D02*
D03*
X0155229Y0290363D02*
D03*
Y0361229D02*
D03*
D71*
X0115Y0353D02*
D03*
X032Y0125D02*
D03*
D72*
X0115Y0363D02*
D03*
X032Y0115D02*
D03*
D73*
X0106903Y0330779D02*
D03*
Y0290622D02*
D03*
X0125803Y0330779D02*
D03*
Y0290622D02*
D03*
X0107003Y0232936D02*
D03*
Y0192778D02*
D03*
X0125903Y0232936D02*
D03*
Y0192778D02*
D03*
X0192121Y01938D02*
D03*
X0232279D02*
D03*
X0231979Y02081D02*
D03*
X0191821D02*
D03*
X0138242Y0076621D02*
D03*
X01784D02*
D03*
Y0092221D02*
D03*
X0138242D02*
D03*
X0190421Y0076621D02*
D03*
X0230579D02*
D03*
X0190421Y0092221D02*
D03*
X0230579D02*
D03*
X02764Y0174479D02*
D03*
Y0134321D02*
D03*
X02956D02*
D03*
Y0174479D02*
D03*
X02605Y0245821D02*
D03*
Y0205664D02*
D03*
X02441Y0245921D02*
D03*
Y0205764D02*
D03*
X0219Y03427D02*
D03*
Y0382857D02*
D03*
X02361Y03427D02*
D03*
Y0382857D02*
D03*
X02222Y0134321D02*
D03*
Y0174479D02*
D03*
X02416Y0134321D02*
D03*
Y0174479D02*
D03*
X0219Y0282821D02*
D03*
Y0322979D02*
D03*
D74*
X0106903Y0277601D02*
D03*
X0125803D02*
D03*
X0125903Y0246957D02*
D03*
X0107003Y0246657D02*
D03*
D75*
X0106903Y0267601D02*
D03*
X0125803D02*
D03*
X0125903Y0256957D02*
D03*
X0107003Y0256657D02*
D03*
D76*
X02021Y016346D02*
D03*
D77*
X01921D02*
D03*
X01821D02*
D03*
X01721D02*
D03*
X01621D02*
D03*
X01521D02*
D03*
X01421D02*
D03*
Y01322D02*
D03*
X01521D02*
D03*
X01621D02*
D03*
X01721D02*
D03*
X01821D02*
D03*
X01921D02*
D03*
X02021D02*
D03*
D78*
X0111Y015D02*
D03*
Y016D02*
D03*
D79*
Y017D02*
D03*
D80*
X0221Y01127D02*
D03*
X0197378D02*
D03*
D81*
X02812Y01093D02*
D03*
X02862D02*
D03*
X02912D02*
D03*
D82*
X0315Y0215D02*
D03*
Y0205D02*
D03*
X0325Y0215D02*
D03*
Y0205D02*
D03*
X0315Y0195D02*
D03*
X0325D02*
D03*
X0315Y0165D02*
D03*
X0325D02*
D03*
X0315Y0155D02*
D03*
X0325Y0175D02*
D03*
X0315D02*
D03*
X0325Y0185D02*
D03*
X0315D02*
D03*
D83*
X0325Y0155D02*
D03*
D84*
X0316614Y02425D02*
D03*
D85*
X02649Y0378121D02*
D03*
X0265Y03499D02*
D03*
X0169957Y0274121D02*
D03*
D86*
X0255058Y0378121D02*
D03*
X0255157Y03499D02*
D03*
X01798Y0274121D02*
D03*
D87*
X03197Y0369065D02*
D03*
D88*
Y02906D02*
D03*
D89*
X0147Y02606D02*
D03*
D90*
X0281Y0085D02*
D03*
D91*
X0271D02*
D03*
D92*
X0114345Y0083324D02*
D03*
X031588D02*
D03*
X0114345Y0395114D02*
D03*
X031588D02*
D03*
X01946Y0382021D02*
D03*
X015523D02*
D03*
D93*
X0283841Y035252D02*
D03*
X0288959Y039248D02*
D03*
D94*
X01899Y0253551D02*
D03*
D95*
X01799D02*
D03*
X01699D02*
D03*
X01599D02*
D03*
Y0222291D02*
D03*
X01699D02*
D03*
X01799D02*
D03*
X01899D02*
D03*
D96*
X02366Y0321887D02*
D03*
D97*
Y02811D02*
D03*
D98*
X0325Y01396D02*
D03*
X01437Y01516D02*
D03*
X01622Y01515D02*
D03*
X0331Y01075D02*
D03*
X01614Y01049D02*
D03*
X02536Y02487D02*
D03*
X02521Y02081D02*
D03*
X02498Y01183D02*
D03*
X02426Y01234D02*
D03*
X02023Y0220665D02*
D03*
X0198982Y0227697D02*
D03*
X01243Y02238D02*
D03*
X01075Y02994D02*
D03*
X02388Y02235D02*
D03*
X02501Y02705D02*
D03*
X0172Y01181D02*
D03*
X02756Y02357D02*
D03*
X01596Y02398D02*
D03*
X02945Y02648D02*
D03*
X02647Y02694D02*
D03*
X02774Y03294D02*
D03*
X02655Y03399D02*
D03*
X0301073Y0347627D02*
D03*
X03036Y01811D02*
D03*
X02594Y01819D02*
D03*
X0243Y00933D02*
D03*
X02501Y0086D02*
D03*
X013Y02104D02*
D03*
X02501Y01634D02*
D03*
X01868Y01444D02*
D03*
X02813Y02172D02*
D03*
X02975Y02175D02*
D03*
X0285Y028D02*
D03*
X03D02*
D03*
D99*
X0118676Y0072891D02*
D03*
X0103912Y0078993D02*
D03*
X0110014Y0093757D02*
D03*
X0124778Y0087654D02*
D03*
X0103912D02*
D03*
X0118676Y0093757D02*
D03*
X0124778Y0078993D02*
D03*
X0110014Y0072891D02*
D03*
X0320211D02*
D03*
X0305447Y0078993D02*
D03*
X031155Y0093757D02*
D03*
X0326313Y0087654D02*
D03*
X0305447D02*
D03*
X0320211Y0093757D02*
D03*
X0326313Y0078993D02*
D03*
X031155Y0072891D02*
D03*
X0118676Y0384681D02*
D03*
X0103912Y0390784D02*
D03*
X0110014Y0405547D02*
D03*
X0124778Y0399445D02*
D03*
X0103912D02*
D03*
X0118676Y0405547D02*
D03*
X0124778Y0390784D02*
D03*
X0110014Y0384681D02*
D03*
X031155D02*
D03*
X0326313Y0390784D02*
D03*
X0320211Y0405547D02*
D03*
X0305447Y0399445D02*
D03*
X0326313D02*
D03*
X031155Y0405547D02*
D03*
X0305447Y0390784D02*
D03*
X0320211Y0384681D02*
D03*
M02*
