G04*
G04 #@! TF.GenerationSoftware,Altium Limited,Altium Designer,21.3.2 (30)*
G04*
G04 Layer_Color=16711935*
%FSTAX25Y25*%
%MOIN*%
G70*
G04*
G04 #@! TF.SameCoordinates,19385EB9-96A7-4604-B433-F295045984F4*
G04*
G04*
G04 #@! TF.FilePolarity,Positive*
G04*
G01*
G75*
%ADD10C,0.00394*%
%ADD13C,0.00787*%
%ADD15C,0.00500*%
D10*
X01016Y01067D02*
X01216D01*
X01016D02*
Y01167D01*
X01216D01*
Y01067D02*
Y01167D01*
X01014Y01191D02*
X01214D01*
X01014D02*
Y01291D01*
X01214D01*
Y01191D02*
Y01291D01*
X0289557Y0270709D02*
X0294479D01*
X0289557Y0278584D02*
X0294479D01*
Y0270709D02*
Y0278584D01*
X0289557Y0270709D02*
Y0278584D01*
X0305207Y029491D02*
Y0309476D01*
X0278829Y029491D02*
Y0309476D01*
Y029491D02*
X0305207D01*
X0278829Y0309476D02*
X0305207D01*
X0293396Y0328247D02*
X030127D01*
X0293396Y0323326D02*
X030127D01*
Y0328247D01*
X0293396Y0323326D02*
Y0328247D01*
X0286739Y0205723D02*
X0291661D01*
X0286739Y0213597D02*
X0291661D01*
X0286739Y0205723D02*
Y0213597D01*
X0291661Y0205723D02*
Y0213597D01*
X031Y015D02*
X033D01*
Y022D01*
X031D02*
X033D01*
X031Y015D02*
Y022D01*
X0275956Y0244711D02*
X0302334D01*
X0275956Y0230144D02*
X0302334D01*
Y0244711D01*
X0275956Y0230144D02*
Y0244711D01*
X0264423Y0275839D02*
Y0280761D01*
X0272297Y0275839D02*
Y0280761D01*
X0264423D02*
X0272297D01*
X0264423Y0275839D02*
X0272297D01*
X0270837Y0323339D02*
Y0328261D01*
X0262963Y0323339D02*
Y0328261D01*
Y0323339D02*
X0270837D01*
X0262963Y0328261D02*
X0270837D01*
X0258856Y030979D02*
X0285234D01*
X0258856Y0295223D02*
X0285234D01*
Y030979D01*
X0258856Y0295223D02*
Y030979D01*
X0142Y02556D02*
Y02756D01*
X0152D01*
Y02556D02*
Y02756D01*
X0142Y02556D02*
X0152D01*
X0287737Y0258739D02*
Y0263661D01*
X0279863Y0258739D02*
Y0263661D01*
Y0258739D02*
X0287737D01*
X0279863Y0263661D02*
X0287737D01*
D13*
X0202494Y0167731D02*
G03*
X0202494Y0167731I-0000394J0D01*
G01*
X0281594Y0101898D02*
G03*
X0281594Y0101898I-0000394J0D01*
G01*
X0190294Y0257744D02*
G03*
X0190294Y0257744I-0000394J0D01*
G01*
X0236994Y0328954D02*
G03*
X0236994Y0328954I-0000394J0D01*
G01*
D15*
X0294481Y0104209D02*
G03*
X0277919Y0104209I-0008281J0006017D01*
G01*
X021086Y0134838D02*
Y0160822D01*
X013334Y0134838D02*
Y0160822D01*
X021086D01*
X013334Y0134838D02*
X021086D01*
X0186158Y0104039D02*
X0232221D01*
X0186158D02*
Y0121361D01*
X0232221Y0104039D02*
Y0121361D01*
X0186158D02*
X0232221D01*
X0277924Y0104202D02*
X0294476D01*
X0292305Y034002D02*
Y040498D01*
X0280494Y034002D02*
X0292305D01*
X0280494D02*
Y040498D01*
X0292305D01*
X0193778Y0225421D02*
Y0250421D01*
X0156022Y0225421D02*
Y0250421D01*
X0193778D01*
X0156022Y0225421D02*
X0193778D01*
X0241275Y0292379D02*
Y0310608D01*
X02366Y0292379D02*
X0241275D01*
X0231925D02*
X02366D01*
X0231925D02*
Y0310608D01*
X02366D01*
X0241275D01*
X02366D02*
Y0321887D01*
Y02811D02*
Y0292379D01*
M02*
