G04*
G04 #@! TF.GenerationSoftware,Altium Limited,Altium Designer,21.3.2 (30)*
G04*
G04 Layer_Color=128*
%FSTAX25Y25*%
%MOIN*%
G70*
G04*
G04 #@! TF.SameCoordinates,2120B266-B5FC-475A-9EAD-F7F6DF0CB4C0*
G04*
G04*
G04 #@! TF.FilePolarity,Positive*
G04*
G01*
G75*
%ADD81C,0.00200*%
D81*
X0283144Y0404414D02*
X0288656D01*
X02859Y0401658D02*
Y040717D01*
X0268144Y0404414D02*
X0273656D01*
X02709Y0401658D02*
Y040717D01*
X0335944Y0404414D02*
X0341456D01*
X03387Y0401658D02*
Y040717D01*
X0320944Y0404414D02*
X0326456D01*
X03237Y0401658D02*
Y040717D01*
X0221332Y03265D02*
X0225269D01*
X02233Y0324532D02*
Y0328468D01*
X0221332Y03165D02*
X0225269D01*
X02233Y0314531D02*
Y0318468D01*
X0220951Y0288108D02*
X0233549D01*
X022725Y0281809D02*
Y0294408D01*
X0389035Y03262D02*
X0393365D01*
X03912Y0324035D02*
Y0328365D01*
X0389035Y03162D02*
X0393365D01*
X03912Y0314035D02*
Y0318365D01*
X0389035Y03362D02*
X0393365D01*
X03912Y0334035D02*
Y0338365D01*
X0389035Y03462D02*
X0393365D01*
X03912Y0344035D02*
Y0348365D01*
X0385531Y03645D02*
X0389469D01*
X03875Y0362531D02*
Y0366469D01*
X0385531Y03745D02*
X0389469D01*
X03875Y0372532D02*
Y0376468D01*
X0342531Y02811D02*
X0346468D01*
X03445Y0279132D02*
Y0283068D01*
X0332531Y02811D02*
X0336469D01*
X03345Y0279132D02*
Y0283068D01*
X0374116Y0288108D02*
X0386715D01*
X0380415Y0281809D02*
Y0294408D01*
X0220951Y0402274D02*
X0233549D01*
X022725Y0395974D02*
Y0408573D01*
X0374116Y0402274D02*
X0386715D01*
X0380415Y0395974D02*
Y0408573D01*
X0369513Y03329D02*
X0371087D01*
X03703Y0332113D02*
Y0333687D01*
X0304413Y0318D02*
X0305987D01*
X03052Y0317213D02*
Y0318787D01*
X0369513Y03489D02*
X0371087D01*
X03703Y0348113D02*
Y0349687D01*
X0369513Y03548D02*
X0371087D01*
X03703Y0354013D02*
Y0355587D01*
X0299213Y039D02*
X0300787D01*
X03Y0389213D02*
Y0390787D01*
X0299213Y04D02*
X0300787D01*
X03Y0399213D02*
Y0400787D01*
X0299213Y041D02*
X0300787D01*
X03Y0409213D02*
Y0410787D01*
X0384213Y038D02*
X0385787D01*
X0385Y0379213D02*
Y0380787D01*
X0389213Y0385D02*
X0390787D01*
X039Y0384213D02*
Y0385787D01*
X0394213Y038D02*
X0395787D01*
X0395Y0379213D02*
Y0380787D01*
X0394213Y039D02*
X0395787D01*
X0395Y0389213D02*
Y0390787D01*
X0364213Y039D02*
X0365787D01*
X0365Y0389213D02*
Y0390787D01*
X0244213Y0415D02*
X0245787D01*
X0245Y0414213D02*
Y0415787D01*
X0254213Y0415D02*
X0255787D01*
X0255Y0414213D02*
Y0415787D01*
X0294213Y0355D02*
X0295787D01*
X0295Y0354213D02*
Y0355787D01*
X0314213Y0355D02*
X0315787D01*
X0315Y0354213D02*
Y0355787D01*
X0314213Y0365D02*
X0315787D01*
X0315Y0364213D02*
Y0365787D01*
X0294213Y0365D02*
X0295787D01*
X0295Y0364213D02*
Y0365787D01*
X0294213Y0375D02*
X0295787D01*
X0295Y0374213D02*
Y0375787D01*
X0314213Y0375D02*
X0315787D01*
X0315Y0374213D02*
Y0375787D01*
X0304213Y0375D02*
X0305787D01*
X0305Y0374213D02*
Y0375787D01*
X0304213Y0385D02*
X0305787D01*
X0305Y0384213D02*
Y0385787D01*
X0304213Y0395D02*
X0305787D01*
X0305Y0394213D02*
Y0395787D01*
X0304213Y0405D02*
X0305787D01*
X0305Y0404213D02*
Y0405787D01*
X0304213Y0415D02*
X0305787D01*
X0305Y0414213D02*
Y0415787D01*
X0369213Y0385D02*
X0370787D01*
X037Y0384213D02*
Y0385787D01*
X0359213Y0385D02*
X0360787D01*
X036Y0384213D02*
Y0385787D01*
X0359213Y0395D02*
X0360787D01*
X036Y0394213D02*
Y0395787D01*
X0359213Y0405D02*
X0360787D01*
X036Y0404213D02*
Y0405787D01*
X0359213Y0415D02*
X0360787D01*
X036Y0414213D02*
Y0415787D01*
X0265713Y02844D02*
X0267287D01*
X02665Y0283613D02*
Y0285187D01*
X0265813Y02779D02*
X0267387D01*
X02666Y0277113D02*
Y0278687D01*
X022227Y0277675D02*
X0223569D01*
X0222919Y0277026D02*
Y0278325D01*
X0237034Y0283778D02*
X0238333D01*
X0237683Y0283128D02*
Y0284427D01*
X0230931Y0298541D02*
X023223D01*
X0231581Y0297892D02*
Y0299191D01*
X0216167Y0292439D02*
X0217466D01*
X0216817Y0291789D02*
Y0293089D01*
X0237034Y0292439D02*
X0238333D01*
X0237683Y0291789D02*
Y0293089D01*
X022227Y0298541D02*
X0223569D01*
X0222919Y0297892D02*
Y0299191D01*
X0216167Y0283778D02*
X0217466D01*
X0216817Y0283128D02*
Y0284427D01*
X0230931Y0277675D02*
X023223D01*
X0231581Y0277026D02*
Y0278325D01*
X0313213Y0283D02*
X0314787D01*
X0314Y0282213D02*
Y0283787D01*
X0304702Y0326111D02*
X0306277D01*
X0305489Y0325323D02*
Y0326898D01*
X0354113Y03017D02*
X0355687D01*
X03549Y0300913D02*
Y0302487D01*
X0349313Y02962D02*
X0350887D01*
X03501Y0295413D02*
Y0296987D01*
X0370013Y03126D02*
X0371587D01*
X03708Y0311813D02*
Y0313387D01*
X0357013Y03631D02*
X0358587D01*
X03578Y0362313D02*
Y0363887D01*
X037715Y03521D02*
X0378725D01*
X0377938Y0351313D02*
Y0352887D01*
X0380013Y03575D02*
X0381587D01*
X03808Y0356713D02*
Y0358287D01*
X0369013Y03626D02*
X0370587D01*
X03698Y0361813D02*
Y0363387D01*
X0324213Y03039D02*
X0325787D01*
X0325Y0303113D02*
Y0304687D01*
X0324113Y03088D02*
X0325687D01*
X03249Y0308013D02*
Y0309587D01*
X0312913Y03433D02*
X0314487D01*
X03137Y0342513D02*
Y0344087D01*
X0353013Y03402D02*
X0354587D01*
X03538Y0339413D02*
Y0340987D01*
X0348813Y03325D02*
X0350387D01*
X03496Y0331713D02*
Y0333287D01*
X0212413Y03732D02*
X0213987D01*
X02132Y0372413D02*
Y0373987D01*
X0242813Y0363D02*
X0244387D01*
X02436Y0362213D02*
Y0363787D01*
X0270213Y03764D02*
X0271787D01*
X0271Y0375613D02*
Y0377187D01*
X0258013Y03994D02*
X0259587D01*
X02588Y0398613D02*
Y0400187D01*
X0284913Y031D02*
X0286487D01*
X02857Y0309213D02*
Y0310787D01*
X0268213Y03399D02*
X0269787D01*
X0269Y0339113D02*
Y0340687D01*
X0288113Y03595D02*
X0289687D01*
X02889Y0358713D02*
Y0360287D01*
X0351713Y03629D02*
X0353287D01*
X03525Y0362113D02*
Y0363687D01*
X0352913Y02835D02*
X0354487D01*
X03537Y0282713D02*
Y0284287D01*
X0375913Y03257D02*
X0377487D01*
X03767Y0324913D02*
Y0326487D01*
X0284213Y0285D02*
X0285787D01*
X0285Y0284213D02*
Y0285787D01*
X0274213Y0285D02*
X0275787D01*
X0275Y0284213D02*
Y0285787D01*
X0378913Y03333D02*
X0380487D01*
X03797Y0332513D02*
Y0334087D01*
X0259813Y03316D02*
X0261387D01*
X02606Y0330813D02*
Y0332387D01*
X0269213Y031D02*
X0270787D01*
X027Y0309213D02*
Y0310787D01*
X0264213Y031D02*
X0265787D01*
X0265Y0309213D02*
Y0310787D01*
X0264213Y0315D02*
X0265787D01*
X0265Y0314213D02*
Y0315787D01*
X0264213Y032D02*
X0265787D01*
X0265Y0319213D02*
Y0320787D01*
X0384097Y0277675D02*
X0385396D01*
X0384746Y0277026D02*
Y0278325D01*
X0369333Y0283778D02*
X0370632D01*
X0369982Y0283128D02*
Y0284427D01*
X0375435Y0298541D02*
X0376734D01*
X0376085Y0297892D02*
Y0299191D01*
X0390199Y0292439D02*
X0391498D01*
X0390848Y0291789D02*
Y0293089D01*
X0369333Y0292439D02*
X0370632D01*
X0369982Y0291789D02*
Y0293089D01*
X0384097Y0298541D02*
X0385396D01*
X0384746Y0297892D02*
Y0299191D01*
X0390199Y0283778D02*
X0391498D01*
X0390848Y0283128D02*
Y0284427D01*
X0375435Y0277675D02*
X0376734D01*
X0376085Y0277026D02*
Y0278325D01*
X0230931Y0391841D02*
X023223D01*
X0231581Y0391191D02*
Y039249D01*
X0216167Y0397943D02*
X0217466D01*
X0216817Y0397293D02*
Y0398592D01*
X022227Y0412707D02*
X0223569D01*
X0222919Y0412057D02*
Y0413356D01*
X0237034Y0406604D02*
X0238333D01*
X0237683Y0405955D02*
Y0407254D01*
X0216167Y0406604D02*
X0217466D01*
X0216817Y0405955D02*
Y0407254D01*
X0230931Y0412707D02*
X023223D01*
X0231581Y0412057D02*
Y0413356D01*
X0237034Y0397943D02*
X0238333D01*
X0237683Y0397293D02*
Y0398592D01*
X022227Y0391841D02*
X0223569D01*
X0222919Y0391191D02*
Y039249D01*
X0375435Y0391841D02*
X0376734D01*
X0376085Y0391191D02*
Y039249D01*
X0390199Y0397943D02*
X0391498D01*
X0390848Y0397293D02*
Y0398592D01*
X0384097Y0412707D02*
X0385396D01*
X0384746Y0412057D02*
Y0413356D01*
X0369333Y0406604D02*
X0370632D01*
X0369982Y0405955D02*
Y0407254D01*
X0390199Y0406604D02*
X0391498D01*
X0390848Y0405955D02*
Y0407254D01*
X0375435Y0412707D02*
X0376734D01*
X0376085Y0412057D02*
Y0413356D01*
X0369333Y0397943D02*
X0370632D01*
X0369982Y0397293D02*
Y0398592D01*
X0384097Y0391841D02*
X0385396D01*
X0384746Y0391191D02*
Y039249D01*
M02*
