G04*
G04 #@! TF.GenerationSoftware,Altium Limited,Altium Designer,21.3.2 (30)*
G04*
G04 Layer_Color=16711935*
%FSTAX25Y25*%
%MOIN*%
G70*
G04*
G04 #@! TF.SameCoordinates,2120B266-B5FC-475A-9EAD-F7F6DF0CB4C0*
G04*
G04*
G04 #@! TF.FilePolarity,Negative*
G04*
G01*
G75*
G04:AMPARAMS|DCode=51|XSize=90.68mil|YSize=90.68mil|CornerRadius=24.67mil|HoleSize=0mil|Usage=FLASHONLY|Rotation=180.000|XOffset=0mil|YOffset=0mil|HoleType=Round|Shape=RoundedRectangle|*
%AMROUNDEDRECTD51*
21,1,0.09068,0.04134,0,0,180.0*
21,1,0.04134,0.09068,0,0,180.0*
1,1,0.04934,-0.02067,0.02067*
1,1,0.04934,0.02067,0.02067*
1,1,0.04934,0.02067,-0.02067*
1,1,0.04934,-0.02067,-0.02067*
%
%ADD51ROUNDEDRECTD51*%
%ADD52C,0.09068*%
G04:AMPARAMS|DCode=53|XSize=78.87mil|YSize=70.99mil|CornerRadius=19.75mil|HoleSize=0mil|Usage=FLASHONLY|Rotation=0.000|XOffset=0mil|YOffset=0mil|HoleType=Round|Shape=RoundedRectangle|*
%AMROUNDEDRECTD53*
21,1,0.07887,0.03150,0,0,0.0*
21,1,0.03937,0.07099,0,0,0.0*
1,1,0.03950,0.01968,-0.01575*
1,1,0.03950,-0.01968,-0.01575*
1,1,0.03950,-0.01968,0.01575*
1,1,0.03950,0.01968,0.01575*
%
%ADD53ROUNDEDRECTD53*%
%ADD54O,0.07887X0.07099*%
%ADD56C,0.07099*%
%ADD57R,0.07099X0.07099*%
%ADD58O,0.07099X0.07887*%
G04:AMPARAMS|DCode=59|XSize=78.87mil|YSize=70.99mil|CornerRadius=19.75mil|HoleSize=0mil|Usage=FLASHONLY|Rotation=90.000|XOffset=0mil|YOffset=0mil|HoleType=Round|Shape=RoundedRectangle|*
%AMROUNDEDRECTD59*
21,1,0.07887,0.03150,0,0,90.0*
21,1,0.03937,0.07099,0,0,90.0*
1,1,0.03950,0.01575,0.01968*
1,1,0.03950,0.01575,-0.01968*
1,1,0.03950,-0.01575,-0.01968*
1,1,0.03950,-0.01575,0.01968*
%
%ADD59ROUNDEDRECTD59*%
%ADD60C,0.03950*%
%ADD61C,0.03398*%
%ADD76C,0.28359*%
D51*
X02859Y0404414D02*
D03*
X03387D02*
D03*
D52*
X02709D02*
D03*
X03237D02*
D03*
D53*
X02233Y03265D02*
D03*
X03875Y03645D02*
D03*
D54*
X02233Y03165D02*
D03*
X03875Y03745D02*
D03*
D56*
X03912Y03262D02*
D03*
Y03362D02*
D03*
Y03462D02*
D03*
D57*
Y03162D02*
D03*
D58*
X03445Y02811D02*
D03*
D59*
X03345D02*
D03*
D60*
X03703Y03329D02*
D03*
X03052Y0318D02*
D03*
X03703Y03489D02*
D03*
Y03548D02*
D03*
X03Y039D02*
D03*
Y04D02*
D03*
Y041D02*
D03*
X0385Y038D02*
D03*
X039Y0385D02*
D03*
X0395Y038D02*
D03*
Y039D02*
D03*
X0365D02*
D03*
X0245Y0415D02*
D03*
X0255D02*
D03*
X0295Y0355D02*
D03*
X0315D02*
D03*
Y0365D02*
D03*
X0295D02*
D03*
Y0375D02*
D03*
X0315D02*
D03*
X0305D02*
D03*
Y0385D02*
D03*
Y0395D02*
D03*
Y0405D02*
D03*
Y0415D02*
D03*
X037Y0385D02*
D03*
X036D02*
D03*
Y0395D02*
D03*
Y0405D02*
D03*
Y0415D02*
D03*
X02665Y02844D02*
D03*
X02666Y02779D02*
D03*
X0314Y0283D02*
D03*
X0305489Y0326111D02*
D03*
X03549Y03017D02*
D03*
X03501Y02962D02*
D03*
X03708Y03126D02*
D03*
X03578Y03631D02*
D03*
X0377938Y03521D02*
D03*
X03808Y03575D02*
D03*
X03698Y03626D02*
D03*
X0325Y03039D02*
D03*
X03249Y03088D02*
D03*
X03137Y03433D02*
D03*
X03538Y03402D02*
D03*
X03496Y03325D02*
D03*
X02132Y03732D02*
D03*
X02436Y0363D02*
D03*
X0271Y03764D02*
D03*
X02588Y03994D02*
D03*
X02857Y031D02*
D03*
X0269Y03399D02*
D03*
X02889Y03595D02*
D03*
X03525Y03629D02*
D03*
X03537Y02835D02*
D03*
X03767Y03257D02*
D03*
X0285Y0285D02*
D03*
X0275D02*
D03*
X03797Y03333D02*
D03*
X02606Y03316D02*
D03*
X027Y031D02*
D03*
X0265D02*
D03*
Y0315D02*
D03*
Y032D02*
D03*
D61*
X0222919Y0277675D02*
D03*
X0237683Y0283778D02*
D03*
X0231581Y0298541D02*
D03*
X0216817Y0292439D02*
D03*
X0237683D02*
D03*
X0222919Y0298541D02*
D03*
X0216817Y0283778D02*
D03*
X0231581Y0277675D02*
D03*
X0384746D02*
D03*
X0369982Y0283778D02*
D03*
X0376085Y0298541D02*
D03*
X0390848Y0292439D02*
D03*
X0369982D02*
D03*
X0384746Y0298541D02*
D03*
X0390848Y0283778D02*
D03*
X0376085Y0277675D02*
D03*
X0231581Y0391841D02*
D03*
X0216817Y0397943D02*
D03*
X0222919Y0412707D02*
D03*
X0237683Y0406604D02*
D03*
X0216817D02*
D03*
X0231581Y0412707D02*
D03*
X0237683Y0397943D02*
D03*
X0222919Y0391841D02*
D03*
X0376085D02*
D03*
X0390848Y0397943D02*
D03*
X0384746Y0412707D02*
D03*
X0369982Y0406604D02*
D03*
X0390848D02*
D03*
X0376085Y0412707D02*
D03*
X0369982Y0397943D02*
D03*
X0384746Y0391841D02*
D03*
D76*
X022725Y0288108D02*
D03*
X0380415D02*
D03*
X022725Y0402274D02*
D03*
X0380415D02*
D03*
M02*
