G04*
G04 #@! TF.GenerationSoftware,Altium Limited,Altium Designer,21.3.2 (30)*
G04*
G04 Layer_Color=32768*
%FSTAX25Y25*%
%MOIN*%
G70*
G04*
G04 #@! TF.SameCoordinates,2120B266-B5FC-475A-9EAD-F7F6DF0CB4C0*
G04*
G04*
G04 #@! TF.FilePolarity,Positive*
G04*
G01*
G75*
%ADD10C,0.00394*%
%ADD77C,0.00197*%
D10*
X0277832Y0306306D02*
X0281768D01*
X02798Y0304338D02*
Y0308275D01*
X0265627Y0289279D02*
Y0323334D01*
X0293973Y0289279D02*
Y0323334D01*
X0265627Y0289279D02*
X0293973D01*
X0265627Y0323334D02*
X0293973D01*
X0286954Y03255D02*
Y0329044D01*
X0285183Y0327272D02*
X0288726D01*
X02869Y0331656D02*
Y03352D01*
X0285128Y0333428D02*
X0288672D01*
X0277832Y0354106D02*
X0281768D01*
X02798Y0352138D02*
Y0356075D01*
X0265627Y0337079D02*
Y0371134D01*
X0293973Y0337079D02*
Y0371134D01*
X0265627Y0337079D02*
X0293973D01*
X0265627Y0371134D02*
X0293973D01*
X024441Y0405507D02*
X025819D01*
X024441Y0381491D02*
X025819D01*
Y0405507D01*
X024441Y0381491D02*
Y0405507D01*
X02513Y0391531D02*
Y0395468D01*
X0249331Y0393499D02*
X0253269D01*
X0244314Y0380194D02*
X0258094D01*
X0244314Y0356179D02*
X0258094D01*
Y0380194D01*
X0244314Y0356179D02*
Y0380194D01*
X0251204Y0366218D02*
Y0370155D01*
X0249235Y0368187D02*
X0253172D01*
X02358Y0376637D02*
Y038018D01*
X0234028Y0378409D02*
X0237572D01*
X0228672Y0376637D02*
Y038018D01*
X02269Y0378409D02*
X0230444D01*
X02216Y0376658D02*
Y0380202D01*
X0219828Y037843D02*
X0223372D01*
X0213906Y0356414D02*
Y0370194D01*
X0237921Y0356414D02*
Y0370194D01*
X0213906D02*
X0237921D01*
X0213906Y0356414D02*
X0237921D01*
X0223945Y0363304D02*
X0227882D01*
X0225913Y0361335D02*
Y0365272D01*
X0237809Y034071D02*
Y035449D01*
X0213793Y034071D02*
Y035449D01*
Y034071D02*
X0237809D01*
X0213793Y035449D02*
X0237809D01*
X0223832Y03476D02*
X0227769D01*
X0225801Y0345632D02*
Y0349569D01*
X0255Y0332947D02*
Y033649D01*
X0253228Y0334718D02*
X0256772D01*
X0255Y0318678D02*
Y0322221D01*
X0253228Y032045D02*
X0256772D01*
X0255Y0304312D02*
Y0307856D01*
X0253228Y0306084D02*
X0256772D01*
X033464Y0368932D02*
Y0372868D01*
X0332672Y03709D02*
X0336609D01*
X032716Y0368932D02*
Y0372868D01*
X0325191Y03709D02*
X0329128D01*
X0355828Y03711D02*
X0359372D01*
X03576Y0369328D02*
Y0372872D01*
X03647Y0369483D02*
Y0373026D01*
X0362928Y0371254D02*
X0366472D01*
X03654Y0319643D02*
Y0323186D01*
X0363628Y0321414D02*
X0367172D01*
X03585Y0319621D02*
Y0323165D01*
X0356728Y0321393D02*
X0360272D01*
X0312556Y0321395D02*
Y0324939D01*
X0310784Y0323167D02*
X0314328D01*
X0320056Y0321395D02*
Y0324939D01*
X0318284Y0323167D02*
X0321828D01*
X0320056Y0294928D02*
Y0298472D01*
X0318284Y02967D02*
X0321828D01*
X03125Y0294907D02*
Y029845D01*
X0310728Y0296679D02*
X0314272D01*
X03125Y0308141D02*
Y0311684D01*
X0310728Y0309912D02*
X0314272D01*
X032Y0308141D02*
Y0311684D01*
X0318228Y0309912D02*
X0321772D01*
X0333794Y0313705D02*
X0345605D01*
Y0301894D02*
Y0313705D01*
X0333794Y0301894D02*
X0345605D01*
X0333794D02*
Y0313705D01*
Y0311146D02*
X0336353Y0313705D01*
X0335Y0321374D02*
Y0324918D01*
X0333228Y0323146D02*
X0336772D01*
X0340784Y0323167D02*
X0344328D01*
X0342556Y0321395D02*
Y0324939D01*
D77*
X0270079Y03273D02*
X0274016D01*
X0272047Y0325331D02*
Y0329269D01*
X0266732Y0329859D02*
X0277362D01*
Y0324741D02*
Y0329859D01*
X0266732Y0324741D02*
X0277362D01*
X0266732D02*
Y0329859D01*
X0282033Y0324516D02*
X0291876D01*
X0282033Y0330028D02*
X0291876D01*
Y0324516D02*
Y0330028D01*
X0282033Y0324516D02*
Y0330028D01*
X0281979Y0336184D02*
X0291821D01*
X0281979Y0330672D02*
X0291821D01*
X0281979D02*
Y0336184D01*
X0291821Y0330672D02*
Y0336184D01*
X0233044Y038333D02*
X0238556D01*
X0233044Y0373487D02*
X0238556D01*
Y038333D01*
X0233044Y0373487D02*
Y038333D01*
X0225916D02*
X0231428D01*
X0225916Y0373487D02*
X0231428D01*
Y038333D01*
X0225916Y0373487D02*
Y038333D01*
X0218844Y0373509D02*
X0224356D01*
X0218844Y0383351D02*
X0224356D01*
X0218844Y0373509D02*
Y0383351D01*
X0224356Y0373509D02*
Y0383351D01*
X02468Y030382D02*
Y0307757D01*
X0244831Y0305789D02*
X0248768D01*
X0244241Y0300277D02*
Y03113D01*
X0249359D01*
Y0300277D02*
Y03113D01*
X0244241Y0300277D02*
X0249359D01*
X02468Y0318186D02*
Y0322123D01*
X0244831Y0320154D02*
X0248768D01*
X0244241Y0314643D02*
Y0325666D01*
X0249359D01*
Y0314643D02*
Y0325666D01*
X0244241Y0314643D02*
X0249359D01*
X02468Y0332455D02*
Y0336392D01*
X0244831Y0334423D02*
X0248768D01*
X0244241Y0328911D02*
Y0339935D01*
X0249359D01*
Y0328911D02*
Y0339935D01*
X0244241Y0328911D02*
X0249359D01*
X02468Y0346784D02*
Y0350721D01*
X0244831Y0348753D02*
X0248768D01*
X0249359Y0343438D02*
Y0354068D01*
X0244241Y0343438D02*
X0249359D01*
X0244241D02*
Y0354068D01*
X0249359D01*
X0255028Y0346784D02*
Y0350721D01*
X025306Y0348753D02*
X0256996D01*
X0257587Y0343438D02*
Y0354068D01*
X0252469Y0343438D02*
X0257587D01*
X0252469D02*
Y0354068D01*
X0257587D01*
X0252244Y033964D02*
X0257756D01*
X0252244Y0329797D02*
X0257756D01*
Y033964D01*
X0252244Y0329797D02*
Y033964D01*
Y0325371D02*
X0257756D01*
X0252244Y0315528D02*
X0257756D01*
Y0325371D01*
X0252244Y0315528D02*
Y0325371D01*
Y0311005D02*
X0257756D01*
X0252244Y0301163D02*
X0257756D01*
Y0311005D01*
X0252244Y0301163D02*
Y0311005D01*
X0277241Y0275732D02*
X0282359D01*
Y0286362D01*
X0277241D02*
X0282359D01*
X0277241Y0275732D02*
Y0286362D01*
X0277832Y0281047D02*
X0281768D01*
X02798Y0279079D02*
Y0283016D01*
X0345687Y033036D02*
Y035164D01*
X0316513Y033036D02*
Y035164D01*
Y033036D02*
X0345687D01*
X0316513Y035164D02*
X0345687D01*
X03309Y0356132D02*
Y0360068D01*
X0328931Y03581D02*
X0332869D01*
X0324601Y0354655D02*
Y0361545D01*
Y0354655D02*
X0337199D01*
Y0361545D01*
X0324601D02*
X0337199D01*
X0331097Y0377396D02*
X0338183D01*
X0331097Y0364404D02*
X0338183D01*
Y0377396D01*
X0331097Y0364404D02*
Y0377396D01*
X0323617D02*
X0330703D01*
X0323617Y0364404D02*
X0330703D01*
Y0377396D01*
X0323617Y0364404D02*
Y0377396D01*
X0385117Y0309822D02*
X0397283D01*
Y0352578D01*
X0385117D02*
X0397283D01*
X0385117Y0309822D02*
Y0352578D01*
X0389231Y03312D02*
X0393168D01*
X03912Y0329232D02*
Y0333169D01*
X03493Y0368632D02*
Y0372568D01*
X0347332Y03706D02*
X0351269D01*
X0346741Y0365285D02*
Y0375915D01*
X0351859D01*
Y0365285D02*
Y0375915D01*
X0346741Y0365285D02*
X0351859D01*
X0354844Y0366179D02*
Y0376021D01*
X0360356Y0366179D02*
Y0376021D01*
X0354844Y0366179D02*
X0360356D01*
X0354844Y0376021D02*
X0360356D01*
X0361944Y0366333D02*
X0367456D01*
X0361944Y0376176D02*
X0367456D01*
X0361944Y0366333D02*
Y0376176D01*
X0367456Y0366333D02*
Y0376176D01*
X0346841Y0335132D02*
X0351959D01*
Y0345762D01*
X0346841D02*
X0351959D01*
X0346841Y0335132D02*
Y0345762D01*
X0347431Y0340447D02*
X0351368D01*
X03494Y0338479D02*
Y0342416D01*
X0346841Y0356915D02*
X0351959D01*
X0346841Y0346285D02*
Y0356915D01*
Y0346285D02*
X0351959D01*
Y0356915D01*
X0347431Y03516D02*
X0351368D01*
X03494Y0349632D02*
Y0353569D01*
X0355069Y0356915D02*
X0360187D01*
X0355069Y0346285D02*
Y0356915D01*
Y0346285D02*
X0360187D01*
Y0356915D01*
X035566Y03516D02*
X0359596D01*
X0357628Y0349632D02*
Y0353569D01*
X0362113Y0356915D02*
X0367231D01*
X0362113Y0346285D02*
Y0356915D01*
Y0346285D02*
X0367231D01*
Y0356915D01*
X0362703Y03516D02*
X036664D01*
X0364672Y0349632D02*
Y0353569D01*
X0355266Y0330473D02*
Y0344686D01*
X0365108D01*
Y0330473D02*
Y0344686D01*
X0355266Y0330473D02*
X0365108D01*
X0362541Y0304185D02*
X0367659D01*
Y0314815D01*
X0362541D02*
X0367659D01*
X0362541Y0304185D02*
Y0314815D01*
X0363131Y03095D02*
X0367069D01*
X03651Y0307531D02*
Y0311469D01*
X03585Y0307432D02*
Y0311368D01*
X0356532Y03094D02*
X0360469D01*
X0355941Y0304085D02*
Y0314715D01*
X0361059D01*
Y0304085D02*
Y0314715D01*
X0355941Y0304085D02*
X0361059D01*
X0362644Y0316493D02*
X0368156D01*
X0362644Y0326336D02*
X0368156D01*
X0362644Y0316493D02*
Y0326336D01*
X0368156Y0316493D02*
Y0326336D01*
X0355744Y0326314D02*
X0361256D01*
X0355744Y0316472D02*
X0361256D01*
Y0326314D01*
X0355744Y0316472D02*
Y0326314D01*
X0346841Y0317838D02*
X0351959D01*
Y0328468D01*
X0346841D02*
X0351959D01*
X0346841Y0317838D02*
Y0328468D01*
X0347431Y0323153D02*
X0351368D01*
X03494Y0321184D02*
Y0325121D01*
X03098Y0328088D02*
X0315312D01*
X03098Y0318246D02*
X0315312D01*
Y0328088D01*
X03098Y0318246D02*
Y0328088D01*
X03173Y0328088D02*
X0322812D01*
X03173Y0318246D02*
X0322812D01*
Y0328088D01*
X03173Y0318246D02*
Y0328088D01*
X0320028Y0278331D02*
Y0282269D01*
X0318059Y02803D02*
X0321996D01*
X0322587Y0274985D02*
Y0285615D01*
X0317469Y0274985D02*
X0322587D01*
X0317469D02*
Y0285615D01*
X0322587D01*
X03173Y0291779D02*
X0322812D01*
X03173Y0301621D02*
X0322812D01*
X03173Y0291779D02*
Y0301621D01*
X0322812Y0291779D02*
Y0301621D01*
X0309744Y03016D02*
X0315256D01*
X0309744Y0291757D02*
X0315256D01*
Y03016D01*
X0309744Y0291757D02*
Y03016D01*
X0302641Y0315242D02*
X0307759D01*
X0302641Y0304612D02*
Y0315242D01*
Y0304612D02*
X0307759D01*
Y0315242D01*
X0303232Y0309927D02*
X0307169D01*
X03052Y0307958D02*
Y0311895D01*
X0309744Y0314834D02*
X0315256D01*
X0309744Y0304991D02*
X0315256D01*
Y0314834D01*
X0309744Y0304991D02*
Y0314834D01*
X0317244D02*
X0322756D01*
X0317244Y0304991D02*
X0322756D01*
Y0314834D01*
X0317244Y0304991D02*
Y0314834D01*
X03271Y0321031D02*
Y0324969D01*
X0325132Y0323D02*
X0329068D01*
X0324541Y0317685D02*
Y0328315D01*
X0329659D01*
Y0317685D02*
Y0328315D01*
X0324541Y0317685D02*
X0329659D01*
X0332244Y0318225D02*
X0337756D01*
X0332244Y0328067D02*
X0337756D01*
X0332244Y0318225D02*
Y0328067D01*
X0337756Y0318225D02*
Y0328067D01*
X0345312Y0318246D02*
Y0328088D01*
X03398Y0318246D02*
Y0328088D01*
X0345312D01*
X03398Y0318246D02*
X0345312D01*
X0266732Y0330841D02*
Y0335959D01*
Y0330841D02*
X0277362D01*
Y0335959D01*
X0266732D02*
X0277362D01*
X0272047Y0331432D02*
Y0335368D01*
X0270079Y03334D02*
X0274016D01*
X02619Y0367984D02*
Y0371921D01*
X0259931Y0369953D02*
X0263868D01*
X0264459Y0364638D02*
Y0375268D01*
X0259341Y0364638D02*
X0264459D01*
X0259341D02*
Y0375268D01*
X0264459D01*
M02*
