G04*
G04 #@! TF.GenerationSoftware,Altium Limited,Altium Designer,21.3.2 (30)*
G04*
G04 Layer_Color=2752767*
%FSTAX25Y25*%
%MOIN*%
G70*
G04*
G04 #@! TF.SameCoordinates,2120B266-B5FC-475A-9EAD-F7F6DF0CB4C0*
G04*
G04*
G04 #@! TF.FilePolarity,Positive*
G04*
G01*
G75*
%ADD81C,0.00200*%
%ADD82C,0.00267*%
D81*
X02851Y0403614D02*
Y0405214D01*
X02867D01*
Y0403614D01*
X02851D01*
X02701D02*
Y0405214D01*
X02717D01*
Y0403614D01*
X02701D01*
X03379D02*
Y0405214D01*
X03395D01*
Y0403614D01*
X03379D01*
X03229D02*
Y0405214D01*
X03245D01*
Y0403614D01*
X03229D01*
X022725Y0287308D02*
X022645Y0288908D01*
X022805D01*
X022725Y0287308D01*
X03912Y03254D02*
X03916Y03258D01*
X0392D01*
X03916Y03262D01*
X0392Y03266D01*
X03916D01*
X03912Y0327D01*
X03908Y03266D01*
X03904D01*
X03908Y03262D01*
X03904Y03258D01*
X03908D01*
X03912Y03254D01*
Y03154D02*
X03916Y03158D01*
X0392D01*
X03916Y03162D01*
X0392Y03166D01*
X03916D01*
X03912Y0317D01*
X03908Y03166D01*
X03904D01*
X03908Y03162D01*
X03904Y03158D01*
X03908D01*
X03912Y03154D01*
Y03354D02*
X03916Y03358D01*
X0392D01*
X03916Y03362D01*
X0392Y03366D01*
X03916D01*
X03912Y0337D01*
X03908Y03366D01*
X03904D01*
X03908Y03362D01*
X03904Y03358D01*
X03908D01*
X03912Y03354D01*
Y03454D02*
X03916Y03458D01*
X0392D01*
X03916Y03462D01*
X0392Y03466D01*
X03916D01*
X03912Y0347D01*
X03908Y03466D01*
X03904D01*
X03908Y03462D01*
X03904Y03458D01*
X03908D01*
X03912Y03454D01*
X0380415Y0287308D02*
X0379615Y0288908D01*
X0381215D01*
X0380415Y0287308D01*
X022725Y0401474D02*
X022645Y0403074D01*
X022805D01*
X022725Y0401474D01*
X0380415D02*
X0379615Y0403074D01*
X0381215D01*
X0380415Y0401474D01*
X03695Y03321D02*
X03699Y03329D01*
X03695Y03337D01*
X03703Y03333D01*
X03711Y03337D01*
X03707Y03329D01*
X03711Y03321D01*
X03703Y03325D01*
X03695Y03321D01*
X03044Y03172D02*
X03048Y0318D01*
X03044Y03188D01*
X03052Y03184D01*
X0306Y03188D01*
X03056Y0318D01*
X0306Y03172D01*
X03052Y03176D01*
X03044Y03172D01*
X03695Y03481D02*
X03699Y03489D01*
X03695Y03497D01*
X03703Y03493D01*
X03711Y03497D01*
X03707Y03489D01*
X03711Y03481D01*
X03703Y03485D01*
X03695Y03481D01*
Y0354D02*
X03699Y03548D01*
X03695Y03556D01*
X03703Y03552D01*
X03711Y03556D01*
X03707Y03548D01*
X03711Y0354D01*
X03703Y03544D01*
X03695Y0354D01*
X02992Y03892D02*
X02996Y039D01*
X02992Y03908D01*
X03Y03904D01*
X03008Y03908D01*
X03004Y039D01*
X03008Y03892D01*
X03Y03896D01*
X02992Y03892D01*
Y03992D02*
X02996Y04D01*
X02992Y04008D01*
X03Y04004D01*
X03008Y04008D01*
X03004Y04D01*
X03008Y03992D01*
X03Y03996D01*
X02992Y03992D01*
Y04092D02*
X02996Y041D01*
X02992Y04108D01*
X03Y04104D01*
X03008Y04108D01*
X03004Y041D01*
X03008Y04092D01*
X03Y04096D01*
X02992Y04092D01*
X03842Y03792D02*
X03846Y038D01*
X03842Y03808D01*
X0385Y03804D01*
X03858Y03808D01*
X03854Y038D01*
X03858Y03792D01*
X0385Y03796D01*
X03842Y03792D01*
X03892Y03842D02*
X03896Y0385D01*
X03892Y03858D01*
X039Y03854D01*
X03908Y03858D01*
X03904Y0385D01*
X03908Y03842D01*
X039Y03846D01*
X03892Y03842D01*
X03942Y03792D02*
X03946Y038D01*
X03942Y03808D01*
X0395Y03804D01*
X03958Y03808D01*
X03954Y038D01*
X03958Y03792D01*
X0395Y03796D01*
X03942Y03792D01*
Y03892D02*
X03946Y039D01*
X03942Y03908D01*
X0395Y03904D01*
X03958Y03908D01*
X03954Y039D01*
X03958Y03892D01*
X0395Y03896D01*
X03942Y03892D01*
X03642D02*
X03646Y039D01*
X03642Y03908D01*
X0365Y03904D01*
X03658Y03908D01*
X03654Y039D01*
X03658Y03892D01*
X0365Y03896D01*
X03642Y03892D01*
X02442Y04142D02*
X02446Y0415D01*
X02442Y04158D01*
X0245Y04154D01*
X02458Y04158D01*
X02454Y0415D01*
X02458Y04142D01*
X0245Y04146D01*
X02442Y04142D01*
X02542D02*
X02546Y0415D01*
X02542Y04158D01*
X0255Y04154D01*
X02558Y04158D01*
X02554Y0415D01*
X02558Y04142D01*
X0255Y04146D01*
X02542Y04142D01*
X02942Y03542D02*
X02946Y0355D01*
X02942Y03558D01*
X0295Y03554D01*
X02958Y03558D01*
X02954Y0355D01*
X02958Y03542D01*
X0295Y03546D01*
X02942Y03542D01*
X03142D02*
X03146Y0355D01*
X03142Y03558D01*
X0315Y03554D01*
X03158Y03558D01*
X03154Y0355D01*
X03158Y03542D01*
X0315Y03546D01*
X03142Y03542D01*
Y03642D02*
X03146Y0365D01*
X03142Y03658D01*
X0315Y03654D01*
X03158Y03658D01*
X03154Y0365D01*
X03158Y03642D01*
X0315Y03646D01*
X03142Y03642D01*
X02942D02*
X02946Y0365D01*
X02942Y03658D01*
X0295Y03654D01*
X02958Y03658D01*
X02954Y0365D01*
X02958Y03642D01*
X0295Y03646D01*
X02942Y03642D01*
Y03742D02*
X02946Y0375D01*
X02942Y03758D01*
X0295Y03754D01*
X02958Y03758D01*
X02954Y0375D01*
X02958Y03742D01*
X0295Y03746D01*
X02942Y03742D01*
X03142D02*
X03146Y0375D01*
X03142Y03758D01*
X0315Y03754D01*
X03158Y03758D01*
X03154Y0375D01*
X03158Y03742D01*
X0315Y03746D01*
X03142Y03742D01*
X03042D02*
X03046Y0375D01*
X03042Y03758D01*
X0305Y03754D01*
X03058Y03758D01*
X03054Y0375D01*
X03058Y03742D01*
X0305Y03746D01*
X03042Y03742D01*
Y03842D02*
X03046Y0385D01*
X03042Y03858D01*
X0305Y03854D01*
X03058Y03858D01*
X03054Y0385D01*
X03058Y03842D01*
X0305Y03846D01*
X03042Y03842D01*
Y03942D02*
X03046Y0395D01*
X03042Y03958D01*
X0305Y03954D01*
X03058Y03958D01*
X03054Y0395D01*
X03058Y03942D01*
X0305Y03946D01*
X03042Y03942D01*
Y04042D02*
X03046Y0405D01*
X03042Y04058D01*
X0305Y04054D01*
X03058Y04058D01*
X03054Y0405D01*
X03058Y04042D01*
X0305Y04046D01*
X03042Y04042D01*
Y04142D02*
X03046Y0415D01*
X03042Y04158D01*
X0305Y04154D01*
X03058Y04158D01*
X03054Y0415D01*
X03058Y04142D01*
X0305Y04146D01*
X03042Y04142D01*
X03692Y03842D02*
X03696Y0385D01*
X03692Y03858D01*
X037Y03854D01*
X03708Y03858D01*
X03704Y0385D01*
X03708Y03842D01*
X037Y03846D01*
X03692Y03842D01*
X03592D02*
X03596Y0385D01*
X03592Y03858D01*
X036Y03854D01*
X03608Y03858D01*
X03604Y0385D01*
X03608Y03842D01*
X036Y03846D01*
X03592Y03842D01*
Y03942D02*
X03596Y0395D01*
X03592Y03958D01*
X036Y03954D01*
X03608Y03958D01*
X03604Y0395D01*
X03608Y03942D01*
X036Y03946D01*
X03592Y03942D01*
Y04042D02*
X03596Y0405D01*
X03592Y04058D01*
X036Y04054D01*
X03608Y04058D01*
X03604Y0405D01*
X03608Y04042D01*
X036Y04046D01*
X03592Y04042D01*
Y04142D02*
X03596Y0415D01*
X03592Y04158D01*
X036Y04154D01*
X03608Y04158D01*
X03604Y0415D01*
X03608Y04142D01*
X036Y04146D01*
X03592Y04142D01*
X02657Y02836D02*
X02661Y02844D01*
X02657Y02852D01*
X02665Y02848D01*
X02673Y02852D01*
X02669Y02844D01*
X02673Y02836D01*
X02665Y0284D01*
X02657Y02836D01*
X02658Y02771D02*
X02662Y02779D01*
X02658Y02787D01*
X02666Y02783D01*
X02674Y02787D01*
X0267Y02779D01*
X02674Y02771D01*
X02666Y02775D01*
X02658Y02771D01*
X0222519Y0277275D02*
Y0276875D01*
X0223319D01*
Y0277275D01*
X0223719D01*
Y0278075D01*
X0223319D01*
Y0278475D01*
X0222519D01*
Y0278075D01*
X0222119D01*
Y0277275D01*
X0222519D01*
X0237283Y0283378D02*
Y0282978D01*
X0238083D01*
Y0283378D01*
X0238483D01*
Y0284178D01*
X0238083D01*
Y0284578D01*
X0237283D01*
Y0284178D01*
X0236883D01*
Y0283378D01*
X0237283D01*
X0231181Y0298141D02*
Y0297741D01*
X0231981D01*
Y0298141D01*
X0232381D01*
Y0298941D01*
X0231981D01*
Y0299341D01*
X0231181D01*
Y0298941D01*
X0230781D01*
Y0298141D01*
X0231181D01*
X0216417Y0292039D02*
Y0291639D01*
X0217217D01*
Y0292039D01*
X0217617D01*
Y0292839D01*
X0217217D01*
Y0293239D01*
X0216417D01*
Y0292839D01*
X0216017D01*
Y0292039D01*
X0216417D01*
X0237283D02*
Y0291639D01*
X0238083D01*
Y0292039D01*
X0238483D01*
Y0292839D01*
X0238083D01*
Y0293239D01*
X0237283D01*
Y0292839D01*
X0236883D01*
Y0292039D01*
X0237283D01*
X0222519Y0298141D02*
Y0297741D01*
X0223319D01*
Y0298141D01*
X0223719D01*
Y0298941D01*
X0223319D01*
Y0299341D01*
X0222519D01*
Y0298941D01*
X0222119D01*
Y0298141D01*
X0222519D01*
X0216417Y0283378D02*
Y0282978D01*
X0217217D01*
Y0283378D01*
X0217617D01*
Y0284178D01*
X0217217D01*
Y0284578D01*
X0216417D01*
Y0284178D01*
X0216017D01*
Y0283378D01*
X0216417D01*
X0231181Y0277275D02*
Y0276875D01*
X0231981D01*
Y0277275D01*
X0232381D01*
Y0278075D01*
X0231981D01*
Y0278475D01*
X0231181D01*
Y0278075D01*
X0230781D01*
Y0277275D01*
X0231181D01*
X03132Y02822D02*
X03136Y0283D01*
X03132Y02838D01*
X0314Y02834D01*
X03148Y02838D01*
X03144Y0283D01*
X03148Y02822D01*
X0314Y02826D01*
X03132Y02822D01*
X0304689Y0325311D02*
X0305089Y0326111D01*
X0304689Y0326911D01*
X0305489Y0326511D01*
X0306289Y0326911D01*
X0305889Y0326111D01*
X0306289Y0325311D01*
X0305489Y0325711D01*
X0304689Y0325311D01*
X03541Y03009D02*
X03545Y03017D01*
X03541Y03025D01*
X03549Y03021D01*
X03557Y03025D01*
X03553Y03017D01*
X03557Y03009D01*
X03549Y03013D01*
X03541Y03009D01*
X03493Y02954D02*
X03497Y02962D01*
X03493Y0297D01*
X03501Y02966D01*
X03509Y0297D01*
X03505Y02962D01*
X03509Y02954D01*
X03501Y02958D01*
X03493Y02954D01*
X037Y03118D02*
X03704Y03126D01*
X037Y03134D01*
X03708Y0313D01*
X03716Y03134D01*
X03712Y03126D01*
X03716Y03118D01*
X03708Y03122D01*
X037Y03118D01*
X0357Y03623D02*
X03574Y03631D01*
X0357Y03639D01*
X03578Y03635D01*
X03586Y03639D01*
X03582Y03631D01*
X03586Y03623D01*
X03578Y03627D01*
X0357Y03623D01*
X0377138Y03513D02*
X0377538Y03521D01*
X0377138Y03529D01*
X0377938Y03525D01*
X0378738Y03529D01*
X0378338Y03521D01*
X0378738Y03513D01*
X0377938Y03517D01*
X0377138Y03513D01*
X038Y03567D02*
X03804Y03575D01*
X038Y03583D01*
X03808Y03579D01*
X03816Y03583D01*
X03812Y03575D01*
X03816Y03567D01*
X03808Y03571D01*
X038Y03567D01*
X0369Y03618D02*
X03694Y03626D01*
X0369Y03634D01*
X03698Y0363D01*
X03706Y03634D01*
X03702Y03626D01*
X03706Y03618D01*
X03698Y03622D01*
X0369Y03618D01*
X03242Y03031D02*
X03246Y03039D01*
X03242Y03047D01*
X0325Y03043D01*
X03258Y03047D01*
X03254Y03039D01*
X03258Y03031D01*
X0325Y03035D01*
X03242Y03031D01*
X03241Y0308D02*
X03245Y03088D01*
X03241Y03096D01*
X03249Y03092D01*
X03257Y03096D01*
X03253Y03088D01*
X03257Y0308D01*
X03249Y03084D01*
X03241Y0308D01*
X03129Y03425D02*
X03133Y03433D01*
X03129Y03441D01*
X03137Y03437D01*
X03145Y03441D01*
X03141Y03433D01*
X03145Y03425D01*
X03137Y03429D01*
X03129Y03425D01*
X0353Y03394D02*
X03534Y03402D01*
X0353Y0341D01*
X03538Y03406D01*
X03546Y0341D01*
X03542Y03402D01*
X03546Y03394D01*
X03538Y03398D01*
X0353Y03394D01*
X03488Y03317D02*
X03492Y03325D01*
X03488Y03333D01*
X03496Y03329D01*
X03504Y03333D01*
X035Y03325D01*
X03504Y03317D01*
X03496Y03321D01*
X03488Y03317D01*
X02124Y03724D02*
X02128Y03732D01*
X02124Y0374D01*
X02132Y03736D01*
X0214Y0374D01*
X02136Y03732D01*
X0214Y03724D01*
X02132Y03728D01*
X02124Y03724D01*
X02428Y03622D02*
X02432Y0363D01*
X02428Y03638D01*
X02436Y03634D01*
X02444Y03638D01*
X0244Y0363D01*
X02444Y03622D01*
X02436Y03626D01*
X02428Y03622D01*
X02702Y03756D02*
X02706Y03764D01*
X02702Y03772D01*
X0271Y03768D01*
X02718Y03772D01*
X02714Y03764D01*
X02718Y03756D01*
X0271Y0376D01*
X02702Y03756D01*
X0258Y03986D02*
X02584Y03994D01*
X0258Y04002D01*
X02588Y03998D01*
X02596Y04002D01*
X02592Y03994D01*
X02596Y03986D01*
X02588Y0399D01*
X0258Y03986D01*
X02849Y03092D02*
X02853Y031D01*
X02849Y03108D01*
X02857Y03104D01*
X02865Y03108D01*
X02861Y031D01*
X02865Y03092D01*
X02857Y03096D01*
X02849Y03092D01*
X02682Y03391D02*
X02686Y03399D01*
X02682Y03407D01*
X0269Y03403D01*
X02698Y03407D01*
X02694Y03399D01*
X02698Y03391D01*
X0269Y03395D01*
X02682Y03391D01*
X02881Y03587D02*
X02885Y03595D01*
X02881Y03603D01*
X02889Y03599D01*
X02897Y03603D01*
X02893Y03595D01*
X02897Y03587D01*
X02889Y03591D01*
X02881Y03587D01*
X03517Y03621D02*
X03521Y03629D01*
X03517Y03637D01*
X03525Y03633D01*
X03533Y03637D01*
X03529Y03629D01*
X03533Y03621D01*
X03525Y03625D01*
X03517Y03621D01*
X03529Y02827D02*
X03533Y02835D01*
X03529Y02843D01*
X03537Y02839D01*
X03545Y02843D01*
X03541Y02835D01*
X03545Y02827D01*
X03537Y02831D01*
X03529Y02827D01*
X03759Y03249D02*
X03763Y03257D01*
X03759Y03265D01*
X03767Y03261D01*
X03775Y03265D01*
X03771Y03257D01*
X03775Y03249D01*
X03767Y03253D01*
X03759Y03249D01*
X02842Y02842D02*
X02846Y0285D01*
X02842Y02858D01*
X0285Y02854D01*
X02858Y02858D01*
X02854Y0285D01*
X02858Y02842D01*
X0285Y02846D01*
X02842Y02842D01*
X02742D02*
X02746Y0285D01*
X02742Y02858D01*
X0275Y02854D01*
X02758Y02858D01*
X02754Y0285D01*
X02758Y02842D01*
X0275Y02846D01*
X02742Y02842D01*
X03789Y03325D02*
X03793Y03333D01*
X03789Y03341D01*
X03797Y03337D01*
X03805Y03341D01*
X03801Y03333D01*
X03805Y03325D01*
X03797Y03329D01*
X03789Y03325D01*
X02598Y03308D02*
X02602Y03316D01*
X02598Y03324D01*
X02606Y0332D01*
X02614Y03324D01*
X0261Y03316D01*
X02614Y03308D01*
X02606Y03312D01*
X02598Y03308D01*
X02692Y03092D02*
X02696Y031D01*
X02692Y03108D01*
X027Y03104D01*
X02708Y03108D01*
X02704Y031D01*
X02708Y03092D01*
X027Y03096D01*
X02692Y03092D01*
X02642D02*
X02646Y031D01*
X02642Y03108D01*
X0265Y03104D01*
X02658Y03108D01*
X02654Y031D01*
X02658Y03092D01*
X0265Y03096D01*
X02642Y03092D01*
Y03142D02*
X02646Y0315D01*
X02642Y03158D01*
X0265Y03154D01*
X02658Y03158D01*
X02654Y0315D01*
X02658Y03142D01*
X0265Y03146D01*
X02642Y03142D01*
Y03192D02*
X02646Y032D01*
X02642Y03208D01*
X0265Y03204D01*
X02658Y03208D01*
X02654Y032D01*
X02658Y03192D01*
X0265Y03196D01*
X02642Y03192D01*
X0384346Y0277275D02*
Y0276875D01*
X0385146D01*
Y0277275D01*
X0385546D01*
Y0278075D01*
X0385146D01*
Y0278475D01*
X0384346D01*
Y0278075D01*
X0383946D01*
Y0277275D01*
X0384346D01*
X0369582Y0283378D02*
Y0282978D01*
X0370382D01*
Y0283378D01*
X0370782D01*
Y0284178D01*
X0370382D01*
Y0284578D01*
X0369582D01*
Y0284178D01*
X0369182D01*
Y0283378D01*
X0369582D01*
X0375685Y0298141D02*
Y0297741D01*
X0376485D01*
Y0298141D01*
X0376885D01*
Y0298941D01*
X0376485D01*
Y0299341D01*
X0375685D01*
Y0298941D01*
X0375285D01*
Y0298141D01*
X0375685D01*
X0390448Y0292039D02*
Y0291639D01*
X0391248D01*
Y0292039D01*
X0391648D01*
Y0292839D01*
X0391248D01*
Y0293239D01*
X0390448D01*
Y0292839D01*
X0390048D01*
Y0292039D01*
X0390448D01*
X0369582D02*
Y0291639D01*
X0370382D01*
Y0292039D01*
X0370782D01*
Y0292839D01*
X0370382D01*
Y0293239D01*
X0369582D01*
Y0292839D01*
X0369182D01*
Y0292039D01*
X0369582D01*
X0384346Y0298141D02*
Y0297741D01*
X0385146D01*
Y0298141D01*
X0385546D01*
Y0298941D01*
X0385146D01*
Y0299341D01*
X0384346D01*
Y0298941D01*
X0383946D01*
Y0298141D01*
X0384346D01*
X0390448Y0283378D02*
Y0282978D01*
X0391248D01*
Y0283378D01*
X0391648D01*
Y0284178D01*
X0391248D01*
Y0284578D01*
X0390448D01*
Y0284178D01*
X0390048D01*
Y0283378D01*
X0390448D01*
X0375685Y0277275D02*
Y0276875D01*
X0376485D01*
Y0277275D01*
X0376885D01*
Y0278075D01*
X0376485D01*
Y0278475D01*
X0375685D01*
Y0278075D01*
X0375285D01*
Y0277275D01*
X0375685D01*
X0231181Y0391441D02*
Y0391041D01*
X0231981D01*
Y0391441D01*
X0232381D01*
Y0392241D01*
X0231981D01*
Y0392641D01*
X0231181D01*
Y0392241D01*
X0230781D01*
Y0391441D01*
X0231181D01*
X0216417Y0397543D02*
Y0397143D01*
X0217217D01*
Y0397543D01*
X0217617D01*
Y0398343D01*
X0217217D01*
Y0398743D01*
X0216417D01*
Y0398343D01*
X0216017D01*
Y0397543D01*
X0216417D01*
X0222519Y0412307D02*
Y0411907D01*
X0223319D01*
Y0412307D01*
X0223719D01*
Y0413107D01*
X0223319D01*
Y0413507D01*
X0222519D01*
Y0413107D01*
X0222119D01*
Y0412307D01*
X0222519D01*
X0237283Y0406204D02*
Y0405804D01*
X0238083D01*
Y0406204D01*
X0238483D01*
Y0407004D01*
X0238083D01*
Y0407404D01*
X0237283D01*
Y0407004D01*
X0236883D01*
Y0406204D01*
X0237283D01*
X0216417D02*
Y0405804D01*
X0217217D01*
Y0406204D01*
X0217617D01*
Y0407004D01*
X0217217D01*
Y0407404D01*
X0216417D01*
Y0407004D01*
X0216017D01*
Y0406204D01*
X0216417D01*
X0231181Y0412307D02*
Y0411907D01*
X0231981D01*
Y0412307D01*
X0232381D01*
Y0413107D01*
X0231981D01*
Y0413507D01*
X0231181D01*
Y0413107D01*
X0230781D01*
Y0412307D01*
X0231181D01*
X0237283Y0397543D02*
Y0397143D01*
X0238083D01*
Y0397543D01*
X0238483D01*
Y0398343D01*
X0238083D01*
Y0398743D01*
X0237283D01*
Y0398343D01*
X0236883D01*
Y0397543D01*
X0237283D01*
X0222519Y0391441D02*
Y0391041D01*
X0223319D01*
Y0391441D01*
X0223719D01*
Y0392241D01*
X0223319D01*
Y0392641D01*
X0222519D01*
Y0392241D01*
X0222119D01*
Y0391441D01*
X0222519D01*
X0375685D02*
Y0391041D01*
X0376485D01*
Y0391441D01*
X0376885D01*
Y0392241D01*
X0376485D01*
Y0392641D01*
X0375685D01*
Y0392241D01*
X0375285D01*
Y0391441D01*
X0375685D01*
X0390448Y0397543D02*
Y0397143D01*
X0391248D01*
Y0397543D01*
X0391648D01*
Y0398343D01*
X0391248D01*
Y0398743D01*
X0390448D01*
Y0398343D01*
X0390048D01*
Y0397543D01*
X0390448D01*
X0384346Y0412307D02*
Y0411907D01*
X0385146D01*
Y0412307D01*
X0385546D01*
Y0413107D01*
X0385146D01*
Y0413507D01*
X0384346D01*
Y0413107D01*
X0383946D01*
Y0412307D01*
X0384346D01*
X0369582Y0406204D02*
Y0405804D01*
X0370382D01*
Y0406204D01*
X0370782D01*
Y0407004D01*
X0370382D01*
Y0407404D01*
X0369582D01*
Y0407004D01*
X0369182D01*
Y0406204D01*
X0369582D01*
X0390448D02*
Y0405804D01*
X0391248D01*
Y0406204D01*
X0391648D01*
Y0407004D01*
X0391248D01*
Y0407404D01*
X0390448D01*
Y0407004D01*
X0390048D01*
Y0406204D01*
X0390448D01*
X0375685Y0412307D02*
Y0411907D01*
X0376485D01*
Y0412307D01*
X0376885D01*
Y0413107D01*
X0376485D01*
Y0413507D01*
X0375685D01*
Y0413107D01*
X0375285D01*
Y0412307D01*
X0375685D01*
X0369582Y0397543D02*
Y0397143D01*
X0370382D01*
Y0397543D01*
X0370782D01*
Y0398343D01*
X0370382D01*
Y0398743D01*
X0369582D01*
Y0398343D01*
X0369182D01*
Y0397543D01*
X0369582D01*
X0384346Y0391441D02*
Y0391041D01*
X0385146D01*
Y0391441D01*
X0385546D01*
Y0392241D01*
X0385146D01*
Y0392641D01*
X0384346D01*
Y0392241D01*
X0383946D01*
Y0391441D01*
X0384346D01*
D82*
X02241Y03265D02*
G03*
X02241Y03265I-00008J0D01*
G01*
Y03165D02*
G03*
X02241Y03165I-00008J0D01*
G01*
X03883Y03645D02*
G03*
X03883Y03645I-00008J0D01*
G01*
Y03745D02*
G03*
X03883Y03745I-00008J0D01*
G01*
X03453Y02811D02*
G03*
X03453Y02811I-00008J0D01*
G01*
X03353D02*
G03*
X03353Y02811I-00008J0D01*
G01*
M02*
