G04*
G04 #@! TF.GenerationSoftware,Altium Limited,Altium Designer,21.3.2 (30)*
G04*
G04 Layer_Physical_Order=1*
G04 Layer_Color=255*
%FSTAX25Y25*%
%MOIN*%
G70*
G04*
G04 #@! TF.SameCoordinates,2120B266-B5FC-475A-9EAD-F7F6DF0CB4C0*
G04*
G04*
G04 #@! TF.FilePolarity,Positive*
G04*
G01*
G75*
%ADD13C,0.01000*%
%ADD15C,0.00800*%
%ADD19R,0.11811X0.12992*%
%ADD20C,0.05906*%
%ADD21R,0.12992X0.06496*%
%ADD22R,0.03740X0.06496*%
%ADD23R,0.03150X0.03150*%
%ADD24R,0.02165X0.03543*%
%ADD25R,0.06000X0.14000*%
%ADD26R,0.06102X0.09252*%
%ADD27R,0.03543X0.02165*%
%ADD28R,0.09252X0.06102*%
%ADD29R,0.03150X0.03150*%
G04:AMPARAMS|DCode=30|XSize=77.56mil|YSize=23.62mil|CornerRadius=2.95mil|HoleSize=0mil|Usage=FLASHONLY|Rotation=0.000|XOffset=0mil|YOffset=0mil|HoleType=Round|Shape=RoundedRectangle|*
%AMROUNDEDRECTD30*
21,1,0.07756,0.01772,0,0,0.0*
21,1,0.07165,0.02362,0,0,0.0*
1,1,0.00591,0.03583,-0.00886*
1,1,0.00591,-0.03583,-0.00886*
1,1,0.00591,-0.03583,0.00886*
1,1,0.00591,0.03583,0.00886*
%
%ADD30ROUNDEDRECTD30*%
%ADD31R,0.03543X0.05118*%
%ADD32R,0.05118X0.04331*%
G04:AMPARAMS|DCode=33|XSize=46.85mil|YSize=15.75mil|CornerRadius=1.97mil|HoleSize=0mil|Usage=FLASHONLY|Rotation=90.000|XOffset=0mil|YOffset=0mil|HoleType=Round|Shape=RoundedRectangle|*
%AMROUNDEDRECTD33*
21,1,0.04685,0.01181,0,0,90.0*
21,1,0.04291,0.01575,0,0,90.0*
1,1,0.00394,0.00591,0.02146*
1,1,0.00394,0.00591,-0.02146*
1,1,0.00394,-0.00591,-0.02146*
1,1,0.00394,-0.00591,0.02146*
%
%ADD33ROUNDEDRECTD33*%
%ADD34R,0.05512X0.01772*%
%ADD62C,0.01500*%
%ADD63C,0.03000*%
G04:AMPARAMS|DCode=64|XSize=82.68mil|YSize=82.68mil|CornerRadius=20.67mil|HoleSize=0mil|Usage=FLASHONLY|Rotation=180.000|XOffset=0mil|YOffset=0mil|HoleType=Round|Shape=RoundedRectangle|*
%AMROUNDEDRECTD64*
21,1,0.08268,0.04134,0,0,180.0*
21,1,0.04134,0.08268,0,0,180.0*
1,1,0.04134,-0.02067,0.02067*
1,1,0.04134,0.02067,0.02067*
1,1,0.04134,0.02067,-0.02067*
1,1,0.04134,-0.02067,-0.02067*
%
%ADD64ROUNDEDRECTD64*%
%ADD65C,0.08268*%
G04:AMPARAMS|DCode=66|XSize=70.87mil|YSize=62.99mil|CornerRadius=15.75mil|HoleSize=0mil|Usage=FLASHONLY|Rotation=0.000|XOffset=0mil|YOffset=0mil|HoleType=Round|Shape=RoundedRectangle|*
%AMROUNDEDRECTD66*
21,1,0.07087,0.03150,0,0,0.0*
21,1,0.03937,0.06299,0,0,0.0*
1,1,0.03150,0.01968,-0.01575*
1,1,0.03150,-0.01968,-0.01575*
1,1,0.03150,-0.01968,0.01575*
1,1,0.03150,0.01968,0.01575*
%
%ADD66ROUNDEDRECTD66*%
%ADD67O,0.07087X0.06299*%
%ADD68C,0.15748*%
%ADD69C,0.06299*%
%ADD70R,0.06299X0.06299*%
%ADD71O,0.06299X0.07087*%
G04:AMPARAMS|DCode=72|XSize=70.87mil|YSize=62.99mil|CornerRadius=15.75mil|HoleSize=0mil|Usage=FLASHONLY|Rotation=90.000|XOffset=0mil|YOffset=0mil|HoleType=Round|Shape=RoundedRectangle|*
%AMROUNDEDRECTD72*
21,1,0.07087,0.03150,0,0,90.0*
21,1,0.03937,0.06299,0,0,90.0*
1,1,0.03150,0.01575,0.01968*
1,1,0.03150,0.01575,-0.01968*
1,1,0.03150,-0.01575,-0.01968*
1,1,0.03150,-0.01575,0.01968*
%
%ADD72ROUNDEDRECTD72*%
%ADD73C,0.03150*%
%ADD74C,0.02598*%
G36*
X0229022Y0416152D02*
X0229612Y0416053D01*
X0230104Y0415955D01*
X023099Y0415758D01*
X0231876Y0415463D01*
X0232663Y0415167D01*
X0233549Y0414774D01*
X0234435Y0414282D01*
X0235222Y0413789D01*
X023601Y0413199D01*
X0236797Y041251D01*
X0233155Y0408868D01*
X0232663Y0409262D01*
X0232171Y0409656D01*
X0231679Y0409951D01*
X0231089Y0410246D01*
X02304Y0410541D01*
X0229514Y0410837D01*
X022853Y0411033D01*
X0227644Y0411132D01*
Y041625D01*
X0229022Y0416152D01*
D02*
G37*
G36*
X0226856Y0411132D02*
X0225971Y0411033D01*
X0224986Y0410837D01*
X02241Y0410541D01*
X0223411Y0410246D01*
X0222821Y0409951D01*
X0222329Y0409656D01*
X0221837Y0409262D01*
X0221344Y0408868D01*
X0217703Y041251D01*
X021849Y0413199D01*
X0219278Y0413789D01*
X0220065Y0414282D01*
X0220951Y0414774D01*
X0221837Y0415167D01*
X0222624Y0415463D01*
X022351Y0415758D01*
X0224396Y0415955D01*
X0224888Y0416053D01*
X0225478Y0416152D01*
X0226856Y041625D01*
Y0411132D01*
D02*
G37*
G36*
X0238175Y0411033D02*
X0238766Y0410246D01*
X0239258Y0409459D01*
X023975Y0408573D01*
X0240144Y0407687D01*
X0240439Y04069D01*
X0240734Y0406014D01*
X0240931Y0405128D01*
X024103Y0404636D01*
X0241128Y0404045D01*
X0241226Y0402667D01*
X0236108D01*
X023601Y0403553D01*
X0235813Y0404537D01*
X0235518Y0405423D01*
X0235222Y0406112D01*
X0234927Y0406703D01*
X0234632Y0407195D01*
X0234238Y0407687D01*
X0233844Y0408179D01*
X0237486Y0411821D01*
X0238175Y0411033D01*
D02*
G37*
G36*
X0220655Y0408179D02*
X0220262Y0407687D01*
X0219868Y0407195D01*
X0219573Y0406703D01*
X0219278Y0406112D01*
X0218982Y0405423D01*
X0218687Y0404537D01*
X021849Y0403553D01*
X0218392Y0402667D01*
X0213274D01*
X0213372Y0404045D01*
X0213471Y0404636D01*
X0213569Y0405128D01*
X0213766Y0406014D01*
X0214061Y04069D01*
X0214356Y0407687D01*
X021475Y0408573D01*
X0215242Y0409459D01*
X0215734Y0410246D01*
X0216325Y0411033D01*
X0217014Y0411821D01*
X0220655Y0408179D01*
D02*
G37*
G36*
X0241128Y0400502D02*
X024103Y0399911D01*
X0240931Y0399419D01*
X0240734Y0398534D01*
X0240439Y0397648D01*
X0240144Y039686D01*
X023975Y0395974D01*
X0239258Y0395089D01*
X0238766Y0394301D01*
X0238175Y0393514D01*
X0237486Y0392726D01*
X0233844Y0396368D01*
X0234238Y039686D01*
X0234632Y0397352D01*
X0234927Y0397845D01*
X0235222Y0398435D01*
X0235518Y0399124D01*
X0235813Y040001D01*
X023601Y0400994D01*
X0236108Y040188D01*
X0241226D01*
X0241128Y0400502D01*
D02*
G37*
G36*
X021849Y0400994D02*
X0218687Y040001D01*
X0218982Y0399124D01*
X0219278Y0398435D01*
X0219573Y0397845D01*
X0219868Y0397352D01*
X0220262Y039686D01*
X0220655Y0396368D01*
X0217014Y0392726D01*
X0216325Y0393514D01*
X0215734Y0394301D01*
X0215242Y0395089D01*
X021475Y0395974D01*
X0214356Y039686D01*
X0214061Y0397648D01*
X0213766Y0398534D01*
X0213569Y0399419D01*
X0213471Y0399911D01*
X0213372Y0400502D01*
X0213274Y040188D01*
X0218392D01*
X021849Y0400994D01*
D02*
G37*
G36*
X0236797Y0392037D02*
X023601Y0391348D01*
X0235222Y0390758D01*
X0234435Y0390266D01*
X0233549Y0389774D01*
X0232663Y038938D01*
X0231876Y0389085D01*
X023099Y0388789D01*
X0230104Y0388593D01*
X0229612Y0388494D01*
X0229022Y0388396D01*
X0227644Y0388297D01*
Y0393415D01*
X022853Y0393514D01*
X0229514Y0393711D01*
X02304Y0394006D01*
X0231089Y0394301D01*
X0231679Y0394597D01*
X0232171Y0394892D01*
X0232663Y0395285D01*
X0233155Y0395679D01*
X0236797Y0392037D01*
D02*
G37*
G36*
X0221837Y0395285D02*
X0222329Y0394892D01*
X0222821Y0394597D01*
X0223411Y0394301D01*
X02241Y0394006D01*
X0224986Y0393711D01*
X0225971Y0393514D01*
X0226856Y0393415D01*
Y0388297D01*
X0225478Y0388396D01*
X0224888Y0388494D01*
X0224396Y0388593D01*
X022351Y0388789D01*
X0222624Y0389085D01*
X0221837Y038938D01*
X0220951Y0389774D01*
X0220065Y0390266D01*
X0219278Y0390758D01*
X021849Y0391348D01*
X0217703Y0392037D01*
X0221344Y0395679D01*
X0221837Y0395285D01*
D02*
G37*
G36*
X0328688Y0418296D02*
X0329179Y0418093D01*
X0329621Y0417797D01*
X0329997Y0417421D01*
X0330293Y0416979D01*
X0330496Y0416488D01*
X03306Y0415966D01*
Y04157D01*
Y03826D01*
Y0382344D01*
X03305Y0381842D01*
X0330304Y0381368D01*
X0330019Y0380943D01*
X0329657Y038058D01*
X0329232Y0380296D01*
X0328758Y03801D01*
X0328256Y038D01*
X0312495D01*
X0311896Y0380119D01*
X0311332Y0380353D01*
X0310824Y0380692D01*
X0310392Y0381124D01*
X0310053Y0381632D01*
X0309819Y0382196D01*
X03097Y0382795D01*
Y03831D01*
Y04157D01*
Y0415966D01*
X0309804Y0416488D01*
X0310007Y0416979D01*
X0310303Y0417421D01*
X0310679Y0417797D01*
X0311121Y0418093D01*
X0311612Y0418296D01*
X0312134Y04184D01*
X0328166D01*
X0328688Y0418296D01*
D02*
G37*
G36*
X03352Y04188D02*
X03513Y04188D01*
X03513Y04188D01*
Y04188D01*
X03513D01*
X0351765Y041877D01*
X0352233Y0418677D01*
X0352816Y0418436D01*
X035334Y0418086D01*
X0353786Y041764D01*
X0354136Y0417116D01*
X0354377Y0416533D01*
X03545Y0415915D01*
X03545Y04156D01*
X03545Y03842D01*
X03545Y03842D01*
X03545Y0383786D01*
X0354339Y0382975D01*
X0354022Y038221D01*
X0353562Y0381523D01*
X0352977Y0380938D01*
X0352289Y0380478D01*
X0351525Y0380161D01*
X0350714Y038D01*
X03503Y038D01*
X03356D01*
X0335226Y038D01*
X0334491Y0380146D01*
X03338Y0380433D01*
X0333178Y0380848D01*
X0332648Y0381378D01*
X0332232Y0382D01*
X0331946Y0382692D01*
X03318Y0383426D01*
X03318Y03838D01*
Y04154D01*
X03318Y04154D01*
X03318Y04154D01*
X0331825Y0415863D01*
X0331931Y0416392D01*
X0332187Y041701D01*
X0332559Y0417567D01*
X0333032Y0418041D01*
X0333589Y0418413D01*
X0334208Y0418669D01*
X0334865Y04188D01*
X03352Y04188D01*
D02*
G37*
G36*
X0294004Y0418281D02*
X0294568Y0418047D01*
X0295076Y0417708D01*
X0295508Y0417276D01*
X0295847Y0416768D01*
X0296081Y0416204D01*
X02962Y0415605D01*
Y04153D01*
Y03824D01*
Y0382095D01*
X0296081Y0381496D01*
X0295847Y0380932D01*
X0295508Y0380424D01*
X0295076Y0379992D01*
X0294568Y0379653D01*
X0294004Y0379419D01*
X0293405Y03793D01*
X0282445D01*
X028175Y0379438D01*
X0281095Y037971D01*
X0280505Y0380104D01*
X0280004Y0380605D01*
X027961Y0381195D01*
X0279338Y038185D01*
X02792Y0382545D01*
Y03829D01*
Y03829D01*
Y04153D01*
Y0415605D01*
X0279319Y0416204D01*
X0279553Y0416768D01*
X0279892Y0417276D01*
X0280324Y0417708D01*
X0280832Y0418047D01*
X0281396Y0418281D01*
X0281995Y04184D01*
X0293405D01*
X0294004Y0418281D01*
D02*
G37*
G36*
X0383937Y0418765D02*
X0386383Y0418177D01*
X0388708Y0417214D01*
X0390853Y04159D01*
X0392766Y0414266D01*
X03944Y0412353D01*
X0395714Y0410208D01*
X0396677Y0407883D01*
X0397265Y0405437D01*
X0397456Y0403D01*
X0397442Y0402929D01*
Y0335279D01*
X0396942Y0335127D01*
X0396856Y0335256D01*
X0396856Y0335256D01*
X0395832Y033628D01*
X0395439Y0336543D01*
X0395137Y0336603D01*
Y0336718D01*
X0394869Y033772D01*
X039435Y0338617D01*
X0393617Y033935D01*
X039272Y0339869D01*
X0391718Y0340137D01*
X0390682D01*
X038968Y0339869D01*
X0388783Y033935D01*
X038805Y0338617D01*
X0387531Y033772D01*
X0387263Y0336718D01*
Y0335682D01*
X0387531Y033468D01*
X038805Y0333783D01*
X0388783Y033305D01*
X038968Y0332531D01*
X0390682Y0332263D01*
X0391718D01*
X039272Y0332531D01*
X0393617Y033305D01*
X0394289Y0333722D01*
X0394542Y0333678D01*
X0394789Y0333543D01*
Y0328765D01*
X0394289Y0328678D01*
X0393617Y032935D01*
X039272Y0329869D01*
X0391718Y0330137D01*
X0390682D01*
X038968Y0329869D01*
X0388783Y032935D01*
X038805Y0328617D01*
X0387531Y032772D01*
X0387263Y0326718D01*
Y0325682D01*
X0387531Y032468D01*
X0387691Y0324403D01*
X0385999Y0322711D01*
X0375902D01*
X0375522Y032309D01*
X0375806Y0323514D01*
X037623Y0323338D01*
X037717D01*
X0378038Y0323697D01*
X0378703Y0324362D01*
X0379062Y032523D01*
Y032617D01*
X0378703Y0327038D01*
X0378038Y0327703D01*
X0378013Y0327713D01*
Y0330993D01*
X0378513Y0331235D01*
X037923Y0330938D01*
X038017D01*
X0381038Y0331297D01*
X0381703Y0331962D01*
X0382062Y033283D01*
Y033377D01*
X0381703Y0334638D01*
X0381038Y0335303D01*
X038017Y0335662D01*
X037923D01*
X0378513Y0335365D01*
X0378013Y0335607D01*
Y0336156D01*
X0381728Y0339872D01*
X0382013Y0340298D01*
X0382113Y03408D01*
Y0355487D01*
X0382138Y0355497D01*
X0382803Y0356162D01*
X0383162Y035703D01*
Y035797D01*
X0382803Y0358838D01*
X0382138Y0359503D01*
X038127Y0359862D01*
X038033D01*
X0379462Y0359503D01*
X0378797Y0358838D01*
X0378438Y035797D01*
Y035703D01*
X0378797Y0356162D01*
X0379462Y0355497D01*
X0379487Y0355487D01*
Y0341344D01*
X0375772Y0337628D01*
X0375487Y0337202D01*
X0375387Y03367D01*
Y0328107D01*
X0375311Y0328056D01*
X0374811Y0328323D01*
Y03354D01*
X0374718Y0335863D01*
X0374456Y0336256D01*
X0374456Y0336256D01*
X0372633Y0338079D01*
X037224Y0338342D01*
X0371777Y0338434D01*
X0371777Y0338434D01*
X0367723D01*
X036726Y0338342D01*
X0366867Y0338079D01*
X0366867Y0338079D01*
X036483Y0336042D01*
X0364288Y0336207D01*
X0364264Y033633D01*
X0364046Y0336655D01*
X0363721Y0336873D01*
X0363337Y0336949D01*
X0362156D01*
X0361771Y0336873D01*
X0361651Y0336792D01*
X036164Y0336809D01*
X0361245Y0337073D01*
X0360778Y0337166D01*
X0360687D01*
Y03338D01*
X0359687D01*
Y0337166D01*
X0359596D01*
X035913Y0337073D01*
X0358734Y0336809D01*
X0358723Y0336792D01*
X0358602Y0336873D01*
X0358219Y0336949D01*
X0357037D01*
X0356653Y0336873D01*
X0356328Y0336655D01*
X035611Y033633D01*
X0356034Y0335946D01*
Y0335374D01*
X0355534Y0335278D01*
X0355011Y0335802D01*
Y0338145D01*
X0355138Y0338197D01*
X0355641Y03387D01*
X03557Y0338716D01*
X0356184Y0338668D01*
X0356236Y0338642D01*
X0356328Y0338504D01*
X0356653Y0338286D01*
X0357037Y033821D01*
X0358219D01*
X0358602Y0338286D01*
X0358928Y0338504D01*
X0359146Y0338829D01*
X0359222Y0339213D01*
Y0343505D01*
X0359195Y0343638D01*
Y0346285D01*
X035999D01*
Y034708D01*
X036231D01*
Y0346285D01*
X0367034D01*
Y0347206D01*
X0368653D01*
X0368962Y0346897D01*
X036983Y0346538D01*
X037077D01*
X0371638Y0346897D01*
X0372303Y0347562D01*
X0372489Y0348013D01*
X0372989Y0347913D01*
Y0346002D01*
X0369558Y034257D01*
X036434D01*
Y0343505D01*
X0364264Y0343889D01*
X0364046Y0344214D01*
X0363721Y0344432D01*
X0363337Y0344508D01*
X0362156D01*
X0361771Y0344432D01*
X0361446Y0344214D01*
X0361228Y0343889D01*
X0361152Y0343505D01*
Y0339213D01*
X0361228Y0338829D01*
X0361446Y0338504D01*
X0361771Y0338286D01*
X0362156Y033821D01*
X0363337D01*
X0363721Y0338286D01*
X0364046Y0338504D01*
X0364264Y0338829D01*
X036434Y0339213D01*
Y0340148D01*
X0370059D01*
X0370059Y0340148D01*
X0370522Y0340241D01*
X0370915Y0340503D01*
X0375056Y0344644D01*
X0375056Y0344644D01*
X0375319Y0345037D01*
X0375411Y03455D01*
Y03698D01*
X0375411Y03698D01*
X0375319Y0370263D01*
X0375056Y0370656D01*
X0375056Y0370656D01*
X0370756Y0374956D01*
X0370673Y0375607D01*
X0370731Y0375689D01*
X0382831D01*
X0383226Y0375189D01*
X0383135Y03745D01*
X0383271Y0373472D01*
X0383667Y0372515D01*
X0384298Y0371692D01*
X0385121Y0371061D01*
X0386079Y0370664D01*
X0387106Y0370529D01*
X0387894D01*
X0388921Y0370664D01*
X0389879Y0371061D01*
X0390702Y0371692D01*
X0391333Y0372515D01*
X0391729Y0373472D01*
X0391865Y03745D01*
X0391729Y0375528D01*
X0391333Y0376485D01*
X0390702Y0377308D01*
X0389879Y0377939D01*
X0388921Y0378336D01*
X0387894Y0378471D01*
X0387106D01*
X0386079Y0378336D01*
X0385121Y0377939D01*
X0384878Y0377752D01*
X0384874Y0377756D01*
X0384822Y0377791D01*
X0384816Y0377799D01*
X0384785Y0377815D01*
X0384481Y0378018D01*
X0384018Y0378111D01*
X0384018Y0378111D01*
X0349769D01*
X0349305Y0378018D01*
X0348913Y0377756D01*
X0348913Y0377756D01*
X0348444Y0377287D01*
X0348182Y0376895D01*
X0348089Y0376431D01*
X0348089Y0376431D01*
Y0375915D01*
X0346938D01*
Y0371191D01*
X0351662D01*
Y0372689D01*
X0355041D01*
Y0372084D01*
X0360159D01*
Y0372689D01*
X0362141D01*
Y0372239D01*
X0367259D01*
Y0372889D01*
X0369398D01*
X0372989Y0369299D01*
Y0349887D01*
X0372489Y0349787D01*
X0372303Y0350238D01*
X0371638Y0350903D01*
X037077Y0351262D01*
X036983D01*
X0368962Y0350903D01*
X0368401Y0350341D01*
X0367034D01*
Y0351009D01*
X036231D01*
Y0350215D01*
X035999D01*
Y0351009D01*
X0355266D01*
Y0350215D01*
X0351762D01*
Y0351009D01*
X0347038D01*
Y0346285D01*
X0347832D01*
Y0345762D01*
X0347038D01*
Y0345018D01*
X0345287D01*
X0345188Y0345166D01*
X034483Y0345406D01*
X0344407Y034549D01*
X0337242D01*
X0336819Y0345406D01*
X0336461Y0345166D01*
X0336222Y0344808D01*
X0336138Y0344386D01*
Y0342614D01*
X0336222Y0342192D01*
X0336461Y0341834D01*
X0336819Y0341594D01*
X0337242Y034151D01*
X0339257D01*
Y034049D01*
X0337242D01*
X0336819Y0340406D01*
X0336461Y0340166D01*
X0336222Y0339808D01*
X0336138Y0339386D01*
Y0337614D01*
X0336222Y0337192D01*
X0336461Y0336834D01*
X0336819Y0336594D01*
X0337242Y033651D01*
X0344407D01*
X034483Y0336594D01*
X0345188Y0336834D01*
X0345427Y0337192D01*
X0345511Y0337614D01*
Y0339386D01*
X0345427Y0339808D01*
X0345188Y0340166D01*
X034483Y0340406D01*
X0344407Y034049D01*
X0342392D01*
Y034151D01*
X0344407D01*
X034483Y0341594D01*
X0345188Y0341834D01*
X034522Y0341882D01*
X0347038D01*
Y0341038D01*
X0351192D01*
X0351438Y034067D01*
Y0340069D01*
X03499D01*
Y0337494D01*
Y0335944D01*
X03506D01*
X0350505Y0335934D01*
X035042Y0335903D01*
X0350345Y0335853D01*
X035028Y0335782D01*
X0350225Y0335691D01*
X035018Y0335579D01*
X0350145Y0335448D01*
X035012Y0335296D01*
X0350105Y0335124D01*
X03501Y0334936D01*
X0350101Y033492D01*
X0351975D01*
Y0337554D01*
X0352475Y0337821D01*
X0352589Y0337745D01*
Y03353D01*
X0352589Y03353D01*
X0352681Y0334837D01*
X0352944Y0334444D01*
X0354244Y0333144D01*
X0354244Y0333144D01*
X0354637Y0332881D01*
X03551Y0332789D01*
X03551Y0332789D01*
X0356034D01*
Y0331654D01*
X035611Y033127D01*
X0356328Y0330945D01*
X0356653Y0330727D01*
X0357037Y0330651D01*
X0358219D01*
X0358602Y0330727D01*
X0358723Y0330808D01*
X0358734Y0330791D01*
X035913Y0330527D01*
X0359596Y0330434D01*
X0359766D01*
X0359991Y0329934D01*
X0359805Y0329698D01*
X0355961D01*
X0355961Y0329698D01*
X0355498Y0329606D01*
X0355105Y0329344D01*
X0355105Y0329343D01*
X0352544Y0326782D01*
X0352281Y0326389D01*
X0352262Y0326292D01*
X0351762Y0326342D01*
Y0328468D01*
X0351088D01*
X0350611Y03285D01*
X0350518Y0328963D01*
X0350256Y0329356D01*
X0350256Y0329356D01*
X0349456Y0330156D01*
X0349063Y0330418D01*
X03486Y0330511D01*
X03486Y0330511D01*
X0342501D01*
X0342035Y0330977D01*
Y033151D01*
X0344407D01*
X034483Y0331594D01*
X0345188Y0331834D01*
X0345427Y0332192D01*
X0345511Y0332614D01*
Y0334386D01*
X0345427Y0334808D01*
X0345188Y0335166D01*
X034483Y0335406D01*
X0344407Y033549D01*
X0337242D01*
X0336819Y0335406D01*
X0336461Y0335166D01*
X0336222Y0334808D01*
X0336138Y0334386D01*
Y0332614D01*
X0336222Y0332192D01*
X0336461Y0331834D01*
X0336819Y0331594D01*
X0337242Y033151D01*
X0339614D01*
Y0330476D01*
X0339614Y0330476D01*
X0339706Y0330012D01*
X0339968Y032962D01*
X0341144Y0328444D01*
X0341144Y0328444D01*
X0341222Y0328392D01*
X0341071Y0327892D01*
X0339997D01*
Y0327232D01*
X0339169D01*
X0338705Y032714D01*
X0338313Y0326878D01*
X0338313Y0326877D01*
X0338059Y0326624D01*
X0337559Y0326831D01*
Y032787D01*
X0332441D01*
Y0327211D01*
X0329462D01*
Y0328315D01*
X0324738D01*
Y0327232D01*
X0322615D01*
Y0327891D01*
X0317497D01*
Y0324151D01*
X0322269D01*
Y0322183D01*
X0317497D01*
Y0321311D01*
X0315115D01*
Y0322183D01*
X0310808D01*
X031079Y0322186D01*
X0310774Y0322183D01*
X0309997D01*
X0309997Y0322183D01*
Y0322183D01*
X0309559Y0322353D01*
X030818Y0323732D01*
X0307787Y0323994D01*
X0307324Y0324086D01*
X0307324Y0324086D01*
X0301376D01*
X0300913Y0323994D01*
X030052Y0323732D01*
X030052Y0323732D01*
X0298885Y0322097D01*
X0298423Y0322289D01*
Y0327987D01*
X0298423Y0327987D01*
X0298331Y0328451D01*
X0298069Y0328843D01*
X0295756Y0331156D01*
X0295363Y0331418D01*
X02949Y0331511D01*
X02949Y0331511D01*
X0291624D01*
Y0335987D01*
X028859D01*
X0288437Y0336476D01*
X0288437Y0336487D01*
X0288715Y0336766D01*
X028889Y0337026D01*
X0289042Y0337394D01*
X0289103Y0337701D01*
Y0345578D01*
X0289042Y0345885D01*
X0288753Y0346584D01*
X0288578Y0346844D01*
X0288044Y0347378D01*
X0287784Y0347552D01*
X0287085Y0347842D01*
X0286778Y0347903D01*
X028642D01*
X0286165Y0347915D01*
X0285647Y0348018D01*
X0285177Y0348213D01*
X0284755Y0348495D01*
X0284395Y0348855D01*
X0284113Y0349277D01*
X0283918Y0349747D01*
X0283815Y0350265D01*
X0283803Y035052D01*
X0283803Y037D01*
X0283803Y0370398D01*
X0283742Y0370705D01*
X0283437Y037144D01*
X0283263Y0371701D01*
X0282701Y0372263D01*
X028244Y0372437D01*
X0281771Y0372714D01*
X028164Y0372741D01*
X028151Y0372774D01*
X0281047Y0372801D01*
X0281023Y0372798D01*
X0281Y0372803D01*
X0280536Y0372803D01*
X0280536Y0372803D01*
X0280536Y0372803D01*
X0278022D01*
X0277715Y0372742D01*
X0277016Y0372452D01*
X0276756Y0372278D01*
X0276222Y0371744D01*
X0276047Y0371483D01*
X0275758Y0370785D01*
X0275697Y0370478D01*
Y03701D01*
X0275697Y0349439D01*
X0275667Y0349129D01*
X0275415Y0348521D01*
X0274979Y0348085D01*
X0274371Y0347833D01*
X0274021Y0347799D01*
X0274016Y0347797D01*
X027401Y0347798D01*
X0273547Y0347746D01*
X027344Y0347712D01*
X0273329Y034769D01*
X027283Y0347483D01*
X0272569Y0347309D01*
X0272569Y0347309D01*
X0272091Y0346831D01*
X0271917Y034657D01*
X0271658Y0345945D01*
X0271597Y0345638D01*
X0271597Y0335975D01*
X0269595D01*
Y0335279D01*
X0269625Y0335204D01*
X026968Y0335113D01*
X0269745Y0335042D01*
X026982Y0334991D01*
X0269905Y0334961D01*
X027Y0334951D01*
X0269595D01*
Y03334D01*
Y0331837D01*
X0270094D01*
X027Y0331827D01*
X0269915Y0331797D01*
X026984Y0331747D01*
X0269775Y0331677D01*
X026972Y0331587D01*
X0269674Y0331477D01*
X0269639Y0331347D01*
X0269615Y0331197D01*
X02696Y0331027D01*
X0269595Y0330837D01*
Y0330825D01*
X0271597D01*
X0271597Y0329875D01*
X0269595D01*
Y0329863D01*
X02696Y0329671D01*
X0269615Y0329499D01*
X0269639Y0329347D01*
X0269674Y0329215D01*
X026972Y0329104D01*
X0269775Y0329013D01*
X026984Y0328942D01*
X0269915Y0328891D01*
X027Y0328861D01*
X0270094Y0328851D01*
X0269595D01*
Y03273D01*
X0269094D01*
Y03268D01*
X026652D01*
Y0325303D01*
X02622Y0325303D01*
X0261902Y0325303D01*
X0261594Y0325242D01*
X0261594Y0325242D01*
X0261043Y0325013D01*
X0261043Y0325013D01*
X0260783Y0324839D01*
X0260361Y0324417D01*
X0260361Y0324417D01*
X0260252Y0324255D01*
X0260187Y0324157D01*
X0260025Y0323767D01*
X0260006Y0323669D01*
X0259972Y0323575D01*
X0259906Y0323115D01*
X0259909Y0323057D01*
X0259897Y0323D01*
Y0318806D01*
X0257559D01*
Y0319465D01*
X0252441D01*
Y0315725D01*
X0257559D01*
Y0316385D01*
X0259897D01*
X0259897Y0308613D01*
X0259888Y0308318D01*
X0259939Y0308009D01*
X0260156Y0307431D01*
X0260322Y0307165D01*
X0260744Y0306715D01*
X0260999Y0306533D01*
X0261561Y0306278D01*
X0261866Y0306207D01*
X0262174Y0306198D01*
X0262187Y03062D01*
X02622Y0306197D01*
X0274418Y0306197D01*
X0274726Y0306258D01*
X0275313Y0306502D01*
X0275574Y0306676D01*
X0276024Y0307126D01*
X0276198Y0307386D01*
X0276697Y0307285D01*
Y0300639D01*
X0276678Y0300446D01*
X0276516Y0300055D01*
X0276245Y0299784D01*
X0275854Y0299622D01*
X027566Y0299603D01*
X0275405D01*
X0275327Y0299587D01*
X0275248D01*
X0274668Y0299472D01*
X0274595Y0299442D01*
X0274518Y0299426D01*
X0273972Y02992D01*
X0273906Y0299156D01*
X0273833Y0299126D01*
X0273341Y0298798D01*
X0273286Y0298742D01*
X027322Y0298698D01*
X0272802Y029828D01*
X0272758Y0298214D01*
X0272702Y0298158D01*
X0272374Y0297667D01*
X0272344Y0297594D01*
X02723Y0297528D01*
X0272074Y0296982D01*
X0272058Y0296905D01*
X0272028Y0296832D01*
X027195Y0296441D01*
Y0296393D01*
X0271937Y0296346D01*
X02719Y0295862D01*
X0271903Y0295831D01*
X0271897Y02958D01*
Y0292713D01*
X0270844D01*
X0270513Y0293044D01*
Y02963D01*
Y02993D01*
X0270413Y0299802D01*
X0270128Y0300228D01*
X0266198Y0304158D01*
X0265773Y0304442D01*
X026527Y0304542D01*
X0257559D01*
Y03051D01*
X0252441D01*
Y030136D01*
X0257559D01*
Y0301917D01*
X0264727D01*
X0267887Y0298756D01*
Y0297681D01*
X026788Y0297638D01*
X0267875Y0297625D01*
X0267862Y029762D01*
X0267818Y0297613D01*
X0246944D01*
X0244954Y0299602D01*
X0245145Y0300064D01*
X02463D01*
Y0302139D01*
X0245249D01*
Y0301639D01*
X0245239Y0301734D01*
X0245209Y0301819D01*
X0245158Y0301894D01*
X0245087Y0301959D01*
X0244996Y0302014D01*
X0244885Y0302059D01*
X0244753Y0302094D01*
X0244601Y0302119D01*
X0244429Y0302134D01*
X0244238Y0302139D01*
X0244225D01*
Y0300984D01*
X0243763Y0300793D01*
X0238113Y0306444D01*
Y03359D01*
X0238013Y0336402D01*
X0237728Y0336828D01*
X0235628Y0338928D01*
X0235202Y0339213D01*
X02347Y0339313D01*
X0222244D01*
X0220513Y0341044D01*
Y0343761D01*
X0224915D01*
Y0351439D01*
X0214088D01*
Y0343761D01*
X0217887D01*
Y03405D01*
X0217987Y0339998D01*
X0218272Y0339572D01*
X0220772Y0337072D01*
X0221198Y0336787D01*
X02217Y0336687D01*
X0234156D01*
X0235487Y0335356D01*
Y03059D01*
X0235587Y0305398D01*
X0235872Y0304972D01*
X0245472Y0295372D01*
X0245898Y0295087D01*
X02464Y0294987D01*
X0247719D01*
X0247762Y029498D01*
X0247775Y0294975D01*
X024778Y0294962D01*
X0247787Y0294918D01*
Y029362D01*
X0247656Y0293585D01*
X0246803Y0293093D01*
X0246107Y0292396D01*
X0245615Y0291544D01*
X024536Y0290592D01*
Y0289608D01*
X0245615Y0288656D01*
X0246107Y0287804D01*
X0246803Y0287107D01*
X0247656Y0286615D01*
X0248608Y028636D01*
X0249592D01*
X0250544Y0286615D01*
X0251396Y0287107D01*
X0252093Y0287804D01*
X0252585Y0288656D01*
X025284Y0289608D01*
Y0290592D01*
X0252585Y0291544D01*
X0252093Y0292396D01*
X0251396Y0293093D01*
X0250544Y0293585D01*
X0250413Y029362D01*
Y0294918D01*
X025042Y0294962D01*
X0250425Y0294975D01*
X0250438Y029498D01*
X0250482Y0294987D01*
X0267818D01*
X0267862Y029498D01*
X0267875Y0294975D01*
X026788Y0294962D01*
X0267887Y0294918D01*
Y02925D01*
X0267987Y0291998D01*
X0268272Y0291572D01*
X0269372Y0290472D01*
X0269798Y0290187D01*
X02703Y0290087D01*
X0271897D01*
X0271897Y02843D01*
X0271897Y0283862D01*
X0271958Y0283555D01*
X0272293Y0282747D01*
X0272467Y0282486D01*
X0272467Y0282486D01*
X0273086Y0281867D01*
X0273086Y0281867D01*
X0273347Y0281693D01*
X0274155Y0281358D01*
X0274462Y0281297D01*
X02749Y0281297D01*
X02749Y0281297D01*
X0285Y0281297D01*
X0285438Y0281297D01*
X0285745Y0281358D01*
X0286553Y0281693D01*
X0286814Y0281867D01*
X0287433Y0282486D01*
X0287607Y0282747D01*
X0287942Y0283555D01*
X0288003Y0283862D01*
X0288003Y02843D01*
X0288003Y02843D01*
X0288003Y0296D01*
X0288003Y0296256D01*
X0287987Y0296334D01*
Y0296413D01*
X0287888Y0296915D01*
X0287857Y0296988D01*
X0287842Y0297066D01*
X0287646Y0297539D01*
X0287602Y0297604D01*
X0287572Y0297678D01*
X0287287Y0298103D01*
X0287231Y0298159D01*
X0287187Y0298225D01*
X0286825Y0298587D01*
X0286759Y0298631D01*
X0286703Y0298687D01*
X0286278Y0298972D01*
X0286205Y0299002D01*
X0286139Y0299046D01*
X0285666Y0299242D01*
X0285588Y0299257D01*
X0285515Y0299288D01*
X0285223Y0299346D01*
X0285179D01*
X0285138Y0299358D01*
X0284677Y0299399D01*
X0284309Y0299435D01*
X0283666Y0299702D01*
X0283202Y0300166D01*
X0282935Y0300809D01*
X0282903Y0301139D01*
Y0322339D01*
X0282842Y0322646D01*
X0282735Y0322904D01*
X0282561Y0323164D01*
X0282561Y0323164D01*
X0282364Y0323361D01*
X0282104Y0323535D01*
X0281846Y0323642D01*
X0281539Y0323703D01*
X0279974D01*
X0279767Y0324203D01*
X0280163Y0324599D01*
X0280337Y032486D01*
X0280337Y032486D01*
X0280642Y0325595D01*
X0280642Y0325595D01*
X0280703Y0325902D01*
Y0332115D01*
X0282176D01*
Y0330869D01*
X0285916D01*
Y0335987D01*
X028637Y0336097D01*
X028743D01*
X0287518Y0336076D01*
X0287884Y0335664D01*
Y0330869D01*
X0288469D01*
Y0329831D01*
X0287939D01*
Y0324713D01*
X0291679D01*
Y0329089D01*
X0294398D01*
X0296002Y0327486D01*
Y0288887D01*
X0296002Y0288887D01*
X0296094Y0288424D01*
X0296357Y0288031D01*
X0311744Y0272644D01*
X0312137Y0272381D01*
X03126Y0272289D01*
X03126Y0272289D01*
X03502D01*
X03502Y0272289D01*
X0350663Y0272381D01*
X0351056Y0272644D01*
X0354556Y0276144D01*
X0354556Y0276144D01*
X0354819Y0276537D01*
X0354911Y0277D01*
X0354911Y0277D01*
Y0281445D01*
X0355038Y0281497D01*
X0355703Y0282162D01*
X0356062Y028303D01*
Y028397D01*
X0355703Y0284838D01*
X0355038Y0285503D01*
X035417Y0285862D01*
X035323D01*
X0352362Y0285503D01*
X0351697Y0284838D01*
X0351338Y028397D01*
Y028303D01*
X0351697Y0282162D01*
X0352362Y0281497D01*
X0352489Y0281445D01*
Y0277502D01*
X0349698Y0274711D01*
X034203D01*
X0341823Y0275211D01*
X0343417Y0276805D01*
X0343456Y0276838D01*
X0343495Y0276868D01*
X03445Y0276735D01*
X0345528Y0276871D01*
X0346485Y0277267D01*
X0347308Y0277898D01*
X0347939Y0278721D01*
X0348336Y0279679D01*
X0348471Y0280706D01*
Y0281494D01*
X0348336Y0282522D01*
X0347939Y0283479D01*
X0347308Y0284302D01*
X0346485Y0284933D01*
X0345528Y0285329D01*
X03445Y0285465D01*
X0343472Y0285329D01*
X0342514Y0284933D01*
X0341692Y0284302D01*
X0341061Y0283479D01*
X0340664Y0282522D01*
X0340529Y0281494D01*
Y0280706D01*
X0340664Y0279679D01*
X0341061Y0278721D01*
X0341429Y0278241D01*
X0339999Y0276811D01*
X0338101D01*
X0337934Y0277238D01*
X0337923Y0277311D01*
X0338324Y0277833D01*
X0338583Y0278459D01*
X0338672Y0279132D01*
Y02806D01*
X03345D01*
X0331361D01*
Y02801D01*
X0331351Y0280195D01*
X033132Y028028D01*
X033127Y0280355D01*
X0331199Y028042D01*
X0331108Y0280475D01*
X0330997Y028052D01*
X0330865Y0280555D01*
X0330713Y028058D01*
X0330541Y0280595D01*
X0330349Y02806D01*
X0330328D01*
Y0279132D01*
X0330417Y0278459D01*
X0330676Y0277833D01*
X0331077Y0277311D01*
X0331066Y0277238D01*
X0330899Y0276811D01*
X0327602D01*
X0326209Y0278203D01*
X0325816Y0278466D01*
X0325353Y0278558D01*
X0325353Y0278558D01*
X032239D01*
Y027971D01*
X0317666D01*
Y0278211D01*
X0312802D01*
X0305696Y0285316D01*
X0305727Y0285485D01*
X0305915Y0285804D01*
X0317453D01*
Y0283753D01*
X031846D01*
X0318465Y02838D01*
Y0283753D01*
X0320028D01*
X0321579D01*
Y0284D01*
X0321589Y0283905D01*
X0321619Y028382D01*
X0321665Y0283753D01*
X0322603D01*
Y0285804D01*
X032436D01*
X032436Y0285804D01*
X0324823Y0285896D01*
X0325216Y0286159D01*
X0329159Y0290102D01*
X0357513D01*
X0357513Y0290102D01*
X0357976Y0290194D01*
X0358369Y0290457D01*
X0376801Y0308889D01*
X03943D01*
X03943Y0308889D01*
X0394763Y0308981D01*
X0395156Y0309244D01*
X0396856Y0310944D01*
X0396856Y0310944D01*
X0396942Y0311073D01*
X0397442Y0310921D01*
Y0287566D01*
X0397446Y0287545D01*
X0397307Y0285411D01*
X0396885Y0283292D01*
X0396191Y0281247D01*
X0395235Y0279309D01*
X0394035Y0277513D01*
X0392611Y0275889D01*
X0390987Y0274465D01*
X0389191Y0273265D01*
X0387253Y0272309D01*
X0385208Y0271615D01*
X0383089Y0271193D01*
X0380955Y0271054D01*
X0380934Y0271058D01*
X022758D01*
X0227558Y0271053D01*
X0225423Y0271193D01*
X0223302Y0271615D01*
X0221255Y027231D01*
X0219316Y0273266D01*
X0217518Y0274467D01*
X0215893Y0275893D01*
X0214468Y0277518D01*
X0213266Y0279316D01*
X021231Y0281255D01*
X0211615Y0283302D01*
X0211323Y0284772D01*
X021181Y0284885D01*
X0212306Y0283035D01*
X0213096Y0281128D01*
X0214128Y027934D01*
X0215385Y0277703D01*
X0216844Y0276243D01*
X0218482Y0274986D01*
X022027Y0273954D01*
X0222177Y0273164D01*
X0224171Y027263D01*
X0226218Y027236D01*
X022725D01*
X0228282Y027236D01*
X0230329Y027263D01*
X0232323Y0273164D01*
X023423Y0273954D01*
X0236018Y0274986D01*
X0237656Y0276243D01*
X0239115Y0277702D01*
X0240372Y027934D01*
X0241404Y0281128D01*
X0242194Y0283035D01*
X0242728Y0285029D01*
X0242998Y0287076D01*
X0242998Y0288108D01*
X0242998Y0288108D01*
X0242998Y0288108D01*
X0242998Y028914D01*
X0242728Y0291187D01*
X0242194Y0293181D01*
X0241404Y0295088D01*
X0240372Y0296876D01*
X0239115Y0298514D01*
X0237656Y0299974D01*
X0236018Y030123D01*
X023423Y0302262D01*
X0232323Y0303052D01*
X0230329Y0303587D01*
X0228282Y0303856D01*
X022725Y0303856D01*
X022725Y0303856D01*
X0226218Y0303856D01*
X0224171Y0303587D01*
X0222177Y0303052D01*
X022027Y0302262D01*
X0218482Y030123D01*
X0216844Y0299974D01*
X0215385Y0298514D01*
X0214128Y0296876D01*
X0213096Y0295088D01*
X0212306Y0293181D01*
X0211771Y0291187D01*
X0211558Y0289563D01*
X0211058Y0289596D01*
Y0329679D01*
X0211558Y0329886D01*
X0215872Y0325572D01*
X0216298Y0325287D01*
X02168Y0325187D01*
X0218923D01*
Y0324925D01*
X0219106Y0324004D01*
X0219629Y0323222D01*
X022041Y03227D01*
X0221332Y0322517D01*
X0225269D01*
X022619Y03227D01*
X0226972Y0323222D01*
X0227494Y0324004D01*
X0227677Y0324925D01*
Y0328075D01*
X0227494Y0328996D01*
X0226972Y0329778D01*
X022619Y03303D01*
X0225269Y0330483D01*
X0221332D01*
X022041Y03303D01*
X0219629Y0329778D01*
X0219106Y0328996D01*
X0218923Y0328075D01*
Y0327813D01*
X0217344D01*
X0213313Y0331844D01*
Y0351456D01*
X0216052Y0354196D01*
X0230619D01*
X0230662Y0354188D01*
X0230675Y0354184D01*
X023068Y035417D01*
X0230687Y0354127D01*
Y0351439D01*
X0226687D01*
Y0343761D01*
X0237513D01*
Y0351439D01*
X0233313D01*
Y0354127D01*
X023332Y035417D01*
X0233325Y0354184D01*
X0233338Y0354188D01*
X0233382Y0354196D01*
X0237948D01*
X0238487Y0353656D01*
Y0349D01*
X0238587Y0348498D01*
X0238872Y0348072D01*
X0242072Y0344872D01*
X0242498Y0344587D01*
X0243Y0344487D01*
X0244438D01*
Y0343438D01*
X0249162D01*
Y0344487D01*
X0252666D01*
Y0343438D01*
X025739D01*
Y0348162D01*
X0252666D01*
Y0347113D01*
X0249162D01*
Y0348162D01*
X0244438D01*
Y0347113D01*
X0243544D01*
X0241113Y0349544D01*
Y03542D01*
X0241013Y0354702D01*
X0240728Y0355128D01*
X023942Y0356436D01*
X0238994Y0356721D01*
X0238492Y0356821D01*
X0233382D01*
X0233338Y0356829D01*
X0233325Y0356833D01*
X023332Y0356846D01*
X0233313Y035689D01*
Y0359465D01*
X0237626D01*
Y0367143D01*
X0233525D01*
Y0368887D01*
X0233425Y036939D01*
X0233141Y0369815D01*
X0229985Y0372972D01*
Y0373684D01*
X0231231D01*
Y0377424D01*
X0226113D01*
Y0373684D01*
X0227359D01*
Y0372428D01*
X0227459Y0371926D01*
X0227744Y03715D01*
X02309Y0368344D01*
Y0367143D01*
X0226799D01*
Y0359465D01*
X0230687D01*
Y035689D01*
X023068Y0356846D01*
X0230675Y0356833D01*
X0230662Y0356829D01*
X0230619Y0356821D01*
X0215508D01*
X0215006Y0356721D01*
X021458Y0356436D01*
X0211558Y0353414D01*
X0211058Y0353621D01*
Y0400786D01*
X0211558Y0400819D01*
X0211771Y0399195D01*
X0212306Y0397201D01*
X0213096Y0395293D01*
X0214128Y0393506D01*
X0215385Y0391868D01*
X0216844Y0390408D01*
X0218482Y0389152D01*
X022027Y0388119D01*
X0222177Y0387329D01*
X0224171Y0386795D01*
X0226218Y0386526D01*
X022725D01*
X0228282Y0386526D01*
X0230329Y0386795D01*
X0232323Y0387329D01*
X023423Y0388119D01*
X0236018Y0389151D01*
X0237656Y0390408D01*
X0239115Y0391868D01*
X0240372Y0393506D01*
X0241404Y0395293D01*
X0242194Y0397201D01*
X0242728Y0399195D01*
X0242998Y0401241D01*
X0242998Y0402274D01*
X0242998Y0402274D01*
X0242998Y0402274D01*
X0242998Y0403306D01*
X0242728Y0405352D01*
X0242194Y0407346D01*
X0241404Y0409254D01*
X0240372Y0411041D01*
X0239115Y0412679D01*
X0237656Y0414139D01*
X0236018Y0415396D01*
X023423Y0416428D01*
X0232323Y0417218D01*
X0230329Y0417752D01*
X0228282Y0418021D01*
X022725Y0418021D01*
X022725Y0418021D01*
X0226218Y0418021D01*
X0224171Y0417752D01*
X0222177Y0417218D01*
X022027Y0416428D01*
X0218482Y0415395D01*
X0216844Y0414139D01*
X0215385Y0412679D01*
X0214128Y0411041D01*
X0213096Y0409254D01*
X0212306Y0407346D01*
X021191Y0405869D01*
X0211423Y0405983D01*
X0211606Y0406905D01*
X0212289Y0408918D01*
X0213229Y0410824D01*
X021441Y0412591D01*
X0215811Y0414189D01*
X0217409Y041559D01*
X0219176Y0416771D01*
X0221082Y0417711D01*
X0223095Y0418394D01*
X0225179Y0418808D01*
X0227281Y0418946D01*
X02273Y0418942D01*
X0279826D01*
X0279978Y0418442D01*
X0279878Y0418375D01*
X0279822Y041832D01*
X0279756Y0418276D01*
X0279324Y0417844D01*
X027928Y0417778D01*
X0279224Y0417722D01*
X0278885Y0417214D01*
X0278855Y0417141D01*
X0278811Y0417076D01*
X0278577Y0416511D01*
X0278562Y0416434D01*
X0278532Y0416361D01*
X0278413Y0415762D01*
Y0415683D01*
X0278397Y0415605D01*
Y04153D01*
Y03829D01*
Y0382545D01*
X0278413Y0382468D01*
Y0382389D01*
X0278551Y0381693D01*
X0278581Y038162D01*
X0278597Y0381543D01*
X0278868Y0380888D01*
X0278912Y0380822D01*
X0278942Y0380749D01*
X0279336Y0380159D01*
X0279392Y0380103D01*
X0279436Y0380037D01*
X0279937Y0379536D01*
X0280003Y0379492D01*
X0280059Y0379436D01*
X0280649Y0379042D01*
X0280722Y0379012D01*
X0280787Y0378968D01*
X0281443Y0378697D01*
X028152Y0378681D01*
X0281593Y0378651D01*
X0282289Y0378513D01*
X0282368D01*
X0282445Y0378497D01*
X0293405D01*
X0293483Y0378513D01*
X0293562D01*
X0294161Y0378632D01*
X0294234Y0378662D01*
X0294311Y0378677D01*
X0294876Y0378911D01*
X0294941Y0378955D01*
X0295014Y0378985D01*
X0295522Y0379325D01*
X0295578Y037938D01*
X0295644Y0379424D01*
X0296076Y0379856D01*
X0296119Y0379922D01*
X0296176Y0379978D01*
X0296515Y0380486D01*
X0296545Y0380559D01*
X0296589Y0380624D01*
X0296823Y0381189D01*
X0296838Y0381266D01*
X0296868Y0381339D01*
X0296987Y0381938D01*
Y0382017D01*
X0297003Y0382095D01*
Y03824D01*
Y04153D01*
Y0415605D01*
X0296987Y0415683D01*
Y0415762D01*
X0296868Y0416361D01*
X0296838Y0416434D01*
X0296823Y0416511D01*
X0296589Y0417076D01*
X0296545Y0417141D01*
X0296515Y0417214D01*
X0296176Y0417722D01*
X0296119Y0417778D01*
X0296076Y0417844D01*
X0295644Y0418276D01*
X0295578Y041832D01*
X0295522Y0418375D01*
X0295422Y0418442D01*
X0295574Y0418942D01*
X0310048D01*
X0310204Y0418538D01*
X031021Y0418442D01*
X0310177Y0418409D01*
X0310111Y0418365D01*
X0309735Y0417989D01*
X0309691Y0417923D01*
X0309635Y0417867D01*
X030934Y0417425D01*
X030931Y0417352D01*
X0309266Y0417286D01*
X0309062Y0416795D01*
X0309047Y0416717D01*
X0309016Y0416644D01*
X0308913Y0416122D01*
Y0416044D01*
X0308897Y0415966D01*
Y04157D01*
Y03831D01*
Y0382795D01*
X0308913Y0382717D01*
Y0382638D01*
X0309032Y0382039D01*
X0309062Y0381966D01*
X0309077Y0381889D01*
X0309311Y0381324D01*
X0309355Y0381259D01*
X0309385Y0381186D01*
X0309724Y0380678D01*
X0309781Y0380622D01*
X0309824Y0380556D01*
X0310256Y0380124D01*
X0310322Y038008D01*
X0310378Y0380025D01*
X0310886Y0379685D01*
X0310959Y0379655D01*
X0311024Y0379611D01*
X0311589Y0379377D01*
X0311666Y0379362D01*
X0311739Y0379332D01*
X0312338Y0379213D01*
X0312417D01*
X0312495Y0379197D01*
X0324828D01*
Y0377199D01*
X0323813D01*
Y0371294D01*
X0330506D01*
Y0377199D01*
X0329492D01*
Y0379535D01*
X0329539Y0379554D01*
X0329605Y0379598D01*
X0329678Y0379628D01*
X0330103Y0379913D01*
X0330159Y0379969D01*
X0330225Y0380013D01*
X0330587Y0380375D01*
X0330631Y0380441D01*
X0330687Y0380497D01*
X0330972Y0380922D01*
X0331002Y0380995D01*
X0331046Y0381061D01*
X0331144Y0381299D01*
X0331704Y0381346D01*
X0331981Y0380932D01*
X0332037Y0380876D01*
X0332081Y038081D01*
X0332308Y0380583D01*
Y0377199D01*
X0331294D01*
Y0371294D01*
X0337987D01*
Y0377199D01*
X0336972D01*
Y0379197D01*
X03503D01*
X0350714Y0379197D01*
X0350791Y0379213D01*
X035087D01*
X0351682Y0379374D01*
X0351755Y0379404D01*
X0351832Y037942D01*
X0352597Y0379736D01*
X0352662Y037978D01*
X0352735Y0379811D01*
X0353423Y038027D01*
X0353479Y0380326D01*
X0353545Y038037D01*
X035413Y0380955D01*
X0354174Y0381021D01*
X035423Y0381077D01*
X035469Y0381765D01*
X035472Y0381838D01*
X0354764Y0381903D01*
X035508Y0382668D01*
X0355096Y0382745D01*
X0355126Y0382818D01*
X0355287Y038363D01*
Y0383709D01*
X0355303Y0383786D01*
X0355303Y03842D01*
X0355303Y03842D01*
X0355303Y04156D01*
X0355303Y0415915D01*
X0355287Y0415993D01*
Y0416072D01*
X0355164Y041669D01*
X0355134Y0416763D01*
X0355119Y0416841D01*
X0354877Y0417423D01*
X0354834Y0417489D01*
X0354803Y0417562D01*
X0354453Y0418086D01*
X0354397Y0418142D01*
X0354353Y0418208D01*
X0354119Y0418442D01*
X0354326Y0418942D01*
X0381429D01*
X03815Y0418956D01*
X0383937Y0418765D01*
D02*
G37*
G36*
X0384414Y0377075D02*
X038452Y0376985D01*
X0384619Y0376912D01*
X0384711Y0376858D01*
X0384795Y0376821D01*
X0384872Y0376802D01*
X0384942Y0376801D01*
X0385005Y0376818D01*
X0385061Y0376852D01*
X0385109Y0376905D01*
X0384186Y0375642D01*
X0384222Y0375706D01*
X0384241Y0375776D01*
X0384243Y0375852D01*
X0384228Y0375935D01*
X0384197Y0376024D01*
X0384148Y037612D01*
X0384083Y0376222D01*
X0384Y0376331D01*
X0383901Y0376446D01*
X0383785Y0376567D01*
X0384301Y0377183D01*
X0384414Y0377075D01*
D02*
G37*
G36*
X0349704Y0375761D02*
X0349716Y0375623D01*
X0349736Y0375501D01*
X0349764Y0375396D01*
X03498Y0375307D01*
X0349844Y0375234D01*
X0349896Y0375177D01*
X0349956Y0375136D01*
X0350024Y0375112D01*
X03501Y0375103D01*
X03485D01*
X0348576Y0375112D01*
X0348644Y0375136D01*
X0348704Y0375177D01*
X0348756Y0375234D01*
X03488Y0375307D01*
X0348836Y0375396D01*
X0348864Y0375501D01*
X0348884Y0375623D01*
X0348896Y0375761D01*
X03489Y0375916D01*
X03497D01*
X0349704Y0375761D01*
D02*
G37*
G36*
X0229577Y0374474D02*
X0229492Y0374444D01*
X0229417Y0374394D01*
X0229352Y0374324D01*
X0229297Y0374234D01*
X0229252Y0374124D01*
X0229217Y0373994D01*
X0229192Y0373844D01*
X0229177Y0373674D01*
X0229172Y0373484D01*
X0228172D01*
X0228167Y0373674D01*
X0228152Y0373844D01*
X0228127Y0373994D01*
X0228092Y0374124D01*
X0228047Y0374234D01*
X0227992Y0374324D01*
X0227927Y0374394D01*
X0227852Y0374444D01*
X0227767Y0374474D01*
X0227672Y0374484D01*
X0229672D01*
X0229577Y0374474D01*
D02*
G37*
G36*
X0366456Y0374824D02*
X036648Y0374756D01*
X0366521Y0374696D01*
X0366578Y0374644D01*
X0366651Y03746D01*
X036674Y0374564D01*
X0366845Y0374536D01*
X0366967Y0374516D01*
X0367105Y0374504D01*
X036726Y03745D01*
Y03737D01*
X0367105Y0373696D01*
X0366967Y0373684D01*
X0366845Y0373664D01*
X036674Y0373636D01*
X0366651Y03736D01*
X0366578Y0373556D01*
X0366521Y0373504D01*
X036648Y0373444D01*
X0366456Y0373376D01*
X0366448Y03733D01*
Y03749D01*
X0366456Y0374824D01*
D02*
G37*
G36*
X0362952Y03731D02*
X0362944Y0373176D01*
X036292Y0373244D01*
X0362879Y0373304D01*
X0362822Y0373356D01*
X0362749Y03734D01*
X036266Y0373436D01*
X0362555Y0373464D01*
X0362433Y0373484D01*
X0362295Y0373496D01*
X036214Y03735D01*
Y03743D01*
X0362295Y0374304D01*
X0362433Y0374316D01*
X0362555Y0374336D01*
X036266Y0374364D01*
X0362749Y03744D01*
X0362822Y0374444D01*
X0362879Y0374496D01*
X036292Y0374556D01*
X0362944Y0374624D01*
X0362952Y03747D01*
Y03731D01*
D02*
G37*
G36*
X0359356Y0374624D02*
X035938Y0374556D01*
X0359421Y0374496D01*
X0359478Y0374444D01*
X0359551Y03744D01*
X035964Y0374364D01*
X0359746Y0374336D01*
X0359867Y0374316D01*
X0360005Y0374304D01*
X036016Y03743D01*
Y03735D01*
X0360005Y0373496D01*
X0359867Y0373484D01*
X0359746Y0373464D01*
X035964Y0373436D01*
X0359551Y03734D01*
X0359478Y0373356D01*
X0359421Y0373304D01*
X035938Y0373244D01*
X0359356Y0373176D01*
X0359348Y03731D01*
Y03747D01*
X0359356Y0374624D01*
D02*
G37*
G36*
X0355852Y03731D02*
X0355844Y0373176D01*
X035582Y0373244D01*
X0355779Y0373304D01*
X0355722Y0373356D01*
X0355649Y03734D01*
X035556Y0373436D01*
X0355454Y0373464D01*
X0355333Y0373484D01*
X0355195Y0373496D01*
X035504Y03735D01*
Y03743D01*
X0355195Y0374304D01*
X0355333Y0374316D01*
X0355454Y0374336D01*
X035556Y0374364D01*
X0355649Y03744D01*
X0355722Y0374444D01*
X0355779Y0374496D01*
X035582Y0374556D01*
X0355844Y0374624D01*
X0355852Y03747D01*
Y03731D01*
D02*
G37*
G36*
X0350871Y0374624D02*
X0350895Y0374556D01*
X0350935Y0374496D01*
X0350991Y0374444D01*
X0351063Y03744D01*
X0351151Y0374364D01*
X0351255Y0374336D01*
X0351375Y0374316D01*
X0351511Y0374304D01*
X0351663Y03743D01*
Y03735D01*
X0351511Y0373496D01*
X0351375Y0373484D01*
X0351255Y0373464D01*
X0351151Y0373436D01*
X0351063Y03734D01*
X0350991Y0373356D01*
X0350935Y0373304D01*
X0350895Y0373244D01*
X0350871Y0373176D01*
X0350863Y03731D01*
Y03747D01*
X0350871Y0374624D01*
D02*
G37*
G36*
X0232718Y0367151D02*
X0232733Y0366979D01*
X0232758Y0366827D01*
X0232793Y0366695D01*
X0232838Y0366584D01*
X0232893Y0366493D01*
X0232958Y0366422D01*
X0233033Y0366372D01*
X0233118Y0366341D01*
X0233213Y0366331D01*
X0231213D01*
X0231308Y0366341D01*
X0231393Y0366372D01*
X0231468Y0366422D01*
X0231533Y0366493D01*
X0231588Y0366584D01*
X0231633Y0366695D01*
X0231668Y0366827D01*
X0231693Y0366979D01*
X0231708Y0367151D01*
X0231713Y0367343D01*
X0232713D01*
X0232718Y0367151D01*
D02*
G37*
G36*
X0232905Y0360267D02*
X023282Y0360236D01*
X0232745Y0360186D01*
X023268Y0360115D01*
X0232625Y0360024D01*
X023258Y0359912D01*
X0232545Y0359781D01*
X023252Y0359629D01*
X0232505Y0359457D01*
X02325Y0359265D01*
X02315D01*
X0231495Y0359457D01*
X023148Y0359629D01*
X0231455Y0359781D01*
X023142Y0359912D01*
X0231375Y0360024D01*
X023132Y0360115D01*
X0231255Y0360186D01*
X023118Y0360236D01*
X0231095Y0360267D01*
X0231Y0360277D01*
X0233D01*
X0232905Y0360267D01*
D02*
G37*
G36*
X023251Y0356818D02*
X023254Y0356648D01*
X023259Y0356498D01*
X023266Y0356368D01*
X023275Y0356258D01*
X023286Y0356168D01*
X023299Y0356098D01*
X023314Y0356048D01*
X023331Y0356018D01*
X02335Y0356008D01*
Y0355008D01*
X023331Y0354998D01*
X023314Y0354968D01*
X023299Y0354918D01*
X023286Y0354848D01*
X023275Y0354758D01*
X023266Y0354648D01*
X023259Y0354518D01*
X023254Y0354368D01*
X023251Y0354198D01*
X02325Y0354008D01*
X02315D01*
X023149Y0354198D01*
X023146Y0354368D01*
X023141Y0354518D01*
X023134Y0354648D01*
X023125Y0354758D01*
X023114Y0354848D01*
X023101Y0354918D01*
X023086Y0354968D01*
X023069Y0354998D01*
X02305Y0355008D01*
Y0356008D01*
X023069Y0356018D01*
X023086Y0356048D01*
X023101Y0356098D01*
X023114Y0356168D01*
X023125Y0356258D01*
X023134Y0356368D01*
X023141Y0356498D01*
X023146Y0356648D01*
X023149Y0356818D01*
X02315Y0357008D01*
X02325D01*
X023251Y0356818D01*
D02*
G37*
G36*
X0232505Y0351447D02*
X023252Y0351275D01*
X0232545Y0351123D01*
X023258Y0350992D01*
X0232625Y035088D01*
X023268Y0350789D01*
X0232745Y0350718D01*
X023282Y0350668D01*
X0232905Y0350637D01*
X0233Y0350627D01*
X0231D01*
X0231095Y0350637D01*
X023118Y0350668D01*
X0231255Y0350718D01*
X023132Y0350789D01*
X0231375Y035088D01*
X023142Y0350992D01*
X0231455Y0351123D01*
X023148Y0351275D01*
X0231495Y0351447D01*
X02315Y0351639D01*
X02325D01*
X0232505Y0351447D01*
D02*
G37*
G36*
X0281Y0372D02*
D01*
X0281464Y0371973D01*
X0282133Y0371695D01*
X0282696Y0371133D01*
X0283Y0370398D01*
X0283Y037D01*
X0283Y03505D01*
X0283016Y0350167D01*
X0283146Y0349513D01*
X0283401Y0348897D01*
X0283772Y0348343D01*
X0284243Y0347872D01*
X0284797Y0347501D01*
X0285413Y0347246D01*
X0286067Y0347116D01*
X02864Y03471D01*
X0286778D01*
X0287476Y0346811D01*
X0288011Y0346276D01*
X02883Y0345578D01*
Y0337701D01*
X0288148Y0337333D01*
X0287866Y0337052D01*
X0287499Y03369D01*
X02817D01*
X0281349Y0336865D01*
X02807Y0336597D01*
X0280203Y03361D01*
X0279935Y0335451D01*
X02799Y03351D01*
Y0325902D01*
X0279595Y0325167D01*
X0279033Y0324605D01*
X0278298Y03243D01*
X02779D01*
X02779Y03243D01*
X0277471Y0324258D01*
X0276678Y0323929D01*
X0276071Y0323322D01*
X0275742Y0322529D01*
X02757Y03221D01*
Y03086D01*
X02757Y03086D01*
Y0308282D01*
X0275456Y0307694D01*
X0275006Y0307244D01*
X0274418Y0307D01*
X02622Y0307D01*
X0261892Y030701D01*
X026133Y0307264D01*
X0260908Y0307714D01*
X026069Y0308292D01*
X02607Y03086D01*
X02607Y0323D01*
X02607Y0323D01*
X02607Y0323D01*
X0260767Y032346D01*
X0260928Y032385D01*
X026135Y0324272D01*
X0261902Y03245D01*
X02622Y03245D01*
X0270702Y03245D01*
X02712Y03245D01*
X02712Y03245D01*
Y03245D01*
X0271434Y0324523D01*
X0271648Y0324612D01*
X0271867Y0324702D01*
X0272198Y0325033D01*
X0272377Y0325466D01*
X02724Y03257D01*
X02724Y03453D01*
Y0345638D01*
X0272659Y0346263D01*
X0273137Y0346741D01*
X0273636Y0346948D01*
X02741Y0347D01*
X02741Y0347D01*
Y0347D01*
X0274568Y0347046D01*
X0275433Y0347404D01*
X0276096Y0348067D01*
X0276454Y0348932D01*
X02765Y03494D01*
X02765Y03701D01*
Y0370478D01*
X0276789Y0371176D01*
X0277324Y0371711D01*
X0278022Y0372D01*
X0280536D01*
X0281Y0372D01*
D02*
G37*
G36*
X0253465Y03448D02*
X0253455Y0344895D01*
X0253425Y034498D01*
X0253375Y0345055D01*
X0253305Y034512D01*
X0253215Y0345175D01*
X0253105Y034522D01*
X0252975Y0345255D01*
X0252825Y034528D01*
X0252655Y0345295D01*
X0252465Y03453D01*
Y03463D01*
X0252655Y0346305D01*
X0252825Y034632D01*
X0252975Y0346345D01*
X0253105Y034638D01*
X0253215Y0346425D01*
X0253305Y034648D01*
X0253375Y0346545D01*
X0253425Y034662D01*
X0253455Y0346705D01*
X0253465Y03468D01*
Y03448D01*
D02*
G37*
G36*
X0248361Y0346705D02*
X0248391Y034662D01*
X0248442Y0346545D01*
X0248513Y034648D01*
X0248604Y0346425D01*
X0248715Y034638D01*
X0248847Y0346345D01*
X0248998Y034632D01*
X024917Y0346305D01*
X0249363Y03463D01*
Y03453D01*
X024917Y0345295D01*
X0248998Y034528D01*
X0248847Y0345255D01*
X0248715Y034522D01*
X0248604Y0345175D01*
X0248513Y034512D01*
X0248442Y0345055D01*
X0248391Y034498D01*
X0248361Y0344895D01*
X0248351Y03448D01*
Y03468D01*
X0248361Y0346705D01*
D02*
G37*
G36*
X0245237Y03448D02*
X0245227Y0344895D01*
X0245197Y034498D01*
X0245147Y0345055D01*
X0245077Y034512D01*
X0244987Y0345175D01*
X0244877Y034522D01*
X0244747Y0345255D01*
X0244597Y034528D01*
X0244427Y0345295D01*
X0244237Y03453D01*
Y03463D01*
X0244427Y0346305D01*
X0244597Y034632D01*
X0244747Y0346345D01*
X0244877Y034638D01*
X0244987Y0346425D01*
X0245077Y034648D01*
X0245147Y0346545D01*
X0245197Y034662D01*
X0245227Y0346705D01*
X0245237Y03468D01*
Y03448D01*
D02*
G37*
G36*
X0220105Y0344563D02*
X022002Y0344532D01*
X0219945Y0344482D01*
X021988Y0344411D01*
X0219825Y034432D01*
X021978Y0344209D01*
X0219745Y0344077D01*
X021972Y0343925D01*
X0219705Y0343753D01*
X02197Y0343561D01*
X02187D01*
X0218695Y0343753D01*
X021868Y0343925D01*
X0218655Y0344077D01*
X021862Y0344209D01*
X0218575Y034432D01*
X021852Y0344411D01*
X0218455Y0344482D01*
X021838Y0344532D01*
X0218295Y0344563D01*
X02182Y0344573D01*
X02202D01*
X0220105Y0344563D01*
D02*
G37*
G36*
X0363533Y0342083D02*
X0363557Y0342015D01*
X0363598Y0341955D01*
X0363655Y0341903D01*
X0363728Y0341859D01*
X0363817Y0341823D01*
X0363923Y0341795D01*
X0364044Y0341775D01*
X0364182Y0341763D01*
X0364337Y0341759D01*
Y0340959D01*
X0364182Y0340955D01*
X0364044Y0340943D01*
X0363923Y0340923D01*
X0363817Y0340895D01*
X0363728Y0340859D01*
X0363655Y0340815D01*
X0363598Y0340763D01*
X0363557Y0340703D01*
X0363533Y0340635D01*
X0363525Y0340559D01*
Y0342159D01*
X0363533Y0342083D01*
D02*
G37*
G36*
X0394357Y0336186D02*
X0394377Y033611D01*
X0394409Y0336043D01*
X0394454Y0335985D01*
X0394511Y0335936D01*
X0394579Y0335896D01*
X039466Y0335864D01*
X0394753Y0335842D01*
X0394858Y0335829D01*
X0394976Y0335824D01*
Y0335024D01*
X0394818Y033502D01*
X0394672Y0335009D01*
X0394538Y0334989D01*
X0394415Y0334962D01*
X0394305Y0334927D01*
X0394207Y0334884D01*
X0394121Y0334834D01*
X0394046Y0334775D01*
X0393984Y0334709D01*
X0393933Y0334635D01*
X0394349Y033627D01*
X0394357Y0336186D01*
D02*
G37*
G36*
X0356849Y03332D02*
X0356841Y0333276D01*
X0356817Y0333344D01*
X0356776Y0333404D01*
X0356719Y0333456D01*
X0356646Y03335D01*
X0356557Y0333536D01*
X0356451Y0333564D01*
X035633Y0333584D01*
X0356192Y0333596D01*
X0356037Y03336D01*
Y03344D01*
X0356192Y0334404D01*
X035633Y0334416D01*
X0356451Y0334436D01*
X0356557Y0334464D01*
X0356646Y03345D01*
X0356719Y0334544D01*
X0356776Y0334596D01*
X0356817Y0334656D01*
X0356841Y0334724D01*
X0356849Y03348D01*
Y03332D01*
D02*
G37*
G36*
X0282975Y0332428D02*
X0282965Y0332523D01*
X0282935Y0332608D01*
X0282885Y0332683D01*
X0282815Y0332748D01*
X0282725Y0332803D01*
X0282615Y0332848D01*
X0282485Y0332883D01*
X0282335Y0332908D01*
X0282165Y0332923D01*
X0281975Y0332928D01*
Y0333928D01*
X0282165Y0333933D01*
X0282335Y0333948D01*
X0282485Y0333973D01*
X0282615Y0334008D01*
X0282725Y0334053D01*
X0282815Y0334108D01*
X0282885Y0334173D01*
X0282935Y0334248D01*
X0282965Y0334333D01*
X0282975Y0334428D01*
Y0332428D01*
D02*
G37*
G36*
X0341548Y0332329D02*
X034148Y0332305D01*
X034142Y0332264D01*
X0341368Y0332207D01*
X0341324Y0332134D01*
X0341288Y0332045D01*
X034126Y033194D01*
X034124Y0331818D01*
X0341228Y033168D01*
X0341224Y0331525D01*
X0340424D01*
X034042Y033168D01*
X0340408Y0331818D01*
X0340388Y033194D01*
X034036Y0332045D01*
X0340324Y0332134D01*
X034028Y0332207D01*
X0340228Y0332264D01*
X0340168Y0332305D01*
X03401Y0332329D01*
X0340024Y0332337D01*
X0341624D01*
X0341548Y0332329D01*
D02*
G37*
G36*
X0290686Y033167D02*
X0290601Y033164D01*
X0290527Y0331589D01*
X0290461Y0331518D01*
X0290406Y0331427D01*
X0290361Y0331316D01*
X0290326Y0331184D01*
X0290301Y0331033D01*
X0290286Y0330861D01*
X0290282Y0330668D01*
X0289282D01*
X0289277Y0330861D01*
X0289262Y0331033D01*
X0289236Y0331184D01*
X0289201Y0331316D01*
X0289157Y0331427D01*
X0289102Y0331518D01*
X0289036Y0331589D01*
X0288962Y033164D01*
X0288877Y033167D01*
X0288781Y033168D01*
X0290781D01*
X0290686Y033167D01*
D02*
G37*
G36*
X0371269Y0331638D02*
X0371149Y0331501D01*
X0371044Y0331365D01*
X0370953Y033123D01*
X0370876Y0331095D01*
X0370812Y0330961D01*
X0370763Y0330828D01*
X0370728Y0330695D01*
X0370707Y0330563D01*
X03707Y0330432D01*
X03699D01*
X0369893Y0330563D01*
X0369872Y0330695D01*
X0369837Y0330828D01*
X0369788Y0330961D01*
X0369724Y0331095D01*
X0369647Y033123D01*
X0369556Y0331365D01*
X036945Y0331501D01*
X0369331Y0331638D01*
X0369198Y0331775D01*
X0371402D01*
X0371269Y0331638D01*
D02*
G37*
G36*
X0290286Y0329839D02*
X0290301Y0329667D01*
X0290326Y0329516D01*
X0290361Y0329384D01*
X0290406Y0329273D01*
X0290461Y0329182D01*
X0290527Y0329111D01*
X0290601Y032906D01*
X0290686Y032903D01*
X0290781Y032902D01*
X0288781D01*
X0288877Y032903D01*
X0288962Y032906D01*
X0289036Y0329111D01*
X0289102Y0329182D01*
X0289157Y0329273D01*
X0289201Y0329384D01*
X0289236Y0329516D01*
X0289262Y0329667D01*
X0289277Y0329839D01*
X0289282Y0330032D01*
X0290282D01*
X0290286Y0329839D01*
D02*
G37*
G36*
X0349804Y0328314D02*
X0349816Y0328176D01*
X0349836Y0328054D01*
X0349864Y0327949D01*
X03499Y0327859D01*
X0349944Y0327786D01*
X0349996Y0327729D01*
X0350056Y0327689D01*
X0350124Y0327664D01*
X03502Y0327656D01*
X03486D01*
X0348676Y0327664D01*
X0348744Y0327689D01*
X0348804Y0327729D01*
X0348856Y0327786D01*
X03489Y0327859D01*
X0348936Y0327949D01*
X0348964Y0328054D01*
X0348984Y0328176D01*
X0348996Y0328314D01*
X0349Y0328468D01*
X03498D01*
X0349804Y0328314D01*
D02*
G37*
G36*
X0219767Y03255D02*
X0219757Y0325595D01*
X0219727Y032568D01*
X0219676Y0325755D01*
X0219605Y032582D01*
X0219514Y0325875D01*
X0219403Y032592D01*
X0219271Y0325955D01*
X021912Y032598D01*
X0218948Y0325995D01*
X0218755Y0326D01*
Y0327D01*
X0218948Y0327005D01*
X021912Y032702D01*
X0219271Y0327045D01*
X0219403Y032708D01*
X0219514Y0327125D01*
X0219605Y032718D01*
X0219676Y0327245D01*
X0219727Y032732D01*
X0219757Y0327405D01*
X0219767Y03275D01*
Y03255D01*
D02*
G37*
G36*
X0340808Y0325221D02*
X03408Y0325297D01*
X0340776Y0325365D01*
X0340735Y0325426D01*
X0340678Y0325478D01*
X0340605Y0325521D01*
X0340516Y0325557D01*
X034041Y0325586D01*
X0340289Y0325606D01*
X034015Y0325618D01*
X0339996Y0325622D01*
Y0326421D01*
X034015Y0326426D01*
X0340289Y0326437D01*
X034041Y0326458D01*
X0340516Y0326485D01*
X0340605Y0326521D01*
X0340678Y0326566D01*
X0340735Y0326618D01*
X0340776Y0326677D01*
X03408Y0326746D01*
X0340808Y0326821D01*
Y0325221D01*
D02*
G37*
G36*
X0325549Y0325221D02*
X0325541Y0325297D01*
X0325517Y0325365D01*
X0325476Y0325426D01*
X0325419Y0325478D01*
X0325346Y0325521D01*
X0325257Y0325557D01*
X0325151Y0325586D01*
X0325029Y0325606D01*
X0324891Y0325618D01*
X0324737Y0325622D01*
Y0326421D01*
X0324891Y0326426D01*
X0325029Y0326437D01*
X0325151Y0326458D01*
X0325257Y0326485D01*
X0325346Y0326521D01*
X0325419Y0326566D01*
X0325476Y0326618D01*
X0325517Y0326677D01*
X0325541Y0326746D01*
X0325549Y0326821D01*
Y0325221D01*
D02*
G37*
G36*
X0333252Y03252D02*
X0333244Y0325276D01*
X033322Y0325344D01*
X0333179Y0325404D01*
X0333122Y0325456D01*
X0333049Y03255D01*
X033296Y0325536D01*
X0332855Y0325564D01*
X0332733Y0325584D01*
X0332595Y0325596D01*
X033244Y03256D01*
Y03264D01*
X0332595Y0326404D01*
X0332733Y0326416D01*
X0332855Y0326436D01*
X033296Y0326464D01*
X0333049Y03265D01*
X0333122Y0326544D01*
X0333179Y0326596D01*
X033322Y0326656D01*
X0333244Y0326724D01*
X0333252Y03268D01*
Y03252D01*
D02*
G37*
G36*
X0328671Y0326724D02*
X0328695Y0326656D01*
X0328735Y0326596D01*
X0328791Y0326544D01*
X0328863Y03265D01*
X0328951Y0326464D01*
X0329055Y0326436D01*
X0329175Y0326416D01*
X0329311Y0326404D01*
X0329463Y03264D01*
Y03256D01*
X0329311Y0325596D01*
X0329175Y0325584D01*
X0329055Y0325564D01*
X0328951Y0325536D01*
X0328863Y03255D01*
X0328791Y0325456D01*
X0328735Y0325404D01*
X0328695Y0325344D01*
X0328671Y0325276D01*
X0328663Y03252D01*
Y03268D01*
X0328671Y0326724D01*
D02*
G37*
G36*
X0321812Y0326746D02*
X0321836Y0326677D01*
X0321877Y0326618D01*
X0321934Y0326566D01*
X0322007Y0326521D01*
X0322096Y0326485D01*
X0322201Y0326458D01*
X0322323Y0326437D01*
X0322461Y0326426D01*
X0322616Y0326421D01*
Y0325846D01*
X0323479Y0326421D01*
X0324679Y0325622D01*
X0324527Y0325613D01*
X0324391Y0325589D01*
X0324271Y032555D01*
X0324167Y0325494D01*
X0324079Y0325422D01*
X0324007Y0325333D01*
X0323951Y032523D01*
X0323911Y032511D01*
X0323887Y0324974D01*
X0323879Y0324821D01*
X0323079D01*
X0323071Y0324974D01*
X0323047Y032511D01*
X0323007Y032523D01*
X0322951Y0325333D01*
X0322879Y0325422D01*
X0322791Y0325494D01*
X0322687Y032555D01*
X0322567Y0325589D01*
X0322431Y0325613D01*
X0322421Y0325614D01*
X0322323Y0325606D01*
X0322201Y0325586D01*
X0322096Y0325557D01*
X0322007Y0325521D01*
X0321934Y0325478D01*
X0321877Y0325426D01*
X0321836Y0325365D01*
X0321812Y0325297D01*
X0321804Y0325221D01*
Y0326821D01*
X0321812Y0326746D01*
D02*
G37*
G36*
X0363652Y0323458D02*
X0363644Y0323534D01*
X036362Y0323602D01*
X0363579Y0323662D01*
X0363522Y0323714D01*
X0363449Y0323758D01*
X036336Y0323794D01*
X0363254Y0323822D01*
X0363133Y0323842D01*
X0362995Y0323854D01*
X036284Y0323858D01*
Y0324658D01*
X0362995Y0324662D01*
X0363133Y0324674D01*
X0363254Y0324694D01*
X036336Y0324722D01*
X0363449Y0324758D01*
X0363522Y0324802D01*
X0363579Y0324854D01*
X036362Y0324914D01*
X0363644Y0324982D01*
X0363652Y0325058D01*
Y0323458D01*
D02*
G37*
G36*
X0360256Y0324982D02*
X036028Y0324914D01*
X0360321Y0324854D01*
X0360378Y0324802D01*
X0360451Y0324758D01*
X036054Y0324722D01*
X0360646Y0324694D01*
X0360767Y0324674D01*
X0360905Y0324662D01*
X036106Y0324658D01*
Y0323858D01*
X0360905Y0323854D01*
X0360767Y0323842D01*
X0360646Y0323822D01*
X036054Y0323794D01*
X0360451Y0323758D01*
X0360378Y0323714D01*
X0360321Y0323662D01*
X036028Y0323602D01*
X0360256Y0323534D01*
X0360248Y0323458D01*
Y0325058D01*
X0360256Y0324982D01*
D02*
G37*
G36*
X0310808Y0319816D02*
X03108Y0319892D01*
X0310775Y031996D01*
X0310734Y032002D01*
X0310677Y0320072D01*
X0310604Y0320116D01*
X0310514Y0320152D01*
X0310409Y032018D01*
X0310288Y03202D01*
X031015Y0320212D01*
X0309996Y0320216D01*
Y0321016D01*
X0310148Y0321019D01*
X0310284Y032103D01*
X0310404Y0321049D01*
X0310508Y0321075D01*
X0310596Y0321108D01*
X0310668Y0321148D01*
X0310724Y0321196D01*
X0310764Y0321251D01*
X0310788Y0321314D01*
X0310796Y0321384D01*
X0310808Y0319816D01*
D02*
G37*
G36*
X0347849Y0319513D02*
X0347841Y0319589D01*
X0347817Y0319657D01*
X0347776Y0319717D01*
X0347719Y0319769D01*
X0347646Y0319813D01*
X0347557Y0319849D01*
X0347451Y0319877D01*
X0347329Y0319897D01*
X0347192Y0319909D01*
X0347037Y0319913D01*
Y0320713D01*
X0347192Y0320717D01*
X0347329Y0320729D01*
X0347451Y0320749D01*
X0347557Y0320777D01*
X0347646Y0320813D01*
X0347719Y0320857D01*
X0347776Y0320909D01*
X0347817Y0320969D01*
X0347841Y0321037D01*
X0347849Y0321113D01*
Y0319513D01*
D02*
G37*
G36*
X0344312Y0321037D02*
X0344336Y0320969D01*
X0344377Y0320909D01*
X0344433Y0320857D01*
X0344507Y0320813D01*
X0344596Y0320777D01*
X0344701Y0320749D01*
X0344823Y0320729D01*
X0344961Y0320717D01*
X0345116Y0320713D01*
Y0319913D01*
X0344961Y0319909D01*
X0344823Y0319897D01*
X0344701Y0319877D01*
X0344596Y0319849D01*
X0344507Y0319813D01*
X0344433Y0319769D01*
X0344377Y0319717D01*
X0344336Y0319657D01*
X0344312Y0319589D01*
X0344304Y0319513D01*
Y0321113D01*
X0344312Y0321037D01*
D02*
G37*
G36*
X0336756Y0321016D02*
X033678Y0320948D01*
X0336821Y0320888D01*
X0336878Y0320836D01*
X0336951Y0320792D01*
X033704Y0320756D01*
X0337145Y0320728D01*
X0337267Y0320708D01*
X0337405Y0320696D01*
X033756Y0320692D01*
Y0319892D01*
X0337405Y0319888D01*
X0337267Y0319876D01*
X0337145Y0319856D01*
X033704Y0319828D01*
X0336951Y0319792D01*
X0336878Y0319748D01*
X0336821Y0319696D01*
X033678Y0319636D01*
X0336756Y0319568D01*
X0336748Y0319492D01*
Y0321092D01*
X0336756Y0321016D01*
D02*
G37*
G36*
X0333252Y0319492D02*
X0333244Y0319568D01*
X033322Y0319636D01*
X0333179Y0319696D01*
X0333122Y0319748D01*
X0333049Y0319792D01*
X033296Y0319828D01*
X0332855Y0319856D01*
X0332733Y0319876D01*
X0332595Y0319888D01*
X033244Y0319892D01*
Y0320692D01*
X0332595Y0320696D01*
X0332733Y0320708D01*
X0332855Y0320728D01*
X033296Y0320756D01*
X0333049Y0320792D01*
X0333122Y0320836D01*
X0333179Y0320888D01*
X033322Y0320948D01*
X0333244Y0321016D01*
X0333252Y0321092D01*
Y0319492D01*
D02*
G37*
G36*
X0328671Y0321016D02*
X0328695Y0320948D01*
X0328735Y0320888D01*
X0328791Y0320836D01*
X0328863Y0320792D01*
X0328951Y0320756D01*
X0329055Y0320728D01*
X0329175Y0320708D01*
X0329311Y0320696D01*
X0329463Y0320692D01*
Y0319892D01*
X0329311Y0319888D01*
X0329175Y0319876D01*
X0329055Y0319856D01*
X0328951Y0319828D01*
X0328863Y0319792D01*
X0328791Y0319748D01*
X0328735Y0319696D01*
X0328695Y0319636D01*
X0328671Y0319568D01*
X0328663Y0319492D01*
Y0321092D01*
X0328671Y0321016D01*
D02*
G37*
G36*
X0318308Y03193D02*
X03183Y0319376D01*
X0318276Y0319444D01*
X0318235Y0319504D01*
X0318178Y0319556D01*
X0318105Y03196D01*
X0318016Y0319636D01*
X031791Y0319664D01*
X0317789Y0319684D01*
X0317651Y0319696D01*
X0317496Y03197D01*
Y03205D01*
X0317651Y0320504D01*
X0317789Y0320516D01*
X031791Y0320536D01*
X0318016Y0320564D01*
X0318105Y03206D01*
X0318178Y0320644D01*
X0318235Y0320696D01*
X0318276Y0320756D01*
X03183Y0320824D01*
X0318308Y03209D01*
Y03193D01*
D02*
G37*
G36*
X0314312Y0320824D02*
X0314336Y0320756D01*
X0314377Y0320696D01*
X0314434Y0320644D01*
X0314507Y03206D01*
X0314596Y0320564D01*
X0314701Y0320536D01*
X0314823Y0320516D01*
X0314961Y0320504D01*
X0315116Y03205D01*
Y03197D01*
X0314961Y0319696D01*
X0314823Y0319684D01*
X0314701Y0319664D01*
X0314596Y0319636D01*
X0314507Y03196D01*
X0314434Y0319556D01*
X0314377Y0319504D01*
X0314336Y0319444D01*
X0314312Y0319376D01*
X0314304Y03193D01*
Y03209D01*
X0314312Y0320824D01*
D02*
G37*
G36*
X0339739Y0319804D02*
X0339997Y0319664D01*
Y0318443D01*
X0345115D01*
Y0319102D01*
X0347038D01*
Y0317838D01*
X0351689D01*
X0351762Y0317838D01*
X0352189Y0317662D01*
Y0316601D01*
X0351844Y0316256D01*
X0351781Y0316161D01*
X035173Y0316111D01*
X03421D01*
X0341637Y0316019D01*
X0341244Y0315756D01*
X0341244Y0315756D01*
X0339744Y0314256D01*
X0339481Y0313863D01*
X0339389Y03134D01*
X0339389Y03134D01*
Y030908D01*
X0339389Y030908D01*
X0339389Y030908D01*
Y0302101D01*
X0338053Y0300765D01*
X0322615D01*
Y0301424D01*
X0317497D01*
Y0297684D01*
X0322615D01*
Y0298344D01*
X0328578D01*
X032877Y0297882D01*
X0323115Y0292227D01*
X0322615Y0292434D01*
Y0295716D01*
X0317497D01*
Y0295046D01*
X0315059D01*
Y0295694D01*
X0309941D01*
Y0292323D01*
X0309441Y0292116D01*
X0308311Y0293246D01*
Y0301199D01*
X0309802Y0302689D01*
X0311289D01*
Y0301403D01*
X0309941D01*
Y0297663D01*
X0315059D01*
Y0301403D01*
X0313711D01*
Y0302689D01*
X0319531D01*
X0319531Y0302689D01*
X0319995Y0302782D01*
X0320387Y0303044D01*
X0320856Y0303513D01*
X0320856Y0303513D01*
X0321118Y0303905D01*
X0321211Y0304369D01*
Y0305188D01*
X0322559D01*
Y0307093D01*
X0323059Y03073D01*
X0323562Y0306797D01*
X032443Y0306438D01*
X032537D01*
X0325497Y0306491D01*
X0326323Y0305664D01*
X0326324Y0305664D01*
X0326716Y0305402D01*
X032718Y030531D01*
X0327283D01*
Y0304461D01*
X0328155D01*
X0328177Y0304475D01*
X0328234Y0304527D01*
X0328274Y0304587D01*
X0328299Y0304655D01*
X0328307Y0304731D01*
Y0304461D01*
X0334794D01*
Y0305847D01*
X0334582D01*
Y0307869D01*
X0335043Y0307961D01*
X0335436Y0308224D01*
X0337256Y0310044D01*
X0337256Y0310044D01*
X0337519Y0310437D01*
X0337611Y03109D01*
Y03147D01*
X0337611Y03147D01*
X0337519Y0315163D01*
X0337256Y0315556D01*
X0337256Y0315556D01*
X0335369Y0317443D01*
X0334976Y0317706D01*
X0334513Y0317798D01*
X0334513Y0317798D01*
X0329462D01*
Y0319081D01*
X0332441D01*
Y0318422D01*
X0337559D01*
Y0319081D01*
X0338231D01*
X0338231Y0319081D01*
X0338695Y0319173D01*
X0339087Y0319436D01*
X0339497Y0319845D01*
X0339739Y0319804D01*
D02*
G37*
G36*
X0367156Y0319284D02*
X036718Y0319216D01*
X0367221Y0319156D01*
X0367278Y0319104D01*
X0367351Y031906D01*
X036744Y0319024D01*
X0367546Y0318996D01*
X0367667Y0318976D01*
X0367805Y0318964D01*
X036796Y031896D01*
Y031816D01*
X0367805Y0318156D01*
X0367667Y0318144D01*
X0367546Y0318124D01*
X036744Y0318096D01*
X0367351Y031806D01*
X0367278Y0318016D01*
X0367221Y0317964D01*
X036718Y0317904D01*
X0367156Y0317836D01*
X0367148Y031776D01*
Y031936D01*
X0367156Y0319284D01*
D02*
G37*
G36*
X0356752Y0317739D02*
X0356744Y0317815D01*
X035672Y0317883D01*
X0356679Y0317943D01*
X0356622Y0317995D01*
X0356549Y0318039D01*
X035646Y0318075D01*
X0356354Y0318103D01*
X0356233Y0318123D01*
X0356095Y0318135D01*
X035594Y0318139D01*
Y0318939D01*
X0356095Y0318943D01*
X0356233Y0318955D01*
X0356354Y0318975D01*
X035646Y0319003D01*
X0356549Y0319039D01*
X0356622Y0319083D01*
X0356679Y0319135D01*
X035672Y0319195D01*
X0356744Y0319263D01*
X0356752Y0319339D01*
Y0317739D01*
D02*
G37*
G36*
X0327824Y0318488D02*
X0327756Y0318464D01*
X0327696Y0318423D01*
X0327644Y0318367D01*
X03276Y0318293D01*
X0327564Y0318204D01*
X0327536Y0318099D01*
X0327516Y0317977D01*
X0327504Y0317839D01*
X03275Y0317684D01*
X03267D01*
X0326696Y0317839D01*
X0326684Y0317977D01*
X0326664Y0318099D01*
X0326636Y0318204D01*
X03266Y0318293D01*
X0326556Y0318367D01*
X0326504Y0318423D01*
X0326444Y0318464D01*
X0326376Y0318488D01*
X03263Y0318496D01*
X03279D01*
X0327824Y0318488D01*
D02*
G37*
G36*
X0256756Y0318319D02*
X025678Y0318251D01*
X0256821Y0318191D01*
X0256878Y0318139D01*
X0256951Y0318095D01*
X025704Y0318059D01*
X0257146Y0318031D01*
X0257267Y0318011D01*
X0257405Y0317999D01*
X025756Y0317995D01*
Y0317195D01*
X0257405Y0317191D01*
X0257267Y0317179D01*
X0257146Y0317159D01*
X025704Y0317131D01*
X0256951Y0317095D01*
X0256878Y0317051D01*
X0256821Y0316999D01*
X025678Y0316939D01*
X0256756Y0316871D01*
X0256748Y0316795D01*
Y0318395D01*
X0256756Y0318319D01*
D02*
G37*
G36*
X0323879Y03169D02*
X0323079Y0315921D01*
X0323071Y0316031D01*
X0323047Y0316129D01*
X0323007Y0316216D01*
X0322951Y0316291D01*
X0322879Y0316355D01*
X0322791Y0316407D01*
X0322687Y0316448D01*
X0322567Y0316477D01*
X0322431Y0316494D01*
X0322279Y03165D01*
Y03173D01*
X0322431Y0317308D01*
X0322567Y0317332D01*
X0322687Y0317372D01*
X0322791Y0317428D01*
X0322879Y03175D01*
X0322951Y0317588D01*
X0323007Y0317692D01*
X0323047Y0317812D01*
X0323071Y0317948D01*
X0323079Y03181D01*
X0323879Y03169D01*
D02*
G37*
G36*
X0309744Y0316044D02*
X0309744Y0316044D01*
X0310137Y0315781D01*
X03106Y0315689D01*
X03106Y0315689D01*
X0322315D01*
X0322361Y0315458D01*
X0322581Y0315128D01*
X0322509Y031489D01*
X0322344Y0314637D01*
X0317441D01*
Y0313977D01*
X0315059D01*
Y0314637D01*
X0309941D01*
Y0310897D01*
X0315059D01*
Y0311556D01*
X0317441D01*
Y0310897D01*
X0322559D01*
Y0311556D01*
X0324074D01*
X0324174Y0311056D01*
X0323562Y0310803D01*
X0322897Y0310138D01*
X0322538Y030927D01*
Y0308928D01*
X0317441D01*
Y0305188D01*
X0316973Y0305111D01*
X0315527D01*
X0315059Y0305188D01*
Y0308928D01*
X0309941D01*
Y0308269D01*
X0307562D01*
Y0309336D01*
X0302838D01*
Y0304612D01*
X0303889D01*
Y02925D01*
X0303889Y02925D01*
X0303981Y0292037D01*
X0304244Y0291644D01*
X03072Y0288688D01*
X0307009Y0288226D01*
X0306287D01*
X0301611Y0292901D01*
Y0319098D01*
X0302401Y0319889D01*
X0305898D01*
X0309744Y0316044D01*
D02*
G37*
G36*
X0331443Y0313158D02*
X0331455Y031302D01*
X0331475Y0312898D01*
X0331503Y0312793D01*
X0331539Y0312703D01*
X0331583Y031263D01*
X0331635Y0312574D01*
X0331695Y0312533D01*
X0331763Y0312509D01*
X0331839Y03125D01*
X0330239D01*
X0330315Y0312509D01*
X0330383Y0312533D01*
X0330443Y0312574D01*
X0330495Y031263D01*
X0330539Y0312703D01*
X0330575Y0312793D01*
X0330603Y0312898D01*
X0330623Y031302D01*
X0330635Y0313158D01*
X0330639Y0313312D01*
X0331439D01*
X0331443Y0313158D01*
D02*
G37*
G36*
X0321756Y0313491D02*
X032178Y0313423D01*
X0321821Y0313363D01*
X0321878Y0313311D01*
X0321951Y0313267D01*
X032204Y0313231D01*
X0322146Y0313203D01*
X0322267Y0313183D01*
X0322405Y0313171D01*
X032256Y0313167D01*
Y0312367D01*
X0322405Y0312363D01*
X0322267Y0312351D01*
X0322146Y0312331D01*
X032204Y0312303D01*
X0321951Y0312267D01*
X0321878Y0312223D01*
X0321821Y0312171D01*
X032178Y0312111D01*
X0321756Y0312043D01*
X0321748Y0311967D01*
Y0313567D01*
X0321756Y0313491D01*
D02*
G37*
G36*
X0318252Y0311967D02*
X0318244Y0312043D01*
X031822Y0312111D01*
X0318179Y0312171D01*
X0318122Y0312223D01*
X0318049Y0312267D01*
X031796Y0312303D01*
X0317854Y0312331D01*
X0317733Y0312351D01*
X0317595Y0312363D01*
X031744Y0312367D01*
Y0313167D01*
X0317595Y0313171D01*
X0317733Y0313183D01*
X0317854Y0313203D01*
X031796Y0313231D01*
X0318049Y0313267D01*
X0318122Y0313311D01*
X0318179Y0313363D01*
X031822Y0313423D01*
X0318244Y0313491D01*
X0318252Y0313567D01*
Y0311967D01*
D02*
G37*
G36*
X0314256Y0313491D02*
X031428Y0313423D01*
X0314321Y0313363D01*
X0314378Y0313311D01*
X0314451Y0313267D01*
X031454Y0313231D01*
X0314646Y0313203D01*
X0314767Y0313183D01*
X0314905Y0313171D01*
X031506Y0313167D01*
Y0312367D01*
X0314905Y0312363D01*
X0314767Y0312351D01*
X0314646Y0312331D01*
X031454Y0312303D01*
X0314451Y0312267D01*
X0314378Y0312223D01*
X0314321Y0312171D01*
X031428Y0312111D01*
X0314256Y0312043D01*
X0314248Y0311967D01*
Y0313567D01*
X0314256Y0313491D01*
D02*
G37*
G36*
X0363549Y0311653D02*
X0363541Y0311729D01*
X0363517Y0311797D01*
X0363476Y0311857D01*
X0363419Y0311909D01*
X0363346Y0311953D01*
X0363257Y0311989D01*
X0363151Y0312017D01*
X036303Y0312037D01*
X0362892Y0312049D01*
X0362737Y0312053D01*
Y0312853D01*
X0362892Y0312857D01*
X036303Y0312869D01*
X0363151Y0312889D01*
X0363257Y0312917D01*
X0363346Y0312953D01*
X0363419Y0312997D01*
X0363476Y0313049D01*
X0363517Y0313109D01*
X0363541Y0313177D01*
X0363549Y0313253D01*
Y0311653D01*
D02*
G37*
G36*
X0360071Y0313177D02*
X0360095Y0313109D01*
X0360135Y0313049D01*
X0360191Y0312997D01*
X0360263Y0312953D01*
X0360351Y0312917D01*
X0360455Y0312889D01*
X0360575Y0312869D01*
X0360711Y0312857D01*
X0360863Y0312853D01*
Y0312053D01*
X0360711Y0312049D01*
X0360575Y0312037D01*
X0360455Y0312017D01*
X0360351Y0311989D01*
X0360263Y0311953D01*
X0360191Y0311909D01*
X0360135Y0311857D01*
X0360095Y0311797D01*
X0360071Y0311729D01*
X0360063Y0311653D01*
Y0313253D01*
X0360071Y0313177D01*
D02*
G37*
G36*
X0356949Y0311653D02*
X0356941Y0311729D01*
X0356917Y0311797D01*
X0356876Y0311857D01*
X0356819Y0311909D01*
X0356746Y0311953D01*
X0356657Y0311989D01*
X0356551Y0312017D01*
X035643Y0312037D01*
X0356292Y0312049D01*
X0356137Y0312053D01*
Y0312853D01*
X0356292Y0312857D01*
X035643Y0312869D01*
X0356551Y0312889D01*
X0356657Y0312917D01*
X0356746Y0312953D01*
X0356819Y0312997D01*
X0356876Y0313049D01*
X0356917Y0313109D01*
X0356941Y0313177D01*
X0356949Y0313253D01*
Y0311653D01*
D02*
G37*
G36*
X0366673Y0313505D02*
X0366703Y031342D01*
X0366753Y0313345D01*
X0366823Y031328D01*
X0366913Y0313225D01*
X0367023Y031318D01*
X0367153Y0313145D01*
X0367303Y031312D01*
X0367473Y0313105D01*
X0367663Y03131D01*
Y03121D01*
X0367473Y0312095D01*
X0367303Y031208D01*
X0367153Y0312055D01*
X0367023Y031202D01*
X0366913Y0311975D01*
X0366823Y031192D01*
X0366753Y0311855D01*
X0366703Y031178D01*
X0366673Y0311695D01*
X0366663Y03116D01*
Y03136D01*
X0366673Y0313505D01*
D02*
G37*
G36*
X0351101Y0312363D02*
X0351126Y0312295D01*
X0351166Y0312235D01*
X0351223Y0312183D01*
X0351296Y0312139D01*
X0351386Y0312103D01*
X0351491Y0312075D01*
X0351613Y0312055D01*
X0351751Y0312043D01*
X0351905Y0312039D01*
Y0311239D01*
X0351751Y0311235D01*
X0351613Y0311223D01*
X0351491Y0311203D01*
X0351386Y0311175D01*
X0351296Y0311139D01*
X0351223Y0311095D01*
X0351166Y0311043D01*
X0351126Y0310983D01*
X0351101Y0310915D01*
X0351093Y0310839D01*
Y0312439D01*
X0351101Y0312363D01*
D02*
G37*
G36*
X0328307Y0310839D02*
X0328299Y0310915D01*
X0328274Y0310983D01*
X0328234Y0311043D01*
X0328177Y0311095D01*
X0328104Y0311139D01*
X0328014Y0311175D01*
X0327909Y0311203D01*
X0327787Y0311223D01*
X0327649Y0311235D01*
X0327495Y0311239D01*
Y0312039D01*
X0327649Y0312043D01*
X0327787Y0312055D01*
X0327909Y0312075D01*
X0328014Y0312103D01*
X0328104Y0312139D01*
X0328177Y0312183D01*
X0328234Y0312235D01*
X0328274Y0312295D01*
X0328299Y0312363D01*
X0328307Y0312439D01*
Y0310839D01*
D02*
G37*
G36*
X0368797Y0311262D02*
X0369462Y0310597D01*
X037033Y0310238D01*
X037127D01*
X0371865Y0310484D01*
X0372148Y0310061D01*
X0368137Y0306049D01*
X0367675Y030624D01*
Y0309122D01*
X03656D01*
Y0306547D01*
X03651D01*
Y0306047D01*
X0363549D01*
Y0305747D01*
X0363541Y0305823D01*
X0363517Y0305891D01*
X0363476Y0305951D01*
X0363419Y0306003D01*
X0363346Y0306047D01*
X0362525D01*
Y0303972D01*
X0365407D01*
X0365598Y030351D01*
X0356199Y0294111D01*
X0345211D01*
Y0296798D01*
X0349218Y0300805D01*
X034948Y0301198D01*
X0349572Y0301661D01*
X0349572Y0301661D01*
Y0302288D01*
X0351905D01*
Y0304847D01*
Y0307406D01*
Y0310428D01*
X0354339D01*
X0354339Y0310428D01*
X0354802Y031052D01*
X0355195Y0310783D01*
X0355638Y0311226D01*
X0356138Y0311202D01*
Y0309991D01*
X0360862D01*
Y0311242D01*
X0362738D01*
Y031009D01*
X0367462D01*
Y0311287D01*
X0368787D01*
X0368797Y0311262D01*
D02*
G37*
G36*
X0333779Y0309801D02*
X0333803Y0309734D01*
X0333843Y0309674D01*
X03339Y0309623D01*
X0333973Y0309579D01*
X0334062Y0309543D01*
X0334167Y0309515D01*
X0334288Y0309495D01*
X0334426Y0309484D01*
X0334579Y0309479D01*
Y030868D01*
X0334426Y0308676D01*
X0334288Y0308664D01*
X0334167Y0308644D01*
X0334062Y0308616D01*
X0333973Y030858D01*
X03339Y0308537D01*
X0333843Y0308485D01*
X0333803Y0308425D01*
X0333779Y0308358D01*
X033377Y0308282D01*
Y0309877D01*
X0333779Y0309801D01*
D02*
G37*
G36*
X034563Y0308279D02*
X0345621Y0308355D01*
X0345597Y0308423D01*
X0345556Y0308484D01*
X03455Y0308536D01*
X0345427Y0308579D01*
X0345337Y0308615D01*
X0345232Y0308644D01*
X034511Y0308664D01*
X0344972Y0308676D01*
X0344817Y030868D01*
Y0309479D01*
X0344972Y0309484D01*
X034511Y0309495D01*
X0345232Y0309516D01*
X0345337Y0309543D01*
X0345427Y0309579D01*
X03455Y0309624D01*
X0345556Y0309676D01*
X0345597Y0309735D01*
X0345621Y0309804D01*
X034563Y0309879D01*
Y0308279D01*
D02*
G37*
G36*
X0341Y0310279D02*
X0341Y0310279D01*
X0341008Y0310127D01*
X0341032Y0309992D01*
X0341072Y0309872D01*
X0341128Y0309768D01*
X03412Y030968D01*
X0341288Y0309608D01*
X0341392Y0309552D01*
X0341512Y0309511D01*
X0341648Y0309488D01*
X03418Y0309479D01*
Y0309479D01*
X03418D01*
Y030868D01*
X03418D01*
Y030868D01*
X0341648Y0308671D01*
X0341512Y0308647D01*
X0341392Y0308608D01*
X0341288Y0308552D01*
X03412Y0308479D01*
X0341128Y0308391D01*
X0341072Y0308288D01*
X0341032Y0308168D01*
X0341008Y0308032D01*
X0341Y0307879D01*
X0341Y0307879D01*
Y0307879D01*
X03402Y030908D01*
X03402Y030908D01*
X03402Y030908D01*
X0341Y0310279D01*
Y0310279D01*
D02*
G37*
G36*
X0310752Y0306258D02*
X0310744Y0306334D01*
X031072Y0306402D01*
X0310679Y0306462D01*
X0310622Y0306514D01*
X0310549Y0306558D01*
X031046Y0306594D01*
X0310354Y0306622D01*
X0310233Y0306642D01*
X0310095Y0306654D01*
X030994Y0306658D01*
Y0307458D01*
X0310095Y0307462D01*
X0310233Y0307474D01*
X0310354Y0307494D01*
X031046Y0307522D01*
X0310549Y0307558D01*
X0310622Y0307602D01*
X0310679Y0307654D01*
X031072Y0307714D01*
X0310744Y0307782D01*
X0310752Y0307858D01*
Y0306258D01*
D02*
G37*
G36*
X0306759Y0307782D02*
X0306783Y0307714D01*
X0306824Y0307654D01*
X0306881Y0307602D01*
X0306954Y0307558D01*
X0307043Y0307522D01*
X0307149Y0307494D01*
X0307271Y0307474D01*
X0307408Y0307462D01*
X0307563Y0307458D01*
Y0306658D01*
X0307408Y0306654D01*
X0307271Y0306642D01*
X0307149Y0306622D01*
X0307043Y0306594D01*
X0306954Y0306558D01*
X0306881Y0306514D01*
X0306824Y0306462D01*
X0306783Y0306402D01*
X0306759Y0306334D01*
X0306751Y0306258D01*
Y0307858D01*
X0306759Y0307782D01*
D02*
G37*
G36*
X034563Y030572D02*
X0345621Y0305797D01*
X0345597Y0305865D01*
X0345556Y0305925D01*
X03455Y0305977D01*
X0345427Y030602D01*
X0345337Y0306056D01*
X0345232Y0306084D01*
X034511Y0306104D01*
X0344972Y0306117D01*
X0344817Y030612D01*
Y0306921D01*
X0344972Y0306925D01*
X034511Y0306937D01*
X0345232Y0306957D01*
X0345337Y0306984D01*
X0345427Y030702D01*
X03455Y0307065D01*
X0345556Y0307117D01*
X0345597Y0307176D01*
X0345621Y0307244D01*
X034563Y030732D01*
Y030572D01*
D02*
G37*
G36*
X0328307D02*
X0328299Y0305797D01*
X0328274Y0305865D01*
X0328234Y0305925D01*
X0328177Y0305977D01*
X0328104Y030602D01*
X0328014Y0306056D01*
X0327909Y0306084D01*
X0327787Y0306104D01*
X0327649Y0306117D01*
X0327495Y030612D01*
Y0306921D01*
X0327649Y0306925D01*
X0327787Y0306937D01*
X0327909Y0306957D01*
X0328014Y0306984D01*
X0328104Y030702D01*
X0328177Y0307065D01*
X0328234Y0307117D01*
X0328274Y0307176D01*
X0328299Y0307244D01*
X0328307Y030732D01*
Y030572D01*
D02*
G37*
G36*
X0320724Y0305979D02*
X0320656Y0305955D01*
X0320596Y0305915D01*
X0320544Y0305859D01*
X03205Y0305787D01*
X0320464Y0305699D01*
X0320436Y0305595D01*
X0320416Y0305475D01*
X0320404Y0305339D01*
X03204Y0305187D01*
X03196D01*
X0319596Y0305339D01*
X0319584Y0305475D01*
X0319564Y0305595D01*
X0319536Y0305699D01*
X03195Y0305787D01*
X0319456Y0305859D01*
X0319404Y0305915D01*
X0319344Y0305955D01*
X0319276Y0305979D01*
X03192Y0305987D01*
X03208D01*
X0320724Y0305979D01*
D02*
G37*
G36*
X0305824Y0305415D02*
X0305756Y0305391D01*
X0305696Y030535D01*
X0305644Y0305293D01*
X03056Y030522D01*
X0305564Y0305131D01*
X0305536Y0305025D01*
X0305516Y0304904D01*
X0305504Y0304765D01*
X03055Y0304611D01*
X03047D01*
X0304696Y0304765D01*
X0304684Y0304904D01*
X0304664Y0305025D01*
X0304636Y0305131D01*
X03046Y030522D01*
X0304556Y0305293D01*
X0304504Y030535D01*
X0304444Y0305391D01*
X0304376Y0305415D01*
X03043Y0305423D01*
X03059D01*
X0305824Y0305415D01*
D02*
G37*
G36*
X0365824Y0304988D02*
X0365756Y0304964D01*
X0365696Y0304923D01*
X0365644Y0304867D01*
X03656Y0304793D01*
X0365564Y0304704D01*
X0365536Y0304599D01*
X0365516Y0304477D01*
X0365504Y0304339D01*
X03655Y0304184D01*
X03647D01*
X0364696Y0304339D01*
X0364684Y0304477D01*
X0364664Y0304599D01*
X0364636Y0304704D01*
X03646Y0304793D01*
X0364556Y0304867D01*
X0364504Y0304923D01*
X0364444Y0304964D01*
X0364376Y0304988D01*
X03643Y0304996D01*
X03659D01*
X0365824Y0304988D01*
D02*
G37*
G36*
X0349085Y030308D02*
X0349017Y0303056D01*
X0348957Y0303016D01*
X0348905Y030296D01*
X0348861Y0302888D01*
X0348825Y03028D01*
X0348797Y0302696D01*
X0348777Y0302576D01*
X0348765Y030244D01*
X0348761Y0302288D01*
X0347961D01*
X0347957Y030244D01*
X0347945Y0302576D01*
X0347925Y0302696D01*
X0347897Y03028D01*
X0347861Y0302888D01*
X0347817Y030296D01*
X0347765Y0303016D01*
X0347705Y0303056D01*
X0347637Y030308D01*
X0347561Y0303088D01*
X0349161D01*
X0349085Y030308D01*
D02*
G37*
G36*
X0256758Y0304135D02*
X0256788Y030405D01*
X0256839Y0303975D01*
X025691Y030391D01*
X0257001Y0303855D01*
X0257112Y030381D01*
X0257243Y0303775D01*
X0257395Y030375D01*
X0257567Y0303735D01*
X025776Y030373D01*
Y030273D01*
X0257567Y0302725D01*
X0257395Y030271D01*
X0257243Y0302685D01*
X0257112Y030265D01*
X0257001Y0302605D01*
X025691Y030255D01*
X0256839Y0302485D01*
X0256788Y030241D01*
X0256758Y0302325D01*
X0256748Y030223D01*
Y030423D01*
X0256758Y0304135D01*
D02*
G37*
G36*
X0312904Y030125D02*
X0312916Y0301111D01*
X0312936Y030099D01*
X0312964Y0300884D01*
X0313Y0300795D01*
X0313044Y0300722D01*
X0313096Y0300665D01*
X0313156Y0300624D01*
X0313224Y03006D01*
X03133Y0300592D01*
X03117D01*
X0311776Y03006D01*
X0311844Y0300624D01*
X0311904Y0300665D01*
X0311956Y0300722D01*
X0312Y0300795D01*
X0312036Y0300884D01*
X0312064Y030099D01*
X0312084Y0301111D01*
X0312096Y030125D01*
X03121Y0301404D01*
X03129D01*
X0312904Y030125D01*
D02*
G37*
G36*
X0321812Y0300278D02*
X0321836Y030021D01*
X0321877Y030015D01*
X0321934Y0300098D01*
X0322007Y0300054D01*
X0322096Y0300018D01*
X0322201Y029999D01*
X0322323Y029997D01*
X0322461Y0299958D01*
X0322616Y0299954D01*
Y0299154D01*
X0322461Y029915D01*
X0322323Y0299138D01*
X0322201Y0299118D01*
X0322096Y029909D01*
X0322007Y0299054D01*
X0321934Y029901D01*
X0321877Y0298958D01*
X0321836Y0298898D01*
X0321812Y029883D01*
X0321804Y0298754D01*
Y0300354D01*
X0321812Y0300278D01*
D02*
G37*
G36*
X02697Y02963D02*
X02687Y02948D01*
X026869Y029499D01*
X026866Y029516D01*
X026861Y029531D01*
X026854Y029544D01*
X026845Y029555D01*
X026834Y029564D01*
X026821Y029571D01*
X026806Y029576D01*
X026789Y029579D01*
X02677Y02958D01*
Y02968D01*
X026789Y029681D01*
X026806Y029684D01*
X026821Y029689D01*
X026834Y029696D01*
X026845Y029705D01*
X026854Y029716D01*
X026861Y029729D01*
X026866Y029744D01*
X026869Y029761D01*
X02687Y02978D01*
X02697Y02963D01*
D02*
G37*
G36*
X02506Y02958D02*
X025041Y029579D01*
X025024Y029576D01*
X025009Y029571D01*
X024996Y029564D01*
X024985Y029555D01*
X024976Y029544D01*
X024969Y029531D01*
X024964Y029516D01*
X024961Y029499D01*
X02496Y02948D01*
X02486D01*
X024859Y029499D01*
X024856Y029516D01*
X024851Y029531D01*
X024844Y029544D01*
X024835Y029555D01*
X024824Y029564D01*
X024811Y029571D01*
X024796Y029576D01*
X024779Y029579D01*
X02476Y02958D01*
X02491Y02968D01*
X02506Y02958D01*
D02*
G37*
G36*
X0229022Y0301986D02*
X0229612Y0301888D01*
X0230104Y0301789D01*
X023099Y0301592D01*
X0231876Y0301297D01*
X0232663Y0301002D01*
X0233549Y0300608D01*
X0234435Y0300116D01*
X0235222Y0299624D01*
X023601Y0299033D01*
X0236797Y0298344D01*
X0233155Y0294703D01*
X0232663Y0295096D01*
X0232171Y029549D01*
X0231679Y0295785D01*
X0231089Y0296081D01*
X02304Y0296376D01*
X0229514Y0296671D01*
X022853Y0296868D01*
X0227644Y0296967D01*
Y0302085D01*
X0229022Y0301986D01*
D02*
G37*
G36*
X0226856Y0296967D02*
X0225971Y0296868D01*
X0224986Y0296671D01*
X02241Y0296376D01*
X0223411Y0296081D01*
X0222821Y0295785D01*
X0222329Y029549D01*
X0221837Y0295096D01*
X0221344Y0294703D01*
X0217703Y0298344D01*
X021849Y0299033D01*
X0219278Y0299624D01*
X0220065Y0300116D01*
X0220951Y0300608D01*
X0221837Y0301002D01*
X0222624Y0301297D01*
X022351Y0301592D01*
X0224396Y0301789D01*
X0224888Y0301888D01*
X0225478Y0301986D01*
X0226856Y0302085D01*
Y0296967D01*
D02*
G37*
G36*
X0318308Y0293035D02*
X03183Y0293111D01*
X0318276Y0293179D01*
X0318235Y0293239D01*
X0318178Y0293291D01*
X0318105Y0293335D01*
X0318016Y0293371D01*
X031791Y0293399D01*
X0317789Y0293419D01*
X0317651Y0293431D01*
X0317496Y0293435D01*
Y0294235D01*
X0317651Y0294239D01*
X0317789Y0294251D01*
X031791Y0294271D01*
X0318016Y0294299D01*
X0318105Y0294335D01*
X0318178Y0294379D01*
X0318235Y0294431D01*
X0318276Y0294491D01*
X03183Y0294559D01*
X0318308Y0294635D01*
Y0293035D01*
D02*
G37*
G36*
X0314256Y0294559D02*
X031428Y0294491D01*
X0314321Y0294431D01*
X0314378Y0294379D01*
X0314451Y0294335D01*
X031454Y0294299D01*
X0314646Y0294271D01*
X0314767Y0294251D01*
X0314905Y0294239D01*
X031506Y0294235D01*
Y0293435D01*
X0314905Y0293431D01*
X0314767Y0293419D01*
X0314646Y0293399D01*
X031454Y0293371D01*
X0314451Y0293335D01*
X0314378Y0293291D01*
X0314321Y0293239D01*
X031428Y0293179D01*
X0314256Y0293111D01*
X0314248Y0293035D01*
Y0294635D01*
X0314256Y0294559D01*
D02*
G37*
G36*
X0344408Y0293948D02*
X0344432Y0293812D01*
X0344472Y0293692D01*
X0344528Y0293588D01*
X03446Y02935D01*
X0344688Y0293428D01*
X0344792Y0293372D01*
X0344912Y0293332D01*
X0345048Y0293308D01*
X03452Y02933D01*
X0344Y02925D01*
X03428Y02933D01*
X0342952Y0293308D01*
X0343088Y0293332D01*
X0343208Y0293372D01*
X0343312Y0293428D01*
X03434Y02935D01*
X0343472Y0293588D01*
X0343528Y0293692D01*
X0343568Y0293812D01*
X0343592Y0293948D01*
X03436Y02941D01*
X03444D01*
X0344408Y0293948D01*
D02*
G37*
G36*
X0238175Y0296868D02*
X0238766Y0296081D01*
X0239258Y0295293D01*
X023975Y0294408D01*
X0240144Y0293522D01*
X0240439Y0292734D01*
X0240734Y0291848D01*
X0240931Y0290963D01*
X024103Y0290471D01*
X0241128Y028988D01*
X0241226Y0288502D01*
X0236108D01*
X023601Y0289388D01*
X0235813Y0290372D01*
X0235518Y0291258D01*
X0235222Y0291947D01*
X0234927Y0292537D01*
X0234632Y0293029D01*
X0234238Y0293522D01*
X0233844Y0294014D01*
X0237486Y0297656D01*
X0238175Y0296868D01*
D02*
G37*
G36*
X0220655Y0294014D02*
X0220262Y0293522D01*
X0219868Y0293029D01*
X0219573Y0292537D01*
X0219278Y0291947D01*
X0218982Y0291258D01*
X0218687Y0290372D01*
X021849Y0289388D01*
X0218392Y0288502D01*
X0213274D01*
X0213372Y028988D01*
X0213471Y0290471D01*
X0213569Y0290963D01*
X0213766Y0291848D01*
X0214061Y0292734D01*
X0214356Y0293522D01*
X021475Y0294408D01*
X0215242Y0295293D01*
X0215734Y0296081D01*
X0216325Y0296868D01*
X0217014Y0297656D01*
X0220655Y0294014D01*
D02*
G37*
G36*
X0281797Y0322793D02*
X0281993Y0322597D01*
X02821Y0322339D01*
Y03011D01*
X0282148Y0300612D01*
X0282521Y0299711D01*
X0283211Y0299021D01*
X0284112Y0298648D01*
X02846Y02986D01*
X02846Y02986D01*
Y02986D01*
X0284601D01*
X0285066Y0298558D01*
X0285358Y02985D01*
X0285831Y0298304D01*
X0286257Y029802D01*
X0286619Y0297657D01*
X0286904Y0297232D01*
X02871Y0296758D01*
X02872Y0296256D01*
X02872Y0296D01*
X02872Y02843D01*
X02872Y02843D01*
X02872Y0283862D01*
X0286865Y0283054D01*
X0286246Y0282435D01*
X0285438Y02821D01*
X0285Y02821D01*
X02749Y02821D01*
X02749Y02821D01*
X0274462Y02821D01*
X0273654Y0282435D01*
X0273035Y0283054D01*
X02727Y0283862D01*
X02727Y02843D01*
X02727Y02958D01*
X02727Y02958D01*
X0272738Y0296284D01*
X0272815Y0296675D01*
X0273041Y0297221D01*
X027337Y0297712D01*
X0273788Y029813D01*
X0274279Y0298459D01*
X0274825Y0298685D01*
X0275405Y02988D01*
X02757D01*
X0276051Y0298835D01*
X02767Y0299103D01*
X0277197Y02996D01*
X0277465Y0300249D01*
X02775Y03006D01*
Y0322339D01*
X0277607Y0322597D01*
X0277803Y0322793D01*
X0278061Y03229D01*
X0281539D01*
X0281797Y0322793D01*
D02*
G37*
G36*
X0241128Y0286337D02*
X024103Y0285746D01*
X0240931Y0285254D01*
X0240734Y0284368D01*
X0240439Y0283482D01*
X0240144Y0282695D01*
X023975Y0281809D01*
X0239258Y0280923D01*
X0238766Y0280136D01*
X0238175Y0279348D01*
X0237486Y0278561D01*
X0233844Y0282203D01*
X0234238Y0282695D01*
X0234632Y0283187D01*
X0234927Y0283679D01*
X0235222Y028427D01*
X0235518Y0284959D01*
X0235813Y0285844D01*
X023601Y0286829D01*
X0236108Y0287715D01*
X0241226D01*
X0241128Y0286337D01*
D02*
G37*
G36*
X021849Y0286829D02*
X0218687Y0285844D01*
X0218982Y0284959D01*
X0219278Y028427D01*
X0219573Y0283679D01*
X0219868Y0283187D01*
X0220262Y0282695D01*
X0220655Y0282203D01*
X0217014Y0278561D01*
X0216325Y0279348D01*
X0215734Y0280136D01*
X0215242Y0280923D01*
X021475Y0281809D01*
X0214356Y0282695D01*
X0214061Y0283482D01*
X0213766Y0284368D01*
X0213569Y0285254D01*
X0213471Y0285746D01*
X0213372Y0286337D01*
X0213274Y0287715D01*
X0218392D01*
X021849Y0286829D01*
D02*
G37*
G36*
X0343705Y0277681D02*
X0343631Y0277713D01*
X0343551Y0277728D01*
X0343465Y0277727D01*
X0343374Y0277708D01*
X0343277Y0277672D01*
X0343174Y0277619D01*
X0343066Y027755D01*
X0342951Y0277463D01*
X0342831Y027736D01*
X0342705Y027724D01*
X0342002Y0277668D01*
X0342117Y0277789D01*
X0342213Y0277901D01*
X0342289Y0278005D01*
X0342345Y0278101D01*
X0342382Y0278188D01*
X0342399Y0278267D01*
X0342396Y0278338D01*
X0342373Y02784D01*
X0342331Y0278453D01*
X0342269Y0278498D01*
X0343705Y0277681D01*
D02*
G37*
G36*
X0321587Y0278071D02*
X0321611Y0278003D01*
X0321652Y0277943D01*
X0321709Y0277891D01*
X0321782Y0277847D01*
X0321871Y0277811D01*
X0321977Y0277783D01*
X0322098Y0277763D01*
X0322236Y0277751D01*
X0322391Y0277747D01*
Y0276947D01*
X0322236Y0276943D01*
X0322098Y0276931D01*
X0321977Y0276911D01*
X0321871Y0276883D01*
X0321782Y0276847D01*
X0321709Y0276803D01*
X0321652Y0276751D01*
X0321611Y0276691D01*
X0321587Y0276623D01*
X0321579Y0276547D01*
Y0278147D01*
X0321587Y0278071D01*
D02*
G37*
G36*
X0318465Y02762D02*
X0318457Y0276276D01*
X0318433Y0276344D01*
X0318393Y0276404D01*
X0318337Y0276456D01*
X0318265Y02765D01*
X0318177Y0276536D01*
X0318073Y0276564D01*
X0317953Y0276584D01*
X0317817Y0276596D01*
X0317665Y02766D01*
Y02774D01*
X0317817Y0277404D01*
X0317953Y0277416D01*
X0318073Y0277436D01*
X0318177Y0277464D01*
X0318265Y02775D01*
X0318337Y0277544D01*
X0318393Y0277596D01*
X0318433Y0277656D01*
X0318457Y0277724D01*
X0318465Y02778D01*
Y02762D01*
D02*
G37*
G36*
X0236797Y0277872D02*
X023601Y0277183D01*
X0235222Y0276592D01*
X0234435Y02761D01*
X0233549Y0275608D01*
X0232663Y0275215D01*
X0231876Y0274919D01*
X023099Y0274624D01*
X0230104Y0274427D01*
X0229612Y0274329D01*
X0229022Y027423D01*
X0227644Y0274132D01*
Y027925D01*
X022853Y0279348D01*
X0229514Y0279545D01*
X02304Y0279841D01*
X0231089Y0280136D01*
X0231679Y0280431D01*
X0232171Y0280726D01*
X0232663Y028112D01*
X0233155Y0281514D01*
X0236797Y0277872D01*
D02*
G37*
G36*
X0221837Y028112D02*
X0222329Y0280726D01*
X0222821Y0280431D01*
X0223411Y0280136D01*
X02241Y0279841D01*
X0224986Y0279545D01*
X0225971Y0279348D01*
X0226856Y027925D01*
Y0274132D01*
X0225478Y027423D01*
X0224888Y0274329D01*
X0224396Y0274427D01*
X022351Y0274624D01*
X0222624Y0274919D01*
X0221837Y0275215D01*
X0220951Y0275608D01*
X0220065Y02761D01*
X0219278Y0276592D01*
X021849Y0277183D01*
X0217703Y0277872D01*
X0221344Y0281514D01*
X0221837Y028112D01*
D02*
G37*
%LPC*%
G36*
X0381447Y0418021D02*
X0380415Y0418021D01*
X0380415Y0418021D01*
X0379383Y0418021D01*
X0377336Y0417752D01*
X0375342Y0417218D01*
X0373435Y0416428D01*
X0371647Y0415395D01*
X037001Y0414139D01*
X036855Y0412679D01*
X0367293Y0411041D01*
X0366261Y0409254D01*
X0365471Y0407346D01*
X0364937Y0405352D01*
X0364667Y0403306D01*
X0364667Y0402274D01*
X0364667Y0402274D01*
X0364667Y0401241D01*
X0364937Y0399195D01*
X0365471Y0397201D01*
X0366261Y0395293D01*
X0367293Y0393506D01*
X036855Y0391868D01*
X037001Y0390408D01*
X0371648Y0389152D01*
X0373435Y0388119D01*
X0375342Y0387329D01*
X0377337Y0386795D01*
X0379383Y0386526D01*
X0380416D01*
X0381448Y0386526D01*
X0383494Y0386795D01*
X0385488Y0387329D01*
X0387396Y0388119D01*
X0389183Y0389151D01*
X0390821Y0390408D01*
X0392281Y0391868D01*
X0393537Y0393506D01*
X039457Y0395293D01*
X039536Y0397201D01*
X0395894Y0399195D01*
X0396163Y0401241D01*
X0396163Y0402274D01*
X0396163Y0402274D01*
X0396163Y0402274D01*
X0396163Y0403306D01*
X0395894Y0405352D01*
X0395359Y0407346D01*
X0394569Y0409254D01*
X0393537Y0411041D01*
X0392281Y0412679D01*
X0390821Y0414139D01*
X0389183Y0415396D01*
X0387395Y0416428D01*
X0385488Y0417218D01*
X0383494Y0417752D01*
X0381447Y0418021D01*
D02*
G37*
G36*
X02704Y0409548D02*
X0270224D01*
X0268918Y0409198D01*
X0268679Y040906D01*
X0268706Y0409044D01*
X0269039Y0408889D01*
X0269382Y0408763D01*
X0269735Y0408666D01*
X0270099Y0408598D01*
X02704Y0408566D01*
Y0409548D01*
D02*
G37*
G36*
X0271576D02*
X02714D01*
Y0404914D01*
X0276034D01*
Y040509D01*
X0275684Y0406396D01*
X0275008Y0407566D01*
X0274052Y0408522D01*
X0272881Y0409198D01*
X0271576Y0409548D01*
D02*
G37*
G36*
X02704Y0408089D02*
X0267225Y0404914D01*
X02704D01*
Y0408089D01*
D02*
G37*
G36*
X0266254Y0406635D02*
X0266116Y0406396D01*
X0265766Y040509D01*
Y0404914D01*
X0266748D01*
X0266716Y0405215D01*
X0266648Y0405579D01*
X0266551Y0405932D01*
X0266425Y0406275D01*
X026627Y0406607D01*
X0266254Y0406635D01*
D02*
G37*
G36*
X0255351Y0405424D02*
X0253065D01*
X0253175Y0405153D01*
X025334Y0404882D01*
X0253535Y0404671D01*
X025376Y0404521D01*
X0254015Y040443D01*
X02543Y04044D01*
X02518D01*
Y0400298D01*
X0255351D01*
Y0405424D01*
D02*
G37*
G36*
X0249535D02*
X0247249D01*
Y0400298D01*
X02508D01*
Y04044D01*
X02483D01*
X0248585Y040443D01*
X024884Y0404521D01*
X0249065Y0404671D01*
X024926Y0404882D01*
X0249425Y0405153D01*
X0249535Y0405424D01*
D02*
G37*
G36*
X0276034Y0403914D02*
X02714D01*
Y039928D01*
X0271576D01*
X0272881Y039963D01*
X0274052Y0400306D01*
X0275008Y0401262D01*
X0275684Y0402433D01*
X0276034Y0403738D01*
Y0403914D01*
D02*
G37*
G36*
X02704D02*
X0265766D01*
Y0403738D01*
X0266116Y0402433D01*
X0266792Y0401262D01*
X0267747Y0400306D01*
X0268918Y039963D01*
X0270224Y039928D01*
X02704D01*
Y0403914D01*
D02*
G37*
G36*
X025927Y0401762D02*
X025833D01*
X0257462Y0401403D01*
X0256797Y0400738D01*
X0256438Y039987D01*
Y039893D01*
X0256797Y0398062D01*
X0257462Y0397397D01*
X0257589Y0397345D01*
Y0394166D01*
X0257171Y0394103D01*
X0256699Y0394103D01*
X0256699Y0394103D01*
X0256229Y0394103D01*
X0255822D01*
X0255351Y0394603D01*
Y0399298D01*
X0247249D01*
Y0394172D01*
X0247524D01*
X0247633Y0393676D01*
X0247633Y0393676D01*
X0247373Y0393502D01*
X0246698Y0392827D01*
X0246524Y0392567D01*
X0246158Y0391685D01*
X0246097Y0391377D01*
X0246097Y03909D01*
Y0376765D01*
X0238359D01*
Y0377424D01*
X0233241D01*
Y0373684D01*
X0238359D01*
Y0374344D01*
X0246097D01*
Y0369921D01*
X0246158Y0369614D01*
X0246371Y03691D01*
X0246545Y0368839D01*
X0246899Y0368486D01*
X0246914Y0368087D01*
X0246847Y0367906D01*
X0246656Y0367778D01*
X0246122Y0367244D01*
X0245948Y0366984D01*
X0245658Y0366285D01*
X0245597Y0365978D01*
Y03578D01*
X0245597Y0357502D01*
X0245658Y0357194D01*
X0245887Y0356643D01*
X0246061Y0356383D01*
X0246483Y0355961D01*
X0246743Y0355787D01*
X0247294Y0355558D01*
X0247602Y0355497D01*
X02479Y0355497D01*
X0257305D01*
X0257383Y0355513D01*
X0257462D01*
X0258061Y0355632D01*
X0258134Y0355662D01*
X0258211Y0355677D01*
X0258776Y0355911D01*
X0258841Y0355955D01*
X0258914Y0355985D01*
X0259422Y0356325D01*
X0259478Y0356381D01*
X0259544Y0356424D01*
X0259976Y0356856D01*
X0260019Y0356922D01*
X0260075Y0356978D01*
X0260415Y0357486D01*
X0260445Y0357559D01*
X0260489Y0357624D01*
X0260723Y0358189D01*
X0260738Y0358266D01*
X0260768Y0358339D01*
X0260887Y0358938D01*
Y0359017D01*
X0260903Y0359095D01*
Y035938D01*
X0260918Y0359684D01*
X026104Y0360298D01*
X0261272Y0360858D01*
X0261609Y0361362D01*
X0262038Y0361791D01*
X0262542Y0362128D01*
X0263102Y036236D01*
X0263716Y0362482D01*
X026402Y0362497D01*
X02723D01*
X0272539Y0362497D01*
X0272846Y0362558D01*
X0273287Y0362741D01*
X0273547Y0362915D01*
X0273885Y0363253D01*
X0274059Y0363513D01*
X0274242Y0363954D01*
X0274303Y0364261D01*
X0274303Y03645D01*
X0274303Y03693D01*
X0274289Y0369371D01*
X027429Y0369442D01*
X0274208Y03699D01*
X0274176Y036998D01*
X0274159Y0370064D01*
X0274044Y0370344D01*
X027387Y0370604D01*
X027387Y0370604D01*
X0273504Y037097D01*
X0273244Y0371144D01*
X0272766Y0371342D01*
X0272459Y0371403D01*
X02722Y0371403D01*
X0264475Y0371403D01*
Y0372406D01*
X0264463D01*
Y0372406D01*
X026427Y03724D01*
X0264099Y0372386D01*
X0263947Y037236D01*
X0263815Y0372325D01*
X0263704Y0372281D01*
X0263613Y0372225D01*
X0263542Y0372161D01*
X0263491Y0372085D01*
X0263461Y0372001D01*
X0263451Y0371905D01*
Y0372406D01*
X02619D01*
X0259325D01*
Y0371156D01*
X0259186Y0371098D01*
X0258926Y0370924D01*
X0258926Y0370924D01*
X0258476Y0370474D01*
X0258302Y0370214D01*
X0258058Y0369625D01*
X0257997Y0369318D01*
Y036904D01*
X0257984Y0368905D01*
X0257867Y0368621D01*
X0257679Y0368433D01*
X0257395Y0368316D01*
X0257261Y0368303D01*
X0255925D01*
X0255718Y0368803D01*
X0255755Y0368839D01*
X0255929Y03691D01*
X0256142Y0369614D01*
X0256203Y0369921D01*
Y037688D01*
X0256212Y0377066D01*
X0256288Y037745D01*
X025643Y0377793D01*
X0256637Y0378101D01*
X0256899Y0378363D01*
X0257207Y037857D01*
X025755Y0378712D01*
X0257934Y0378788D01*
X025812Y0378797D01*
X02727D01*
X0273015Y0378797D01*
X0273093Y0378813D01*
X0273172D01*
X027379Y0378936D01*
X0273863Y0378966D01*
X0273941Y0378981D01*
X0274523Y0379222D01*
X0274589Y0379266D01*
X0274662Y0379297D01*
X0275186Y0379647D01*
X0275242Y0379703D01*
X0275308Y0379747D01*
X0275753Y0380192D01*
X0275797Y0380258D01*
X0275853Y0380314D01*
X0276203Y0380838D01*
X0276234Y0380911D01*
X0276277Y0380977D01*
X0276519Y0381559D01*
X0276534Y0381637D01*
X0276564Y038171D01*
X0276687Y0382328D01*
Y0382407D01*
X0276703Y0382485D01*
Y03828D01*
X0276703Y03828D01*
Y0393556D01*
X0276687Y0393634D01*
Y0393713D01*
X0276588Y0394215D01*
X0276557Y0394288D01*
X0276542Y0394366D01*
X0276346Y0394839D01*
X0276302Y0394905D01*
X0276272Y0394978D01*
X0275987Y0395403D01*
X0275931Y0395459D01*
X0275887Y0395525D01*
X0275525Y0395887D01*
X0275459Y0395931D01*
X0275403Y0395987D01*
X0274978Y0396272D01*
X0274904Y0396302D01*
X0274839Y0396346D01*
X0274366Y0396542D01*
X0274288Y0396557D01*
X0274215Y0396587D01*
X0273713Y0396687D01*
X0273634D01*
X0273556Y0396703D01*
X0263497Y0396703D01*
X0263093Y0396703D01*
X0263016Y0396687D01*
X0262937D01*
X0262145Y039653D01*
X0262072Y03965D01*
X0261995Y0396484D01*
X0261249Y0396175D01*
X0261183Y0396131D01*
X026111Y0396101D01*
X0260515Y0395703D01*
X0260511Y0395699D01*
X026032Y0395722D01*
X0260242Y0395755D01*
X0260011Y0395931D01*
Y0397345D01*
X0260138Y0397397D01*
X0260803Y0398062D01*
X0261162Y039893D01*
Y039987D01*
X0260803Y0400738D01*
X0260138Y0401403D01*
X025927Y0401762D01*
D02*
G37*
G36*
X0224159Y0383154D02*
X0219041D01*
Y0379414D01*
X0224159D01*
Y0379961D01*
X0226113D01*
Y0379393D01*
X0231231D01*
Y0379961D01*
X0233241D01*
Y0379393D01*
X0238359D01*
Y0383133D01*
X0233241D01*
Y0382586D01*
X0231231D01*
Y0383133D01*
X0226113D01*
Y0382586D01*
X0224159D01*
Y0383154D01*
D02*
G37*
G36*
X0224372Y0377658D02*
X02221D01*
Y0376076D01*
X0224372D01*
Y0377658D01*
D02*
G37*
G36*
X02211D02*
X0218828D01*
Y0376076D01*
X0218841D01*
X0219033Y0376081D01*
X0219205Y0376096D01*
X0219356Y0376121D01*
X0219488Y0376156D01*
X0219599Y0376201D01*
X021969Y0376256D01*
X0219761Y0376321D01*
X0219812Y0376396D01*
X0219842Y0376481D01*
X0219852Y0376576D01*
Y0376076D01*
X02211D01*
Y0377658D01*
D02*
G37*
G36*
Y0375076D02*
X0219852D01*
Y0374576D01*
X0219842Y0374671D01*
X0219812Y0374756D01*
X0219761Y0374831D01*
X021969Y0374896D01*
X0219599Y0374951D01*
X0219488Y0374996D01*
X0219356Y0375031D01*
X0219205Y0375056D01*
X0219033Y0375071D01*
X021884Y0375076D01*
Y0375076D01*
X0218828D01*
Y0373714D01*
X0218852Y037371D01*
X0219028Y03737D01*
X0218828Y037356D01*
Y0373493D01*
X02211D01*
Y0375076D01*
D02*
G37*
G36*
X0224372D02*
X02221D01*
Y0373493D01*
X0224372D01*
Y0375076D01*
D02*
G37*
G36*
X0264475Y037548D02*
X02624D01*
Y0373406D01*
X0263451D01*
Y0373905D01*
X0263461Y0373811D01*
X0263491Y0373726D01*
X0263542Y0373651D01*
X0263613Y0373586D01*
X0263704Y0373531D01*
X0263815Y0373485D01*
X0263947Y037345D01*
X0264099Y0373426D01*
X026427Y0373411D01*
X0264462Y0373406D01*
X0264475D01*
Y037548D01*
D02*
G37*
G36*
X02614D02*
X0259325D01*
Y0373406D01*
X02614D01*
Y037548D01*
D02*
G37*
G36*
X0351875Y0370222D02*
X03498D01*
Y0368147D01*
X0351875D01*
Y0370222D01*
D02*
G37*
G36*
X03488D02*
X0346725D01*
Y0368147D01*
X0347546D01*
D01*
X0347619Y0368191D01*
X0347676Y0368243D01*
X0347717Y0368303D01*
X0347741Y0368371D01*
X0347749Y0368447D01*
Y0368147D01*
X03488D01*
Y0370222D01*
D02*
G37*
G36*
X0291725Y0371248D02*
X0289357D01*
X0289358Y0371116D01*
X028936Y0371044D01*
X0289375Y0370872D01*
X02894Y037072D01*
X0289435Y0370588D01*
X028948Y0370477D01*
X0289535Y0370386D01*
X02896Y0370315D01*
X0289675Y0370265D01*
X028976Y0370234D01*
X0289855Y0370224D01*
X0289413D01*
X0289495Y036918D01*
X0289557Y0368866D01*
X028963Y0368598D01*
X0289714Y0368374D01*
X028981Y0368195D01*
X0289916Y036806D01*
X0289355D01*
Y03675D01*
X0291725D01*
Y0371248D01*
D02*
G37*
G36*
X0288351D02*
X0285985D01*
Y03675D01*
X0288355D01*
Y036806D01*
X0287794D01*
X02879Y0368195D01*
X0287996Y0368374D01*
X028808Y0368598D01*
X0288153Y0368866D01*
X0288215Y036918D01*
X0288265Y0369537D01*
X028832Y0370224D01*
X0287855D01*
X028795Y0370234D01*
X0288035Y0370265D01*
X028811Y0370315D01*
X0288175Y0370386D01*
X028823Y0370477D01*
X0288275Y0370588D01*
X028831Y037072D01*
X0288335Y0370872D01*
X0288346Y0370996D01*
X0288351Y0371248D01*
D02*
G37*
G36*
X03488Y0367147D02*
X0347749D01*
Y0366847D01*
X0347741Y0366923D01*
X0347717Y0366991D01*
X0347676Y0367051D01*
X0347619Y0367103D01*
X0347546Y0367147D01*
X0346725D01*
Y0365072D01*
X03488D01*
Y036563D01*
X0348773Y0365732D01*
X0348728Y0365843D01*
X0348673Y0365934D01*
X0348608Y0366005D01*
X0348533Y0366056D01*
X0348448Y0366086D01*
X0348353Y0366096D01*
X03488D01*
Y0367147D01*
D02*
G37*
G36*
X0389469Y0368672D02*
X0388D01*
Y0365D01*
X0391033D01*
Y03653D01*
X0391041Y0365224D01*
X0391065Y0365156D01*
X0391106Y0365096D01*
X0391163Y0365044D01*
X0391236Y0365D01*
X0392066D01*
Y0366075D01*
X0391977Y0366747D01*
X0391718Y0367373D01*
X0391305Y0367911D01*
X0390767Y0368324D01*
X0390141Y0368583D01*
X0389469Y0368672D01*
D02*
G37*
G36*
X0387D02*
X0385531D01*
X0384859Y0368583D01*
X0384233Y0368324D01*
X0383695Y0367911D01*
X0383282Y0367373D01*
X0383023Y0366747D01*
X0382934Y0366075D01*
Y0365D01*
X0387D01*
Y0368672D01*
D02*
G37*
G36*
X022524Y0367355D02*
X0220114D01*
Y0367343D01*
X0220114D01*
X0220119Y0367151D01*
X0220134Y0366979D01*
X0220159Y0366827D01*
X0220194Y0366695D01*
X0220239Y0366584D01*
X0220294Y0366493D01*
X0220359Y0366422D01*
X0220434Y0366372D01*
X0220519Y0366341D01*
X0220614Y0366331D01*
X0220114D01*
Y0363804D01*
X022524D01*
Y0367355D01*
D02*
G37*
G36*
X0219114D02*
X0213988D01*
Y0363804D01*
X0219114D01*
Y0366331D01*
X0218614D01*
X0218709Y0366341D01*
X0218794Y0366372D01*
X0218869Y0366422D01*
X0218934Y0366493D01*
X0218989Y0366584D01*
X0219034Y0366695D01*
X0219069Y0366827D01*
X0219094Y0366979D01*
X0219109Y0367151D01*
X0219114Y0367342D01*
Y0367355D01*
D02*
G37*
G36*
X0392066Y0364D02*
X0391236D01*
D01*
X0391163Y0363956D01*
X0391106Y0363904D01*
X0391065Y0363844D01*
X0391041Y0363776D01*
X0391033Y03637D01*
Y0364D01*
X0388D01*
Y0360328D01*
X0389469D01*
X0390141Y0360417D01*
X0390767Y0360676D01*
X0391305Y0361089D01*
X0391718Y0361627D01*
X0391977Y0362253D01*
X0392066Y0362925D01*
Y0364D01*
D02*
G37*
G36*
X0291725Y03665D02*
X0289355D01*
Y0363764D01*
X0290713D01*
X0290649Y0363734D01*
X0290592Y0363644D01*
X0290542Y0363494D01*
X0290498Y0363284D01*
X0290461Y0363014D01*
X0290442Y0362752D01*
X0291725D01*
Y03665D01*
D02*
G37*
G36*
X0288355D02*
X0285985D01*
Y0362752D01*
X0287277D01*
X0287241Y0363284D01*
X0287191Y0363494D01*
X0287134Y0363644D01*
X0287069Y0363734D01*
X0286997Y0363764D01*
X0288355D01*
Y03665D01*
D02*
G37*
G36*
X0367259Y037027D02*
X0362141D01*
Y036653D01*
X0363489D01*
Y0363001D01*
X0362036Y0361548D01*
X0360242D01*
X0359921Y0362049D01*
X0360162Y036263D01*
Y036357D01*
X0359803Y0364438D01*
X0359138Y0365103D01*
X0359113Y0365113D01*
Y0366376D01*
X0360159D01*
Y0370116D01*
X0355041D01*
Y0366376D01*
X0356487D01*
Y0365113D01*
X0356462Y0365103D01*
X0355797Y0364438D01*
X0355438Y036357D01*
Y036263D01*
X0355614Y0362206D01*
X035519Y0361922D01*
X0354809Y0362303D01*
X0354862Y036243D01*
Y036337D01*
X0354503Y0364238D01*
X0353838Y0364903D01*
X035297Y0365262D01*
X035203D01*
X0351875Y0365366D01*
Y0367147D01*
X03498D01*
Y0366096D01*
X0350353D01*
X0350258Y0366086D01*
X0350173Y0366056D01*
X0350098Y0366005D01*
X0350033Y0365934D01*
X0349978Y0365843D01*
X0349933Y0365732D01*
X0349898Y0365601D01*
X0349873Y0365449D01*
X0349858Y0365277D01*
X0349853Y0365084D01*
X03498D01*
Y0365072D01*
X0350625D01*
X0350832Y0364572D01*
X0350497Y0364238D01*
X0350138Y036337D01*
Y036243D01*
X0350497Y0361562D01*
X0351162Y0360897D01*
X035203Y0360538D01*
X035297D01*
X0353097Y0360591D01*
X0354206Y0359482D01*
X0354206Y0359482D01*
X0354599Y0359219D01*
X0355062Y0359127D01*
X0362538D01*
X0362538Y0359127D01*
X0363001Y0359219D01*
X0363394Y0359482D01*
X0365556Y0361644D01*
X0365556Y0361644D01*
X0365819Y0362037D01*
X0365911Y03625D01*
X0365911Y03625D01*
Y036653D01*
X0367259D01*
Y037027D01*
D02*
G37*
G36*
X0387Y0364D02*
X0382934D01*
Y0362925D01*
X0383023Y0362253D01*
X0383282Y0361627D01*
X0383695Y0361089D01*
X0384233Y0360676D01*
X0384859Y0360417D01*
X0385531Y0360328D01*
X0387D01*
Y0364D01*
D02*
G37*
G36*
X022524Y0362804D02*
X0220114D01*
Y0359253D01*
X022524D01*
Y0362804D01*
D02*
G37*
G36*
X0219114D02*
X0213988D01*
Y0359253D01*
X0219114D01*
Y0362804D01*
D02*
G37*
G36*
X0360203Y0357128D02*
X0358128D01*
Y0356307D01*
X0358172Y0356234D01*
X0358224Y0356177D01*
X0358284Y0356136D01*
X0358352Y0356112D01*
X0358428Y0356104D01*
X0358128D01*
Y0355053D01*
X0359179D01*
Y0355353D01*
X0359187Y0355277D01*
X0359211Y0355209D01*
X0359252Y0355149D01*
X0359309Y0355097D01*
X0359382Y0355053D01*
X0360203D01*
Y0357128D01*
D02*
G37*
G36*
X0357128D02*
X0355053D01*
Y0355053D01*
X0355865D01*
X0355937Y0355097D01*
X0355993Y0355149D01*
X0356033Y0355209D01*
X0356057Y0355277D01*
X0356065Y0355353D01*
Y0355053D01*
X0357128D01*
Y0356104D01*
X0356828D01*
X0356904Y0356112D01*
X0356972Y0356136D01*
X0357032Y0356177D01*
X0357084Y0356234D01*
X0357128Y0356307D01*
X0357128Y0356307D01*
Y0357128D01*
D02*
G37*
G36*
X0367247D02*
X0365172D01*
Y0355053D01*
X0366223D01*
Y03556D01*
X0366231Y0355524D01*
X0366255Y0355456D01*
X0366296Y0355396D01*
X0366353Y0355344D01*
X0366426Y03553D01*
X0366515Y0355264D01*
X0366621Y0355236D01*
X0366742Y0355216D01*
X0366881Y0355204D01*
X0367035Y03552D01*
Y0355053D01*
X0367247D01*
Y0357128D01*
D02*
G37*
G36*
X0351975D02*
X03499D01*
Y0356591D01*
X0349933Y0356468D01*
X0349978Y0356357D01*
X0350033Y0356265D01*
X0350098Y0356195D01*
X0350173Y0356144D01*
X0350258Y0356114D01*
X0350353Y0356104D01*
X03499D01*
Y0355053D01*
X0350951D01*
Y0355353D01*
X0350959Y0355277D01*
X0350983Y0355209D01*
X0351024Y0355149D01*
X0351081Y0355097D01*
X0351154Y0355053D01*
X0351975D01*
Y0357128D01*
D02*
G37*
G36*
X0364172D02*
X0362097D01*
Y0355053D01*
X0362909D01*
D01*
X0362981Y0355097D01*
X0363037Y0355149D01*
X0363077Y0355209D01*
X0363101Y0355277D01*
X0363109Y0355353D01*
Y0355053D01*
X0364172D01*
Y0357128D01*
D02*
G37*
G36*
X03489D02*
X0346825D01*
Y0355053D01*
X03489D01*
Y0356104D01*
X0348353D01*
X0348448Y0356114D01*
X0348533Y0356144D01*
X0348608Y0356195D01*
X0348673Y0356265D01*
X0348728Y0356357D01*
X0348773Y0356468D01*
X0348808Y0356599D01*
X0348833Y0356751D01*
X0348848Y0356923D01*
X0348853Y0357116D01*
X03489D01*
Y0357128D01*
D02*
G37*
G36*
X0330506Y0370506D02*
X0323813D01*
Y0364601D01*
X0325592D01*
Y0361446D01*
X0324601D01*
Y0359413D01*
X03234D01*
X0322898Y0359313D01*
X0322472Y0359028D01*
X0320447Y0357004D01*
X0320163Y0356578D01*
X0320063Y0356076D01*
Y035049D01*
X0317793D01*
X0317371Y0350406D01*
X0317012Y0350166D01*
X0316773Y0349808D01*
X0316689Y0349386D01*
Y0347614D01*
X0316773Y0347192D01*
X0317012Y0346834D01*
X0317371Y0346594D01*
X0317793Y034651D01*
X0324958D01*
X0325381Y0346594D01*
X0325739Y0346834D01*
X0325978Y0347192D01*
X0326062Y0347614D01*
Y0349386D01*
X0325978Y0349808D01*
X0325739Y0350166D01*
X0325381Y0350406D01*
X0324958Y035049D01*
X0322688D01*
Y0355532D01*
X0323944Y0356787D01*
X0324601D01*
Y0354753D01*
X0329719D01*
Y0361446D01*
X0328727D01*
Y0364601D01*
X0330506D01*
Y0370506D01*
D02*
G37*
G36*
X0367247Y0354053D02*
X0366229D01*
X0366223Y0354D01*
Y0354053D01*
X0365172D01*
Y0351978D01*
X0367247D01*
Y0354053D01*
D02*
G37*
G36*
X0364172D02*
X0363109D01*
Y0353753D01*
X0363101Y0353829D01*
X0363077Y0353897D01*
X0363037Y0353957D01*
X0362981Y0354009D01*
X0362909Y0354053D01*
X0362097D01*
Y0351978D01*
X0364172D01*
Y0354053D01*
D02*
G37*
G36*
X0360203Y0354053D02*
X0359382D01*
X0359382Y0354053D01*
X0359309Y0354009D01*
X0359252Y0353957D01*
X0359211Y0353897D01*
X0359187Y0353829D01*
X0359179Y0353753D01*
Y0354053D01*
X0358128D01*
Y0351978D01*
X0360203D01*
Y0354053D01*
D02*
G37*
G36*
X0357128D02*
X0356065D01*
Y0353753D01*
X0356057Y0353829D01*
X0356033Y0353897D01*
X0355993Y0353957D01*
X0355937Y0354009D01*
X0355865Y0354053D01*
X0355865Y0354053D01*
X0355053D01*
Y0351978D01*
X0357128D01*
Y0354053D01*
D02*
G37*
G36*
X0351975Y0354053D02*
X0351154D01*
D01*
X0351081Y0354009D01*
X0351024Y0353957D01*
X0350983Y0353897D01*
X0350959Y0353829D01*
X0350951Y0353753D01*
Y0354053D01*
X03499D01*
Y0351978D01*
X0351975D01*
Y0354053D01*
D02*
G37*
G36*
X0257603Y035428D02*
X0255528D01*
Y0352205D01*
X0256579D01*
Y0352706D01*
X0256589Y035261D01*
X0256619Y0352525D01*
X025667Y035245D01*
X0256741Y0352385D01*
X0256832Y035233D01*
X0256943Y0352286D01*
X0257075Y0352251D01*
X0257226Y0352225D01*
X0257399Y035221D01*
X025759Y0352205D01*
X0257603D01*
Y035428D01*
D02*
G37*
G36*
X0254528D02*
X0252453D01*
Y0352205D01*
X0252466D01*
X0252655Y035221D01*
X0252825Y0352225D01*
X0252975Y0352251D01*
X0253105Y0352286D01*
X0253215Y035233D01*
X0253305Y0352385D01*
X0253375Y035245D01*
X0253425Y0352525D01*
X0253455Y035261D01*
X0253465Y0352706D01*
Y0352205D01*
X0254528D01*
Y035428D01*
D02*
G37*
G36*
X0249375D02*
X02473D01*
Y0352205D01*
X0248351D01*
Y0352706D01*
X0248361Y035261D01*
X0248391Y0352525D01*
X0248442Y035245D01*
X0248513Y0352385D01*
X0248604Y035233D01*
X0248715Y0352286D01*
X0248847Y0352251D01*
X0248998Y0352225D01*
X024917Y035221D01*
X0249363Y0352205D01*
X0249375D01*
Y035428D01*
D02*
G37*
G36*
X02463D02*
X0244225D01*
Y0352205D01*
X0244237D01*
D01*
X0244427Y035221D01*
X0244597Y0352225D01*
X0244747Y0352251D01*
X0244877Y0352286D01*
X0244987Y035233D01*
X0245077Y0352385D01*
X0245147Y035245D01*
X0245197Y0352525D01*
X0245227Y035261D01*
X0245237Y0352706D01*
Y0352205D01*
X02463D01*
Y035428D01*
D02*
G37*
G36*
X03489Y0354053D02*
X0346825D01*
Y0351978D01*
X03489D01*
Y0354053D01*
D02*
G37*
G36*
X0257603Y0351205D02*
X0257591D01*
Y0351205D01*
X0257399Y0351201D01*
X0257226Y0351185D01*
X0257075Y0351161D01*
X0256943Y0351126D01*
X0256832Y035108D01*
X0256741Y0351026D01*
X025667Y035096D01*
X0256619Y0350886D01*
X0256589Y03508D01*
X0256579Y0350706D01*
Y0351205D01*
X0255528D01*
Y0349131D01*
X0257603D01*
Y0351205D01*
D02*
G37*
G36*
X0254528D02*
X0253465D01*
Y0350706D01*
X0253455Y03508D01*
X0253425Y0350886D01*
X0253375Y035096D01*
X0253305Y0351026D01*
X0253215Y035108D01*
X0253105Y0351126D01*
X0252975Y0351161D01*
X0252825Y0351185D01*
X0252655Y0351201D01*
X0252465Y0351205D01*
Y0351205D01*
X0252453D01*
Y0349131D01*
X0254528D01*
Y0351205D01*
D02*
G37*
G36*
X0249375Y0351205D02*
X0249363D01*
D01*
X024917Y0351201D01*
X0248998Y0351185D01*
X0248847Y0351161D01*
X0248715Y0351126D01*
X0248604Y035108D01*
X0248513Y0351026D01*
X0248442Y035096D01*
X0248391Y0350886D01*
X0248361Y03508D01*
X0248351Y0350706D01*
Y0351205D01*
X02473D01*
Y0349131D01*
X0249375D01*
Y0351205D01*
D02*
G37*
G36*
X02463D02*
X0245237D01*
Y0350706D01*
X0245227Y03508D01*
X0245197Y0350886D01*
X0245147Y035096D01*
X0245077Y0351026D01*
X0244987Y035108D01*
X0244877Y0351126D01*
X0244747Y0351161D01*
X0244597Y0351185D01*
X0244427Y0351201D01*
X0244237Y0351205D01*
X0244225D01*
Y0349131D01*
X02463D01*
Y0351205D01*
D02*
G37*
G36*
X0391746Y035035D02*
X03917D01*
Y03467D01*
X039535D01*
Y0346746D01*
X0395067Y0347802D01*
X039452Y0348748D01*
X0393748Y034952D01*
X0392802Y0350067D01*
X0391746Y035035D01*
D02*
G37*
G36*
X03907D02*
X0390654D01*
X0389598Y0350067D01*
X0388652Y034952D01*
X0387879Y0348748D01*
X0387333Y0347802D01*
X038705Y0346746D01*
Y03467D01*
X03907D01*
Y035035D01*
D02*
G37*
G36*
X0337987Y0370506D02*
X0331294D01*
Y0364601D01*
X0333073D01*
Y0361446D01*
X0332081D01*
Y0354753D01*
X0337199D01*
Y0356787D01*
X0338256D01*
X0339512Y0355532D01*
Y035049D01*
X0337242D01*
X0336819Y0350406D01*
X0336461Y0350166D01*
X0336222Y0349808D01*
X0336138Y0349386D01*
Y0347614D01*
X0336222Y0347192D01*
X0336461Y0346834D01*
X0336819Y0346594D01*
X0337242Y034651D01*
X0344407D01*
X034483Y0346594D01*
X0345188Y0346834D01*
X0345427Y0347192D01*
X0345511Y0347614D01*
Y0349386D01*
X0345427Y0349808D01*
X0345188Y0350166D01*
X034483Y0350406D01*
X0344407Y035049D01*
X0342137D01*
Y0356076D01*
X0342037Y0356578D01*
X0341753Y0357004D01*
X0339728Y0359028D01*
X0339302Y0359313D01*
X03388Y0359413D01*
X0337199D01*
Y0361446D01*
X0336208D01*
Y0364601D01*
X0337987D01*
Y0370506D01*
D02*
G37*
G36*
X0324958Y0345707D02*
X0321876D01*
Y0344D01*
X0326279D01*
Y0344386D01*
X0326178Y0344891D01*
X0325892Y034532D01*
X0325464Y0345606D01*
X0324958Y0345707D01*
D02*
G37*
G36*
X0320876D02*
X0317793D01*
X0317287Y0345606D01*
X0316859Y034532D01*
X0316573Y0344891D01*
X0316472Y0344386D01*
Y0344D01*
X0317213D01*
X0317274Y0344024D01*
X0317365Y0344079D01*
X0317435Y0344144D01*
X0317484Y0344218D01*
X0317512Y0344303D01*
X0317519Y0344398D01*
X0317533Y0344D01*
X0320876D01*
Y0345707D01*
D02*
G37*
G36*
Y0343D02*
X0317568D01*
X0317589Y034241D01*
X0317519Y0342503D01*
X0317441Y0342586D01*
X0317354Y034266D01*
X0317258Y0342724D01*
X0317154Y0342777D01*
X0317041Y0342822D01*
X031692Y0342856D01*
X031679Y034288D01*
X0316651Y0342895D01*
X0316504Y03429D01*
Y0343D01*
X0316472D01*
Y0342614D01*
X0316573Y0342109D01*
X0316859Y034168D01*
X0317287Y0341394D01*
X0317793Y0341294D01*
X0320602D01*
X0320596Y034137D01*
X0320558Y0341597D01*
X0320506Y0341793D01*
X0320438Y0341959D01*
X0320356Y0342095D01*
X0320258Y0342201D01*
X0320146Y0342277D01*
X0320018Y0342322D01*
X0319876Y0342337D01*
X0320876D01*
Y0343D01*
D02*
G37*
G36*
X039535Y03457D02*
X03917D01*
Y034205D01*
X0391746D01*
X0392802Y0342333D01*
X0393748Y034288D01*
X039452Y0343652D01*
X0395067Y0344598D01*
X039535Y0345654D01*
Y03457D01*
D02*
G37*
G36*
X03907D02*
X038705D01*
Y0345654D01*
X0387333Y0344598D01*
X0387879Y0343652D01*
X0388652Y034288D01*
X0389598Y0342333D01*
X0390654Y034205D01*
X03907D01*
Y03457D01*
D02*
G37*
G36*
X0326279Y0343D02*
X0321876D01*
Y0342337D01*
X0322876D01*
X0322733Y0342322D01*
X0322606Y0342277D01*
X0322493Y0342201D01*
X0322396Y0342095D01*
X0322313Y0341959D01*
X0322246Y0341793D01*
X0322193Y0341597D01*
X0322156Y034137D01*
X0322149Y0341294D01*
X0324958D01*
X0325464Y0341394D01*
X0325892Y034168D01*
X0326178Y0342109D01*
X0326279Y0342614D01*
Y0343D01*
D02*
G37*
G36*
X0324958Y0340706D02*
X0322149D01*
X0322156Y034063D01*
X0322193Y0340404D01*
X0322246Y0340207D01*
X0322313Y0340041D01*
X0322396Y0339905D01*
X0322493Y0339799D01*
X0322606Y0339723D01*
X0322733Y0339678D01*
X0322876Y0339663D01*
X0321876D01*
Y0339D01*
X0326279D01*
Y0339386D01*
X0326178Y0339891D01*
X0325892Y034032D01*
X0325464Y0340606D01*
X0324958Y0340706D01*
D02*
G37*
G36*
X0320602D02*
X0317793D01*
X0317287Y0340606D01*
X0316859Y034032D01*
X0316573Y0339891D01*
X0316472Y0339386D01*
Y0339D01*
X0320876D01*
Y0339663D01*
X0319876D01*
X0320018Y0339678D01*
X0320146Y0339723D01*
X0320258Y0339799D01*
X0320356Y0339905D01*
X0320438Y0340041D01*
X0320506Y0340207D01*
X0320558Y0340404D01*
X0320596Y034063D01*
X0320602Y0340706D01*
D02*
G37*
G36*
X03489Y0340069D02*
X0346825D01*
Y0337995D01*
X03489D01*
Y0340069D01*
D02*
G37*
G36*
X0326279Y0338D02*
X0321876D01*
Y0336294D01*
X0324958D01*
X0325464Y0336394D01*
X0325892Y033668D01*
X0326178Y0337109D01*
X0326279Y0337614D01*
Y0338D01*
D02*
G37*
G36*
X0320876D02*
X0316472D01*
Y0337614D01*
X0316573Y0337109D01*
X0316859Y033668D01*
X0317287Y0336394D01*
X0317793Y0336294D01*
X0320876D01*
Y0338D01*
D02*
G37*
G36*
X0249162Y0339935D02*
X0244438D01*
Y033521D01*
X0249162D01*
Y0336362D01*
X0252441D01*
Y0335703D01*
X0257559D01*
Y0339443D01*
X0252441D01*
Y0338783D01*
X0249162D01*
Y0339935D01*
D02*
G37*
G36*
X03489Y0336995D02*
X0346825D01*
Y033492D01*
X03489D01*
Y0335804D01*
X0348855Y0335853D01*
X034878Y0335903D01*
X0348695Y0335934D01*
X03486Y0335944D01*
X03489D01*
Y0336995D01*
D02*
G37*
G36*
X0268595Y0335975D02*
X026652D01*
Y03339D01*
X0268595D01*
Y0334951D01*
X0268D01*
X0268095Y0334961D01*
X026818Y0334991D01*
X0268255Y0335042D01*
X026832Y0335113D01*
X0268375Y0335204D01*
X026842Y0335315D01*
X0268455Y0335447D01*
X026848Y0335598D01*
X0268495Y0335771D01*
X02685Y0335963D01*
X0268595D01*
Y0335975D01*
D02*
G37*
G36*
X026107Y0333962D02*
X026013D01*
X0259262Y0333603D01*
X0258597Y0332938D01*
X0258545Y0332811D01*
X0257559D01*
Y0333734D01*
X0252441D01*
Y0329994D01*
X0257559D01*
Y0330389D01*
X0258545D01*
X0258597Y0330262D01*
X0259262Y0329597D01*
X026013Y0329238D01*
X026107D01*
X0261938Y0329597D01*
X0262603Y0330262D01*
X0262962Y033113D01*
Y033207D01*
X0262603Y0332938D01*
X0261938Y0333603D01*
X026107Y0333962D01*
D02*
G37*
G36*
X0249375Y0333848D02*
X02473D01*
Y0331773D01*
X0249375D01*
Y0333848D01*
D02*
G37*
G36*
X02463D02*
X0244225D01*
Y0331773D01*
X02463D01*
Y0333848D01*
D02*
G37*
G36*
X0324958Y033549D02*
X0317793D01*
X0317371Y0335406D01*
X0317012Y0335166D01*
X0316773Y0334808D01*
X0316689Y0334386D01*
Y0332614D01*
X0316773Y0332192D01*
X0317012Y0331834D01*
X0317371Y0331594D01*
X0317793Y033151D01*
X0324958D01*
X0325381Y0331594D01*
X0325739Y0331834D01*
X0325978Y0332192D01*
X0326062Y0332614D01*
Y0334386D01*
X0325978Y0334808D01*
X0325739Y0335166D01*
X0325381Y0335406D01*
X0324958Y033549D01*
D02*
G37*
G36*
X0268595Y03329D02*
X026652D01*
Y0330825D01*
X0268595D01*
Y0330837D01*
X0268589Y0331027D01*
X0268575Y0331197D01*
X0268549Y0331347D01*
X0268514Y0331477D01*
X026847Y0331587D01*
X0268414Y0331677D01*
X026835Y0331747D01*
X0268274Y0331797D01*
X026819Y0331827D01*
X0268094Y0331837D01*
X0268595D01*
Y03329D01*
D02*
G37*
G36*
X0249375Y0330773D02*
X02473D01*
Y0329723D01*
X02478D01*
X0247705Y0329713D01*
X024762Y0329682D01*
X0247545Y0329632D01*
X024748Y0329561D01*
X0247425Y032947D01*
X024738Y0329358D01*
X0247345Y0329227D01*
X024732Y0329075D01*
X0247308Y0328941D01*
X024731Y032891D01*
X024734Y032874D01*
X0247354Y0328699D01*
X0249375D01*
Y0330773D01*
D02*
G37*
G36*
X02463D02*
X0244225D01*
Y0328699D01*
X0246246D01*
X024626Y032874D01*
X024629Y032891D01*
X0246292Y0328941D01*
X024628Y0329075D01*
X0246255Y0329227D01*
X024622Y0329358D01*
X0246175Y032947D01*
X024612Y0329561D01*
X0246055Y0329632D01*
X024598Y0329682D01*
X0245895Y0329713D01*
X02458Y0329723D01*
X02463D01*
Y0330773D01*
D02*
G37*
G36*
X0268595Y0329875D02*
X026652D01*
Y03278D01*
X0268595D01*
Y0328851D01*
X0268094D01*
X026819Y0328861D01*
X0268274Y0328891D01*
X026835Y0328942D01*
X0268414Y0329013D01*
X026847Y0329104D01*
X0268514Y0329215D01*
X0268549Y0329347D01*
X0268575Y0329499D01*
X0268589Y0329671D01*
X0268595Y0329863D01*
Y0329875D01*
D02*
G37*
G36*
X0286183Y0330044D02*
X02846D01*
Y0327772D01*
X0286183D01*
Y0330044D01*
D02*
G37*
G36*
X02836D02*
X0282017D01*
Y0327772D01*
X02836D01*
Y0330044D01*
D02*
G37*
G36*
X0315328Y0328104D02*
X0313056D01*
Y0326521D01*
X0315328D01*
Y0328104D01*
D02*
G37*
G36*
X0312056D02*
X0309784D01*
Y0326521D01*
X0310228D01*
X0310289Y0326527D01*
X031041Y0326547D01*
X0310516Y0326575D01*
X0310605Y0326611D01*
X0310678Y0326655D01*
X0310735Y0326707D01*
X0310776Y0326767D01*
X03108Y0326835D01*
X0310808Y0326911D01*
Y0326521D01*
X0312056D01*
Y0328104D01*
D02*
G37*
G36*
Y0325521D02*
X0310808D01*
Y0325311D01*
X03108Y0325387D01*
X0310776Y0325455D01*
X0310735Y0325515D01*
X0310728Y0325521D01*
X0309784D01*
Y0323939D01*
X0312056D01*
Y0325521D01*
D02*
G37*
G36*
X0286183Y0326772D02*
X02846D01*
Y0325524D01*
X02851D01*
X0285005Y0325514D01*
X028492Y0325484D01*
X0284845Y0325433D01*
X028478Y0325362D01*
X0284725Y0325271D01*
X028468Y032516D01*
X0284645Y0325028D01*
X028462Y0324877D01*
X0284605Y0324705D01*
X02846Y0324512D01*
X02846D01*
Y03245D01*
X0286183D01*
Y0326772D01*
D02*
G37*
G36*
X02836D02*
X0282017D01*
Y03245D01*
X02836D01*
Y0324513D01*
X0283595Y0324705D01*
X028358Y0324877D01*
X0283555Y0325028D01*
X028352Y032516D01*
X0283475Y0325271D01*
X028342Y0325362D01*
X0283355Y0325433D01*
X028328Y0325484D01*
X0283195Y0325514D01*
X02831Y0325524D01*
X02836D01*
Y0326772D01*
D02*
G37*
G36*
X0315328Y0325521D02*
X0313056D01*
Y0323939D01*
X0315328D01*
Y0325521D01*
D02*
G37*
G36*
X0249162Y0325666D02*
X0244438D01*
Y0320942D01*
X0249162D01*
Y0322093D01*
X0252441D01*
Y0321434D01*
X0257559D01*
Y0325174D01*
X0252441D01*
Y0324515D01*
X0249162D01*
Y0325666D01*
D02*
G37*
G36*
X0291725Y0323448D02*
X0289355D01*
Y03197D01*
X0291725D01*
Y0323448D01*
D02*
G37*
G36*
X0288355D02*
X0285985D01*
Y03197D01*
X0288355D01*
Y0323448D01*
D02*
G37*
G36*
X0249375Y031958D02*
X02473D01*
Y0317505D01*
X0249375D01*
Y031958D01*
D02*
G37*
G36*
X02463D02*
X0244225D01*
Y0317505D01*
X0244237D01*
D01*
X0244429Y031751D01*
X0244601Y0317525D01*
X0244753Y031755D01*
X0244885Y0317585D01*
X0244996Y031763D01*
X0245087Y0317685D01*
X0245158Y031775D01*
X0245209Y0317825D01*
X0245239Y031791D01*
X0245249Y0318005D01*
Y0317505D01*
X02463D01*
Y031958D01*
D02*
G37*
G36*
X02238Y0320671D02*
Y0317D01*
X0227813D01*
X0227736Y0317583D01*
X0227318Y0318593D01*
X0226653Y031946D01*
X0225786Y0320125D01*
X0224777Y0320543D01*
X02238Y0320671D01*
D02*
G37*
G36*
X02228D02*
X0221823Y0320543D01*
X0220814Y0320125D01*
X0219947Y031946D01*
X0219282Y0318593D01*
X0218864Y0317583D01*
X0218787Y0317D01*
X02228D01*
Y0320671D01*
D02*
G37*
G36*
X02463Y0316505D02*
X0245249D01*
Y0316005D01*
X0245239Y03161D01*
X0245209Y0316185D01*
X0245158Y031626D01*
X0245087Y0316325D01*
X0244996Y031638D01*
X0244885Y0316425D01*
X0244753Y031646D01*
X0244601Y0316485D01*
X0244429Y03165D01*
X0244237Y0316505D01*
X0244225D01*
Y031443D01*
X02463D01*
Y0316505D01*
D02*
G37*
G36*
X0291725Y03187D02*
X0289355D01*
Y0315964D01*
X0289855D01*
X028976Y0315954D01*
X0289675Y0315924D01*
X02896Y0315874D01*
X0289535Y0315804D01*
X028948Y0315714D01*
X0289435Y0315604D01*
X02894Y0315474D01*
X0289375Y0315324D01*
X028936Y0315154D01*
X0289355Y0314964D01*
Y0314952D01*
X0291725D01*
Y03187D01*
D02*
G37*
G36*
X0288355D02*
X0285985D01*
Y0314952D01*
X0288189D01*
X0288195Y031496D01*
X0288265Y031509D01*
X0288315Y031524D01*
X0288333Y0315339D01*
X028831Y0315474D01*
X0288275Y0315604D01*
X028823Y0315714D01*
X0288175Y0315804D01*
X028811Y0315874D01*
X0288035Y0315924D01*
X028795Y0315954D01*
X0287855Y0315964D01*
X0288355D01*
Y03187D01*
D02*
G37*
G36*
X0249375Y0316505D02*
X02473D01*
Y031443D01*
X0249375D01*
Y0316505D01*
D02*
G37*
G36*
X0227813Y0316D02*
X02238D01*
Y0312329D01*
X0224777Y0312457D01*
X0225786Y0312875D01*
X0226653Y0313541D01*
X0227318Y0314407D01*
X0227736Y0315417D01*
X0227813Y0316D01*
D02*
G37*
G36*
X02228D02*
X0218787D01*
X0218864Y0315417D01*
X0219282Y0314407D01*
X0219947Y0313541D01*
X0220814Y0312875D01*
X0221823Y0312457D01*
X02228Y0312329D01*
Y0316D01*
D02*
G37*
G36*
X0249162Y03113D02*
X0244438D01*
Y0306576D01*
X0249162D01*
Y0307728D01*
X0252441D01*
Y0307068D01*
X0257559D01*
Y0310808D01*
X0252441D01*
Y0310149D01*
X0249162D01*
Y03113D01*
D02*
G37*
G36*
X0381447Y0303856D02*
X0380415Y0303856D01*
X0380415Y0303856D01*
X0379383Y0303856D01*
X0377336Y0303587D01*
X0375342Y0303052D01*
X0373435Y0302262D01*
X0371647Y030123D01*
X037001Y0299974D01*
X036855Y0298514D01*
X0367293Y0296876D01*
X0366261Y0295088D01*
X0365471Y0293181D01*
X0364937Y0291187D01*
X0364667Y0289141D01*
X0364667Y0288108D01*
X0364667Y0288108D01*
X0364667Y0287076D01*
X0364937Y0285029D01*
X0365471Y0283035D01*
X0366261Y0281128D01*
X0367293Y027934D01*
X036855Y0277703D01*
X037001Y0276243D01*
X0371648Y0274986D01*
X0373435Y0273954D01*
X0375342Y0273164D01*
X0377337Y027263D01*
X0379383Y027236D01*
X0380416D01*
X0381448Y027236D01*
X0383494Y027263D01*
X0385488Y0273164D01*
X0387396Y0273954D01*
X0389183Y0274986D01*
X0390821Y0276243D01*
X0392281Y0277702D01*
X0393537Y027934D01*
X039457Y0281128D01*
X039536Y0283035D01*
X0395894Y0285029D01*
X0396163Y0287076D01*
X0396163Y0288108D01*
X0396163Y0288108D01*
X0396163Y0288108D01*
X0396163Y028914D01*
X0395894Y0291187D01*
X0395359Y0293181D01*
X0394569Y0295088D01*
X0393537Y0296876D01*
X0392281Y0298514D01*
X0390821Y0299974D01*
X0389183Y030123D01*
X0387395Y0302262D01*
X0385488Y0303052D01*
X0383494Y0303587D01*
X0381447Y0303856D01*
D02*
G37*
G36*
X0249375Y0305214D02*
X02473D01*
Y0303139D01*
X0249375D01*
Y0305214D01*
D02*
G37*
G36*
X02463D02*
X0244225D01*
Y0303139D01*
X0244237D01*
Y0303139D01*
X0244429Y0303144D01*
X0244601Y0303159D01*
X0244753Y0303184D01*
X0244885Y0303219D01*
X0244996Y0303264D01*
X0245087Y0303319D01*
X0245158Y0303384D01*
X0245209Y0303459D01*
X0245239Y0303544D01*
X0245249Y0303639D01*
Y0303139D01*
X02463D01*
Y0305214D01*
D02*
G37*
G36*
X0249375Y0302139D02*
X02473D01*
Y0300064D01*
X0249375D01*
Y0302139D01*
D02*
G37*
G36*
X025912Y0294053D02*
X02591D01*
Y02906D01*
X0261378D01*
Y02911D01*
X0261422Y0291005D01*
X0261481Y029092D01*
X0261556Y0290845D01*
X0261646Y029078D01*
X0261751Y0290725D01*
X0261872Y029068D01*
X0262009Y0290645D01*
X026216Y029062D01*
X0262328Y0290605D01*
X026251Y02906D01*
X0262553D01*
Y029062D01*
X0262283Y0291626D01*
X0261763Y0292527D01*
X0261027Y0293263D01*
X0260126Y0293783D01*
X025912Y0294053D01*
D02*
G37*
G36*
X02581D02*
X025808D01*
X0257074Y0293783D01*
X0256173Y0293263D01*
X0255437Y0292527D01*
X0254917Y0291626D01*
X0254647Y029062D01*
Y02906D01*
X02581D01*
Y0294053D01*
D02*
G37*
G36*
X0262553Y02896D02*
X026251D01*
D01*
X0262328Y0289595D01*
X026216Y028958D01*
X0262009Y0289555D01*
X0261872Y028952D01*
X0261751Y0289475D01*
X0261646Y028942D01*
X0261556Y0289355D01*
X0261481Y028928D01*
X0261422Y0289195D01*
X0261378Y02891D01*
Y02896D01*
X02586D01*
X0254647D01*
Y028958D01*
X0254917Y0288574D01*
X0255437Y0287673D01*
X0256173Y0286937D01*
X0257074Y0286417D01*
X0257836Y0286213D01*
X025777Y0285713D01*
X02555D01*
X0254998Y0285613D01*
X0254572Y0285328D01*
X0250661Y0281417D01*
X0250544Y0281485D01*
X0249592Y028174D01*
X0248608D01*
X0247656Y0281485D01*
X0246803Y0280993D01*
X0246107Y0280296D01*
X0245615Y0279444D01*
X024536Y0278492D01*
Y0277508D01*
X0245615Y0276556D01*
X0246107Y0275704D01*
X0246803Y0275007D01*
X0247656Y0274515D01*
X0248608Y027426D01*
X0249592D01*
X0250544Y0274515D01*
X0251396Y0275007D01*
X0252093Y0275704D01*
X0252585Y0276556D01*
X025284Y0277508D01*
Y0278492D01*
X0252585Y0279444D01*
X0252517Y0279561D01*
X0256044Y0283087D01*
X0264487D01*
X0264497Y0283062D01*
X0265162Y0282397D01*
X026603Y0282038D01*
X026697D01*
X0267838Y0282397D01*
X0268503Y0283062D01*
X0268862Y028393D01*
Y028487D01*
X0268503Y0285738D01*
X0267838Y0286403D01*
X026697Y0286762D01*
X026603D01*
X0265162Y0286403D01*
X0264497Y0285738D01*
X0264487Y0285713D01*
X025943D01*
X0259364Y0286213D01*
X0260126Y0286417D01*
X0261027Y0286937D01*
X0261763Y0287673D01*
X0262283Y0288574D01*
X0262553Y028958D01*
Y02896D01*
D02*
G37*
G36*
X0319528Y0282753D02*
X0318465D01*
Y02822D01*
X0318457Y0282276D01*
X0318433Y0282344D01*
X0318393Y0282404D01*
X0318337Y0282456D01*
X0318265Y02825D01*
X0318177Y0282536D01*
X0318073Y0282564D01*
X0317953Y0282584D01*
X0317817Y0282596D01*
X0317665Y02826D01*
Y0282753D01*
X0317453D01*
Y0280678D01*
X0319528D01*
Y0282753D01*
D02*
G37*
G36*
X0322603D02*
X0322591D01*
Y02825D01*
X0322398Y0282495D01*
X0322226Y028248D01*
X0322075Y0282455D01*
X0321943Y028242D01*
X0321832Y0282375D01*
X0321741Y028232D01*
X032167Y0282255D01*
X0321619Y028218D01*
X0321589Y0282095D01*
X0321579Y0282D01*
Y0282753D01*
X0320528D01*
Y0280678D01*
X0322603D01*
Y0282753D01*
D02*
G37*
G36*
X0336075Y0285665D02*
X0335D01*
Y02816D01*
X0338672D01*
Y0283068D01*
X0338583Y0283741D01*
X0338324Y0284367D01*
X0337911Y0284905D01*
X0337373Y0285318D01*
X0336747Y0285577D01*
X0336075Y0285665D01*
D02*
G37*
G36*
X0334D02*
X0332925D01*
X0332253Y0285577D01*
X0331627Y0285318D01*
X0331089Y0284905D01*
X0330676Y0284367D01*
X0330417Y0283741D01*
X0330328Y0283068D01*
Y02816D01*
X0330349D01*
D01*
X0330541Y0281605D01*
X0330713Y028162D01*
X0330865Y0281645D01*
X0330997Y028168D01*
X0331108Y0281725D01*
X0331199Y028178D01*
X033127Y0281845D01*
X033132Y028192D01*
X0331351Y0282005D01*
X0331361Y02821D01*
Y02816D01*
X0334D01*
Y0285665D01*
D02*
G37*
G36*
X0282375Y0280669D02*
X02803D01*
Y0278594D01*
X0281363D01*
Y0279095D01*
X0281373Y0278999D01*
X0281403Y0278914D01*
X0281453Y0278839D01*
X0281523Y0278774D01*
X0281613Y0278719D01*
X0281723Y0278675D01*
X0281853Y027864D01*
X0282003Y0278614D01*
X0282173Y02786D01*
X0282363Y0278594D01*
Y0278594D01*
X0282375D01*
Y0280669D01*
D02*
G37*
G36*
X02793D02*
X0277225D01*
Y0278594D01*
X0277237D01*
Y0278594D01*
X027743Y02786D01*
X0277602Y0278614D01*
X0277753Y027864D01*
X0277885Y0278675D01*
X0277996Y0278719D01*
X0278087Y0278774D01*
X0278158Y0278839D01*
X0278209Y0278914D01*
X0278239Y0278999D01*
X0278249Y0279095D01*
Y0278594D01*
X02793D01*
Y0280669D01*
D02*
G37*
G36*
X0282375Y0277594D02*
X0282362D01*
X0282173Y027759D01*
X0282003Y0277574D01*
X0281853Y027755D01*
X0281723Y0277515D01*
X0281613Y0277469D01*
X0281523Y0277414D01*
X0281453Y0277349D01*
X0281403Y0277274D01*
X0281373Y0277189D01*
X0281363Y0277095D01*
Y0277594D01*
X02803D01*
Y027552D01*
X0282375D01*
Y0277594D01*
D02*
G37*
G36*
X02793D02*
X0278249D01*
Y0277095D01*
X0278239Y0277189D01*
X0278209Y0277274D01*
X0278158Y0277349D01*
X0278087Y0277414D01*
X0277996Y0277469D01*
X0277885Y0277515D01*
X0277753Y027755D01*
X0277602Y0277574D01*
X027743Y027759D01*
X0277238Y0277594D01*
X0277225D01*
Y027552D01*
X02793D01*
Y0277594D01*
D02*
G37*
G36*
X0259092Y028174D02*
X0258108D01*
X0257156Y0281485D01*
X0256304Y0280993D01*
X0255607Y0280296D01*
X0255115Y0279444D01*
X025486Y0278492D01*
Y0277508D01*
X0255115Y0276556D01*
X0255607Y0275704D01*
X0256304Y0275007D01*
X0257156Y0274515D01*
X0258108Y027426D01*
X0259092D01*
X0260044Y0274515D01*
X0260896Y0275007D01*
X0261593Y0275704D01*
X0262085Y0276556D01*
X0262107Y0276637D01*
X0264566D01*
X0264597Y0276562D01*
X0265262Y0275897D01*
X026613Y0275538D01*
X026707D01*
X0267938Y0275897D01*
X0268603Y0276562D01*
X0268962Y027743D01*
Y027837D01*
X0268603Y0279238D01*
X0267938Y0279903D01*
X026707Y0280262D01*
X026613D01*
X0265262Y0279903D01*
X0264622Y0279263D01*
X0262134D01*
X0262085Y0279444D01*
X0261593Y0280296D01*
X0260896Y0280993D01*
X0260044Y0281485D01*
X0259092Y028174D01*
D02*
G37*
%LPD*%
G36*
X0382187Y0416152D02*
X0382778Y0416053D01*
X038327Y0415955D01*
X0384156Y0415758D01*
X0385041Y0415463D01*
X0385829Y0415167D01*
X0386715Y0414774D01*
X03876Y0414282D01*
X0388388Y0413789D01*
X0389175Y0413199D01*
X0389963Y041251D01*
X0386321Y0408868D01*
X0385829Y0409262D01*
X0385337Y0409656D01*
X0384844Y0409951D01*
X0384254Y0410246D01*
X0383565Y0410541D01*
X0382679Y0410837D01*
X0381695Y0411033D01*
X0380809Y0411132D01*
Y041625D01*
X0382187Y0416152D01*
D02*
G37*
G36*
X0380022Y0411132D02*
X0379136Y0411033D01*
X0378152Y0410837D01*
X0377266Y0410541D01*
X0376577Y0410246D01*
X0375986Y0409951D01*
X0375494Y0409656D01*
X0375002Y0409262D01*
X037451Y0408868D01*
X0370868Y041251D01*
X0371656Y0413199D01*
X0372443Y0413789D01*
X037323Y0414282D01*
X0374116Y0414774D01*
X0375002Y0415167D01*
X0375789Y0415463D01*
X0376675Y0415758D01*
X0377561Y0415955D01*
X0378053Y0416053D01*
X0378644Y0416152D01*
X0380022Y041625D01*
Y0411132D01*
D02*
G37*
G36*
X039134Y0411033D02*
X0391931Y0410246D01*
X0392423Y0409459D01*
X0392915Y0408573D01*
X0393309Y0407687D01*
X0393604Y04069D01*
X03939Y0406014D01*
X0394096Y0405128D01*
X0394195Y0404636D01*
X0394293Y0404045D01*
X0394392Y0402667D01*
X0389274D01*
X0389175Y0403553D01*
X0388978Y0404537D01*
X0388683Y0405423D01*
X0388388Y0406112D01*
X0388092Y0406703D01*
X0387797Y0407195D01*
X0387403Y0407687D01*
X038701Y0408179D01*
X0390652Y0411821D01*
X039134Y0411033D01*
D02*
G37*
G36*
X0373821Y0408179D02*
X0373427Y0407687D01*
X0373033Y0407195D01*
X0372738Y0406703D01*
X0372443Y0406112D01*
X0372148Y0405423D01*
X0371852Y0404537D01*
X0371656Y0403553D01*
X0371557Y0402667D01*
X0366439D01*
X0366537Y0404045D01*
X0366636Y0404636D01*
X0366734Y0405128D01*
X0366931Y0406014D01*
X0367226Y04069D01*
X0367522Y0407687D01*
X0367915Y0408573D01*
X0368408Y0409459D01*
X03689Y0410246D01*
X036949Y0411033D01*
X0370179Y0411821D01*
X0373821Y0408179D01*
D02*
G37*
G36*
X0394293Y0400502D02*
X0394195Y0399911D01*
X0394096Y0399419D01*
X03939Y0398534D01*
X0393604Y0397648D01*
X0393309Y039686D01*
X0392915Y0395974D01*
X0392423Y0395089D01*
X0391931Y0394301D01*
X039134Y0393514D01*
X0390652Y0392726D01*
X038701Y0396368D01*
X0387403Y039686D01*
X0387797Y0397352D01*
X0388092Y0397845D01*
X0388388Y0398435D01*
X0388683Y0399124D01*
X0388978Y040001D01*
X0389175Y0400994D01*
X0389274Y040188D01*
X0394392D01*
X0394293Y0400502D01*
D02*
G37*
G36*
X0371656Y0400994D02*
X0371852Y040001D01*
X0372148Y0399124D01*
X0372443Y0398435D01*
X0372738Y0397845D01*
X0373033Y0397352D01*
X0373427Y039686D01*
X0373821Y0396368D01*
X0370179Y0392726D01*
X036949Y0393514D01*
X03689Y0394301D01*
X0368408Y0395089D01*
X0367915Y0395974D01*
X0367522Y039686D01*
X0367226Y0397648D01*
X0366931Y0398534D01*
X0366734Y0399419D01*
X0366636Y0399911D01*
X0366537Y0400502D01*
X0366439Y040188D01*
X0371557D01*
X0371656Y0400994D01*
D02*
G37*
G36*
X0389963Y0392037D02*
X0389175Y0391348D01*
X0388388Y0390758D01*
X03876Y0390266D01*
X0386715Y0389774D01*
X0385829Y038938D01*
X0385041Y0389085D01*
X0384156Y0388789D01*
X038327Y0388593D01*
X0382778Y0388494D01*
X0382187Y0388396D01*
X0380809Y0388297D01*
Y0393415D01*
X0381695Y0393514D01*
X0382679Y0393711D01*
X0383565Y0394006D01*
X0384254Y0394301D01*
X0384844Y0394597D01*
X0385337Y0394892D01*
X0385829Y0395285D01*
X0386321Y0395679D01*
X0389963Y0392037D01*
D02*
G37*
G36*
X0375002Y0395285D02*
X0375494Y0394892D01*
X0375986Y0394597D01*
X0376577Y0394301D01*
X0377266Y0394006D01*
X0378152Y0393711D01*
X0379136Y0393514D01*
X0380022Y0393415D01*
Y0388297D01*
X0378644Y0388396D01*
X0378053Y0388494D01*
X0377561Y0388593D01*
X0376675Y0388789D01*
X0375789Y0389085D01*
X0375002Y038938D01*
X0374116Y0389774D01*
X037323Y0390266D01*
X0372443Y0390758D01*
X0371656Y0391348D01*
X0370868Y0392037D01*
X037451Y0395679D01*
X0375002Y0395285D01*
D02*
G37*
G36*
X0274058Y03958D02*
X0274532Y0395604D01*
X0274957Y039532D01*
X027532Y0394957D01*
X0275604Y0394532D01*
X02758Y0394058D01*
X02759Y0393556D01*
Y03828D01*
X02759Y03828D01*
Y0382485D01*
X0275777Y0381867D01*
X0275536Y0381284D01*
X0275186Y038076D01*
X027474Y0380314D01*
X0274216Y0379964D01*
X0273633Y0379723D01*
X0273015Y03796D01*
X02727Y03796D01*
X02581D01*
X02581Y03796D01*
X0257835Y0379587D01*
X0257316Y0379484D01*
X0256827Y0379281D01*
X0256387Y0378987D01*
X0256013Y0378613D01*
X0255719Y0378173D01*
X0255516Y0377684D01*
X0255413Y0377165D01*
X02554Y03769D01*
Y0369921D01*
X0255187Y0369407D01*
X0254793Y0369013D01*
X0254278Y03688D01*
X0248022D01*
X0247507Y0369013D01*
X0247113Y0369407D01*
X02469Y0369921D01*
Y03909D01*
X02469Y0391377D01*
X0247265Y039226D01*
X024794Y0392935D01*
X0248823Y03933D01*
X02493Y03933D01*
X0256229Y03933D01*
X02567Y03933D01*
X02567Y03933D01*
X02567Y03933D01*
X0257231Y0393301D01*
X0258281Y0393457D01*
X025928Y0393816D01*
X026019Y0394362D01*
X02606Y03947D01*
X02606Y03947D01*
Y03947D01*
X02606Y0394701D01*
X0260961Y0395036D01*
X0261556Y0395434D01*
X0262302Y0395743D01*
X0263093Y03959D01*
X0263497Y03959D01*
X0273556Y03959D01*
X0274058Y03958D01*
D02*
G37*
G36*
X0237556Y0376278D02*
X023758Y037621D01*
X0237621Y037615D01*
X0237678Y0376098D01*
X0237751Y0376054D01*
X023784Y0376018D01*
X0237946Y037599D01*
X0238067Y037597D01*
X0238205Y0375958D01*
X023836Y0375954D01*
Y0375154D01*
X0238205Y037515D01*
X0238067Y0375138D01*
X0237946Y0375118D01*
X023784Y037509D01*
X0237751Y0375054D01*
X0237678Y037501D01*
X0237621Y0374958D01*
X023758Y0374898D01*
X0237556Y037483D01*
X0237548Y0374754D01*
Y0376354D01*
X0237556Y0376278D01*
D02*
G37*
G36*
X02722Y03706D02*
X0272459Y03706D01*
X0272936Y0370402D01*
X0273302Y0370036D01*
X0273418Y0369757D01*
X02735Y03693D01*
Y03693D01*
X02735D01*
X02735Y03693D01*
X02735Y03645D01*
X02735Y0364261D01*
X0273317Y036382D01*
X027298Y0363483D01*
X0272539Y03633D01*
X02723Y03633D01*
X0264D01*
X0263618Y0363281D01*
X0262868Y0363132D01*
X0262161Y036284D01*
X0261526Y0362415D01*
X0260985Y0361874D01*
X026056Y0361238D01*
X0260268Y0360532D01*
X0260119Y0359782D01*
X02601Y03594D01*
Y0359095D01*
X0259981Y0358496D01*
X0259747Y0357932D01*
X0259408Y0357424D01*
X0258976Y0356992D01*
X0258468Y0356653D01*
X0257904Y0356419D01*
X0257305Y03563D01*
X02479D01*
X0247602Y03563D01*
X024705Y0356528D01*
X0246628Y035695D01*
X02464Y0357502D01*
X02464Y03578D01*
Y0365978D01*
X0246689Y0366676D01*
X0247224Y0367211D01*
X0247922Y03675D01*
X02573D01*
X0257593Y0367529D01*
X0258133Y0367753D01*
X0258547Y0368167D01*
X0258771Y0368707D01*
X02588Y0369D01*
X02588Y0369D01*
Y0369318D01*
X0259044Y0369906D01*
X0259494Y0370356D01*
X0259945Y0370543D01*
X0264262D01*
Y03706D01*
X02722Y03706D01*
D02*
G37*
G36*
X0234052Y0380274D02*
X0234042Y0380369D01*
X0234012Y0380454D01*
X0233961Y0380529D01*
X023389Y0380594D01*
X0233799Y0380649D01*
X0233688Y0380694D01*
X0233557Y0380729D01*
X0233405Y0380754D01*
X0233233Y0380769D01*
X023304Y0380774D01*
Y0381774D01*
X0233233Y0381779D01*
X0233405Y0381794D01*
X0233557Y0381819D01*
X0233688Y0381854D01*
X0233799Y0381899D01*
X023389Y0381954D01*
X0233961Y0382019D01*
X0234012Y0382094D01*
X0234042Y0382179D01*
X0234052Y0382274D01*
Y0380274D01*
D02*
G37*
G36*
X023043Y0382179D02*
X023046Y0382094D01*
X0230511Y0382019D01*
X0230582Y0381954D01*
X0230673Y0381899D01*
X0230784Y0381854D01*
X0230916Y0381819D01*
X0231067Y0381794D01*
X0231239Y0381779D01*
X0231432Y0381774D01*
Y0380774D01*
X0231239Y0380769D01*
X0231067Y0380754D01*
X0230916Y0380729D01*
X0230784Y0380694D01*
X0230673Y0380649D01*
X0230582Y0380594D01*
X0230511Y0380529D01*
X023046Y0380454D01*
X023043Y0380369D01*
X023042Y0380274D01*
Y0382274D01*
X023043Y0382179D01*
D02*
G37*
G36*
X0226924Y0380274D02*
X0226914Y0380369D01*
X0226884Y0380454D01*
X0226833Y0380529D01*
X0226763Y0380594D01*
X0226671Y0380649D01*
X022656Y0380694D01*
X0226429Y0380729D01*
X0226277Y0380754D01*
X0226105Y0380769D01*
X0225912Y0380774D01*
Y0381774D01*
X0226105Y0381779D01*
X0226277Y0381794D01*
X0226429Y0381819D01*
X022656Y0381854D01*
X0226671Y0381899D01*
X0226763Y0381954D01*
X0226833Y0382019D01*
X0226884Y0382094D01*
X0226914Y0382179D01*
X0226924Y0382274D01*
Y0380274D01*
D02*
G37*
G36*
X0223358Y0382179D02*
X0223388Y0382094D01*
X0223439Y0382019D01*
X022351Y0381954D01*
X0223601Y0381899D01*
X0223712Y0381854D01*
X0223844Y0381819D01*
X0223995Y0381794D01*
X0224167Y0381779D01*
X022436Y0381774D01*
Y0380774D01*
X0224167Y0380769D01*
X0223995Y0380754D01*
X0223844Y0380729D01*
X0223712Y0380694D01*
X0223601Y0380649D01*
X022351Y0380594D01*
X0223439Y0380529D01*
X0223388Y0380454D01*
X0223358Y0380369D01*
X0223348Y0380274D01*
Y0382274D01*
X0223358Y0382179D01*
D02*
G37*
G36*
X0365424Y0367333D02*
X0365356Y0367309D01*
X0365296Y0367268D01*
X0365244Y0367211D01*
X03652Y0367138D01*
X0365164Y0367049D01*
X0365136Y0366943D01*
X0365116Y0366822D01*
X0365104Y0366684D01*
X03651Y0366529D01*
X03643D01*
X0364296Y0366684D01*
X0364284Y0366822D01*
X0364264Y0366943D01*
X0364236Y0367049D01*
X03642Y0367138D01*
X0364156Y0367211D01*
X0364104Y0367268D01*
X0364044Y0367309D01*
X0363976Y0367333D01*
X03639Y0367341D01*
X03655D01*
X0365424Y0367333D01*
D02*
G37*
G36*
X0358705Y0367165D02*
X035862Y0367135D01*
X0358545Y0367085D01*
X035848Y0367015D01*
X0358425Y0366925D01*
X035838Y0366815D01*
X0358345Y0366685D01*
X035832Y0366535D01*
X0358305Y0366365D01*
X03583Y0366175D01*
X03573D01*
X0357295Y0366365D01*
X035728Y0366535D01*
X0357255Y0366685D01*
X035722Y0366815D01*
X0357175Y0366925D01*
X035712Y0367015D01*
X0357055Y0367085D01*
X035698Y0367135D01*
X0356895Y0367165D01*
X03568Y0367175D01*
X03588D01*
X0358705Y0367165D01*
D02*
G37*
G36*
X0325412Y0358606D02*
X032663Y0358631D01*
Y0357569D01*
X0326609Y0357575D01*
X0326559Y035758D01*
X0326371Y0357589D01*
X0325412Y0357597D01*
Y03571D01*
X0325402Y0357195D01*
X0325372Y035728D01*
X0325321Y0357355D01*
X032525Y035742D01*
X0325159Y0357475D01*
X0325048Y035752D01*
X0324916Y0357555D01*
X0324764Y035758D01*
X0324592Y0357595D01*
X03244Y03576D01*
Y03586D01*
X0324592Y0358605D01*
X0324764Y035862D01*
X0324916Y0358645D01*
X0325048Y035868D01*
X0325159Y0358725D01*
X032525Y035878D01*
X0325321Y0358845D01*
X0325372Y035892D01*
X0325402Y0359005D01*
X0325412Y03591D01*
Y0358606D01*
D02*
G37*
G36*
X0321881Y0350482D02*
X0321896Y035031D01*
X0321921Y0350159D01*
X0321956Y0350027D01*
X0322001Y0349916D01*
X0322056Y0349825D01*
X0322121Y0349754D01*
X0322196Y0349703D01*
X0322281Y0349673D01*
X0322376Y0349663D01*
X0320376D01*
X0320471Y0349673D01*
X0320556Y0349703D01*
X0320631Y0349754D01*
X0320696Y0349825D01*
X0320751Y0349916D01*
X0320796Y0350027D01*
X0320831Y0350159D01*
X0320856Y035031D01*
X0320871Y0350482D01*
X0320876Y0350675D01*
X0321876D01*
X0321881Y0350482D01*
D02*
G37*
G36*
X0336398Y0359005D02*
X0336428Y035892D01*
X0336479Y0358845D01*
X033655Y035878D01*
X0336641Y0358725D01*
X0336752Y035868D01*
X0336884Y0358645D01*
X0337035Y035862D01*
X0337208Y0358605D01*
X03374Y03586D01*
Y03576D01*
X0337208Y0357595D01*
X0337035Y035758D01*
X0336884Y0357555D01*
X0336752Y035752D01*
X0336641Y0357475D01*
X033655Y035742D01*
X0336479Y0357355D01*
X0336428Y035728D01*
X0336398Y0357195D01*
X0336388Y03571D01*
Y0357594D01*
X033517Y0357569D01*
Y0358631D01*
X0335191Y0358625D01*
X0335241Y035862D01*
X033543Y0358611D01*
X0336388Y0358603D01*
Y03591D01*
X0336398Y0359005D01*
D02*
G37*
G36*
X0341329Y0350482D02*
X0341344Y035031D01*
X0341369Y0350159D01*
X0341404Y0350027D01*
X0341449Y0349916D01*
X0341504Y0349825D01*
X0341569Y0349754D01*
X0341644Y0349703D01*
X0341729Y0349673D01*
X0341824Y0349663D01*
X0339824D01*
X0339919Y0349673D01*
X0340004Y0349703D01*
X0340079Y0349754D01*
X0340144Y0349825D01*
X0340199Y0349916D01*
X0340244Y0350027D01*
X0340279Y0350159D01*
X0340304Y035031D01*
X0340319Y0350482D01*
X0340324Y0350675D01*
X0341324D01*
X0341329Y0350482D01*
D02*
G37*
G36*
X0253252Y0336773D02*
X0253244Y0336849D01*
X025322Y0336917D01*
X0253179Y0336977D01*
X0253122Y0337029D01*
X0253049Y0337073D01*
X025296Y0337109D01*
X0252854Y0337137D01*
X0252733Y0337157D01*
X0252595Y0337169D01*
X025244Y0337173D01*
Y0337973D01*
X0252595Y0337977D01*
X0252733Y0337989D01*
X0252854Y0338009D01*
X025296Y0338037D01*
X0253049Y0338073D01*
X0253122Y0338117D01*
X0253179Y0338169D01*
X025322Y0338229D01*
X0253244Y0338297D01*
X0253252Y0338373D01*
Y0336773D01*
D02*
G37*
G36*
X0248371Y0338297D02*
X0248395Y0338229D01*
X0248435Y0338169D01*
X0248491Y0338117D01*
X0248563Y0338073D01*
X0248651Y0338037D01*
X0248755Y0338009D01*
X0248875Y0337989D01*
X0249011Y0337977D01*
X0249163Y0337973D01*
Y0337173D01*
X0249011Y0337169D01*
X0248875Y0337157D01*
X0248755Y0337137D01*
X0248651Y0337109D01*
X0248563Y0337073D01*
X0248491Y0337029D01*
X0248435Y0336977D01*
X0248395Y0336917D01*
X0248371Y0336849D01*
X0248363Y0336773D01*
Y0338373D01*
X0248371Y0338297D01*
D02*
G37*
G36*
X0256756Y0332324D02*
X025678Y0332256D01*
X0256821Y0332196D01*
X0256878Y0332144D01*
X0256951Y03321D01*
X025704Y0332064D01*
X0257146Y0332036D01*
X0257267Y0332016D01*
X0257405Y0332004D01*
X025756Y0332D01*
Y03312D01*
X0257405Y0331196D01*
X0257267Y0331184D01*
X0257146Y0331164D01*
X025704Y0331136D01*
X0256951Y03311D01*
X0256878Y0331056D01*
X0256821Y0331004D01*
X025678Y0330944D01*
X0256756Y0330876D01*
X0256748Y03308D01*
Y03324D01*
X0256756Y0332324D01*
D02*
G37*
G36*
X0253252Y0322504D02*
X0253244Y032258D01*
X025322Y0322648D01*
X0253179Y0322708D01*
X0253122Y032276D01*
X0253049Y0322804D01*
X025296Y032284D01*
X0252854Y0322868D01*
X0252733Y0322888D01*
X0252595Y03229D01*
X025244Y0322904D01*
Y0323704D01*
X0252595Y0323708D01*
X0252733Y032372D01*
X0252854Y032374D01*
X025296Y0323768D01*
X0253049Y0323804D01*
X0253122Y0323848D01*
X0253179Y03239D01*
X025322Y032396D01*
X0253244Y0324028D01*
X0253252Y0324104D01*
Y0322504D01*
D02*
G37*
G36*
X0248371Y0324028D02*
X0248395Y032396D01*
X0248435Y03239D01*
X0248491Y0323848D01*
X0248563Y0323804D01*
X0248651Y0323768D01*
X0248755Y032374D01*
X0248875Y032372D01*
X0249011Y0323708D01*
X0249163Y0323704D01*
Y0322904D01*
X0249011Y03229D01*
X0248875Y0322888D01*
X0248755Y0322868D01*
X0248651Y032284D01*
X0248563Y0322804D01*
X0248491Y032276D01*
X0248435Y0322708D01*
X0248395Y0322648D01*
X0248371Y032258D01*
X0248363Y0322504D01*
Y0324104D01*
X0248371Y0324028D01*
D02*
G37*
G36*
X0253252Y0308138D02*
X0253244Y0308214D01*
X025322Y0308282D01*
X0253179Y0308342D01*
X0253122Y0308394D01*
X0253049Y0308438D01*
X025296Y0308474D01*
X0252854Y0308502D01*
X0252733Y0308522D01*
X0252595Y0308534D01*
X025244Y0308538D01*
Y0309338D01*
X0252595Y0309342D01*
X0252733Y0309354D01*
X0252854Y0309374D01*
X025296Y0309402D01*
X0253049Y0309438D01*
X0253122Y0309482D01*
X0253179Y0309534D01*
X025322Y0309594D01*
X0253244Y0309662D01*
X0253252Y0309738D01*
Y0308138D01*
D02*
G37*
G36*
X0248371Y0309662D02*
X0248395Y0309594D01*
X0248435Y0309534D01*
X0248491Y0309482D01*
X0248563Y0309438D01*
X0248651Y0309402D01*
X0248755Y0309374D01*
X0248875Y0309354D01*
X0249011Y0309342D01*
X0249163Y0309338D01*
Y0308538D01*
X0249011Y0308534D01*
X0248875Y0308522D01*
X0248755Y0308502D01*
X0248651Y0308474D01*
X0248563Y0308438D01*
X0248491Y0308394D01*
X0248435Y0308342D01*
X0248395Y0308282D01*
X0248371Y0308214D01*
X0248363Y0308138D01*
Y0309738D01*
X0248371Y0309662D01*
D02*
G37*
G36*
X0382187Y0301986D02*
X0382778Y0301888D01*
X038327Y0301789D01*
X0384156Y0301592D01*
X0385041Y0301297D01*
X0385829Y0301002D01*
X0386715Y0300608D01*
X03876Y0300116D01*
X0388388Y0299624D01*
X0389175Y0299033D01*
X0389963Y0298344D01*
X0386321Y0294703D01*
X0385829Y0295096D01*
X0385337Y029549D01*
X0384844Y0295785D01*
X0384254Y0296081D01*
X0383565Y0296376D01*
X0382679Y0296671D01*
X0381695Y0296868D01*
X0380809Y0296967D01*
Y0302085D01*
X0382187Y0301986D01*
D02*
G37*
G36*
X0380022Y0296967D02*
X0379136Y0296868D01*
X0378152Y0296671D01*
X0377266Y0296376D01*
X0376577Y0296081D01*
X0375986Y0295785D01*
X0375494Y029549D01*
X0375002Y0295096D01*
X037451Y0294703D01*
X0370868Y0298344D01*
X0371656Y0299033D01*
X0372443Y0299624D01*
X037323Y0300116D01*
X0374116Y0300608D01*
X0375002Y0301002D01*
X0375789Y0301297D01*
X0376675Y0301592D01*
X0377561Y0301789D01*
X0378053Y0301888D01*
X0378644Y0301986D01*
X0380022Y0302085D01*
Y0296967D01*
D02*
G37*
G36*
X039134Y0296868D02*
X0391931Y0296081D01*
X0392423Y0295293D01*
X0392915Y0294408D01*
X0393309Y0293522D01*
X0393604Y0292734D01*
X03939Y0291848D01*
X0394096Y0290963D01*
X0394195Y0290471D01*
X0394293Y028988D01*
X0394392Y0288502D01*
X0389274D01*
X0389175Y0289388D01*
X0388978Y0290372D01*
X0388683Y0291258D01*
X0388388Y0291947D01*
X0388092Y0292537D01*
X0387797Y0293029D01*
X0387403Y0293522D01*
X038701Y0294014D01*
X0390652Y0297656D01*
X039134Y0296868D01*
D02*
G37*
G36*
X0373821Y0294014D02*
X0373427Y0293522D01*
X0373033Y0293029D01*
X0372738Y0292537D01*
X0372443Y0291947D01*
X0372148Y0291258D01*
X0371852Y0290372D01*
X0371656Y0289388D01*
X0371557Y0288502D01*
X0366439D01*
X0366537Y028988D01*
X0366636Y0290471D01*
X0366734Y0290963D01*
X0366931Y0291848D01*
X0367226Y0292734D01*
X0367522Y0293522D01*
X0367915Y0294408D01*
X0368408Y0295293D01*
X03689Y0296081D01*
X036949Y0296868D01*
X0370179Y0297656D01*
X0373821Y0294014D01*
D02*
G37*
G36*
X0394293Y0286337D02*
X0394195Y0285746D01*
X0394096Y0285254D01*
X03939Y0284368D01*
X0393604Y0283482D01*
X0393309Y0282695D01*
X0392915Y0281809D01*
X0392423Y0280923D01*
X0391931Y0280136D01*
X039134Y0279348D01*
X0390652Y0278561D01*
X038701Y0282203D01*
X0387403Y0282695D01*
X0387797Y0283187D01*
X0388092Y0283679D01*
X0388388Y028427D01*
X0388683Y0284959D01*
X0388978Y0285844D01*
X0389175Y0286829D01*
X0389274Y0287715D01*
X0394392D01*
X0394293Y0286337D01*
D02*
G37*
G36*
X0371656Y0286829D02*
X0371852Y0285844D01*
X0372148Y0284959D01*
X0372443Y028427D01*
X0372738Y0283679D01*
X0373033Y0283187D01*
X0373427Y0282695D01*
X0373821Y0282203D01*
X0370179Y0278561D01*
X036949Y0279348D01*
X03689Y0280136D01*
X0368408Y0280923D01*
X0367915Y0281809D01*
X0367522Y0282695D01*
X0367226Y0283482D01*
X0366931Y0284368D01*
X0366734Y0285254D01*
X0366636Y0285746D01*
X0366537Y0286337D01*
X0366439Y0287715D01*
X0371557D01*
X0371656Y0286829D01*
D02*
G37*
G36*
X0389963Y0277872D02*
X0389175Y0277183D01*
X0388388Y0276592D01*
X03876Y02761D01*
X0386715Y0275608D01*
X0385829Y0275215D01*
X0385041Y0274919D01*
X0384156Y0274624D01*
X038327Y0274427D01*
X0382778Y0274329D01*
X0382187Y027423D01*
X0380809Y0274132D01*
Y027925D01*
X0381695Y0279348D01*
X0382679Y0279545D01*
X0383565Y0279841D01*
X0384254Y0280136D01*
X0384844Y0280431D01*
X0385337Y0280726D01*
X0385829Y028112D01*
X0386321Y0281514D01*
X0389963Y0277872D01*
D02*
G37*
G36*
X0375002Y028112D02*
X0375494Y0280726D01*
X0375986Y0280431D01*
X0376577Y0280136D01*
X0377266Y0279841D01*
X0378152Y0279545D01*
X0379136Y0279348D01*
X0380022Y027925D01*
Y0274132D01*
X0378644Y027423D01*
X0378053Y0274329D01*
X0377561Y0274427D01*
X0376675Y0274624D01*
X0375789Y0274919D01*
X0375002Y0275215D01*
X0374116Y0275608D01*
X037323Y02761D01*
X0372443Y0276592D01*
X0371656Y0277183D01*
X0370868Y0277872D01*
X037451Y0281514D01*
X0375002Y028112D01*
D02*
G37*
%LPC*%
G36*
X0330539Y0303461D02*
X0328307D01*
Y0303131D01*
X0328299Y0303207D01*
X0328274Y0303275D01*
X0328234Y0303335D01*
X0328177Y0303387D01*
X0328104Y0303431D01*
X0328028Y0303461D01*
X0327283D01*
Y0302076D01*
X0330539D01*
Y0303461D01*
D02*
G37*
G36*
X0334794D02*
X0331539D01*
Y0302076D01*
X0334794D01*
Y0303461D01*
D02*
G37*
G36*
X0307775Y0315454D02*
X03057D01*
Y0314633D01*
D01*
X0305744Y031456D01*
X0305796Y0314503D01*
X0305856Y0314463D01*
X0305924Y0314438D01*
X0306Y031443D01*
X03057D01*
Y031338D01*
X0307775D01*
Y0315454D01*
D02*
G37*
G36*
X03047D02*
X0302625D01*
Y031338D01*
X03047D01*
Y031443D01*
X03044D01*
X0304476Y0314438D01*
X0304544Y0314463D01*
X0304604Y0314503D01*
X0304656Y031456D01*
X03047Y0314633D01*
Y0315454D01*
D02*
G37*
G36*
X0307775Y031238D02*
X03057D01*
Y0310305D01*
X0307775D01*
Y031238D01*
D02*
G37*
G36*
X03047D02*
X0302625D01*
Y0310305D01*
X03047D01*
Y031238D01*
D02*
G37*
G36*
X03646Y0309122D02*
X0362525D01*
Y0307047D01*
X0363346D01*
D01*
X0363419Y0307091D01*
X0363476Y0307143D01*
X0363517Y0307203D01*
X0363541Y0307271D01*
X0363549Y0307347D01*
Y0307047D01*
X03646D01*
Y0309122D01*
D02*
G37*
G36*
X0361075Y0309022D02*
X0359D01*
Y0306947D01*
X0360063D01*
Y0307347D01*
X0360071Y0307271D01*
X0360095Y0307203D01*
X0360135Y0307143D01*
X0360191Y0307091D01*
X0360263Y0307047D01*
X0360351Y0307011D01*
X0360455Y0306983D01*
X0360575Y0306963D01*
X0360711Y0306951D01*
X0360863Y0306947D01*
X0361075D01*
Y0309022D01*
D02*
G37*
G36*
X0358D02*
X0355925D01*
Y0306947D01*
X0356746D01*
D01*
X0356819Y0306991D01*
X0356876Y0307043D01*
X0356917Y0307103D01*
X0356941Y0307171D01*
X0356949Y0307247D01*
Y0306947D01*
X0358D01*
Y0309022D01*
D02*
G37*
G36*
X0361075Y0305947D02*
X0360132D01*
X0360095Y0305891D01*
X0360071Y0305823D01*
X0360063Y0305747D01*
Y0305947D01*
X0359D01*
Y0303872D01*
X0361075D01*
Y0305947D01*
D02*
G37*
G36*
X0358D02*
X0356949D01*
Y0305647D01*
X0356941Y0305723D01*
X0356917Y0305791D01*
X0356876Y0305851D01*
X0356819Y0305903D01*
X0356746Y0305947D01*
X0355925D01*
Y0303872D01*
X0358D01*
Y0305947D01*
D02*
G37*
%LPD*%
D13*
X0273006Y0278095D02*
X02798D01*
X02705Y02806D02*
X0273006Y0278095D01*
X02705Y02806D02*
Y0287D01*
X02674Y02901D02*
X02705Y0287D01*
X02555Y02844D02*
X02665D01*
X02491Y0278D02*
X02555Y02844D01*
X02798Y0278095D02*
X0285794D01*
X02586Y0278D02*
X025865Y027795D01*
X026655D01*
X02666Y02779D01*
X02586Y02901D02*
X02674D01*
X02692Y02925D02*
Y02963D01*
Y02925D02*
X02703Y02914D01*
X02731D01*
X02491Y02963D02*
X02692D01*
Y02993D01*
X026527Y030323D02*
X02692Y02993D01*
X03276Y0283D02*
X03295Y02811D01*
X0320028Y0283253D02*
X0320281Y0283D01*
X03276D01*
X0365247Y03126D02*
X03708D01*
X0349353Y03546D02*
Y0367595D01*
X03576Y0368246D02*
X03578Y0368046D01*
Y03631D02*
Y0368046D01*
X03808Y03408D02*
Y03575D01*
X03767Y03367D02*
X03808Y03408D01*
X03808Y03575D02*
X03808Y03575D01*
X03493Y0367647D02*
X0349353Y0367595D01*
X03295Y02811D02*
X03345D01*
X03767Y03257D02*
Y03367D01*
X0321276Y03434D02*
X0321376Y03435D01*
X03138Y03434D02*
X0321276D01*
X03137Y03433D02*
X03138Y03434D01*
X03494Y0337494D02*
X03496Y0337295D01*
Y03325D02*
Y0337295D01*
X0238587Y0316787D02*
Y0324287D01*
Y0307137D02*
Y0316787D01*
X0228672Y0372428D02*
X0232213Y0368887D01*
X0228672Y0372428D02*
Y0375554D01*
X0232213Y0363304D02*
Y0368887D01*
X0232Y0355508D02*
X0238492D01*
X02398Y03542D01*
Y0349D02*
Y03542D01*
Y0349D02*
X0243Y03458D01*
X02468D01*
X0255028D01*
X0232Y0363091D02*
X0232213Y0363304D01*
X0232Y0355508D02*
Y0363091D01*
Y03477D02*
Y0355508D01*
X0221611Y0381274D02*
X0235789D01*
X02358Y0381263D01*
X02216Y0381284D02*
X0221611Y0381274D01*
X02176Y03732D02*
X0219028D01*
X02132D02*
X02176D01*
Y037499D02*
X0218186Y0375576D01*
X02216D01*
X02176Y03732D02*
Y037499D01*
X0219614Y0363304D02*
Y0372614D01*
X0219028Y03732D02*
X0219614Y0372614D01*
X02192Y03405D02*
X02217Y0338D01*
X02192Y03405D02*
Y0347298D01*
X02217Y0338D02*
X02347D01*
X02368Y03359D01*
X02192Y0347298D02*
X0219502Y03476D01*
X0212Y03313D02*
X02168Y03265D01*
X02233D01*
X0212Y03313D02*
Y0352D01*
X0215508Y0355508D01*
X0232D01*
Y03477D02*
X02321Y03476D01*
X02434Y03628D02*
X02436Y0363D01*
X02434Y0352291D02*
Y03628D01*
Y0352291D02*
X0243986Y0351706D01*
X02468D01*
X02368Y03059D02*
Y03359D01*
Y03059D02*
X02464Y02963D01*
X0238587Y0316787D02*
X0238805Y0317005D01*
X0238587Y0307137D02*
X0243086Y0302639D01*
X0238587Y0324287D02*
X02419Y03276D01*
X02468D01*
X0238805Y0317005D02*
X02468D01*
X0243086Y0302639D02*
X02468D01*
X02491Y02891D02*
Y02963D01*
X02464D02*
X02491D01*
X0255Y030323D02*
X026527D01*
X0264Y03396D02*
Y03503D01*
Y03289D02*
Y03396D01*
X02687D01*
X0269Y03399D01*
X0255028Y0351706D02*
X0262595D01*
X0264Y03503D01*
X02627Y03276D02*
X0264Y03289D01*
X02468Y03276D02*
X02627D01*
X0288855Y03141D02*
Y03192D01*
Y03101D02*
Y03141D01*
X02468Y03276D02*
Y0331274D01*
X02857Y03141D02*
X0288855D01*
X0288855Y03141D01*
X02619Y0372905D02*
X0271D01*
X0274006D01*
X0271D02*
Y03764D01*
X02756Y03745D02*
X02859D01*
X0274006Y0372905D02*
X02756Y03745D01*
X02859D02*
X0288855Y0371545D01*
Y0367D02*
Y0371545D01*
Y0367D02*
X0288855Y0367D01*
X02841Y03157D02*
X02857Y03141D01*
X02841Y03157D02*
Y0327272D01*
X0288855Y0281155D02*
Y03101D01*
X02858D02*
X0288855D01*
X02857Y031D02*
X02858Y03101D01*
X0285794Y0278095D02*
X0288855Y0281155D01*
X0289781Y0327299D02*
Y033035D01*
Y0333401D01*
X0289754Y0333428D02*
X0289781Y0333401D01*
Y0327299D02*
X0289809Y0327272D01*
X02784Y03335D02*
X0278472Y0333428D01*
X0284046D01*
X0269Y0333494D02*
X0269094Y03334D01*
X0269Y0333494D02*
Y03399D01*
X0269094Y03273D02*
Y03334D01*
X02468Y0351706D02*
X0255028D01*
X03651Y0312453D02*
X0365247Y03126D01*
X0321376Y03485D02*
Y0356076D01*
X03234Y03581D01*
X032716D01*
X0340824Y03485D02*
Y0356076D01*
X03388Y03581D02*
X0340824Y0356076D01*
X033464Y03581D02*
X03388D01*
D15*
X03736Y03233D02*
Y03354D01*
X0371777Y0337223D02*
X03736Y03354D01*
X0367723Y0337223D02*
X0371777D01*
X03643Y03338D02*
X0367723Y0337223D01*
X0365429Y0337829D02*
X0366411Y0338811D01*
X0362746Y03338D02*
X03643D01*
X0361029Y0337829D02*
X0365429D01*
X0366411Y0338811D02*
X0370811D01*
X036268Y0333734D02*
X0362746Y03338D01*
X0370811Y0338811D02*
X03782Y03462D01*
X03703Y03287D02*
Y03329D01*
X03736Y03233D02*
X03754Y03215D01*
X0360187Y0336987D02*
X0361029Y0337829D01*
X03527Y0315369D02*
Y03154D01*
X03534Y03161D02*
Y0325926D01*
X0355961Y0328487D01*
X03527Y03154D02*
X03534Y03161D01*
X0352231Y03149D02*
X03527Y0315369D01*
X036268Y0330755D02*
Y0333734D01*
X0360412Y0328487D02*
X036268Y0330755D01*
X0355961Y0328487D02*
X0360412D01*
X0355Y0325281D02*
X0356619Y03269D01*
X03685D02*
X03703Y03287D01*
X0356619Y03269D02*
X03685D01*
X03052Y0312879D02*
Y0318D01*
X03064Y03211D02*
X03106Y03169D01*
X03004Y03196D02*
X03019Y03211D01*
X03064D01*
X03106Y03169D02*
X0323479D01*
X0370059Y0341359D02*
X03742Y03455D01*
X03699Y03741D02*
X03742Y03698D01*
Y03455D02*
Y03698D01*
X0364919Y03548D02*
X03703D01*
X0364672Y0354553D02*
X0364919Y03548D01*
X0396Y03118D02*
Y03344D01*
X03912Y03362D02*
X0391976Y0335424D01*
X0394976D01*
X0396Y03344D01*
X03763Y03101D02*
X03943D01*
X0396Y03118D01*
X0357513Y0291313D02*
X03763Y03101D01*
X0328658Y0291313D02*
X0357513D01*
X03738Y031D02*
Y03158D01*
X0344Y02929D02*
X03567D01*
X03738Y031D01*
X03576Y02962D02*
X03651Y03037D01*
X03501Y02962D02*
X03576D01*
X03651Y03037D02*
Y0306547D01*
X0305785Y0287015D02*
X032436D01*
X03004Y02924D02*
Y03196D01*
Y02924D02*
X0305785Y0287015D01*
X0323479Y0315921D02*
X03244Y0315D01*
X033D01*
X0323479Y0315921D02*
Y03169D01*
Y0326022D01*
X03405Y02756D02*
X03445Y02796D01*
X03271Y02756D02*
X03405D01*
X03445Y02796D02*
Y02811D01*
X0325353Y0277347D02*
X03271Y02756D01*
X0320028Y0277347D02*
X0325353D01*
X03123Y0277D02*
X0319681D01*
X0320028Y0277347D01*
X02988Y02905D02*
X03123Y0277D01*
X0297213Y0288887D02*
X03126Y02735D01*
X03502D01*
X03537Y0277D01*
X0320026Y0284172D02*
Y028425D01*
X0318853Y0283D02*
X0320026Y0284172D01*
X0314Y0283D02*
X0318853D01*
X02988Y02905D02*
Y03203D01*
X0301376Y0322876D02*
X0307324D01*
X02988Y03203D02*
X0301376Y0322876D01*
X0297213Y0288887D02*
Y0327987D01*
X02949Y03303D02*
X0297213Y0327987D01*
X0289831Y03303D02*
X02949D01*
X0312556Y03201D02*
X0319843D01*
X031204Y0320616D02*
X0312556Y03201D01*
X0309584Y0320616D02*
X031204D01*
X0307324Y0322876D02*
X0309584Y0320616D01*
X0320056Y0326022D02*
X0323479D01*
X0327031D01*
X03051Y02925D02*
X0308998Y0288602D01*
X03051Y0306874D02*
X03052Y0306974D01*
X03051Y02925D02*
Y0306874D01*
X0305489Y0326111D02*
X0312467D01*
X0312556Y0326022D01*
X0320026Y028425D02*
X0320028Y0284253D01*
X0308998Y0288602D02*
X0323702D01*
X0328Y02929D01*
X032436Y0287015D02*
X0328658Y0291313D01*
X0355947Y0306447D02*
X03585D01*
X03549Y03054D02*
X0355947Y0306447D01*
X03549Y03017D02*
Y03054D01*
X03585Y0306447D02*
X03586Y0306547D01*
X03651D01*
X0344Y02929D02*
Y02973D01*
X0328Y02929D02*
X0344D01*
Y02973D02*
X0348361Y0301661D01*
Y0303961D01*
X03423Y03007D02*
Y03055D01*
X0320056Y0299554D02*
X0338554D01*
X03406Y03016D01*
Y030908D01*
X03305Y02979D02*
X03395D01*
X03423Y03007D01*
X03071Y0292745D02*
X0309545Y02903D01*
X03071Y0292745D02*
Y03017D01*
X0309545Y02903D02*
X03229D01*
X037104Y031856D02*
X03738Y03158D01*
X03754Y03215D02*
X03865D01*
X03912Y03262D01*
X03406Y030908D02*
X03406Y030908D01*
X03406Y03134D02*
X03421Y03149D01*
X03406Y030908D02*
X03406Y030908D01*
X03406Y030908D02*
Y03134D01*
X03406Y030908D02*
X0348361D01*
X0348361Y030908D01*
X0349353Y03546D02*
X03494Y0354553D01*
X0357628D01*
X03493Y0373553D02*
Y0376431D01*
X0377938Y03521D02*
X03782Y0351838D01*
Y03462D02*
Y0351838D01*
X03654Y03582D02*
X03698Y03626D01*
X03584Y03582D02*
X03654D01*
X0357628Y0357428D02*
X03584Y03582D01*
X0357628Y0354553D02*
Y0357428D01*
X0325031Y0303931D02*
X0331008D01*
X0325Y03039D02*
X0325031Y0303931D01*
X032718Y0306521D02*
X0331039D01*
X0331008Y0303931D02*
X0331039Y0303961D01*
X03249Y03088D02*
X032718Y0306521D01*
X0384018Y03769D02*
X0386418Y03745D01*
X03875D01*
X0349769Y03769D02*
X0384018D01*
X03493Y0376431D02*
X0349769Y03769D01*
X03875Y03645D02*
X03936D01*
X03943Y03652D01*
X03911Y03807D02*
X03943Y03775D01*
Y03652D02*
Y03775D01*
X0377Y03807D02*
X03911D01*
X03748Y03785D02*
X0377Y03807D01*
X03489Y03785D02*
X03748D01*
X03451Y03747D02*
X03489Y03785D01*
X03451Y03684D02*
Y03747D01*
Y03684D02*
X0345853Y0367647D01*
X03493D01*
X03229Y02903D02*
X03305Y02979D01*
X0362746Y0341359D02*
X0370059D01*
X0364709Y03741D02*
X03699D01*
X0357628Y0354553D02*
X0364672D01*
X0360187Y03338D02*
Y0336987D01*
X03538Y03353D02*
X03551Y0334D01*
X03538Y03353D02*
Y03402D01*
X03551Y0334D02*
X0357241D01*
X035744Y03338D02*
X0357628D01*
X0357241Y0334D02*
X035744Y03338D01*
X03421Y03149D02*
X0352231D01*
X02588Y03928D02*
Y03994D01*
X0289781Y033035D02*
X0289831Y03303D01*
X03364Y03109D02*
Y03147D01*
X0334579Y030908D02*
X03364Y03109D01*
X0331039Y030908D02*
X0334579D01*
X03423Y03055D02*
X034332Y0306521D01*
X0348361D01*
X0355Y03194D02*
Y0325281D01*
X0355861Y0318539D02*
X03585D01*
X0355Y03194D02*
X0355861Y0318539D01*
X03654Y031856D02*
X037104D01*
X03525Y03629D02*
X0355062Y0360338D01*
X0362538D01*
X03647Y03625D02*
Y03684D01*
X0362538Y0360338D02*
X03647Y03625D01*
X03537Y0277D02*
Y02835D01*
X03071Y03017D02*
X03093Y03039D01*
X03126D01*
X0357546Y03739D02*
X03576Y0373954D01*
X03493Y0373553D02*
X0349647Y03739D01*
X0357546D01*
X03647Y0374109D02*
X0364709Y03741D01*
X0364491Y03739D02*
X03647Y0374109D01*
X03576Y0373954D02*
X0357654Y03739D01*
X0364491D01*
X0355153Y0312453D02*
X03651D01*
X03052Y0307058D02*
X03125D01*
X0255Y0331864D02*
X0255264Y03316D01*
X02606D01*
X0255Y0317595D02*
X0260895D01*
X02609Y03176D01*
X0319843Y03201D02*
X0320056Y0320313D01*
X0334513Y0316587D02*
X03364Y03147D01*
X0327569Y0316587D02*
X0334513D01*
X0331039Y0311639D02*
Y0313961D01*
X03271Y0317056D02*
X0327569Y0316587D01*
X03271Y0317056D02*
Y0320047D01*
X033Y0315D02*
X0331039Y0313961D01*
X02468Y0323304D02*
X0255D01*
X02468Y0337573D02*
X0255D01*
X02468Y0308938D02*
X0255D01*
X02358Y0375554D02*
X0247154D01*
X02472Y03756D01*
X0327031Y0326022D02*
X03271Y0325953D01*
X0327148Y0326D02*
X0335D01*
X03271Y0325953D02*
X0327148Y0326D01*
X03271Y0320047D02*
X0327344Y0320292D01*
X0335D01*
X03387Y032076D02*
Y0325553D01*
X0339169Y0326022D02*
X0342556D01*
X0335Y0320292D02*
X0338231D01*
X03387Y032076D01*
Y0325553D02*
X0339169Y0326022D01*
X03126Y03039D02*
X0319531D01*
X03125Y0299533D02*
Y03038D01*
X03126Y03039D01*
X032Y0304369D02*
Y0307058D01*
X0319531Y03039D02*
X032Y0304369D01*
X03125Y0293824D02*
X0312511Y0293835D01*
X0320045D01*
X0348361Y0311639D02*
X0354339D01*
X0355153Y0312453D01*
X0365389Y0324258D02*
X03654Y0324269D01*
X0358511Y0324258D02*
X0365389D01*
X03585Y0324248D02*
X0358511Y0324258D01*
X0320045Y0293835D02*
X0320056Y0293846D01*
X032Y0312767D02*
X0325233D01*
X03125D02*
X032D01*
X0325233D02*
X0326361Y0311639D01*
X0331039D01*
X0349287Y0320313D02*
X03494Y03202D01*
X0342556Y0320313D02*
X0349287D01*
X03494Y0326105D02*
Y03285D01*
X0342Y03293D02*
X03486D01*
X03494Y03285D01*
X0340824Y0330476D02*
X0342Y03293D01*
X0340824Y0330476D02*
Y03335D01*
D19*
X0343821Y0387652D02*
D03*
X0318624D02*
D03*
D20*
X02586Y02901D02*
D03*
Y0278D02*
D03*
X02491D02*
D03*
Y02901D02*
D03*
D21*
X02798Y0293413D02*
D03*
Y0341213D02*
D03*
D22*
X0270745Y03192D02*
D03*
X02798D02*
D03*
X0288855D02*
D03*
X0270745Y0367D02*
D03*
X02798D02*
D03*
X0288855D02*
D03*
D23*
X0275Y03273D02*
D03*
X0269094D02*
D03*
Y03334D02*
D03*
X0275D02*
D03*
D24*
X0289809Y0327272D02*
D03*
X02841D02*
D03*
X0284046Y0333428D02*
D03*
X0289754D02*
D03*
D25*
X0269659Y0388D02*
D03*
X02862D02*
D03*
D26*
X02513Y0399798D02*
D03*
Y03872D02*
D03*
X0251204Y0374486D02*
D03*
Y0361887D02*
D03*
D27*
X02358Y0381263D02*
D03*
Y0375554D02*
D03*
X0228672Y0381263D02*
D03*
Y0375554D02*
D03*
X02216Y0375576D02*
D03*
Y0381284D02*
D03*
X0255Y0337573D02*
D03*
Y0331864D02*
D03*
Y0323304D02*
D03*
Y0317595D02*
D03*
Y0308938D02*
D03*
Y030323D02*
D03*
X03576Y0368246D02*
D03*
Y0373954D02*
D03*
X03647Y03684D02*
D03*
Y0374109D02*
D03*
X03654Y031856D02*
D03*
Y0324269D02*
D03*
X03585Y0324248D02*
D03*
Y0318539D02*
D03*
X0312556Y0326022D02*
D03*
Y0320313D02*
D03*
X0320056Y0326022D02*
D03*
Y0320313D02*
D03*
Y0293846D02*
D03*
Y0299554D02*
D03*
X03125Y0299533D02*
D03*
Y0293824D02*
D03*
Y0312767D02*
D03*
Y0307058D02*
D03*
X032Y0312767D02*
D03*
Y0307058D02*
D03*
X0335Y0320292D02*
D03*
Y0326D02*
D03*
X0342556Y0326022D02*
D03*
Y0320313D02*
D03*
D28*
X0219614Y0363304D02*
D03*
X0232213D02*
D03*
X02321Y03476D02*
D03*
X0219502D02*
D03*
D29*
X02468Y0308938D02*
D03*
Y0302639D02*
D03*
Y0323304D02*
D03*
Y0317005D02*
D03*
Y0337573D02*
D03*
Y0331274D02*
D03*
Y03458D02*
D03*
Y0351706D02*
D03*
X0255028Y03458D02*
D03*
Y0351706D02*
D03*
X02798Y0278095D02*
D03*
Y0284D02*
D03*
X03493Y0373553D02*
D03*
Y0367647D02*
D03*
X03494Y0337494D02*
D03*
Y03434D02*
D03*
Y0354553D02*
D03*
Y0348647D02*
D03*
X0357628Y0354553D02*
D03*
Y0348647D02*
D03*
X0364672Y0354553D02*
D03*
Y0348647D02*
D03*
X03651Y0306547D02*
D03*
Y0312453D02*
D03*
X03585Y0312353D02*
D03*
Y0306447D02*
D03*
X03494Y03202D02*
D03*
Y0326105D02*
D03*
X0320028Y0277347D02*
D03*
Y0283253D02*
D03*
X03052Y0312879D02*
D03*
Y0306974D02*
D03*
X03271Y0325953D02*
D03*
Y0320047D02*
D03*
X02619Y0367D02*
D03*
Y0372905D02*
D03*
D30*
X0340824Y03485D02*
D03*
Y03435D02*
D03*
Y03385D02*
D03*
Y03335D02*
D03*
X0321376D02*
D03*
Y03385D02*
D03*
Y03435D02*
D03*
Y03485D02*
D03*
D31*
X033464Y03581D02*
D03*
X032716D02*
D03*
D32*
X033464Y0374247D02*
D03*
Y0367553D02*
D03*
X032716Y0374247D02*
D03*
Y0367553D02*
D03*
D33*
X0357628Y0341359D02*
D03*
X0362746D02*
D03*
Y03338D02*
D03*
X0360187D02*
D03*
X0357628D02*
D03*
D34*
X0331039Y0311639D02*
D03*
Y030908D02*
D03*
Y0306521D02*
D03*
Y0303961D02*
D03*
X0348361D02*
D03*
Y0306521D02*
D03*
Y030908D02*
D03*
Y0311639D02*
D03*
D62*
X0364672Y0348647D02*
X0364798Y0348774D01*
X0370174D02*
X03703Y03489D01*
X0364798Y0348774D02*
X0370174D01*
X0340824Y03385D02*
Y03435D01*
X0321376Y03385D02*
Y03435D01*
X03494Y0348647D02*
X0357628D01*
Y0341359D02*
Y0348647D01*
X0364672D01*
X0340874Y034345D02*
X034935D01*
X0340824Y03435D02*
X0340874Y034345D01*
X034935D02*
X03494Y03434D01*
Y0348647D01*
X032716Y03581D02*
Y0367553D01*
X033464Y03581D02*
Y0367553D01*
D63*
X02709Y0404414D02*
X02709D01*
X0265614Y04097D02*
X02709Y0404414D01*
X02534Y04097D02*
X0265614D01*
X02513Y04076D02*
X02534Y04097D01*
X02513Y0399798D02*
Y04076D01*
X0288855Y0367D02*
X0288878Y0366978D01*
Y0359522D02*
Y0366978D01*
Y0359522D02*
X02889Y03595D01*
X032716Y038156D02*
X03273Y03817D01*
X032716Y0374247D02*
Y038156D01*
X033464Y038224D02*
X03347Y03823D01*
X033464Y0374247D02*
Y038224D01*
D64*
X02859Y0404414D02*
D03*
X03387D02*
D03*
D65*
X02709D02*
D03*
X03237D02*
D03*
D66*
X02233Y03265D02*
D03*
X03875Y03645D02*
D03*
D67*
X02233Y03165D02*
D03*
X03875Y03745D02*
D03*
D68*
X022725Y0288108D02*
D03*
X0380415D02*
D03*
X022725Y0402274D02*
D03*
X0380415D02*
D03*
D69*
X03912Y03262D02*
D03*
Y03362D02*
D03*
Y03462D02*
D03*
D70*
Y03162D02*
D03*
D71*
X03445Y02811D02*
D03*
D72*
X03345D02*
D03*
D73*
X03703Y03329D02*
D03*
X03052Y0318D02*
D03*
X03703Y03489D02*
D03*
Y03548D02*
D03*
X03Y039D02*
D03*
Y04D02*
D03*
Y041D02*
D03*
X0385Y038D02*
D03*
X039Y0385D02*
D03*
X0395Y038D02*
D03*
Y039D02*
D03*
X0365D02*
D03*
X0245Y0415D02*
D03*
X0255D02*
D03*
X0295Y0355D02*
D03*
X0315D02*
D03*
Y0365D02*
D03*
X0295D02*
D03*
Y0375D02*
D03*
X0315D02*
D03*
X0305D02*
D03*
Y0385D02*
D03*
Y0395D02*
D03*
Y0405D02*
D03*
Y0415D02*
D03*
X037Y0385D02*
D03*
X036D02*
D03*
Y0395D02*
D03*
Y0405D02*
D03*
Y0415D02*
D03*
X02665Y02844D02*
D03*
X02666Y02779D02*
D03*
X0314Y0283D02*
D03*
X0305489Y0326111D02*
D03*
X03549Y03017D02*
D03*
X03501Y02962D02*
D03*
X03708Y03126D02*
D03*
X03578Y03631D02*
D03*
X0377938Y03521D02*
D03*
X03808Y03575D02*
D03*
X03698Y03626D02*
D03*
X0325Y03039D02*
D03*
X03249Y03088D02*
D03*
X03137Y03433D02*
D03*
X03538Y03402D02*
D03*
X03496Y03325D02*
D03*
X02132Y03732D02*
D03*
X02436Y0363D02*
D03*
X0271Y03764D02*
D03*
X02588Y03994D02*
D03*
X02857Y031D02*
D03*
X0269Y03399D02*
D03*
X02889Y03595D02*
D03*
X03525Y03629D02*
D03*
X03537Y02835D02*
D03*
X03767Y03257D02*
D03*
X0285Y0285D02*
D03*
X0275D02*
D03*
X03797Y03333D02*
D03*
X02606Y03316D02*
D03*
X027Y031D02*
D03*
X0265D02*
D03*
Y0315D02*
D03*
Y032D02*
D03*
D74*
X0222919Y0277675D02*
D03*
X0237683Y0283778D02*
D03*
X0231581Y0298541D02*
D03*
X0216817Y0292439D02*
D03*
X0237683D02*
D03*
X0222919Y0298541D02*
D03*
X0216817Y0283778D02*
D03*
X0231581Y0277675D02*
D03*
X0384746D02*
D03*
X0369982Y0283778D02*
D03*
X0376085Y0298541D02*
D03*
X0390848Y0292439D02*
D03*
X0369982D02*
D03*
X0384746Y0298541D02*
D03*
X0390848Y0283778D02*
D03*
X0376085Y0277675D02*
D03*
X0231581Y0391841D02*
D03*
X0216817Y0397943D02*
D03*
X0222919Y0412707D02*
D03*
X0237683Y0406604D02*
D03*
X0216817D02*
D03*
X0231581Y0412707D02*
D03*
X0237683Y0397943D02*
D03*
X0222919Y0391841D02*
D03*
X0376085D02*
D03*
X0390848Y0397943D02*
D03*
X0384746Y0412707D02*
D03*
X0369982Y0406604D02*
D03*
X0390848D02*
D03*
X0376085Y0412707D02*
D03*
X0369982Y0397943D02*
D03*
X0384746Y0391841D02*
D03*
M02*
