G04*
G04 #@! TF.GenerationSoftware,Altium Limited,Altium Designer,21.3.2 (30)*
G04*
G04 Layer_Physical_Order=2*
G04 Layer_Color=16711680*
%FSTAX25Y25*%
%MOIN*%
G70*
G04*
G04 #@! TF.SameCoordinates,2120B266-B5FC-475A-9EAD-F7F6DF0CB4C0*
G04*
G04*
G04 #@! TF.FilePolarity,Positive*
G04*
G01*
G75*
%ADD13C,0.01000*%
%ADD15C,0.00800*%
%ADD62C,0.01500*%
%ADD63C,0.03000*%
G04:AMPARAMS|DCode=64|XSize=82.68mil|YSize=82.68mil|CornerRadius=20.67mil|HoleSize=0mil|Usage=FLASHONLY|Rotation=180.000|XOffset=0mil|YOffset=0mil|HoleType=Round|Shape=RoundedRectangle|*
%AMROUNDEDRECTD64*
21,1,0.08268,0.04134,0,0,180.0*
21,1,0.04134,0.08268,0,0,180.0*
1,1,0.04134,-0.02067,0.02067*
1,1,0.04134,0.02067,0.02067*
1,1,0.04134,0.02067,-0.02067*
1,1,0.04134,-0.02067,-0.02067*
%
%ADD64ROUNDEDRECTD64*%
%ADD65C,0.08268*%
G04:AMPARAMS|DCode=66|XSize=70.87mil|YSize=62.99mil|CornerRadius=15.75mil|HoleSize=0mil|Usage=FLASHONLY|Rotation=0.000|XOffset=0mil|YOffset=0mil|HoleType=Round|Shape=RoundedRectangle|*
%AMROUNDEDRECTD66*
21,1,0.07087,0.03150,0,0,0.0*
21,1,0.03937,0.06299,0,0,0.0*
1,1,0.03150,0.01968,-0.01575*
1,1,0.03150,-0.01968,-0.01575*
1,1,0.03150,-0.01968,0.01575*
1,1,0.03150,0.01968,0.01575*
%
%ADD66ROUNDEDRECTD66*%
%ADD67O,0.07087X0.06299*%
%ADD69C,0.06299*%
%ADD70R,0.06299X0.06299*%
%ADD71O,0.06299X0.07087*%
G04:AMPARAMS|DCode=72|XSize=70.87mil|YSize=62.99mil|CornerRadius=15.75mil|HoleSize=0mil|Usage=FLASHONLY|Rotation=90.000|XOffset=0mil|YOffset=0mil|HoleType=Round|Shape=RoundedRectangle|*
%AMROUNDEDRECTD72*
21,1,0.07087,0.03150,0,0,90.0*
21,1,0.03937,0.06299,0,0,90.0*
1,1,0.03150,0.01575,0.01968*
1,1,0.03150,0.01575,-0.01968*
1,1,0.03150,-0.01575,-0.01968*
1,1,0.03150,-0.01575,0.01968*
%
%ADD72ROUNDEDRECTD72*%
%ADD73C,0.03150*%
%ADD74C,0.02598*%
%ADD75C,0.27559*%
G36*
X0383937Y0418765D02*
X0386383Y0418177D01*
X0388708Y0417214D01*
X0390853Y04159D01*
X0392766Y0414266D01*
X03944Y0412353D01*
X0395714Y0410208D01*
X0396677Y0407883D01*
X0397265Y0405437D01*
X0397456Y0403D01*
X0397442Y0402929D01*
Y0374877D01*
X0396942Y037467D01*
X0395656Y0375956D01*
X0395263Y0376219D01*
X03948Y0376311D01*
X03948Y0376311D01*
X0391478D01*
X039143Y0376314D01*
X0391402Y0376318D01*
X0391333Y0376485D01*
X0390702Y0377308D01*
X0389879Y0377939D01*
X0388921Y0378336D01*
X0387894Y0378471D01*
X0387106D01*
X0386079Y0378336D01*
X0385121Y0377939D01*
X0384298Y0377308D01*
X0383667Y0376485D01*
X0383271Y0375528D01*
X0383135Y03745D01*
X0383271Y0373472D01*
X0383667Y0372515D01*
X0384298Y0371692D01*
X0385121Y0371061D01*
X0386079Y0370664D01*
X0387106Y0370529D01*
X0387894D01*
X0388921Y0370664D01*
X0389879Y0371061D01*
X0390702Y0371692D01*
X0391333Y0372515D01*
X0391729Y0373472D01*
X0391784Y0373889D01*
X0394299D01*
X0395289Y0372899D01*
Y0348416D01*
X0394789Y0348282D01*
X039452Y0348748D01*
X0393748Y034952D01*
X0392802Y0350067D01*
X0391746Y035035D01*
X03917D01*
Y03462D01*
Y034205D01*
X0391746D01*
X0392802Y0342333D01*
X0393748Y034288D01*
X039452Y0343652D01*
X0394789Y0344118D01*
X0395289Y0343984D01*
Y0337991D01*
X0394789Y0337857D01*
X039435Y0338617D01*
X0393617Y033935D01*
X039272Y0339869D01*
X0391718Y0340137D01*
X0390682D01*
X038968Y0339869D01*
X0388783Y033935D01*
X038805Y0338617D01*
X0387531Y033772D01*
X0387263Y0336718D01*
Y0335682D01*
X0387531Y033468D01*
X038805Y0333783D01*
X0388783Y033305D01*
X038968Y0332531D01*
X0390682Y0332263D01*
X0391718D01*
X039272Y0332531D01*
X0393617Y033305D01*
X039435Y0333783D01*
X0394789Y0334543D01*
X0395289Y0334409D01*
Y0327991D01*
X0394789Y0327857D01*
X039435Y0328617D01*
X0393617Y032935D01*
X039272Y0329869D01*
X0391718Y0330137D01*
X0390682D01*
X038968Y0329869D01*
X0388783Y032935D01*
X038805Y0328617D01*
X0387531Y032772D01*
X0387263Y0326718D01*
Y0325682D01*
X0387531Y032468D01*
X038805Y0323783D01*
X0388783Y032305D01*
X038968Y0322531D01*
X0390682Y0322263D01*
X0391718D01*
X039272Y0322531D01*
X0393617Y032305D01*
X039435Y0323783D01*
X0394789Y0324543D01*
X0395289Y0324409D01*
Y0322002D01*
X0393425Y0320137D01*
X0387263D01*
Y0312263D01*
X0395137D01*
Y0318425D01*
X0396942Y032023D01*
X0397442Y0320023D01*
Y0287566D01*
X0397446Y0287545D01*
X0397307Y0285411D01*
X0396885Y0283292D01*
X0396191Y0281247D01*
X0395235Y0279309D01*
X0394035Y0277513D01*
X0392611Y0275889D01*
X0390987Y0274465D01*
X0389191Y0273265D01*
X0387253Y0272309D01*
X0385208Y0271615D01*
X0383089Y0271193D01*
X0380955Y0271054D01*
X0380934Y0271058D01*
X0356893D01*
X0356814Y0271552D01*
X0357323Y0271892D01*
X0362609Y0277178D01*
X0362948Y0277686D01*
X0363068Y0278286D01*
Y0299051D01*
X0368649Y0304632D01*
X03752D01*
X03758Y0304752D01*
X0376308Y0305092D01*
X0380921Y0309704D01*
X038126Y0310212D01*
X038138Y0310812D01*
Y0329462D01*
Y0331639D01*
X0381703Y0331962D01*
X0382062Y033283D01*
Y033377D01*
X0381703Y0334638D01*
X0381038Y0335303D01*
X038017Y0335662D01*
X037923D01*
X0378362Y0335303D01*
X0377697Y0334638D01*
X0377338Y033377D01*
Y033283D01*
X0377697Y0331962D01*
X0378245Y0331415D01*
Y0330775D01*
X0378233Y0330775D01*
X0374475D01*
Y0346038D01*
X0374375Y034654D01*
X037409Y0346966D01*
X0372652Y0348405D01*
X0372662Y034843D01*
Y034937D01*
X0372303Y0350238D01*
X0371638Y0350903D01*
X037077Y0351262D01*
X036983D01*
X0368962Y0350903D01*
X0368297Y0350238D01*
X0367938Y034937D01*
Y034843D01*
X0368297Y0347562D01*
X0368962Y0346897D01*
X036983Y0346538D01*
X037077D01*
X0370795Y0346548D01*
X037185Y0345494D01*
Y0335344D01*
X037135Y0335022D01*
X037077Y0335262D01*
X036983D01*
X0368962Y0334903D01*
X0368297Y0334238D01*
X0368245Y0334111D01*
X0358986D01*
Y034D01*
Y0357625D01*
X0358986Y0357625D01*
X0358894Y0358088D01*
X0358631Y0358481D01*
X0358631Y0358481D01*
X0356622Y036049D01*
X0356906Y0360914D01*
X035733Y0360738D01*
X035827D01*
X0358295Y0360748D01*
X036231Y0356734D01*
X0362736Y035645D01*
X0363238Y035635D01*
X0371052D01*
X0371145Y0356287D01*
X0371648Y0356187D01*
X0378787D01*
X0378797Y0356162D01*
X0379462Y0355497D01*
X038033Y0355138D01*
X038127D01*
X0382138Y0355497D01*
X0382803Y0356162D01*
X0383162Y035703D01*
Y035797D01*
X0382803Y0358838D01*
X0382138Y0359503D01*
X038127Y0359862D01*
X038033D01*
X0379462Y0359503D01*
X0378797Y0358838D01*
X0378787Y0358813D01*
X0372081D01*
X0371988Y0358875D01*
X0371486Y0358975D01*
X0363781D01*
X0360152Y0362605D01*
X0360162Y036263D01*
Y036357D01*
X0359803Y0364438D01*
X0359138Y0365103D01*
X035827Y0365462D01*
X035733D01*
X0356462Y0365103D01*
X0355797Y0364438D01*
X0355438Y036357D01*
Y036263D01*
X0355614Y0362206D01*
X035519Y0361922D01*
X0354809Y0362303D01*
X0354862Y036243D01*
Y036337D01*
X0354503Y0364238D01*
X0353838Y0364903D01*
X035297Y0365262D01*
X035203D01*
X0351162Y0364903D01*
X0350497Y0364238D01*
X0350138Y036337D01*
Y036243D01*
X0350497Y0361562D01*
X0351162Y0360897D01*
X035203Y0360538D01*
X035297D01*
X0353097Y0360591D01*
X0356565Y0357123D01*
Y0341211D01*
X0355938D01*
X0355803Y0341538D01*
X0355138Y0342203D01*
X035427Y0342562D01*
X035333D01*
X0352462Y0342203D01*
X0351797Y0341538D01*
X0351438Y034067D01*
Y033973D01*
X0351797Y0338862D01*
X0352462Y0338197D01*
X035333Y0337838D01*
X035427D01*
X0355138Y0338197D01*
X035573Y0338789D01*
X0356565D01*
Y03329D01*
Y0310011D01*
X0326955D01*
X0326903Y0310138D01*
X0326238Y0310803D01*
X032537Y0311162D01*
X032443D01*
X0323562Y0310803D01*
X0322897Y0310138D01*
X0322538Y030927D01*
Y030833D01*
X0322897Y0307462D01*
X0323562Y0306797D01*
X032443Y0306438D01*
X032537D01*
X0326238Y0306797D01*
X0326903Y0307462D01*
X0326955Y0307589D01*
X0356565D01*
Y0288077D01*
X0354297Y0285809D01*
X035417Y0285862D01*
X035323D01*
X0352362Y0285503D01*
X0351697Y0284838D01*
X0351338Y028397D01*
Y028303D01*
X0351697Y0282162D01*
X0352362Y0281497D01*
X035323Y0281138D01*
X035417D01*
X0355038Y0281497D01*
X0355703Y0282162D01*
X0356062Y028303D01*
Y028397D01*
X0356009Y0284097D01*
X0357688Y0285776D01*
X035815Y0285585D01*
Y0279674D01*
X0354827Y027635D01*
X0345404D01*
X0345371Y027685D01*
X0345528Y0276871D01*
X0346485Y0277267D01*
X0347308Y0277898D01*
X0347939Y0278721D01*
X0348336Y0279679D01*
X0348471Y0280706D01*
Y0281494D01*
X0348336Y0282522D01*
X0347939Y0283479D01*
X0347308Y0284302D01*
X0346485Y0284933D01*
X0345528Y0285329D01*
X03445Y0285465D01*
X0343472Y0285329D01*
X0342514Y0284933D01*
X0341692Y0284302D01*
X0341061Y0283479D01*
X0340664Y0282522D01*
X0340529Y0281494D01*
Y0280706D01*
X0340664Y0279679D01*
X0341061Y0278721D01*
X0341692Y0277898D01*
X0342514Y0277267D01*
X0343472Y0276871D01*
X0343629Y027685D01*
X0343596Y027635D01*
X0337395D01*
X0337295Y027685D01*
X0337373Y0276882D01*
X0337911Y0277295D01*
X0338324Y0277833D01*
X0338583Y0278459D01*
X0338672Y0279132D01*
Y02806D01*
X03345D01*
X0330328D01*
Y0279132D01*
X0330417Y0278459D01*
X0330676Y0277833D01*
X0331089Y0277295D01*
X0331627Y0276882D01*
X0331705Y027685D01*
X0331605Y027635D01*
X0282844D01*
X0281113Y0278081D01*
Y0281597D01*
X0285598D01*
X0285905Y0281658D01*
X028664Y0281963D01*
X0286901Y0282137D01*
X0287463Y0282699D01*
X0287637Y028296D01*
X0287637Y028296D01*
X0287942Y0283695D01*
X0287942Y0283695D01*
X0288003Y0284002D01*
Y0286078D01*
X0287942Y0286385D01*
X0287652Y0287084D01*
X0287478Y0287344D01*
X0286944Y0287878D01*
X0286684Y0288053D01*
X0285985Y0288342D01*
X0285678Y0288403D01*
X0274222D01*
X0273915Y0288342D01*
X0273217Y0288053D01*
X0272956Y0287878D01*
X0272422Y0287344D01*
X0272248Y0287084D01*
X0271958Y0286385D01*
X0271897Y0286078D01*
Y0283762D01*
X0271958Y0283455D01*
X0272217Y028283D01*
X0272391Y0282569D01*
X0272391Y0282569D01*
X0272869Y0282091D01*
X027313Y0281917D01*
X0273755Y0281658D01*
X0274062Y0281597D01*
X0278487D01*
Y0277537D01*
X0278587Y0277035D01*
X0278872Y0276609D01*
X0280452Y0275029D01*
X028026Y0274568D01*
X0268137D01*
X0268137Y0274579D01*
Y0276096D01*
X0268603Y0276562D01*
X0268962Y027743D01*
Y027837D01*
X0268603Y0279238D01*
X0267938Y0279903D01*
X026707Y0280262D01*
X026613D01*
X0265262Y0279903D01*
X0264597Y0279238D01*
X0264238Y027837D01*
Y027743D01*
X0264597Y0276562D01*
X0265262Y0275897D01*
X0265512Y0275794D01*
Y0274568D01*
X0263549D01*
X0256067Y0282049D01*
Y0310951D01*
X0258549Y0313433D01*
X0259997D01*
Y0308181D01*
X0260058Y0307874D01*
X0260226Y030747D01*
X02604Y0307209D01*
X0260709Y03069D01*
X026097Y0306726D01*
X0261374Y0306558D01*
X0261681Y0306497D01*
X0274419D01*
X0274726Y0306558D01*
X027513Y0306726D01*
X0275391Y03069D01*
X02757Y0307209D01*
X0275874Y030747D01*
X0275874Y030747D01*
X0276042Y0307874D01*
X0276042Y0307874D01*
X0276103Y0308181D01*
Y0323218D01*
X0276042Y0323526D01*
X0275798Y0324113D01*
X0275624Y0324374D01*
X0275624Y0324374D01*
X0275174Y0324824D01*
X0274914Y0324998D01*
X0274325Y0325242D01*
X0274018Y0325303D01*
X0261841D01*
X0261534Y0325242D01*
X0261056Y0325044D01*
X0260796Y032487D01*
X026043Y0324504D01*
X0260256Y0324244D01*
X0260058Y0323766D01*
X0259997Y0323459D01*
Y0316567D01*
X02579D01*
X02573Y0316448D01*
X0256792Y0316108D01*
X0253392Y0312708D01*
X0253052Y03122D01*
X0252933Y03116D01*
Y02814D01*
X0253052Y02808D01*
X0253392Y0280292D01*
X0261792Y0271892D01*
X02623Y0271552D01*
X0262221Y0271058D01*
X022758D01*
X0227558Y0271053D01*
X0225423Y0271193D01*
X0223302Y0271615D01*
X0221255Y027231D01*
X0219316Y0273266D01*
X0217518Y0274467D01*
X0215893Y0275893D01*
X0214468Y0277518D01*
X0213266Y0279316D01*
X021231Y0281255D01*
X0211615Y0283302D01*
X0211323Y0284772D01*
X021181Y0284885D01*
X0212306Y0283035D01*
X0213096Y0281128D01*
X0214128Y027934D01*
X0215385Y0277703D01*
X0216844Y0276243D01*
X0218482Y0274986D01*
X022027Y0273954D01*
X0222177Y0273164D01*
X0224171Y027263D01*
X0226218Y027236D01*
X022725D01*
X0228282Y027236D01*
X0230329Y027263D01*
X0232323Y0273164D01*
X023423Y0273954D01*
X0236018Y0274986D01*
X0237656Y0276243D01*
X0239115Y0277702D01*
X0240372Y027934D01*
X0241404Y0281128D01*
X0242194Y0283035D01*
X0242728Y0285029D01*
X0242998Y0287076D01*
X0242998Y0288108D01*
X0242998Y0288108D01*
X0242998Y0288108D01*
X0242998Y028914D01*
X0242728Y0291187D01*
X0242194Y0293181D01*
X0241404Y0295088D01*
X0240372Y0296876D01*
X0239115Y0298514D01*
X0237656Y0299974D01*
X0236018Y030123D01*
X023423Y0302262D01*
X0232323Y0303052D01*
X0230329Y0303587D01*
X0228282Y0303856D01*
X022725Y0303856D01*
X022725Y0303856D01*
X0226218Y0303856D01*
X0224171Y0303587D01*
X0222177Y0303052D01*
X022027Y0302262D01*
X0218482Y030123D01*
X0216844Y0299974D01*
X0215385Y0298514D01*
X0214128Y0296876D01*
X0213096Y0295088D01*
X0212306Y0293181D01*
X0211771Y0291187D01*
X0211558Y0289563D01*
X0211058Y0289596D01*
Y0400786D01*
X0211558Y0400819D01*
X0211771Y0399195D01*
X0212306Y0397201D01*
X0213096Y0395293D01*
X0214128Y0393506D01*
X0215385Y0391868D01*
X0216844Y0390408D01*
X0218482Y0389152D01*
X022027Y0388119D01*
X0222177Y0387329D01*
X0224171Y0386795D01*
X0226218Y0386526D01*
X022725D01*
X0228282Y0386526D01*
X0230329Y0386795D01*
X0232323Y0387329D01*
X023423Y0388119D01*
X0236018Y0389151D01*
X0237656Y0390408D01*
X0239115Y0391868D01*
X0240372Y0393506D01*
X0241404Y0395293D01*
X0242194Y0397201D01*
X0242728Y0399195D01*
X0242998Y0401241D01*
X0242998Y0402274D01*
X0242998Y0402274D01*
X0242998Y0402274D01*
X0242998Y0403306D01*
X0242728Y0405352D01*
X0242194Y0407346D01*
X0241404Y0409254D01*
X0240372Y0411041D01*
X0239115Y0412679D01*
X0237656Y0414139D01*
X0236018Y0415396D01*
X023423Y0416428D01*
X0232323Y0417218D01*
X0230329Y0417752D01*
X0228282Y0418021D01*
X022725Y0418021D01*
X022725Y0418021D01*
X0226218Y0418021D01*
X0224171Y0417752D01*
X0222177Y0417218D01*
X022027Y0416428D01*
X0218482Y0415395D01*
X0216844Y0414139D01*
X0215385Y0412679D01*
X0214128Y0411041D01*
X0213096Y0409254D01*
X0212306Y0407346D01*
X021191Y0405869D01*
X0211423Y0405983D01*
X0211606Y0406905D01*
X0212289Y0408918D01*
X0213229Y0410824D01*
X021441Y0412591D01*
X0215811Y0414189D01*
X0217409Y041559D01*
X0219176Y0416771D01*
X0221082Y0417711D01*
X0223095Y0418394D01*
X0225179Y0418808D01*
X0227281Y0418946D01*
X02273Y0418942D01*
X0381429D01*
X03815Y0418956D01*
X0383937Y0418765D01*
D02*
G37*
G36*
X0390717Y0375819D02*
X0390757Y0375752D01*
X0390814Y0375693D01*
X0390887Y0375642D01*
X0390977Y0375599D01*
X0391082Y0375563D01*
X0391205Y0375535D01*
X0391343Y0375516D01*
X0391498Y0375504D01*
X0391669Y03755D01*
X0391827Y03747D01*
X0391658Y0374696D01*
X0391509Y0374684D01*
X0391379Y0374664D01*
X0391268Y0374636D01*
X0391178Y03746D01*
X0391106Y0374556D01*
X0391054Y0374505D01*
X0391021Y0374445D01*
X0391008Y0374377D01*
X0391015Y0374301D01*
X0390692Y0375894D01*
X0390717Y0375819D01*
D02*
G37*
G36*
X0358175Y034D02*
X0357375Y03388D01*
X0357367Y0338952D01*
X0357343Y0339088D01*
X0357303Y0339208D01*
X0357247Y0339312D01*
X0357175Y03394D01*
X0357087Y0339472D01*
X0356983Y0339528D01*
X0356863Y0339568D01*
X0356727Y0339592D01*
X0356575Y03396D01*
Y03404D01*
X0356727Y0340408D01*
X0356863Y0340432D01*
X0356983Y0340472D01*
X0357087Y0340528D01*
X0357175Y03406D01*
X0357247Y0340688D01*
X0357303Y0340792D01*
X0357343Y0340912D01*
X0357367Y0341048D01*
X0357375Y03412D01*
X0358175Y034D01*
D02*
G37*
G36*
X0358183Y0333948D02*
X0358207Y0333812D01*
X0358247Y0333692D01*
X0358303Y0333588D01*
X0358375Y03335D01*
X0358463Y0333428D01*
X0358567Y0333372D01*
X0358687Y0333332D01*
X0358823Y0333308D01*
X0358975Y03333D01*
Y03325D01*
X0358823Y0332492D01*
X0358687Y0332468D01*
X0358567Y0332428D01*
X0358463Y0332372D01*
X0358375Y03323D01*
X0358303Y0332212D01*
X0358247Y0332108D01*
X0358207Y0331988D01*
X0358183Y0331852D01*
X0358175Y03317D01*
X0357375Y03329D01*
X0358175Y03341D01*
X0358183Y0333948D01*
D02*
G37*
G36*
X0379282Y0328932D02*
X0379261Y0328937D01*
X0379211Y0328943D01*
X0379023Y0328951D01*
X0377753Y0328962D01*
Y0329962D01*
X0379282Y0329993D01*
Y0328932D01*
D02*
G37*
G36*
X03748Y0328962D02*
X037461Y0328952D01*
X037444Y0328922D01*
X037429Y0328872D01*
X037416Y0328802D01*
X037405Y0328712D01*
X037396Y0328602D01*
X037389Y0328472D01*
X037384Y0328322D01*
X037381Y0328152D01*
X03738Y0327962D01*
X03733Y0329462D01*
X03748Y0328962D01*
D02*
G37*
G36*
X0377902Y0324662D02*
X0377743Y0324377D01*
X0377679Y0324235D01*
X0377624Y0324094D01*
X0377579Y0323954D01*
X0377545Y0323814D01*
X037752Y0323675D01*
X0377505Y0323536D01*
X03775Y0323399D01*
X03765Y0323193D01*
X0376493Y032334D01*
X0376473Y0323481D01*
X037644Y0323616D01*
X0376393Y0323745D01*
X0376333Y0323867D01*
X0376259Y0323983D01*
X0376173Y0324093D01*
X0376073Y0324197D01*
X0375959Y0324295D01*
X0375832Y0324386D01*
X0377996Y0324806D01*
X0377902Y0324662D01*
D02*
G37*
G36*
X0372878Y031397D02*
X0372781Y0313865D01*
X0372694Y0313753D01*
X0372618Y0313634D01*
X0372552Y0313508D01*
X0372496Y0313376D01*
X0372451Y0313237D01*
X0372416Y0313092D01*
X0372392Y031294D01*
X0372378Y0312781D01*
X0372375Y0312616D01*
X0370816Y0314175D01*
X0370981Y0314178D01*
X037114Y0314192D01*
X0371292Y0314216D01*
X0371437Y0314251D01*
X0371576Y0314296D01*
X0371708Y0314352D01*
X0371834Y0314418D01*
X0371953Y0314494D01*
X0372065Y0314581D01*
X037217Y0314678D01*
X0372878Y031397D01*
D02*
G37*
G36*
X0358175Y03088D02*
X0357375Y03076D01*
X0357367Y0307752D01*
X0357343Y0307888D01*
X0357303Y0308008D01*
X0357247Y0308112D01*
X0357175Y03082D01*
X0357087Y0308272D01*
X0356983Y0308328D01*
X0356863Y0308368D01*
X0356727Y0308392D01*
X0356575Y03084D01*
Y03092D01*
X0356727Y0309208D01*
X0356863Y0309232D01*
X0356983Y0309272D01*
X0357087Y0309328D01*
X0357175Y03094D01*
X0357247Y0309488D01*
X0357303Y0309592D01*
X0357343Y0309712D01*
X0357367Y0309848D01*
X0357375Y031D01*
X0358175Y03088D01*
D02*
G37*
G36*
X0274606Y0324256D02*
X0275056Y0323806D01*
X02753Y0323218D01*
Y03229D01*
Y03084D01*
Y0308181D01*
X0275132Y0307777D01*
X0274823Y0307468D01*
X0274419Y03073D01*
X0261681D01*
X0261277Y0307468D01*
X0260967Y0307777D01*
X02608Y0308181D01*
Y03084D01*
Y03232D01*
Y0323459D01*
X0260998Y0323936D01*
X0261364Y0324302D01*
X0261841Y03245D01*
X0274018D01*
X0274606Y0324256D01*
D02*
G37*
G36*
X0286376Y0287311D02*
X0286911Y0286776D01*
X02872Y0286078D01*
Y02857D01*
Y02844D01*
Y0284002D01*
X0286895Y0283267D01*
X0286333Y0282704D01*
X0285598Y02824D01*
X0274062D01*
X0273437Y0282659D01*
X0272959Y0283137D01*
X02727Y0283762D01*
Y02841D01*
Y02857D01*
Y0286078D01*
X0272989Y0286776D01*
X0273524Y0287311D01*
X0274222Y02876D01*
X0285678D01*
X0286376Y0287311D01*
D02*
G37*
G36*
X0267355Y027353D02*
X0266294D01*
X0266299Y0273551D01*
X0266305Y0273601D01*
X0266313Y0273789D01*
X0266324Y0275059D01*
X0267324D01*
X0267355Y027353D01*
D02*
G37*
%LPC*%
G36*
X0381447Y0418021D02*
X0380415Y0418021D01*
X0380415Y0418021D01*
X0379383Y0418021D01*
X0377336Y0417752D01*
X0375342Y0417218D01*
X0373435Y0416428D01*
X0371647Y0415395D01*
X037001Y0414139D01*
X036855Y0412679D01*
X0367293Y0411041D01*
X0366261Y0409254D01*
X0365471Y0407346D01*
X0364937Y0405352D01*
X0364667Y0403306D01*
X0364667Y0402274D01*
X0364667Y0402274D01*
X0364667Y0401241D01*
X0364937Y0399195D01*
X0365471Y0397201D01*
X0366261Y0395293D01*
X0367293Y0393506D01*
X036855Y0391868D01*
X037001Y0390408D01*
X0371648Y0389152D01*
X0373435Y0388119D01*
X0375342Y0387329D01*
X0377337Y0386795D01*
X0379383Y0386526D01*
X0380416D01*
X0381448Y0386526D01*
X0383494Y0386795D01*
X0385488Y0387329D01*
X0387396Y0388119D01*
X0389183Y0389151D01*
X0390821Y0390408D01*
X0392281Y0391868D01*
X0393537Y0393506D01*
X039457Y0395293D01*
X039536Y0397201D01*
X0395894Y0399195D01*
X0396163Y0401241D01*
X0396163Y0402274D01*
X0396163Y0402274D01*
X0396163Y0402274D01*
X0396163Y0403306D01*
X0395894Y0405352D01*
X0395359Y0407346D01*
X0394569Y0409254D01*
X0393537Y0411041D01*
X0392281Y0412679D01*
X0390821Y0414139D01*
X0389183Y0415396D01*
X0387395Y0416428D01*
X0385488Y0417218D01*
X0383494Y0417752D01*
X0381447Y0418021D01*
D02*
G37*
G36*
X0271576Y0409548D02*
X02714D01*
Y0404914D01*
X0276034D01*
Y040509D01*
X0275684Y0406396D01*
X0275008Y0407566D01*
X0274052Y0408522D01*
X0272881Y0409198D01*
X0271576Y0409548D01*
D02*
G37*
G36*
X02704D02*
X0270224D01*
X0268918Y0409198D01*
X0267747Y0408522D01*
X0266792Y0407566D01*
X0266116Y0406396D01*
X0265766Y040509D01*
Y0404914D01*
X02704D01*
Y0409548D01*
D02*
G37*
G36*
X0276034Y0403914D02*
X02714D01*
Y0401462D01*
X0273794Y0401462D01*
X0273529Y0401183D01*
X0273292Y040089D01*
X0273083Y0400584D01*
X0272902Y0400266D01*
X0272748Y0399934D01*
X0272623Y0399589D01*
X0272615Y0399559D01*
X0272881Y039963D01*
X0274052Y0400306D01*
X0275008Y0401262D01*
X0275684Y0402433D01*
X0276034Y0403738D01*
Y0403914D01*
D02*
G37*
G36*
X02704D02*
X0265766D01*
Y0403738D01*
X0266116Y0402433D01*
X0266792Y0401262D01*
X0267747Y0400306D01*
X0268918Y039963D01*
X0269185Y0399559D01*
X0269177Y0399589D01*
X0269052Y0399934D01*
X0268898Y0400266D01*
X0268717Y0400584D01*
X0268508Y040089D01*
X0268271Y0401182D01*
X0268006Y0401462D01*
X02704Y0401462D01*
Y0403914D01*
D02*
G37*
G36*
X0324348Y0409336D02*
X0323052D01*
X03218Y0409D01*
X0320678Y0408352D01*
X0319762Y0407436D01*
X0319114Y0406314D01*
X0318778Y0405062D01*
Y0403766D01*
X0319114Y0402515D01*
X0319762Y0401393D01*
X0320678Y0400476D01*
X03218Y0399828D01*
X0323052Y0399493D01*
X0324348D01*
X0325599Y0399828D01*
X0326722Y0400476D01*
X0327638Y0401393D01*
X0328286Y0402515D01*
X0328621Y0403766D01*
Y0405062D01*
X0328286Y0406314D01*
X0327638Y0407436D01*
X0326722Y0408352D01*
X0325599Y0409D01*
X0324348Y0409336D01*
D02*
G37*
G36*
X0340767Y040936D02*
X0336633D01*
X0335888Y0409262D01*
X0335193Y0408974D01*
X0334597Y0408517D01*
X033414Y0407921D01*
X0333852Y0407226D01*
X0333754Y0406481D01*
Y0402347D01*
X0333852Y0401602D01*
X033414Y0400908D01*
X0334597Y0400312D01*
X0335193Y0399854D01*
X0335888Y0399566D01*
X0336633Y0399468D01*
X0340767D01*
X0341512Y0399566D01*
X0342206Y0399854D01*
X0342802Y0400312D01*
X034326Y0400908D01*
X0343548Y0401602D01*
X0343646Y0402347D01*
Y0406481D01*
X0343548Y0407226D01*
X034326Y0407921D01*
X0342802Y0408517D01*
X0342206Y0408974D01*
X0341512Y0409262D01*
X0340767Y040936D01*
D02*
G37*
G36*
X0287967D02*
X0283833D01*
X0283088Y0409262D01*
X0282393Y0408974D01*
X0281797Y0408517D01*
X028134Y0407921D01*
X0281052Y0407226D01*
X0280954Y0406481D01*
Y0402347D01*
X0281052Y0401602D01*
X028134Y0400908D01*
X0281797Y0400312D01*
X0282393Y0399854D01*
X0283088Y0399566D01*
X0283833Y0399468D01*
X0287967D01*
X0288712Y0399566D01*
X0289406Y0399854D01*
X0290002Y0400312D01*
X029046Y0400908D01*
X0290748Y0401602D01*
X0290846Y0402347D01*
Y0406481D01*
X0290748Y0407226D01*
X029046Y0407921D01*
X0290002Y0408517D01*
X0289406Y0408974D01*
X0288712Y0409262D01*
X0287967Y040936D01*
D02*
G37*
G36*
X0389469Y0368672D02*
X0388D01*
Y0365D01*
X0392066D01*
Y0366075D01*
X0391977Y0366747D01*
X0391718Y0367373D01*
X0391305Y0367911D01*
X0390767Y0368324D01*
X0390141Y0368583D01*
X0389469Y0368672D01*
D02*
G37*
G36*
X0387D02*
X0385531D01*
X0384859Y0368583D01*
X0384233Y0368324D01*
X0383695Y0367911D01*
X0383282Y0367373D01*
X0383023Y0366747D01*
X0382934Y0366075D01*
Y0365D01*
X0387D01*
Y0368672D01*
D02*
G37*
G36*
X0392066Y0364D02*
X0388D01*
Y0360328D01*
X0389469D01*
X0390141Y0360417D01*
X0390767Y0360676D01*
X0391305Y0361089D01*
X0391718Y0361627D01*
X0391977Y0362253D01*
X0392066Y0362925D01*
Y0364D01*
D02*
G37*
G36*
X0387D02*
X0382934D01*
Y0362925D01*
X0383023Y0362253D01*
X0383282Y0361627D01*
X0383695Y0361089D01*
X0384233Y0360676D01*
X0384859Y0360417D01*
X0385531Y0360328D01*
X0387D01*
Y0364D01*
D02*
G37*
G36*
X03907Y035035D02*
X0390654D01*
X0389598Y0350067D01*
X0388771Y0349589D01*
X0388792Y0349582D01*
X0389097Y0349506D01*
X0389439Y0349446D01*
X0389816Y03494D01*
X0390681Y0349352D01*
X03907Y0349352D01*
Y035035D01*
D02*
G37*
G36*
Y0348881D02*
X0388519Y03467D01*
X03907D01*
Y0348881D01*
D02*
G37*
G36*
X0387811Y0348629D02*
X0387333Y0347802D01*
X038705Y0346746D01*
Y03467D01*
X0388048D01*
X0388048Y0346719D01*
X0387954Y0347961D01*
X0387894Y0348303D01*
X0387818Y0348608D01*
X0387811Y0348629D01*
D02*
G37*
G36*
X03907Y03457D02*
X038705D01*
Y0345654D01*
X0387333Y0344598D01*
X0387879Y0343652D01*
X0388652Y034288D01*
X0389598Y0342333D01*
X0390654Y034205D01*
X03907D01*
Y03457D01*
D02*
G37*
G36*
X0225269Y0330483D02*
X0221332D01*
X022041Y03303D01*
X0219629Y0329778D01*
X0219106Y0328996D01*
X0218923Y0328075D01*
Y0324925D01*
X0219106Y0324004D01*
X0219629Y0323222D01*
X022041Y03227D01*
X0221332Y0322517D01*
X0225269D01*
X022619Y03227D01*
X0226972Y0323222D01*
X0227494Y0324004D01*
X0227677Y0324925D01*
Y0328075D01*
X0227494Y0328996D01*
X0226972Y0329778D01*
X022619Y03303D01*
X0225269Y0330483D01*
D02*
G37*
G36*
X02238Y0320671D02*
Y0317D01*
X0227813D01*
X0227736Y0317583D01*
X0227318Y0318593D01*
X0226653Y031946D01*
X0225786Y0320125D01*
X0224777Y0320543D01*
X02238Y0320671D01*
D02*
G37*
G36*
X02228D02*
X0221823Y0320543D01*
X0220814Y0320125D01*
X0219947Y031946D01*
X0219282Y0318593D01*
X0218864Y0317583D01*
X0218787Y0317D01*
X02228D01*
Y0320671D01*
D02*
G37*
G36*
X0227813Y0316D02*
X02238D01*
Y0312329D01*
X0224777Y0312457D01*
X0225786Y0312875D01*
X0226653Y0313541D01*
X0227318Y0314407D01*
X0227736Y0315417D01*
X0227813Y0316D01*
D02*
G37*
G36*
X02228D02*
X0218787D01*
X0218864Y0315417D01*
X0219282Y0314407D01*
X0219947Y0313541D01*
X0220814Y0312875D01*
X0221823Y0312457D01*
X02228Y0312329D01*
Y0316D01*
D02*
G37*
G36*
X0381447Y0303856D02*
X0380415Y0303856D01*
X0380415Y0303856D01*
X0379383Y0303856D01*
X0377336Y0303587D01*
X0375342Y0303052D01*
X0373435Y0302262D01*
X0371647Y030123D01*
X037001Y0299974D01*
X036855Y0298514D01*
X0367293Y0296876D01*
X0366261Y0295088D01*
X0365471Y0293181D01*
X0364937Y0291187D01*
X0364667Y0289141D01*
X0364667Y0288108D01*
X0364667Y0288108D01*
X0364667Y0287076D01*
X0364937Y0285029D01*
X0365471Y0283035D01*
X0366261Y0281128D01*
X0367293Y027934D01*
X036855Y0277703D01*
X037001Y0276243D01*
X0371648Y0274986D01*
X0373435Y0273954D01*
X0375342Y0273164D01*
X0377337Y027263D01*
X0379383Y027236D01*
X0380416D01*
X0381448Y027236D01*
X0383494Y027263D01*
X0385488Y0273164D01*
X0387396Y0273954D01*
X0389183Y0274986D01*
X0390821Y0276243D01*
X0392281Y0277702D01*
X0393537Y027934D01*
X039457Y0281128D01*
X039536Y0283035D01*
X0395894Y0285029D01*
X0396163Y0287076D01*
X0396163Y0288108D01*
X0396163Y0288108D01*
X0396163Y0288108D01*
X0396163Y028914D01*
X0395894Y0291187D01*
X0395359Y0293181D01*
X0394569Y0295088D01*
X0393537Y0296876D01*
X0392281Y0298514D01*
X0390821Y0299974D01*
X0389183Y030123D01*
X0387395Y0302262D01*
X0385488Y0303052D01*
X0383494Y0303587D01*
X0381447Y0303856D01*
D02*
G37*
G36*
X025927Y0401762D02*
X025833D01*
X0257462Y0401403D01*
X0256797Y0400738D01*
X0256438Y039987D01*
Y039893D01*
X0256797Y0398062D01*
X0257462Y0397397D01*
X025833Y0397038D01*
X025927D01*
X0259389Y0396958D01*
Y0335505D01*
X0259387Y0335502D01*
X0259287Y0335D01*
X0259387Y0334498D01*
X0259389Y0334495D01*
Y0333655D01*
X0259262Y0333603D01*
X0258597Y0332938D01*
X0258238Y033207D01*
Y033113D01*
X0258597Y0330262D01*
X0259262Y0329597D01*
X026013Y0329238D01*
X026107D01*
X0261938Y0329597D01*
X0262603Y0330262D01*
X0262962Y033113D01*
Y033207D01*
X0262603Y0332938D01*
X0262515Y0333025D01*
X0262707Y0333487D01*
X0273556D01*
X0277487Y0329556D01*
Y0304544D01*
X0265172Y0292228D01*
X0264887Y0291802D01*
X0264787Y02913D01*
Y0286028D01*
X0264497Y0285738D01*
X0264138Y028487D01*
Y028393D01*
X0264497Y0283062D01*
X0265162Y0282397D01*
X026603Y0282038D01*
X026697D01*
X0267838Y0282397D01*
X0268503Y0283062D01*
X0268862Y028393D01*
Y028487D01*
X0268503Y0285738D01*
X0267838Y0286403D01*
X0267413Y0286579D01*
Y0290756D01*
X0279728Y0303072D01*
X0280013Y0303498D01*
X0280113Y0304D01*
Y03301D01*
X0280013Y0330602D01*
X0279728Y0331028D01*
X0275028Y0335728D01*
X0274602Y0336013D01*
X02741Y0336113D01*
X0261811D01*
Y03976D01*
X0261719Y0398063D01*
X0261456Y0398456D01*
X0261456Y0398456D01*
X0261109Y0398803D01*
X0261162Y039893D01*
Y039987D01*
X0260803Y0400738D01*
X0260138Y0401403D01*
X025927Y0401762D01*
D02*
G37*
G36*
X0336075Y0285665D02*
X0335D01*
Y02816D01*
X0338672D01*
Y0283068D01*
X0338583Y0283741D01*
X0338324Y0284367D01*
X0337911Y0284905D01*
X0337373Y0285318D01*
X0336747Y0285577D01*
X0336075Y0285665D01*
D02*
G37*
G36*
X0334D02*
X0332925D01*
X0332253Y0285577D01*
X0331627Y0285318D01*
X0331089Y0284905D01*
X0330676Y0284367D01*
X0330417Y0283741D01*
X0330328Y0283068D01*
Y02816D01*
X0334D01*
Y0285665D01*
D02*
G37*
%LPD*%
G36*
X0226949Y0319048D02*
X0226799Y0318892D01*
X0226673Y0318744D01*
X022657Y0318605D01*
X0226489Y0318476D01*
X0226432Y0318356D01*
X0226398Y0318245D01*
X0226388Y0318143D01*
X02264Y031805D01*
X0226435Y0317966D01*
X0226494Y0317891D01*
X0225085Y0319301D01*
X022516Y0319242D01*
X0225243Y0319206D01*
X0225337Y0319194D01*
X0225438Y0319205D01*
X022555Y0319239D01*
X022567Y0319296D01*
X0225799Y0319376D01*
X0225938Y0319479D01*
X0226085Y0319606D01*
X0226242Y0319755D01*
X0226949Y0319048D01*
D02*
G37*
D13*
X0373162Y03296D02*
X03733Y0329462D01*
X03703Y03489D02*
X0373162Y0346038D01*
Y03296D02*
Y0346038D01*
X03578Y03631D02*
X0363238Y0357662D01*
X0371486D01*
X0371648Y03575D01*
X03808D01*
X02661Y02848D02*
Y02913D01*
Y02848D02*
X02665Y02844D01*
X0266824Y0273D02*
Y0277676D01*
Y0273D02*
X0266824Y0273D01*
X02666Y02779D02*
X0266824Y0277676D01*
X02661Y02913D02*
X02788Y0304D01*
X03019Y03295D02*
X03466D01*
X02993D02*
X03019D01*
X0359463Y027913D02*
Y0300663D01*
X03668Y0308D01*
X035537Y0275037D02*
X0359463Y027913D01*
X03708Y03126D02*
X03733Y03151D01*
X03496Y03433D02*
Y03653D01*
X03675Y03674D02*
X03698Y03651D01*
X03517Y03674D02*
X03675D01*
X03698Y03626D02*
Y03651D01*
X03496Y03653D02*
X03517Y03674D01*
X0377Y03113D02*
Y03254D01*
X0367156Y0308237D02*
X0373937D01*
X0377Y03113D01*
X03466Y03295D02*
X03496Y03325D01*
Y03433D01*
X0292914Y0283786D02*
X0298Y02787D01*
X0292914Y0283786D02*
Y03142D01*
Y0323114D01*
X02993Y03295D01*
X02857Y03142D02*
X0292914D01*
X0298Y02787D02*
X03186D01*
X02857Y03142D02*
Y03421D01*
Y031D02*
Y03142D01*
X03137Y03433D02*
X03496D01*
X02398Y036305D02*
X024355D01*
X021455D02*
X02398D01*
X02233Y03165D02*
X0223694D01*
X02398Y0332606D01*
Y036305D01*
X02132Y03644D02*
Y03732D01*
Y03644D02*
X021455Y036305D01*
X024355D02*
X02436Y0363D01*
X02608Y03348D02*
X02741D01*
X02606Y0335D02*
X02608Y03348D01*
X02741D02*
X02788Y03301D01*
Y0304D02*
Y03301D01*
X0269Y03451D02*
Y03538D01*
Y03399D02*
Y03451D01*
X02827D02*
X02857Y03421D01*
X0269Y03451D02*
X02827D01*
X02747Y03595D02*
X02889D01*
X0269Y03538D02*
X02747Y03595D01*
X03733Y0329462D02*
X0379812D01*
X03733Y03151D02*
Y0329462D01*
X03767Y03257D02*
X0377Y03254D01*
X03668Y0308D02*
X0366919D01*
X0367156Y0308237D01*
X02823Y0275037D02*
X035537D01*
X02798Y0277537D02*
X02823Y0275037D01*
X02798Y0277537D02*
Y02838D01*
D15*
X0357775Y03329D02*
X03703D01*
X03052Y03037D02*
X03126Y02963D01*
X03052Y03037D02*
Y0318D01*
X0374613Y03548D02*
X0377313Y03521D01*
X03703Y03548D02*
X0374613D01*
X0377313Y03521D02*
X03853D01*
X03035Y0283D02*
X0314D01*
X02974Y02891D02*
Y03237D01*
Y02891D02*
X03035Y0283D01*
X0301584Y03262D02*
Y0329184D01*
X02999Y03262D02*
X0301584D01*
X02974Y03237D02*
X02999Y03262D01*
X0301584D02*
X03054D01*
X0301584Y0329184D02*
X03019Y03295D01*
X03272Y03017D02*
X03335D01*
X0325Y03039D02*
X03272Y03017D01*
X03335Y02993D02*
Y03017D01*
X03054Y03262D02*
X0305489Y0326111D01*
X03335Y03017D02*
X03549D01*
X0357775Y0287575D02*
Y03088D01*
X03537Y02835D02*
X0357775Y0287575D01*
X03363Y02964D02*
X03499D01*
X03501Y02962D01*
X03186Y02787D02*
X03363Y02964D01*
X03881Y03751D02*
X03948D01*
X03875Y03745D02*
X03881Y03751D01*
X03948D02*
X03965Y03734D01*
Y03215D02*
Y03734D01*
X03912Y03162D02*
X03965Y03215D01*
X03853Y03521D02*
X03912Y03462D01*
X03249Y03088D02*
X0357775D01*
Y03329D01*
X03126Y02963D02*
X03305D01*
X03335Y02993D01*
X0357775Y034D02*
Y0357625D01*
Y03329D02*
Y034D01*
X03538Y03402D02*
X0354Y034D01*
X0357775D01*
X02606Y0335D02*
Y03976D01*
Y03316D02*
Y0335D01*
X02588Y03994D02*
X02606Y03976D01*
X03525Y03629D02*
X0357775Y0357625D01*
D62*
X02629Y0273D02*
X0266824D01*
X0356214D01*
X02545Y03116D02*
X02579Y0315D01*
X0265D01*
X02545Y02814D02*
Y03116D01*
Y02814D02*
X02629Y0273D01*
X0264688Y0309688D02*
X0265Y031D01*
X0356214Y0273D02*
X03615Y0278286D01*
Y02997D01*
X0368Y03062D01*
X03752D02*
X0379812Y0310812D01*
X0368Y03062D02*
X03752D01*
X0379812Y0310812D02*
Y0329462D01*
Y0333188D01*
X03797Y03333D02*
X0379812Y0333188D01*
D63*
X0271Y03764D02*
Y0376441D01*
X02709Y0376541D02*
Y0404414D01*
Y0376541D02*
X0271Y0376441D01*
X02709Y0404414D02*
X02709Y0404414D01*
D64*
X02859Y0404414D02*
D03*
X03387D02*
D03*
D65*
X02709D02*
D03*
X03237D02*
D03*
D66*
X02233Y03265D02*
D03*
X03875Y03645D02*
D03*
D67*
X02233Y03165D02*
D03*
X03875Y03745D02*
D03*
D69*
X03912Y03262D02*
D03*
Y03362D02*
D03*
Y03462D02*
D03*
D70*
Y03162D02*
D03*
D71*
X03445Y02811D02*
D03*
D72*
X03345D02*
D03*
D73*
X03703Y03329D02*
D03*
X03052Y0318D02*
D03*
X03703Y03489D02*
D03*
Y03548D02*
D03*
X03Y039D02*
D03*
Y04D02*
D03*
Y041D02*
D03*
X0385Y038D02*
D03*
X039Y0385D02*
D03*
X0395Y038D02*
D03*
Y039D02*
D03*
X0365D02*
D03*
X0245Y0415D02*
D03*
X0255D02*
D03*
X0295Y0355D02*
D03*
X0315D02*
D03*
Y0365D02*
D03*
X0295D02*
D03*
Y0375D02*
D03*
X0315D02*
D03*
X0305D02*
D03*
Y0385D02*
D03*
Y0395D02*
D03*
Y0405D02*
D03*
Y0415D02*
D03*
X037Y0385D02*
D03*
X036D02*
D03*
Y0395D02*
D03*
Y0405D02*
D03*
Y0415D02*
D03*
X02665Y02844D02*
D03*
X02666Y02779D02*
D03*
X0314Y0283D02*
D03*
X0305489Y0326111D02*
D03*
X03549Y03017D02*
D03*
X03501Y02962D02*
D03*
X03708Y03126D02*
D03*
X03578Y03631D02*
D03*
X0377938Y03521D02*
D03*
X03808Y03575D02*
D03*
X03698Y03626D02*
D03*
X0325Y03039D02*
D03*
X03249Y03088D02*
D03*
X03137Y03433D02*
D03*
X03538Y03402D02*
D03*
X03496Y03325D02*
D03*
X02132Y03732D02*
D03*
X02436Y0363D02*
D03*
X0271Y03764D02*
D03*
X02588Y03994D02*
D03*
X02857Y031D02*
D03*
X0269Y03399D02*
D03*
X02889Y03595D02*
D03*
X03525Y03629D02*
D03*
X03537Y02835D02*
D03*
X03767Y03257D02*
D03*
X0285Y0285D02*
D03*
X0275D02*
D03*
X03797Y03333D02*
D03*
X02606Y03316D02*
D03*
X027Y031D02*
D03*
X0265D02*
D03*
Y0315D02*
D03*
Y032D02*
D03*
D74*
X0222919Y0277675D02*
D03*
X0237683Y0283778D02*
D03*
X0231581Y0298541D02*
D03*
X0216817Y0292439D02*
D03*
X0237683D02*
D03*
X0222919Y0298541D02*
D03*
X0216817Y0283778D02*
D03*
X0231581Y0277675D02*
D03*
X0384746D02*
D03*
X0369982Y0283778D02*
D03*
X0376085Y0298541D02*
D03*
X0390848Y0292439D02*
D03*
X0369982D02*
D03*
X0384746Y0298541D02*
D03*
X0390848Y0283778D02*
D03*
X0376085Y0277675D02*
D03*
X0231581Y0391841D02*
D03*
X0216817Y0397943D02*
D03*
X0222919Y0412707D02*
D03*
X0237683Y0406604D02*
D03*
X0216817D02*
D03*
X0231581Y0412707D02*
D03*
X0237683Y0397943D02*
D03*
X0222919Y0391841D02*
D03*
X0376085D02*
D03*
X0390848Y0397943D02*
D03*
X0384746Y0412707D02*
D03*
X0369982Y0406604D02*
D03*
X0390848D02*
D03*
X0376085Y0412707D02*
D03*
X0369982Y0397943D02*
D03*
X0384746Y0391841D02*
D03*
D75*
X022725Y0288108D02*
D03*
X0380415D02*
D03*
X022725Y0402274D02*
D03*
X0380415D02*
D03*
M02*
