G04*
G04 #@! TF.GenerationSoftware,Altium Limited,Altium Designer,21.3.2 (30)*
G04*
G04 Layer_Color=8388736*
%FSTAX25Y25*%
%MOIN*%
G70*
G04*
G04 #@! TF.SameCoordinates,D79C2F2D-5807-4F46-82E1-E58DEDE1A544*
G04*
G04*
G04 #@! TF.FilePolarity,Positive*
G04*
G01*
G75*
%ADD73C,0.00197*%
D73*
X0491148Y0231525D02*
Y0254675D01*
X0518314D01*
Y0231525D02*
Y0254675D01*
X0491148Y0231525D02*
X0518314D01*
X0395425Y0215602D02*
X0438575D01*
Y0188436D02*
Y0215602D01*
X0395425Y0188436D02*
X0438575D01*
X0395425D02*
Y0215602D01*
X0491148Y0266525D02*
X0518314D01*
Y0309675D01*
X0491148D02*
X0518314D01*
X0491148Y0266525D02*
Y0309675D01*
X0439925Y0188436D02*
Y0215602D01*
Y0188436D02*
X0483075D01*
Y0215602D01*
X0439925D02*
X0483075D01*
X0453613Y02533D02*
X045755D01*
X0455582Y0251331D02*
Y0255269D01*
X0487669Y0225544D02*
Y0281056D01*
X0423495D02*
X0487669D01*
X0423495Y0225544D02*
Y0281056D01*
Y0225544D02*
X0487669D01*
X04143Y0339932D02*
Y0343868D01*
X0412331Y03419D02*
X0416268D01*
X0440875Y0320443D02*
Y0363357D01*
X0387725D02*
X0440875D01*
X0387725Y0320443D02*
Y0363357D01*
Y0320443D02*
X0440875D01*
M02*
