G04*
G04 #@! TF.GenerationSoftware,Altium Limited,Altium Designer,21.3.2 (30)*
G04*
G04 Layer_Color=16711935*
%FSTAX25Y25*%
%MOIN*%
G70*
G04*
G04 #@! TF.SameCoordinates,D79C2F2D-5807-4F46-82E1-E58DEDE1A544*
G04*
G04*
G04 #@! TF.FilePolarity,Positive*
G04*
G01*
G75*
%ADD11C,0.00394*%
%ADD12C,0.00787*%
%ADD14C,0.00500*%
%ADD75R,0.04305X0.24016*%
G36*
X04823Y0294839D02*
X0481119Y0292938D01*
X0483481D01*
X04823Y0294839D01*
D02*
G37*
G36*
Y0311158D02*
X0481119Y0309257D01*
X0483481D01*
X04823Y0311158D01*
D02*
G37*
G36*
Y0327657D02*
X0481119Y0325755D01*
X0483481D01*
X04823Y0327657D01*
D02*
G37*
D11*
X044161Y0285011D02*
Y0311389D01*
X0456177Y0285011D02*
Y0311389D01*
X044161D02*
X0456177D01*
X044161Y0285011D02*
X0456177D01*
X0395775Y03897D02*
X0438375D01*
X0395775Y03743D02*
X0438375D01*
X0395775D02*
Y03897D01*
X0438375Y03743D02*
Y03897D01*
X0370228Y031435D02*
X0373772D01*
X0370228Y032065D02*
X0373772D01*
X0370228Y031435D02*
Y032065D01*
X0373772Y031435D02*
Y032065D01*
X0463697Y0321425D02*
Y0324575D01*
X0457398Y0321425D02*
Y0324575D01*
Y0321425D02*
X0463697D01*
X0457398Y0324575D02*
X0463697D01*
X0419275Y0288948D02*
Y0295247D01*
X0416125Y0288948D02*
Y0295247D01*
X0419275D01*
X0416125Y0288948D02*
X0419275D01*
X0422925D02*
Y0295247D01*
X0426075Y0288948D02*
Y0295247D01*
X0422925Y0288948D02*
X0426075D01*
X0422925Y0295247D02*
X0426075D01*
X0457385Y0315025D02*
X0463684D01*
X0457385Y0318175D02*
X0463684D01*
Y0315025D02*
Y0318175D01*
X0457385Y0315025D02*
Y0318175D01*
X0355823Y0367992D02*
Y0392008D01*
X0387831Y0367992D02*
Y0392008D01*
X0355823D02*
X0387831D01*
X0355823Y0367992D02*
X0387831D01*
X0366972Y0314405D02*
Y0320704D01*
X0363428Y0314405D02*
Y0320704D01*
X0366972D01*
X0363428Y0314405D02*
X0366972D01*
X0480725Y0329889D02*
X0483875D01*
X0480725Y032359D02*
Y0329889D01*
Y032359D02*
X0483875D01*
Y0329889D01*
X0474472Y0323294D02*
Y0329594D01*
X0478016Y0323294D02*
Y0329594D01*
X0474472Y0323294D02*
X0478016D01*
X0474472Y0329594D02*
X0478016D01*
X0474528Y0290477D02*
Y0296776D01*
X0478072Y0290477D02*
Y0296776D01*
X0474528Y0290477D02*
X0478072D01*
X0474528Y0296776D02*
X0478072D01*
X0480725Y0297072D02*
X0483875D01*
X0480725Y0290773D02*
Y0297072D01*
Y0290773D02*
X0483875D01*
Y0297072D01*
X0474528Y0306796D02*
Y0313095D01*
X0478072Y0306796D02*
Y0313095D01*
X0474528Y0306796D02*
X0478072D01*
X0474528Y0313095D02*
X0478072D01*
X0480725Y0313391D02*
X0483875D01*
X0480725Y0307091D02*
Y0313391D01*
Y0307091D02*
X0483875D01*
Y0313391D01*
D12*
X0361943Y03137D02*
G03*
X0361943Y03137I-0000394J0D01*
G01*
X0352394Y0235878D02*
G03*
X0352394Y0235878I-0000394J0D01*
G01*
D14*
X0341502Y0307086D02*
X0359002D01*
Y0347086D01*
X0341502D02*
X0359002D01*
X0341502Y0307086D02*
Y0347086D01*
X03384Y02835D02*
X03587D01*
X03588Y02836D02*
Y02913D01*
X033851Y0236213D02*
Y0282787D01*
X03193Y02275D02*
X03591D01*
X03193Y02913D02*
X03588D01*
X033851Y02357D02*
Y02836D01*
X03385Y02357D02*
X03591D01*
Y02275D02*
Y02357D01*
X03193Y02275D02*
Y02913D01*
X0359252Y0238831D02*
Y0280169D01*
X0341181D02*
X0359252D01*
X0341181Y0238831D02*
Y0280169D01*
Y0238831D02*
X0359252D01*
X03193Y029455D02*
Y035835D01*
X03591Y029455D02*
Y030275D01*
X03385D02*
X03591D01*
X033851D02*
Y035065D01*
X03193Y035835D02*
X03588D01*
X03193Y029455D02*
X03591D01*
X033851Y0303263D02*
Y0349837D01*
X03588Y035065D02*
Y035835D01*
X03384Y035055D02*
X03587D01*
X03641Y0307469D02*
X040347Y0307469D01*
X04035Y0228569D02*
Y0307469D01*
X03641Y0228569D02*
Y0307469D01*
Y0228569D02*
X040347D01*
D75*
X0385475Y038D02*
D03*
M02*
