G04*
G04 #@! TF.GenerationSoftware,Altium Limited,Altium Designer,21.3.2 (30)*
G04*
G04 Layer_Physical_Order=2*
G04 Layer_Color=16711680*
%FSTAX25Y25*%
%MOIN*%
G70*
G04*
G04 #@! TF.SameCoordinates,D79C2F2D-5807-4F46-82E1-E58DEDE1A544*
G04*
G04*
G04 #@! TF.FilePolarity,Positive*
G04*
G01*
G75*
%ADD20C,0.05906*%
%ADD52C,0.03000*%
%ADD54C,0.06000*%
%ADD55O,0.13000X0.05800*%
%ADD56R,0.12000X0.11000*%
%ADD57O,0.12000X0.11000*%
%ADD58C,0.07677*%
G04:AMPARAMS|DCode=59|XSize=76.77mil|YSize=76.77mil|CornerRadius=19.19mil|HoleSize=0mil|Usage=FLASHONLY|Rotation=90.000|XOffset=0mil|YOffset=0mil|HoleType=Round|Shape=RoundedRectangle|*
%AMROUNDEDRECTD59*
21,1,0.07677,0.03839,0,0,90.0*
21,1,0.03839,0.07677,0,0,90.0*
1,1,0.03839,0.01919,0.01919*
1,1,0.03839,0.01919,-0.01919*
1,1,0.03839,-0.01919,-0.01919*
1,1,0.03839,-0.01919,0.01919*
%
%ADD59ROUNDEDRECTD59*%
G04:AMPARAMS|DCode=60|XSize=76.77mil|YSize=76.77mil|CornerRadius=19.19mil|HoleSize=0mil|Usage=FLASHONLY|Rotation=0.000|XOffset=0mil|YOffset=0mil|HoleType=Round|Shape=RoundedRectangle|*
%AMROUNDEDRECTD60*
21,1,0.07677,0.03839,0,0,0.0*
21,1,0.03839,0.07677,0,0,0.0*
1,1,0.03839,0.01919,-0.01919*
1,1,0.03839,-0.01919,-0.01919*
1,1,0.03839,-0.01919,0.01919*
1,1,0.03839,0.01919,0.01919*
%
%ADD60ROUNDEDRECTD60*%
%ADD61O,0.11000X0.12000*%
%ADD62R,0.11000X0.12000*%
%ADD63C,0.14512*%
%ADD64C,0.07638*%
%ADD65R,0.07638X0.07638*%
%ADD67C,0.09153*%
%ADD68C,0.03150*%
%ADD69C,0.02598*%
%ADD70C,0.05000*%
%ADD71C,0.27559*%
G36*
X04108Y03719D02*
X0411426Y03719D01*
X0412652Y0371656D01*
X0413808Y0371177D01*
X0414848Y0370482D01*
X0415732Y0369598D01*
X0416427Y0368558D01*
X0416906Y0367402D01*
X041715Y0366175D01*
X041715Y036555D01*
X041715Y036555D01*
X041715Y036555D01*
Y03624D01*
X0417176Y0361861D01*
X0417387Y0360803D01*
X0417799Y0359807D01*
X0418398Y0358911D01*
X0419161Y0358148D01*
X0420057Y0357549D01*
X0421053Y0357137D01*
X0422111Y0356926D01*
X042265Y03569D01*
X05106Y03569D01*
X051128Y03569D01*
X0512613Y0356635D01*
X0513868Y0356115D01*
X0514998Y035536D01*
X051596Y0354398D01*
X0516715Y0353268D01*
X0517235Y0352013D01*
X05175Y035068D01*
X05175Y035D01*
X05175Y035D01*
X05175Y035D01*
Y034363D01*
X0517239Y0342317D01*
X0516726Y0341079D01*
X0515982Y0339965D01*
X0515035Y0339018D01*
X0513921Y0338274D01*
X0512683Y0337761D01*
X051137Y03375D01*
X05107D01*
X04951Y03375D01*
X0494453Y0337468D01*
X0493184Y0337216D01*
X0491989Y0336721D01*
X0490913Y0336002D01*
X0489998Y0335087D01*
X0489279Y0334011D01*
X0488784Y0332816D01*
X0488532Y0331547D01*
X04885Y03309D01*
X04885D01*
Y03309D01*
X04885D01*
X04885Y03049D01*
X0488532Y0304253D01*
X0488784Y0302984D01*
X0489279Y0301789D01*
X0489998Y0300713D01*
X0490913Y0299798D01*
X0491989Y0299079D01*
X0493184Y0298584D01*
X0494453Y0298332D01*
X04951Y02983D01*
X05146Y02983D01*
X0514895Y02983D01*
X0515475Y0298185D01*
X0516021Y0297959D01*
X0516512Y029763D01*
X051693Y0297212D01*
X0517259Y0296721D01*
X0517485Y0296175D01*
X0517567Y0295761D01*
X05176Y02953D01*
Y02953D01*
X05176Y02953D01*
X05176Y02953D01*
X05176Y0291D01*
X05176Y0290744D01*
X05175Y0290242D01*
X0517304Y0289768D01*
X051702Y0289342D01*
X0516657Y028898D01*
X0516232Y0288696D01*
X0515758Y02885D01*
X0515256Y02884D01*
X0515Y02884D01*
X05031D01*
X0502669Y0288379D01*
X0501823Y0288211D01*
X0501026Y028788D01*
X0500309Y0287401D01*
X0499699Y0286791D01*
X049922Y0286074D01*
X0498889Y0285277D01*
X0498721Y0284431D01*
X04987Y0284D01*
Y02826D01*
X0498721Y0282178D01*
X0498885Y0281352D01*
X0499208Y0280573D01*
X0499676Y0279872D01*
X0500272Y0279276D01*
X0500973Y0278808D01*
X0501752Y0278485D01*
X0502578Y0278321D01*
X0503Y02783D01*
X0503Y02783D01*
X05145Y02783D01*
X0514805Y02783D01*
X0515404Y0278181D01*
X0515968Y0277947D01*
X0516476Y0277608D01*
X0516908Y0277176D01*
X0517247Y0276668D01*
X0517481Y0276104D01*
X0517569Y0275661D01*
X05176Y02752D01*
Y02752D01*
X05176D01*
X05176Y02752D01*
X05176Y02702D01*
X05176Y0269914D01*
X0517489Y0269354D01*
X051727Y0268826D01*
X0516953Y0268351D01*
X0516549Y0267947D01*
X0516074Y026763D01*
X0515546Y0267411D01*
X0514986Y02673D01*
X05147Y02673D01*
X04813D01*
X0480315Y02673D01*
X0478383Y0267684D01*
X0476563Y0268438D01*
X0474925Y0269532D01*
X0473532Y0270925D01*
X0472438Y0272563D01*
X0471684Y0274383D01*
X04713Y0276315D01*
X04713Y02773D01*
X04713Y03291D01*
X0471258Y0329953D01*
X0470925Y0331626D01*
X0470273Y0333201D01*
X0469325Y0334619D01*
X0468119Y0335825D01*
X0466701Y0336773D01*
X0465126Y0337425D01*
X0463453Y0337758D01*
X04626Y03378D01*
X04626Y03378D01*
X04626Y03378D01*
X03951Y03378D01*
X0394334Y0337674D01*
X0392783Y0337727D01*
X0391272Y0338081D01*
X0389859Y0338723D01*
X0388598Y0339628D01*
X0387539Y0340762D01*
X0386721Y0342081D01*
X0386176Y0343534D01*
X038605Y03443D01*
Y036735D01*
Y0367798D01*
X0386225Y0368677D01*
X0386568Y0369505D01*
X0387066Y037025D01*
X03877Y0370884D01*
X0388445Y0371382D01*
X0389273Y0371725D01*
X0390152Y03719D01*
X03906Y03719D01*
Y03719D01*
X04108Y03719D01*
D02*
G37*
G36*
X0499095Y0398429D02*
X0497372Y0397968D01*
X0495465Y0397178D01*
X0493677Y0396146D01*
X0492039Y0394889D01*
X049058Y0393429D01*
X0489323Y0391791D01*
X0488291Y0390004D01*
X0487501Y0388096D01*
X0486966Y0386103D01*
X0486697Y0384056D01*
X0486697Y0383024D01*
X0486697Y0383024D01*
X0486697Y0381992D01*
X0486966Y0379945D01*
X0487501Y0377951D01*
X0488291Y0376044D01*
X0489323Y0374256D01*
X049058Y0372618D01*
X0492039Y0371158D01*
X0493677Y0369901D01*
X0495465Y0368869D01*
X0497372Y0368079D01*
X0499366Y0367545D01*
X0501413Y0367276D01*
X0502445D01*
X0503477Y0367276D01*
X0505524Y0367545D01*
X0507518Y0368079D01*
X0509425Y0368869D01*
X0511213Y0369901D01*
X0512851Y0371158D01*
X051431Y0372618D01*
X0515567Y0374256D01*
X0516599Y0376043D01*
X0517389Y0377951D01*
X0517923Y0379945D01*
X0518193Y0381991D01*
X0518193Y0383024D01*
X0518193Y0383024D01*
X0518193Y0383024D01*
X0518193Y0384056D01*
X0517923Y0386102D01*
X0517389Y0388096D01*
X0516599Y0390004D01*
X0515947Y0391133D01*
X0516376Y0391389D01*
X0517103Y0390203D01*
X0518065Y038788D01*
X0518652Y0385436D01*
X0518844Y0383002D01*
X0518829Y038293D01*
Y0296159D01*
X0518329Y0296109D01*
X0518285Y0296334D01*
X0518254Y0296408D01*
X0518238Y0296487D01*
X0518012Y0297033D01*
X0517968Y02971D01*
X0517937Y0297174D01*
X0517608Y0297666D01*
X0517552Y0297722D01*
X0517507Y0297789D01*
X0517089Y0298207D01*
X0517022Y0298252D01*
X0516966Y0298308D01*
X0516474Y0298637D01*
X05164Y0298668D01*
X0516333Y0298712D01*
X0515787Y0298938D01*
X0515708Y0298954D01*
X0515634Y0298985D01*
X0515055Y02991D01*
X0514974Y02991D01*
X0514895Y0299116D01*
X05146Y0299116D01*
X0508297Y0299116D01*
X050809Y0299616D01*
X0508603Y0300129D01*
X050924Y0301232D01*
X050957Y0302463D01*
Y03026D01*
X0504731D01*
X0499893D01*
Y0302463D01*
X0500222Y0301232D01*
X0500859Y0300129D01*
X0501373Y0299616D01*
X0501165Y0299116D01*
X049512Y0299116D01*
X0494553Y0299144D01*
X0493422Y0299369D01*
X0492375Y0299802D01*
X0491433Y0300432D01*
X0490632Y0301233D01*
X0490002Y0302175D01*
X0489569Y0303222D01*
X0489344Y0304353D01*
X0489316Y030492D01*
X0489316Y033088D01*
X0489344Y0331447D01*
X0489568Y0332578D01*
X0490002Y0333625D01*
X0490631Y0334567D01*
X0491433Y0335368D01*
X0492375Y0335998D01*
X0493422Y0336432D01*
X0494553Y0336656D01*
X049512Y0336684D01*
X05107Y0336684D01*
X051137D01*
X0511448Y03367D01*
X0511529D01*
X0512843Y0336961D01*
X0512917Y0336992D01*
X0512996Y0337008D01*
X0514233Y033752D01*
X05143Y0337565D01*
X0514374Y0337596D01*
X0515488Y033834D01*
X0515545Y0338397D01*
X0515612Y0338441D01*
X0516559Y0339388D01*
X0516603Y0339455D01*
X051666Y0339512D01*
X0517404Y0340626D01*
X0517435Y03407D01*
X051748Y0340767D01*
X0517992Y0342004D01*
X0518008Y0342083D01*
X0518039Y0342157D01*
X05183Y0343471D01*
Y0343551D01*
X0518316Y034363D01*
Y035D01*
X0518316Y035D01*
X0518316Y0350679D01*
X05183Y0350758D01*
Y0350839D01*
X0518035Y0352172D01*
X0518004Y0352246D01*
X0517988Y0352325D01*
X0517468Y035358D01*
X0517424Y0353647D01*
X0517393Y0353722D01*
X0516638Y0354852D01*
X0516581Y0354908D01*
X0516536Y0354975D01*
X0515575Y0355936D01*
X0515509Y0355981D01*
X0515452Y0356038D01*
X0514322Y0356793D01*
X0514247Y0356824D01*
X0514181Y0356868D01*
X0512925Y0357388D01*
X0512846Y0357404D01*
X0512772Y0357435D01*
X0511439Y03577D01*
X0511358D01*
X051128Y0357716D01*
X05106Y0357716D01*
X042267Y0357716D01*
X0422211Y0357738D01*
X0421291Y0357921D01*
X0420444Y0358272D01*
X0419681Y0358782D01*
X0419032Y0359431D01*
X0418522Y0360194D01*
X0418171Y0361041D01*
X0417988Y0361961D01*
X0417966Y036242D01*
Y036555D01*
X0417966Y036555D01*
X0417966Y0366175D01*
X041795Y0366254D01*
Y0366335D01*
X0417706Y0367561D01*
X0417675Y0367635D01*
X041766Y0367714D01*
X0417181Y036887D01*
X0417136Y0368937D01*
X0417105Y0369011D01*
X0416411Y0370051D01*
X0416354Y0370108D01*
X0416309Y0370175D01*
X0415425Y0371059D01*
X0415358Y0371104D01*
X0415301Y037116D01*
X0414261Y0371855D01*
X0414187Y0371886D01*
X041412Y0371931D01*
X0412964Y0372409D01*
X0412886Y0372425D01*
X0412812Y0372456D01*
X0411585Y03727D01*
X0411504D01*
X0411426Y0372715D01*
X04108Y0372715D01*
X03906Y0372715D01*
X03906Y0372715D01*
X0390152Y0372715D01*
X0390073Y03727D01*
X0389993D01*
X0389114Y0372525D01*
X0389039Y0372494D01*
X0388961Y0372479D01*
X0388133Y0372136D01*
X0388066Y0372091D01*
X0387991Y037206D01*
X0387246Y0371562D01*
X038719Y0371505D01*
X0387123Y0371461D01*
X0386489Y0370827D01*
X0386444Y037076D01*
X0386387Y0370704D01*
X038589Y0369958D01*
X0385859Y0369884D01*
X0385814Y0369817D01*
X0385471Y0368989D01*
X0385456Y0368911D01*
X0385425Y0368836D01*
X038525Y0367957D01*
Y0367877D01*
X0385234Y0367798D01*
Y036735D01*
Y03443D01*
X0385247Y0344235D01*
X0385245Y0344168D01*
X0385371Y0343402D01*
X0385399Y0343327D01*
X0385412Y0343248D01*
X0385957Y0341795D01*
X0385999Y0341726D01*
X0386028Y0341651D01*
X0386846Y0340332D01*
X03869Y0340273D01*
X0386943Y0340205D01*
X0388002Y0339071D01*
X0388068Y0339024D01*
X0388123Y0338966D01*
X0389383Y033806D01*
X0389456Y0338027D01*
X0389522Y033798D01*
X0390935Y0337338D01*
X0391013Y033732D01*
X0391086Y0337287D01*
X0392597Y0336933D01*
X0392677Y033693D01*
X0392756Y0336912D01*
X0394307Y0336859D01*
X0394386Y0336872D01*
X0394466Y033687D01*
X0395166Y0336984D01*
X046258Y0336984D01*
X0463353Y0336946D01*
X0464888Y0336641D01*
X0466315Y033605D01*
X0467599Y0335192D01*
X0468692Y0334099D01*
X046955Y0332815D01*
X0470141Y0331388D01*
X0470446Y0329853D01*
X0470484Y032908D01*
X0470484Y02773D01*
X0470484Y0276315D01*
X04705Y0276236D01*
Y0276156D01*
X0470884Y0274224D01*
X0470915Y027415D01*
X0470931Y0274071D01*
X0471685Y0272251D01*
X0471729Y0272184D01*
X047176Y027211D01*
X0472854Y0270472D01*
X0472911Y0270415D01*
X0472956Y0270349D01*
X0474348Y0268956D01*
X0474415Y0268911D01*
X0474472Y0268854D01*
X047611Y026776D01*
X0476184Y0267729D01*
X0476251Y0267685D01*
X0478071Y0266931D01*
X047815Y0266915D01*
X0478224Y0266884D01*
X0480156Y02665D01*
X0480236D01*
X0480315Y0266484D01*
X04813Y0266484D01*
X05147D01*
X0514986Y0266484D01*
X0515064Y02665D01*
X0515145Y02665D01*
X0515705Y0266611D01*
X0515779Y0266642D01*
X0515858Y0266658D01*
X0516386Y0266876D01*
X0516453Y0266921D01*
X0516527Y0266952D01*
X0517002Y0267269D01*
X0517059Y0267326D01*
X0517126Y0267371D01*
X0517529Y0267774D01*
X0517574Y0267841D01*
X0517631Y0267898D01*
X0517948Y0268373D01*
X0517979Y0268447D01*
X0518024Y0268514D01*
X0518242Y0269042D01*
X0518258Y0269121D01*
X0518289Y0269195D01*
X0518329Y02694D01*
X0518829Y0269351D01*
Y0206167D01*
X0518836Y0206135D01*
X0518686Y0203856D01*
X0518471Y0202771D01*
X0517977Y0202852D01*
X0518193Y0204491D01*
X0518193Y0205523D01*
X0518193Y0205523D01*
X0518193Y0205523D01*
X0518193Y0206556D01*
X0517923Y0208602D01*
X0517389Y0210596D01*
X0516599Y0212504D01*
X0515567Y0214291D01*
X051431Y0215929D01*
X0512851Y0217389D01*
X0511213Y0218646D01*
X0509425Y0219678D01*
X0507518Y0220468D01*
X0505524Y0221002D01*
X0503477Y0221271D01*
X0502445Y0221271D01*
X0502445Y0221271D01*
X0501412Y0221271D01*
X0499366Y0221002D01*
X0497372Y0220468D01*
X0495465Y0219678D01*
X0493677Y0218646D01*
X0492039Y0217389D01*
X049058Y0215929D01*
X0489323Y0214291D01*
X0488291Y0212504D01*
X0487501Y0210596D01*
X0486966Y0208602D01*
X0486697Y0206556D01*
X0486697Y0205524D01*
X0486697Y0205524D01*
X0486697Y0204491D01*
X0486966Y0202445D01*
X0487501Y0200451D01*
X0488291Y0198544D01*
X0489323Y0196756D01*
X049058Y0195118D01*
X0492039Y0193658D01*
X0493677Y0192401D01*
X0495465Y0191369D01*
X0497372Y0190579D01*
X0499366Y0190045D01*
X0501413Y0189776D01*
X0502445D01*
X0503477Y0189776D01*
X0505524Y0190045D01*
X0507518Y0190579D01*
X0509425Y0191369D01*
X0511213Y0192401D01*
X0512851Y0193658D01*
X0514037Y0194844D01*
X0514402Y0194502D01*
X0513652Y0193648D01*
X0511911Y0192121D01*
X0509986Y0190834D01*
X0507909Y018981D01*
X0505716Y0189065D01*
X0503444Y0188614D01*
X0501165Y0188464D01*
X0501133Y0188471D01*
X0427025D01*
X0426818Y0188971D01*
X0427311Y0189464D01*
X0427488Y0189728D01*
X0427854Y0190611D01*
X0427916Y0190923D01*
Y0198553D01*
X0428416Y019876D01*
X0429029Y0198147D01*
X0430132Y019751D01*
X0431363Y019718D01*
X04315D01*
Y0202019D01*
Y0206857D01*
X0431363D01*
X0430132Y0206528D01*
X0429029Y0205891D01*
X0428472Y0205334D01*
X0428011Y020558D01*
X0428048Y0205765D01*
X0428271Y0206305D01*
X0428596Y0206791D01*
X0429009Y0207204D01*
X0429495Y0207528D01*
X0430035Y0207752D01*
X0430628Y020787D01*
X043092Y0207884D01*
X0431717D01*
X0431796Y02079D01*
X0431877D01*
X043348Y0208219D01*
X0433554Y020825D01*
X0433633Y0208265D01*
X0435144Y0208891D01*
X043521Y0208936D01*
X0435285Y0208966D01*
X0436644Y0209875D01*
X0436701Y0209932D01*
X0436768Y0209976D01*
X0437924Y0211132D01*
X0437968Y0211199D01*
X0438025Y0211256D01*
X0438934Y0212615D01*
X0438964Y021269D01*
X0439009Y0212756D01*
X0439635Y0214267D01*
X043965Y0214346D01*
X0439681Y021442D01*
X044Y0216023D01*
Y0216104D01*
X0440016Y0216182D01*
Y0217D01*
Y02852D01*
Y0285673D01*
X044Y0285752D01*
Y0285832D01*
X0439816Y0286759D01*
X0439785Y0286834D01*
X0439769Y0286912D01*
X0439407Y0287786D01*
X0439363Y0287853D01*
X0439332Y0287927D01*
X0438807Y0288713D01*
X043875Y028877D01*
X0438705Y0288837D01*
X0438037Y0289505D01*
X043797Y028955D01*
X0437913Y0289607D01*
X0437127Y0290132D01*
X0437053Y0290163D01*
X0436986Y0290207D01*
X0436112Y0290569D01*
X0436033Y0290585D01*
X0435959Y0290616D01*
X0435032Y02908D01*
X0434951D01*
X0434873Y0290816D01*
X0408877D01*
X0408798Y02908D01*
X0408717D01*
X0407887Y0290635D01*
X0407812Y0290604D01*
X0407734Y0290588D01*
X0406951Y0290264D01*
X0406884Y029022D01*
X040681Y0290189D01*
X0406106Y0289718D01*
X0406049Y0289661D01*
X0405982Y0289617D01*
X0405383Y0289018D01*
X0405338Y0288951D01*
X0405282Y0288894D01*
X0404811Y028819D01*
X040478Y0288116D01*
X0404736Y0288049D01*
X0404412Y0287266D01*
X0404396Y0287188D01*
X0404365Y0287113D01*
X04043Y0286785D01*
X04038Y0286835D01*
Y02987D01*
X04038Y0299586D01*
X0403454Y0301325D01*
X0402776Y0302963D01*
X0401791Y0304437D01*
X0400537Y0305691D01*
X0399063Y0306676D01*
X0397425Y0307354D01*
X0395686Y03077D01*
X03948Y03077D01*
X03948Y03077D01*
X03948Y03077D01*
X03757D01*
X03721Y03077D01*
X0371292Y03077D01*
X0369708Y0307385D01*
X0368216Y0306767D01*
X0366873Y0305869D01*
X0365731Y0304727D01*
X0364833Y0303384D01*
X0364215Y0301892D01*
X03639Y0300308D01*
X03639Y02995D01*
Y02385D01*
Y0237515D01*
X0364284Y0235583D01*
X0365038Y0233763D01*
X0366132Y0232125D01*
X0367525Y0230732D01*
X0369163Y0229638D01*
X0370983Y0228884D01*
X0372915Y02285D01*
X0394875D01*
X0396788Y0228881D01*
X0398589Y0229627D01*
X0400211Y023071D01*
X040159Y0232089D01*
X0402673Y0233711D01*
X0403419Y0235512D01*
X04038Y0237425D01*
Y02384D01*
Y0250613D01*
X04043Y0250662D01*
X0404308Y0250624D01*
X0404338Y025055D01*
X0404354Y0250471D01*
X0404565Y0249962D01*
X040461Y0249895D01*
X040464Y0249821D01*
X0404947Y0249362D01*
X0405004Y0249305D01*
X0405048Y0249238D01*
X0405438Y0248848D01*
X0405505Y0248804D01*
X0405562Y0248747D01*
X040602Y0248441D01*
X0406095Y024841D01*
X0406162Y0248365D01*
X0406671Y0248154D01*
X040675Y0248138D01*
X0406824Y0248108D01*
X0407365Y0248D01*
X0407445D01*
X0407524Y0247984D01*
X041388D01*
X0414447Y0247956D01*
X0415578Y0247731D01*
X0416625Y0247298D01*
X0417567Y0246668D01*
X0417811Y0246424D01*
X0417805Y0246392D01*
X0417536Y0246263D01*
X0417258Y0246203D01*
X0416426Y0246683D01*
X041542Y0246953D01*
X04154D01*
Y0243D01*
Y0239047D01*
X041542D01*
X0416426Y0239317D01*
X0417327Y0239837D01*
X0417667Y0240177D01*
X0418167Y023997D01*
Y023919D01*
X0417682Y0238866D01*
X0416997Y0238582D01*
X0416251Y0238434D01*
X041588Y0238416D01*
X0410007D01*
X0409929Y02384D01*
X0409848D01*
X0408882Y0238208D01*
X0408808Y0238177D01*
X0408729Y0238161D01*
X040782Y0237785D01*
X0407753Y023774D01*
X0407679Y0237709D01*
X0406859Y0237162D01*
X0406803Y0237105D01*
X0406736Y023706D01*
X0406039Y0236364D01*
X0405995Y0236297D01*
X0405938Y0236241D01*
X0405391Y0235421D01*
X040536Y0235347D01*
X0405315Y023528D01*
X0404939Y0234371D01*
X0404923Y0234292D01*
X0404892Y0234218D01*
X04047Y0233252D01*
Y0233171D01*
X0404684Y0233092D01*
X0404684Y023092D01*
X0404656Y0230343D01*
X0404427Y0229193D01*
X0403986Y0228128D01*
X0403346Y0227169D01*
X040253Y0226354D01*
X0401572Y0225714D01*
X0400507Y0225273D01*
X0399357Y0225044D01*
X039878Y0225016D01*
X0382525D01*
X0382446Y0225D01*
X0382366D01*
X0380453Y022462D01*
X0380379Y0224589D01*
X03803Y0224573D01*
X0378499Y0223827D01*
X0378432Y0223782D01*
X0378357Y0223751D01*
X0376736Y0222668D01*
X0376679Y0222611D01*
X0376612Y0222567D01*
X0375233Y0221188D01*
X0375189Y0221121D01*
X0375132Y0221064D01*
X0374048Y0219443D01*
X0374018Y0219368D01*
X0373973Y0219302D01*
X0373227Y02175D01*
X0373211Y0217421D01*
X0373181Y0217347D01*
X03728Y0215434D01*
Y0215354D01*
X0372784Y0215275D01*
Y02143D01*
Y01962D01*
Y0195451D01*
X03728Y0195373D01*
Y0195292D01*
X0373092Y0193824D01*
X0373123Y019375D01*
X0373138Y0193671D01*
X0373711Y0192288D01*
X0373756Y0192221D01*
X0373787Y0192147D01*
X0374619Y0190902D01*
X0374675Y0190845D01*
X037472Y0190779D01*
X0375779Y018972D01*
X0375845Y0189675D01*
X0375902Y0189619D01*
X0376872Y0188971D01*
X037672Y0188471D01*
X033472D01*
X0334696Y0188466D01*
X0332546Y0188607D01*
X0330409Y0189032D01*
X0328346Y0189732D01*
X0326392Y0190696D01*
X0324581Y0191906D01*
X0322943Y0193343D01*
X0321506Y0194981D01*
X0321179Y019547D01*
X0321586Y0195761D01*
X0322079Y0195118D01*
X0323539Y0193658D01*
X0325177Y0192401D01*
X0326965Y0191369D01*
X0328872Y0190579D01*
X0330866Y0190045D01*
X0332913Y0189776D01*
X0333945D01*
X0334977Y0189776D01*
X0337024Y0190045D01*
X0339018Y0190579D01*
X0340925Y0191369D01*
X0342713Y0192401D01*
X0344351Y0193658D01*
X034581Y0195118D01*
X0347067Y0196756D01*
X0348099Y0198543D01*
X0348889Y0200451D01*
X0349423Y0202445D01*
X0349693Y0204491D01*
X0349693Y0205523D01*
X0349693Y0205523D01*
X0349693Y0205523D01*
X0349693Y0206556D01*
X0349423Y0208602D01*
X0348889Y0210596D01*
X0348099Y0212504D01*
X0347067Y0214291D01*
X034581Y0215929D01*
X0344351Y0217389D01*
X0342713Y0218646D01*
X0340925Y0219678D01*
X0339018Y0220468D01*
X0337024Y0221002D01*
X0334977Y0221271D01*
X0333945Y0221271D01*
X0333945Y0221271D01*
X0332912Y0221271D01*
X0330866Y0221002D01*
X0328872Y0220468D01*
X0326965Y0219678D01*
X0325177Y0218646D01*
X0323539Y0217389D01*
X0322079Y0215929D01*
X0320823Y0214291D01*
X0319791Y0212504D01*
X0319001Y0210596D01*
X0318571Y0208991D01*
X0318071Y0209057D01*
X0318071Y0377682D01*
X0318571Y0377782D01*
X0319291Y0376044D01*
X0320323Y0374256D01*
X032158Y0372618D01*
X0323039Y0371158D01*
X0324677Y0369901D01*
X0326465Y0368869D01*
X0328372Y0368079D01*
X0330366Y0367545D01*
X0332413Y0367276D01*
X0333445D01*
X0334477Y0367276D01*
X0336524Y0367545D01*
X0338518Y0368079D01*
X0340425Y0368869D01*
X0342213Y0369901D01*
X0343851Y0371158D01*
X034531Y0372618D01*
X0346567Y0374256D01*
X0347599Y0376043D01*
X0348389Y0377951D01*
X0348923Y0379945D01*
X0349193Y0381991D01*
X0349193Y0383024D01*
X0349193Y0383024D01*
X0349193Y0383024D01*
X0349193Y0384056D01*
X0348923Y0386102D01*
X0348389Y0388096D01*
X0347599Y0390004D01*
X0346567Y0391791D01*
X034531Y0393429D01*
X034385Y0394889D01*
X0342213Y0396146D01*
X0340425Y0397178D01*
X0338518Y0397968D01*
X0336795Y0398429D01*
X0336861Y0398929D01*
X0499029D01*
X0499095Y0398429D01*
D02*
G37*
G36*
X0518829Y029018D02*
Y0276068D01*
X0518329Y0276019D01*
X0518281Y0276263D01*
X051825Y0276338D01*
X0518234Y0276416D01*
X0518001Y027698D01*
X0517956Y0277047D01*
X0517925Y0277122D01*
X0517586Y0277629D01*
X0517529Y0277686D01*
X0517485Y0277753D01*
X0517053Y0278185D01*
X0516986Y0278229D01*
X0516929Y0278286D01*
X0516422Y0278625D01*
X0516347Y0278656D01*
X0516281Y0278701D01*
X0515716Y0278935D01*
X0515638Y027895D01*
X0515563Y0278981D01*
X0514964Y02791D01*
X0514884Y02791D01*
X0514805Y0279116D01*
X05145Y0279116D01*
X0508297Y0279116D01*
X050809Y0279616D01*
X0508603Y0280129D01*
X050924Y0281232D01*
X050957Y0282463D01*
Y02826D01*
X0504731D01*
Y02836D01*
X050957D01*
Y0283737D01*
X050924Y0284968D01*
X0508603Y0286071D01*
X0507702Y0286972D01*
X0507478Y0287101D01*
X0507607Y0287584D01*
X0515D01*
X0515256Y0287584D01*
X0515335Y02876D01*
X0515415Y02876D01*
X0515917Y02877D01*
X0515992Y0287731D01*
X0516071Y0287746D01*
X0516544Y0287942D01*
X0516611Y0287987D01*
X0516685Y0288018D01*
X0517111Y0288302D01*
X0517168Y0288359D01*
X0517234Y0288404D01*
X0517596Y0288766D01*
X0517641Y0288832D01*
X0517698Y0288889D01*
X0517982Y0289315D01*
X0518013Y0289389D01*
X0518058Y0289456D01*
X0518254Y028993D01*
X0518269Y0290008D01*
X05183Y0290083D01*
X0518329Y029023D01*
X0518829Y029018D01*
D02*
G37*
G36*
X04358Y0289815D02*
X0436674Y0289454D01*
X043746Y0288928D01*
X0438128Y028826D01*
X0438654Y0287474D01*
X0439015Y02866D01*
X04392Y0285673D01*
Y02852D01*
Y0217D01*
Y0216182D01*
X0438881Y0214579D01*
X0438255Y0213069D01*
X0437347Y0211709D01*
X0436191Y0210553D01*
X0434831Y0209645D01*
X0433321Y0209019D01*
X0431717Y02087D01*
X04309D01*
X0430527Y0208682D01*
X0429797Y0208536D01*
X0429109Y0208251D01*
X0428489Y0207837D01*
X0427963Y0207311D01*
X0427549Y0206691D01*
X0427264Y0206003D01*
X0427118Y0205273D01*
X04271Y02049D01*
Y01914D01*
Y0190923D01*
X0426735Y0190041D01*
X0426059Y0189365D01*
X0425177Y0189D01*
X04199D01*
X0419604Y0189D01*
X0419025Y0189115D01*
X0418479Y0189341D01*
X0417988Y018967D01*
X041757Y0190088D01*
X0417241Y0190579D01*
X0417015Y0191125D01*
X04169Y0191704D01*
X04169Y0192D01*
Y02048D01*
X04169D01*
X04169Y02048D01*
X04169Y02048D01*
X041688Y0205202D01*
X0416868Y0205261D01*
X0416723Y020599D01*
X0416416Y0206733D01*
X0415969Y0207401D01*
X0415401Y0207969D01*
X0414733Y0208416D01*
X041399Y0208723D01*
X0413202Y020888D01*
X04128Y02089D01*
X04115Y02089D01*
X04115Y02089D01*
X0411069Y0208879D01*
X0410223Y0208711D01*
X0409426Y020838D01*
X0408709Y0207901D01*
X0408099Y0207291D01*
X0407619Y0206574D01*
X0407289Y0205777D01*
X0407121Y0204931D01*
X04071Y02045D01*
Y0193107D01*
X0406908Y0192142D01*
X0406531Y0191232D01*
X0405984Y0190413D01*
X0405287Y0189716D01*
X0404468Y0189169D01*
X0403558Y0188792D01*
X0402593Y01886D01*
X0380451D01*
X0378983Y0188892D01*
X03776Y0189465D01*
X0376355Y0190297D01*
X0375297Y0191355D01*
X0374465Y01926D01*
X0373892Y0193983D01*
X03736Y0195451D01*
Y01962D01*
Y02143D01*
Y0215275D01*
X037398Y0217188D01*
X0374727Y0218989D01*
X037581Y0220611D01*
X0377189Y022199D01*
X0378811Y0223073D01*
X0380612Y0223819D01*
X0382525Y02242D01*
X03988D01*
X03988Y02242D01*
Y02242D01*
X0399457Y0224232D01*
X0400745Y0224488D01*
X0401958Y0224991D01*
X040305Y0225721D01*
X0403979Y0226649D01*
X0404709Y0227742D01*
X0405211Y0228955D01*
X0405468Y0230243D01*
X04055Y02309D01*
X04055Y0233092D01*
X0405692Y0234058D01*
X0406069Y0234968D01*
X0406616Y0235787D01*
X0407313Y0236484D01*
X0408132Y0237031D01*
X0409042Y0237408D01*
X0410007Y02376D01*
X04159D01*
X04159Y02376D01*
Y02376D01*
X0416351Y0237622D01*
X0416361Y0237624D01*
X0417235Y0237798D01*
X0418068Y0238143D01*
X0418818Y0238644D01*
X0419456Y0239282D01*
X0419957Y0240032D01*
X0420302Y0240865D01*
X0420478Y0241749D01*
X04205Y02422D01*
X0420468Y0242847D01*
X0420216Y0244116D01*
X0419721Y0245311D01*
X0419002Y0246387D01*
X0418087Y0247302D01*
X0417011Y0248021D01*
X0415816Y0248516D01*
X0414547Y0248768D01*
X04139Y02488D01*
X0407524D01*
X0406983Y0248908D01*
X0406474Y0249119D01*
X0406015Y0249425D01*
X0405625Y0249815D01*
X0405319Y0250274D01*
X0405108Y0250783D01*
X0405Y0251324D01*
Y02516D01*
Y02857D01*
Y0286123D01*
X0405165Y0286954D01*
X0405489Y0287737D01*
X040596Y0288441D01*
X0406559Y028904D01*
X0407263Y0289511D01*
X0408046Y0289835D01*
X0408877Y029D01*
X0434873D01*
X04358Y0289815D01*
D02*
G37*
G36*
X04125Y019718D02*
X0412637D01*
X0413868Y019751D01*
X0414971Y0198147D01*
X0415584Y019876D01*
X0416084Y0198553D01*
Y0192D01*
X0416084Y0191704D01*
X04161Y0191626D01*
Y0191545D01*
X0416215Y0190966D01*
X0416246Y0190892D01*
X0416262Y0190813D01*
X0416488Y0190267D01*
X0416533Y01902D01*
X0416563Y0190126D01*
X0416891Y0189634D01*
X0416948Y0189578D01*
X0416993Y0189511D01*
X0417411Y0189093D01*
X0417478Y0189048D01*
X0417534Y0188991D01*
X0417566Y0188971D01*
X0417414Y0188471D01*
X0405791D01*
X040564Y0188971D01*
X040574Y0189038D01*
X0405797Y0189095D01*
X0405864Y0189139D01*
X0406561Y0189836D01*
X0406605Y0189903D01*
X0406662Y018996D01*
X0407209Y0190778D01*
X040724Y0190853D01*
X0407284Y0190919D01*
X0407661Y0191829D01*
X0407677Y0191908D01*
X0407708Y0191982D01*
X04079Y0192948D01*
Y0193029D01*
X0407916Y0193107D01*
Y0198553D01*
X0408416Y019876D01*
X0409029Y0198147D01*
X0410132Y019751D01*
X0411363Y019718D01*
X04115D01*
Y0202019D01*
X04125D01*
Y019718D01*
D02*
G37*
%LPC*%
G36*
X04795Y0385D02*
X04735D01*
Y03785D01*
X04795D01*
Y0385D01*
D02*
G37*
G36*
X04725D02*
X04665D01*
Y03785D01*
X04725D01*
Y0385D01*
D02*
G37*
G36*
X0453Y038483D02*
X0451765Y0384709D01*
X0450577Y0384349D01*
X0449483Y0383764D01*
X0448524Y0382976D01*
X0447736Y0382017D01*
X0447151Y0380923D01*
X0446791Y0379735D01*
X0446669Y03785D01*
Y03775D01*
X0446791Y0376265D01*
X0447151Y0375077D01*
X0447736Y0373983D01*
X0448524Y0373024D01*
X0449483Y0372236D01*
X0450577Y0371651D01*
X0451765Y0371291D01*
X0453Y0371169D01*
X0454235Y0371291D01*
X0455423Y0371651D01*
X0456517Y0372236D01*
X0457476Y0373024D01*
X0458264Y0373983D01*
X0458849Y0375077D01*
X0459209Y0376265D01*
X0459331Y03775D01*
Y03785D01*
X0459209Y0379735D01*
X0458849Y0380923D01*
X0458264Y0382017D01*
X0457476Y0382976D01*
X0456517Y0383764D01*
X0455423Y0384349D01*
X0454235Y0384709D01*
X0453Y038483D01*
D02*
G37*
G36*
X04795Y03775D02*
X04735D01*
Y0371D01*
X04795D01*
Y03775D01*
D02*
G37*
G36*
X04725D02*
X04665D01*
Y0371D01*
X04725D01*
Y03775D01*
D02*
G37*
G36*
X038082Y0357853D02*
X03808D01*
Y03544D01*
X0384253D01*
Y035442D01*
X0383983Y0355426D01*
X0383463Y0356327D01*
X0382727Y0357063D01*
X0381826Y0357583D01*
X038082Y0357853D01*
D02*
G37*
G36*
X03798D02*
X037978D01*
X0378774Y0357583D01*
X0377873Y0357063D01*
X0377137Y0356327D01*
X0376617Y0355426D01*
X0376347Y035442D01*
Y03544D01*
X03798D01*
Y0357853D01*
D02*
G37*
G36*
X0384253Y03534D02*
X03808D01*
Y0349947D01*
X038082D01*
X0381826Y0350217D01*
X0382727Y0350737D01*
X0383463Y0351473D01*
X0383983Y0352374D01*
X0384253Y035338D01*
Y03534D01*
D02*
G37*
G36*
X03798D02*
X0376347D01*
Y035338D01*
X0376617Y0352374D01*
X0377137Y0351473D01*
X0377873Y0350737D01*
X0378774Y0350217D01*
X037978Y0349947D01*
X03798D01*
Y03534D01*
D02*
G37*
G36*
X0380794Y0347653D02*
X0379806D01*
X0378852Y0347397D01*
X0377996Y0346903D01*
X0377297Y0346204D01*
X0376803Y0345349D01*
X0376547Y0344394D01*
Y0343406D01*
X0376803Y0342452D01*
X0377297Y0341596D01*
X0377996Y0340897D01*
X0378852Y0340403D01*
X0379806Y0340147D01*
X0380794D01*
X0381749Y0340403D01*
X0382604Y0340897D01*
X0383303Y0341596D01*
X0383797Y0342452D01*
X0384053Y0343406D01*
Y0344394D01*
X0383797Y0345349D01*
X0383303Y0346204D01*
X0382604Y0346903D01*
X0381749Y0347397D01*
X0380794Y0347653D01*
D02*
G37*
G36*
X05059Y03328D02*
X04994D01*
Y03268D01*
X05059D01*
Y03328D01*
D02*
G37*
G36*
X04984D02*
X04919D01*
Y03268D01*
X04984D01*
Y03328D01*
D02*
G37*
G36*
X0380694Y0332753D02*
X0379706D01*
X0378751Y0332497D01*
X0377896Y0332003D01*
X0377197Y0331304D01*
X0376703Y0330449D01*
X0376447Y0329494D01*
Y0328506D01*
X0376703Y0327552D01*
X0377197Y0326696D01*
X0377896Y0325997D01*
X0378751Y0325503D01*
X0379706Y0325247D01*
X0380694D01*
X0381648Y0325503D01*
X0382504Y0325997D01*
X0383203Y0326696D01*
X0383697Y0327552D01*
X0383953Y0328506D01*
Y0329494D01*
X0383697Y0330449D01*
X0383203Y0331304D01*
X0382504Y0332003D01*
X0381648Y0332497D01*
X0380694Y0332753D01*
D02*
G37*
G36*
X05059Y03258D02*
X04994D01*
Y03198D01*
X05059D01*
Y03258D01*
D02*
G37*
G36*
X04984D02*
X04919D01*
Y03198D01*
X04984D01*
Y03258D01*
D02*
G37*
G36*
X0329693Y0334756D02*
X0328107D01*
X032655Y0334446D01*
X0325084Y0333839D01*
X0323765Y0332957D01*
X0322643Y0331835D01*
X0321761Y0330516D01*
X0321154Y032905D01*
X0320844Y0327493D01*
Y0325907D01*
X0321154Y032435D01*
X0321761Y0322884D01*
X0322643Y0321565D01*
X0323765Y0320443D01*
X0325084Y0319561D01*
X032655Y0318954D01*
X0328107Y0318644D01*
X0329693D01*
X033125Y0318954D01*
X0332716Y0319561D01*
X0334035Y0320443D01*
X0335157Y0321565D01*
X0336039Y0322884D01*
X0336646Y032435D01*
X0336956Y0325907D01*
Y0327493D01*
X0336646Y032905D01*
X0336039Y0330516D01*
X0335157Y0331835D01*
X0334035Y0332957D01*
X0332716Y0333839D01*
X033125Y0334446D01*
X0329693Y0334756D01*
D02*
G37*
G36*
X0380694Y0322753D02*
X0379706D01*
X0378751Y0322497D01*
X0377896Y0322003D01*
X0377197Y0321304D01*
X0376703Y0320448D01*
X0376447Y0319494D01*
Y0318506D01*
X0376703Y0317551D01*
X0377197Y0316696D01*
X0377896Y0315997D01*
X0378751Y0315503D01*
X0379706Y0315247D01*
X0380694D01*
X0381648Y0315503D01*
X0382504Y0315997D01*
X0383203Y0316696D01*
X0383697Y0317551D01*
X0383953Y0318506D01*
Y0319494D01*
X0383697Y0320448D01*
X0383203Y0321304D01*
X0382504Y0322003D01*
X0381648Y0322497D01*
X0380694Y0322753D01*
D02*
G37*
G36*
X03552Y0344204D02*
X0348D01*
X0347034Y0344076D01*
X0346134Y0343704D01*
X0345361Y034311D01*
X0344768Y0342338D01*
X0344395Y0341438D01*
X0344268Y0340472D01*
X0344395Y0339506D01*
X0344768Y0338606D01*
X0345361Y0337833D01*
X0345893Y0337424D01*
Y0336826D01*
X0345361Y0336418D01*
X0344768Y0335645D01*
X0344395Y0334745D01*
X0344268Y0333779D01*
X0344395Y0332813D01*
X0344768Y0331913D01*
X0345361Y033114D01*
X0345893Y0330732D01*
Y0330133D01*
X0345361Y0329725D01*
X0344768Y0328952D01*
X0344395Y0328052D01*
X0344268Y0327086D01*
X0344395Y032612D01*
X0344768Y032522D01*
X0345361Y0324447D01*
X0345893Y0324039D01*
Y032344D01*
X0345361Y0323032D01*
X0344768Y0322259D01*
X0344395Y0321359D01*
X0344268Y0320393D01*
X0344395Y0319427D01*
X0344768Y0318527D01*
X0345361Y0317754D01*
X0345708Y0317488D01*
Y0316857D01*
X0345218Y0316481D01*
X0345014Y0316215D01*
X0346721Y0316318D01*
X0346889Y0316381D01*
Y03142D01*
X03516D01*
X0359068D01*
X0359Y0314718D01*
X0358607Y0315667D01*
X0357981Y0316481D01*
X0357492Y0316857D01*
Y0317488D01*
X0357839Y0317754D01*
X0358432Y0318527D01*
X0358805Y0319427D01*
X0358932Y0320393D01*
X0358805Y0321359D01*
X0358432Y0322259D01*
X0357839Y0323032D01*
X0357307Y032344D01*
Y0324039D01*
X0357839Y0324447D01*
X0358432Y032522D01*
X0358805Y032612D01*
X0358932Y0327086D01*
X0358805Y0328052D01*
X0358432Y0328952D01*
X0357839Y0329725D01*
X0357307Y0330133D01*
Y0330732D01*
X0357839Y033114D01*
X0358432Y0331913D01*
X0358805Y0332813D01*
X0358932Y0333779D01*
X0358805Y0334745D01*
X0358432Y0335645D01*
X0357839Y0336418D01*
X0357307Y0336826D01*
Y0337424D01*
X0357839Y0337833D01*
X0358432Y0338606D01*
X0358805Y0339506D01*
X0358932Y0340472D01*
X0358805Y0341438D01*
X0358432Y0342338D01*
X0357839Y034311D01*
X0357066Y0343704D01*
X0356166Y0344076D01*
X03552Y0344204D01*
D02*
G37*
G36*
X03511Y03132D02*
X0346889D01*
Y0311019D01*
X034683Y0311024D01*
X0346671Y0311029D01*
X0345129Y0311035D01*
X0345218Y0310918D01*
X0346033Y0310293D01*
X0346982Y03099D01*
X0348Y0309766D01*
X03511D01*
Y03132D01*
D02*
G37*
G36*
X0359068D02*
X03521D01*
Y0309766D01*
X03552D01*
X0356218Y03099D01*
X0357167Y0310293D01*
X0357981Y0310918D01*
X0358607Y0311733D01*
X0359Y0312682D01*
X0359068Y03132D01*
D02*
G37*
G36*
X0505368Y0307939D02*
X0505231D01*
Y03036D01*
X050957D01*
Y0303737D01*
X050924Y0304968D01*
X0508603Y0306071D01*
X0507702Y0306972D01*
X0506599Y0307609D01*
X0505368Y0307939D01*
D02*
G37*
G36*
X0504231D02*
X0504094D01*
X0502864Y0307609D01*
X050176Y0306972D01*
X0500859Y0306071D01*
X0500222Y0304968D01*
X0499893Y0303737D01*
Y03036D01*
X0504231D01*
Y0307939D01*
D02*
G37*
G36*
X0352634Y0274319D02*
X03525D01*
Y027D01*
X0356819D01*
Y0270134D01*
X035649Y027136D01*
X0355856Y0272459D01*
X0354959Y0273356D01*
X035386Y0273991D01*
X0352634Y0274319D01*
D02*
G37*
G36*
X03515D02*
X0351366D01*
X035014Y0273991D01*
X0349041Y0273356D01*
X0348144Y0272459D01*
X034751Y027136D01*
X0347181Y0270134D01*
Y027D01*
X03515D01*
Y0274319D01*
D02*
G37*
G36*
X0356819Y0269D02*
X03525D01*
Y0264681D01*
X0352634D01*
X035386Y0265009D01*
X0354959Y0265644D01*
X0355856Y0266541D01*
X035649Y026764D01*
X0356819Y0268866D01*
Y0269D01*
D02*
G37*
G36*
X03515D02*
X0347181D01*
Y0268866D01*
X034751Y026764D01*
X0348144Y0266541D01*
X0349041Y0265644D01*
X035014Y0265009D01*
X0351366Y0264681D01*
X03515D01*
Y0269D01*
D02*
G37*
G36*
X0352608Y0264119D02*
X0351392D01*
X0350217Y0263804D01*
X0349164Y0263196D01*
X0348304Y0262336D01*
X0347696Y0261283D01*
X0347381Y0260108D01*
Y0258892D01*
X0347696Y0257717D01*
X0348304Y0256664D01*
X0349164Y0255804D01*
X0350217Y0255196D01*
X0351392Y0254881D01*
X0352608D01*
X0353783Y0255196D01*
X0354836Y0255804D01*
X0355696Y0256664D01*
X0356304Y0257717D01*
X0356619Y0258892D01*
Y0260108D01*
X0356304Y0261283D01*
X0355696Y0262336D01*
X0354836Y0263196D01*
X0353783Y0263804D01*
X0352608Y0264119D01*
D02*
G37*
G36*
X0329693Y0267706D02*
X0328107D01*
X032655Y0267396D01*
X0325084Y0266789D01*
X0323765Y0265907D01*
X0322643Y0264785D01*
X0321761Y0263466D01*
X0321154Y0262D01*
X0320844Y0260443D01*
Y0258857D01*
X0321154Y02573D01*
X0321761Y0255834D01*
X0322643Y0254515D01*
X0323765Y0253393D01*
X0325084Y0252511D01*
X032655Y0251904D01*
X0328107Y0251594D01*
X0329693D01*
X033125Y0251904D01*
X0332716Y0252511D01*
X0334035Y0253393D01*
X0335157Y0254515D01*
X0336039Y0255834D01*
X0336646Y02573D01*
X0336956Y0258857D01*
Y0260443D01*
X0336646Y0262D01*
X0336039Y0263466D01*
X0335157Y0264785D01*
X0334035Y0265907D01*
X0332716Y0266789D01*
X033125Y0267396D01*
X0329693Y0267706D01*
D02*
G37*
G36*
X0356819Y0254319D02*
X03525D01*
Y025D01*
X0356819D01*
Y0254319D01*
D02*
G37*
G36*
X03515D02*
X0347181D01*
Y0253311D01*
X0348193Y0253307D01*
X03482Y025D01*
X03515D01*
Y0254319D01*
D02*
G37*
G36*
Y0249D02*
X0348202D01*
X0348205Y024724D01*
X0348174Y0247255D01*
X0348081Y0247269D01*
X0347927Y0247281D01*
X0347181Y0247296D01*
Y0244681D01*
X03515D01*
Y0249D01*
D02*
G37*
G36*
X0356819D02*
X03525D01*
Y0244681D01*
X0356819D01*
Y0249D01*
D02*
G37*
G36*
X04144Y0246953D02*
X041438D01*
X0413374Y0246683D01*
X0412473Y0246163D01*
X0411737Y0245427D01*
X0411217Y0244526D01*
X0410947Y024352D01*
Y02435D01*
X04144D01*
Y0246953D01*
D02*
G37*
G36*
Y02425D02*
X0410947D01*
Y024248D01*
X0411217Y0241474D01*
X0411737Y0240573D01*
X0412473Y0239837D01*
X0413374Y0239317D01*
X041438Y0239047D01*
X04144D01*
Y02425D01*
D02*
G37*
G36*
X04638Y0314116D02*
X0462585D01*
X0462506Y03141D01*
X0462426D01*
X0461807Y0313977D01*
X0461733Y0313946D01*
X0461654Y0313931D01*
X0461072Y0313689D01*
X0461005Y0313645D01*
X0460931Y0313614D01*
X0460407Y0313264D01*
X046035Y0313207D01*
X0460283Y0313162D01*
X0459838Y0312717D01*
X0459793Y031265D01*
X0459736Y0312593D01*
X0459386Y0312069D01*
X0459355Y0311995D01*
X0459311Y0311928D01*
X0459069Y0311346D01*
X0459054Y0311267D01*
X0459023Y0311192D01*
X04589Y0310574D01*
Y0310494D01*
X0458884Y0310415D01*
Y031014D01*
X045886Y0309891D01*
X0458655Y0309395D01*
X0458305Y0309045D01*
X0457809Y030884D01*
X045756Y0308816D01*
X0449402D01*
X0449323Y03088D01*
X0449243D01*
X0447678Y0308489D01*
X0447604Y0308458D01*
X0447525Y0308442D01*
X0446051Y0307832D01*
X0445984Y0307787D01*
X044591Y0307756D01*
X0444583Y030687D01*
X0444527Y0306813D01*
X044446Y0306768D01*
X0443331Y030564D01*
X0443287Y0305573D01*
X044323Y0305517D01*
X0442344Y030419D01*
X0442313Y0304116D01*
X0442268Y0304049D01*
X0441658Y0302575D01*
X0441642Y0302496D01*
X0441611Y0302422D01*
X0441354Y0301127D01*
X0441298Y0300992D01*
X0441167Y03D01*
X0441284Y029911D01*
Y01948D01*
X0441284Y0194396D01*
X04413Y0194317D01*
Y0194237D01*
X0441458Y0193445D01*
X0441488Y0193371D01*
X0441504Y0193292D01*
X0441813Y0192546D01*
X0441858Y0192479D01*
X0441888Y0192405D01*
X0442337Y0191733D01*
X0442394Y0191676D01*
X0442439Y019161D01*
X044301Y0191039D01*
X0443076Y0190994D01*
X0443133Y0190937D01*
X0443805Y0190488D01*
X0443879Y0190458D01*
X0443946Y0190413D01*
X0444692Y0190104D01*
X0444771Y0190088D01*
X0444845Y0190058D01*
X0445637Y01899D01*
X0445717D01*
X0445796Y0189884D01*
X04462Y0189884D01*
X04462Y0189884D01*
X0448905D01*
X0448984Y01899D01*
X0449064D01*
X0449663Y0190019D01*
X0449738Y019005D01*
X0449816Y0190066D01*
X0450381Y0190299D01*
X0450447Y0190344D01*
X0450522Y0190375D01*
X0451029Y0190714D01*
X0451086Y0190771D01*
X0451153Y0190815D01*
X0451585Y0191247D01*
X0451629Y0191314D01*
X0451686Y0191371D01*
X0452025Y0191878D01*
X0452056Y0191953D01*
X0452101Y0192019D01*
X0452334Y0192584D01*
X045235Y0192662D01*
X0452381Y0192737D01*
X04525Y0193335D01*
Y0193416D01*
X0452516Y0193495D01*
Y0198453D01*
X0453016Y019866D01*
X0453529Y0198147D01*
X0454632Y019751D01*
X0455863Y019718D01*
X0456D01*
Y0202019D01*
X0457D01*
Y019718D01*
X0457137D01*
X0458368Y019751D01*
X0459471Y0198147D01*
X0460184Y019886D01*
X0460684Y0198653D01*
Y0193003D01*
X0460746Y0192691D01*
X0461127Y0191772D01*
X0461304Y0191507D01*
X0462007Y0190804D01*
X0462272Y0190627D01*
X0463191Y0190246D01*
X0463503Y0190184D01*
X0469297D01*
X0469609Y0190246D01*
X0470528Y0190627D01*
X0470793Y0190804D01*
X0471496Y0191507D01*
X0471673Y0191772D01*
X0472054Y0192691D01*
X0472116Y0193003D01*
Y019897D01*
X0472599Y0199099D01*
X0472628Y0199048D01*
X0473529Y0198147D01*
X0474632Y019751D01*
X0475863Y019718D01*
X0476D01*
Y0202019D01*
Y0206857D01*
X0475863D01*
X0474632Y0206528D01*
X0473529Y0205891D01*
X0472628Y020499D01*
X0472599Y0204939D01*
X0472116Y0205068D01*
Y023318D01*
X047216Y023408D01*
X0472515Y0235865D01*
X0473204Y0237528D01*
X0474203Y0239024D01*
X0475476Y0240297D01*
X0476972Y0241296D01*
X0478635Y0241985D01*
X048042Y024234D01*
X048132Y0242384D01*
X0500317D01*
X0500563Y0241884D01*
X0500262Y0241492D01*
X0499968Y0240781D01*
X0499867Y0240019D01*
Y02386D01*
X0504731D01*
X0509595D01*
Y0240019D01*
X0509494Y0240781D01*
X05092Y0241492D01*
X0508899Y0241884D01*
X0509146Y0242384D01*
X0514997D01*
X0515309Y0242446D01*
X0516228Y0242827D01*
X0516493Y0243004D01*
X0517196Y0243707D01*
X0517373Y0243972D01*
X0517754Y0244891D01*
X0517816Y0245203D01*
Y0252277D01*
X0517754Y025259D01*
X0517388Y0253472D01*
X0517211Y0253736D01*
X0516536Y0254411D01*
X0516272Y0254588D01*
X0515389Y0254954D01*
X0515077Y0255016D01*
X047682D01*
X047592Y025506D01*
X0474135Y0255415D01*
X0472472Y0256104D01*
X0470976Y0257103D01*
X0469703Y0258376D01*
X0468704Y0259872D01*
X0468015Y0261535D01*
X046766Y026332D01*
X0467616Y026422D01*
X0467616Y03103D01*
X0467616Y0310595D01*
X04676Y0310674D01*
Y0310755D01*
X0467485Y0311334D01*
X0467454Y0311408D01*
X0467438Y0311487D01*
X0467212Y0312033D01*
X0467168Y03121D01*
X0467137Y0312174D01*
X0466808Y0312666D01*
X0466752Y0312722D01*
X0466707Y0312789D01*
X0466289Y0313207D01*
X0466222Y0313252D01*
X0466166Y0313308D01*
X0465674Y0313637D01*
X04656Y0313667D01*
X0465533Y0313712D01*
X0464987Y0313938D01*
X0464908Y0313954D01*
X0464834Y0313985D01*
X046442Y0314067D01*
X0464368D01*
X0464319Y0314081D01*
X0463858Y0314114D01*
X0463829Y031411D01*
X04638Y0314116D01*
X04638D01*
X04638Y0314116D01*
D02*
G37*
G36*
X0509595Y02376D02*
X0505231D01*
Y0233236D01*
X050665D01*
X0507412Y0233337D01*
X0508123Y0233631D01*
X0508733Y0234099D01*
X05092Y0234708D01*
X0509494Y0235419D01*
X0509595Y0236181D01*
Y02376D01*
D02*
G37*
G36*
X0504231D02*
X0499867D01*
Y0236181D01*
X0499968Y0235419D01*
X0500262Y0234708D01*
X050073Y0234099D01*
X050134Y0233631D01*
X050205Y0233337D01*
X0502812Y0233236D01*
X0504231D01*
Y02376D01*
D02*
G37*
G36*
X03696Y021485D02*
X03636D01*
Y020835D01*
X03696D01*
Y021485D01*
D02*
G37*
G36*
X03626D02*
X03566D01*
Y020835D01*
X03626D01*
Y021485D01*
D02*
G37*
G36*
X0477137Y0206857D02*
X0477D01*
Y0202519D01*
X0481339D01*
Y0202656D01*
X0481009Y0203887D01*
X0480372Y020499D01*
X0479471Y0205891D01*
X0478368Y0206528D01*
X0477137Y0206857D01*
D02*
G37*
G36*
X0432637D02*
X04325D01*
Y0202519D01*
X0436839D01*
Y0202656D01*
X0436509Y0203887D01*
X0435872Y020499D01*
X0434971Y0205891D01*
X0433868Y0206528D01*
X0432637Y0206857D01*
D02*
G37*
G36*
X03696Y020735D02*
X03636D01*
Y020085D01*
X03696D01*
Y020735D01*
D02*
G37*
G36*
X03626D02*
X03566D01*
Y020085D01*
X03626D01*
Y020735D01*
D02*
G37*
G36*
X0481339Y0201519D02*
X0477D01*
Y019718D01*
X0477137D01*
X0478368Y019751D01*
X0479471Y0198147D01*
X0480372Y0199048D01*
X0481009Y0200151D01*
X0481339Y0201382D01*
Y0201519D01*
D02*
G37*
G36*
X0436839D02*
X04325D01*
Y019718D01*
X0432637D01*
X0433868Y019751D01*
X0434971Y0198147D01*
X0435872Y0199048D01*
X0436509Y0200151D01*
X0436839Y0201382D01*
Y0201519D01*
D02*
G37*
%LPD*%
G36*
X04638Y03133D02*
X04638Y03133D01*
X04638D01*
X0464261Y0313267D01*
X0464675Y0313185D01*
X0465221Y0312959D01*
X0465712Y031263D01*
X046613Y0312212D01*
X0466459Y0311721D01*
X0466685Y0311175D01*
X04668Y0310595D01*
X04668Y03103D01*
X04668Y02642D01*
X0466848Y026322D01*
X0467231Y0261297D01*
X0467981Y0259486D01*
X046907Y0257856D01*
X0470456Y025647D01*
X0472086Y0255381D01*
X0473897Y0254631D01*
X047582Y0254248D01*
X04768Y02542D01*
X0515077D01*
X051596Y0253835D01*
X0516635Y0253159D01*
X0517Y0252277D01*
Y0245203D01*
X0516619Y0244284D01*
X0515916Y0243581D01*
X0514997Y02432D01*
X04813D01*
X04813Y02432D01*
X048032Y0243152D01*
X0478397Y0242769D01*
X0476586Y0242019D01*
X0474956Y024093D01*
X047357Y0239544D01*
X0472481Y0237914D01*
X0471731Y0236103D01*
X0471348Y023418D01*
X04713Y02332D01*
Y01935D01*
Y0193003D01*
X0470919Y0192084D01*
X0470216Y0191381D01*
X0469297Y0191D01*
X0463503D01*
X0462584Y0191381D01*
X0461881Y0192084D01*
X04615Y0193003D01*
Y02047D01*
X04615D01*
X04615Y02047D01*
X04615Y02047D01*
X0461481Y0205082D01*
X0461466Y0205161D01*
X0461332Y0205832D01*
X0461039Y0206538D01*
X0460615Y0207174D01*
X0460074Y0207715D01*
X0459438Y0208139D01*
X0458732Y0208432D01*
X0457982Y0208581D01*
X04576Y02086D01*
X04559Y02086D01*
X04559Y02086D01*
X0455488Y020858D01*
X0454681Y0208419D01*
X045392Y0208104D01*
X0453236Y0207647D01*
X0452653Y0207064D01*
X0452196Y020638D01*
X0451881Y0205619D01*
X045172Y0204812D01*
X04517Y02044D01*
Y0193495D01*
X0451581Y0192896D01*
X0451347Y0192332D01*
X0451008Y0191824D01*
X0450576Y0191392D01*
X0450068Y0191053D01*
X0449504Y0190819D01*
X0448905Y01907D01*
X04462D01*
X04462Y01907D01*
X0445796Y01907D01*
X0445004Y0190858D01*
X0444258Y0191167D01*
X0443586Y0191615D01*
X0443015Y0192186D01*
X0442567Y0192858D01*
X0442257Y0193604D01*
X04421Y0194396D01*
X04421Y01948D01*
Y02999D01*
Y0300698D01*
X0442411Y0302263D01*
X0443022Y0303737D01*
X0443908Y0305063D01*
X0445037Y0306192D01*
X0446363Y0307078D01*
X0447837Y0307689D01*
X0449402Y0308D01*
X04576D01*
X045801Y030804D01*
X0458767Y0308354D01*
X0459346Y0308933D01*
X045966Y030969D01*
X04597Y03101D01*
Y0310415D01*
X0459823Y0311033D01*
X0460064Y0311616D01*
X0460414Y031214D01*
X046086Y0312586D01*
X0461384Y0312936D01*
X0461967Y0313177D01*
X0462585Y03133D01*
X04638D01*
X04638Y03133D01*
D02*
G37*
D20*
X03802Y0319D02*
D03*
Y0329D02*
D03*
X03803Y03439D02*
D03*
Y03539D02*
D03*
X04149Y0243D02*
D03*
Y0253D02*
D03*
D52*
X04314Y03294D02*
X04577D01*
D54*
X0482Y02931D02*
Y03309D01*
X04692Y03437D02*
X047425Y033865D01*
X03988Y03437D02*
X04692D01*
X047425Y033865D02*
X0482Y03309D01*
X03378Y0334142D02*
Y0349999D01*
X03419Y03541D02*
X03801D01*
X04806Y0282D02*
Y02943D01*
X04818Y02931D01*
X0504731D01*
X047425Y033865D02*
X04819Y03463D01*
X04989D01*
X0394Y03485D02*
Y0355D01*
Y03485D02*
X03988Y03437D01*
X04806Y0282D02*
X04895Y02731D01*
X0504731D01*
X04015Y0198143D02*
Y02174D01*
X0383953Y020785D02*
X0393503Y02174D01*
X03831Y020785D02*
X0383953D01*
X0393503Y02174D02*
X04015D01*
X0422Y02245D02*
Y0249485D01*
Y0202019D02*
Y02245D01*
X04086D02*
X0422D01*
X04015Y02174D02*
X04086Y02245D01*
X04149Y0253D02*
X0418485D01*
X0422Y0249485D01*
X04664Y02219D02*
Y02481D01*
Y0202119D02*
Y02219D01*
X04465Y0202019D02*
Y02115D01*
X04569Y02219D02*
X04664D01*
X04465Y02115D02*
X04569Y02219D01*
X04664Y02481D02*
X0504731D01*
X0449115D02*
X04664D01*
Y0202119D02*
X04665Y0202019D01*
X0445Y03D02*
X04456Y02994D01*
Y0251615D02*
Y02994D01*
Y0251615D02*
X0449115Y02481D01*
X0351181Y0250319D02*
X0352Y02495D01*
X0345115Y0250319D02*
X0351181D01*
X03416Y0253834D02*
X0345115Y0250319D01*
X03416Y0253834D02*
Y0266299D01*
X0340456Y0313D02*
Y0331487D01*
Y03013D02*
Y0313D01*
Y03013D02*
X03415D01*
X03576D01*
X03415Y0269813D02*
Y03013D01*
X03378Y0334142D02*
X0340456Y0331487D01*
X03378Y0349999D02*
X03419Y03541D01*
X03576Y03013D02*
X03678Y03115D01*
X04061D02*
X0424Y03294D01*
X03678Y03115D02*
X04061D01*
X0424Y03294D02*
X04314D01*
X0351687Y0269813D02*
X0352Y02695D01*
X03415Y0269813D02*
X03415Y0269813D01*
X0351687D01*
X03801Y03541D02*
X03803Y03539D01*
X03415Y0266299D02*
Y0269813D01*
D55*
X03516Y0333779D02*
D03*
Y0320393D02*
D03*
Y0340472D02*
D03*
Y0327086D02*
D03*
Y03137D02*
D03*
D56*
X04989Y03263D02*
D03*
D57*
Y03463D02*
D03*
D58*
X0504731Y02481D02*
D03*
X0422Y0202019D02*
D03*
X0412D02*
D03*
X0432D02*
D03*
X0504731Y03031D02*
D03*
Y02831D02*
D03*
Y02931D02*
D03*
X04765Y0202019D02*
D03*
X04565D02*
D03*
X04665D02*
D03*
D59*
X0504731Y02381D02*
D03*
Y02731D02*
D03*
D60*
X0402Y0202019D02*
D03*
X04465D02*
D03*
D61*
X03831Y020785D02*
D03*
X0453Y0378D02*
D03*
D62*
X03631Y020785D02*
D03*
X0473Y0378D02*
D03*
D63*
X03289Y025965D02*
D03*
Y03267D02*
D03*
D64*
X0352Y02695D02*
D03*
Y02595D02*
D03*
D65*
Y02495D02*
D03*
D67*
X03698Y02681D02*
D03*
X03982D02*
D03*
D68*
X042Y028D02*
D03*
Y027D02*
D03*
X0445Y029D02*
D03*
X046Y0285D02*
D03*
X045D02*
D03*
X0455Y029D02*
D03*
X045Y0295D02*
D03*
X042Y026D02*
D03*
X0415Y0265D02*
D03*
X041Y026D02*
D03*
Y027D02*
D03*
X0415Y0275D02*
D03*
X041Y028D02*
D03*
X0415Y0285D02*
D03*
X041Y0345D02*
D03*
X0395Y035D02*
D03*
X0405D02*
D03*
X041Y0355D02*
D03*
X04D02*
D03*
X039D02*
D03*
X0395Y036D02*
D03*
X0405D02*
D03*
X039Y0365D02*
D03*
X04D02*
D03*
X041D02*
D03*
X0325Y0315D02*
D03*
Y0305D02*
D03*
Y0295D02*
D03*
X033Y027D02*
D03*
X0325Y0275D02*
D03*
Y0285D02*
D03*
Y025D02*
D03*
X0335D02*
D03*
Y024D02*
D03*
X0325D02*
D03*
X032Y0245D02*
D03*
Y0235D02*
D03*
Y0225D02*
D03*
X0325Y023D02*
D03*
X0345D02*
D03*
X0335D02*
D03*
X0355Y022D02*
D03*
X041Y0195D02*
D03*
X05Y023D02*
D03*
X0505Y0225D02*
D03*
X051Y023D02*
D03*
X0515Y0225D02*
D03*
Y0235D02*
D03*
X0505Y026D02*
D03*
X0515D02*
D03*
X051Y0315D02*
D03*
X0515Y031D02*
D03*
Y032D02*
D03*
X0335Y034D02*
D03*
X0325D02*
D03*
X032Y0345D02*
D03*
X0325Y036D02*
D03*
Y035D02*
D03*
X0335D02*
D03*
Y036D02*
D03*
X0345D02*
D03*
X0485Y0385D02*
D03*
Y0395D02*
D03*
Y037D02*
D03*
X049Y0365D02*
D03*
X0495Y036D02*
D03*
X0505D02*
D03*
X0515Y0365D02*
D03*
X035Y0215D02*
D03*
X0355Y0195D02*
D03*
X0365D02*
D03*
X0435D02*
D03*
X0455D02*
D03*
X0475D02*
D03*
X0485D02*
D03*
X0455Y03D02*
D03*
X0445D02*
D03*
X04577Y03294D02*
D03*
X048Y039D02*
D03*
X047D02*
D03*
X037D02*
D03*
X036D02*
D03*
X034Y0345D02*
D03*
X035Y0365D02*
D03*
Y0355D02*
D03*
X034D02*
D03*
X0355Y0395D02*
D03*
X0365D02*
D03*
X0375D02*
D03*
X0465D02*
D03*
X0475D02*
D03*
X033Y0225D02*
D03*
X034D02*
D03*
X035D02*
D03*
X034Y0235D02*
D03*
X033D02*
D03*
Y0245D02*
D03*
Y0355D02*
D03*
Y0345D02*
D03*
Y031D02*
D03*
Y03D02*
D03*
Y029D02*
D03*
Y028D02*
D03*
X045Y0305D02*
D03*
X04633Y03106D02*
D03*
X04314Y03294D02*
D03*
D69*
X0337776Y037259D02*
D03*
X0323012Y0378693D02*
D03*
X0329114Y0393457D02*
D03*
X0343878Y0387354D02*
D03*
X0323012D02*
D03*
X0337776Y0393457D02*
D03*
X0343878Y0378693D02*
D03*
X0329114Y037259D02*
D03*
X0506776D02*
D03*
X0492012Y0378693D02*
D03*
X0498114Y0393457D02*
D03*
X0512878Y0387354D02*
D03*
X0492012D02*
D03*
X0506776Y0393457D02*
D03*
X0512878Y0378693D02*
D03*
X0498114Y037259D02*
D03*
X0506776Y0195091D02*
D03*
X0492012Y0201193D02*
D03*
X0498114Y0215957D02*
D03*
X0512878Y0209854D02*
D03*
X0492012D02*
D03*
X0506776Y0215957D02*
D03*
X0512878Y0201193D02*
D03*
X0498114Y0195091D02*
D03*
X0338276D02*
D03*
X0323512Y0201193D02*
D03*
X0329614Y0215957D02*
D03*
X0344378Y0209854D02*
D03*
X0323512D02*
D03*
X0338276Y0215957D02*
D03*
X0344378Y0201193D02*
D03*
X0329614Y0195091D02*
D03*
D70*
X0340456Y0313D02*
X0341003Y0313547D01*
X0351447D02*
X03516Y03137D01*
X0341003Y0313547D02*
X0351447D01*
D71*
X0333445Y0383024D02*
D03*
X0502445D02*
D03*
Y0205524D02*
D03*
X0333945D02*
D03*
M02*
