G04*
G04 #@! TF.GenerationSoftware,Altium Limited,Altium Designer,21.3.2 (30)*
G04*
G04 Layer_Physical_Order=1*
G04 Layer_Color=255*
%FSTAX25Y25*%
%MOIN*%
G70*
G04*
G04 #@! TF.SameCoordinates,D79C2F2D-5807-4F46-82E1-E58DEDE1A544*
G04*
G04*
G04 #@! TF.FilePolarity,Positive*
G04*
G01*
G75*
%ADD17R,0.06496X0.03740*%
%ADD18R,0.06496X0.12992*%
%ADD19R,0.16693X0.15000*%
%ADD20C,0.05906*%
%ADD21R,0.03543X0.02165*%
%ADD22R,0.03150X0.03150*%
%ADD23R,0.22835X0.09843*%
%ADD24R,0.17323X0.07480*%
%ADD25R,0.03150X0.03150*%
%ADD26R,0.09843X0.12402*%
%ADD52C,0.03000*%
%ADD53C,0.01500*%
%ADD54C,0.06000*%
%ADD55O,0.13000X0.05800*%
%ADD56R,0.12000X0.11000*%
%ADD57O,0.12000X0.11000*%
%ADD58C,0.07677*%
G04:AMPARAMS|DCode=59|XSize=76.77mil|YSize=76.77mil|CornerRadius=19.19mil|HoleSize=0mil|Usage=FLASHONLY|Rotation=90.000|XOffset=0mil|YOffset=0mil|HoleType=Round|Shape=RoundedRectangle|*
%AMROUNDEDRECTD59*
21,1,0.07677,0.03839,0,0,90.0*
21,1,0.03839,0.07677,0,0,90.0*
1,1,0.03839,0.01919,0.01919*
1,1,0.03839,0.01919,-0.01919*
1,1,0.03839,-0.01919,-0.01919*
1,1,0.03839,-0.01919,0.01919*
%
%ADD59ROUNDEDRECTD59*%
G04:AMPARAMS|DCode=60|XSize=76.77mil|YSize=76.77mil|CornerRadius=19.19mil|HoleSize=0mil|Usage=FLASHONLY|Rotation=0.000|XOffset=0mil|YOffset=0mil|HoleType=Round|Shape=RoundedRectangle|*
%AMROUNDEDRECTD60*
21,1,0.07677,0.03839,0,0,0.0*
21,1,0.03839,0.07677,0,0,0.0*
1,1,0.03839,0.01919,-0.01919*
1,1,0.03839,-0.01919,-0.01919*
1,1,0.03839,-0.01919,0.01919*
1,1,0.03839,0.01919,0.01919*
%
%ADD60ROUNDEDRECTD60*%
%ADD61O,0.11000X0.12000*%
%ADD62R,0.11000X0.12000*%
%ADD63C,0.14512*%
%ADD64C,0.07638*%
%ADD65R,0.07638X0.07638*%
%ADD66C,0.15748*%
%ADD67C,0.09153*%
%ADD68C,0.03150*%
%ADD69C,0.02598*%
G36*
X04111Y03983D02*
X04111Y03983D01*
X0411642Y03983D01*
X0412704Y0398089D01*
X0413705Y0397674D01*
X0414606Y0397072D01*
X0415372Y0396306D01*
X0415974Y0395405D01*
X0416389Y0394404D01*
X04166Y0393342D01*
X04166Y03928D01*
X04166Y03846D01*
Y0344D01*
Y034337D01*
X0416354Y0342133D01*
X0415872Y0340968D01*
X0415171Y033992D01*
X041428Y0339029D01*
X0413232Y0338328D01*
X0412067Y0337846D01*
X041083Y03376D01*
X03477D01*
X0347395Y03376D01*
X0346796Y0337719D01*
X0346232Y0337953D01*
X0345724Y0338292D01*
X0345292Y0338724D01*
X0344953Y0339232D01*
X0344719Y0339796D01*
X03446Y0340395D01*
X03446Y03407D01*
X03446Y03462D01*
X03446Y03462D01*
X0344615Y0346694D01*
X034495Y0347503D01*
X0345597Y034815D01*
X0346443Y03485D01*
X03469Y03485D01*
X03813Y03485D01*
X0381692Y0348519D01*
X0382461Y0348672D01*
X0383186Y0348972D01*
X0383838Y0349408D01*
X0384392Y0349962D01*
X0384828Y0350614D01*
X0385128Y0351339D01*
X0385281Y0352108D01*
X03853Y03525D01*
Y03556D01*
X03853D01*
X03853Y03556D01*
X0385277Y035607D01*
X0385093Y0356993D01*
X0384733Y0357863D01*
X038421Y0358645D01*
X0383545Y0359311D01*
X0382763Y0359833D01*
X0381893Y0360193D01*
X0380971Y0360377D01*
X03805Y03604D01*
X0380214Y03604D01*
X0379654Y0360511D01*
X0379126Y036073D01*
X0378651Y0361047D01*
X0378247Y0361451D01*
X037793Y0361926D01*
X0377711Y0362454D01*
X03776Y0363014D01*
X03776Y03633D01*
Y03919D01*
X03776D01*
X03776Y039253D01*
X0377846Y0393767D01*
X0378328Y0394932D01*
X0379029Y039598D01*
X037992Y0396871D01*
X0380968Y0397572D01*
X0382133Y0398054D01*
X038337Y03983D01*
X0384Y03983D01*
X04111Y03983D01*
X04111Y03983D01*
D02*
G37*
G36*
X0504216Y0396902D02*
X0504807Y0396803D01*
X0505299Y0396705D01*
X0506185Y0396508D01*
X0507071Y0396213D01*
X0507858Y0395917D01*
X0508744Y0395524D01*
X050963Y0395031D01*
X0510417Y0394539D01*
X0511205Y0393949D01*
X0511992Y039326D01*
X050835Y0389618D01*
X0507858Y0390012D01*
X0507366Y0390406D01*
X0506874Y0390701D01*
X0506284Y0390996D01*
X0505594Y0391291D01*
X0504709Y0391587D01*
X0503724Y0391783D01*
X0502839Y0391882D01*
Y0397D01*
X0504216Y0396902D01*
D02*
G37*
G36*
X0502051Y0391882D02*
X0501165Y0391783D01*
X0500181Y0391587D01*
X0499295Y0391291D01*
X0498606Y0390996D01*
X0498016Y0390701D01*
X0497524Y0390406D01*
X0497031Y0390012D01*
X0496539Y0389618D01*
X0492898Y039326D01*
X0493685Y0393949D01*
X0494472Y0394539D01*
X049526Y0395031D01*
X0496146Y0395524D01*
X0497031Y0395917D01*
X0497819Y0396213D01*
X0498705Y0396508D01*
X049959Y0396705D01*
X0500083Y0396803D01*
X0500673Y0396902D01*
X0502051Y0397D01*
Y0391882D01*
D02*
G37*
G36*
X0335216Y0396902D02*
X0335807Y0396803D01*
X0336299Y0396705D01*
X0337185Y0396508D01*
X0338071Y0396213D01*
X0338858Y0395917D01*
X0339744Y0395524D01*
X034063Y0395031D01*
X0341417Y0394539D01*
X0342205Y0393949D01*
X0342992Y039326D01*
X033935Y0389618D01*
X0338858Y0390012D01*
X0338366Y0390406D01*
X0337874Y0390701D01*
X0337283Y0390996D01*
X0336595Y0391291D01*
X0335709Y0391587D01*
X0334724Y0391783D01*
X0333839Y0391882D01*
Y0397D01*
X0335216Y0396902D01*
D02*
G37*
G36*
X0333051Y0391882D02*
X0332165Y0391783D01*
X0331181Y0391587D01*
X0330295Y0391291D01*
X0329606Y0390996D01*
X0329016Y0390701D01*
X0328524Y0390406D01*
X0328031Y0390012D01*
X0327539Y0389618D01*
X0323898Y039326D01*
X0324685Y0393949D01*
X0325472Y0394539D01*
X032626Y0395031D01*
X0327146Y0395524D01*
X0328031Y0395917D01*
X0328819Y0396213D01*
X0329705Y0396508D01*
X0330591Y0396705D01*
X0331083Y0396803D01*
X0331673Y0396902D01*
X0333051Y0397D01*
Y0391882D01*
D02*
G37*
G36*
X051337Y0391783D02*
X0513961Y0390996D01*
X0514453Y0390209D01*
X0514945Y0389323D01*
X0515339Y0388437D01*
X0515634Y038765D01*
X0515929Y0386764D01*
X0516126Y0385878D01*
X0516224Y0385386D01*
X0516323Y0384795D01*
X0516421Y0383417D01*
X0511303D01*
X0511205Y0384303D01*
X0511008Y0385287D01*
X0510713Y0386173D01*
X0510417Y0386862D01*
X0510122Y0387453D01*
X0509827Y0387945D01*
X0509433Y0388437D01*
X0509039Y0388929D01*
X0512681Y0392571D01*
X051337Y0391783D01*
D02*
G37*
G36*
X049585Y0388929D02*
X0495457Y0388437D01*
X0495063Y0387945D01*
X0494768Y0387453D01*
X0494472Y0386862D01*
X0494177Y0386173D01*
X0493882Y0385287D01*
X0493685Y0384303D01*
X0493587Y0383417D01*
X0488469D01*
X0488567Y0384795D01*
X0488665Y0385386D01*
X0488764Y0385878D01*
X0488961Y0386764D01*
X0489256Y038765D01*
X0489551Y0388437D01*
X0489945Y0389323D01*
X0490437Y0390209D01*
X0490929Y0390996D01*
X049152Y0391783D01*
X0492209Y0392571D01*
X049585Y0388929D01*
D02*
G37*
G36*
X034437Y0391783D02*
X0344961Y0390996D01*
X0345453Y0390209D01*
X0345945Y0389323D01*
X0346339Y0388437D01*
X0346634Y038765D01*
X0346929Y0386764D01*
X0347126Y0385878D01*
X0347224Y0385386D01*
X0347323Y0384795D01*
X0347421Y0383417D01*
X0342303D01*
X0342205Y0384303D01*
X0342008Y0385287D01*
X0341713Y0386173D01*
X0341417Y0386862D01*
X0341122Y0387453D01*
X0340827Y0387945D01*
X0340433Y0388437D01*
X0340039Y0388929D01*
X0343681Y0392571D01*
X034437Y0391783D01*
D02*
G37*
G36*
X032685Y0388929D02*
X0326457Y0388437D01*
X0326063Y0387945D01*
X0325768Y0387453D01*
X0325472Y0386862D01*
X0325177Y0386173D01*
X0324882Y0385287D01*
X0324685Y0384303D01*
X0324587Y0383417D01*
X0319468D01*
X0319567Y0384795D01*
X0319665Y0385386D01*
X0319764Y0385878D01*
X0319961Y0386764D01*
X0320256Y038765D01*
X0320551Y0388437D01*
X0320945Y0389323D01*
X0321437Y0390209D01*
X0321929Y0390996D01*
X032252Y0391783D01*
X0323209Y0392571D01*
X032685Y0388929D01*
D02*
G37*
G36*
X0516323Y0381252D02*
X0516224Y0380661D01*
X0516126Y0380169D01*
X0515929Y0379283D01*
X0515634Y0378398D01*
X0515339Y037761D01*
X0514945Y0376724D01*
X0514453Y0375839D01*
X0513961Y0375051D01*
X051337Y0374264D01*
X0512681Y0373476D01*
X0509039Y0377118D01*
X0509433Y037761D01*
X0509827Y0378102D01*
X0510122Y0378594D01*
X0510417Y0379185D01*
X0510713Y0379874D01*
X0511008Y038076D01*
X0511205Y0381744D01*
X0511303Y038263D01*
X0516421D01*
X0516323Y0381252D01*
D02*
G37*
G36*
X0493685Y0381744D02*
X0493882Y038076D01*
X0494177Y0379874D01*
X0494472Y0379185D01*
X0494768Y0378594D01*
X0495063Y0378102D01*
X0495457Y037761D01*
X049585Y0377118D01*
X0492209Y0373476D01*
X049152Y0374264D01*
X0490929Y0375051D01*
X0490437Y0375839D01*
X0489945Y0376724D01*
X0489551Y037761D01*
X0489256Y0378398D01*
X0488961Y0379283D01*
X0488764Y0380169D01*
X0488665Y0380661D01*
X0488567Y0381252D01*
X0488469Y038263D01*
X0493587D01*
X0493685Y0381744D01*
D02*
G37*
G36*
X0347323Y0381252D02*
X0347224Y0380661D01*
X0347126Y0380169D01*
X0346929Y0379283D01*
X0346634Y0378398D01*
X0346339Y037761D01*
X0345945Y0376724D01*
X0345453Y0375839D01*
X0344961Y0375051D01*
X034437Y0374264D01*
X0343681Y0373476D01*
X0340039Y0377118D01*
X0340433Y037761D01*
X0340827Y0378102D01*
X0341122Y0378594D01*
X0341417Y0379185D01*
X0341713Y0379874D01*
X0342008Y038076D01*
X0342205Y0381744D01*
X0342303Y038263D01*
X0347421D01*
X0347323Y0381252D01*
D02*
G37*
G36*
X0324685Y0381744D02*
X0324882Y038076D01*
X0325177Y0379874D01*
X0325472Y0379185D01*
X0325768Y0378594D01*
X0326063Y0378102D01*
X0326457Y037761D01*
X032685Y0377118D01*
X0323209Y0373476D01*
X032252Y0374264D01*
X0321929Y0375051D01*
X0321437Y0375839D01*
X0320945Y0376724D01*
X0320551Y037761D01*
X0320256Y0378398D01*
X0319961Y0379283D01*
X0319764Y0380169D01*
X0319665Y0380661D01*
X0319567Y0381252D01*
X0319468Y038263D01*
X0324587D01*
X0324685Y0381744D01*
D02*
G37*
G36*
X0511992Y0372787D02*
X0511205Y0372098D01*
X0510417Y0371508D01*
X050963Y0371016D01*
X0508744Y0370524D01*
X0507858Y037013D01*
X0507071Y0369835D01*
X0506185Y0369539D01*
X0505299Y0369342D01*
X0504807Y0369244D01*
X0504216Y0369146D01*
X0502839Y0369047D01*
Y0374165D01*
X0503724Y0374264D01*
X0504709Y0374461D01*
X0505594Y0374756D01*
X0506284Y0375051D01*
X0506874Y0375346D01*
X0507366Y0375642D01*
X0507858Y0376035D01*
X050835Y0376429D01*
X0511992Y0372787D01*
D02*
G37*
G36*
X0497031Y0376035D02*
X0497524Y0375642D01*
X0498016Y0375346D01*
X0498606Y0375051D01*
X0499295Y0374756D01*
X0500181Y0374461D01*
X0501165Y0374264D01*
X0502051Y0374165D01*
Y0369047D01*
X0500673Y0369146D01*
X0500083Y0369244D01*
X049959Y0369342D01*
X0498705Y0369539D01*
X0497819Y0369835D01*
X0497031Y037013D01*
X0496146Y0370524D01*
X049526Y0371016D01*
X0494472Y0371508D01*
X0493685Y0372098D01*
X0492898Y0372787D01*
X0496539Y0376429D01*
X0497031Y0376035D01*
D02*
G37*
G36*
X0342992Y0372787D02*
X0342205Y0372098D01*
X0341417Y0371508D01*
X034063Y0371016D01*
X0339744Y0370524D01*
X0338858Y037013D01*
X0338071Y0369835D01*
X0337185Y0369539D01*
X0336299Y0369342D01*
X0335807Y0369244D01*
X0335216Y0369146D01*
X0333839Y0369047D01*
Y0374165D01*
X0334724Y0374264D01*
X0335709Y0374461D01*
X0336595Y0374756D01*
X0337283Y0375051D01*
X0337874Y0375346D01*
X0338366Y0375642D01*
X0338858Y0376035D01*
X033935Y0376429D01*
X0342992Y0372787D01*
D02*
G37*
G36*
X0328031Y0376035D02*
X0328524Y0375642D01*
X0329016Y0375346D01*
X0329606Y0375051D01*
X0330295Y0374756D01*
X0331181Y0374461D01*
X0332165Y0374264D01*
X0333051Y0374165D01*
Y0369047D01*
X0331673Y0369146D01*
X0331083Y0369244D01*
X0330591Y0369342D01*
X0329705Y0369539D01*
X0328819Y0369835D01*
X0328031Y037013D01*
X0327146Y0370524D01*
X032626Y0371016D01*
X0325472Y0371508D01*
X0324685Y0372098D01*
X0323898Y0372787D01*
X0327539Y0376429D01*
X0328031Y0376035D01*
D02*
G37*
G36*
X0499095Y0398429D02*
X0497372Y0397968D01*
X0495465Y0397178D01*
X0493677Y0396146D01*
X0492039Y0394889D01*
X049058Y0393429D01*
X0489323Y0391791D01*
X0488291Y0390004D01*
X0487501Y0388096D01*
X0486966Y0386103D01*
X0486697Y0384056D01*
X0486697Y0383024D01*
X0486697Y0383024D01*
X0486697Y0381992D01*
X0486966Y0379945D01*
X0487501Y0377951D01*
X0488291Y0376044D01*
X0489323Y0374256D01*
X049058Y0372618D01*
X0492039Y0371158D01*
X0493677Y0369901D01*
X0495465Y0368869D01*
X0497372Y0368079D01*
X0499366Y0367545D01*
X0501413Y0367276D01*
X0502445D01*
X0503477Y0367276D01*
X0505524Y0367545D01*
X0507518Y0368079D01*
X0509425Y0368869D01*
X0511213Y0369901D01*
X0512851Y0371158D01*
X051431Y0372618D01*
X0515567Y0374256D01*
X0516599Y0376043D01*
X0517389Y0377951D01*
X0517923Y0379945D01*
X0518193Y0381991D01*
X0518193Y0383024D01*
X0518193Y0383024D01*
X0518193Y0383024D01*
X0518193Y0384056D01*
X0517923Y0386102D01*
X0517389Y0388096D01*
X0516599Y0390004D01*
X0515947Y0391133D01*
X0516376Y0391389D01*
X0517103Y0390203D01*
X0518065Y038788D01*
X0518652Y0385436D01*
X0518844Y0383002D01*
X0518829Y038293D01*
Y0206167D01*
X0518836Y0206135D01*
X0518686Y0203856D01*
X0518471Y0202771D01*
X0517977Y0202852D01*
X0518193Y0204491D01*
X0518193Y0205523D01*
X0518193Y0205523D01*
X0518193Y0205523D01*
X0518193Y0206556D01*
X0517923Y0208602D01*
X0517389Y0210596D01*
X0516599Y0212504D01*
X0515567Y0214291D01*
X051431Y0215929D01*
X0512851Y0217389D01*
X0511213Y0218646D01*
X0509425Y0219678D01*
X0507518Y0220468D01*
X0505524Y0221002D01*
X0503477Y0221271D01*
X0502445Y0221271D01*
X0502445Y0221271D01*
X0501412Y0221271D01*
X0499366Y0221002D01*
X0497372Y0220468D01*
X0495465Y0219678D01*
X0493677Y0218646D01*
X0492039Y0217389D01*
X049058Y0215929D01*
X0489323Y0214291D01*
X0488291Y0212504D01*
X0487501Y0210596D01*
X0486966Y0208602D01*
X0486697Y0206556D01*
X0486697Y0205524D01*
X0486697Y0205524D01*
X0486697Y0204491D01*
X0486966Y0202445D01*
X0487501Y0200451D01*
X0488291Y0198544D01*
X0489323Y0196756D01*
X049058Y0195118D01*
X0492039Y0193658D01*
X0493677Y0192401D01*
X0495465Y0191369D01*
X0497372Y0190579D01*
X0499366Y0190045D01*
X0501413Y0189776D01*
X0502445D01*
X0503477Y0189776D01*
X0505524Y0190045D01*
X0507518Y0190579D01*
X0509425Y0191369D01*
X0511213Y0192401D01*
X0512851Y0193658D01*
X0514037Y0194844D01*
X0514402Y0194502D01*
X0513652Y0193648D01*
X0511911Y0192121D01*
X0509986Y0190834D01*
X0507909Y018981D01*
X0505716Y0189065D01*
X0503444Y0188614D01*
X0501165Y0188464D01*
X0501133Y0188471D01*
X033472D01*
X0334696Y0188466D01*
X0332546Y0188607D01*
X0330409Y0189032D01*
X0328346Y0189732D01*
X0326392Y0190696D01*
X0324581Y0191906D01*
X0322943Y0193343D01*
X0321506Y0194981D01*
X0321179Y019547D01*
X0321586Y0195761D01*
X0322079Y0195118D01*
X0323539Y0193658D01*
X0325177Y0192401D01*
X0326965Y0191369D01*
X0328872Y0190579D01*
X0330866Y0190045D01*
X0332913Y0189776D01*
X0333945D01*
X0334977Y0189776D01*
X0337024Y0190045D01*
X0339018Y0190579D01*
X0340925Y0191369D01*
X0342713Y0192401D01*
X0344351Y0193658D01*
X034581Y0195118D01*
X0347067Y0196756D01*
X0348099Y0198543D01*
X0348889Y0200451D01*
X0349423Y0202445D01*
X0349693Y0204491D01*
X0349693Y0205523D01*
X0349693Y0205523D01*
X0349693Y0205523D01*
X0349693Y0206556D01*
X0349423Y0208602D01*
X0348889Y0210596D01*
X0348099Y0212504D01*
X0347067Y0214291D01*
X034581Y0215929D01*
X0344351Y0217389D01*
X0342713Y0218646D01*
X0340925Y0219678D01*
X0339018Y0220468D01*
X0337024Y0221002D01*
X0334977Y0221271D01*
X0333945Y0221271D01*
X0333945Y0221271D01*
X0332912Y0221271D01*
X0330866Y0221002D01*
X0328872Y0220468D01*
X0326965Y0219678D01*
X0325177Y0218646D01*
X0323539Y0217389D01*
X0322079Y0215929D01*
X0320823Y0214291D01*
X0319791Y0212504D01*
X0319001Y0210596D01*
X0318571Y0208991D01*
X0318071Y0209057D01*
X0318071Y0377682D01*
X0318571Y0377782D01*
X0319291Y0376044D01*
X0320323Y0374256D01*
X032158Y0372618D01*
X0323039Y0371158D01*
X0324677Y0369901D01*
X0326465Y0368869D01*
X0328372Y0368079D01*
X0330366Y0367545D01*
X0332413Y0367276D01*
X0333445D01*
X0334477Y0367276D01*
X0336524Y0367545D01*
X0338518Y0368079D01*
X0340425Y0368869D01*
X0342213Y0369901D01*
X0343851Y0371158D01*
X034531Y0372618D01*
X0346567Y0374256D01*
X0347599Y0376043D01*
X0348389Y0377951D01*
X0348923Y0379945D01*
X0349193Y0381991D01*
X0349193Y0383024D01*
X0349193Y0383024D01*
X0349193Y0383024D01*
X0349193Y0384056D01*
X0348923Y0386102D01*
X0348389Y0388096D01*
X0347599Y0390004D01*
X0346567Y0391791D01*
X034531Y0393429D01*
X034385Y0394889D01*
X0342213Y0396146D01*
X0340425Y0397178D01*
X0338518Y0397968D01*
X0336795Y0398429D01*
X0336861Y0398929D01*
X0380809D01*
X0380908Y0398429D01*
X0380656Y0398325D01*
X038059Y0398281D01*
X0380515Y039825D01*
X0379467Y0397549D01*
X037941Y0397493D01*
X0379344Y0397448D01*
X0378452Y0396556D01*
X0378407Y039649D01*
X0378351Y0396433D01*
X037765Y0395385D01*
X0377619Y039531D01*
X0377575Y0395244D01*
X0377092Y0394079D01*
X0377077Y0394D01*
X0377046Y0393926D01*
X03768Y0392689D01*
Y0392609D01*
X0376784Y039253D01*
X0376784Y03919D01*
X0376784Y03919D01*
Y03633D01*
X0376784Y0363014D01*
X03768Y0362936D01*
Y0362855D01*
X0376911Y0362295D01*
X0376942Y0362221D01*
X0376958Y0362142D01*
X0377176Y0361614D01*
X0377221Y0361547D01*
X0377252Y0361473D01*
X0377569Y0360998D01*
X0377626Y0360941D01*
X0377671Y0360875D01*
X0378075Y0360471D01*
X0378141Y0360426D01*
X0378198Y0360369D01*
X0378673Y0360052D01*
X0378747Y0360021D01*
X0378814Y0359977D01*
X0379342Y0359758D01*
X0379421Y0359742D01*
X0379495Y0359711D01*
X0380055Y03596D01*
X0380136D01*
X0380214Y0359584D01*
X038048Y0359584D01*
X038087Y0359565D01*
X0381656Y0359409D01*
X0382376Y035911D01*
X0383025Y0358677D01*
X0383577Y0358125D01*
X038401Y0357476D01*
X0384309Y0356755D01*
X0384465Y035597D01*
X0384484Y035558D01*
Y0355488D01*
X0383984Y0355422D01*
X0383983Y0355426D01*
X0383463Y0356327D01*
X0382727Y0357063D01*
X0381826Y0357583D01*
X038082Y0357853D01*
X03808D01*
Y03539D01*
Y0349947D01*
X038082D01*
X0381826Y0350217D01*
X0382727Y0350737D01*
X0383463Y0351473D01*
X0383983Y0352374D01*
X0384472Y0352265D01*
X0384469Y0352208D01*
X0384343Y0351577D01*
X0384105Y0351001D01*
X0383758Y0350482D01*
X0383318Y0350042D01*
X0382799Y0349695D01*
X0382223Y0349457D01*
X0381592Y0349331D01*
X038128Y0349316D01*
X03469Y0349316D01*
X0346443Y0349316D01*
X034613Y0349254D01*
X0345285Y0348903D01*
X034502Y0348727D01*
X0344373Y034808D01*
X0344197Y0347815D01*
X0343861Y0347006D01*
X0343833Y0346862D01*
X03438Y0346719D01*
X0343785Y0346225D01*
X0343787Y0346212D01*
X0343784Y03462D01*
X0343784Y03407D01*
X0343784Y0340395D01*
X03438Y0340316D01*
Y0340236D01*
X0343919Y0339637D01*
X034395Y0339562D01*
X0343966Y0339484D01*
X0344199Y0338919D01*
X0344244Y0338853D01*
X0344275Y0338778D01*
X0344614Y0338271D01*
X0344671Y0338214D01*
X0344715Y0338147D01*
X0345147Y0337715D01*
X0345214Y0337671D01*
X0345271Y0337614D01*
X034566Y0337353D01*
X0345727Y0336932D01*
X0345713Y0336833D01*
X0345692Y0336774D01*
X0345692Y0336773D01*
X0345662Y0336753D01*
X0345605Y0336696D01*
X0345538Y0336652D01*
X0345148Y0336262D01*
X0345104Y0336195D01*
X0345047Y0336138D01*
X0344741Y0335679D01*
X034471Y0335605D01*
X0344665Y0335538D01*
X0344454Y0335029D01*
X0344438Y033495D01*
X0344408Y0334876D01*
X03443Y0334335D01*
Y0334255D01*
X0344284Y0334176D01*
Y0333902D01*
X0344268Y0333779D01*
X0344284Y0333655D01*
Y0333595D01*
X03443Y0333516D01*
Y0333436D01*
X0344339Y0333239D01*
X0344395Y0332813D01*
X0344768Y0331913D01*
X0345226Y0331316D01*
X0344999Y0330816D01*
X0341616Y0330816D01*
X0341263Y033083D01*
X0341184Y0330817D01*
X0341104Y033082D01*
X0340373Y0330705D01*
X0340298Y0330678D01*
X0340219Y0330665D01*
X0339525Y033041D01*
X0339456Y0330368D01*
X0339381Y033034D01*
X033875Y0329954D01*
X0338691Y03299D01*
X0338623Y0329858D01*
X0338079Y0329356D01*
X0338032Y0329291D01*
X0337973Y0329237D01*
X0337538Y0328639D01*
X0337505Y0328566D01*
X0337457Y0328501D01*
X0337323Y0328211D01*
X0336801Y0328273D01*
X0336646Y032905D01*
X0336039Y0330516D01*
X0335157Y0331835D01*
X0334035Y0332957D01*
X0332716Y0333839D01*
X033125Y0334446D01*
X0329693Y0334756D01*
X0328107D01*
X032655Y0334446D01*
X0325084Y0333839D01*
X0323765Y0332957D01*
X0322643Y0331835D01*
X0321761Y0330516D01*
X0321154Y032905D01*
X0320844Y0327493D01*
Y0325907D01*
X0321154Y032435D01*
X0321761Y0322884D01*
X0322643Y0321565D01*
X0323765Y0320443D01*
X0325084Y0319561D01*
X032655Y0318954D01*
X0328107Y0318644D01*
X0329693D01*
X033125Y0318954D01*
X0332716Y0319561D01*
X0334035Y0320443D01*
X0335157Y0321565D01*
X0336039Y0322884D01*
X0336384Y0323718D01*
X0336884Y0323618D01*
X0336884Y02649D01*
Y0263915D01*
X03369Y0263836D01*
Y0263756D01*
X0337284Y0261824D01*
X0337315Y026175D01*
X0337331Y0261671D01*
X0338085Y0259851D01*
X0338129Y0259784D01*
X033816Y025971D01*
X0339254Y0258072D01*
X0339311Y0258015D01*
X0339356Y0257949D01*
X0340749Y0256556D01*
X0340815Y0256511D01*
X0340872Y0256454D01*
X034251Y025536D01*
X0342584Y0255329D01*
X0342651Y0255285D01*
X0344471Y0254531D01*
X034455Y0254515D01*
X0344624Y0254484D01*
X0346556Y02541D01*
X0346636D01*
X0346715Y0254084D01*
X0347181D01*
Y025D01*
X0352D01*
X0356819D01*
Y0254084D01*
X03638D01*
Y02329D01*
X03638Y0232447D01*
X0363977Y0231558D01*
X0364323Y0230721D01*
X0364827Y0229968D01*
X0365468Y0229327D01*
X0366221Y0228823D01*
X0367058Y0228477D01*
X03678Y0228329D01*
Y02288D01*
X0368404Y02283D01*
X0399102D01*
X0400088Y0228496D01*
X0401016Y022888D01*
X0401851Y0229439D01*
X0402561Y0230149D01*
X040312Y0230984D01*
X0403504Y0231912D01*
X04037Y0232898D01*
Y02334D01*
Y0246684D01*
X0412376D01*
X041251Y0246184D01*
X0412473Y0246163D01*
X0411737Y0245427D01*
X0411217Y0244526D01*
X0410947Y024352D01*
Y02435D01*
X04149D01*
Y0243D01*
D01*
Y02435D01*
X0418853D01*
Y024352D01*
X0418583Y0244526D01*
X0418063Y0245427D01*
X0417327Y0246163D01*
X041729Y0246184D01*
X0417424Y0246684D01*
X0447314D01*
X0447392Y02467D01*
X0447473D01*
X0448284Y0246861D01*
X0448358Y0246892D01*
X0448437Y0246908D01*
X0449201Y0247224D01*
X0449268Y0247269D01*
X0449342Y02473D01*
X045003Y0247759D01*
X0450087Y0247816D01*
X0450154Y0247861D01*
X0450739Y0248446D01*
X0450784Y0248513D01*
X045084Y0248569D01*
X04513Y0249257D01*
X0451331Y0249331D01*
X0451375Y0249398D01*
X0451692Y0250163D01*
X0451708Y0250241D01*
X0451738Y0250316D01*
X04519Y0251127D01*
Y0251207D01*
X0451915Y0251286D01*
X0451915Y0251699D01*
X0451916Y02517D01*
X0451916Y02581D01*
X0451916Y0258514D01*
X04519Y0258593D01*
Y0258673D01*
X0451739Y0259484D01*
X0451708Y0259558D01*
X0451692Y0259637D01*
X0451375Y0260402D01*
X0451331Y0260468D01*
X04513Y0260543D01*
X0450841Y026123D01*
X0450784Y0261287D01*
X0450739Y0261354D01*
X0450154Y0261939D01*
X0450087Y0261984D01*
X045003Y026204D01*
X0449342Y02625D01*
X0449268Y0262531D01*
X0449201Y0262576D01*
X0448437Y0262892D01*
X0448358Y0262908D01*
X0448284Y0262938D01*
X0447529Y0263089D01*
X0447458Y0263089D01*
X0447389Y0263104D01*
X044693Y0263115D01*
X044692Y0263113D01*
X044691Y0263115D01*
X0446901D01*
X04469Y0263116D01*
X042842D01*
X0428235Y0263125D01*
X0427854Y0263201D01*
X0427514Y0263342D01*
X0427207Y0263546D01*
X0426946Y0263807D01*
X0426742Y0264113D01*
X0426601Y0264454D01*
X0426525Y0264835D01*
X0426516Y026502D01*
Y026842D01*
X04653D01*
X0465905Y026854D01*
X0466418Y0268882D01*
X0472718Y0275183D01*
X047306Y0275695D01*
X047318Y02763D01*
Y0294901D01*
X0473728D01*
Y0294599D01*
X0478872D01*
Y0298364D01*
X0473728D01*
Y0298061D01*
X0472479D01*
X0471874Y0297941D01*
X0471361Y0297599D01*
X0470482Y029672D01*
X047014Y0296207D01*
X047002Y0295602D01*
Y0276955D01*
X0464645Y027158D01*
X0426516D01*
Y028238D01*
X0426526Y0282584D01*
X0426609Y0283004D01*
X0426765Y0283381D01*
X0426992Y028372D01*
X042728Y0284008D01*
X0427619Y0284235D01*
X0427996Y0284391D01*
X0428416Y0284474D01*
X0428621Y0284484D01*
X0438478Y0284484D01*
X043879Y0284546D01*
X0439488Y0284836D01*
X0439488Y0284836D01*
X0439753Y0285013D01*
X0440287Y0285547D01*
X0440464Y0285812D01*
X0440754Y028651D01*
X0440816Y0286822D01*
Y02872D01*
X0440816Y02872D01*
X0440816Y0291D01*
X0440816Y0291378D01*
X0440816Y0291378D01*
X0440816Y0291378D01*
X0440781Y0291552D01*
X0440754Y029169D01*
X0440754Y029169D01*
X0440754Y029169D01*
X0440464Y0292388D01*
X0440288Y0292653D01*
X0439753Y0293188D01*
X0439489Y0293364D01*
X0439488Y0293364D01*
X0439488Y0293364D01*
X0438873Y0293619D01*
X0438746Y0293645D01*
X0438621Y0293679D01*
X0438161Y0293713D01*
X043813Y029371D01*
X04381Y0293716D01*
X04381D01*
X04381Y0293716D01*
X0427075Y0293716D01*
Y029455D01*
X04245D01*
X0422937D01*
Y0293488D01*
X0422907Y0293499D01*
X0422817Y029351D01*
X0422667Y029352D01*
X0421925Y0293528D01*
Y0293521D01*
X0420275D01*
Y0293547D01*
X0419937Y029355D01*
Y029455D01*
X04177D01*
X0415125D01*
Y0293716D01*
X041418D01*
Y0301645D01*
X0433155Y032062D01*
X04435D01*
X0444105Y032074D01*
X0444618Y0321082D01*
X0448317Y0324782D01*
X044866Y0325295D01*
X044878Y03259D01*
Y0335845D01*
X0451355Y033842D01*
X0455079D01*
X0455497Y0337696D01*
X0456196Y0336997D01*
X0457052Y0336503D01*
X0458006Y0336247D01*
X0458994D01*
X0459948Y0336503D01*
X0460804Y0336997D01*
X0461503Y0337696D01*
X0461997Y0338551D01*
X0462253Y0339506D01*
Y0340494D01*
X0461997Y0341448D01*
X0461503Y0342304D01*
X0460804Y0343003D01*
X0459948Y0343497D01*
X0458994Y0343753D01*
X0458006D01*
X0457052Y0343497D01*
X0456196Y0343003D01*
X0455497Y0342304D01*
X0455079Y034158D01*
X04507D01*
X0450095Y034146D01*
X0449582Y0341118D01*
X0446082Y0337617D01*
X044574Y0337105D01*
X044562Y03365D01*
Y0326555D01*
X0442845Y032378D01*
X04325D01*
X0431895Y032366D01*
X0431383Y0323318D01*
X0411482Y0303417D01*
X041114Y0302905D01*
X041102Y03023D01*
Y0293716D01*
X041048D01*
Y03059D01*
X041036Y0306505D01*
X0410017Y0307017D01*
X0405718Y0311317D01*
X0405205Y031166D01*
X04046Y031178D01*
X0374055D01*
X037358Y0312255D01*
Y0312763D01*
X0374572D01*
Y0316528D01*
X0369428D01*
Y0312763D01*
X037042D01*
Y03116D01*
X037054Y0310995D01*
X0370883Y0310483D01*
X0372283Y0309083D01*
X0372795Y030874D01*
X03734Y030862D01*
X0403945D01*
X040732Y0305245D01*
Y0293716D01*
X04037D01*
Y030148D01*
X0403435Y0302813D01*
X0402915Y0304068D01*
X040216Y0305199D01*
X0401198Y030616D01*
X0400068Y0306915D01*
X0398813Y0307435D01*
X039748Y03077D01*
X03968D01*
X03691Y03076D01*
X0368534Y030752D01*
X0367454Y0307142D01*
X0366468Y0306561D01*
X0365615Y0305798D01*
X0364927Y0304884D01*
X0364431Y0303853D01*
X0364145Y0302746D01*
X0364081Y0301603D01*
X0364161Y0301037D01*
X0364161Y0278409D01*
X03627Y02776D01*
X0362644Y0277552D01*
X0362579Y0277518D01*
X0361244Y0276429D01*
X0361198Y0276372D01*
X036114Y0276327D01*
X036002Y0275017D01*
X0359984Y0274953D01*
X0359936Y0274898D01*
X0359067Y027341D01*
X0359043Y0273341D01*
X0359005Y0273278D01*
X0358415Y027166D01*
X0358404Y0271587D01*
X0358377Y0271519D01*
X0358231Y027067D01*
X0358233Y02706D01*
X0358219Y0270531D01*
X035822Y0270525D01*
X0358219Y0270519D01*
X0358227Y0269994D01*
X0358091Y0268975D01*
X0357765Y026802D01*
X035726Y0267148D01*
X0356593Y0266391D01*
X0356091Y0266006D01*
X0356044Y0266022D01*
X035589Y0266446D01*
X0355889Y0266598D01*
X035649Y026764D01*
X0356819Y0268866D01*
Y0269D01*
X0352D01*
X0347181D01*
Y0268866D01*
X034751Y026764D01*
X0348144Y0266541D01*
X0349041Y0265644D01*
X0349238Y026553D01*
X0349093Y0265037D01*
X0348997Y0265041D01*
X0347953Y0265249D01*
X0346987Y0265649D01*
X0346118Y026623D01*
X0345379Y0266968D01*
X0344799Y0267837D01*
X0344399Y0268803D01*
X0344191Y0269847D01*
X0344166Y027037D01*
X0344166Y0311508D01*
X0344275Y0311565D01*
X0344666Y0311639D01*
X0345218Y0310918D01*
X0346033Y0310293D01*
X0346982Y03099D01*
X0348Y0309766D01*
X03511D01*
Y03137D01*
X03516D01*
Y03142D01*
X0357662D01*
Y0315194D01*
X0357681Y0315053D01*
X0357735Y0314926D01*
X0357827Y0314815D01*
X0357955Y0314718D01*
X0358119Y0314636D01*
X035832Y0314569D01*
X0358558Y0314517D01*
X0358832Y031448D01*
X0359033Y0314465D01*
X0359Y0314718D01*
X0358607Y0315667D01*
X0357981Y0316481D01*
X0357492Y0316857D01*
Y0317488D01*
X0357839Y0317754D01*
X0358432Y0318527D01*
X0358542Y0318793D01*
X0362628D01*
Y0318526D01*
X0366941D01*
X036696Y0318522D01*
X0366978Y0318526D01*
X0367772D01*
Y0318778D01*
X0368014Y0318793D01*
X0369428D01*
Y0318472D01*
X0374572D01*
Y0322237D01*
X0369428D01*
Y0321954D01*
X0368011D01*
X0367772Y0321968D01*
Y0322291D01*
X0366978D01*
X036696Y0322295D01*
X0366941Y0322291D01*
X0362628D01*
Y0321954D01*
X0358558D01*
X0358432Y0322259D01*
X0357839Y0323032D01*
X0357307Y032344D01*
Y0324039D01*
X0357839Y0324447D01*
X0358432Y032522D01*
X0358805Y032612D01*
X0358897Y032682D01*
X03589Y0326835D01*
Y0326843D01*
X0358932Y0327086D01*
X0358916Y0327209D01*
Y0327566D01*
X03589Y0327645D01*
Y0327725D01*
X0358796Y0328247D01*
X0358766Y0328321D01*
X035875Y03284D01*
X0358546Y0328891D01*
X0358502Y0328958D01*
X0358471Y0329032D01*
X0358175Y0329474D01*
X0358165Y0329484D01*
X0358193Y0329693D01*
X0358243Y0329802D01*
X0358395Y0329984D01*
X037286D01*
X0373012Y0329969D01*
X0373327Y0329839D01*
X0373539Y0329627D01*
X0373669Y0329312D01*
X0373684Y032916D01*
Y0328757D01*
X03737Y0328678D01*
Y0328598D01*
X0373873Y0327728D01*
X0373904Y0327654D01*
X0373919Y0327575D01*
X0374259Y0326756D01*
X0374303Y032669D01*
X0374334Y0326615D01*
X0374826Y0325878D01*
X0374883Y0325821D01*
X0374928Y0325755D01*
X0375555Y0325128D01*
X0375622Y0325083D01*
X0375678Y0325026D01*
X0376415Y0324534D01*
X0376489Y0324503D01*
X0376556Y0324459D01*
X0377375Y0324119D01*
X0377454Y0324104D01*
X0377528Y0324073D01*
X0378398Y03239D01*
X0378478D01*
X0378557Y0323884D01*
X0380573D01*
X0380651Y03239D01*
X0380732D01*
X0381659Y0324084D01*
X0381733Y0324115D01*
X0381812Y0324131D01*
X0382686Y0324493D01*
X0382753Y0324537D01*
X0382827Y0324568D01*
X0383613Y0325093D01*
X038367Y032515D01*
X0383737Y0325195D01*
X0384405Y0325863D01*
X038445Y032593D01*
X0384507Y0325987D01*
X0385032Y0326773D01*
X0385063Y0326847D01*
X0385107Y0326914D01*
X0385469Y0327788D01*
X0385485Y0327867D01*
X0385515Y0327941D01*
X03857Y0328868D01*
Y0328948D01*
X0385716Y0329027D01*
Y0332102D01*
X03857Y0332181D01*
Y0332261D01*
X0385504Y0333247D01*
X0385473Y0333321D01*
X0385458Y03334D01*
X0385073Y0334328D01*
X0385029Y0334395D01*
X0384998Y0334469D01*
X038444Y0335304D01*
X0384383Y0335361D01*
X0384338Y0335428D01*
X0383628Y0336138D01*
X0383561Y0336183D01*
X0383504Y033624D01*
X0383405Y0336306D01*
X038355Y0336784D01*
X0398167D01*
Y0324788D01*
X0396212Y0322833D01*
X03802D01*
X0379208Y0322702D01*
X0378284Y0322319D01*
X037749Y032171D01*
X0376881Y0320916D01*
X0376498Y0319992D01*
X0376367Y0319D01*
X0376498Y0318008D01*
X0376881Y0317084D01*
X037749Y031629D01*
X0378284Y0315681D01*
X0379208Y0315298D01*
X03802Y0315167D01*
X03978D01*
X0398792Y0315298D01*
X0399716Y0315681D01*
X040051Y031629D01*
X040471Y032049D01*
X0405319Y0321284D01*
X0405702Y0322208D01*
X0405833Y03232D01*
Y0336784D01*
X041083D01*
X0410909Y03368D01*
X041099D01*
X0412226Y0337046D01*
X04123Y0337077D01*
X0412379Y0337092D01*
X0413544Y0337575D01*
X0413611Y0337619D01*
X0413685Y033765D01*
X0414733Y0338351D01*
X041479Y0338407D01*
X0414856Y0338452D01*
X0415748Y0339344D01*
X0415793Y033941D01*
X0415849Y0339467D01*
X041655Y0340515D01*
X0416581Y0340589D01*
X0416625Y0340656D01*
X0417108Y0341821D01*
X0417123Y03419D01*
X0417154Y0341974D01*
X04174Y0343211D01*
Y0343291D01*
X0417416Y034337D01*
Y034562D01*
X0421765D01*
Y03424D01*
X0431426D01*
X0441087D01*
Y034562D01*
X0476245D01*
X047952Y0342345D01*
Y0337555D01*
X0475127Y0333162D01*
X0474784Y0332649D01*
X0474664Y0332044D01*
Y0331181D01*
X0473672D01*
Y0327416D01*
X0478816D01*
Y0331181D01*
X0478323D01*
X0478116Y0331681D01*
X0482218Y0335783D01*
X048256Y0336295D01*
X048268Y03369D01*
Y0343D01*
X048256Y0343605D01*
X0482218Y0344117D01*
X0478018Y0348318D01*
X0477505Y034866D01*
X04769Y034878D01*
X0417416D01*
Y035842D01*
X0419345D01*
X0423782Y0353982D01*
X0424295Y035364D01*
X04249Y035352D01*
X0454879D01*
X0455297Y0352796D01*
X0455996Y0352097D01*
X0456851Y0351603D01*
X0457806Y0351347D01*
X0458794D01*
X0459749Y0351603D01*
X0460604Y0352097D01*
X0461303Y0352796D01*
X0461797Y0353651D01*
X0462053Y0354606D01*
Y0355594D01*
X0461797Y0356549D01*
X0461303Y0357404D01*
X0460604Y0358103D01*
X0459749Y0358597D01*
X0458794Y0358853D01*
X0457806D01*
X0456851Y0358597D01*
X0455996Y0358103D01*
X0455297Y0357404D01*
X0454879Y035668D01*
X0425555D01*
X0421117Y0361118D01*
X0420605Y036146D01*
X042Y036158D01*
X0417416D01*
Y03846D01*
X0417416Y03928D01*
X0417416Y0393342D01*
X04174Y0393421D01*
Y0393501D01*
X0417189Y0394563D01*
X0417158Y0394638D01*
X0417142Y0394716D01*
X0416728Y0395717D01*
X0416683Y0395784D01*
X0416652Y0395858D01*
X041605Y0396759D01*
X0415993Y0396816D01*
X0415949Y0396883D01*
X0415183Y0397649D01*
X0415116Y0397693D01*
X0415059Y039775D01*
X0414158Y0398352D01*
X0414084Y0398383D01*
X0414017Y0398428D01*
X0414013Y0398429D01*
X0414112Y0398929D01*
X0499029D01*
X0499095Y0398429D01*
D02*
G37*
G36*
X0381288Y0336504D02*
X0382216Y033612D01*
X0383051Y0335561D01*
X0383761Y0334851D01*
X038432Y0334016D01*
X0384704Y0333088D01*
X03849Y0332102D01*
Y03316D01*
Y03295D01*
Y0329027D01*
X0384716Y03281D01*
X0384354Y0327226D01*
X0383828Y032644D01*
X038316Y0325772D01*
X0382374Y0325246D01*
X03815Y0324885D01*
X0380573Y03247D01*
X0378557D01*
X0377687Y0324873D01*
X0376868Y0325212D01*
X0376131Y0325705D01*
X0375505Y0326331D01*
X0375012Y0327068D01*
X0374673Y0327887D01*
X03745Y0328757D01*
Y03292D01*
X0374469Y0329512D01*
X037423Y0330089D01*
X0373789Y033053D01*
X0373212Y0330769D01*
X03729Y03308D01*
X0355335D01*
X03552Y0330818D01*
X0348D01*
X0347883Y0330802D01*
X0347296Y0330919D01*
X0346732Y0331153D01*
X0346224Y0331492D01*
X0345792Y0331924D01*
X0345453Y0332432D01*
X0345219Y0332996D01*
X03451Y0333595D01*
Y03339D01*
Y0334176D01*
X0345208Y0334717D01*
X0345419Y0335226D01*
X0345725Y0335685D01*
X0346115Y0336075D01*
X0346574Y0336381D01*
X0347083Y0336592D01*
X0347624Y03367D01*
X0380302D01*
X0381288Y0336504D01*
D02*
G37*
G36*
X0366975Y0321412D02*
X036702Y0321351D01*
X0367095Y0321298D01*
X03672Y0321252D01*
X0367335Y0321213D01*
X03675Y0321181D01*
X0367695Y0321156D01*
X0368175Y0321127D01*
X036846Y0321124D01*
Y0319624D01*
X0368175Y0319621D01*
X03675Y0319578D01*
X0367335Y0319552D01*
X03672Y0319521D01*
X0367095Y0319484D01*
X036702Y0319441D01*
X0366975Y0319392D01*
X036696Y0319338D01*
Y0321479D01*
X0366975Y0321412D01*
D02*
G37*
G36*
X03416Y033D02*
X0347893Y033D01*
X0347989Y0329994D01*
X0348038Y033D01*
X0355162Y033D01*
X0355228Y0329991D01*
X0355282Y0329995D01*
X0355335Y0329984D01*
X0355745D01*
X0356188Y0329896D01*
X0356679Y0329693D01*
X0357121Y0329397D01*
X0357497Y0329021D01*
X0357793Y0328579D01*
X0357996Y0328088D01*
X03581Y0327566D01*
Y0326995D01*
X0357981Y0326396D01*
X0357747Y0325832D01*
X0357408Y0325324D01*
X0356976Y0324892D01*
X0356468Y0324553D01*
X0355904Y0324319D01*
X0355305Y03242D01*
X03461D01*
X03461Y03242D01*
X0345798Y0324151D01*
X0345215Y0323965D01*
X034468Y0323669D01*
X0344213Y0323274D01*
X0343832Y0322796D01*
X0343551Y0322253D01*
X0343382Y0321665D01*
X0343331Y0321056D01*
X034335Y032075D01*
X034335Y027035D01*
X034338Y0269747D01*
X0343615Y0268565D01*
X0344076Y0267451D01*
X0344746Y0266448D01*
X0345599Y0265596D01*
X0346601Y0264926D01*
X0347715Y0264465D01*
X0348897Y026423D01*
X03495Y02642D01*
X0353463D01*
X0353463Y02642D01*
X0353463Y02642D01*
X0354045Y0264266D01*
X0355174Y0264566D01*
X0356224Y0265082D01*
X0357153Y0265792D01*
X0357925Y0266669D01*
X0358511Y0267681D01*
X0358889Y0268787D01*
X0359043Y0269946D01*
X0359035Y0270531D01*
X0359035Y0270531D01*
X0359035D01*
X0359035Y0270531D01*
X0359181Y027138D01*
X0359771Y0272999D01*
X036064Y0274487D01*
X036176Y0275797D01*
X0363095Y0276886D01*
X0364602Y0277721D01*
X0366234Y0278273D01*
X0367939Y0278527D01*
X03688Y02785D01*
X0371885Y02785D01*
X0373817Y0278116D01*
X0375637Y0277362D01*
X0377275Y0276268D01*
X0378667Y0274875D01*
X0379762Y0273237D01*
X0380516Y0271417D01*
X03809Y0269485D01*
X03809Y0263915D01*
X03809Y0263915D01*
X0380516Y0261983D01*
X0379762Y0260163D01*
X0378667Y0258525D01*
X0377275Y0257133D01*
X0375637Y0256038D01*
X0373817Y0255284D01*
X0371885Y02549D01*
X0346715D01*
X0344783Y0255284D01*
X0342963Y0256038D01*
X0341325Y0257133D01*
X0339932Y0258525D01*
X0338838Y0260163D01*
X0338084Y0261983D01*
X03377Y0263915D01*
Y02649D01*
X03377Y03264D01*
X03377Y03264D01*
X03377Y03264D01*
X03377Y03264D01*
X0337739Y032687D01*
X0337888Y0327488D01*
X0338198Y0328159D01*
X0338633Y0328757D01*
X0339176Y0329258D01*
X0339807Y0329644D01*
X03405Y03299D01*
X0341231Y0330015D01*
X03416Y033D01*
D02*
G37*
G36*
X0415325Y02929D02*
Y0292676D01*
X0420075D01*
Y0292705D01*
X0422125D01*
Y0292676D01*
X0422919D01*
X0422937Y0292672D01*
X0422943Y0292673D01*
X0422949Y0292672D01*
X0422966Y0292676D01*
X0426875D01*
Y02929D01*
X04381Y02929D01*
X04381Y02929D01*
X04381Y02929D01*
X04381D01*
X0438561Y0292866D01*
X0439176Y0292611D01*
X0439711Y0292076D01*
X044Y0291378D01*
X044Y0291D01*
X044Y02872D01*
X044Y02872D01*
Y0286822D01*
X0439711Y0286124D01*
X0439176Y0285589D01*
X0438478Y02853D01*
X04286Y02853D01*
X04286Y02853D01*
X0428316Y0285286D01*
X0427758Y0285175D01*
X0427233Y0284958D01*
X042676Y0284642D01*
X0426358Y028424D01*
X0426042Y0283767D01*
X0425825Y0283242D01*
X0425714Y0282684D01*
X04257Y02824D01*
Y0265D01*
X0425713Y0264735D01*
X0425816Y0264216D01*
X0426019Y0263727D01*
X0426313Y0263287D01*
X0426687Y0262913D01*
X0427127Y0262619D01*
X0427616Y0262416D01*
X0428135Y0262313D01*
X04284Y02623D01*
X04469D01*
X04469Y02623D01*
X04469Y02623D01*
X044691D01*
X0447369Y0262289D01*
X0448125Y0262139D01*
X0448889Y0261822D01*
X0449577Y0261362D01*
X0450162Y0260777D01*
X0450622Y0260089D01*
X0450939Y0259325D01*
X04511Y0258514D01*
X04511Y02581D01*
X04511Y02517D01*
X04511Y02517D01*
X04511Y0251286D01*
X0450938Y0250475D01*
X0450622Y024971D01*
X0450162Y0249023D01*
X0449577Y0248438D01*
X0448889Y0247978D01*
X0448125Y0247661D01*
X0447314Y02475D01*
X0399815D01*
X0397883Y0247884D01*
X0396063Y0248638D01*
X0394425Y0249732D01*
X0393033Y0251125D01*
X0391938Y0252763D01*
X0391184Y0254583D01*
X03908Y0256515D01*
Y02575D01*
Y02829D01*
Y0283885D01*
X0391184Y0285817D01*
X0391898Y0287539D01*
X039297Y0289144D01*
X0393629Y0289871D01*
X0393729Y0289971D01*
X0394456Y029063D01*
X0396086Y0291719D01*
X0397897Y0292469D01*
X039982Y0292852D01*
X04008Y02929D01*
X04008Y02929D01*
X04008D01*
X0415325Y02929D01*
D02*
G37*
G36*
X0504216Y0219402D02*
X0504807Y0219303D01*
X0505299Y0219205D01*
X0506185Y0219008D01*
X0507071Y0218713D01*
X0507858Y0218417D01*
X0508744Y0218024D01*
X050963Y0217531D01*
X0510417Y0217039D01*
X0511205Y0216449D01*
X0511992Y021576D01*
X050835Y0212118D01*
X0507858Y0212512D01*
X0507366Y0212906D01*
X0506874Y0213201D01*
X0506284Y0213496D01*
X0505594Y0213791D01*
X0504709Y0214087D01*
X0503724Y0214283D01*
X0502839Y0214382D01*
Y02195D01*
X0504216Y0219402D01*
D02*
G37*
G36*
X0502051Y0214382D02*
X0501165Y0214283D01*
X0500181Y0214087D01*
X0499295Y0213791D01*
X0498606Y0213496D01*
X0498016Y0213201D01*
X0497524Y0212906D01*
X0497031Y0212512D01*
X0496539Y0212118D01*
X0492898Y021576D01*
X0493685Y0216449D01*
X0494472Y0217039D01*
X049526Y0217531D01*
X0496146Y0218024D01*
X0497031Y0218417D01*
X0497819Y0218713D01*
X0498705Y0219008D01*
X049959Y0219205D01*
X0500083Y0219303D01*
X0500673Y0219402D01*
X0502051Y02195D01*
Y0214382D01*
D02*
G37*
G36*
X0335717Y0219402D02*
X0336307Y0219303D01*
X0336799Y0219205D01*
X0337685Y0219008D01*
X0338571Y0218713D01*
X0339358Y0218417D01*
X0340244Y0218024D01*
X034113Y0217531D01*
X0341917Y0217039D01*
X0342705Y0216449D01*
X0343492Y021576D01*
X033985Y0212118D01*
X0339358Y0212512D01*
X0338866Y0212906D01*
X0338374Y0213201D01*
X0337784Y0213496D01*
X0337094Y0213791D01*
X0336209Y0214087D01*
X0335224Y0214283D01*
X0334339Y0214382D01*
Y02195D01*
X0335717Y0219402D01*
D02*
G37*
G36*
X0333551Y0214382D02*
X0332665Y0214283D01*
X0331681Y0214087D01*
X0330795Y0213791D01*
X0330106Y0213496D01*
X0329516Y0213201D01*
X0329024Y0212906D01*
X0328532Y0212512D01*
X0328039Y0212118D01*
X0324398Y021576D01*
X0325185Y0216449D01*
X0325972Y0217039D01*
X032676Y0217531D01*
X0327646Y0218024D01*
X0328532Y0218417D01*
X0329319Y0218713D01*
X0330205Y0219008D01*
X033109Y0219205D01*
X0331583Y0219303D01*
X0332173Y0219402D01*
X0333551Y02195D01*
Y0214382D01*
D02*
G37*
G36*
X051337Y0214283D02*
X0513961Y0213496D01*
X0514453Y0212709D01*
X0514945Y0211823D01*
X0515339Y0210937D01*
X0515634Y021015D01*
X0515929Y0209264D01*
X0516126Y0208378D01*
X0516224Y0207886D01*
X0516323Y0207295D01*
X0516421Y0205917D01*
X0511303D01*
X0511205Y0206803D01*
X0511008Y0207787D01*
X0510713Y0208673D01*
X0510417Y0209362D01*
X0510122Y0209953D01*
X0509827Y0210445D01*
X0509433Y0210937D01*
X0509039Y0211429D01*
X0512681Y0215071D01*
X051337Y0214283D01*
D02*
G37*
G36*
X049585Y0211429D02*
X0495457Y0210937D01*
X0495063Y0210445D01*
X0494768Y0209953D01*
X0494472Y0209362D01*
X0494177Y0208673D01*
X0493882Y0207787D01*
X0493685Y0206803D01*
X0493587Y0205917D01*
X0488469D01*
X0488567Y0207295D01*
X0488665Y0207886D01*
X0488764Y0208378D01*
X0488961Y0209264D01*
X0489256Y021015D01*
X0489551Y0210937D01*
X0489945Y0211823D01*
X0490437Y0212709D01*
X0490929Y0213496D01*
X049152Y0214283D01*
X0492209Y0215071D01*
X049585Y0211429D01*
D02*
G37*
G36*
X034487Y0214283D02*
X0345461Y0213496D01*
X0345953Y0212709D01*
X0346445Y0211823D01*
X0346839Y0210937D01*
X0347134Y021015D01*
X0347429Y0209264D01*
X0347626Y0208378D01*
X0347724Y0207886D01*
X0347823Y0207295D01*
X0347921Y0205917D01*
X0342803D01*
X0342705Y0206803D01*
X0342508Y0207787D01*
X0342213Y0208673D01*
X0341917Y0209362D01*
X0341622Y0209953D01*
X0341327Y0210445D01*
X0340933Y0210937D01*
X0340539Y0211429D01*
X0344181Y0215071D01*
X034487Y0214283D01*
D02*
G37*
G36*
X032735Y0211429D02*
X0326957Y0210937D01*
X0326563Y0210445D01*
X0326268Y0209953D01*
X0325972Y0209362D01*
X0325677Y0208673D01*
X0325382Y0207787D01*
X0325185Y0206803D01*
X0325087Y0205917D01*
X0319969D01*
X0320067Y0207295D01*
X0320165Y0207886D01*
X0320264Y0208378D01*
X0320461Y0209264D01*
X0320756Y021015D01*
X0321051Y0210937D01*
X0321445Y0211823D01*
X0321937Y0212709D01*
X0322429Y0213496D01*
X032302Y0214283D01*
X0323709Y0215071D01*
X032735Y0211429D01*
D02*
G37*
G36*
X0516323Y0203752D02*
X0516224Y0203161D01*
X0516126Y0202669D01*
X0515929Y0201783D01*
X0515634Y0200898D01*
X0515339Y020011D01*
X0514945Y0199224D01*
X0514453Y0198339D01*
X0513961Y0197551D01*
X051337Y0196764D01*
X0512681Y0195976D01*
X0509039Y0199618D01*
X0509433Y020011D01*
X0509827Y0200602D01*
X0510122Y0201095D01*
X0510417Y0201685D01*
X0510713Y0202374D01*
X0511008Y020326D01*
X0511205Y0204244D01*
X0511303Y020513D01*
X0516421D01*
X0516323Y0203752D01*
D02*
G37*
G36*
X0493685Y0204244D02*
X0493882Y020326D01*
X0494177Y0202374D01*
X0494472Y0201685D01*
X0494768Y0201095D01*
X0495063Y0200602D01*
X0495457Y020011D01*
X049585Y0199618D01*
X0492209Y0195976D01*
X049152Y0196764D01*
X0490929Y0197551D01*
X0490437Y0198339D01*
X0489945Y0199224D01*
X0489551Y020011D01*
X0489256Y0200898D01*
X0488961Y0201783D01*
X0488764Y0202669D01*
X0488665Y0203161D01*
X0488567Y0203752D01*
X0488469Y020513D01*
X0493587D01*
X0493685Y0204244D01*
D02*
G37*
G36*
X0347823Y0203752D02*
X0347724Y0203161D01*
X0347626Y0202669D01*
X0347429Y0201783D01*
X0347134Y0200898D01*
X0346839Y020011D01*
X0346445Y0199224D01*
X0345953Y0198339D01*
X0345461Y0197551D01*
X034487Y0196764D01*
X0344181Y0195976D01*
X0340539Y0199618D01*
X0340933Y020011D01*
X0341327Y0200602D01*
X0341622Y0201095D01*
X0341917Y0201685D01*
X0342213Y0202374D01*
X0342508Y020326D01*
X0342705Y0204244D01*
X0342803Y020513D01*
X0347921D01*
X0347823Y0203752D01*
D02*
G37*
G36*
X0325185Y0204244D02*
X0325382Y020326D01*
X0325677Y0202374D01*
X0325972Y0201685D01*
X0326268Y0201095D01*
X0326563Y0200602D01*
X0326957Y020011D01*
X032735Y0199618D01*
X0323709Y0195976D01*
X032302Y0196764D01*
X0322429Y0197551D01*
X0321937Y0198339D01*
X0321445Y0199224D01*
X0321051Y020011D01*
X0320756Y0200898D01*
X0320461Y0201783D01*
X0320264Y0202669D01*
X0320165Y0203161D01*
X0320067Y0203752D01*
X0319969Y020513D01*
X0325087D01*
X0325185Y0204244D01*
D02*
G37*
G36*
X0511992Y0195287D02*
X0511205Y0194598D01*
X0510417Y0194008D01*
X050963Y0193516D01*
X0508744Y0193024D01*
X0507858Y019263D01*
X0507071Y0192335D01*
X0506185Y0192039D01*
X0505299Y0191842D01*
X0504807Y0191744D01*
X0504216Y0191646D01*
X0502839Y0191547D01*
Y0196665D01*
X0503724Y0196764D01*
X0504709Y0196961D01*
X0505594Y0197256D01*
X0506284Y0197551D01*
X0506874Y0197846D01*
X0507366Y0198142D01*
X0507858Y0198535D01*
X050835Y0198929D01*
X0511992Y0195287D01*
D02*
G37*
G36*
X0497031Y0198535D02*
X0497524Y0198142D01*
X0498016Y0197846D01*
X0498606Y0197551D01*
X0499295Y0197256D01*
X0500181Y0196961D01*
X0501165Y0196764D01*
X0502051Y0196665D01*
Y0191547D01*
X0500673Y0191646D01*
X0500083Y0191744D01*
X049959Y0191842D01*
X0498705Y0192039D01*
X0497819Y0192335D01*
X0497031Y019263D01*
X0496146Y0193024D01*
X049526Y0193516D01*
X0494472Y0194008D01*
X0493685Y0194598D01*
X0492898Y0195287D01*
X0496539Y0198929D01*
X0497031Y0198535D01*
D02*
G37*
G36*
X0343492Y0195287D02*
X0342705Y0194598D01*
X0341917Y0194008D01*
X034113Y0193516D01*
X0340244Y0193024D01*
X0339358Y019263D01*
X0338571Y0192335D01*
X0337685Y0192039D01*
X0336799Y0191842D01*
X0336307Y0191744D01*
X0335717Y0191646D01*
X0334339Y0191547D01*
Y0196665D01*
X0335224Y0196764D01*
X0336209Y0196961D01*
X0337094Y0197256D01*
X0337784Y0197551D01*
X0338374Y0197846D01*
X0338866Y0198142D01*
X0339358Y0198535D01*
X033985Y0198929D01*
X0343492Y0195287D01*
D02*
G37*
G36*
X0328532Y0198535D02*
X0329024Y0198142D01*
X0329516Y0197846D01*
X0330106Y0197551D01*
X0330795Y0197256D01*
X0331681Y0196961D01*
X0332665Y0196764D01*
X0333551Y0196665D01*
Y0191547D01*
X0332173Y0191646D01*
X0331583Y0191744D01*
X033109Y0191842D01*
X0330205Y0192039D01*
X0329319Y0192335D01*
X0328532Y019263D01*
X0327646Y0193024D01*
X032676Y0193516D01*
X0325972Y0194008D01*
X0325185Y0194598D01*
X0324398Y0195287D01*
X0328039Y0198929D01*
X0328532Y0198535D01*
D02*
G37*
%LPC*%
G36*
X04557Y0394016D02*
X04242Y0394016D01*
X0423737Y0394016D01*
X0423658Y0394D01*
X0423578D01*
X042267Y0393819D01*
X0422596Y0393789D01*
X0422517Y0393773D01*
X0421662Y0393419D01*
X0421595Y0393374D01*
X0421521Y0393343D01*
X0420751Y0392829D01*
X0420694Y0392772D01*
X0420627Y0392727D01*
X0419973Y0392073D01*
X0419928Y0392006D01*
X0419871Y0391949D01*
X0419357Y0391179D01*
X0419326Y0391105D01*
X0419281Y0391038D01*
X0418927Y0390183D01*
X0418911Y0390104D01*
X0418881Y039003D01*
X0418707Y0389156D01*
Y0389081D01*
X0418691Y0389008D01*
X0418684Y0388511D01*
X0418685Y0388506D01*
X0418684Y03885D01*
X0418684Y03885D01*
X0418684Y0373672D01*
X04187Y0373593D01*
Y0373512D01*
X0418867Y0372672D01*
X0418898Y0372598D01*
X0418914Y0372519D01*
X0419242Y0371727D01*
X0419286Y0371661D01*
X0419317Y0371586D01*
X0419793Y0370874D01*
X041985Y0370817D01*
X0419894Y037075D01*
X04205Y0370144D01*
X0420567Y03701D01*
X0420624Y0370043D01*
X0421336Y0369567D01*
X0421411Y0369536D01*
X0421477Y0369492D01*
X0422269Y0369164D01*
X0422348Y0369148D01*
X0422422Y0369117D01*
X0423262Y036895D01*
X0423343D01*
X0423422Y0368934D01*
X045765D01*
X0458118Y0368934D01*
X0458197Y036895D01*
X0458277D01*
X0459195Y0369132D01*
X0459269Y0369163D01*
X0459348Y0369179D01*
X0460212Y0369537D01*
X0460279Y0369582D01*
X0460353Y0369612D01*
X0461131Y0370132D01*
X0461188Y0370189D01*
X0461255Y0370234D01*
X0461916Y0370895D01*
X0461961Y0370962D01*
X0462018Y0371019D01*
X0462538Y0371797D01*
X0462568Y0371871D01*
X0462613Y0371938D01*
X0462971Y0372802D01*
X0462987Y0372881D01*
X0463018Y0372955D01*
X04632Y0373873D01*
Y0373953D01*
X0463216Y0374032D01*
X0463216Y03745D01*
X0463216Y03745D01*
Y03798D01*
X0463216Y03865D01*
X0463216Y038716D01*
X04632Y0387239D01*
Y0387319D01*
X0462943Y0388613D01*
X0462912Y0388688D01*
X0462896Y0388766D01*
X0462391Y0389986D01*
X0462346Y0390053D01*
X0462316Y0390127D01*
X0461583Y0391224D01*
X0461526Y0391281D01*
X0461481Y0391348D01*
X0460548Y0392281D01*
X0460481Y0392326D01*
X0460424Y0392382D01*
X0459327Y0393116D01*
X0459253Y0393146D01*
X0459186Y0393191D01*
X0457967Y0393696D01*
X0457888Y0393712D01*
X0457814Y0393742D01*
X0456519Y0394D01*
X0456439D01*
X045636Y0394016D01*
X04557Y0394016D01*
X04557Y0394016D01*
D02*
G37*
G36*
X0363575Y0387201D02*
X0358154D01*
Y03805D01*
X0363575D01*
Y0387201D01*
D02*
G37*
G36*
X0357154D02*
X0351732D01*
Y03805D01*
X0357154D01*
Y0387201D01*
D02*
G37*
G36*
X04795Y0385D02*
X04735D01*
Y03785D01*
X0476257D01*
X0478476Y0380997D01*
X047816Y0380509D01*
X0478009Y0379941D01*
X0478023Y0379293D01*
X0478201Y0378564D01*
X0478229Y03785D01*
X04795D01*
Y0385D01*
D02*
G37*
G36*
X04725D02*
X04665D01*
Y03785D01*
X04725D01*
Y0385D01*
D02*
G37*
G36*
X04795Y03775D02*
X0478691D01*
X0479052Y0376867D01*
X04795Y0376222D01*
Y03775D01*
D02*
G37*
G36*
X0475368D02*
X04735D01*
Y0375397D01*
X0475368Y03775D01*
D02*
G37*
G36*
X0363575Y03795D02*
X0358154D01*
Y0373811D01*
X0362563D01*
X03622Y0373751D01*
X0361876Y0373571D01*
X0361589Y0373271D01*
X0361341Y0372851D01*
X0361321Y0372799D01*
X0363575D01*
Y03795D01*
D02*
G37*
G36*
X0357154D02*
X0351732D01*
Y0372799D01*
X0353986D01*
X0353966Y0372851D01*
X0353718Y0373271D01*
X0353432Y0373571D01*
X0353107Y0373751D01*
X0352744Y0373811D01*
X0357154D01*
Y03795D01*
D02*
G37*
G36*
X04735Y0372131D02*
Y0371D01*
X0475325D01*
X0474513Y0371568D01*
X0473619Y037208D01*
X04735Y0372131D01*
D02*
G37*
G36*
X04725Y03775D02*
X04665D01*
Y0371D01*
X04725D01*
Y0372491D01*
X0472102Y0372582D01*
X0471479Y0372571D01*
X0470946Y0372385D01*
X0470503Y0372024D01*
X04725Y0374272D01*
Y03775D01*
D02*
G37*
G36*
X047242Y0359153D02*
X04724D01*
Y03557D01*
X0475853D01*
Y035572D01*
X0475583Y0356726D01*
X0475063Y0357627D01*
X0474327Y0358363D01*
X0473426Y0358883D01*
X047242Y0359153D01*
D02*
G37*
G36*
X04714D02*
X047138D01*
X0470374Y0358883D01*
X0469473Y0358363D01*
X0468737Y0357627D01*
X0468217Y0356726D01*
X0467947Y035572D01*
Y03557D01*
X04714D01*
Y0359153D01*
D02*
G37*
G36*
X03798Y0357853D02*
X037978D01*
X0378774Y0357583D01*
X0377873Y0357063D01*
X0377137Y0356327D01*
X0376617Y0355426D01*
X0376347Y035442D01*
Y03544D01*
X03798D01*
Y0357853D01*
D02*
G37*
G36*
X0475853Y03547D02*
X04724D01*
Y0351247D01*
X047242D01*
X0473426Y0351517D01*
X0474327Y0352037D01*
X0475063Y0352773D01*
X0475583Y0353674D01*
X0475853Y035468D01*
Y03547D01*
D02*
G37*
G36*
X04714D02*
X0467947D01*
Y035468D01*
X0468217Y0353674D01*
X0468737Y0352773D01*
X0469473Y0352037D01*
X0470374Y0351517D01*
X047138Y0351247D01*
X04714D01*
Y03547D01*
D02*
G37*
G36*
X03798Y03534D02*
X0376347D01*
Y035338D01*
X0376617Y0352374D01*
X0377137Y0351473D01*
X0377873Y0350737D01*
X0378774Y0350217D01*
X037978Y0349947D01*
X03798D01*
Y03534D01*
D02*
G37*
G36*
X04994Y035263D02*
X04984D01*
X0497165Y0352509D01*
X0495977Y0352149D01*
X0494883Y0351564D01*
X0493924Y0350776D01*
X0493136Y0349817D01*
X0492551Y0348723D01*
X0492191Y0347535D01*
X0492069Y03463D01*
X0492191Y0345065D01*
X0492551Y0343877D01*
X0493136Y0342783D01*
X0493924Y0341824D01*
X0494883Y0341036D01*
X0495977Y0340451D01*
X0497165Y0340091D01*
X04984Y0339969D01*
X04994D01*
X0500635Y0340091D01*
X0501823Y0340451D01*
X0502917Y0341036D01*
X0503876Y0341824D01*
X0504664Y0342783D01*
X0505249Y0343877D01*
X0505609Y0345065D01*
X050573Y03463D01*
X0505609Y0347535D01*
X0505249Y0348723D01*
X0504664Y0349817D01*
X0503876Y0350776D01*
X0502917Y0351564D01*
X0501823Y0352149D01*
X0500635Y0352509D01*
X04994Y035263D01*
D02*
G37*
G36*
X0441087Y03414D02*
X0431926D01*
Y0338184D01*
X0437426D01*
X0436856Y0338124D01*
X0436346Y0337943D01*
X0435896Y0337643D01*
X0435506Y0337222D01*
X0435468Y033716D01*
X0441087D01*
Y03414D01*
D02*
G37*
G36*
X0430926D02*
X0421765D01*
Y033716D01*
X0427384D01*
X0427346Y0337222D01*
X0426956Y0337643D01*
X0426506Y0337943D01*
X0425996Y0338124D01*
X0425426Y0338184D01*
X0430926D01*
Y03414D01*
D02*
G37*
G36*
X0472294Y0344153D02*
X0471306D01*
X0470352Y0343897D01*
X0469496Y0343403D01*
X0468797Y0342704D01*
X0468303Y0341848D01*
X0468047Y0340894D01*
Y0339906D01*
X0468264Y0339099D01*
X0464682Y0335518D01*
X046434Y0335005D01*
X046422Y03344D01*
Y03255D01*
X0464117Y0325375D01*
X0461125D01*
Y0320625D01*
X0465875D01*
Y0323935D01*
X0466405Y032404D01*
X0466918Y0324382D01*
X046726Y0324895D01*
X046738Y03255D01*
Y0333745D01*
X0470499Y0336864D01*
X0471306Y0336647D01*
X0472294D01*
X0473248Y0336903D01*
X0474104Y0337397D01*
X0474803Y0338096D01*
X0475297Y0338951D01*
X0475553Y0339906D01*
Y0340894D01*
X0475297Y0341848D01*
X0474803Y0342704D01*
X0474104Y0343403D01*
X0473248Y0343897D01*
X0472294Y0344153D01*
D02*
G37*
G36*
X0484875Y0332464D02*
X04828D01*
Y0330389D01*
X0484875D01*
Y0332464D01*
D02*
G37*
G36*
X04818D02*
X0479725D01*
Y0330389D01*
X04818D01*
Y0332464D01*
D02*
G37*
G36*
X0484875Y0329389D02*
X04828D01*
Y0327314D01*
X0484875D01*
Y0329389D01*
D02*
G37*
G36*
X04818D02*
X0479725D01*
Y0327314D01*
X04818D01*
Y0329389D01*
D02*
G37*
G36*
X05059Y03328D02*
X04994D01*
Y03268D01*
X05059D01*
Y03328D01*
D02*
G37*
G36*
X04984D02*
X04919D01*
Y03268D01*
X04984D01*
Y03328D01*
D02*
G37*
G36*
X0484675Y0325965D02*
X0479925D01*
Y032498D01*
X0478816D01*
Y0325472D01*
X0473672D01*
Y0321707D01*
X0478816D01*
Y032182D01*
X0479925D01*
Y0321215D01*
X0484675D01*
Y0325965D01*
D02*
G37*
G36*
X0460169Y0325575D02*
X0459132D01*
X0459157Y0324563D01*
X0458095D01*
Y03235D01*
X0460169D01*
Y0325575D01*
D02*
G37*
G36*
X0456068D02*
X045502D01*
Y03235D01*
X0457094D01*
Y0324563D01*
X0456032D01*
X0456041Y0324593D01*
X045605Y0324683D01*
X0456064Y0325043D01*
X0456068Y0325575D01*
D02*
G37*
G36*
X0460169Y03225D02*
X0458095D01*
Y0321437D01*
X0459157D01*
X0459143Y0321407D01*
X045913Y0321317D01*
X0459119Y0321167D01*
X0459104Y0320425D01*
X0460169D01*
Y03225D01*
D02*
G37*
G36*
X0457094D02*
X045502D01*
Y0320425D01*
X0456049D01*
X0456032Y0321437D01*
X0457094D01*
Y03225D01*
D02*
G37*
G36*
X05059Y03258D02*
X04994D01*
Y03198D01*
X05059D01*
Y03258D01*
D02*
G37*
G36*
X04984D02*
X04919D01*
Y03198D01*
X04984D01*
Y03258D01*
D02*
G37*
G36*
X045606Y0319175D02*
X0455007D01*
Y0318142D01*
X0456019Y0318163D01*
X0456031Y0318193D01*
X0456042Y0318283D01*
X0456051Y0318433D01*
X045606Y0319175D01*
D02*
G37*
G36*
X0460157D02*
X0459124D01*
X0459145Y0318163D01*
X0458082D01*
Y03171D01*
X0460157D01*
Y0319175D01*
D02*
G37*
G36*
X0457082Y0318163D02*
X0456019D01*
Y03171D01*
X0457082D01*
Y0318163D01*
D02*
G37*
G36*
X0367972Y0316783D02*
X03657D01*
Y03152D01*
X0367972D01*
Y0316783D01*
D02*
G37*
G36*
X03647D02*
X0362428D01*
Y0315465D01*
X0362922Y0315501D01*
X036308Y031553D01*
X036321Y0315565D01*
X0363311Y0315607D01*
X0363383Y0315655D01*
X0363426Y031571D01*
X036344Y0315771D01*
Y03152D01*
X03647D01*
Y0316783D01*
D02*
G37*
G36*
X0457082Y03161D02*
X0456019D01*
Y0315037D01*
X0455989Y0315049D01*
X0455899Y031506D01*
X0455749Y0315069D01*
X0455007Y0315078D01*
Y0314025D01*
X0457082D01*
Y03161D01*
D02*
G37*
G36*
X0465862Y0318975D02*
X0461113D01*
Y0314225D01*
X0465862D01*
Y0318975D01*
D02*
G37*
G36*
X0484875Y0315965D02*
X04828D01*
Y0313891D01*
X0483495D01*
Y0314141D01*
X0483851Y0314145D01*
Y0314891D01*
X0483866Y0314748D01*
X0483911Y0314621D01*
X0483987Y0314508D01*
X0484093Y0314411D01*
X0484229Y0314328D01*
X0484395Y0314261D01*
X0484592Y0314208D01*
X0484795Y0314174D01*
X0484875Y0314181D01*
Y0315965D01*
D02*
G37*
G36*
X0460157Y03161D02*
X0458082D01*
Y0314025D01*
X0460157D01*
Y03161D01*
D02*
G37*
G36*
X04818Y0315965D02*
X0479725D01*
Y0313891D01*
X04818D01*
Y0315965D01*
D02*
G37*
G36*
X03647Y03142D02*
X036344D01*
Y0313629D01*
X0363426Y031369D01*
X0363383Y0313745D01*
X0363311Y0313793D01*
X036321Y0313835D01*
X036308Y031387D01*
X0362922Y0313899D01*
X0362735Y0313921D01*
X0362428Y0313938D01*
Y0312617D01*
X03647D01*
Y03142D01*
D02*
G37*
G36*
X0367972D02*
X03657D01*
Y0312617D01*
X0367972D01*
Y03142D01*
D02*
G37*
G36*
X0478872Y0314683D02*
X0473728D01*
Y031438D01*
X046766D01*
X0467055Y031426D01*
X0466542Y0313917D01*
X04662Y0313405D01*
X046608Y03128D01*
X04662Y0312195D01*
X0466542Y0311683D01*
X0467055Y031134D01*
X046766Y031122D01*
X0473728D01*
Y0310917D01*
X0478872D01*
Y0314683D01*
D02*
G37*
G36*
X0483495Y0312891D02*
X04828D01*
Y0310816D01*
X0484875D01*
Y0312612D01*
X0484851Y0312613D01*
X0484819Y0312611D01*
X0484592Y0312573D01*
X0484395Y0312521D01*
X0484229Y0312453D01*
X0484093Y0312371D01*
X0483987Y0312273D01*
X0483911Y0312161D01*
X0483866Y0312033D01*
X0483851Y0311891D01*
Y0312636D01*
X0483495Y0312641D01*
Y0312891D01*
D02*
G37*
G36*
X04818D02*
X0479725D01*
Y0310816D01*
X04818D01*
Y0312891D01*
D02*
G37*
G36*
X0357662Y03132D02*
X03521D01*
Y0309766D01*
X03552D01*
X0356218Y03099D01*
X0357167Y0310293D01*
X0357981Y0310918D01*
X0358607Y0311733D01*
X0359Y0312682D01*
X0359032Y0312931D01*
X0358558Y0312883D01*
X035832Y0312831D01*
X0358119Y0312764D01*
X0357955Y0312682D01*
X0357827Y0312585D01*
X0357735Y0312474D01*
X0357681Y0312347D01*
X0357662Y0312206D01*
Y03132D01*
D02*
G37*
G36*
X0484675Y0309466D02*
X0479925D01*
Y0308672D01*
X0478872D01*
Y0308974D01*
X0473728D01*
Y0305209D01*
X0478872D01*
Y0305511D01*
X0479925D01*
Y0304716D01*
X0484675D01*
Y0309466D01*
D02*
G37*
G36*
X0463772Y0312975D02*
X0462828D01*
X0461955Y0312613D01*
X0461287Y0311945D01*
X0460925Y0311072D01*
Y0310128D01*
X0461287Y0309255D01*
X0461955Y0308587D01*
X0462828Y0308225D01*
X0463772D01*
X0464645Y0308587D01*
X0465313Y0309255D01*
X0465675Y0310128D01*
Y0311072D01*
X0465313Y0311945D01*
X0464645Y0312613D01*
X0463772Y0312975D01*
D02*
G37*
G36*
X0440248Y0310125D02*
X0437765D01*
X0437875Y0309854D01*
X043804Y0309583D01*
X0438235Y0309372D01*
X043846Y0309222D01*
X0438715Y0309131D01*
X0439Y0309101D01*
X04365D01*
Y0307755D01*
X0440248D01*
Y0310125D01*
D02*
G37*
G36*
X0434235D02*
X0431752D01*
Y030885D01*
X0432284Y0308884D01*
X0432494Y0308931D01*
X0432644Y0308984D01*
X0432734Y0309045D01*
X0432764Y0309113D01*
Y0307755D01*
X04355D01*
Y0309101D01*
X0433D01*
X0433285Y0309131D01*
X043354Y0309222D01*
X0433765Y0309372D01*
X043396Y0309583D01*
X0434125Y0309854D01*
X0434235Y0310125D01*
D02*
G37*
G36*
X04355Y0306755D02*
X0432764D01*
Y0305397D01*
X0432734Y0305465D01*
X0432644Y0305526D01*
X0432494Y030558D01*
X0432284Y0305626D01*
X0432014Y0305666D01*
X0431752Y0305686D01*
Y0304385D01*
X04355D01*
Y0306755D01*
D02*
G37*
G36*
X0440248D02*
X04365D01*
Y0304385D01*
X0440248D01*
Y0306755D01*
D02*
G37*
G36*
X0505368Y0307939D02*
X0505231D01*
Y03036D01*
X050957D01*
Y0303737D01*
X050924Y0304968D01*
X0508603Y0306071D01*
X0507702Y0306972D01*
X0506599Y0307609D01*
X0505368Y0307939D01*
D02*
G37*
G36*
X0504231D02*
X0504094D01*
X0502864Y0307609D01*
X050176Y0306972D01*
X0500859Y0306071D01*
X0500222Y0304968D01*
X0499893Y0303737D01*
Y03036D01*
X0504231D01*
Y0307939D01*
D02*
G37*
G36*
X0450472Y0307375D02*
X0449528D01*
X0448655Y0307013D01*
X0447987Y0306345D01*
X0447625Y0305472D01*
Y0304528D01*
X0447987Y0303655D01*
X0448655Y0302987D01*
X0449528Y0302625D01*
X0450472D01*
X0451345Y0302987D01*
X0452013Y0303655D01*
X0452375Y0304528D01*
Y0305472D01*
X0452013Y0306345D01*
X0451345Y0307013D01*
X0450472Y0307375D01*
D02*
G37*
G36*
X0465835Y0305496D02*
X0457739D01*
Y0300899D01*
X0457239Y0300799D01*
X0457013Y0301345D01*
X0456345Y0302013D01*
X0455472Y0302375D01*
X0454528D01*
X0453655Y0302013D01*
X0452987Y0301345D01*
X0452625Y0300472D01*
Y0299528D01*
X0452987Y0298655D01*
X0453655Y0297987D01*
X0454528Y0297625D01*
X0455472D01*
X0456345Y0297987D01*
X0457013Y0298655D01*
X0457239Y0299201D01*
X0457739Y0299101D01*
Y0290904D01*
X0465835D01*
Y0305496D01*
D02*
G37*
G36*
X050957Y03026D02*
X0505231D01*
Y0298261D01*
X0505368D01*
X0506599Y0298591D01*
X0507702Y0299228D01*
X0508603Y0300129D01*
X050924Y0301232D01*
X050957Y0302463D01*
Y03026D01*
D02*
G37*
G36*
X0504231D02*
X0499893D01*
Y0302463D01*
X0500222Y0301232D01*
X0500859Y0300129D01*
X050176Y0299228D01*
X0502864Y0298591D01*
X0504094Y0298261D01*
X0504231D01*
Y03026D01*
D02*
G37*
G36*
X0484875Y0299646D02*
X04828D01*
Y0297572D01*
X0483495D01*
Y029775D01*
X0483854Y0297755D01*
X0483851Y02985D01*
X0483867Y0298358D01*
X0483912Y029823D01*
X0483988Y0298117D01*
X0484094Y029802D01*
X048423Y0297937D01*
X0484397Y029787D01*
X0484593Y0297817D01*
X0484796Y0297784D01*
X0484875Y029779D01*
Y0299646D01*
D02*
G37*
G36*
X0445472Y0302375D02*
X0444528D01*
X0443655Y0302013D01*
X0442987Y0301345D01*
X0442625Y0300472D01*
Y0299528D01*
X0442987Y0298655D01*
X0443655Y0297987D01*
X0444528Y0297625D01*
X0445472D01*
X0446345Y0297987D01*
X0447013Y0298655D01*
X0447375Y0299528D01*
Y0300472D01*
X0447013Y0301345D01*
X0446345Y0302013D01*
X0445472Y0302375D01*
D02*
G37*
G36*
X04818Y0299646D02*
X0479725D01*
Y0297572D01*
X04818D01*
Y0299646D01*
D02*
G37*
G36*
X0422978Y0297625D02*
X0421925D01*
Y0296592D01*
X0422937Y0296613D01*
X0422949Y0296643D01*
X042296Y0296733D01*
X0422969Y0296883D01*
X0422978Y0297625D01*
D02*
G37*
G36*
X0420275D02*
X04182D01*
Y029555D01*
X0419937D01*
Y029655D01*
X0420275Y0296557D01*
Y0297625D01*
D02*
G37*
G36*
X0427075D02*
X0426042D01*
X0426063Y0296613D01*
X0425D01*
Y029555D01*
X0427075D01*
Y0297625D01*
D02*
G37*
G36*
X0424Y0296613D02*
X0422937D01*
Y029555D01*
X0424D01*
Y0296613D01*
D02*
G37*
G36*
X04172Y0297625D02*
X0415125D01*
Y029555D01*
X04172D01*
Y0297625D01*
D02*
G37*
G36*
X0440048Y030087D02*
X0431952D01*
Y029553D01*
X0440048D01*
Y030087D01*
D02*
G37*
G36*
X0483495Y0296572D02*
X04828D01*
Y0294497D01*
X0484875D01*
Y0296222D01*
X0484851Y0296223D01*
X0484823Y029622D01*
X0484598Y0296183D01*
X0484403Y0296131D01*
X0484238Y0296065D01*
X0484103Y0295983D01*
X0483998Y0295887D01*
X0483923Y0295776D01*
X0483878Y029565D01*
X0483863Y0295509D01*
X048386Y0296245D01*
X0483495Y029625D01*
Y0296572D01*
D02*
G37*
G36*
X04818D02*
X0479725D01*
Y0294497D01*
X04818D01*
Y0296572D01*
D02*
G37*
G36*
X0450472Y0297375D02*
X0449528D01*
X0448655Y0297013D01*
X0447987Y0296345D01*
X0447625Y0295472D01*
Y0294528D01*
X0447987Y0293655D01*
X0448655Y0292987D01*
X0449528Y0292625D01*
X0450472D01*
X0451345Y0292987D01*
X0452013Y0293655D01*
X0452375Y0294528D01*
Y0295472D01*
X0452013Y0296345D01*
X0451345Y0297013D01*
X0450472Y0297375D01*
D02*
G37*
G36*
X0484675Y0293147D02*
X0479925D01*
Y029228D01*
X0478872D01*
Y0292655D01*
X0473728D01*
Y028889D01*
X0478872D01*
Y028912D01*
X0479925D01*
Y0288398D01*
X0484675D01*
Y0293147D01*
D02*
G37*
G36*
X0505342Y0297739D02*
X050412D01*
X0502941Y0297423D01*
X0501883Y0296812D01*
X0501019Y0295948D01*
X0500409Y029489D01*
X0500093Y0293711D01*
Y0292489D01*
X0500409Y029131D01*
X0501019Y0290252D01*
X0501883Y0289388D01*
X0502941Y0288777D01*
X050412Y0288461D01*
X0505342D01*
X0506522Y0288777D01*
X0507579Y0289388D01*
X0508443Y0290252D01*
X0509054Y029131D01*
X050937Y0292489D01*
Y0293711D01*
X0509054Y029489D01*
X0508443Y0295948D01*
X0507579Y0296812D01*
X0506522Y0297423D01*
X0505342Y0297739D01*
D02*
G37*
G36*
X0455472Y0292375D02*
X0454528D01*
X0453655Y0292013D01*
X0452987Y0291345D01*
X0452625Y0290472D01*
Y0289528D01*
X0452987Y0288655D01*
X0453655Y0287987D01*
X0454528Y0287625D01*
X0455472D01*
X0456345Y0287987D01*
X0457013Y0288655D01*
X0457375Y0289528D01*
Y0290472D01*
X0457013Y0291345D01*
X0456345Y0292013D01*
X0455472Y0292375D01*
D02*
G37*
G36*
X0445472D02*
X0444528D01*
X0443655Y0292013D01*
X0442987Y0291345D01*
X0442625Y0290472D01*
Y0289528D01*
X0442987Y0288655D01*
X0443655Y0287987D01*
X0444528Y0287625D01*
X0445472D01*
X0446345Y0287987D01*
X0447013Y0288655D01*
X0447375Y0289528D01*
Y0290472D01*
X0447013Y0291345D01*
X0446345Y0292013D01*
X0445472Y0292375D01*
D02*
G37*
G36*
X0505368Y0287939D02*
X0505231D01*
Y02836D01*
X050957D01*
Y0283737D01*
X050924Y0284968D01*
X0508603Y0286071D01*
X0507702Y0286972D01*
X0506599Y0287609D01*
X0505368Y0287939D01*
D02*
G37*
G36*
X0504231D02*
X0504094D01*
X0502864Y0287609D01*
X050176Y0286972D01*
X0500859Y0286071D01*
X0500222Y0284968D01*
X0499893Y0283737D01*
Y02836D01*
X0504231D01*
Y0287939D01*
D02*
G37*
G36*
X0460472Y0287375D02*
X0459528D01*
X0458655Y0287013D01*
X0457987Y0286345D01*
X0457625Y0285472D01*
Y0284528D01*
X0457987Y0283655D01*
X0458655Y0282987D01*
X0459528Y0282625D01*
X0460472D01*
X0461345Y0282987D01*
X0462013Y0283655D01*
X0462375Y0284528D01*
Y0285472D01*
X0462013Y0286345D01*
X0461345Y0287013D01*
X0460472Y0287375D01*
D02*
G37*
G36*
X0450472D02*
X0449528D01*
X0448655Y0287013D01*
X0447987Y0286345D01*
X0447625Y0285472D01*
Y0284528D01*
X0447987Y0283655D01*
X0448655Y0282987D01*
X0449528Y0282625D01*
X0450472D01*
X0451345Y0282987D01*
X0452013Y0283655D01*
X0452375Y0284528D01*
Y0285472D01*
X0452013Y0286345D01*
X0451345Y0287013D01*
X0450472Y0287375D01*
D02*
G37*
G36*
X0352634Y0274319D02*
X03525D01*
Y027D01*
X0356819D01*
Y0270134D01*
X035649Y027136D01*
X0355856Y0272459D01*
X0354959Y0273356D01*
X035386Y0273991D01*
X0352634Y0274319D01*
D02*
G37*
G36*
X03515D02*
X0351366D01*
X035014Y0273991D01*
X0349041Y0273356D01*
X0348144Y0272459D01*
X034751Y027136D01*
X0347181Y0270134D01*
Y027D01*
X03515D01*
Y0274319D01*
D02*
G37*
G36*
X050957Y02826D02*
X0504731D01*
X0499893D01*
Y0282463D01*
X0500222Y0281232D01*
X0500859Y0280129D01*
X050176Y0279228D01*
X0502864Y0278591D01*
X0504094Y0278261D01*
X0504093Y0277762D01*
X0502812D01*
X0502102Y0277669D01*
X050144Y0277395D01*
X0500872Y0276959D01*
X0500436Y0276391D01*
X0500163Y0275729D01*
X0500069Y0275019D01*
Y0271181D01*
X0500163Y0270471D01*
X0500436Y0269809D01*
X0500872Y0269241D01*
X050144Y0268805D01*
X0502102Y0268531D01*
X0502812Y0268438D01*
X050665D01*
X050736Y0268531D01*
X0508022Y0268805D01*
X050859Y0269241D01*
X0509026Y0269809D01*
X05093Y0270471D01*
X0509393Y0271181D01*
Y0275019D01*
X05093Y0275729D01*
X0509026Y0276391D01*
X050859Y0276959D01*
X0508022Y0277395D01*
X050736Y0277669D01*
X050665Y0277762D01*
X050537D01*
X0505368Y0278261D01*
X0506599Y0278591D01*
X0507702Y0279228D01*
X0508603Y0280129D01*
X050924Y0281232D01*
X050957Y0282463D01*
Y02826D01*
D02*
G37*
G36*
X0487881Y0259221D02*
X0475964D01*
Y02538D01*
X0487881D01*
Y0259221D01*
D02*
G37*
G36*
X0474964D02*
X0463047D01*
Y02538D01*
X0474964D01*
Y0259221D01*
D02*
G37*
G36*
X0329693Y0267706D02*
X0328107D01*
X032655Y0267396D01*
X0325084Y0266789D01*
X0323765Y0265907D01*
X0322643Y0264785D01*
X0321761Y0263466D01*
X0321154Y0262D01*
X0320844Y0260443D01*
Y0258857D01*
X0321154Y02573D01*
X0321761Y0255834D01*
X0322643Y0254515D01*
X0323765Y0253393D01*
X0325084Y0252511D01*
X032655Y0251904D01*
X0328107Y0251594D01*
X0329693D01*
X033125Y0251904D01*
X0332716Y0252511D01*
X0334035Y0253393D01*
X0335157Y0254515D01*
X0336039Y0255834D01*
X0336646Y02573D01*
X0336956Y0258857D01*
Y0260443D01*
X0336646Y0262D01*
X0336039Y0263466D01*
X0335157Y0264785D01*
X0334035Y0265907D01*
X0332716Y0266789D01*
X033125Y0267396D01*
X0329693Y0267706D01*
D02*
G37*
G36*
X0487881Y02528D02*
X0475964D01*
Y0247379D01*
X0487881D01*
Y02528D01*
D02*
G37*
G36*
X0474964D02*
X0463047D01*
Y0247379D01*
X0474964D01*
Y02528D01*
D02*
G37*
G36*
X0356819Y0249D02*
X03525D01*
Y0245693D01*
X0355807D01*
X0355654Y0245633D01*
X0355516Y0245453D01*
X0355395Y0245153D01*
X0355291Y0244733D01*
X0355282Y0244681D01*
X0356819D01*
Y0249D01*
D02*
G37*
G36*
X03515D02*
X0347181D01*
Y0244681D01*
X0348713D01*
X034871Y0244733D01*
X0348605Y0245153D01*
X0348484Y0245453D01*
X0348346Y0245633D01*
X0348193Y0245693D01*
X03515D01*
Y0249D01*
D02*
G37*
G36*
X04176Y02425D02*
X04154D01*
Y024085D01*
X04176Y02425D01*
D02*
G37*
G36*
X04154Y0240033D02*
Y0239047D01*
X041542D01*
X0416426Y0239317D01*
X0416916Y02396D01*
X04162Y0239872D01*
X04154Y0240033D01*
D02*
G37*
G36*
X04144Y02425D02*
X0410947D01*
Y024248D01*
X0411217Y0241474D01*
X0411737Y0240573D01*
X0412473Y0239837D01*
X0413374Y0239317D01*
X041438Y0239047D01*
X04144D01*
Y02401D01*
D01*
D01*
Y02425D01*
D02*
G37*
G36*
X0505342Y0252739D02*
X050412D01*
X0502941Y0252422D01*
X0501883Y0251812D01*
X0501019Y0250948D01*
X0500409Y024989D01*
X0500093Y0248711D01*
Y0247489D01*
X0500409Y024631D01*
X0501019Y0245252D01*
X0501883Y0244388D01*
X0502941Y0243777D01*
X050412Y0243461D01*
X0504115Y0242964D01*
X0502812D01*
X050205Y0242863D01*
X050134Y0242569D01*
X050073Y0242101D01*
X0500262Y0241492D01*
X05001Y0241102D01*
X0500211Y0241119D01*
X0500755Y0241234D01*
X050121Y0241367D01*
X0501575Y0241517D01*
X050185Y0241685D01*
Y02386D01*
X0504731D01*
X0509595D01*
Y0240019D01*
X0509494Y0240781D01*
X05092Y0241492D01*
X0508733Y0242101D01*
X0508123Y0242569D01*
X0507412Y0242863D01*
X050665Y0242964D01*
X0505347D01*
X0505342Y0243461D01*
X0506522Y0243777D01*
X0507579Y0244388D01*
X0508443Y0245252D01*
X0509054Y024631D01*
X050937Y0247489D01*
Y0248711D01*
X0509054Y024989D01*
X0508443Y0250948D01*
X0507579Y0251812D01*
X0506522Y0252422D01*
X0505342Y0252739D01*
D02*
G37*
G36*
X0504231Y02376D02*
X050185D01*
Y0234515D01*
X0501719Y0234569D01*
X0501476Y0234617D01*
X050112Y023466D01*
X0500258Y0234716D01*
X0500262Y0234708D01*
X050073Y0234099D01*
X050134Y0233631D01*
X050205Y0233337D01*
X0502812Y0233236D01*
X0504231D01*
Y02376D01*
D02*
G37*
G36*
X0509595D02*
X0505231D01*
Y0233236D01*
X050665D01*
X0507412Y0233337D01*
X0508123Y0233631D01*
X0508733Y0234099D01*
X05092Y0234708D01*
X0509494Y0235419D01*
X0509595Y0236181D01*
Y02376D01*
D02*
G37*
G36*
X03696Y021485D02*
X0367099D01*
X0367124Y0214798D01*
X0367421Y0214378D01*
X0367764Y0214078D01*
X0368153Y0213898D01*
X0368588Y0213838D01*
X03636D01*
Y020835D01*
X03696D01*
Y021485D01*
D02*
G37*
G36*
X0359361D02*
X03566D01*
Y020835D01*
X03626D01*
Y0213838D01*
X0357612D01*
X0358123Y0213898D01*
X035858Y0214078D01*
X0358983Y0214378D01*
X0359332Y0214798D01*
X0359361Y021485D01*
D02*
G37*
G36*
X0476Y0205932D02*
X04735Y02052D01*
X0473467Y0205829D01*
X0472628Y020499D01*
X0471991Y0203887D01*
X0471661Y0202656D01*
Y0202519D01*
X0476D01*
Y0205932D01*
D02*
G37*
G36*
X0456Y0206857D02*
X0455863D01*
X0454632Y0206528D01*
X0453529Y0205891D01*
X0452628Y020499D01*
X0451991Y0203887D01*
X0451661Y0202656D01*
X0451162Y0202657D01*
Y0203938D01*
X0451069Y0204648D01*
X0450795Y020531D01*
X0450359Y0205878D01*
X0449791Y0206313D01*
X0449129Y0206588D01*
X0448419Y0206681D01*
X0444581D01*
X0443871Y0206588D01*
X0443209Y0206313D01*
X0442641Y0205878D01*
X0442205Y020531D01*
X0441931Y0204648D01*
X0441838Y0203938D01*
Y02001D01*
X0441931Y019939D01*
X0442205Y0198728D01*
X0442641Y019816D01*
X0443209Y0197724D01*
X0443871Y019745D01*
X0444581Y0197357D01*
X0448419D01*
X0449129Y019745D01*
X0449791Y0197724D01*
X0450359Y019816D01*
X0450795Y0198728D01*
X0451069Y019939D01*
X0451162Y02001D01*
Y020138D01*
X0451661Y0201382D01*
X0451991Y0200151D01*
X0452628Y0199048D01*
X0453529Y0198147D01*
X0454632Y019751D01*
X0455863Y019718D01*
X0456D01*
Y0202019D01*
Y0206857D01*
D02*
G37*
G36*
X04115D02*
X0411363D01*
X0410132Y0206528D01*
X0409029Y0205891D01*
X0408128Y020499D01*
X0407491Y0203887D01*
X0407161Y0202656D01*
X0406662Y0202657D01*
Y0203938D01*
X0406569Y0204648D01*
X0406295Y020531D01*
X0405859Y0205878D01*
X0405291Y0206313D01*
X0404629Y0206588D01*
X0403919Y0206681D01*
X0400081D01*
X0399371Y0206588D01*
X0398709Y0206313D01*
X0398141Y0205878D01*
X0397705Y020531D01*
X0397431Y0204648D01*
X0397338Y0203938D01*
Y02001D01*
X0397431Y019939D01*
X0397705Y0198728D01*
X0398141Y019816D01*
X0398709Y0197724D01*
X0399371Y019745D01*
X0400081Y0197357D01*
X0403919D01*
X0404629Y019745D01*
X0405291Y0197724D01*
X0405859Y019816D01*
X0406295Y0198728D01*
X0406569Y019939D01*
X0406662Y02001D01*
Y020138D01*
X0407161Y0201382D01*
X0407491Y0200151D01*
X0408128Y0199048D01*
X0409029Y0198147D01*
X0410132Y019751D01*
X0411363Y019718D01*
X04115D01*
Y0202019D01*
Y0206857D01*
D02*
G37*
G36*
X0478193Y0206575D02*
X0477Y0206225D01*
Y0202519D01*
X0481339D01*
Y0202656D01*
X0481009Y0203887D01*
X0480372Y020499D01*
X0479471Y0205891D01*
X0478368Y0206528D01*
X0478193Y0206575D01*
D02*
G37*
G36*
X0457137Y0206857D02*
X0457D01*
Y0202519D01*
X0461339D01*
Y0202656D01*
X0461009Y0203887D01*
X0460372Y020499D01*
X0459471Y0205891D01*
X0458368Y0206528D01*
X0457137Y0206857D01*
D02*
G37*
G36*
X0432637D02*
X04325D01*
Y0202519D01*
X0436839D01*
Y0202656D01*
X0436509Y0203887D01*
X0435872Y020499D01*
X0434971Y0205891D01*
X0433868Y0206528D01*
X0432637Y0206857D01*
D02*
G37*
G36*
X04315D02*
X0431363D01*
X0430132Y0206528D01*
X0429029Y0205891D01*
X0428128Y020499D01*
X0427491Y0203887D01*
X0427161Y0202656D01*
Y0202519D01*
X04315D01*
Y0206857D01*
D02*
G37*
G36*
X0412637D02*
X04125D01*
Y0202519D01*
X0416839D01*
Y0202656D01*
X0416509Y0203887D01*
X0415872Y020499D01*
X0414971Y0205891D01*
X0413868Y0206528D01*
X0412637Y0206857D01*
D02*
G37*
G36*
X03831Y0214681D02*
X0381865Y0214559D01*
X0380677Y0214199D01*
X0379583Y0213614D01*
X0378624Y0212826D01*
X0377836Y0211867D01*
X0377251Y0210773D01*
X0376891Y0209585D01*
X0376769Y020835D01*
Y020735D01*
X0376891Y0206115D01*
X0377251Y0204927D01*
X0377836Y0203833D01*
X0378624Y0202874D01*
X0379583Y0202086D01*
X0380677Y0201501D01*
X0381865Y0201141D01*
X03831Y020102D01*
X0384335Y0201141D01*
X0385523Y0201501D01*
X0386617Y0202086D01*
X0387576Y0202874D01*
X0388364Y0203833D01*
X0388949Y0204927D01*
X0389309Y0206115D01*
X038943Y020735D01*
Y020835D01*
X0389309Y0209585D01*
X0388949Y0210773D01*
X0388364Y0211867D01*
X0387576Y0212826D01*
X0386617Y0213614D01*
X0385523Y0214199D01*
X0384335Y0214559D01*
X03831Y0214681D01*
D02*
G37*
G36*
X03696Y020735D02*
X03636D01*
Y020085D01*
X03696D01*
Y020735D01*
D02*
G37*
G36*
X03626D02*
X03566D01*
Y020085D01*
X03626D01*
Y020735D01*
D02*
G37*
G36*
X0467111Y0206658D02*
X0465889D01*
X046471Y0206341D01*
X0463652Y0205731D01*
X0462788Y0204867D01*
X0462178Y0203809D01*
X0461861Y020263D01*
Y0201408D01*
X0462178Y0200229D01*
X0462788Y0199171D01*
X0463652Y0198307D01*
X046471Y0197696D01*
X0465889Y019738D01*
X0467111D01*
X046829Y0197696D01*
X0469348Y0198307D01*
X0470212Y0199171D01*
X0470822Y0200229D01*
X0471139Y0201408D01*
Y020263D01*
X0470822Y0203809D01*
X0470212Y0204867D01*
X0469348Y0205731D01*
X046829Y0206341D01*
X0467111Y0206658D01*
D02*
G37*
G36*
X0422611D02*
X0421389D01*
X042021Y0206341D01*
X0419152Y0205731D01*
X0418288Y0204867D01*
X0417677Y0203809D01*
X0417361Y020263D01*
Y0201408D01*
X0417677Y0200229D01*
X0418288Y0199171D01*
X0419152Y0198307D01*
X042021Y0197696D01*
X0421389Y019738D01*
X0422611D01*
X042379Y0197696D01*
X0424848Y0198307D01*
X0425712Y0199171D01*
X0426323Y0200229D01*
X0426639Y0201408D01*
Y020263D01*
X0426323Y0203809D01*
X0425712Y0204867D01*
X0424848Y0205731D01*
X042379Y0206341D01*
X0422611Y0206658D01*
D02*
G37*
G36*
X0481339Y0201519D02*
X0477D01*
Y019718D01*
X0477137D01*
X0478368Y019751D01*
X0479471Y0198147D01*
X0480372Y0199048D01*
X0481009Y0200151D01*
X0481339Y0201382D01*
Y0201519D01*
D02*
G37*
G36*
X0476D02*
X0471661D01*
Y0201382D01*
X0471991Y0200151D01*
X0472628Y0199048D01*
X0473529Y0198147D01*
X0474632Y019751D01*
X0475863Y019718D01*
X0476D01*
Y0201519D01*
D02*
G37*
G36*
X0461339D02*
X0457D01*
Y019718D01*
X0457137D01*
X0458368Y019751D01*
X0459471Y0198147D01*
X0460372Y0199048D01*
X0461009Y0200151D01*
X0461339Y0201382D01*
Y0201519D01*
D02*
G37*
G36*
X0436839D02*
X04325D01*
Y019718D01*
X0432637D01*
X0433868Y019751D01*
X0434971Y0198147D01*
X0435872Y0199048D01*
X0436509Y0200151D01*
X0436839Y0201382D01*
Y0201519D01*
D02*
G37*
G36*
X04315D02*
X0427161D01*
Y0201382D01*
X0427491Y0200151D01*
X0428128Y0199048D01*
X0429029Y0198147D01*
X0430132Y019751D01*
X0431363Y019718D01*
X04315D01*
Y0201519D01*
D02*
G37*
G36*
X0416839D02*
X04125D01*
Y019718D01*
X0412637D01*
X0413868Y019751D01*
X0414971Y0198147D01*
X0415872Y0199048D01*
X0416509Y0200151D01*
X0416839Y0201382D01*
Y0201519D01*
D02*
G37*
%LPD*%
G36*
X04242Y03932D02*
X04557Y03932D01*
X04557Y03932D01*
X04557Y03932D01*
X045636Y03932D01*
X0457654Y0392943D01*
X0458874Y0392437D01*
X0459971Y0391704D01*
X0460904Y0390771D01*
X0461637Y0389674D01*
X0462143Y0388454D01*
X04624Y038716D01*
X04624Y03865D01*
X04624Y03798D01*
Y03745D01*
X04624Y03745D01*
X04624Y0374032D01*
X0462218Y0373114D01*
X0461859Y037225D01*
X046134Y0371472D01*
X0460678Y037081D01*
X04599Y0370291D01*
X0459035Y0369933D01*
X0458118Y036975D01*
X045765Y036975D01*
X0423422D01*
X0422581Y0369917D01*
X042179Y0370245D01*
X0421077Y0370721D01*
X0420471Y0371327D01*
X0419995Y037204D01*
X0419667Y0372831D01*
X04195Y0373672D01*
X04195Y03885D01*
X04195Y03885D01*
X0419507Y0388997D01*
X0419681Y0389871D01*
X0420035Y0390726D01*
X0420549Y0391496D01*
X0421204Y0392151D01*
X0421974Y0392665D01*
X0422829Y0393019D01*
X0423737Y03932D01*
X04242Y03932D01*
D02*
G37*
G36*
X046502Y029172D02*
X0458555D01*
Y0299101D01*
X0458539Y029918D01*
Y029926D01*
X0458509Y0299335D01*
X0458493Y0299413D01*
X0458448Y029948D01*
X0458418Y0299554D01*
X0458361Y0299611D01*
X0458316Y0299678D01*
X045826Y0299716D01*
X0458238Y029979D01*
X0458234Y0299823D01*
X0458234Y0300177D01*
X0458238Y030021D01*
X045826Y0300284D01*
X0458316Y0300322D01*
X0458361Y0300389D01*
X0458418Y0300446D01*
X0458448Y030052D01*
X0458493Y0300587D01*
X0458509Y0300665D01*
X0458539Y030074D01*
Y030082D01*
X0458555Y0300899D01*
Y030468D01*
X046502D01*
Y029172D01*
D02*
G37*
D17*
X0436Y0307255D02*
D03*
Y02982D02*
D03*
Y0289145D02*
D03*
D18*
X0461787Y02982D02*
D03*
D19*
X043Y0382D02*
D03*
X0404126D02*
D03*
D20*
X04719Y03552D02*
D03*
X04585Y034D02*
D03*
X04583Y03551D02*
D03*
X04718Y03404D02*
D03*
X03802Y0319D02*
D03*
Y0329D02*
D03*
X03803Y03439D02*
D03*
Y03539D02*
D03*
X04149Y0243D02*
D03*
Y0253D02*
D03*
D21*
X0372Y0314646D02*
D03*
Y0320354D02*
D03*
X03652Y0320409D02*
D03*
Y03147D02*
D03*
X0476244Y032359D02*
D03*
Y0329298D02*
D03*
X04763Y0290773D02*
D03*
Y0296481D02*
D03*
Y0307091D02*
D03*
Y03128D02*
D03*
D22*
X04635Y0323D02*
D03*
X0457594D02*
D03*
X0463487Y03166D02*
D03*
X0457582D02*
D03*
D23*
X04357Y02533D02*
D03*
X0475464D02*
D03*
D24*
X0397174Y03419D02*
D03*
X0431426D02*
D03*
D25*
X04177Y029505D02*
D03*
Y0289145D02*
D03*
X04245D02*
D03*
Y029505D02*
D03*
X04823Y0329889D02*
D03*
Y032359D02*
D03*
Y0297072D02*
D03*
Y0290773D02*
D03*
Y0313391D02*
D03*
Y0307091D02*
D03*
D26*
X0357653Y038D02*
D03*
X0386D02*
D03*
D52*
X0457582Y0317628D02*
Y0329241D01*
X04577Y032936D01*
Y03294D01*
X0436Y03129D02*
X04397Y03166D01*
X0457582D01*
X0436Y0307255D02*
Y03129D01*
X0427555Y0307255D02*
X0436D01*
X04245Y03042D02*
X0427555Y0307255D01*
X04245Y029505D02*
Y03042D01*
X04177Y029505D02*
X04245D01*
D53*
X04146Y03472D02*
X04769D01*
X04811Y0343D01*
Y03369D02*
Y0343D01*
X04658Y03255D02*
Y03344D01*
X04718Y03404D01*
X0351619Y0320374D02*
X0371981D01*
X0476333Y02907D02*
X0482333D01*
X0476253Y03234D02*
X0482309D01*
X0482791Y0297D02*
X04924D01*
X04716Y0295602D02*
X0472479Y0296481D01*
X04716Y02763D02*
Y0295602D01*
X0472479Y0296481D02*
X0476468D01*
X042Y027D02*
X04653D01*
X04823Y0313391D02*
X04924D01*
X049175Y033285D02*
Y033315D01*
X04653Y027D02*
X04716Y02763D01*
X0476244Y0329298D02*
Y0332044D01*
X04811Y03369D01*
X046766Y03128D02*
X04763D01*
Y0307091D02*
X04823D01*
X0371981Y0320374D02*
X0372Y0320354D01*
X03516Y0320393D02*
X0351619Y0320374D01*
X0372Y03116D02*
Y0314646D01*
X03734Y03102D02*
X04046D01*
X0372Y03116D02*
X03734Y03102D01*
X04046D02*
X04089Y03059D01*
Y02869D02*
Y03059D01*
X0414Y036D02*
X042D01*
X03516Y03137D02*
X0361D01*
X0362Y03147D02*
X03652D01*
X0361Y03137D02*
X0362Y03147D01*
X04126Y02912D02*
Y03023D01*
X04325Y03222D01*
X04435D01*
X04472Y03259D01*
Y03365D01*
X04507Y034D02*
X04585D01*
X04472Y03365D02*
X04507Y034D01*
X04249Y03551D02*
X04583D01*
X042Y036D02*
X04249Y03551D01*
D54*
X0357653Y0362385D02*
Y038D01*
X0366039Y0354D02*
X03802D01*
X0357653Y0362385D02*
X0366039Y0354D01*
X04755Y0375D02*
X0476D01*
X0487Y0364D01*
Y03379D02*
Y0364D01*
X0473Y03775D02*
X04755Y0375D01*
X0352Y02337D02*
Y02495D01*
Y02337D02*
X03599Y02258D01*
X03678D01*
X0352819Y0248681D02*
X0352819D01*
X03678Y02258D02*
X04138D01*
X0352Y02495D02*
X0352819Y0248681D01*
X04924Y02828D02*
Y0297D01*
Y03033D01*
X0415515Y02142D02*
X0456442D01*
X03633Y02213D02*
X03678Y02258D01*
X03633Y020805D02*
Y02213D01*
X03631Y020785D02*
X03633Y020805D01*
X04924Y03033D02*
Y0313391D01*
X04926Y03031D02*
X0504731D01*
X04924Y03033D02*
X04926Y03031D01*
X04924Y02378D02*
Y02828D01*
X04927Y02831D01*
X0504731D01*
X04924Y02301D02*
Y02378D01*
X0504431D01*
X0504731Y02381D01*
X04765Y02142D02*
X04924Y02301D01*
X04984Y03263D02*
X04989D01*
X04959Y03233D02*
Y03238D01*
X04924Y0313391D02*
Y03198D01*
X04959Y03233D01*
Y03238D02*
X04984Y03263D01*
X04224Y02431D02*
X04564D01*
X04144D02*
X04224D01*
Y02344D02*
Y02431D01*
X04138Y02258D02*
X04224Y02344D01*
X049175Y033315D02*
X04959Y0329D01*
X0487Y03379D02*
X049175Y033315D01*
X0432Y0202019D02*
Y02138D01*
X04324Y02142D01*
X0412Y0210685D02*
X0415515Y02142D01*
X0412Y0202019D02*
Y0210685D01*
X04564Y02431D02*
X04725D01*
X0456442Y02142D02*
X0456821Y0213821D01*
X04564Y0214242D02*
X0456442Y02142D01*
X04564Y0214242D02*
Y02431D01*
X04572Y02142D02*
X04765D01*
Y0202019D02*
Y02142D01*
X0456821Y0213821D02*
X04572Y02142D01*
X04565Y0202019D02*
X0456821Y020234D01*
Y0213821D01*
X04752Y02458D02*
Y0253036D01*
X04725Y02431D02*
X04752Y02458D01*
Y0253036D02*
X0475464Y02533D01*
X04314Y03294D02*
X0431426Y0329426D01*
Y03419D01*
X03802Y0354D02*
X03803Y03539D01*
X040126Y03419D02*
X0402Y034116D01*
Y03232D02*
Y034116D01*
X0397174Y03419D02*
X040126D01*
X03978Y0319D02*
X0402Y03232D01*
X03802Y0319D02*
X03978D01*
D55*
X03516Y0333779D02*
D03*
Y0320393D02*
D03*
Y0340472D02*
D03*
Y0327086D02*
D03*
Y03137D02*
D03*
D56*
X04989Y03263D02*
D03*
D57*
Y03463D02*
D03*
D58*
X0504731Y02481D02*
D03*
X0422Y0202019D02*
D03*
X0412D02*
D03*
X0432D02*
D03*
X0504731Y03031D02*
D03*
Y02831D02*
D03*
Y02931D02*
D03*
X04765Y0202019D02*
D03*
X04565D02*
D03*
X04665D02*
D03*
D59*
X0504731Y02381D02*
D03*
Y02731D02*
D03*
D60*
X0402Y0202019D02*
D03*
X04465D02*
D03*
D61*
X03831Y020785D02*
D03*
X0453Y0378D02*
D03*
D62*
X03631Y020785D02*
D03*
X0473Y0378D02*
D03*
D63*
X03289Y025965D02*
D03*
Y03267D02*
D03*
D64*
X0352Y02695D02*
D03*
Y02595D02*
D03*
D65*
Y02495D02*
D03*
D66*
X0333445Y0383024D02*
D03*
X0502445D02*
D03*
Y0205524D02*
D03*
X0333945D02*
D03*
D67*
X03698Y02681D02*
D03*
X03982D02*
D03*
D68*
X042Y028D02*
D03*
Y027D02*
D03*
X0445Y029D02*
D03*
X046Y0285D02*
D03*
X045D02*
D03*
X0455Y029D02*
D03*
X045Y0295D02*
D03*
X042Y026D02*
D03*
X0415Y0265D02*
D03*
X041Y026D02*
D03*
Y027D02*
D03*
X0415Y0275D02*
D03*
X041Y028D02*
D03*
X0415Y0285D02*
D03*
X041Y0345D02*
D03*
X0395Y035D02*
D03*
X0405D02*
D03*
X041Y0355D02*
D03*
X04D02*
D03*
X039D02*
D03*
X0395Y036D02*
D03*
X0405D02*
D03*
X039Y0365D02*
D03*
X04D02*
D03*
X041D02*
D03*
X0325Y0315D02*
D03*
Y0305D02*
D03*
Y0295D02*
D03*
X033Y027D02*
D03*
X0325Y0275D02*
D03*
Y0285D02*
D03*
Y025D02*
D03*
X0335D02*
D03*
Y024D02*
D03*
X0325D02*
D03*
X032Y0245D02*
D03*
Y0235D02*
D03*
Y0225D02*
D03*
X0325Y023D02*
D03*
X0345D02*
D03*
X0335D02*
D03*
X0355Y022D02*
D03*
X041Y0195D02*
D03*
X05Y023D02*
D03*
X0505Y0225D02*
D03*
X051Y023D02*
D03*
X0515Y0225D02*
D03*
Y0235D02*
D03*
X0505Y026D02*
D03*
X0515D02*
D03*
X051Y0315D02*
D03*
X0515Y031D02*
D03*
Y032D02*
D03*
X0335Y034D02*
D03*
X0325D02*
D03*
X032Y0345D02*
D03*
X0325Y036D02*
D03*
Y035D02*
D03*
X0335D02*
D03*
Y036D02*
D03*
X0345D02*
D03*
X0485Y0385D02*
D03*
Y0395D02*
D03*
Y037D02*
D03*
X049Y0365D02*
D03*
X0495Y036D02*
D03*
X0505D02*
D03*
X0515Y0365D02*
D03*
X035Y0215D02*
D03*
X0355Y0195D02*
D03*
X0365D02*
D03*
X0435D02*
D03*
X0455D02*
D03*
X0475D02*
D03*
X0485D02*
D03*
X0455Y03D02*
D03*
X0445D02*
D03*
X04577Y03294D02*
D03*
X048Y039D02*
D03*
X047D02*
D03*
X037D02*
D03*
X036D02*
D03*
X034Y0345D02*
D03*
X035Y0365D02*
D03*
Y0355D02*
D03*
X034D02*
D03*
X0355Y0395D02*
D03*
X0365D02*
D03*
X0375D02*
D03*
X0465D02*
D03*
X0475D02*
D03*
X033Y0225D02*
D03*
X034D02*
D03*
X035D02*
D03*
X034Y0235D02*
D03*
X033D02*
D03*
Y0245D02*
D03*
Y0355D02*
D03*
Y0345D02*
D03*
Y031D02*
D03*
Y03D02*
D03*
Y029D02*
D03*
Y028D02*
D03*
X045Y0305D02*
D03*
X04633Y03106D02*
D03*
X04314Y03294D02*
D03*
D69*
X0337776Y037259D02*
D03*
X0323012Y0378693D02*
D03*
X0329114Y0393457D02*
D03*
X0343878Y0387354D02*
D03*
X0323012D02*
D03*
X0337776Y0393457D02*
D03*
X0343878Y0378693D02*
D03*
X0329114Y037259D02*
D03*
X0506776D02*
D03*
X0492012Y0378693D02*
D03*
X0498114Y0393457D02*
D03*
X0512878Y0387354D02*
D03*
X0492012D02*
D03*
X0506776Y0393457D02*
D03*
X0512878Y0378693D02*
D03*
X0498114Y037259D02*
D03*
X0506776Y0195091D02*
D03*
X0492012Y0201193D02*
D03*
X0498114Y0215957D02*
D03*
X0512878Y0209854D02*
D03*
X0492012D02*
D03*
X0506776Y0215957D02*
D03*
X0512878Y0201193D02*
D03*
X0498114Y0195091D02*
D03*
X0338276D02*
D03*
X0323512Y0201193D02*
D03*
X0329614Y0215957D02*
D03*
X0344378Y0209854D02*
D03*
X0323512D02*
D03*
X0338276Y0215957D02*
D03*
X0344378Y0201193D02*
D03*
X0329614Y0195091D02*
D03*
M02*
