G04*
G04 #@! TF.GenerationSoftware,Altium Limited,Altium Designer,21.3.2 (30)*
G04*
G04 Layer_Color=32896*
%FSTAX25Y25*%
%MOIN*%
G70*
G04*
G04 #@! TF.SameCoordinates,D79C2F2D-5807-4F46-82E1-E58DEDE1A544*
G04*
G04*
G04 #@! TF.FilePolarity,Positive*
G04*
G01*
G75*
%ADD74C,0.00591*%
D74*
X0501779Y0242116D02*
Y0240148D01*
Y0241132D01*
X0506699D01*
X0507683Y0240148D01*
Y0239164D01*
X0506699Y023818D01*
X0507683Y0247036D02*
X0501779D01*
X0504731Y0244084D01*
Y024802D01*
X0416016Y0204971D02*
X0414048D01*
X0415032D01*
Y0200051D01*
X0414048Y0199067D01*
X0413064D01*
X041208Y0200051D01*
X042192Y0199067D02*
X0417984D01*
X042192Y0203003D01*
Y0203987D01*
X0420936Y0204971D01*
X0418968D01*
X0417984Y0203987D01*
X0501779Y0287116D02*
Y0285148D01*
Y0286132D01*
X0506699D01*
X0507683Y0285148D01*
Y0284164D01*
X0506699Y028318D01*
X0502763Y0289084D02*
X0501779Y0290068D01*
Y0292036D01*
X0502763Y029302D01*
X0503747D01*
X0504731Y0292036D01*
Y0291052D01*
Y0292036D01*
X0505715Y029302D01*
X0506699D01*
X0507683Y0292036D01*
Y0290068D01*
X0506699Y0289084D01*
X04615Y0204971D02*
X0459532D01*
X0460516D01*
Y0200051D01*
X0459532Y0199067D01*
X0458548D01*
X0457564Y0200051D01*
X0463468Y0199067D02*
X0465436D01*
X0464452D01*
Y0204971D01*
X0463468Y0203987D01*
X0456566Y0251332D02*
X045755Y0250348D01*
X0459518D01*
X0460502Y0251332D01*
Y0255268D01*
X0459518Y0256252D01*
X045755D01*
X0456566Y0255268D01*
X0454598D02*
X0453614Y0256252D01*
X0451646D01*
X0450662Y0255268D01*
Y0251332D01*
X0451646Y0250348D01*
X0453614D01*
X0454598Y0251332D01*
Y0252316D01*
X0453614Y02533D01*
X0450662D01*
X0415284Y0339932D02*
X0416268Y0338948D01*
X0418236D01*
X041922Y0339932D01*
Y0343868D01*
X0418236Y0344852D01*
X0416268D01*
X0415284Y0343868D01*
X0413316Y0339932D02*
X0412332Y0338948D01*
X0410364D01*
X040938Y0339932D01*
Y0340916D01*
X0410364Y03419D01*
X0411348D01*
X0410364D01*
X040938Y0342884D01*
Y0343868D01*
X0410364Y0344852D01*
X0412332D01*
X0413316Y0343868D01*
M02*
