G04*
G04 #@! TF.GenerationSoftware,Altium Limited,Altium Designer,21.3.2 (30)*
G04*
G04 Layer_Color=255*
%FSTAX25Y25*%
%MOIN*%
G70*
G04*
G04 #@! TF.SameCoordinates,D79C2F2D-5807-4F46-82E1-E58DEDE1A544*
G04*
G04*
G04 #@! TF.FilePolarity,Positive*
G04*
G01*
G75*
%ADD17R,0.06496X0.03740*%
%ADD18R,0.06496X0.12992*%
%ADD19R,0.16693X0.15000*%
%ADD20C,0.05906*%
%ADD21R,0.03543X0.02165*%
%ADD22R,0.03150X0.03150*%
%ADD23R,0.22835X0.09843*%
%ADD24R,0.17323X0.07480*%
%ADD25R,0.03150X0.03150*%
%ADD26R,0.09843X0.12402*%
%ADD55O,0.13000X0.05800*%
%ADD56R,0.12000X0.11000*%
%ADD57O,0.12000X0.11000*%
%ADD58C,0.07677*%
G04:AMPARAMS|DCode=59|XSize=76.77mil|YSize=76.77mil|CornerRadius=19.19mil|HoleSize=0mil|Usage=FLASHONLY|Rotation=90.000|XOffset=0mil|YOffset=0mil|HoleType=Round|Shape=RoundedRectangle|*
%AMROUNDEDRECTD59*
21,1,0.07677,0.03839,0,0,90.0*
21,1,0.03839,0.07677,0,0,90.0*
1,1,0.03839,0.01919,0.01919*
1,1,0.03839,0.01919,-0.01919*
1,1,0.03839,-0.01919,-0.01919*
1,1,0.03839,-0.01919,0.01919*
%
%ADD59ROUNDEDRECTD59*%
G04:AMPARAMS|DCode=60|XSize=76.77mil|YSize=76.77mil|CornerRadius=19.19mil|HoleSize=0mil|Usage=FLASHONLY|Rotation=0.000|XOffset=0mil|YOffset=0mil|HoleType=Round|Shape=RoundedRectangle|*
%AMROUNDEDRECTD60*
21,1,0.07677,0.03839,0,0,0.0*
21,1,0.03839,0.07677,0,0,0.0*
1,1,0.03839,0.01919,-0.01919*
1,1,0.03839,-0.01919,-0.01919*
1,1,0.03839,-0.01919,0.01919*
1,1,0.03839,0.01919,0.01919*
%
%ADD60ROUNDEDRECTD60*%
%ADD61O,0.11000X0.12000*%
%ADD62R,0.11000X0.12000*%
%ADD63C,0.14512*%
%ADD64C,0.07638*%
%ADD65R,0.07638X0.07638*%
%ADD66C,0.15748*%
%ADD67C,0.09153*%
D17*
X0436Y0307255D02*
D03*
Y02982D02*
D03*
Y0289145D02*
D03*
D18*
X0461787Y02982D02*
D03*
D19*
X043Y0382D02*
D03*
X0404126D02*
D03*
D20*
X04719Y03552D02*
D03*
X04585Y034D02*
D03*
X04583Y03551D02*
D03*
X04718Y03404D02*
D03*
X03802Y0319D02*
D03*
Y0329D02*
D03*
X03803Y03439D02*
D03*
Y03539D02*
D03*
X04149Y0243D02*
D03*
Y0253D02*
D03*
D21*
X0372Y0314646D02*
D03*
Y0320354D02*
D03*
X03652Y0320409D02*
D03*
Y03147D02*
D03*
X0476244Y032359D02*
D03*
Y0329298D02*
D03*
X04763Y0290773D02*
D03*
Y0296481D02*
D03*
Y0307091D02*
D03*
Y03128D02*
D03*
D22*
X04635Y0323D02*
D03*
X0457594D02*
D03*
X0463487Y03166D02*
D03*
X0457582D02*
D03*
D23*
X04357Y02533D02*
D03*
X0475464D02*
D03*
D24*
X0397174Y03419D02*
D03*
X0431426D02*
D03*
D25*
X04177Y029505D02*
D03*
Y0289145D02*
D03*
X04245D02*
D03*
Y029505D02*
D03*
X04823Y0329889D02*
D03*
Y032359D02*
D03*
Y0297072D02*
D03*
Y0290773D02*
D03*
Y0313391D02*
D03*
Y0307091D02*
D03*
D26*
X0357653Y038D02*
D03*
X0386D02*
D03*
D55*
X03516Y0333779D02*
D03*
Y0320393D02*
D03*
Y0340472D02*
D03*
Y0327086D02*
D03*
Y03137D02*
D03*
D56*
X04989Y03263D02*
D03*
D57*
Y03463D02*
D03*
D58*
X0504731Y02481D02*
D03*
X0422Y0202019D02*
D03*
X0412D02*
D03*
X0432D02*
D03*
X0504731Y03031D02*
D03*
Y02831D02*
D03*
Y02931D02*
D03*
X04765Y0202019D02*
D03*
X04565D02*
D03*
X04665D02*
D03*
D59*
X0504731Y02381D02*
D03*
Y02731D02*
D03*
D60*
X0402Y0202019D02*
D03*
X04465D02*
D03*
D61*
X03831Y020785D02*
D03*
X0453Y0378D02*
D03*
D62*
X03631Y020785D02*
D03*
X0473Y0378D02*
D03*
D63*
X03289Y025965D02*
D03*
Y03267D02*
D03*
D64*
X0352Y02695D02*
D03*
Y02595D02*
D03*
D65*
Y02495D02*
D03*
D66*
X0333445Y0383024D02*
D03*
X0502445D02*
D03*
Y0205524D02*
D03*
X0333945D02*
D03*
D67*
X03698Y02681D02*
D03*
X03982D02*
D03*
M02*
