G04*
G04 #@! TF.GenerationSoftware,Altium Limited,Altium Designer,21.3.2 (30)*
G04*
G04 Layer_Color=8388736*
%FSTAX25Y25*%
%MOIN*%
G70*
G04*
G04 #@! TF.SameCoordinates,D79C2F2D-5807-4F46-82E1-E58DEDE1A544*
G04*
G04*
G04 #@! TF.FilePolarity,Negative*
G04*
G01*
G75*
%ADD27R,0.07296X0.04540*%
%ADD28R,0.07296X0.13792*%
%ADD29R,0.17493X0.15800*%
%ADD30C,0.06706*%
%ADD31R,0.04343X0.02965*%
%ADD32R,0.03950X0.03950*%
%ADD33R,0.23635X0.10642*%
%ADD34R,0.18123X0.08280*%
%ADD35R,0.03950X0.03950*%
%ADD36R,0.10642X0.13202*%
%ADD37O,0.13800X0.06600*%
%ADD38R,0.12800X0.11800*%
%ADD39O,0.12800X0.11800*%
%ADD40C,0.08477*%
G04:AMPARAMS|DCode=41|XSize=84.77mil|YSize=84.77mil|CornerRadius=23.19mil|HoleSize=0mil|Usage=FLASHONLY|Rotation=90.000|XOffset=0mil|YOffset=0mil|HoleType=Round|Shape=RoundedRectangle|*
%AMROUNDEDRECTD41*
21,1,0.08477,0.03839,0,0,90.0*
21,1,0.03839,0.08477,0,0,90.0*
1,1,0.04639,0.01919,0.01919*
1,1,0.04639,0.01919,-0.01919*
1,1,0.04639,-0.01919,-0.01919*
1,1,0.04639,-0.01919,0.01919*
%
%ADD41ROUNDEDRECTD41*%
G04:AMPARAMS|DCode=42|XSize=84.77mil|YSize=84.77mil|CornerRadius=23.19mil|HoleSize=0mil|Usage=FLASHONLY|Rotation=0.000|XOffset=0mil|YOffset=0mil|HoleType=Round|Shape=RoundedRectangle|*
%AMROUNDEDRECTD42*
21,1,0.08477,0.03839,0,0,0.0*
21,1,0.03839,0.08477,0,0,0.0*
1,1,0.04639,0.01919,-0.01919*
1,1,0.04639,-0.01919,-0.01919*
1,1,0.04639,-0.01919,0.01919*
1,1,0.04639,0.01919,0.01919*
%
%ADD42ROUNDEDRECTD42*%
%ADD43O,0.11800X0.12800*%
%ADD44R,0.11800X0.12800*%
%ADD45C,0.15312*%
%ADD46C,0.08438*%
%ADD47R,0.08438X0.08438*%
%ADD48C,0.16548*%
%ADD49C,0.09954*%
%ADD50C,0.03950*%
%ADD51C,0.03398*%
G36*
X0348118Y0205457D02*
X0348118Y0204533D01*
X0347877Y0202699D01*
X0347398Y0200913D01*
X0346691Y0199205D01*
X0345766Y0197603D01*
X034464Y0196136D01*
X0343333Y0194828D01*
X0341866Y0193703D01*
X0340264Y0192778D01*
X0338556Y019207D01*
X033677Y0191592D01*
X0334936Y019135D01*
X0334012D01*
X0333078Y019135D01*
X0331228Y0191594D01*
X0329425Y0192076D01*
X0327701Y019279D01*
X0326084Y0193723D01*
X0324603Y0194859D01*
X0323283Y0196179D01*
X0322147Y0197659D01*
X0321213Y0199276D01*
X0320499Y0201D01*
X0320016Y0202803D01*
X0319772Y0204653D01*
X0319772Y0205586D01*
X0319772Y0206514D01*
X0320014Y0208353D01*
X0320496Y0210145D01*
X0321208Y0211858D01*
X0322138Y0213463D01*
X032327Y0214933D01*
X0324585Y0216242D01*
X032606Y0217367D01*
X032767Y021829D01*
X0329386Y0218994D01*
X0331181Y0219467D01*
X0333021Y0219701D01*
X0333948Y0219697D01*
X0334879Y0219692D01*
X0336723Y0219441D01*
X0338518Y0218952D01*
X0340235Y0218233D01*
X0341843Y0217298D01*
X0343316Y0216161D01*
X0344629Y0214842D01*
X0345758Y0213363D01*
X0346686Y021175D01*
X0347396Y021003D01*
X0347876Y0208233D01*
X0348118Y0206388D01*
X0348118Y0205457D01*
D01*
D02*
G37*
G36*
X0516618D02*
X0516618Y0204533D01*
X0516377Y0202699D01*
X0515898Y0200913D01*
X0515191Y0199205D01*
X0514266Y0197603D01*
X051314Y0196136D01*
X0511833Y0194828D01*
X0510366Y0193703D01*
X0508764Y0192778D01*
X0507056Y019207D01*
X050527Y0191592D01*
X0503436Y019135D01*
X0502512D01*
X0501578Y019135D01*
X0499728Y0191594D01*
X0497925Y0192076D01*
X0496201Y019279D01*
X0494584Y0193723D01*
X0493103Y0194859D01*
X0491783Y0196179D01*
X0490647Y0197659D01*
X0489713Y0199276D01*
X0488999Y0201D01*
X0488516Y0202803D01*
X0488272Y0204653D01*
X0488272Y0205586D01*
X0488272Y0206514D01*
X0488514Y0208353D01*
X0488996Y0210145D01*
X0489708Y0211858D01*
X0490638Y0213463D01*
X049177Y0214933D01*
X0493085Y0216242D01*
X049456Y0217367D01*
X049617Y021829D01*
X0497887Y0218994D01*
X0499681Y0219467D01*
X0501521Y0219701D01*
X0502449Y0219697D01*
X0503379Y0219692D01*
X0505223Y0219441D01*
X0507018Y0218952D01*
X0508735Y0218233D01*
X0510343Y0217298D01*
X0511816Y0216161D01*
X0513129Y0214842D01*
X0514258Y0213363D01*
X0515186Y021175D01*
X0515896Y021003D01*
X0516376Y0208233D01*
X0516618Y0206388D01*
X0516618Y0205457D01*
D01*
D02*
G37*
G36*
X0347618Y0382957D02*
X0347618Y0382033D01*
X0347377Y0380199D01*
X0346899Y0378413D01*
X0346191Y0376705D01*
X0345266Y0375103D01*
X034414Y0373636D01*
X0342833Y0372328D01*
X0341366Y0371203D01*
X0339764Y0370278D01*
X0338056Y036957D01*
X033627Y0369092D01*
X0334436Y036885D01*
X0333512D01*
X0332578Y036885D01*
X0330728Y0369094D01*
X0328925Y0369576D01*
X0327201Y037029D01*
X0325584Y0371223D01*
X0324103Y0372359D01*
X0322783Y0373679D01*
X0321647Y0375159D01*
X0320713Y0376776D01*
X0319999Y03785D01*
X0319515Y0380303D01*
X0319272Y0382153D01*
X0319271Y0383086D01*
X0319271Y0384014D01*
X0319514Y0385853D01*
X0319996Y0387645D01*
X0320708Y0389358D01*
X0321638Y0390963D01*
X032277Y0392433D01*
X0324085Y0393742D01*
X032556Y0394867D01*
X032717Y039579D01*
X0328887Y0396494D01*
X033068Y0396967D01*
X0332521Y0397201D01*
X0333449Y0397197D01*
X0334379Y0397192D01*
X0336223Y0396941D01*
X0338018Y0396452D01*
X0339735Y0395733D01*
X0341343Y0394798D01*
X0342816Y0393661D01*
X0344128Y0392342D01*
X0345258Y0390863D01*
X0346186Y038925D01*
X0346896Y038753D01*
X0347376Y0385733D01*
X0347618Y0383888D01*
X0347618Y0382957D01*
D01*
D02*
G37*
G36*
X0516618D02*
X0516618Y0382033D01*
X0516377Y0380199D01*
X0515898Y0378413D01*
X0515191Y0376705D01*
X0514266Y0375103D01*
X051314Y0373636D01*
X0511833Y0372328D01*
X0510366Y0371203D01*
X0508764Y0370278D01*
X0507056Y036957D01*
X050527Y0369092D01*
X0503436Y036885D01*
X0502512D01*
X0501578Y036885D01*
X0499728Y0369094D01*
X0497925Y0369576D01*
X0496201Y037029D01*
X0494584Y0371223D01*
X0493103Y0372359D01*
X0491783Y0373679D01*
X0490647Y0375159D01*
X0489713Y0376776D01*
X0488999Y03785D01*
X0488516Y0380303D01*
X0488272Y0382153D01*
X0488272Y0383086D01*
X0488272Y0384014D01*
X0488514Y0385853D01*
X0488996Y0387645D01*
X0489708Y0389358D01*
X0490638Y0390963D01*
X049177Y0392433D01*
X0493085Y0393742D01*
X049456Y0394867D01*
X049617Y039579D01*
X0497887Y0396494D01*
X0499681Y0396967D01*
X0501521Y0397201D01*
X0502449Y0397197D01*
X0503379Y0397192D01*
X0505223Y0396941D01*
X0507018Y0396452D01*
X0508735Y0395733D01*
X0510343Y0394798D01*
X0511816Y0393661D01*
X0513129Y0392342D01*
X0514258Y0390863D01*
X0515186Y038925D01*
X0515896Y038753D01*
X0516376Y0385733D01*
X0516618Y0383888D01*
X0516618Y0382957D01*
D01*
D02*
G37*
D27*
X0436Y0307255D02*
D03*
Y02982D02*
D03*
Y0289145D02*
D03*
D28*
X0461787Y02982D02*
D03*
D29*
X043Y0382D02*
D03*
X0404126D02*
D03*
D30*
X04719Y03552D02*
D03*
X04585Y034D02*
D03*
X04583Y03551D02*
D03*
X04718Y03404D02*
D03*
X03802Y0319D02*
D03*
Y0329D02*
D03*
X03803Y03439D02*
D03*
Y03539D02*
D03*
X04149Y0243D02*
D03*
Y0253D02*
D03*
D31*
X0372Y0314646D02*
D03*
Y0320354D02*
D03*
X03652Y0320409D02*
D03*
Y03147D02*
D03*
X0476244Y032359D02*
D03*
Y0329298D02*
D03*
X04763Y0290773D02*
D03*
Y0296481D02*
D03*
Y0307091D02*
D03*
Y03128D02*
D03*
D32*
X04635Y0323D02*
D03*
X0457594D02*
D03*
X0463487Y03166D02*
D03*
X0457582D02*
D03*
D33*
X04357Y02533D02*
D03*
X0475464D02*
D03*
D34*
X0397174Y03419D02*
D03*
X0431426D02*
D03*
D35*
X04177Y029505D02*
D03*
Y0289145D02*
D03*
X04245D02*
D03*
Y029505D02*
D03*
X04823Y0329889D02*
D03*
Y032359D02*
D03*
Y0297072D02*
D03*
Y0290773D02*
D03*
Y0313391D02*
D03*
Y0307091D02*
D03*
D36*
X0357653Y038D02*
D03*
X0386D02*
D03*
D37*
X03516Y0333779D02*
D03*
Y0320393D02*
D03*
Y0340472D02*
D03*
Y0327086D02*
D03*
Y03137D02*
D03*
D38*
X04989Y03263D02*
D03*
D39*
Y03463D02*
D03*
D40*
X0504731Y02481D02*
D03*
X0422Y0202019D02*
D03*
X0412D02*
D03*
X0432D02*
D03*
X0504731Y03031D02*
D03*
Y02831D02*
D03*
Y02931D02*
D03*
X04765Y0202019D02*
D03*
X04565D02*
D03*
X04665D02*
D03*
D41*
X0504731Y02381D02*
D03*
Y02731D02*
D03*
D42*
X0402Y0202019D02*
D03*
X04465D02*
D03*
D43*
X03831Y020785D02*
D03*
X0453Y0378D02*
D03*
D44*
X03631Y020785D02*
D03*
X0473Y0378D02*
D03*
D45*
X03289Y025965D02*
D03*
Y03267D02*
D03*
D46*
X0352Y02695D02*
D03*
Y02595D02*
D03*
D47*
Y02495D02*
D03*
D48*
X0333445Y0383024D02*
D03*
X0502445D02*
D03*
Y0205524D02*
D03*
X0333945D02*
D03*
D49*
X03698Y02681D02*
D03*
X03982D02*
D03*
D50*
X042Y028D02*
D03*
Y027D02*
D03*
X0445Y029D02*
D03*
X046Y0285D02*
D03*
X045D02*
D03*
X0455Y029D02*
D03*
X045Y0295D02*
D03*
X042Y026D02*
D03*
X0415Y0265D02*
D03*
X041Y026D02*
D03*
Y027D02*
D03*
X0415Y0275D02*
D03*
X041Y028D02*
D03*
X0415Y0285D02*
D03*
X041Y0345D02*
D03*
X0395Y035D02*
D03*
X0405D02*
D03*
X041Y0355D02*
D03*
X04D02*
D03*
X039D02*
D03*
X0395Y036D02*
D03*
X0405D02*
D03*
X039Y0365D02*
D03*
X04D02*
D03*
X041D02*
D03*
X0325Y0315D02*
D03*
Y0305D02*
D03*
Y0295D02*
D03*
X033Y027D02*
D03*
X0325Y0275D02*
D03*
Y0285D02*
D03*
Y025D02*
D03*
X0335D02*
D03*
Y024D02*
D03*
X0325D02*
D03*
X032Y0245D02*
D03*
Y0235D02*
D03*
Y0225D02*
D03*
X0325Y023D02*
D03*
X0345D02*
D03*
X0335D02*
D03*
X0355Y022D02*
D03*
X041Y0195D02*
D03*
X05Y023D02*
D03*
X0505Y0225D02*
D03*
X051Y023D02*
D03*
X0515Y0225D02*
D03*
Y0235D02*
D03*
X0505Y026D02*
D03*
X0515D02*
D03*
X051Y0315D02*
D03*
X0515Y031D02*
D03*
Y032D02*
D03*
X0335Y034D02*
D03*
X0325D02*
D03*
X032Y0345D02*
D03*
X0325Y036D02*
D03*
Y035D02*
D03*
X0335D02*
D03*
Y036D02*
D03*
X0345D02*
D03*
X0485Y0385D02*
D03*
Y0395D02*
D03*
Y037D02*
D03*
X049Y0365D02*
D03*
X0495Y036D02*
D03*
X0505D02*
D03*
X0515Y0365D02*
D03*
X035Y0215D02*
D03*
X0355Y0195D02*
D03*
X0365D02*
D03*
X0435D02*
D03*
X0455D02*
D03*
X0475D02*
D03*
X0485D02*
D03*
X0455Y03D02*
D03*
X0445D02*
D03*
X04577Y03294D02*
D03*
X048Y039D02*
D03*
X047D02*
D03*
X037D02*
D03*
X036D02*
D03*
X034Y0345D02*
D03*
X035Y0365D02*
D03*
Y0355D02*
D03*
X034D02*
D03*
X0355Y0395D02*
D03*
X0365D02*
D03*
X0375D02*
D03*
X0465D02*
D03*
X0475D02*
D03*
X033Y0225D02*
D03*
X034D02*
D03*
X035D02*
D03*
X034Y0235D02*
D03*
X033D02*
D03*
Y0245D02*
D03*
Y0355D02*
D03*
Y0345D02*
D03*
Y031D02*
D03*
Y03D02*
D03*
Y029D02*
D03*
Y028D02*
D03*
X045Y0305D02*
D03*
X04633Y03106D02*
D03*
X04314Y03294D02*
D03*
D51*
X0337776Y037259D02*
D03*
X0323012Y0378693D02*
D03*
X0329114Y0393457D02*
D03*
X0343878Y0387354D02*
D03*
X0323012D02*
D03*
X0337776Y0393457D02*
D03*
X0343878Y0378693D02*
D03*
X0329114Y037259D02*
D03*
X0506776D02*
D03*
X0492012Y0378693D02*
D03*
X0498114Y0393457D02*
D03*
X0512878Y0387354D02*
D03*
X0492012D02*
D03*
X0506776Y0393457D02*
D03*
X0512878Y0378693D02*
D03*
X0498114Y037259D02*
D03*
X0506776Y0195091D02*
D03*
X0492012Y0201193D02*
D03*
X0498114Y0215957D02*
D03*
X0512878Y0209854D02*
D03*
X0492012D02*
D03*
X0506776Y0215957D02*
D03*
X0512878Y0201193D02*
D03*
X0498114Y0195091D02*
D03*
X0338276D02*
D03*
X0323512Y0201193D02*
D03*
X0329614Y0215957D02*
D03*
X0344378Y0209854D02*
D03*
X0323512D02*
D03*
X0338276Y0215957D02*
D03*
X0344378Y0201193D02*
D03*
X0329614Y0195091D02*
D03*
M02*
