M48
;Layer_Color=9474304
;FILE_FORMAT=2:5
INCH,LZ
;TYPE=PLATED
T1F00S00C0.01299
T2F00S00C0.01575
T3F00S00C0.02756
T4F00S00C0.05000
T5F00S00C0.05079
T6F00S00C0.05118
T7F00S00C0.06000
T8F00S00C0.06102
T9F00S00C0.10512
T10F00S00C0.12598
%
T01
X0492012Y0201193
Y0209854
X0498114Y0215957
X0506776
X0512878Y0209854
Y0201193
X0506776Y0195091
X0498114
X0338276
X0329614
X0323512Y0201193
Y0209854
X0329614Y0215957
X0338276
X0344378Y0209854
Y0201193
X0337776Y037259
X0329114
X0323012Y0378693
Y0387354
X0329114Y0393457
X0337776
X0343878Y0387354
Y0378693
X0492012
Y0387354
X0498114Y0393457
X0506776
X0512878Y0387354
Y0378693
X0506776Y037259
X0498114
T02
X0475Y0195
X0485
X05Y023
X0505Y0225
X051Y023
X0515Y0225
Y0235
Y026
X0505
X0515Y031
X04633Y03106
X0455Y03
Y029
X0445
X045Y0285
X046
X045Y0295
X0445Y03
X045Y0305
X042Y028
Y027
Y026
X0415Y0265
X041Y026
Y027
X0415Y0275
X041Y028
X0415Y0285
X0325
Y0295
Y0305
X033Y031
Y03
Y029
Y028
Y027
X0325Y0275
Y025
X0335
Y024
X0325
X032Y0245
Y0235
Y0225
X0325Y023
X0335
X0345
X034Y0225
X033
Y0235
X034
X035Y0225
X0355Y022
X035Y0215
X0355Y0195
X0365
X041
X0435
X0455
X033Y0245
X0325Y0315
Y034
X0335
Y035
X0325
X032Y0345
X033
X034
Y0355
X0335Y036
X0325
X033Y0355
X0345Y036
X035Y0365
Y0355
X039
X0395Y035
X0405
X041Y0345
Y0355
X04
X0395Y036
X0405
X04Y0365
X039
X041
X04314Y03294
X04577
X0465Y0395
X0375
X037Y039
X036
X0355Y0395
X0365
X047Y039
X048
X0485Y0385
Y0395
X0475
X0485Y037
X049Y0365
X0495Y036
X0505
X0515Y0365
Y032
X051Y0315
T03
X04149Y0243
Y0253
X03802Y0319
Y0329
X03803Y03439
Y03539
T04
X03516Y03137
Y0320393
Y0327086
Y0340472
T05
X0352Y02495
Y02595
Y02695
X03516Y0333779
T06
X04765Y0202019
X0504731Y02381
Y02481
Y02731
Y02831
Y02931
Y03031
X04665Y0202019
X04565
X04465
X0432
X0422
X0412
X0402
T07
X03631Y020785
X03831
X0453Y0378
X0473
X04989Y03463
Y03263
T08
X03698Y02681
X03982
T09
X03289Y025965
Y03267
T10
X0502445Y0205524
X0333945
X0333445Y0383024
X0502445
M30
