M48
;Layer_Color=9474304
;FILE_FORMAT=2:5
INCH,LZ
;TYPE=PLATED
T1F00S00C0.01299
T2F00S00C0.01575
T3F00S00C0.02362
T4F00S00C0.02756
T5F00S00C0.02835
T6F00S00C0.03032
T7F00S00C0.03071
T8F00S00C0.03100
T9F00S00C0.03543
T10F00S00C0.03937
T11F00S00C0.03976
T12F00S00C0.04000
T13F00S00C0.04173
T14F00S00C0.04331
T15F00S00C0.05512
T16F00S00C0.05906
T17F00S00C0.09843
T18F00S00C0.12598
%
T01
X0103912Y0078993
Y0087654
X0110014Y0093757
X0118676
X0124778Y0087654
Y0078993
X0118676Y0072891
X0110014
X0305447Y0078993
Y0087654
X031155Y0093757
Y0072891
X0320211
X0326313Y0078993
Y0087654
X0320211Y0093757
X0118676Y0384681
X0110014
X0103912Y0390784
Y0399445
X0110014Y0405547
X0118676
X0124778Y0399445
Y0390784
X0305447
Y0399445
X031155Y0405547
Y0384681
X0320211
X0326313Y0390784
Y0399445
X0320211Y0405547
T02
X01437Y01516
X01622Y01515
X01868Y01444
X0172Y01181
X01614Y01049
X0243Y00933
X02501Y0086
X02498Y01183
X02426Y01234
X0325Y01396
X0331Y01075
X03036Y01811
X02975Y02175
X02813Y02172
X02756Y02357
X02536Y02487
X02501Y02705
X02647Y02694
X0285Y028
X03
X02945Y02648
X02388Y02235
X02521Y02081
X02594Y01819
X02501Y01634
X02023Y0220665
X0198982Y0227697
X01596Y02398
X01243Y02238
X013Y02104
X01075Y02994
X02655Y03399
X02774Y03294
X0301073Y0347627
T03
X0138242Y0076621
Y0092221
X01784
X0190421
Y0076621
X01784
X0230579
Y0092221
X02222Y0134321
X02416
X02764
X02956
Y0174479
X02764
X02416
X02222
X0232279Y01938
X0231979Y02081
X02441Y0205764
X02605Y0205664
Y0245821
X02441Y0245921
X0219Y0282821
X01798Y0274121
X0169957
X0191821Y02081
X0192121Y01938
X0125903Y0192778
X0107003
Y0232936
X0125903
X0125803Y0290622
X0106903
Y0330779
X0125803
X0219Y0322979
Y03427
X02361
X0255157Y03499
X0265
X02649Y0378121
X0255058
X02361Y0382857
X0219
T04
X02589Y0137665
Y0147665
X0202Y018
X0192
X0171935Y0178
X0161935
X0162035Y0193011
X0172035
Y0208021
X0162035
X02076Y0231892
Y0241893
X0223
Y0231892
X02476Y02588
X02576
T05
X0283841Y035252
X0288959Y039248
T06
X01421Y01322
X01521
X01621
X01721
X01821
X01921
X02021
Y016346
X01921
X01821
X01721
X01621
X01521
X01421
T07
X01599Y0222291
X01699
X01799
X01899
Y0253551
X01799
X01699
X01599
T08
X0111Y015
Y016
Y017
T09
X02812Y01093
X02862
X02912
X0194599Y0290363
X0155229
Y0361229
X0194599
T10
X0271Y0085
X0281
X032Y0115
Y0125
X0115Y0353
Y0363
T11
X0197378Y01127
X0221
T12
X0107003Y0246657
Y0256657
X0106903Y0267601
Y0277601
X0125803
Y0267601
X0125903Y0256957
Y0246957
T13
X02366Y02811
Y0321887
T14
X01066Y01117
X01166
X01164Y01241
X01064
X0315Y0155
X0325
Y0165
X0315
Y0175
X0325
Y0185
Y0195
Y0205
X0315
Y0215
X0325
X0315Y0195
Y0185
X0147Y02606
Y02706
T15
X0316614Y02425
Y02575
X02579Y0400435
X02429
X01824
X01674
T16
X03197Y02906
Y0369065
T17
X015523Y0382021
X01946
T18
X0114345Y0083324
X031588
X0114345Y0395114
X031588
M30
